<svg width="21" height="21" viewBox="0 0 21 21" fill="none" xmlns="http://www.w3.org/2000/svg">
<path d="M10.6428 13.5C7.22895 13.5 4.19301 15.0306 2.26018 17.406C1.84418 17.9172 1.63618 18.1728 1.64298 18.5183C1.64824 18.7852 1.82873 19.1219 2.05489 19.2867C2.34761 19.5 2.75327 19.5 3.56457 19.5H17.7211C18.5324 19.5 18.938 19.5 19.2308 19.2867C19.4569 19.1219 19.6374 18.7852 19.6427 18.5183C19.6495 18.1728 19.4415 17.9172 19.0255 17.406C17.0926 15.0306 14.0567 13.5 10.6428 13.5Z" stroke="black" stroke-width="2" stroke-linecap="round" stroke-linejoin="round"/>
<path d="M10.6428 10.5C13.3192 10.5 15.4889 8.48528 15.4889 6C15.4889 3.51472 13.3192 1.5 10.6428 1.5C7.96641 1.5 5.79674 3.51472 5.79674 6C5.79674 8.48528 7.96641 10.5 10.6428 10.5Z" stroke="black" stroke-width="2" stroke-linecap="round" stroke-linejoin="round"/>
</svg>
