<svg width="24" height="25" viewBox="0 0 24 25" fill="none" xmlns="http://www.w3.org/2000/svg">
<path d="M12.6428 15.5C9.22895 15.5 6.19301 17.0306 4.26018 19.406C3.84418 19.9172 3.63618 20.1728 3.64298 20.5183C3.64824 20.7852 3.82873 21.1219 4.05489 21.2867C4.34761 21.5 4.75327 21.5 5.56457 21.5H19.7211C20.5324 21.5 20.938 21.5 21.2308 21.2867C21.4569 21.1219 21.6374 20.7852 21.6427 20.5183C21.6495 20.1728 21.4415 19.9172 21.0255 19.406C19.0926 17.0306 16.0567 15.5 12.6428 15.5Z" stroke="black" stroke-width="2" stroke-linecap="round" stroke-linejoin="round"/>
<path d="M12.6428 12.5C15.3192 12.5 17.4889 10.4853 17.4889 8C17.4889 5.51472 15.3192 3.5 12.6428 3.5C9.96641 3.5 7.79674 5.51472 7.79674 8C7.79674 10.4853 9.96641 12.5 12.6428 12.5Z" stroke="black" stroke-width="2" stroke-linecap="round" stroke-linejoin="round"/>
</svg>
