<svg width="40" height="41" viewBox="0 0 40 41" fill="none" xmlns="http://www.w3.org/2000/svg">
<path fill-rule="evenodd" clip-rule="evenodd" d="M17.4999 14.8333C17.6999 15.0166 17.8833 15.2333 18.0833 15.4333C18.1757 15.5523 18.3107 15.6309 18.4598 15.6527C18.6089 15.6744 18.7607 15.6376 18.8833 15.55C19.0012 15.4605 19.0794 15.3284 19.1012 15.182C19.123 15.0357 19.0866 14.8866 18.9999 14.7666C18.8166 14.4333 18.6833 14.1166 18.4833 13.8C18.2409 13.4593 17.9307 13.1724 17.5722 12.9573C17.2137 12.7421 16.8146 12.6035 16.3999 12.55C15.8593 12.4867 15.3123 12.5914 14.8333 12.8499C14.4082 13.1075 14.0504 13.4625 13.7896 13.8856C13.5288 14.3087 13.3724 14.7878 13.3333 15.2833C13.3025 15.4092 13.3218 15.5421 13.3871 15.654C13.4524 15.7659 13.5586 15.8481 13.6833 15.8833C13.8134 15.9085 13.9482 15.8828 14.0599 15.8115C14.1715 15.7401 14.2515 15.6286 14.2833 15.5C14.5165 15.0883 14.88 14.7658 15.3166 14.5833C15.5724 14.4638 15.851 14.4012 16.1333 14.4C16.4273 14.3727 16.7236 14.4126 16.9999 14.5166C17.1898 14.58 17.3615 14.6887 17.4999 14.8333Z" fill="black"/>
<path fill-rule="evenodd" clip-rule="evenodd" d="M23.9499 15.5L24.4166 15C24.5569 14.8908 24.7147 14.8063 24.8833 14.75C25.1024 14.6507 25.3469 14.6216 25.5833 14.6667C25.8342 14.6785 26.0792 14.7469 26.2999 14.8667C26.7065 15.0738 27.0513 15.3841 27.2999 15.7667C27.359 15.9068 27.4705 16.0183 27.6106 16.0775C27.7507 16.1366 27.9083 16.1387 28.0499 16.0834C28.1712 16.0223 28.2665 15.9197 28.3185 15.7943C28.3705 15.6689 28.3757 15.529 28.3333 15.4C28.2143 14.8618 27.9716 14.3587 27.6245 13.9306C27.2773 13.5024 26.8352 13.161 26.3333 12.9334C25.9116 12.7911 25.4549 12.7911 25.0333 12.9334C24.6265 13.0366 24.2533 13.2433 23.9499 13.5334C23.7636 13.7401 23.5962 13.9632 23.4499 14.2C23.2951 14.5108 23.1669 14.8342 23.0666 15.1667C23.0114 15.2871 23.003 15.4239 23.043 15.5502C23.0831 15.6765 23.1687 15.7834 23.2833 15.85C23.3498 15.8757 23.421 15.887 23.4922 15.8829C23.5634 15.8788 23.6329 15.8595 23.6961 15.8264C23.7592 15.7932 23.8145 15.747 23.8583 15.6907C23.9021 15.6344 23.9333 15.5694 23.9499 15.5Z" fill="black"/>
<path fill-rule="evenodd" clip-rule="evenodd" d="M19 21.8C19.449 21.9979 19.9343 22.1001 20.425 22.1001C20.9157 22.1001 21.401 21.9979 21.85 21.8C22.2021 21.611 22.5272 21.3755 22.8166 21.1C23.2029 20.7224 23.5595 20.3157 23.8833 19.8833C23.9396 19.8307 23.9846 19.7672 24.0156 19.6967C24.0465 19.6261 24.0627 19.55 24.0632 19.473C24.0637 19.3959 24.0485 19.3196 24.0186 19.2486C23.9886 19.1776 23.9444 19.1135 23.8888 19.0602C23.8332 19.0069 23.7673 18.9654 23.6952 18.9384C23.623 18.9114 23.5461 18.8994 23.4692 18.9032C23.3922 18.9069 23.3168 18.9263 23.2476 18.9601C23.1784 18.9939 23.1168 19.0415 23.0666 19.1C22.7098 19.4001 22.331 19.6731 21.9333 19.9167C21.7035 20.0453 21.4566 20.1407 21.2 20.2C20.9572 20.2407 20.7094 20.2407 20.4667 20.2C20.0602 20.1752 19.6632 20.0674 19.3 19.8833C18.5639 19.5674 17.9129 19.082 17.4 18.4667C17.3686 18.4083 17.3259 18.3568 17.2744 18.3151C17.223 18.2734 17.1637 18.2424 17.1001 18.2237C17.0366 18.2051 16.9699 18.1993 16.9041 18.2067C16.8383 18.2141 16.7745 18.2345 16.7167 18.2667C16.602 18.3332 16.5174 18.4412 16.4802 18.5684C16.4429 18.6956 16.456 18.8322 16.5167 18.95C16.9632 20.1746 17.848 21.19 19 21.8Z" fill="black"/>
<path fill-rule="evenodd" clip-rule="evenodd" d="M29.6167 30.3331C29.5333 30.0998 29.4333 29.8831 29.3333 29.6665C28.7833 28.5831 27.6667 28.2665 27.8333 29.2998C28.0167 29.7998 28.2 30.2831 28.3667 30.7831C28.5385 31.2635 28.6832 31.7532 28.8 32.2498C28.8936 32.6336 28.9605 33.0234 29 33.4165C29.0421 33.6535 29.0421 33.8961 29 34.1331C28.5333 34.1331 27.7 33.9665 27.6167 33.9831L21.5333 34.2331L21.9333 33.9165C22.6641 33.2413 23.3542 32.5233 24 31.7665C24.8 30.8498 25.5333 29.8831 26.2667 28.9498C27 28.0165 25.7667 27.7998 24.85 28.6498C24.2 29.3331 23.55 30.0165 22.85 30.6665C22.1876 31.3206 21.4803 31.9276 20.7333 32.4831C20.4843 32.7513 20.217 33.0019 19.9333 33.2331L18.9833 32.0498C17.8667 30.9498 16.7667 29.8998 15.65 28.7165C14.8167 27.5831 13.8167 28.0498 14.3667 29.0331L15.1167 30.1165L17.5833 33.2998C17.8667 33.6165 18.0833 34.0331 18.35 34.3831L18.5 34.5498L16.1833 34.8165H13.8333L12.8833 34.6665L12.1333 34.3831C11.9686 34.3263 11.8249 34.2212 11.7208 34.0815C11.6168 33.9417 11.5572 33.7739 11.55 33.5998C11.629 32.7445 11.8023 31.9005 12.0667 31.0831L12.4 29.4998C12.7 28.2165 11.6667 28.0831 11.1167 29.8331L10.85 30.8165C10.4591 31.7195 10.1738 32.6646 10 33.6331C9.97395 34.0747 10.0786 34.5141 10.301 34.8965C10.5233 35.2789 10.8534 35.5873 11.25 35.7831L12.2833 36.2665L13.5167 36.5498C14.0073 36.6276 14.5033 36.6666 15 36.6665H16.3167L19.0833 36.3665C19.0911 36.4162 19.0911 36.4668 19.0833 36.5165C19.0584 36.7826 19.0584 37.0504 19.0833 37.3165C19.0662 37.5773 19.0662 37.839 19.0833 38.0998C19.1667 38.7165 19.3167 39.2998 19.4167 39.9165C19.4167 40.0668 19.4764 40.2109 19.5826 40.3172C19.6889 40.4234 19.833 40.4831 19.9833 40.4831C20.1336 40.4831 20.2778 40.4234 20.384 40.3172C20.4903 40.2109 20.55 40.0668 20.55 39.9165C20.6667 39.2998 20.8 38.6998 20.8833 38.0831C20.9499 37.563 20.9499 37.0366 20.8833 36.5165C20.8912 36.4055 20.8912 36.2941 20.8833 36.1831H20.9667L24.4 35.9998C25.55 35.9165 26.7 35.7998 27.85 35.6665C28.4303 35.6409 29.0088 35.5852 29.5833 35.4998C29.7351 35.4702 29.8782 35.4069 30.0023 35.3146C30.1263 35.2223 30.2281 35.1033 30.3 34.9665C30.4796 34.5345 30.5538 34.0661 30.5167 33.5998C30.4567 33.0339 30.3394 32.4754 30.1667 31.9331C30 31.3665 29.8167 30.8331 29.6167 30.3331Z" fill="black"/>
<path fill-rule="evenodd" clip-rule="evenodd" d="M39 38.1499C38.3653 35.9326 37.4643 33.8004 36.3167 31.7999C35.4402 30.4482 34.2729 29.3094 32.9 28.4666C31.6658 27.7446 30.3438 27.1845 28.9667 26.7999C27.759 26.4396 26.5284 26.1612 25.2833 25.9666C28.4211 24.5914 30.9509 22.1209 32.4 19.0166C33.4258 17.0408 33.9306 14.836 33.8664 12.6107C33.8022 10.3854 33.1713 8.21329 32.0333 6.29992C31.3918 5.30578 30.5521 4.4547 29.5667 3.79992C28.1337 2.86757 26.6022 2.09623 25 1.49992C24.0665 1.10183 23.0948 0.800266 22.1 0.599916C20.1215 0.48903 18.1376 0.680109 16.2167 1.16658C13.4771 2.00039 11.1175 3.77008 9.54999 6.16658C7.95424 8.83487 7.1239 11.891 7.14999 14.9999C7.10444 16.6077 7.39184 18.2076 7.99416 19.6991C8.59647 21.1905 9.50068 22.5413 10.65 23.6666C11.7383 24.6455 13.0062 25.4039 14.3833 25.8999C12.2596 26.3733 10.2198 27.1656 8.33333 28.2499C5.66781 29.7205 3.46791 31.9088 1.98333 34.5666C1.71717 35.0996 1.505 35.658 1.34999 36.2332C1.13573 37.0844 1.01281 37.956 0.983327 38.8333C0.976423 38.899 0.982615 38.9654 1.00154 39.0287C1.02047 39.092 1.05177 39.151 1.09361 39.2021C1.13546 39.2533 1.18703 39.2956 1.24534 39.3267C1.30365 39.3578 1.36754 39.377 1.43333 39.3833C1.50546 39.3857 1.57732 39.3731 1.64427 39.3461C1.71121 39.3191 1.77176 39.2784 1.82201 39.2266C1.87225 39.1747 1.91109 39.113 1.936 39.0452C1.96092 38.9775 1.97136 38.9053 1.96666 38.8333C2.03147 38.1663 2.13723 37.5039 2.28333 36.8499C2.44651 36.2252 2.69318 35.6254 3.01666 35.0666C4.51684 32.7479 6.61976 30.8812 9.09999 29.6666C12.2553 27.8601 15.8715 27.0198 19.5 27.2499C24.8167 27.2499 32.0667 28.2166 35.1667 32.5666C36.3344 34.4321 37.2639 36.4366 37.9333 38.5332C37.9826 38.6743 38.0855 38.7901 38.2197 38.8557C38.3539 38.9212 38.5085 38.9311 38.65 38.8833C38.7922 38.8305 38.9083 38.7245 38.9737 38.5875C39.039 38.4506 39.0485 38.2937 39 38.1499ZM16.5333 2.24992C19.1954 1.61254 21.9848 1.75722 24.5667 2.66658C26.0447 3.23322 27.4537 3.96568 28.7667 4.84992C29.5791 5.4261 30.27 6.15668 30.8 6.99992C31.373 7.94569 31.779 8.98306 32 10.0666C30.1022 10.0242 28.2092 9.85719 26.3333 9.56658C25.3 9.41658 24.2833 9.19992 23.2833 8.96658C22.2833 8.73325 21.2667 8.46658 20.3 8.14992C19.4416 7.87449 18.6011 7.54608 17.7833 7.16658C15.9833 6.39992 14.2333 5.49992 12.45 4.74992C13.603 3.61654 14.9996 2.76146 16.5333 2.24992ZM10.8 6.83325C11.0464 6.3626 11.3366 5.91619 11.6667 5.49992C12.9333 6.19992 14.15 6.94992 15.4 7.69992L12.8833 9.04992C12.1667 9.41658 11.4667 9.81658 10.7167 10.1499C10.2333 10.3499 9.73333 10.5332 9.19999 10.6999C9.5521 9.34329 10.0906 8.04202 10.8 6.83325ZM16.6667 24.5999C14.9382 24.2503 13.3302 23.4577 12 22.2999C11.0104 21.3519 10.2227 20.2135 9.68429 18.9533C9.14584 17.6931 8.86772 16.337 8.86666 14.9666C8.83119 14.0312 8.8758 13.0944 8.99999 12.1666C9.94867 12.1499 10.8907 12.0041 11.8 11.7332C12.2731 11.5818 12.7353 11.398 13.1833 11.1832C13.6134 10.9596 14.0257 10.7033 14.4167 10.4166C15.1754 9.80851 15.8833 9.13963 16.5333 8.41658C16.7 8.51658 16.8667 8.63325 17.0333 8.71658C17.8916 9.18623 18.7828 9.59286 19.7 9.93325C21.3674 10.4977 23.0871 10.8942 24.8333 11.1166C27.2786 11.3998 29.7452 11.45 32.2 11.2666C32.4045 13.6548 31.9308 16.0523 30.8333 18.1833C30.0175 19.9379 28.7815 21.4642 27.2349 22.6271C25.6883 23.7899 23.8788 24.5534 21.9667 24.8499C20.1982 25.0557 18.4079 24.9713 16.6667 24.5999Z" fill="black"/>
<path fill-rule="evenodd" clip-rule="evenodd" d="M17.4999 14.8333C17.6999 15.0166 17.8833 15.2333 18.0833 15.4333C18.1757 15.5523 18.3107 15.6309 18.4598 15.6527C18.6089 15.6744 18.7607 15.6376 18.8833 15.55C19.0012 15.4605 19.0794 15.3284 19.1012 15.182C19.123 15.0357 19.0866 14.8866 18.9999 14.7666C18.8166 14.4333 18.6833 14.1166 18.4833 13.8C18.2409 13.4593 17.9307 13.1724 17.5722 12.9573C17.2137 12.7421 16.8146 12.6035 16.3999 12.55C15.8593 12.4867 15.3123 12.5914 14.8333 12.8499C14.4082 13.1075 14.0504 13.4625 13.7896 13.8856C13.5288 14.3087 13.3724 14.7878 13.3333 15.2833C13.3025 15.4092 13.3218 15.5421 13.3871 15.654C13.4524 15.7659 13.5586 15.8481 13.6833 15.8833C13.8134 15.9085 13.9482 15.8828 14.0599 15.8115C14.1715 15.7401 14.2515 15.6286 14.2833 15.5C14.5165 15.0883 14.88 14.7658 15.3166 14.5833C15.5724 14.4638 15.851 14.4012 16.1333 14.4C16.4273 14.3727 16.7236 14.4126 16.9999 14.5166C17.1898 14.58 17.3615 14.6887 17.4999 14.8333Z" fill="black"/>
<path fill-rule="evenodd" clip-rule="evenodd" d="M23.9499 15.5L24.4166 15C24.5569 14.8908 24.7147 14.8063 24.8833 14.75C25.1024 14.6507 25.3469 14.6216 25.5833 14.6667C25.8342 14.6785 26.0792 14.7469 26.2999 14.8667C26.7065 15.0738 27.0513 15.3841 27.2999 15.7667C27.359 15.9068 27.4705 16.0183 27.6106 16.0775C27.7507 16.1366 27.9083 16.1387 28.0499 16.0834C28.1712 16.0223 28.2665 15.9197 28.3185 15.7943C28.3705 15.6689 28.3757 15.529 28.3333 15.4C28.2143 14.8618 27.9716 14.3587 27.6245 13.9306C27.2773 13.5024 26.8352 13.161 26.3333 12.9334C25.9116 12.7911 25.4549 12.7911 25.0333 12.9334C24.6265 13.0366 24.2533 13.2433 23.9499 13.5334C23.7636 13.7401 23.5962 13.9632 23.4499 14.2C23.2951 14.5108 23.1669 14.8342 23.0666 15.1667C23.0114 15.2871 23.003 15.4239 23.043 15.5502C23.0831 15.6765 23.1687 15.7834 23.2833 15.85C23.3498 15.8757 23.421 15.887 23.4922 15.8829C23.5634 15.8788 23.6329 15.8595 23.6961 15.8264C23.7592 15.7932 23.8145 15.747 23.8583 15.6907C23.9021 15.6344 23.9333 15.5694 23.9499 15.5Z" fill="black"/>
<path fill-rule="evenodd" clip-rule="evenodd" d="M19 21.8C19.449 21.9979 19.9343 22.1001 20.425 22.1001C20.9157 22.1001 21.401 21.9979 21.85 21.8C22.2021 21.611 22.5272 21.3755 22.8166 21.1C23.2029 20.7224 23.5595 20.3157 23.8833 19.8833C23.9396 19.8307 23.9846 19.7672 24.0156 19.6967C24.0465 19.6261 24.0627 19.55 24.0632 19.473C24.0637 19.3959 24.0485 19.3196 24.0186 19.2486C23.9886 19.1776 23.9444 19.1135 23.8888 19.0602C23.8332 19.0069 23.7673 18.9654 23.6952 18.9384C23.623 18.9114 23.5461 18.8994 23.4692 18.9032C23.3922 18.9069 23.3168 18.9263 23.2476 18.9601C23.1784 18.9939 23.1168 19.0415 23.0666 19.1C22.7098 19.4001 22.331 19.6731 21.9333 19.9167C21.7035 20.0453 21.4566 20.1407 21.2 20.2C20.9572 20.2407 20.7094 20.2407 20.4667 20.2C20.0602 20.1752 19.6632 20.0674 19.3 19.8833C18.5639 19.5674 17.9129 19.082 17.4 18.4667C17.3686 18.4083 17.3259 18.3568 17.2744 18.3151C17.223 18.2734 17.1637 18.2424 17.1001 18.2237C17.0366 18.2051 16.9699 18.1993 16.9041 18.2067C16.8383 18.2141 16.7745 18.2345 16.7167 18.2667C16.602 18.3332 16.5174 18.4412 16.4802 18.5684C16.4429 18.6956 16.456 18.8322 16.5167 18.95C16.9632 20.1746 17.848 21.19 19 21.8Z" fill="black"/>
<path fill-rule="evenodd" clip-rule="evenodd" d="M29.6167 30.3331C29.5333 30.0998 29.4333 29.8831 29.3333 29.6665C28.7833 28.5831 27.6667 28.2665 27.8333 29.2998C28.0167 29.7998 28.2 30.2831 28.3667 30.7831C28.5385 31.2635 28.6832 31.7532 28.8 32.2498C28.8936 32.6336 28.9605 33.0234 29 33.4165C29.0421 33.6535 29.0421 33.8961 29 34.1331C28.5333 34.1331 27.7 33.9665 27.6167 33.9831L21.5333 34.2331L21.9333 33.9165C22.6641 33.2413 23.3542 32.5233 24 31.7665C24.8 30.8498 25.5333 29.8831 26.2667 28.9498C27 28.0165 25.7667 27.7998 24.85 28.6498C24.2 29.3331 23.55 30.0165 22.85 30.6665C22.1876 31.3206 21.4803 31.9276 20.7333 32.4831C20.4843 32.7513 20.217 33.0019 19.9333 33.2331L18.9833 32.0498C17.8667 30.9498 16.7667 29.8998 15.65 28.7165C14.8167 27.5831 13.8167 28.0498 14.3667 29.0331L15.1167 30.1165L17.5833 33.2998C17.8667 33.6165 18.0833 34.0331 18.35 34.3831L18.5 34.5498L16.1833 34.8165H13.8333L12.8833 34.6665L12.1333 34.3831C11.9686 34.3263 11.8249 34.2212 11.7208 34.0815C11.6168 33.9417 11.5572 33.7739 11.55 33.5998C11.629 32.7445 11.8023 31.9005 12.0667 31.0831L12.4 29.4998C12.7 28.2165 11.6667 28.0831 11.1167 29.8331L10.85 30.8165C10.4591 31.7195 10.1738 32.6646 10 33.6331C9.97395 34.0747 10.0786 34.5141 10.301 34.8965C10.5233 35.2789 10.8534 35.5873 11.25 35.7831L12.2833 36.2665L13.5167 36.5498C14.0073 36.6276 14.5033 36.6666 15 36.6665H16.3167L19.0833 36.3665C19.0911 36.4162 19.0911 36.4668 19.0833 36.5165C19.0584 36.7826 19.0584 37.0504 19.0833 37.3165C19.0662 37.5773 19.0662 37.839 19.0833 38.0998C19.1667 38.7165 19.3167 39.2998 19.4167 39.9165C19.4167 40.0668 19.4764 40.2109 19.5826 40.3172C19.6889 40.4234 19.833 40.4831 19.9833 40.4831C20.1336 40.4831 20.2778 40.4234 20.384 40.3172C20.4903 40.2109 20.55 40.0668 20.55 39.9165C20.6667 39.2998 20.8 38.6998 20.8833 38.0831C20.9499 37.563 20.9499 37.0366 20.8833 36.5165C20.8912 36.4055 20.8912 36.2941 20.8833 36.1831H20.9667L24.4 35.9998C25.55 35.9165 26.7 35.7998 27.85 35.6665C28.4303 35.6409 29.0088 35.5852 29.5833 35.4998C29.7351 35.4702 29.8782 35.4069 30.0023 35.3146C30.1263 35.2223 30.2281 35.1033 30.3 34.9665C30.4796 34.5345 30.5538 34.0661 30.5167 33.5998C30.4567 33.0339 30.3394 32.4754 30.1667 31.9331C30 31.3665 29.8167 30.8331 29.6167 30.3331Z" fill="black"/>
<path fill-rule="evenodd" clip-rule="evenodd" d="M39 38.1499C38.3653 35.9326 37.4643 33.8004 36.3167 31.7999C35.4402 30.4482 34.2729 29.3094 32.9 28.4666C31.6658 27.7446 30.3438 27.1845 28.9667 26.7999C27.759 26.4396 26.5284 26.1612 25.2833 25.9666C28.4211 24.5914 30.9509 22.1209 32.4 19.0166C33.4258 17.0408 33.9306 14.836 33.8664 12.6107C33.8022 10.3854 33.1713 8.21329 32.0333 6.29992C31.3918 5.30578 30.5521 4.4547 29.5667 3.79992C28.1337 2.86757 26.6022 2.09623 25 1.49992C24.0665 1.10183 23.0948 0.800266 22.1 0.599916C20.1215 0.48903 18.1376 0.680109 16.2167 1.16658C13.4771 2.00039 11.1175 3.77008 9.54999 6.16658C7.95424 8.83487 7.1239 11.891 7.14999 14.9999C7.10444 16.6077 7.39184 18.2076 7.99416 19.6991C8.59647 21.1905 9.50068 22.5413 10.65 23.6666C11.7383 24.6455 13.0062 25.4039 14.3833 25.8999C12.2596 26.3733 10.2198 27.1656 8.33333 28.2499C5.66781 29.7205 3.46791 31.9088 1.98333 34.5666C1.71717 35.0996 1.505 35.658 1.34999 36.2332C1.13573 37.0844 1.01281 37.956 0.983327 38.8333C0.976423 38.899 0.982615 38.9654 1.00154 39.0287C1.02047 39.092 1.05177 39.151 1.09361 39.2021C1.13546 39.2533 1.18703 39.2956 1.24534 39.3267C1.30365 39.3578 1.36754 39.377 1.43333 39.3833C1.50546 39.3857 1.57732 39.3731 1.64427 39.3461C1.71121 39.3191 1.77176 39.2784 1.82201 39.2266C1.87225 39.1747 1.91109 39.113 1.936 39.0452C1.96092 38.9775 1.97136 38.9053 1.96666 38.8333C2.03147 38.1663 2.13723 37.5039 2.28333 36.8499C2.44651 36.2252 2.69318 35.6254 3.01666 35.0666C4.51684 32.7479 6.61976 30.8812 9.09999 29.6666C12.2553 27.8601 15.8715 27.0198 19.5 27.2499C24.8167 27.2499 32.0667 28.2166 35.1667 32.5666C36.3344 34.4321 37.2639 36.4366 37.9333 38.5332C37.9826 38.6743 38.0855 38.7901 38.2197 38.8557C38.3539 38.9212 38.5085 38.9311 38.65 38.8833C38.7922 38.8305 38.9083 38.7245 38.9737 38.5875C39.039 38.4506 39.0485 38.2937 39 38.1499ZM16.5333 2.24992C19.1954 1.61254 21.9848 1.75722 24.5667 2.66658C26.0447 3.23322 27.4537 3.96568 28.7667 4.84992C29.5791 5.4261 30.27 6.15668 30.8 6.99992C31.373 7.94569 31.779 8.98306 32 10.0666C30.1022 10.0242 28.2092 9.85719 26.3333 9.56658C25.3 9.41658 24.2833 9.19992 23.2833 8.96658C22.2833 8.73325 21.2667 8.46658 20.3 8.14992C19.4416 7.87449 18.6011 7.54608 17.7833 7.16658C15.9833 6.39992 14.2333 5.49992 12.45 4.74992C13.603 3.61654 14.9996 2.76146 16.5333 2.24992ZM10.8 6.83325C11.0464 6.3626 11.3366 5.91619 11.6667 5.49992C12.9333 6.19992 14.15 6.94992 15.4 7.69992L12.8833 9.04992C12.1667 9.41658 11.4667 9.81658 10.7167 10.1499C10.2333 10.3499 9.73333 10.5332 9.19999 10.6999C9.5521 9.34329 10.0906 8.04202 10.8 6.83325ZM16.6667 24.5999C14.9382 24.2503 13.3302 23.4577 12 22.2999C11.0104 21.3519 10.2227 20.2135 9.68429 18.9533C9.14584 17.6931 8.86772 16.337 8.86666 14.9666C8.83119 14.0312 8.8758 13.0944 8.99999 12.1666C9.94867 12.1499 10.8907 12.0041 11.8 11.7332C12.2731 11.5818 12.7353 11.398 13.1833 11.1832C13.6134 10.9596 14.0257 10.7033 14.4167 10.4166C15.1754 9.80851 15.8833 9.13963 16.5333 8.41658C16.7 8.51658 16.8667 8.63325 17.0333 8.71658C17.8916 9.18623 18.7828 9.59286 19.7 9.93325C21.3674 10.4977 23.0871 10.8942 24.8333 11.1166C27.2786 11.3998 29.7452 11.45 32.2 11.2666C32.4045 13.6548 31.9308 16.0523 30.8333 18.1833C30.0175 19.9379 28.7815 21.4642 27.2349 22.6271C25.6883 23.7899 23.8788 24.5534 21.9667 24.8499C20.1982 25.0557 18.4079 24.9713 16.6667 24.5999Z" fill="black"/>
</svg>
