<svg width="24" height="24" viewBox="0 0 24 24" fill="none" xmlns="http://www.w3.org/2000/svg">
<g clip-path="url(#clip0_2067_16057)">
<path fill-rule="evenodd" clip-rule="evenodd" d="M20.16 10.3313C20.1574 10.2429 20.1204 10.159 20.0569 10.0974C19.9934 10.0357 19.9084 10.0013 19.82 10.0013C19.7753 10.0026 19.7314 10.0127 19.6906 10.031C19.6498 10.0493 19.6131 10.0754 19.5824 10.1079C19.5518 10.1404 19.5279 10.1787 19.512 10.2204C19.4961 10.2622 19.4886 10.3067 19.49 10.3513L19.63 21.1213C19.6702 21.5379 19.6329 21.9583 19.52 22.3613C19.4708 22.5007 19.3783 22.6207 19.2558 22.7035C19.1334 22.7863 18.9876 22.8276 18.84 22.8213H3.66998H1.96998C1.81675 22.7873 1.67939 22.7028 1.57998 22.5813C1.44683 22.4498 1.35328 22.2834 1.30998 22.1013C1.12888 19.9497 1.06545 17.7898 1.11998 15.6313C1.11998 11.3613 1.11998 6.48133 1.29998 5.78133C1.35706 5.45168 1.49063 5.14001 1.68998 4.87133C1.77017 4.75591 1.87601 4.66063 1.99919 4.59297C2.12237 4.5253 2.25955 4.48709 2.39998 4.48133H13.25C13.3295 4.48133 13.4058 4.44972 13.4621 4.39346C13.5184 4.3372 13.55 4.26089 13.55 4.18133C13.55 4.10176 13.5184 4.02546 13.4621 3.9692C13.4058 3.91294 13.3295 3.88133 13.25 3.88133L2.36998 3.61133C1.94224 3.6136 1.53129 3.77799 1.21998 4.07133C0.81594 4.481 0.538238 4.99822 0.419978 5.56133C0.259978 6.27133 0.0499781 11.2413 0.00997813 15.5613C-0.0731588 17.8331 -0.00969371 20.1078 0.199978 22.3713C0.291708 22.7474 0.481486 23.0925 0.749978 23.3713C1.01581 23.6628 1.36498 23.8653 1.74998 23.9513H3.65998L9.72998 23.8913C13.95 23.8313 18.37 23.7513 18.86 23.7213C19.1276 23.7338 19.3936 23.6735 19.6296 23.5467C19.8656 23.4199 20.0627 23.2314 20.2 23.0013C20.4852 22.4043 20.5895 21.7369 20.5 21.0813L20.16 10.3313Z" fill="black"/>
<path fill-rule="evenodd" clip-rule="evenodd" d="M22.9999 0.670874C22.439 0.212391 21.7218 -0.0099513 20.9999 0.0508737C20.7458 0.0821452 20.499 0.156546 20.2699 0.270874C19.9607 0.438814 19.6777 0.651058 19.4299 0.900874C19.375 0.956952 19.3442 1.03235 19.3442 1.11087C19.3442 1.1894 19.375 1.2648 19.4299 1.32087C19.4526 1.35206 19.4814 1.3784 19.5144 1.39835C19.5474 1.4183 19.5841 1.43145 19.6223 1.43704C19.6605 1.44263 19.6994 1.44054 19.7368 1.43089C19.7741 1.42125 19.8092 1.40424 19.8399 1.38087C20.0438 1.23343 20.2614 1.10617 20.4899 1.00087C20.6885 0.930366 20.8999 0.903091 21.1099 0.920874C21.5667 0.984834 21.9891 1.19952 22.3099 1.53087C22.4811 1.64296 22.6267 1.79001 22.737 1.96237C22.8473 2.13472 22.9198 2.32847 22.9499 2.53087C22.9638 2.87434 22.8988 3.21643 22.7599 3.53087C22.6281 3.81778 22.46 4.08663 22.2599 4.33087C21.5399 3.68087 19.7599 2.25087 19.2599 1.82087C19.1951 1.76327 19.1107 1.73261 19.0241 1.73516C18.9374 1.73771 18.855 1.77329 18.7936 1.8346C18.7323 1.89591 18.6968 1.97834 18.6942 2.06501C18.6917 2.15169 18.7223 2.23606 18.7799 2.30087C19.2299 2.76087 20.9399 4.30087 21.6399 4.93087C21.5482 5.07908 21.4445 5.21955 21.3299 5.35087C20.4499 6.35087 18.7299 8.08087 17.4299 9.42087L17.0399 9.82087C16.8517 9.47215 16.6377 9.13789 16.3999 8.82087C16.277 8.65883 16.1433 8.50515 15.9999 8.36087C15.8487 8.21334 15.6847 8.07949 15.5099 7.96087C15.1956 7.75326 14.8604 7.57898 14.5099 7.44087C15.5099 6.21087 16.9799 4.52087 17.7399 3.65087L18.2299 3.08087C18.2699 3.02074 18.2869 2.94818 18.2777 2.87654C18.2685 2.8049 18.2338 2.73897 18.1799 2.69087C18.152 2.66215 18.1185 2.63931 18.0816 2.62372C18.0447 2.60813 18.005 2.6001 17.9649 2.6001C17.9248 2.6001 17.8852 2.60813 17.8482 2.62372C17.8113 2.63931 17.7779 2.66215 17.7499 2.69087L17.2399 3.22087C16.2399 4.28087 13.9599 6.62087 13.0599 7.71087C12.8415 7.94344 12.6745 8.21944 12.5699 8.52087C12.5699 8.82087 12.2899 10.8909 12.2699 11.7409C12.2494 12.0036 12.3124 12.2661 12.4499 12.4909C12.6649 12.6306 12.9063 12.7249 13.1591 12.7678C13.4119 12.8108 13.6708 12.8017 13.9199 12.7409C14.7892 12.6226 15.6355 12.3731 16.4299 12.0009C16.5499 11.9309 17.4299 11.0009 18.5399 9.84087C19.6499 8.68087 20.5999 7.54087 21.4099 6.61087C21.9099 6.03087 22.2999 5.61087 22.4699 5.35087C22.8478 4.92325 23.1985 4.47236 23.5199 4.00087C23.7808 3.57511 23.9447 3.09713 23.9999 2.60087C23.9993 2.22273 23.9082 1.85022 23.7342 1.51447C23.5603 1.17872 23.3085 0.889464 22.9999 0.670874ZM15.7999 11.0509C15.4434 11.2115 15.0715 11.3355 14.6899 11.4209C14.2663 11.5571 13.8357 11.6705 13.3999 11.7609C13.3999 10.6309 13.5299 8.76087 13.5299 8.76087C13.6192 8.61594 13.716 8.47575 13.8199 8.34087L14.0399 8.04087C14.3099 8.32087 14.5699 8.64087 14.8899 8.97087C15.2099 9.30087 15.3299 9.38087 15.5599 9.58087C15.7899 9.78087 16.2099 10.1209 16.4799 10.4009C16.1399 10.7509 15.8799 11.0009 15.8299 11.0509H15.7999Z" fill="black"/>
</g>
<defs>
<clipPath id="clip0_2067_16057">
<rect width="24" height="24" fill="white"/>
</clipPath>
</defs>
</svg>
