<svg width="49" height="49" viewBox="0 0 49 49" fill="none" xmlns="http://www.w3.org/2000/svg">
<g clip-path="url(#clip0_216_4228)">
<path fill-rule="evenodd" clip-rule="evenodd" d="M16 36.86C16.381 36.2104 16.86 35.6235 17.42 35.12C18.22 34.2 18.98 33.3 19.72 32.6C23.48 33.42 23.96 32.78 24.18 32.6C24.5469 33.0743 24.8874 33.5683 25.2 34.08C25.4 34.38 25.56 34.68 25.74 34.98L26.28 35.92C26.5061 36.2722 26.6939 36.6477 26.84 37.04C27.2 37.78 28.68 37.52 28.48 36.76C28.4594 36.2046 28.3444 35.6568 28.14 35.14C28.0169 34.7137 27.8423 34.304 27.62 33.92C27.4064 33.5175 27.1371 33.1472 26.82 32.82C26.4158 32.3965 25.9587 32.0268 25.46 31.72C26.0206 31.1209 26.4491 30.4108 26.7178 29.6356C26.9865 28.8604 27.0895 28.0375 27.02 27.22C27.0147 25.7754 26.4371 24.3917 25.4138 23.3721C24.3904 22.3525 23.0046 21.78 21.56 21.78C20.0356 21.7766 18.5671 22.3535 17.4527 23.3936C16.3383 24.4337 15.6616 25.859 15.56 27.38C15.5408 28.3187 15.7832 29.2443 16.26 30.0532C16.7368 30.862 17.4293 31.5223 18.26 31.96C17.5888 32.2856 16.9579 32.6883 16.38 33.16C15.7598 33.671 15.2263 34.2788 14.8 34.96C14.4139 35.5112 14.1731 36.151 14.1 36.82C13.86 37.58 15.58 37.82 16 36.86ZM17.34 27.54C17.4608 26.5179 17.971 25.5817 18.7644 24.9261C19.5579 24.2705 20.5734 23.946 21.6 24.02C22.5375 23.9984 23.4457 24.3476 24.1272 24.9917C24.8088 25.6358 25.2086 26.5228 25.24 27.46C26 33.9 16.92 32.5 17.34 27.54Z" fill="black"/>
<path fill-rule="evenodd" clip-rule="evenodd" d="M41.26 25.26C41.235 25.1271 41.1643 25.0071 41.0603 24.9208C40.9562 24.8345 40.8252 24.7872 40.69 24.7872C40.5548 24.7872 40.4238 24.8345 40.3197 24.9208C40.2156 25.0071 40.145 25.1271 40.12 25.26C40.12 25.92 39.76 27.66 39.54 29.74C39.54 30.36 39.42 31 39.4 31.74C39.38 32.48 39.4 33.04 39.4 33.74V38.2L23.54 38.46C20.8 38.46 12.4 38.82 11.54 38.78L5.05998 38.5C4.67998 38.5 4.23998 38.5 3.83998 38.36C3.74812 38.3535 3.65844 38.329 3.57607 38.2878C3.4937 38.2466 3.42027 38.1896 3.35998 38.12C3.22144 37.8412 3.15933 37.5306 3.17998 37.22V34.94V24.94C3.11822 22.879 3.16495 20.8161 3.31998 18.76C3.43434 17.3972 3.71648 16.0537 4.15998 14.76C4.19976 14.6365 4.19976 14.5035 4.15998 14.38C4.15998 14.38 4.15998 14.38 4.29998 14.38C6.17998 14.6 8.01998 14.88 9.87998 15.02H12.3H14.7C16.56 15.02 18.42 14.82 20.32 14.7C20.4897 14.7 20.6525 14.6326 20.7725 14.5126C20.8926 14.3925 20.96 14.2297 20.96 14.06C20.9528 13.9276 20.9048 13.8006 20.8223 13.6967C20.7399 13.5928 20.6273 13.5171 20.5 13.48L14.9 13.06L12.5 12.94H10.06C8.19998 12.94 6.35998 13.14 4.45998 13.24C4.3848 13.2346 4.3093 13.2444 4.23801 13.2688C4.16671 13.2933 4.10108 13.3319 4.04506 13.3823C3.98903 13.4327 3.94376 13.4939 3.91196 13.5623C3.88016 13.6306 3.86248 13.7047 3.85998 13.78C3.85998 13.78 3.85998 13.9 3.85998 13.96C3.72451 13.9138 3.57648 13.9212 3.4463 13.9807C3.31611 14.0402 3.21366 14.1473 3.15998 14.28C2.6697 15.6436 2.34079 17.0599 2.17998 18.5C1.87998 20.5 1.81998 22.8 1.73998 24.78L1.25998 34.9C1.15775 35.8163 1.111 36.738 1.11998 37.66C1.14557 38.2157 1.30326 38.7574 1.57998 39.24C1.83649 39.6306 2.19657 39.9422 2.61998 40.14C3.33169 40.4074 4.08063 40.5626 4.83998 40.6L6.83998 40.74C8.35998 40.74 9.89998 40.74 11.42 40.84C12.94 40.94 14.7 40.84 16.32 40.84L17.84 40.72L15.84 45.3C15.5502 45.832 15.2898 46.3795 15.06 46.94C14.951 47.2094 14.951 47.5106 15.06 47.78C15.1135 47.928 15.2011 48.0613 15.3158 48.169C15.4305 48.2767 15.569 48.3559 15.72 48.4C15.9758 48.4605 16.2372 48.494 16.5 48.5C16.8464 48.5204 17.1936 48.5204 17.54 48.5C18.02 48.5 18.5 48.5 18.96 48.36C20.6399 48.055 22.3361 47.8479 24.04 47.74C27.92 47.52 29.18 50.3 27.82 44.42C27.7238 43.9783 27.5968 43.5439 27.44 43.12C27.296 42.695 27.1222 42.2806 26.92 41.88C26.6024 41.2597 26.2484 40.6586 25.86 40.08L39.48 39.38C40.84 39.38 41.12 36.46 41.48 33.76C41.48 33.12 41.62 32.48 41.66 31.76C41.7 31.04 41.66 30.44 41.66 29.76C41.6083 28.2539 41.4748 26.7516 41.26 25.26ZM26.34 46.3C25.2523 46.153 24.1573 46.0662 23.06 46.04C21.58 46.04 20.1 46.04 18.62 46.24H17.38L17.6 45.88C18.02 44.5 18.36 43.12 18.78 41.74C18.9 41.32 19.06 40.9 19.2 40.5C20.66 40.38 22.1 40.24 23.56 40.16H24.32C24.56 41.1 24.74 42.16 25.04 43.04C25.34 43.92 25.52 44.34 25.78 45.04C26.04 45.74 26.16 45.86 26.34 46.3Z" fill="black"/>
<path fill-rule="evenodd" clip-rule="evenodd" d="M47.3 8.15999C47.079 7.5858 46.8114 7.03063 46.5 6.49999C46.1793 5.95037 45.8041 5.43444 45.38 4.95999C43.482 2.78384 40.9009 1.31703 38.06 0.799995C35.2755 0.229457 32.3851 0.479579 29.74 1.51999C26.8037 2.76934 24.4713 5.11604 23.24 8.05999C22.5753 9.55963 22.3876 11.2273 22.7024 12.8372C23.0172 14.4471 23.8193 15.9212 25 17.06C25.3877 17.4552 25.8411 17.78 26.34 18.02C26.9925 18.3148 27.6601 18.5752 28.34 18.8C28.34 18.8 28.34 18.96 28.46 19.06C28.6022 19.4332 28.6963 19.823 28.74 20.22C28.86 21.12 28.88 22.08 28.9 22.5C28.92 22.92 28.62 23.46 28.64 23.76C28.64 24.38 28.92 24.74 29.6 24.72C30.6266 24.633 31.5898 24.1868 32.32 23.46C33.7662 22.0181 35.0413 20.4141 36.12 18.68C36.2181 18.5394 36.2564 18.3656 36.2264 18.1969C36.1964 18.0281 36.1006 17.8781 35.96 17.78C35.8194 17.6819 35.6456 17.6436 35.4769 17.6736C35.3081 17.7036 35.1581 17.7994 35.06 17.94C34.1478 19.3256 33.1101 20.6244 31.96 21.82C31.5246 22.2837 31.0183 22.6753 30.46 22.98V22.44C30.4745 21.2805 30.3808 20.1221 30.18 18.98C30.1215 18.6217 29.9856 18.2804 29.7818 17.9799C29.578 17.6794 29.3112 17.4269 29 17.24C28.34 16.94 27.74 16.76 27.16 16.44C26.8379 16.2705 26.547 16.0473 26.3 15.78C25.422 14.8793 24.8418 13.7306 24.6379 12.4894C24.434 11.2482 24.6163 9.97426 25.16 8.83999C26.2005 6.45335 28.1095 4.55155 30.5 3.51999C32.7559 2.62975 35.2187 2.40081 37.6 2.85999C40.007 3.2335 42.2224 4.39396 43.9 6.15999C44.266 6.5601 44.6004 6.98805 44.9 7.43999C45.1984 7.87721 45.4593 8.33885 45.68 8.81999C46.2029 9.95814 46.3701 11.2277 46.1595 12.4624C45.949 13.6971 45.3706 14.8395 44.5 15.74C43.6153 16.6937 42.5361 17.4463 41.3353 17.9466C40.1344 18.4469 38.8402 18.6834 37.54 18.64C37.4665 18.6334 37.3923 18.6414 37.3219 18.6635C37.2514 18.6856 37.186 18.7213 37.1294 18.7687C37.0727 18.816 37.026 18.8741 36.9918 18.9395C36.9576 19.0049 36.9366 19.0765 36.93 19.15C36.9234 19.2235 36.9314 19.2976 36.9535 19.3681C36.9756 19.4386 37.0113 19.504 37.0587 19.5606C37.106 19.6173 37.1641 19.664 37.2295 19.6982C37.2949 19.7324 37.3665 19.7534 37.44 19.76C38.9292 19.8643 40.4235 19.6468 41.8211 19.1223C43.2188 18.5977 44.4872 17.7784 45.54 16.72C46.6592 15.635 47.4256 14.2381 47.7395 12.7113C48.0535 11.1845 47.9003 9.59852 47.3 8.15999Z" fill="black"/>
</g>
<defs>
<clipPath id="clip0_216_4228">
<rect width="48" height="48" fill="white" transform="translate(0.5 0.5)"/>
</clipPath>
</defs>
</svg>
