<svg width="46" height="49" viewBox="0 0 46 49" fill="none" xmlns="http://www.w3.org/2000/svg">
<path fill-rule="evenodd" clip-rule="evenodd" d="M44.7801 5.93997C37.7601 -1.72003 12.7801 -0.68003 1.7401 5.21997C1.57037 5.30749 1.44235 5.45886 1.38421 5.64077C1.32607 5.82268 1.34258 6.02023 1.4301 6.18997C1.51763 6.35971 1.66899 6.48773 1.8509 6.54586C2.03281 6.604 2.23037 6.58749 2.4001 6.49997C13.0001 1.09997 37.0001 0.49997 43.1801 7.37997C44.2601 8.61997 42.3801 25.38 41.3401 29.86C40.3001 34.34 31.3401 42.26 26.9001 44.92C23.9801 46.68 23.6401 46.62 20.7801 44.92C14.7801 41.24 5.0801 32 4.7801 29.82C4.7801 29.48 1.1201 10.6 1.4601 9.25997C1.47294 9.10969 1.4323 8.95971 1.34534 8.83648C1.25838 8.71325 1.13069 8.62469 0.984803 8.58643C0.838915 8.54816 0.6842 8.56265 0.547951 8.62733C0.411703 8.69201 0.302676 8.80274 0.240104 8.93997C-0.139896 10.62 3.1401 29.26 3.2001 29.9C3.4601 33.56 19.2001 48.54 23.9201 48.5C28.6401 48.46 42.2401 36.72 43.6801 30.5C44.4001 27.22 47.1001 8.49997 44.7801 5.93997Z" fill="black"/>
<path fill-rule="evenodd" clip-rule="evenodd" d="M21.0001 31.32C21.2421 31.4473 21.5213 31.485 21.7885 31.4265C22.0556 31.3679 22.2935 31.2169 22.4601 31C25.2401 28.22 32.9801 13.44 34.4601 11.98C34.5953 11.8447 34.6713 11.6613 34.6713 11.47C34.6713 11.2787 34.5953 11.0952 34.4601 10.96C34.3248 10.8247 34.1413 10.7487 33.9501 10.7487C33.7588 10.7487 33.5753 10.8247 33.4401 10.96C30.3001 14 21.4401 28.96 21.3001 29.12C19.2353 28.0082 17.303 26.6663 15.5401 25.12C15.4234 25.0006 15.264 24.9325 15.0971 24.9306C14.9302 24.9288 14.7694 24.9933 14.6501 25.11C14.5307 25.2267 14.4626 25.386 14.4607 25.5529C14.4589 25.7198 14.5234 25.8806 14.6401 26C16.5582 28.0015 18.6911 29.7856 21.0001 31.32Z" fill="black"/>
</svg>
