<svg width="49" height="39" viewBox="0 0 49 39" fill="none" xmlns="http://www.w3.org/2000/svg">
<path fill-rule="evenodd" clip-rule="evenodd" d="M47.9196 21.68C48.6796 11.28 48.2996 12.54 48.4996 5.94002C48.5996 2.30002 47.7196 2.46002 46.9996 2.66002C33.2796 5.82002 15.7796 6.22002 2.69958 1.04002C2.60948 1.00256 2.51237 0.984931 2.41486 0.988327C2.31734 0.991724 2.2217 1.01607 2.13442 1.0597C2.04715 1.10334 1.97029 1.16525 1.90906 1.24123C1.84783 1.3172 1.80367 1.40547 1.77958 1.50002C1.74909 1.59086 1.74909 1.68918 1.77958 1.78002C1.70749 1.64453 1.59169 1.53742 1.451 1.47609C1.31032 1.41476 1.15302 1.40283 1.0047 1.44223C0.856369 1.48163 0.725731 1.57004 0.634023 1.6931C0.542316 1.81616 0.494934 1.96662 0.499579 2.12002C1.0074 6.42027 1.20791 10.7513 1.09958 15.08C1.41958 22.44 2.69958 30.66 1.23958 36.82C1.2125 36.9198 1.20555 37.024 1.21912 37.1266C1.23269 37.2291 1.26652 37.3279 1.31863 37.4172C1.37074 37.5066 1.4401 37.5847 1.52267 37.6469C1.60523 37.7092 1.69936 37.7545 1.79958 37.78C1.79958 37.78 1.79958 37.78 1.91958 37.78C2.00877 37.8955 2.13276 37.9793 2.27322 38.0189C2.41369 38.0585 2.56317 38.0519 2.69958 38C15.7196 32.84 32.8796 33.22 46.4796 36.28C48.9396 37.02 47.5396 28.44 47.5396 28.28C47.5796 26.04 47.7596 23.86 47.9196 21.68ZM46.0996 34.5C30.9796 30.3 17.3396 29.72 2.91958 36.38C3.61514 33.7247 4.02415 31.0025 4.13958 28.26C4.31673 19.4797 3.57266 10.7051 1.91958 2.08002C1.97151 2.17202 2.04758 2.24809 2.13958 2.30002C16.7996 9.36002 31.3996 8.78002 47.1196 4.30002C45.9407 14.3208 45.5996 24.4225 46.0996 34.5Z" fill="black"/>
</svg>
