<svg width="40" height="41" viewBox="0 0 40 41" fill="none" xmlns="http://www.w3.org/2000/svg">
<g clip-path="url(#clip0_122_2623)">
<path fill-rule="evenodd" clip-rule="evenodd" d="M31.9833 3.20001C30.6681 2.96199 29.3185 2.99004 28.0142 3.28251C26.71 3.57499 25.4777 4.12595 24.3901 4.90283C23.3024 5.67971 22.3816 6.66675 21.6819 7.8056C20.9823 8.94445 20.518 10.212 20.3166 11.5333C20.3047 11.5991 20.3061 11.6666 20.3207 11.7318C20.3354 11.797 20.3629 11.8586 20.4018 11.913C20.4406 11.9674 20.49 12.0134 20.5469 12.0484C20.6038 12.0834 20.6672 12.1066 20.7333 12.1167C20.7981 12.1285 20.8646 12.127 20.9288 12.1122C20.993 12.0974 21.0535 12.0696 21.1065 12.0306C21.1596 11.9916 21.2041 11.9422 21.2374 11.8853C21.2707 11.8284 21.2919 11.7654 21.3 11.7C21.4989 10.5411 21.9259 9.43319 22.5562 8.44055C23.1866 7.44792 24.0077 6.5903 24.972 5.91744C25.9364 5.24459 27.0247 4.76987 28.1739 4.52084C29.3231 4.2718 30.5103 4.25339 31.6666 4.46668C35.5166 5.25001 38.7333 8.83335 38.3333 15.5C38.3333 17.5667 36.6666 20.2333 34.3833 23C30.2478 27.838 25.6107 32.2236 20.55 36.0833C20.15 36.3833 19.75 36.7833 19.4666 37C14.5614 33.4701 10.1452 29.3061 6.33329 24.6167C3.63329 21.1333 1.53329 17.35 1.66662 13.8333C1.6455 11.5393 2.37275 9.30083 3.73816 7.45722C5.10357 5.61361 7.03272 4.26533 9.23329 3.61668C13.1666 2.61668 17.45 4.55001 19.2333 10.7C19.2731 10.8459 19.3692 10.97 19.5004 11.045C19.6317 11.12 19.7874 11.1398 19.9333 11.1C20.0792 11.0602 20.2032 10.9641 20.2783 10.8329C20.3533 10.7016 20.3731 10.5459 20.3333 10.4C18.3333 3.33335 13.4333 1.23335 8.91662 2.30001C6.37455 2.98447 4.12657 4.48258 2.51636 6.56533C0.906143 8.64807 0.0223015 11.2008 -4.34313e-05 13.8333C-0.11671 17.7 1.99996 21.9167 4.99996 25.75C9.03036 30.8254 13.7871 35.2789 19.1166 38.9667C19.4173 39.0359 19.7331 38.9882 20 38.8333C20.5301 38.5388 21.0371 38.2045 21.5166 37.8333C25.951 34.4415 30.0679 30.6537 33.8166 26.5167C37.2333 22.5833 39.9 18.4833 40 15.5C40.2166 7.86668 36.3333 4.01668 31.9833 3.20001Z" fill="black"/>
<path d="M28.4667 7.16664C29.2137 7.0887 29.9688 7.18008 30.6757 7.43399C31.3826 7.6879 32.0232 8.09783 32.55 8.63331C33.6961 9.64085 34.5436 10.9438 35 12.4C35.2381 13.1822 35.3166 14.0043 35.2307 14.8174C35.1448 15.6306 34.8963 16.4181 34.5 17.1333C33.9067 18.3838 33.0874 19.5139 32.0833 20.4666C31.75 20.5666 31.0333 20.4666 31.1 20.1C31.3637 18.7382 31.83 17.4236 32.4833 16.2C33.0241 15.1351 33.3149 13.9608 33.3333 12.7666C33.1429 11.4981 32.6 10.3085 31.7667 9.33331C31.3776 8.81678 30.8742 8.39746 30.2958 8.10828C29.7175 7.8191 29.0799 7.66793 28.4333 7.66664C27.8167 7.51664 28.0167 7.16664 28.4667 7.16664Z" fill="black"/>
</g>
<defs>
<clipPath id="clip0_122_2623">
<rect width="40" height="40" fill="white" transform="translate(0 0.5)"/>
</clipPath>
</defs>
</svg>
