<svg width="199" height="57" viewBox="0 0 199 57" fill="none" xmlns="http://www.w3.org/2000/svg">
<g clip-path="url(#clip0_122_2572)">
<g clip-path="url(#clip1_122_2572)">
<path d="M178.89 36.5105C180.657 37.5935 182.159 38.3448 183.398 38.7843C184.63 39.2176 185.834 39.4343 187.012 39.4343C188.196 39.4343 189.151 39.1703 189.875 38.6492C190.592 38.1282 190.951 37.4579 190.951 36.639C190.951 35.468 189.672 34.1416 187.107 32.6798C186.694 32.4425 186.376 32.2529 186.152 32.1244L184.21 31.0279C182.322 29.9586 180.921 28.7471 180.014 27.4001C179.099 26.0532 178.646 24.5238 178.646 22.818C178.646 20.5036 179.519 18.6083 181.266 17.1258C183.006 15.6437 185.259 14.906 188.02 14.906C189.043 14.906 190.146 15.0279 191.33 15.2648C192.522 15.5016 193.841 15.874 195.296 16.3744V23.1093C193.909 22.2426 192.596 21.5728 191.351 21.0991C190.106 20.625 189.05 20.3881 188.176 20.3881C187.208 20.3881 186.45 20.5982 185.895 21.011C185.34 21.4237 185.063 21.9922 185.063 22.7031C185.063 23.204 185.224 23.6706 185.556 24.104C185.888 24.5439 186.383 24.9365 187.046 25.2953L190.416 27.1568C193.239 28.7199 195.135 30.1616 196.108 31.4815C197.083 32.8082 197.571 34.3714 197.571 36.1856C197.571 38.9879 196.616 41.255 194.707 42.9809C192.792 44.7069 190.26 45.5664 187.1 45.5664C186.031 45.5664 184.866 45.4511 183.607 45.2279C182.355 45.0046 180.967 44.6523 179.465 44.1788L178.89 36.5105Z" fill="#2B2A29"/>
<path d="M157.772 44.6322V21.8908H148.635V15.8806H173.733V21.8908H164.636V44.6322H157.772Z" fill="#FFBB00"/>
<path d="M125.33 44.6322V15.8806H143.199V21.7286H132.153V27.4546H142.022V33.2618H132.153V44.6322H125.33Z" fill="#2B2A29"/>
<path d="M114.935 44.6322V15.8806H121.798V44.6322H114.935Z" fill="#2B2A29"/>
<path d="M112.446 28.6726V42.6493C110.517 43.6173 108.635 44.3414 106.808 44.8287C104.973 45.3226 103.2 45.5664 101.481 45.5664C97.1022 45.5664 93.4739 44.1248 90.584 41.2349C87.694 38.3448 86.2523 34.6964 86.2523 30.2972C86.2523 25.8502 87.7141 22.1751 90.645 19.2715C93.5758 16.3613 97.2781 14.906 101.766 14.906C103.458 14.906 105.068 15.1357 106.605 15.6029C108.135 16.0634 109.61 16.7674 111.025 17.7012L110.287 24.8957C108.953 23.5492 107.627 22.5611 106.307 21.9382C104.98 21.3089 103.593 20.9974 102.137 20.9974C99.5588 20.9974 97.4267 21.8571 95.7345 23.5829C94.043 25.3089 93.1969 27.4677 93.1969 30.0534C93.1969 32.781 94.0157 35.0008 95.6469 36.7267C97.2781 38.4527 99.383 39.3124 101.955 39.3124C102.551 39.3124 103.153 39.2584 103.762 39.1567C104.371 39.0483 105.001 38.8996 105.664 38.6965V34.5205L100.222 28.6726H112.446Z" fill="#2B2A29"/>
<path d="M157.772 21.8909H148.012V44.6322H157.772V21.8909Z" fill="white"/>
<path d="M174.395 21.8909H164.634V44.6322H174.395V21.8909Z" fill="white"/>
<path d="M176.339 10.1394H146.026V15.8805H176.339V10.1394Z" fill="white"/>
<path fill-rule="evenodd" clip-rule="evenodd" d="M152.855 2.29088C154.681 0.718651 157.983 1.60808 160.229 4.27684C162.475 6.94559 162.815 10.3833 160.988 11.9556C159.16 13.5278 155.859 12.6384 153.612 9.96966C151.367 7.3009 151.027 3.86311 152.855 2.29088ZM153.836 3.43179C153.238 3.94629 153.131 4.83118 153.204 5.57093C153.327 6.81914 153.966 8.05172 154.764 9.00059C155.553 9.93889 156.649 10.7769 157.849 11.0999C158.556 11.2899 159.417 11.3212 160.007 10.8147C160.604 10.3002 160.711 9.41531 160.639 8.67556C160.515 7.42735 159.876 6.19478 159.077 5.2459C158.288 4.3076 157.192 3.46958 155.993 3.14656C155.287 2.95607 154.424 2.92535 153.836 3.43179Z" fill="white"/>
<path fill-rule="evenodd" clip-rule="evenodd" d="M170.15 2.29088C168.322 0.718651 165.021 1.60808 162.776 4.27684C160.529 6.94559 160.189 10.3833 162.016 11.9556C163.844 13.5278 167.145 12.6384 169.392 9.96966C171.637 7.3009 171.977 3.86311 170.15 2.29088ZM169.168 3.43179C169.766 3.94629 169.873 4.83118 169.8 5.57093C169.677 6.81914 169.038 8.05172 168.24 9.00059C167.45 9.93889 166.354 10.7769 165.156 11.0999C164.448 11.2899 163.587 11.3212 162.999 10.8147C162.4 10.3002 162.293 9.41531 162.367 8.67556C162.489 7.42735 163.128 6.19478 163.927 5.2459C164.717 4.3076 165.813 3.46958 167.012 3.14656C167.718 2.95607 168.58 2.92535 169.168 3.43179Z" fill="white"/>
<path d="M52.8498 44.0292L65.7582 15.6201L69.1929 15.6932L81.8661 44.0292H74.7884L72.9945 39.9065H61.4945L59.6603 44.0292H52.8498ZM63.4557 35.0241H70.9002L67.2245 26.1526L63.4557 35.0241Z" fill="#2B2A29"/>
<path d="M30.6916 44.0291L20.4302 15.6931H27.2811L32.7905 30.9755L37.6165 15.6931H40.3468L45.2045 30.9755L50.661 15.6931H56.9715L46.7384 44.0291H43.4221L38.7146 28.7467L34.1142 44.0291H30.6916Z" fill="#2B2A29"/>
<path d="M1.30594 44.0291V26.659H7.87H17.1956V32.4627H7.87V38.0662H18.9164V44.0291H1.30594ZM1.30594 21.5361V15.6931H18.7562V21.5361H7.87H1.30594Z" fill="#2B2A29"/>
</g>
</g>
<defs>
<clipPath id="clip0_122_2572">
<rect width="198.66" height="56" fill="white" transform="translate(0 0.5)"/>
</clipPath>
<clipPath id="clip1_122_2572">
<rect width="198.66" height="56" fill="white" transform="translate(0 0.5)"/>
</clipPath>
</defs>
</svg>
