<svg width="20" height="20" viewBox="0 0 20 20" fill="none" xmlns="http://www.w3.org/2000/svg">
<path d="M1 1.5H2.90777C3.57302 1.5 3.90506 1.5 4.17023 1.63129C4.27955 1.6856 4.37856 1.7553 4.46355 1.83776C4.66887 2.03788 4.74983 2.32906 4.91057 2.91141L5.12411 3.68118C5.24261 4.10894 5.30245 4.32282 5.39397 4.50282C5.5504 4.80998 5.78605 5.07888 6.08121 5.28703C6.37637 5.49518 6.72246 5.63655 7.09054 5.69929C7.30643 5.73529 7.55047 5.73529 8.03973 5.73529" stroke="black" stroke-width="2" stroke-linecap="round"/>
<path d="M17.4261 15.2647H5.16521C4.99509 15.2647 4.90944 15.2647 4.84373 15.2584C4.68082 15.242 4.52353 15.1949 4.38199 15.1203C4.24046 15.0457 4.11782 14.9452 4.02198 14.8252C3.92614 14.7051 3.85923 14.5683 3.82556 14.4236C3.79189 14.2788 3.7922 14.1293 3.82649 13.9846C3.85357 13.8909 3.88528 13.7983 3.92153 13.7072C3.98254 13.5441 4.01187 13.4626 4.0459 13.3896C4.21291 13.0285 4.48748 12.7163 4.83914 12.4876C5.19081 12.2588 5.60582 12.1224 6.03814 12.0936C6.12496 12.0883 6.22117 12.0883 6.41007 12.0883H12.7329" stroke="black" stroke-width="2" stroke-linecap="round" stroke-linejoin="round"/>
<path d="M13.3523 12.0883H9.18248C7.75576 12.0883 7.0424 12.0883 6.49213 11.7971C6.26012 11.6739 6.05334 11.5156 5.88085 11.3291C5.4702 10.8865 5.35287 10.2512 5.11938 8.9817C4.88121 7.69523 4.7627 7.05147 5.04547 6.575C5.16309 6.37615 5.32628 6.20218 5.52417 6.06465C5.99818 5.73535 6.72092 5.73535 8.16641 5.73535H15.9758C17.6771 5.73535 18.5277 5.73535 18.8727 6.23723C19.2164 6.74018 18.8351 7.42629 18.0748 8.79959L17.5504 9.74723C16.9191 10.8865 16.6035 11.4562 16.0368 11.7717C15.469 12.0883 14.7638 12.0883 13.3523 12.0883Z" stroke="black" stroke-width="2" stroke-linecap="round"/>
<path d="M16.2529 19.5C16.9009 19.5 17.4262 19.0259 17.4262 18.4411C17.4262 17.8564 16.9009 17.3823 16.2529 17.3823C15.6049 17.3823 15.0796 17.8564 15.0796 18.4411C15.0796 19.0259 15.6049 19.5 16.2529 19.5Z" fill="black"/>
<path d="M6.8664 19.5C7.51439 19.5 8.03969 19.0259 8.03969 18.4411C8.03969 17.8564 7.51439 17.3823 6.8664 17.3823C6.21841 17.3823 5.69312 17.8564 5.69312 18.4411C5.69312 19.0259 6.21841 19.5 6.8664 19.5Z" fill="black"/>
</svg>
