<svg width="40" height="41" viewBox="0 0 40 41" fill="none" xmlns="http://www.w3.org/2000/svg">
<g clip-path="url(#clip0_122_2627)">
<path fill-rule="evenodd" clip-rule="evenodd" d="M22.7835 22.1666C23.0335 20.65 23.3002 19.1166 23.4669 17.5833H23.8169C23.9502 17.5833 24.4669 17.7833 25.0335 17.8999C26.1335 17.5666 26.0835 17.0666 25.2835 16.4666C24.733 16.3445 24.1768 16.2499 23.6169 16.1833C23.707 14.8873 23.8627 13.5968 24.0835 12.3166C23.9835 10.65 22.7669 10.9333 22.3002 12.3166C22.3097 12.422 22.3097 12.5279 22.3002 12.6333C22.1002 13.75 21.9002 14.8833 21.7335 15.9666C19.8502 15.8666 20.2002 15.9666 16.1002 15.9666C16.1002 15.6333 15.7002 13.7666 15.4669 12.4333C15.2335 11.0999 14.1502 11.0499 14.0502 12.4333C14.0502 13.2666 14.0502 14.2999 14.1835 15.9666C13.0669 15.9666 12.7169 15.9666 9.35018 16.2333C9.17208 14.9961 8.91602 13.7715 8.58352 12.5666C7.91685 11.3499 6.66685 11.7666 6.66685 12.7333C6.95018 14.2333 6.80018 13.6833 7.25018 16.5166C6.3716 16.6462 5.47877 16.6462 4.60018 16.5166C2.93352 16.6666 2.71685 17.8833 4.95018 18.0833H7.50018C7.91685 20.7333 7.96685 21.1499 8.28352 22.6999C7.37957 22.9159 6.43746 22.9159 5.53352 22.6999C4.80018 22.3833 3.36685 24.3666 8.61685 24.0166C8.81277 24.7677 9.09229 25.4945 9.45018 26.1833C9.53045 26.3071 9.65354 26.3971 9.79593 26.4359C9.93833 26.4747 10.09 26.4596 10.222 26.3936C10.354 26.3276 10.4571 26.2153 10.5115 26.0781C10.5659 25.9409 10.5678 25.7885 10.5169 25.65C10.282 25.1185 10.1194 24.5579 10.0335 23.9833C11.4502 23.8833 12.1502 23.9833 15.5669 23.8666C15.8461 24.5932 16.0473 25.3474 16.1669 26.1166C16.1669 26.2757 16.2301 26.4284 16.3426 26.5409C16.4551 26.6534 16.6077 26.7166 16.7669 26.7166C16.926 26.7166 17.0786 26.6534 17.1911 26.5409C17.3036 26.4284 17.3669 26.2757 17.3669 26.1166C17.3606 25.3471 17.2655 24.581 17.0835 23.8333H20.9502C20.6502 27.5833 23.1835 26.1666 22.2835 25.2833C22.1002 25.0666 22.2835 24 22.4002 23.7166C23.4502 23.5666 23.8502 23.5833 24.3668 23.4833C24.8835 23.3833 25.2335 22.1999 24.6002 22.1499C23.9669 22.0999 23.7835 22.1666 22.7835 22.1666ZM9.83352 22.4166C9.83352 21.8999 9.56685 19.0833 9.46685 18.1333H14.3002C14.4344 19.4162 14.6684 20.6867 15.0002 21.9333C13.2705 22.0113 11.546 22.1782 9.83352 22.4333V22.4166ZM21.1335 22.1666C19.7169 22.1666 18.2169 21.9833 16.7835 21.9166C16.7002 21.2166 16.3835 18.5833 16.3002 17.95C18.7002 17.8 20.0335 17.6333 21.4502 17.5833C21.2502 19.8666 21.1502 22.1666 21.1335 22.1666Z" fill="black"/>
<path fill-rule="evenodd" clip-rule="evenodd" d="M37.9834 1.58322C36.1601 1.21251 34.2838 1.18425 32.4501 1.49989C29.8168 2.31656 30.7834 0.583224 28.1834 8.79989C27.0834 12.9666 24.5001 26.3666 24.8501 26.8999C9.18344 27.1499 8.9501 27.4666 4.73344 26.2499C4.8501 25.9166 4.4501 25.0166 4.41677 24.8666C2.18344 14.6166 1.5501 13.7166 2.16677 11.8999C10.0369 10.5912 18.0055 9.96665 25.9834 10.0332C26.0392 10.0781 26.1034 10.1115 26.1721 10.1316C26.2408 10.1517 26.3128 10.1581 26.384 10.1503C26.4552 10.1426 26.5242 10.1209 26.587 10.0865C26.6498 10.0521 26.7052 10.0057 26.7501 9.94989C26.795 9.89408 26.8284 9.82998 26.8485 9.76124C26.8686 9.69251 26.875 9.62049 26.8672 9.5493C26.8595 9.47811 26.8378 9.40914 26.8034 9.34632C26.769 9.28351 26.7226 9.22809 26.6668 9.18322C25.7001 8.46656 7.56677 9.31656 7.71677 9.31656C5.5203 9.08944 3.30108 9.37469 1.23344 10.1499C-0.516565 10.9499 0.000101671 14.7999 0.350102 16.6166C1.66677 21.5332 1.18344 19.5832 2.48344 25.1999C2.58344 25.7166 2.6001 27.0166 3.1001 27.4999C5.58344 29.8832 18.1001 28.1499 24.5334 28.1166C24.1834 29.2999 24.0501 30.0166 23.0334 30.2999C21.9252 30.4134 20.8083 30.4134 19.7001 30.2999C14.8834 30.5332 10.2501 29.5332 3.03344 30.2999C2.89199 30.2888 2.75194 30.3344 2.64411 30.4266C2.53627 30.5188 2.46949 30.6501 2.45844 30.7916C2.44738 30.933 2.49298 31.0731 2.58518 31.1809C2.67739 31.2887 2.80865 31.3555 2.9501 31.3666C2.39709 31.5857 1.89624 31.9185 1.47995 32.3434C1.06366 32.7683 0.741202 33.2758 0.533435 33.8332C-0.299898 36.1332 2.0001 38.9832 4.31677 39.5832C8.93344 40.7666 12.4334 34.3499 8.91677 31.6332C9.42966 31.6434 9.94158 31.6823 10.4501 31.7499C13.75 32.3349 17.114 32.4694 20.4501 32.1499C17.3334 35.1332 20.5501 39.5499 24.5668 39.0999C28.9834 38.5832 28.7001 31.5166 24.9168 30.8832C26.0334 29.5499 25.5501 28.2832 27.3168 21.6666C28.5854 16.768 29.5924 11.8055 30.3334 6.79989C31.1334 6.59989 36.5168 7.09989 37.6501 7.03322C38.2763 6.93035 38.8489 6.61784 39.2742 6.14691C39.6995 5.67598 39.9522 5.07456 39.9909 4.4412C40.0297 3.80784 39.8521 3.1801 39.4874 2.66085C39.1227 2.1416 38.5924 1.76164 37.9834 1.58322ZM8.23344 35.8666C8.00286 36.378 7.63986 36.8187 7.18196 37.1429C6.72407 37.4671 6.18789 37.6631 5.62886 37.7107C5.06983 37.7582 4.50823 37.6556 4.00213 37.4135C3.49603 37.1713 3.06379 36.7984 2.7501 36.3332C2.46459 36.0759 2.24458 35.7541 2.10834 35.3947C1.9721 35.0353 1.92357 34.6485 1.96677 34.2666C2.0908 33.7154 2.3888 33.2187 2.81677 32.8499C5.7001 30.2999 10.0001 32.5666 8.23344 35.8666ZM26.1834 34.2999C26.6834 38.9666 20.5168 37.0832 21.0501 34.2999C21.4834 32.0666 25.7834 30.6166 26.1834 34.2999ZM37.4668 5.06656C36.3334 5.21656 32.3834 5.24989 30.5834 5.48322C30.6895 4.61383 30.8907 3.75871 31.1834 2.93322C31.3501 3.18322 32.3334 2.81656 32.7501 2.73322C34.3726 2.71441 35.9877 2.95638 37.5334 3.44989C38.2001 3.64989 38.1168 4.99989 37.4668 5.06656Z" fill="black"/>
</g>
<defs>
<clipPath id="clip0_122_2627">
<rect width="40" height="40" fill="white" transform="translate(0 0.5)"/>
</clipPath>
</defs>
</svg>
