<svg width="24" height="25" viewBox="0 0 24 25" fill="none" xmlns="http://www.w3.org/2000/svg">
<path d="M3 3.5H4.90777C5.57302 3.5 5.90506 3.5 6.17023 3.63129C6.27955 3.6856 6.37856 3.7553 6.46355 3.83776C6.66887 4.03788 6.74983 4.32906 6.91057 4.91141L7.12411 5.68118C7.24261 6.10894 7.30245 6.32282 7.39397 6.50282C7.5504 6.80998 7.78605 7.07888 8.08121 7.28703C8.37637 7.49518 8.72246 7.63655 9.09054 7.69929C9.30643 7.73529 9.55047 7.73529 10.0397 7.73529" stroke="black" stroke-width="2" stroke-linecap="round"/>
<path d="M19.4261 17.2646H7.16521C6.99509 17.2646 6.90944 17.2646 6.84373 17.2583C6.68082 17.2418 6.52353 17.1948 6.38199 17.1202C6.24046 17.0456 6.11782 16.945 6.02198 16.825C5.92614 16.705 5.85923 16.5682 5.82556 16.4234C5.79189 16.2787 5.7922 16.1291 5.82649 15.9845C5.85357 15.8908 5.88528 15.7982 5.92153 15.7071C5.98254 15.544 6.01187 15.4625 6.0459 15.3894C6.21291 15.0284 6.48748 14.7162 6.83914 14.4874C7.19081 14.2587 7.60582 14.1223 8.03814 14.0934C8.12496 14.0881 8.22117 14.0881 8.41007 14.0881H14.7329" stroke="black" stroke-width="2" stroke-linecap="round" stroke-linejoin="round"/>
<path d="M15.3523 14.0883H11.1825C9.75576 14.0883 9.0424 14.0883 8.49213 13.7971C8.26012 13.6739 8.05334 13.5156 7.88085 13.3291C7.4702 12.8865 7.35287 12.2512 7.11938 10.9817C6.88121 9.69523 6.7627 9.05147 7.04547 8.575C7.16309 8.37615 7.32628 8.20218 7.52417 8.06465C7.99818 7.73535 8.72092 7.73535 10.1664 7.73535H17.9758C19.6771 7.73535 20.5277 7.73535 20.8727 8.23723C21.2164 8.74018 20.8351 9.42629 20.0748 10.7996L19.5504 11.7472C18.9191 12.8865 18.6035 13.4562 18.0368 13.7717C17.469 14.0883 16.7638 14.0883 15.3523 14.0883Z" stroke="black" stroke-width="2" stroke-linecap="round"/>
<path d="M18.2529 21.5C18.9009 21.5 19.4262 21.0259 19.4262 20.4411C19.4262 19.8564 18.9009 19.3823 18.2529 19.3823C17.6049 19.3823 17.0796 19.8564 17.0796 20.4411C17.0796 21.0259 17.6049 21.5 18.2529 21.5Z" fill="black"/>
<path d="M8.8664 21.5C9.51439 21.5 10.0397 21.0259 10.0397 20.4411C10.0397 19.8564 9.51439 19.3823 8.8664 19.3823C8.21841 19.3823 7.69312 19.8564 7.69312 20.4411C7.69312 21.0259 8.21841 21.5 8.8664 21.5Z" fill="black"/>
</svg>
