<svg width="16" height="16" viewBox="0 0 16 16" fill="none" xmlns="http://www.w3.org/2000/svg">
<path d="M6.85494 0.123483C6.88728 0.162586 6.91293 0.209021 6.93044 0.260134C6.94794 0.311248 6.95695 0.366037 6.95695 0.421368C6.95695 0.476699 6.94794 0.531488 6.93044 0.582601C6.91293 0.633714 6.88728 0.680149 6.85494 0.719252L1.18808 7.57901L15.6522 7.57901C15.7444 7.57901 15.8329 7.62337 15.8981 7.70233C15.9634 7.78129 16 7.88838 16 8.00005C16 8.11171 15.9634 8.21881 15.8981 8.29777C15.8329 8.37673 15.7444 8.42109 15.6522 8.42109L1.18808 8.42109L6.85494 15.2808C6.88726 15.32 6.91289 15.3664 6.93038 15.4175C6.94787 15.4686 6.95687 15.5234 6.95687 15.5787C6.95687 15.6341 6.94787 15.6888 6.93038 15.7399C6.91289 15.7911 6.88726 15.8375 6.85494 15.8766C6.82262 15.9157 6.78426 15.9468 6.74204 15.9679C6.69981 15.9891 6.65456 16 6.60886 16C6.56315 16 6.5179 15.9891 6.47568 15.9679C6.43345 15.9468 6.39509 15.9157 6.36277 15.8766L0.102011 8.29793C0.0696715 8.25883 0.0440168 8.21239 0.026513 8.16128C0.00900921 8.11017 -3.4727e-07 8.05538 -3.49689e-07 8.00005C-3.52108e-07 7.94472 0.0090092 7.88993 0.026513 7.83881C0.0440168 7.7877 0.0696715 7.74127 0.102011 7.70216L6.36277 0.123483C6.39508 0.0843368 6.43344 0.0532812 6.47566 0.0320928C6.51789 0.0109043 6.56315 -2.86884e-07 6.60886 -2.88882e-07C6.65456 -2.9088e-07 6.69983 0.0109043 6.74205 0.0320928C6.78428 0.0532812 6.82264 0.0843368 6.85494 0.123483Z" fill="#070505"/>
</svg>
