<svg width="16" height="16" viewBox="0 0 16 16" fill="none" xmlns="http://www.w3.org/2000/svg">
<path d="M9.14506 15.8765C9.11272 15.8374 9.08706 15.791 9.06956 15.7399C9.05206 15.6887 9.04305 15.634 9.04305 15.5786C9.04305 15.5233 9.05206 15.4685 9.06956 15.4174C9.08706 15.3663 9.11272 15.3198 9.14506 15.2807L14.8119 8.42099L0.347818 8.42099C0.255571 8.42099 0.167102 8.37663 0.101873 8.29767C0.0366441 8.21871 -8.19176e-07 8.11161 -7.94771e-07 7.99995C-7.70365e-07 7.88828 0.0366442 7.78119 0.101873 7.70223C0.167102 7.62327 0.255572 7.57891 0.347819 7.57891L14.8119 7.57891L9.14506 0.719155C9.11275 0.680036 9.08711 0.633595 9.06962 0.582484C9.05213 0.531373 9.04313 0.476593 9.04313 0.42127C9.04313 0.365948 9.05213 0.311168 9.06962 0.260057C9.08711 0.208945 9.11275 0.162505 9.14506 0.123386C9.17738 0.0842672 9.21574 0.0532366 9.25797 0.0320657C9.30019 0.0108949 9.34544 -1.4544e-06 9.39114 -1.44441e-06C9.43685 -1.43442e-06 9.4821 0.0108949 9.52432 0.0320658C9.56655 0.0532367 9.60491 0.0842673 9.63723 0.123386L15.898 7.70207C15.9303 7.74117 15.956 7.78761 15.9735 7.83872C15.991 7.88983 16 7.94462 16 7.99995C16 8.05528 15.991 8.11007 15.9735 8.16119C15.956 8.2123 15.9303 8.25873 15.898 8.29784L9.63722 15.8765C9.60492 15.9157 9.56656 15.9467 9.52433 15.9679C9.48211 15.9891 9.43685 16 9.39114 16C9.34543 16 9.30017 15.9891 9.25795 15.9679C9.21572 15.9467 9.17736 15.9157 9.14506 15.8765Z" fill="#070505"/>
</svg>
