<svg width="24" height="24" viewBox="0 0 24 24" fill="none" xmlns="http://www.w3.org/2000/svg">
<path d="M12 15.3333C8.2068 15.3333 4.83354 17.034 2.68595 19.6733C2.22373 20.2413 1.99262 20.5254 2.00018 20.9092C2.00602 21.2058 2.20657 21.5799 2.45785 21.763C2.7831 22 3.23383 22 4.13527 22H19.8647C20.7662 22 21.2169 22 21.5421 21.763C21.7934 21.5799 21.994 21.2058 21.9998 20.9092C22.0074 20.5254 21.7763 20.2413 21.314 19.6733C19.1665 17.034 15.7932 15.3333 12 15.3333Z" stroke="black" stroke-width="1.5" stroke-linecap="round" stroke-linejoin="round"/>
<path d="M12 12C14.9738 12 17.3845 9.76142 17.3845 7C17.3845 4.23858 14.9738 2 12 2C9.02621 2 6.61547 4.23858 6.61547 7C6.61547 9.76142 9.02621 12 12 12Z" stroke="black" stroke-width="1.5" stroke-linecap="round" stroke-linejoin="round"/>
</svg>
