<svg width="24" height="24" viewBox="0 0 24 24" fill="none" xmlns="http://www.w3.org/2000/svg">
<path d="M2 2H4.11974C4.85891 2 5.22785 2 5.52247 2.14588C5.64394 2.20623 5.75396 2.28367 5.84839 2.37529C6.07653 2.59765 6.16648 2.92118 6.34508 3.56824L6.58234 4.42353C6.71401 4.89882 6.7805 5.13647 6.88218 5.33647C7.05601 5.67776 7.31784 5.97653 7.64579 6.20781C7.97374 6.43909 8.35829 6.59616 8.76727 6.66588C9.00714 6.70588 9.2783 6.70588 9.82193 6.70588" stroke="black" stroke-width="1.5" stroke-linecap="round"/>
<path d="M20.2512 17.2942H6.628C6.43897 17.2942 6.3438 17.2942 6.2708 17.2871C6.08979 17.2689 5.91502 17.2166 5.75776 17.1337C5.60049 17.0508 5.46423 16.9391 5.35774 16.8058C5.25125 16.6724 5.1769 16.5204 5.13949 16.3596C5.10208 16.1987 5.10244 16.0326 5.14053 15.8718C5.17062 15.7677 5.20586 15.6649 5.24613 15.5636C5.31392 15.3824 5.34651 15.2918 5.38431 15.2107C5.56989 14.8095 5.87497 14.4626 6.2657 14.2085C6.65644 13.9543 7.11756 13.8027 7.59792 13.7707C7.69439 13.7648 7.80129 13.7648 8.01118 13.7648H15.0366" stroke="black" stroke-width="1.5" stroke-linecap="round" stroke-linejoin="round"/>
<path d="M15.7248 13.7648H11.0916C9.50638 13.7648 8.71375 13.7648 8.10234 13.4412C7.84455 13.3044 7.61479 13.1285 7.42314 12.9212C6.96686 12.4295 6.83649 11.7236 6.57707 10.313C6.31242 8.88358 6.18075 8.16829 6.49493 7.63887C6.62563 7.41793 6.80695 7.22463 7.02683 7.07181C7.5535 6.70593 8.35655 6.70593 9.96265 6.70593H18.6398C20.5301 6.70593 21.4752 6.70593 21.8585 7.26358C22.2405 7.8224 21.8168 8.58476 20.972 10.1106L20.3893 11.1636C19.6879 12.4295 19.3372 13.0624 18.7076 13.413C18.0766 13.7648 17.2931 13.7648 15.7248 13.7648Z" stroke="black" stroke-width="1.5" stroke-linecap="round"/>
<path d="M18.9475 21.9999C19.6675 21.9999 20.2512 21.4732 20.2512 20.8234C20.2512 20.1737 19.6675 19.647 18.9475 19.647C18.2275 19.647 17.6439 20.1737 17.6439 20.8234C17.6439 21.4732 18.2275 21.9999 18.9475 21.9999Z" fill="black"/>
<path d="M8.51831 21.9999C9.2383 21.9999 9.82197 21.4732 9.82197 20.8234C9.82197 20.1737 9.2383 19.647 8.51831 19.647C7.79833 19.647 7.21466 20.1737 7.21466 20.8234C7.21466 21.4732 7.79833 21.9999 8.51831 21.9999Z" fill="black"/>
</svg>
