<svg width="24" height="24" viewBox="0 0 24 24" fill="none" xmlns="http://www.w3.org/2000/svg">
<g clip-path="url(#clip0_282_5326)">
<path fill-rule="evenodd" clip-rule="evenodd" d="M24.0006 7.91003C23.97 7.37298 23.7462 6.86511 23.3706 6.48003C23.2035 6.32718 23.0105 6.20529 22.8006 6.12003C22.7406 5.94003 22.6906 5.76003 22.6206 5.59003C22.5035 5.30055 22.3596 5.02266 22.1906 4.76003C22.0006 4.44003 21.9206 4.13003 21.7506 3.86003C21.5853 3.61585 21.362 3.41654 21.1006 3.28003C20.7268 3.10761 20.3221 3.01237 19.9106 3.00003C19.3779 2.96444 18.8434 2.96444 18.3106 3.00003C17.9006 3.00003 17.3106 3.00003 16.8106 3.06003C16.8106 2.96003 16.8806 2.86003 16.9206 2.76003C16.9652 2.63637 17.0452 2.52857 17.1506 2.45003H17.9506C18.3169 2.37569 18.6944 2.37569 19.0606 2.45003C19.2806 2.50875 19.4787 2.63038 19.6306 2.80003C19.6847 2.85217 19.7555 2.8836 19.8304 2.88883C19.9054 2.89406 19.9798 2.87274 20.0406 2.82862C20.1014 2.7845 20.1447 2.72038 20.163 2.64751C20.1813 2.57463 20.1734 2.49764 20.1406 2.43003C19.9622 2.11656 19.6987 1.85999 19.3806 1.69003C18.9168 1.49179 18.4146 1.39955 17.9106 1.42003C17.652 1.42294 17.3943 1.44972 17.1406 1.50003C16.8996 1.55361 16.6822 1.68334 16.5206 1.87003C16.4005 2.0118 16.3149 2.17954 16.2706 2.36003C16.2111 2.64269 16.1843 2.93125 16.1906 3.22003C15.7626 3.26149 15.3526 3.41307 15.0006 3.66003C14.8549 3.78502 14.7359 3.93806 14.6506 4.11003C14.5524 4.31168 14.4656 4.51867 14.3906 4.73003L14.0706 5.62003C14.0706 5.82003 13.9806 6.01003 13.9506 6.21003C13.9206 6.41003 13.9506 6.52003 13.9506 6.68003C13.7052 6.81401 13.4906 6.99797 13.3206 7.22003C13.044 7.59351 12.8935 8.0453 12.8906 8.51003C12.9273 9.10682 12.9974 9.70109 13.1006 10.29C13.1096 10.3462 13.1355 10.3982 13.1748 10.4393C13.2141 10.4804 13.2649 10.5086 13.3206 10.52C13.3777 10.5741 13.4521 10.606 13.5306 10.61H13.7406L13.6606 11.67C13.6511 11.7798 13.6511 11.8902 13.6606 12C13.6788 12.0843 13.7164 12.163 13.7706 12.23C13.8881 12.3859 14.0591 12.4928 14.2506 12.53C14.4797 12.5586 14.7115 12.5586 14.9406 12.53C15.3427 12.5465 15.744 12.4819 16.1206 12.34C16.2429 12.271 16.3461 12.1728 16.4212 12.0541C16.4962 11.9355 16.5407 11.8001 16.5506 11.66V11.3L16.4506 10.78H16.9906H17.8506H19.3106H20.2506L20.1706 11.67C20.1596 11.8132 20.1596 11.9569 20.1706 12.1C20.1992 12.194 20.2549 12.2775 20.3306 12.34C20.4034 12.4109 20.4928 12.4625 20.5906 12.49C20.707 12.5309 20.8279 12.5578 20.9506 12.57C21.1568 12.59 21.3644 12.59 21.5706 12.57C21.7622 12.5464 21.9525 12.513 22.1406 12.47C22.2632 12.4567 22.3839 12.4298 22.5006 12.39C22.5888 12.3509 22.6673 12.2928 22.7306 12.22C22.8168 12.1125 22.8752 11.9854 22.9006 11.85C22.9102 11.7235 22.9102 11.5965 22.9006 11.47C22.9106 11.3035 22.9106 11.1366 22.9006 10.97C22.887 10.8286 22.8637 10.6882 22.8306 10.55H23.1206C23.1622 10.5514 23.2036 10.5443 23.2423 10.5294C23.2811 10.5144 23.3165 10.4918 23.3463 10.4628C23.3762 10.4339 23.3999 10.3993 23.4161 10.361C23.4323 10.3227 23.4406 10.2816 23.4406 10.24C23.4406 10.24 23.4406 10.24 23.4406 10.17C23.511 10.1885 23.5857 10.1815 23.6515 10.1505C23.7173 10.1194 23.7701 10.0661 23.8006 10C23.9709 9.3172 24.0383 8.61277 24.0006 7.91003ZM14.6006 6.32003C14.6401 6.15366 14.6902 5.98999 14.7506 5.83003L15.1406 5.05003C15.2188 4.87212 15.3125 4.70146 15.4206 4.54003C15.4671 4.46235 15.5283 4.39443 15.6006 4.34003C15.8099 4.22284 16.0417 4.15127 16.2806 4.13003C16.9779 4.05014 17.6788 4.00675 18.3806 4.00003C18.8702 3.97293 19.361 3.97293 19.8506 4.00003C20.1305 3.99182 20.4093 4.03941 20.6706 4.14003C20.8082 4.18939 20.9293 4.27593 21.0206 4.39003C21.2106 4.64003 21.3106 4.93003 21.5306 5.22003C21.6916 5.43505 21.8354 5.66242 21.9606 5.90003C21.4619 5.8094 20.9572 5.75592 20.4506 5.74003C19.3454 5.66006 18.2358 5.66006 17.1306 5.74003C16.3617 5.81638 15.6075 6.00156 14.8906 6.29003L14.5706 6.43003C14.5616 6.39327 14.5651 6.35456 14.5806 6.32003H14.6006ZM15.8006 11.32C15.7006 11.71 15.8006 11.56 15.5406 11.56H14.9106C14.8406 11.56 14.6406 11.64 14.5306 11.64V11.57C14.4721 11.4043 14.4286 11.2336 14.4006 11.06C14.4006 10.94 14.4006 10.81 14.3406 10.69C14.8306 10.69 15.3406 10.69 15.8206 10.77L15.8006 11.32ZM22.1606 10.95C22.1437 11.1181 22.117 11.2851 22.0806 11.45V11.54H22.0006L21.0006 11.64L20.8406 10.85L22.1606 10.71C22.158 10.787 22.1513 10.8638 22.1406 10.94L22.1606 10.95ZM23.1606 9.95003H20.7806L19.0006 9.83003H17.1806C16.0006 9.83003 14.8306 9.96003 13.6606 10.08C13.5961 9.58951 13.576 9.09417 13.6006 8.60003C13.6255 8.28522 13.7519 7.98698 13.9606 7.75003C14.0757 7.62598 14.2153 7.52722 14.3706 7.46003C14.6557 7.3346 14.9499 7.23097 15.2506 7.15003C15.8977 6.93609 16.5702 6.80832 17.2506 6.77003C18.3106 6.69003 19.3806 6.77003 20.4606 6.77003C20.9741 6.73775 21.4895 6.75114 22.0006 6.81003C22.2911 6.8352 22.5702 6.93511 22.8106 7.10003C23.0639 7.3403 23.2234 7.66289 23.2606 8.01003C23.3331 8.62957 23.3129 9.25645 23.2006 9.87003C23.195 9.91318 23.195 9.95688 23.2006 10C23.2006 10 23.1606 10 23.1206 10L23.1606 9.95003Z" fill="black"/>
<path fill-rule="evenodd" clip-rule="evenodd" d="M15.3607 8.04998H15.1707C15.1082 8.0351 15.0431 8.0351 14.9807 8.04998C14.9807 8.04998 14.2807 8.36998 14.3307 8.64998C14.3307 8.64998 14.2807 8.85998 15.0607 9.04998C15.1169 9.06031 15.1745 9.06031 15.2307 9.04998C15.2307 9.04998 16.1307 8.81998 16.1107 8.48998C16.1107 8.37998 16.0807 8.23998 15.3607 8.04998Z" fill="black"/>
<path fill-rule="evenodd" clip-rule="evenodd" d="M21.4806 7.85003C21.411 7.84005 21.3403 7.84005 21.2706 7.85003C21.2013 7.83629 21.13 7.83629 21.0606 7.85003C21.0606 7.85003 20.3606 8.22003 20.4206 8.49003C20.4206 8.49003 20.4206 8.71003 21.2006 8.84003C21.2569 8.84973 21.3144 8.84973 21.3706 8.84003C21.3706 8.84003 22.2606 8.58003 22.2706 8.31003C22.2806 8.04003 22.2406 8.00003 21.4806 7.85003Z" fill="black"/>
<path fill-rule="evenodd" clip-rule="evenodd" d="M6.63025 8.59C6.1303 8.05668 5.48173 7.68577 4.76855 7.5253C4.05537 7.36484 3.31044 7.42222 2.63024 7.69C2.36883 7.78987 2.12038 7.92081 1.89024 8.08C1.67031 8.23687 1.46301 8.41074 1.27024 8.6C1.1003 8.768 0.943193 8.94851 0.800245 9.14C0.661122 9.33848 0.540611 9.54938 0.440245 9.77C0.311047 10.0694 0.200829 10.3767 0.110245 10.69C0.0206274 11.0162 -0.0297289 11.3519 -0.0397551 11.69C-0.0451179 12.2667 0.0254891 12.8417 0.170245 13.4C0.321253 13.9504 0.522083 14.486 0.770245 15C1.05121 15.6117 1.38585 16.1974 1.77024 16.75C2.15871 17.3025 2.59723 17.818 3.08024 18.29C3.13362 18.3385 3.20314 18.3654 3.27524 18.3654C3.34735 18.3654 3.41687 18.3385 3.47024 18.29C3.49656 18.2648 3.51751 18.2345 3.53181 18.201C3.54612 18.1675 3.5535 18.1314 3.5535 18.095C3.5535 18.0586 3.54612 18.0225 3.53181 17.989C3.51751 17.9555 3.49656 17.9252 3.47024 17.9C3.03462 17.4399 2.64603 16.9374 2.31024 16.4C1.96857 15.8664 1.6805 15.3003 1.45025 14.71C1.25772 14.2306 1.10715 13.7354 1.00024 13.23C0.896743 12.7372 0.86308 12.2322 0.900245 11.73C0.922091 11.4808 0.975865 11.2355 1.06024 11C1.14177 10.7336 1.24894 10.4757 1.38024 10.23C1.45429 10.0688 1.54837 9.91764 1.66024 9.78C1.76145 9.62435 1.87516 9.4772 2.00024 9.34C2.15819 9.20956 2.32908 9.09563 2.51024 9C2.67913 8.88394 2.86021 8.78669 3.05024 8.71C3.53969 8.53187 4.07067 8.50135 4.57731 8.62223C5.08395 8.74311 5.54395 9.01008 5.90025 9.39C6.28752 9.75495 6.58753 10.2025 6.77797 10.6994C6.96842 11.1963 7.04439 11.7297 7.00025 12.26C6.94447 12.6783 6.83698 13.0881 6.68024 13.48C6.42749 14.1055 6.13351 14.7135 5.80025 15.3C5.42396 16.056 4.98931 16.7815 4.50025 17.47C4.16643 17.9174 3.7878 18.3295 3.37024 18.7C3.30659 18.753 3.26662 18.8292 3.25912 18.9117C3.25162 18.9942 3.2772 19.0764 3.33024 19.14C3.38329 19.2037 3.45944 19.2436 3.54196 19.2511C3.62448 19.2586 3.70659 19.233 3.77024 19.18C4.22142 18.7949 4.63343 18.3662 5.00025 17.9C5.55696 17.2056 6.05532 16.4665 6.49024 15.69C6.86254 15.0848 7.19653 14.457 7.49024 13.81C7.71807 13.3595 7.88937 12.8825 8.00025 12.39C8.0854 11.6936 8.00579 10.9869 7.76783 10.3268C7.52987 9.6668 7.14021 9.07188 6.63025 8.59Z" fill="black"/>
<path fill-rule="evenodd" clip-rule="evenodd" d="M5.19071 12.07C5.28995 11.7666 5.28696 11.4389 5.1822 11.1373C5.07745 10.8357 4.8767 10.5767 4.61071 10.4C4.49829 10.3244 4.37285 10.2701 4.24071 10.24C4.11451 10.2248 3.98692 10.2248 3.86071 10.24C3.83008 10.1877 3.78329 10.1468 3.72739 10.1233C3.67149 10.0999 3.60949 10.0952 3.55071 10.11C3.26088 10.1726 2.99344 10.3126 2.77685 10.5151C2.56026 10.7176 2.40262 10.9751 2.32071 11.26C2.22005 11.576 2.22407 11.916 2.33217 12.2295C2.44028 12.543 2.64669 12.8133 2.92071 13C3.03705 13.0708 3.16122 13.1279 3.29071 13.17C3.43049 13.2103 3.57526 13.2305 3.72071 13.23C4.0561 13.2141 4.37812 13.0937 4.6417 12.8857C4.90528 12.6777 5.09724 12.3925 5.19071 12.07ZM4.30071 11.75C4.24814 11.8688 4.16067 11.9688 4.04992 12.0367C3.93918 12.1045 3.81041 12.1371 3.68071 12.13L3.48071 12.07C3.35694 12.0116 3.25518 11.9149 3.19039 11.7943C3.12559 11.6737 3.10117 11.5355 3.12071 11.4C3.1566 11.1283 3.29638 10.881 3.51071 10.71C3.56096 10.7708 3.63248 10.8101 3.71071 10.82C3.81071 10.82 3.91071 10.82 4.01071 10.88C4.06484 10.9026 4.11538 10.9329 4.16071 10.97C4.26264 11.0691 4.33097 11.1976 4.35608 11.3375C4.38119 11.4775 4.36183 11.6217 4.30071 11.75Z" fill="black"/>
<path fill-rule="evenodd" clip-rule="evenodd" d="M4.56027 20.8801L5.82027 19.8801C5.87895 19.8308 5.91802 19.7622 5.93038 19.6866C5.94274 19.611 5.92756 19.5335 5.88762 19.4681C5.84767 19.4027 5.78561 19.3539 5.71269 19.3304C5.63978 19.3069 5.56086 19.3103 5.49027 19.3401C4.96027 19.5901 4.49027 19.8301 3.92027 20.1101C3.81359 20.1641 3.71009 20.2242 3.61027 20.2901L3.13027 20.0001C2.72027 19.8301 2.30027 19.6301 1.87027 19.4701C1.56767 19.3548 1.25192 19.2775 0.930269 19.2401C0.895435 19.2296 0.858798 19.2266 0.822724 19.2312C0.78665 19.2358 0.751942 19.2479 0.720842 19.2668C0.689742 19.2856 0.662942 19.3108 0.642173 19.3406C0.621404 19.3705 0.607129 19.4044 0.600269 19.4401C0.591336 19.4749 0.589444 19.5111 0.594703 19.5467C0.599962 19.5822 0.612266 19.6164 0.630893 19.6471C0.649521 19.6779 0.674098 19.7046 0.703182 19.7257C0.732267 19.7468 0.765274 19.7619 0.800269 19.7701C0.994352 19.8438 1.18171 19.9341 1.36027 20.0401C1.80442 20.3361 2.23175 20.6566 2.64027 21.0001C2.19516 21.3834 1.7712 21.7907 1.37027 22.2201C1.32019 22.2706 1.2921 22.3389 1.2921 22.4101C1.2921 22.4812 1.32019 22.5495 1.37027 22.6001C1.41567 22.658 1.48203 22.6957 1.55502 22.705C1.628 22.7144 1.70173 22.6947 1.76027 22.6501C2.26027 22.3601 2.76027 22.1101 3.27027 21.8301L3.71027 21.5601L3.90027 21.6601C4.53027 21.9801 5.16027 22.2501 5.80027 22.5501C5.872 22.5783 5.95168 22.5789 6.02378 22.5515C6.09587 22.5242 6.15519 22.471 6.19017 22.4023C6.22515 22.3336 6.23327 22.2543 6.21295 22.18C6.19263 22.1056 6.14532 22.0415 6.08027 22.0001C5.57027 21.5901 5.08027 21.2201 4.56027 20.8801Z" fill="black"/>
<path fill-rule="evenodd" clip-rule="evenodd" d="M9.6799 20.2C9.4399 20.2 9.2299 20.12 8.9899 20.1H8.7199C8.63071 20.1127 8.5434 20.1362 8.4599 20.17C8.2399 20.24 8.0899 20.36 7.8699 20.44C7.80594 20.4522 7.74826 20.4864 7.70677 20.5366C7.66528 20.5868 7.64258 20.6499 7.64258 20.715C7.64258 20.7801 7.66528 20.8432 7.70677 20.8934C7.74826 20.9436 7.80594 20.9777 7.8699 20.99C8.09514 21.0759 8.33033 21.133 8.5699 21.16C8.6663 21.1702 8.7635 21.1702 8.8599 21.16C8.95273 21.144 9.04335 21.1171 9.1299 21.08C9.3399 21.01 9.5199 20.9 9.7299 20.82C9.77068 20.8162 9.81031 20.8044 9.84651 20.7853C9.88271 20.7661 9.91475 20.74 9.94078 20.7083C9.96682 20.6767 9.98633 20.6403 9.99819 20.6011C10.0101 20.5619 10.014 20.5207 10.0099 20.48C10.0023 20.3995 9.96349 20.3252 9.90185 20.2729C9.8402 20.2206 9.76056 20.1944 9.6799 20.2Z" fill="black"/>
<path fill-rule="evenodd" clip-rule="evenodd" d="M14.5106 20.1801C14.2906 20.1301 14.0906 20.0501 13.8506 20.0001C13.7541 19.9902 13.657 19.9902 13.5606 20.0001C13.4611 19.985 13.36 19.985 13.2606 20.0001C13.0203 20.0705 12.7913 20.1749 12.5806 20.3101C12.5107 20.329 12.4504 20.3733 12.4115 20.4343C12.3727 20.4954 12.3581 20.5688 12.3706 20.6401C12.3776 20.676 12.3919 20.7101 12.4125 20.7403C12.4331 20.7705 12.4597 20.7962 12.4905 20.8158C12.5214 20.8355 12.5559 20.8486 12.592 20.8545C12.6281 20.8604 12.6651 20.8589 12.7006 20.8501C12.9206 20.8501 13.1006 20.9701 13.3206 21.0001C13.4103 21.0101 13.5008 21.0101 13.5906 21.0001C13.6803 21.0098 13.7708 21.0098 13.8606 21.0001C14.0842 20.9541 14.3046 20.894 14.5206 20.8201C14.5621 20.8201 14.6033 20.8118 14.6416 20.7956C14.6798 20.7794 14.7145 20.7556 14.7434 20.7258C14.7723 20.6959 14.7949 20.6606 14.8099 20.6218C14.8249 20.583 14.8319 20.5416 14.8306 20.5001C14.8306 20.4152 14.7968 20.3338 14.7368 20.2738C14.6768 20.2138 14.5954 20.1801 14.5106 20.1801Z" fill="black"/>
<path fill-rule="evenodd" clip-rule="evenodd" d="M19.2005 17.55C19.1598 17.5513 19.1198 17.5606 19.0826 17.5774C19.0455 17.5942 19.0121 17.6182 18.9842 17.6479C18.9563 17.6776 18.9346 17.7125 18.9203 17.7506C18.9059 17.7888 18.8992 17.8293 18.9005 17.8701C18.863 18.3479 18.6778 18.8022 18.3705 19.17C18.2984 19.2668 18.2181 19.3571 18.1305 19.4401C17.8877 19.6779 17.5883 19.85 17.2605 19.9401C17.2241 19.9425 17.1886 19.9523 17.1561 19.9689C17.1235 19.9855 17.0947 20.0085 17.0714 20.0366C17.048 20.0646 17.0306 20.0971 17.0201 20.1321C17.0096 20.1671 17.0064 20.2038 17.0105 20.24C17.0131 20.2755 17.0226 20.3102 17.0385 20.342C17.0545 20.3738 17.0766 20.4021 17.1036 20.4253C17.1305 20.4486 17.1618 20.4663 17.1956 20.4774C17.2294 20.4885 17.2651 20.4928 17.3005 20.49C17.7798 20.5621 18.2695 20.4817 18.7005 20.26C18.9029 20.1558 19.0777 20.005 19.2105 19.82C19.3424 19.6427 19.4407 19.4428 19.5005 19.23C19.6078 18.7763 19.6078 18.3038 19.5005 17.85C19.498 17.7713 19.4656 17.6964 19.4099 17.6407C19.3542 17.585 19.2793 17.5526 19.2005 17.55Z" fill="black"/>
<path fill-rule="evenodd" clip-rule="evenodd" d="M18.9305 15.5801C19.0039 15.5776 19.0737 15.5473 19.1257 15.4953C19.1777 15.4433 19.208 15.3736 19.2105 15.3001C19.2941 15.1074 19.3675 14.9105 19.4305 14.7101C19.4354 14.6235 19.4354 14.5367 19.4305 14.4501C19.4353 14.3668 19.4353 14.2834 19.4305 14.2001C19.3805 13.9901 19.3105 13.8201 19.2405 13.6101C19.2405 13.5685 19.2321 13.5274 19.2159 13.4891C19.1997 13.4508 19.176 13.4162 19.1462 13.3873C19.1163 13.3584 19.0809 13.3357 19.0422 13.3208C19.0034 13.3058 18.962 13.2987 18.9205 13.3001C18.8382 13.3051 18.7607 13.3407 18.7033 13.3999C18.6459 13.4591 18.6128 13.5377 18.6105 13.6201C18.5433 13.817 18.4865 14.0172 18.4405 14.2201C18.43 14.3031 18.43 14.3871 18.4405 14.4701C18.4307 14.5531 18.4307 14.637 18.4405 14.7201C18.5023 14.9222 18.5792 15.1194 18.6705 15.3101C18.6728 15.3793 18.7006 15.4452 18.7486 15.495C18.7966 15.5449 18.8614 15.5752 18.9305 15.5801Z" fill="black"/>
</g>
<defs>
<clipPath id="clip0_282_5326">
<rect width="24" height="24" fill="white"/>
</clipPath>
</defs>
</svg>
