<svg width="24" height="24" viewBox="0 0 24 24" fill="none" xmlns="http://www.w3.org/2000/svg">
<g clip-path="url(#clip0_282_5229)">
<path fill-rule="evenodd" clip-rule="evenodd" d="M22.2001 6.00003C21.0481 4.70697 19.8157 3.48788 18.5101 2.35003C17.6445 1.56069 16.7146 0.844883 15.7301 0.210034C14.7774 0.00890204 13.8018 -0.0617452 12.8301 3.41106e-05C-0.479875 0.170034 1.83013 -0.319966 1.83013 3.83003C1.83013 7.13003 1.96013 10.43 1.98013 13.73V17.95C1.98013 18.15 1.67013 21.35 1.70013 22.62C1.69405 22.85 1.72443 23.0795 1.79013 23.3C1.81977 23.385 1.86597 23.4632 1.92605 23.5301C1.98613 23.597 2.05889 23.6514 2.14013 23.69C2.5515 23.8804 2.99705 23.9859 3.45013 24C4.36013 24 5.45013 23.84 6.15013 23.81C7.89013 23.72 11.0601 23.59 13.9801 23.51C16.0401 23.51 17.9801 23.44 19.1901 23.51C19.2414 23.5127 19.2926 23.5053 19.341 23.4881C19.3893 23.471 19.4338 23.4445 19.4719 23.4101C19.51 23.3757 19.5409 23.3342 19.5629 23.2878C19.5849 23.2415 19.5976 23.1913 19.6001 23.14C19.6057 23.0877 19.6003 23.0348 19.5843 22.9847C19.5684 22.9345 19.5422 22.8882 19.5074 22.8488C19.4726 22.8093 19.43 22.7774 19.3823 22.7553C19.3345 22.7331 19.2827 22.7211 19.2301 22.72C18.0001 22.63 16.0501 22.59 13.9801 22.57H6.11013C5.50013 22.57 4.65013 22.69 3.85013 22.69C3.56514 22.696 3.2803 22.6725 3.00013 22.62C3.00013 21.37 3.28013 18.21 3.28013 18.02V14.45C3.10013 10 2.65013 5.58003 2.57013 1.15003C2.64013 1.15003 6.84013 1.08003 10.2301 1.15003C11.8701 1.15003 13.3901 1.15003 14.3501 1.27003C15.3101 1.39003 16.1701 2.02003 18.2501 3.97003C19.3701 5.00003 20.4601 6.05003 21.0001 6.70003V8.10003C20.9401 11.57 20.7401 19.51 20.6601 23.22C20.6574 23.2726 20.6651 23.3251 20.6828 23.3747C20.7004 23.4243 20.7277 23.4699 20.763 23.5089C20.7983 23.5479 20.8409 23.5796 20.8885 23.6021C20.936 23.6246 20.9876 23.6375 21.0401 23.64C21.0922 23.6427 21.1442 23.635 21.1932 23.6172C21.2422 23.5994 21.2871 23.572 21.3253 23.5366C21.3636 23.5012 21.3943 23.4584 21.4157 23.4109C21.4372 23.3634 21.4489 23.3121 21.4501 23.26C21.6601 19.53 22.1501 11.61 22.3001 8.14003C22.3001 7.41003 22.3501 6.87003 22.3001 6.60003C22.3299 6.3945 22.295 6.1848 22.2001 6.00003Z" fill="black"/>
<path fill-rule="evenodd" clip-rule="evenodd" d="M7.05012 3.23003H6.87012C6.66012 3.23003 4.87012 3.55003 4.87012 4.00003C4.87012 4.22003 4.95012 4.45003 6.92012 4.52003H7.00012V5.52003V5.86003C5.17012 6.13003 5.28012 6.24003 5.26012 6.42003C5.24012 6.60003 5.26012 6.87003 6.96012 7.08003V8.08003V8.78003C5.29012 9.27003 5.34012 9.55003 5.38012 9.72003C5.47012 10.08 5.68012 9.95003 6.98012 9.98003V10.7C6.98012 10.94 6.98012 11.31 7.04012 11.62C5.68012 11.99 5.47012 12.17 5.53012 12.47C5.59012 12.77 5.78012 12.71 7.11012 12.78C7.17012 13.52 7.26012 14.26 7.36012 15C7.01294 15.1364 6.70023 15.3479 6.44436 15.6193C6.1885 15.8908 5.99582 16.2154 5.88012 16.57C5.72838 16.9925 5.68731 17.4468 5.76083 17.8897C5.83435 18.3325 6.02 18.7492 6.30012 19.1C6.54307 19.3679 6.8541 19.5649 7.20012 19.67C8.36012 19.99 11.7001 19.75 10.7801 16.86C10.5989 16.3128 10.2604 15.8311 9.8068 15.4754C9.35321 15.1196 8.80477 14.9056 8.23012 14.86C8.23012 14.16 8.16012 13.45 8.16012 12.74C8.33012 12.74 8.49012 12.74 8.65012 12.68C10.3301 12.49 10.5101 12.47 10.5301 12.12C10.5301 11.92 10.6101 11.62 8.62012 11.44H8.18012V9.90003H8.34012C10.0301 9.74003 10.1901 9.75003 10.2301 9.40003C10.2301 9.21003 10.2801 8.82003 8.36012 8.65003H8.24012V7.08003C9.96012 6.85003 10.1001 6.81003 10.1101 6.48003C10.1201 6.15003 9.92012 6.00003 8.29012 5.81003V5.52003C8.29012 5.18003 8.23012 4.83003 8.20012 4.52003C9.52012 4.40003 10.0001 4.49003 10.0001 4.00003C10.0001 3.51003 9.71012 3.62003 8.00012 3.21003V2.00003C8.00012 1.34003 7.17012 1.42003 7.13012 2.08003C7.07012 2.20003 7.05012 2.80003 7.05012 3.23003ZM7.87012 16.23C7.91508 16.2293 7.95937 16.2191 8.00012 16.2C8.35628 16.1765 8.71062 16.2677 9.01117 16.4603C9.31171 16.6528 9.54265 16.9366 9.67012 17.27C10.2501 18.52 9.00012 19.41 7.63012 19C7.3953 18.9233 7.19176 18.7724 7.05012 18.57C6.90464 18.3358 6.82343 18.0673 6.81465 17.7917C6.80588 17.5161 6.86984 17.2431 7.00012 17C7.08045 16.8205 7.20048 16.6614 7.35119 16.535C7.50189 16.4085 7.67932 16.3179 7.87012 16.27V16.23Z" fill="black"/>
</g>
<defs>
<clipPath id="clip0_282_5229">
<rect width="24" height="24" fill="white"/>
</clipPath>
</defs>
</svg>
