<svg width="24" height="24" viewBox="0 0 24 24" fill="none" xmlns="http://www.w3.org/2000/svg">
<g clip-path="url(#clip0_282_5469)">
<path d="M22.8299 14.6099C22.7426 14.5953 22.6529 14.6153 22.5801 14.6657C22.5072 14.7161 22.457 14.793 22.4399 14.8799C22.0109 16.7482 21.0363 18.4467 19.6399 19.7599C18.3304 21.1099 16.6308 22.0156 14.7799 22.3499C13.1363 22.5943 11.4636 22.5639 9.82994 22.2599C8.75733 22.0765 7.71668 21.7397 6.73994 21.2599C5.58858 20.6855 4.57131 19.8747 3.75455 18.8805C2.93779 17.8862 2.33991 16.7309 1.99994 15.4899C2.43994 15.6499 2.85994 15.8199 3.29994 15.9599C3.59932 16.0656 3.90708 16.1459 4.21994 16.1999C4.2628 16.2208 4.30967 16.2321 4.35732 16.2332C4.40498 16.2342 4.45229 16.2249 4.49601 16.2059C4.53972 16.1869 4.5788 16.1586 4.61055 16.1231C4.6423 16.0875 4.66598 16.0455 4.67994 15.9999C4.70138 15.9138 4.68828 15.8227 4.64343 15.7461C4.59859 15.6695 4.52555 15.6134 4.43994 15.5899C4.17004 15.4964 3.9062 15.3862 3.64994 15.2599C3.24994 15.0599 2.86994 14.8299 2.47994 14.6099C2.26519 14.4627 2.04142 14.3291 1.80994 14.2099C1.665 14.1482 1.50588 14.1274 1.34994 14.1499C1.24173 14.1795 1.14238 14.2351 1.06048 14.3118C0.978581 14.3884 0.916613 14.4839 0.879943 14.5899C0.789943 14.8099 0.639943 15.3899 0.599943 15.4799C0.499943 15.8299 0.409943 16.1799 0.339943 16.4799C0.189943 17.2799 0.139943 18.0899 0.00994285 18.8999C-0.00816398 18.9768 0.00478147 19.0577 0.0459695 19.1251C0.0871576 19.1925 0.153265 19.241 0.229943 19.2599C0.305316 19.2759 0.383944 19.2633 0.450499 19.2245C0.517055 19.1856 0.566766 19.1234 0.589943 19.0499L1.58994 16.1899C2.33336 18.689 4.02343 20.7989 6.29994 22.0699C7.35046 22.656 8.48312 23.0807 9.65994 23.3299C11.4156 23.6609 13.2151 23.6879 14.9799 23.4099C17.041 22.9786 18.9133 21.9078 20.3299 20.3499C21.7636 18.8795 22.7307 17.0183 23.1099 14.9999C23.1244 14.9111 23.103 14.8202 23.0505 14.7471C22.9981 14.674 22.9187 14.6247 22.8299 14.6099Z" fill="black"/>
<path d="M23.7798 4.69996C23.7043 4.68149 23.6246 4.69307 23.5574 4.73224C23.4903 4.77142 23.4409 4.83513 23.4198 4.90996L22.4198 7.76996C21.6764 5.27089 19.9864 3.16099 17.7098 1.88996C16.6718 1.30764 15.5529 0.882987 14.3898 0.62996C12.6342 0.299047 10.8347 0.271987 9.06984 0.54996C7.00882 0.981255 5.13653 2.05213 3.71984 3.60996C2.26015 5.08285 1.27753 6.96097 0.899843 8.99996C0.883179 9.04642 0.876832 9.09596 0.881243 9.14512C0.885653 9.19428 0.900715 9.2419 0.925383 9.28465C0.95005 9.32741 0.983731 9.36428 1.02408 9.3927C1.06444 9.42113 1.1105 9.44043 1.15906 9.44926C1.20763 9.45809 1.25753 9.45624 1.30531 9.44383C1.35308 9.43143 1.39759 9.40878 1.43573 9.37744C1.47386 9.3461 1.50472 9.30684 1.52616 9.26238C1.54759 9.21791 1.55908 9.16932 1.55984 9.11996C1.98887 7.25173 2.96346 5.55315 4.35984 4.23996C5.67209 2.88819 7.37544 1.9823 9.22984 1.64996C10.8701 1.40539 12.5396 1.43581 14.1698 1.73996C15.2425 1.92344 16.2831 2.26022 17.2598 2.73996C18.4123 3.31282 19.4305 4.12313 20.2475 5.1176C21.0644 6.11207 21.6616 7.26819 21.9998 8.50996H21.9498C21.5198 8.34996 21.0898 8.17996 20.6498 8.03996C20.3505 7.93425 20.0427 7.85397 19.7298 7.79996C19.6437 7.77852 19.5526 7.79163 19.476 7.83647C19.3994 7.88132 19.3433 7.95435 19.3198 8.03996C19.2984 8.12611 19.3115 8.21722 19.3564 8.29383C19.4012 8.37044 19.4742 8.42648 19.5598 8.44996C19.8304 8.54171 20.0944 8.65198 20.3498 8.77996C20.7498 8.97996 21.1298 9.20996 21.5198 9.42996C21.7354 9.58135 21.9628 9.71512 22.1998 9.82996C22.3414 9.89139 22.4972 9.91217 22.6498 9.88996C22.7591 9.86023 22.8598 9.80478 22.9433 9.72823C23.0268 9.65169 23.0907 9.55627 23.1298 9.44996C23.2314 9.15785 23.3182 8.86081 23.3898 8.55996C23.5011 8.23273 23.5913 7.89871 23.6598 7.55996C23.7998 6.75996 23.8598 5.94996 23.9898 5.13996C24.0128 5.09822 24.0255 5.0516 24.0269 5.00397C24.0283 4.95634 24.0183 4.90906 23.9978 4.86606C23.9773 4.82305 23.9468 4.78556 23.9089 4.75667C23.871 4.72779 23.8268 4.70835 23.7798 4.69996Z" fill="black"/>
<path d="M7.16972 9.37001C7.73563 9.28468 8.30744 9.24456 8.87972 9.25001C8.95188 9.25318 9.02262 9.22931 9.07811 9.18307C9.13359 9.13684 9.16983 9.07156 9.17972 9.00001C9.17976 8.92215 9.14953 8.84732 9.09542 8.79134C9.0413 8.73536 8.96754 8.70261 8.88972 8.70001C8.17808 8.59457 7.45671 8.57108 6.73972 8.63001C6.36886 8.68966 6.0223 8.85255 5.73972 9.10001C5.61159 9.23201 5.51179 9.3888 5.44644 9.56076C5.38109 9.73273 5.35158 9.91623 5.35972 10.1C5.38489 10.6765 5.445 11.2508 5.53972 11.82L5.67972 13.74C5.6613 13.9663 5.6613 14.1937 5.67972 14.42C5.71781 14.5939 5.80451 14.7534 5.92972 14.88C6.15248 15.0692 6.42855 15.1846 6.71972 15.21C7.05174 15.2518 7.3877 15.2518 7.71972 15.21L8.71972 14.96C8.76778 14.956 8.81443 14.9417 8.85658 14.9183C8.89872 14.8948 8.93539 14.8627 8.96415 14.824C8.99291 14.7852 9.01311 14.7409 9.0234 14.6937C9.03368 14.6466 9.03383 14.5978 9.02382 14.5507C9.01381 14.5035 8.99388 14.459 8.96535 14.4201C8.93682 14.3812 8.90034 14.3488 8.85834 14.3251C8.81633 14.3014 8.76976 14.2869 8.72173 14.2826C8.67369 14.2783 8.62528 14.2842 8.57972 14.3L7.57972 14.43C7.24679 14.4532 6.91265 14.4532 6.57972 14.43C6.57972 14.43 6.57972 13.87 6.57972 13.73V12.56C6.63628 12.5648 6.69316 12.5648 6.74972 12.56C6.90461 12.5643 7.05936 12.5474 7.20972 12.51C7.44972 12.51 7.63972 12.35 7.86972 12.3C7.9609 12.3028 8.04954 12.2698 8.11679 12.2082C8.18403 12.1465 8.22455 12.0611 8.22972 11.97C8.24955 11.884 8.23708 11.7937 8.19467 11.7162C8.15227 11.6388 8.08289 11.5796 7.99972 11.55C7.76173 11.4701 7.51757 11.4099 7.26972 11.37C7.16998 11.3597 7.06945 11.3597 6.96972 11.37C6.87172 11.3777 6.77464 11.3945 6.67972 11.42H6.61972C6.61972 11.11 6.47972 10.68 6.43972 10.29C6.4203 10.1105 6.4203 9.92949 6.43972 9.75001C6.63504 9.54704 6.89142 9.41358 7.16972 9.37001Z" fill="black"/>
<path d="M12.1801 14.0999C11.9919 14.2287 11.768 14.2951 11.5401 14.2899C11.4514 14.2815 11.363 14.3082 11.2938 14.3643C11.2246 14.4204 11.1802 14.5014 11.1701 14.5899C11.1645 14.6349 11.1683 14.6805 11.1811 14.7239C11.1939 14.7673 11.2156 14.8076 11.2446 14.8423C11.2737 14.877 11.3096 14.9054 11.3501 14.9256C11.3906 14.9459 11.4349 14.9575 11.4801 14.9599C11.7723 14.9942 12.0684 14.9528 12.3401 14.8399C12.9765 14.5664 13.5181 14.1112 13.8969 13.5313C14.2758 12.9514 14.4752 12.2726 14.4701 11.5799C14.4465 11.0858 14.3215 10.6019 14.1031 10.158C13.8846 9.71421 13.5772 9.32003 13.2001 8.99995C12.7297 8.62741 12.1584 8.40447 11.5601 8.35995C11.3177 8.33773 11.0735 8.37327 10.8476 8.46366C10.6216 8.55405 10.4203 8.69671 10.2601 8.87995C10.1477 9.0151 10.0843 9.18423 10.0801 9.35995C10.093 9.6382 10.123 9.91539 10.1701 10.1899L10.3701 11.7399L10.5401 14.1699C10.5401 14.2495 10.5717 14.3258 10.6279 14.3821C10.6842 14.4383 10.7605 14.4699 10.8401 14.4699C10.9205 14.4673 10.9969 14.4335 11.0528 14.3757C11.1088 14.3178 11.1401 14.2405 11.1401 14.1599V11.6799V9.49995C11.2942 9.4597 11.456 9.4597 11.6101 9.49995C11.9053 9.56382 12.1822 9.69374 12.4201 9.87995C12.697 10.095 12.9281 10.3633 13.0999 10.6689C13.2716 10.9746 13.3805 11.3116 13.4201 11.6599C13.453 12.0223 13.4095 12.3876 13.2923 12.7321C13.1752 13.0766 12.9871 13.3927 12.7401 13.6599C12.5715 13.8283 12.3836 13.976 12.1801 14.0999Z" fill="black"/>
<path d="M18.1499 9.48991C18.2401 9.48991 18.3265 9.45409 18.3903 9.39033C18.4541 9.32657 18.4899 9.24009 18.4899 9.14991C18.4899 9.05974 18.4541 8.97326 18.3903 8.9095C18.3265 8.84573 18.2401 8.80991 18.1499 8.80991C17.7499 8.74991 17.3499 8.68991 16.9399 8.65991H16.4399H15.9599C15.5866 8.73937 15.2094 8.79945 14.8299 8.83991C14.7517 8.82841 14.6722 8.84821 14.6085 8.89502C14.5448 8.94183 14.5022 9.01186 14.4899 9.08991C14.4828 9.12955 14.484 9.17022 14.4935 9.20935C14.503 9.24848 14.5205 9.28521 14.545 9.31719C14.5694 9.34918 14.6003 9.37572 14.6356 9.39512C14.6709 9.41453 14.7098 9.42638 14.7499 9.42991C15.1987 9.60537 15.67 9.71647 16.1499 9.75991C16.0193 10.2093 15.9191 10.667 15.8499 11.1299C15.83 11.3695 15.83 11.6103 15.8499 11.8499C15.8546 12.0876 15.8746 12.3248 15.9099 12.5599C15.9849 13.0349 16.085 13.5055 16.2099 13.9699C15.7499 14.0799 15.3299 14.2399 14.8799 14.3399C14.8401 14.3398 14.8006 14.3479 14.7641 14.3637C14.7275 14.3795 14.6946 14.4027 14.6674 14.4318C14.6402 14.4609 14.6193 14.4953 14.606 14.5328C14.5926 14.5703 14.5871 14.6102 14.5899 14.6499C14.5898 14.6884 14.5976 14.7265 14.6129 14.7619C14.6283 14.7972 14.6507 14.829 14.6788 14.8553C14.707 14.8816 14.7403 14.9018 14.7766 14.9146C14.8129 14.9275 14.8515 14.9327 14.8899 14.9299C15.4388 15.0163 15.9944 15.0531 16.5499 15.0399C16.8862 15.0124 17.2203 14.9623 17.5499 14.8899C18.0199 14.7899 18.4599 14.6299 18.9299 14.5399C18.9733 14.5374 19.0157 14.5263 19.0548 14.5073C19.0938 14.4883 19.1288 14.4618 19.1576 14.4293C19.1864 14.3968 19.2085 14.3589 19.2226 14.3178C19.2367 14.2767 19.2426 14.2333 19.2399 14.1899C19.2386 14.1457 19.2285 14.1022 19.2101 14.0619C19.1917 14.0217 19.1654 13.9856 19.1327 13.9557C19.1 13.9259 19.0617 13.9029 19.02 13.8882C18.9783 13.8734 18.9341 13.8672 18.8899 13.8699C18.4081 13.8233 17.9238 13.8066 17.4399 13.8199H17.0199V12.4299V11.3599C17.0199 10.7899 16.9199 10.2499 16.8999 9.68991H16.9999C17.3699 9.67991 17.7499 9.55991 18.1499 9.48991Z" fill="black"/>
</g>
<defs>
<clipPath id="clip0_282_5469">
<rect width="24" height="24" fill="white"/>
</clipPath>
</defs>
</svg>
