<svg width="24" height="24" viewBox="0 0 24 24" fill="none" xmlns="http://www.w3.org/2000/svg">
<g clip-path="url(#clip0_282_5218)">
<path d="M6.47988 10.78C6.43544 10.7849 6.39246 10.7987 6.35353 10.8207C6.31461 10.8427 6.28055 10.8723 6.25343 10.9079C6.22631 10.9434 6.20669 10.9841 6.19577 11.0274C6.18485 11.0708 6.18284 11.1159 6.18988 11.16C6.19331 11.4263 6.1196 11.6879 5.97764 11.9133C5.83569 12.1386 5.63156 12.3181 5.38988 12.43C5.19826 12.5357 4.97295 12.5625 4.7619 12.5046C4.55086 12.4467 4.37074 12.3087 4.25988 12.12C4.07552 11.8917 3.98282 11.6029 3.99988 11.31C3.99041 11.0034 4.10174 10.7053 4.30988 10.48C4.38391 10.408 4.46815 10.3474 4.55988 10.3C4.65684 10.2552 4.76321 10.2346 4.86988 10.24C4.94988 10.24 5.15988 10.32 5.20988 10.3H5.31988C5.36257 10.307 5.40628 10.3043 5.44781 10.2922C5.48934 10.2801 5.52763 10.2588 5.55988 10.23C5.60256 10.1973 5.63566 10.1537 5.65571 10.1038C5.67576 10.0539 5.68203 9.99949 5.67385 9.94633C5.66567 9.89317 5.64335 9.84318 5.60922 9.80161C5.5751 9.76003 5.53043 9.7284 5.47988 9.71001C5.32318 9.64999 5.16287 9.5999 4.99988 9.56001C4.79853 9.51987 4.59123 9.51987 4.38988 9.56001C4.18986 9.60433 3.99992 9.68574 3.82988 9.80001C3.60113 9.96215 3.40902 10.1706 3.26603 10.4118C3.12304 10.653 3.03236 10.9215 2.99988 11.2C2.90861 11.7736 3.04889 12.3599 3.38988 12.83C3.66957 13.2236 4.09349 13.4907 4.56926 13.5731C5.04503 13.6556 5.53409 13.5466 5.92988 13.27C6.29672 13.0421 6.58761 12.7104 6.76565 12.3169C6.94369 11.9235 7.00085 11.486 6.92988 11.06C6.92567 11.0087 6.9095 10.959 6.88266 10.9151C6.85582 10.8711 6.81906 10.834 6.77532 10.8068C6.73159 10.7796 6.68209 10.763 6.63078 10.7583C6.57948 10.7537 6.5278 10.7611 6.47988 10.78Z" fill="black"/>
<path d="M12.5705 2.42C13.2815 2.38832 13.9939 2.41508 14.7005 2.5C15.0693 2.51696 15.4217 2.6579 15.7005 2.9C15.7968 3.03109 15.8524 3.18757 15.8605 3.35C15.927 3.74073 15.9737 4.13457 16.0005 4.53L16.3005 7.35C16.3018 7.39466 16.3119 7.43862 16.3302 7.47938C16.3484 7.52014 16.3746 7.55689 16.4071 7.58754C16.4396 7.61818 16.4778 7.64212 16.5196 7.65799C16.5613 7.67386 16.6058 7.68134 16.6505 7.68C16.6972 7.68293 16.744 7.67589 16.7878 7.65933C16.8316 7.64278 16.8714 7.6171 16.9045 7.584C16.9376 7.55089 16.9633 7.51112 16.9798 7.46733C16.9964 7.42354 17.0034 7.37673 17.0005 7.33V4.48C17.0324 3.95163 17.0022 3.42133 16.9105 2.9C16.8405 2.59197 16.6885 2.30862 16.4705 2.08C16.1008 1.76434 15.6362 1.58131 15.1505 1.56C14.2527 1.52207 13.3541 1.60958 12.4805 1.82C12.4009 1.82796 12.3278 1.8672 12.2771 1.92909C12.2265 1.99097 12.2025 2.07044 12.2105 2.15C12.2184 2.22957 12.2577 2.30271 12.3196 2.35335C12.3814 2.40398 12.4609 2.42796 12.5405 2.42H12.5705Z" fill="black"/>
<path d="M16.9198 17.55C16.8411 17.5526 16.7662 17.585 16.7105 17.6407C16.6548 17.6964 16.6223 17.7713 16.6198 17.85C16.2598 21.72 17.2598 20.85 12.6798 21.13C12.5888 21.1327 12.5023 21.1707 12.4388 21.236C12.3753 21.3014 12.3398 21.3889 12.3398 21.48C12.3411 21.5247 12.3512 21.5687 12.3695 21.6094C12.3878 21.6502 12.414 21.6869 12.4465 21.7176C12.479 21.7482 12.5172 21.7722 12.5589 21.788C12.6007 21.8039 12.6452 21.8114 12.6898 21.81C13.5998 21.86 15.0798 22.07 16.0198 22.06C16.4247 22.0862 16.8282 21.9923 17.1798 21.7901C17.2945 21.6889 17.3778 21.557 17.4198 21.41C17.4476 21.1842 17.4476 20.9559 17.4198 20.73L17.1698 17.85C17.173 17.7779 17.1491 17.7071 17.1029 17.6517C17.0567 17.5962 16.9914 17.5599 16.9198 17.55Z" fill="black"/>
<path d="M23.9998 11.73C23.8974 11.543 23.7495 11.3848 23.5698 11.27C22.807 10.8037 22.0192 10.3798 21.2098 10C20.2834 9.45736 19.2674 9.08482 18.2098 8.90002C18.0977 8.90882 17.9923 8.95668 17.9119 9.03526C17.8315 9.11385 17.7812 9.21817 17.7698 9.33002C17.745 9.47564 17.745 9.62441 17.7698 9.77003C17.8698 10.15 18.1198 10.86 18.2398 11.42V11.84C18.0044 12.0542 17.719 12.2058 17.4097 12.281C17.1004 12.3561 16.7772 12.3523 16.4698 12.27C15.4433 12.0187 14.4754 11.5704 13.6198 10.95C13.5196 10.8764 13.4124 10.8128 13.2998 10.76C13.2347 10.7227 13.1584 10.7103 13.0848 10.725C13.0112 10.7397 12.9455 10.7806 12.8998 10.84C12.8448 10.8961 12.8141 10.9715 12.8141 11.05C12.8141 11.1286 12.8448 11.2039 12.8998 11.26C13.0031 11.3372 13.1136 11.4042 13.2298 11.46C14.1268 12.1578 15.1434 12.6865 16.2298 13.02C16.7116 13.1741 17.227 13.1892 17.717 13.0636C18.2069 12.938 18.6515 12.6768 18.9998 12.31C19.086 12.1918 19.1465 12.057 19.1775 11.914C19.2085 11.7711 19.2093 11.6233 19.1798 11.48C19.1798 11.07 18.9898 10.48 18.8798 10.04L19.6498 10.42C20.5998 10.88 21.7398 11.52 22.4398 11.95L22.7298 12.15L22.6698 12.28C22.2598 13.22 21.2998 15.07 20.6698 16.19C20.55 15.8486 20.4098 15.5146 20.2498 15.19C20.1964 15.0506 20.1159 14.9231 20.0129 14.815C19.9099 14.7068 19.7865 14.6202 19.6498 14.56C19.3918 14.5148 19.1279 14.5148 18.8698 14.56C18.1364 14.7311 17.3908 14.8447 16.6398 14.9C15.8504 14.7818 15.1131 14.434 14.5198 13.9C13.9344 13.3067 13.4361 12.6333 13.0398 11.9C13.0191 11.8577 12.9897 11.8201 12.9537 11.7898C12.9176 11.7594 12.8757 11.7368 12.8305 11.7235C12.7852 11.7102 12.7377 11.7065 12.691 11.7125C12.6442 11.7185 12.5992 11.7342 12.5589 11.7586C12.5185 11.783 12.4836 11.8154 12.4565 11.854C12.4294 11.8925 12.4105 11.9363 12.4012 11.9825C12.3919 12.0287 12.3923 12.0764 12.4024 12.1224C12.4125 12.1685 12.432 12.2119 12.4598 12.25C12.8619 13.0643 13.3807 13.8156 13.9998 14.48C14.68 15.1375 15.5393 15.5793 16.4698 15.75C16.7155 15.7806 16.9641 15.7806 17.2098 15.75C19.7198 15.49 19.2098 15.24 19.4398 15.8C19.6698 16.36 19.8298 16.99 19.9398 17.34C19.9795 17.4576 20.0297 17.5714 20.0898 17.68C20.1211 17.7406 20.1645 17.7941 20.2173 17.8373C20.27 17.8805 20.3311 17.9125 20.3966 17.9312C20.4622 17.9499 20.5309 17.9551 20.5985 17.9463C20.6661 17.9375 20.7312 17.9149 20.7898 17.88C20.9729 17.7577 21.1239 17.5931 21.2298 17.4C21.5998 16.84 22.3198 15.59 22.9198 14.45C23.291 13.7721 23.6248 13.0744 23.9198 12.36C24.0142 12.1643 24.0423 11.9431 23.9998 11.73Z" fill="black"/>
<path d="M11.3095 5.23004C11.2395 4.50004 11.2495 3.23004 11.0795 2.23004C11.0078 1.77516 10.8518 1.33767 10.6195 0.940039C10.5308 0.818205 10.3981 0.735712 10.2495 0.710039C9.93954 0.650039 9.06954 0.470039 8.74954 0.790039C8.63954 0.910039 8.83954 1.32004 8.97954 1.41004C9.11954 1.50004 9.46954 1.41004 9.68954 1.41004C9.81955 1.40845 9.94862 1.43222 10.0695 1.48004C10.2297 1.90924 10.3176 2.36206 10.3295 2.82004C10.3795 3.72004 10.3295 4.70004 10.3295 5.33004C10.4295 7.45004 10.4295 9.57004 10.4395 11.7C10.4495 13.83 10.4395 15.95 10.4395 18.07V21.07V21.7C10.4474 21.8284 10.4197 21.9564 10.3595 22.07C10.2395 22.2 9.68954 22.23 9.47954 22.38C9.39761 22.4499 9.34347 22.5469 9.32696 22.6533C9.31045 22.7598 9.33265 22.8686 9.38954 22.96C9.56954 23.13 9.84954 23.05 10.0695 22.96C10.3878 22.8939 10.6859 22.7534 10.9395 22.55C11.0708 22.399 11.1605 22.2163 11.1995 22.02C11.259 21.6902 11.2791 21.3546 11.2595 21.02L11.3695 18.09C11.4795 15.95 11.5795 13.81 11.5595 11.67C11.5395 9.53004 11.4595 7.36004 11.3095 5.23004Z" fill="black"/>
<path d="M8 1.0001C7.90792 0.923551 7.79774 0.871905 7.68 0.850098C7.00601 0.865779 6.33559 0.952933 5.68 1.1101C4.13 1.4201 2.16 1.9301 1.27 2.1901L0.800001 2.3401C0.570001 2.4401 0.490001 2.9001 0.490001 2.9201L0.230001 7.8501L0.0600008 15.4501V19.0601C0.0198963 19.3718 -0.000144981 19.6858 7.89462e-07 20.0001C0.00969756 20.2029 0.0643487 20.401 0.160001 20.5801C0.316948 20.7597 0.516333 20.8972 0.740001 20.9801C1.35 21.2601 2.68 21.7601 4.03 22.2401C5.38 22.7201 6.74 23.1601 7.38 23.3301C7.63753 23.4083 7.91247 23.4083 8.17 23.3301C8.32952 23.2177 8.45869 23.0676 8.54595 22.8931C8.63321 22.7186 8.67583 22.5251 8.67 22.3301C8.67 21.4201 8.94 19.0701 8.94 16.4201C8.99846 11.4452 8.78147 6.47096 8.29 1.5201C8.24 1.0901 8.19 1.1401 8 1.0001ZM7.63 21.5401C7.63 21.7601 7.57 21.9801 7.54 22.1601H7.34C5.9 21.7401 2.79 20.6901 1.45 20.1601C1.32279 20.0972 1.19926 20.027 1.08 19.9501L1 19.0001V15.4401V7.8601C1.18 1.9201 0.930001 2.8601 1.62 2.7201C3.47237 2.24088 5.35263 1.87685 7.25 1.6301C7.34261 1.61364 7.43739 1.61364 7.53 1.6301C7.77214 4.38315 7.8756 7.14664 7.84 9.9101C7.89 14.3601 7.85 19.2801 7.63 21.5401Z" fill="black"/>
</g>
<defs>
<clipPath id="clip0_282_5218">
<rect width="24" height="24" fill="white"/>
</clipPath>
</defs>
</svg>
