<svg width="24" height="25" viewBox="0 0 24 25" fill="none" xmlns="http://www.w3.org/2000/svg">
<g clip-path="url(#clip0_282_5450)">
<path d="M24.0004 14.55C23.1273 13.0918 22.1231 11.7161 21.0004 10.44C20.6604 10.0533 20.3104 9.6733 19.9504 9.29996C19.9504 8.91996 19.9504 8.54996 20.0204 8.16996C20.0904 7.37996 20.1904 6.58996 20.2804 5.81996C20.3044 5.38003 20.2977 4.93897 20.2604 4.49996C20.2618 4.12112 20.1726 3.74743 20.0004 3.40996C19.8747 3.194 19.6814 3.02535 19.4504 2.92996C19.2255 2.86123 18.9944 2.81435 18.7604 2.78996C18.3822 2.74506 18.0013 2.72501 17.6204 2.72996C17.2343 2.73524 16.8494 2.7754 16.4704 2.84996C16.2727 2.8859 16.0786 2.93945 15.8904 3.00996C15.7242 3.07774 15.5743 3.17999 15.4504 3.30996C15.2855 3.532 15.2008 3.80351 15.2104 4.07996V4.42996L13.4804 2.49996C13.2652 2.26238 13.0197 2.05395 12.7504 1.87996C12.5031 1.72274 12.2132 1.64589 11.9204 1.65996C11.6747 1.6658 11.4398 1.76192 11.2604 1.92996C11.0441 2.1469 10.8499 2.38473 10.6804 2.63996L8.56044 5.03996C7.71044 6.03996 6.84044 7.03996 5.96044 8.03996C5.08044 9.03996 4.18044 10.04 3.25044 10.95C2.49044 11.74 1.66044 12.4 0.940443 13.19C0.614104 13.5423 0.316487 13.9202 0.0504431 14.32C0.0073109 14.3869 -0.00844004 14.4678 0.00645265 14.546C0.0213453 14.6241 0.0657406 14.6936 0.130443 14.74C0.198523 14.7821 0.280267 14.7963 0.358557 14.7795C0.436846 14.7627 0.505609 14.7163 0.550443 14.65C0.898562 14.1746 1.29391 13.7357 1.73044 13.34C2.40044 12.71 3.12044 12.16 3.81044 11.51C4.81044 10.59 5.73044 9.65996 6.67044 8.69996C7.61044 7.73996 8.51044 6.76996 9.40044 5.76996C9.40044 5.76996 11.9904 2.81996 11.9704 2.81996C11.9504 2.81996 14.8704 5.72996 14.8704 5.72996C16.3204 7.14996 17.8104 8.49996 19.2304 9.93996L19.2904 10.01C19.6304 10.34 19.9604 10.67 20.2904 11.01C21.437 12.2132 22.4713 13.5186 23.3804 14.91C23.4041 14.948 23.435 14.9811 23.4714 15.0072C23.5078 15.0334 23.549 15.0521 23.5927 15.0623C23.6363 15.0725 23.6815 15.074 23.7258 15.0668C23.77 15.0595 23.8124 15.0436 23.8504 15.02C23.8885 14.9963 23.9216 14.9654 23.9477 14.929C23.9739 14.8926 23.9926 14.8514 24.0028 14.8077C24.013 14.7641 24.0145 14.7189 24.0072 14.6746C24 14.6304 23.9841 14.588 23.9604 14.55H24.0004ZM16.0004 5.20996V4.29996C16.0004 3.97996 16.0004 3.94996 16.1004 3.87996L16.6704 3.76996C16.9302 3.75497 17.1907 3.75497 17.4504 3.76996C17.8533 3.79407 18.2541 3.84418 18.6504 3.91996L19.0004 3.99996C19.0947 4.17187 19.1462 4.36396 19.1504 4.55996C19.1755 4.95624 19.1755 5.35369 19.1504 5.74996V8.13996V8.48996C18.0004 7.38996 17.0004 6.30996 15.9104 5.20996H16.0004Z" fill="black"/>
<path d="M11.4404 11.0899C11.7026 11.1612 11.9766 11.1783 12.2456 11.1402C12.5146 11.1021 12.773 11.0095 13.0051 10.8682C13.2372 10.7269 13.438 10.5398 13.5954 10.3183C13.7528 10.0968 13.8634 9.84558 13.9204 9.57993C14.3604 7.95993 13.0004 6.57993 10.9204 7.37993C10.5034 7.55679 10.1533 7.86141 9.92042 8.24993C9.76339 8.53258 9.68774 8.8532 9.70187 9.17623C9.71599 9.49926 9.81933 9.81206 10.0004 10.0799C10.3368 10.5853 10.8507 10.9458 11.4404 11.0899ZM10.8004 8.67993C10.9452 8.37219 11.2031 8.13218 11.5204 8.00993C12.5204 7.55993 13.4004 8.25993 13.0104 9.28993C12.9742 9.42168 12.9113 9.54459 12.8256 9.65109C12.74 9.75759 12.6335 9.84541 12.5126 9.90913C12.3917 9.97285 12.2591 10.0111 12.1228 10.0216C11.9866 10.032 11.8496 10.0145 11.7204 9.96993C11.4261 9.88239 11.1715 9.69497 11.0004 9.43993C10.901 9.3435 10.8298 9.22173 10.7946 9.08779C10.7593 8.95384 10.7613 8.81281 10.8004 8.67993Z" fill="black"/>
<path d="M20.6307 14.6399V12.6399C20.6307 12.5953 20.6219 12.5511 20.6048 12.5098C20.5877 12.4686 20.5627 12.4311 20.5311 12.3995C20.4995 12.3679 20.462 12.3429 20.4208 12.3258C20.3795 12.3087 20.3353 12.2999 20.2907 12.2999C20.246 12.2999 20.2018 12.3087 20.1606 12.3258C20.1193 12.3429 20.0818 12.3679 20.0502 12.3995C20.0187 12.4311 19.9936 12.4686 19.9765 12.5098C19.9595 12.5511 19.9507 12.5953 19.9507 12.6399V14.6399C19.8807 16.2099 19.7307 17.7799 19.7007 19.3399C19.7396 19.9693 19.7396 20.6005 19.7007 21.2299C19.6765 21.5703 19.555 21.8966 19.3507 22.1699C19.2607 22.2699 19.0707 22.1699 18.8907 22.1699C18.5507 22.1699 18.2007 22.0999 18.0007 22.0899C17.3007 22.0899 13.5007 21.8199 12.9307 21.8199H11.3707H11.2907H9.99066H9.29066C8.63066 21.8199 7.96066 21.8899 7.29066 21.9699C6.80066 22.0299 6.21066 22.1699 5.65066 22.1999C5.35775 22.2252 5.06303 22.1806 4.79066 22.0699C4.64066 21.9999 4.59066 21.7999 4.54066 21.5999C4.45852 21.1375 4.41172 20.6695 4.40066 20.1999C4.31066 19.1999 4.25066 18.2699 4.21066 17.3099C4.21066 15.8499 4.15066 14.3999 4.14066 12.9399C4.142 12.9005 4.13556 12.8612 4.1217 12.8243C4.10784 12.7874 4.08685 12.7536 4.05992 12.7248C4.03298 12.696 4.00064 12.6728 3.96474 12.6565C3.92883 12.6403 3.89007 12.6312 3.85066 12.6299C3.81043 12.6286 3.77035 12.6354 3.73279 12.6498C3.69523 12.6643 3.66096 12.6862 3.63204 12.7142C3.60311 12.7422 3.58012 12.7757 3.56442 12.8128C3.54872 12.8498 3.54064 12.8897 3.54066 12.9299C3.49066 14.3999 3.44066 15.8599 3.43066 17.3199C3.43066 18.3199 3.43066 19.3199 3.50066 20.2699C3.48654 20.8811 3.54359 21.4919 3.67066 22.0899C3.76554 22.459 4.00288 22.7755 4.33066 22.9699C4.64308 23.1246 4.98286 23.2163 5.33066 23.2399C6.02064 23.2355 6.70929 23.1787 7.39066 23.0699C8.11066 22.9999 8.84066 22.9699 9.58066 22.9499H12.9107L17.9107 23.1299C18.3664 23.1715 18.8249 23.1715 19.2807 23.1299C19.5903 23.0995 19.8783 22.9573 20.0907 22.7299C20.3416 22.4063 20.5068 22.0245 20.5707 21.6199C20.6448 20.8317 20.6448 20.0382 20.5707 19.2499C20.5307 17.7699 20.6107 16.1999 20.6307 14.6399Z" fill="black"/>
<path d="M9.75039 21.3699C9.75039 20.8499 9.61039 20.2999 9.65039 19.7499C9.71194 18.8785 9.99038 18.0363 10.4604 17.2999C10.6254 17.0442 10.8542 16.8359 11.1242 16.6956C11.3943 16.5553 11.6963 16.4879 12.0004 16.4999C12.3175 16.493 12.6322 16.5557 12.9225 16.6835C13.2127 16.8114 13.4715 17.0013 13.6804 17.2399C14.1297 17.7556 14.4059 18.3991 14.4704 19.0799C14.534 19.8382 14.5573 20.5992 14.5404 21.3599C14.5404 21.6499 15.1604 21.8099 15.2904 21.3599C15.4101 20.3468 15.4101 19.3231 15.2904 18.3099C15.1795 17.6491 14.9044 17.0268 14.4904 16.4999C14.1871 16.1329 13.8069 15.8369 13.3766 15.633C12.9464 15.4291 12.4765 15.3222 12.0004 15.3199C11.5054 15.3196 11.019 15.4486 10.5892 15.6941C10.1595 15.9397 9.80135 16.2933 9.55039 16.7199C9.06741 17.6456 8.82011 18.676 8.83039 19.7199C8.83635 20.292 8.92046 20.8606 9.08039 21.4099C9.20039 21.6999 9.72039 21.6999 9.75039 21.3699Z" fill="black"/>
</g>
<defs>
<clipPath id="clip0_282_5450">
<rect width="24" height="24" fill="white" transform="translate(0 0.5)"/>
</clipPath>
</defs>
</svg>
