<svg width="24" height="24" viewBox="0 0 24 24" fill="none" xmlns="http://www.w3.org/2000/svg">
<g clip-path="url(#clip0_282_5459)">
<path fill-rule="evenodd" clip-rule="evenodd" d="M0.309927 5.83997C0.443403 5.95699 0.605623 6.03637 0.779927 6.06997C1.51243 6.20426 2.25523 6.27453 2.99993 6.27997C3.74838 6.31137 4.49815 6.27455 5.23993 6.16997C5.40773 6.15083 5.56871 6.0926 5.70993 5.99997C5.85212 5.89758 5.95457 5.74921 5.99993 5.57997C6.11673 5.10589 6.16721 4.61791 6.14993 4.12997C6.14739 3.10456 6.06043 2.0811 5.88993 1.06997C5.84452 0.884428 5.76665 0.708383 5.65993 0.549965C5.39359 0.346111 5.06518 0.240174 4.72993 0.249965C3.8819 0.241045 3.03401 0.277764 2.18993 0.359965C2.14264 0.359781 2.09583 0.369463 2.05249 0.388394C2.00916 0.407325 1.97025 0.435089 1.93825 0.46991C1.90625 0.504731 1.88187 0.545844 1.86666 0.590623C1.85145 0.635401 1.84575 0.682859 1.84993 0.729965C1.8551 0.823689 1.89668 0.911685 1.96579 0.975197C2.03491 1.03871 2.1261 1.07272 2.21993 1.06997C3.09427 1.04842 3.96912 1.07847 4.83993 1.15996C4.83993 1.28996 4.93993 1.49997 4.94993 1.70997C5.02179 2.80659 4.99836 3.90739 4.87993 4.99997C4.74198 5.0414 4.60174 5.07479 4.45993 5.09997C3.37121 5.17481 2.27864 5.17481 1.18993 5.09997H1.06993C1.03754 5.03332 1.01401 4.96272 0.999927 4.88997C0.89475 4.20088 0.82798 3.50647 0.799927 2.80996C0.76936 2.22703 0.76936 1.6429 0.799927 1.05996C0.807015 1.01977 0.805827 0.978553 0.796436 0.938834C0.787044 0.899115 0.769647 0.86173 0.745309 0.828967C0.72097 0.796204 0.690202 0.768751 0.654888 0.748289C0.619573 0.727827 0.580455 0.714787 0.539927 0.709965C0.496872 0.70287 0.452804 0.704944 0.410605 0.716052C0.368407 0.72716 0.329029 0.747052 0.295048 0.774426C0.261066 0.8018 0.233247 0.836039 0.213409 0.874905C0.193571 0.913771 0.182161 0.956386 0.179927 0.999965C0.0429276 2.0542 -0.0172311 3.117 -7.33624e-05 4.17996C-0.00204232 4.6294 0.0381335 5.07803 0.119927 5.51997C0.156143 5.64056 0.221381 5.75044 0.309927 5.83997Z" fill="black"/>
<path fill-rule="evenodd" clip-rule="evenodd" d="M0.790217 14.63C1.51943 14.7637 2.25887 14.834 3.00022 14.84C3.74865 14.8666 4.49799 14.8298 5.24022 14.73C5.41503 14.7004 5.57988 14.6283 5.72022 14.52C5.85152 14.4262 5.94958 14.2932 6.00022 14.14C6.12209 13.6668 6.17264 13.1781 6.15022 12.69C6.14819 11.6645 6.06122 10.641 5.89022 9.62998C5.86688 9.44454 5.80193 9.26678 5.70022 9.10998C5.43631 8.90152 5.10619 8.79503 4.77022 8.80998C4.06022 8.80998 2.91022 8.80998 2.23022 8.90998C2.13474 8.90998 2.04317 8.94791 1.97566 9.01542C1.90815 9.08293 1.87022 9.1745 1.87022 9.26998C1.87022 9.36546 1.90815 9.45702 1.97566 9.52454C2.04317 9.59205 2.13474 9.62998 2.23022 9.62998C3.10458 9.60344 3.97974 9.6335 4.85022 9.71998C4.85022 9.83998 4.95022 10.06 4.96022 10.27C5.0292 11.35 5.00578 12.4339 4.89022 13.51C4.75258 13.5526 4.61227 13.586 4.47022 13.61C3.3815 13.6848 2.28893 13.6848 1.20022 13.61H1.09022C1.05079 13.5625 1.02029 13.5083 1.00022 13.45C0.891692 12.7611 0.821583 12.0667 0.790217 11.37C0.753723 10.7872 0.753723 10.2027 0.790217 9.61998C0.799114 9.53694 0.7762 9.45363 0.726095 9.38682C0.67599 9.32001 0.60242 9.27469 0.520217 9.25998C0.437184 9.25108 0.353865 9.27399 0.287058 9.3241C0.220251 9.3742 0.174925 9.44777 0.160217 9.52998C0.0284421 10.5946 -0.0250348 11.6675 0.000216914 12.74C-0.00490213 13.19 0.0386848 13.6393 0.130217 14.08C0.15925 14.2013 0.221591 14.3122 0.310217 14.4C0.446501 14.5186 0.612377 14.5981 0.790217 14.63Z" fill="black"/>
<path fill-rule="evenodd" clip-rule="evenodd" d="M5.87031 18C5.60334 17.7901 5.26955 17.6835 4.93031 17.7C4.22031 17.7 3.08031 17.75 2.40031 17.8C2.30394 17.8052 2.2134 17.8478 2.14801 17.9188C2.08262 17.9898 2.04756 18.0835 2.05031 18.18C2.05796 18.2746 2.10167 18.3627 2.17239 18.4259C2.24312 18.4892 2.33545 18.5229 2.43031 18.52C3.30468 18.4885 4.18018 18.5185 5.05031 18.61C5.05031 18.73 5.14031 18.95 5.16031 19.16C5.2293 20.24 5.20588 21.324 5.09031 22.4C4.95016 22.4436 4.80618 22.4738 4.66031 22.49C3.57492 22.5646 2.4857 22.5646 1.40031 22.49H1.28031C1.25434 22.4356 1.23423 22.3787 1.22031 22.32C1.10511 21.6452 1.03164 20.9639 1.00031 20.28C0.964611 19.6972 0.964611 19.1128 1.00031 18.53C1.01225 18.4478 0.991033 18.3642 0.941335 18.2976C0.891638 18.2311 0.81753 18.187 0.735313 18.175C0.653095 18.1631 0.569505 18.1843 0.502929 18.234C0.436354 18.2837 0.392247 18.3578 0.380313 18.44C0.23686 19.5037 0.176677 20.577 0.200313 21.65C0.194309 22.1034 0.237902 22.5561 0.330313 23C0.365548 23.1218 0.426982 23.2345 0.510312 23.33C0.649072 23.4448 0.813897 23.5238 0.990313 23.56C1.71953 23.6937 2.45896 23.764 3.20031 23.77C3.94542 23.7964 4.69142 23.7596 5.43031 23.66C5.60863 23.6321 5.77709 23.5599 5.92031 23.45C6.03414 23.3463 6.1201 23.2156 6.17031 23.07C6.28711 22.596 6.33759 22.108 6.32031 21.62C6.31828 20.5946 6.23132 19.5711 6.06031 18.56C6.03187 18.3633 5.96747 18.1735 5.87031 18Z" fill="black"/>
<path fill-rule="evenodd" clip-rule="evenodd" d="M7.70063 3.75002H7.81063C8.17063 3.75002 9.03063 3.65002 9.31063 3.64002H13.0206H15.4406C16.6406 3.64002 17.8306 3.56002 19.0306 3.56002H23.5006C23.5522 3.56872 23.6051 3.56605 23.6556 3.55222C23.7061 3.53838 23.7529 3.5137 23.7929 3.47991C23.8328 3.44612 23.865 3.40402 23.887 3.35654C23.909 3.30907 23.9204 3.25736 23.9204 3.20502C23.9204 3.15269 23.909 3.10098 23.887 3.05351C23.865 3.00603 23.8328 2.96393 23.7929 2.93014C23.7529 2.89634 23.7061 2.87167 23.6556 2.85783C23.6051 2.844 23.5522 2.84133 23.5006 2.85002L19.0506 2.48002C18.2506 2.48002 17.4406 2.40002 16.6306 2.40002C15.4306 2.40002 14.2306 2.46002 13.0206 2.47002C12.5206 2.47002 12.0206 2.53002 11.5006 2.58002C10.7506 2.65002 10.0106 2.73002 9.26063 2.82002C8.98063 2.82002 8.10063 3.00002 7.74063 3.06002H7.66063C7.62123 3.05028 7.58004 3.05028 7.54063 3.06002C7.43063 3.06002 7.33063 3.58002 7.66063 3.66002L7.70063 3.75002Z" fill="black"/>
<path fill-rule="evenodd" clip-rule="evenodd" d="M19.1904 10.81C18.3804 10.81 17.5804 10.73 16.7704 10.73C15.5604 10.73 14.3604 10.73 13.1604 10.79C12.6604 10.79 12.1604 10.85 11.6404 10.9C10.8904 10.97 10.1404 11.06 9.4004 11.14C9.1204 11.14 8.2404 11.32 7.8704 11.38H7.7904H7.6704C7.5704 11.38 7.4604 11.9 7.8004 11.98H8.0004C8.3604 11.98 9.2204 11.88 9.4904 11.88H13.2104H15.6304C16.8204 11.88 18.0204 11.8 19.2204 11.8H23.6904C23.7377 11.8 23.7845 11.7907 23.8282 11.7726C23.8718 11.7545 23.9115 11.728 23.945 11.6945C23.9784 11.6611 24.0049 11.6214 24.023 11.5777C24.0411 11.5341 24.0504 11.4873 24.0504 11.44C24.0504 11.3927 24.0411 11.3459 24.023 11.3022C24.0049 11.2585 23.9784 11.2189 23.945 11.1854C23.9115 11.152 23.8718 11.1255 23.8282 11.1074C23.7845 11.0893 23.7377 11.08 23.6904 11.08L19.1904 10.81Z" fill="black"/>
<path fill-rule="evenodd" clip-rule="evenodd" d="M23.58 20.27L19.12 19.91C18.32 19.86 17.51 19.83 16.7 19.83C15.5 19.83 14.3 19.88 13.1 19.89C12.59 19.89 12.1 19.95 11.58 20C10.82 20.07 10.08 20.16 9.32997 20.24C9.04997 20.24 8.16997 20.42 7.80997 20.48H7.72997H7.60997C7.49997 20.48 7.39997 21 7.72997 21.08H7.87997C8.23997 21.08 9.09997 20.98 9.37997 20.98H13.1H15.51C16.71 20.98 17.9 20.9 19.1 20.9H23.58C23.6639 20.8858 23.7401 20.8424 23.7951 20.7774C23.85 20.7124 23.8802 20.6301 23.8802 20.545C23.8802 20.4598 23.85 20.3775 23.7951 20.3125C23.7401 20.2475 23.6639 20.2041 23.58 20.19V20.27Z" fill="black"/>
</g>
<defs>
<clipPath id="clip0_282_5459">
<rect width="24" height="24" fill="white"/>
</clipPath>
</defs>
</svg>
