<svg width="24" height="24" viewBox="0 0 24 24" fill="none" xmlns="http://www.w3.org/2000/svg">
<g clip-path="url(#clip0_2863_19856)">
<path fill-rule="evenodd" clip-rule="evenodd" d="M19.1898 1.62002C18.4007 1.4772 17.5909 1.49404 16.8084 1.66952C16.0259 1.845 15.2865 2.17558 14.6339 2.64171C13.9813 3.10784 13.4288 3.70006 13.009 4.38337C12.5892 5.06668 12.3107 5.82722 12.1898 6.62002C12.1827 6.65948 12.1835 6.69997 12.1923 6.73909C12.2011 6.77822 12.2176 6.81519 12.2409 6.84782C12.2642 6.88045 12.2938 6.90807 12.328 6.92906C12.3622 6.95005 12.4002 6.96398 12.4398 6.97002C12.4787 6.97713 12.5186 6.97621 12.5571 6.96733C12.5956 6.95846 12.6319 6.9418 12.6638 6.91839C12.6956 6.89498 12.7223 6.8653 12.7423 6.83119C12.7622 6.79708 12.775 6.75925 12.7798 6.72002C12.8992 6.02467 13.1554 5.35992 13.5336 4.76434C13.9118 4.16876 14.4045 3.65419 14.9831 3.25048C15.5617 2.84676 16.2147 2.56194 16.9042 2.41251C17.5937 2.26309 18.306 2.25205 18.9998 2.38002C21.3098 2.85002 23.2398 5.00002 22.9998 9.00002C22.9998 10.24 21.9998 11.84 20.6298 13.5C18.1485 16.4028 15.3663 19.0342 12.3298 21.35C12.0898 21.53 11.8498 21.77 11.6798 21.9C8.73669 19.7821 6.08699 17.2837 3.79983 14.47C2.17983 12.38 0.919828 10.11 0.999828 8.00002C0.987154 6.62357 1.4235 5.28051 2.24275 4.17434C3.062 3.06818 4.21949 2.25921 5.53983 1.87002C7.89983 1.27002 10.4698 2.43002 11.5398 6.12002C11.5637 6.20754 11.6214 6.282 11.7001 6.327C11.7789 6.37201 11.8723 6.38389 11.9598 6.36002C12.0473 6.33615 12.1218 6.27849 12.1668 6.19973C12.2118 6.12096 12.2237 6.02754 12.1998 5.94002C10.9998 1.70002 8.05983 0.44002 5.34983 1.08002C3.82458 1.49069 2.4758 2.38956 1.50967 3.63921C0.543539 4.88886 0.0132344 6.42051 -0.000172543 8.00002C-0.0701725 10.32 1.19983 12.85 2.99983 15.15C5.41807 18.1953 8.27209 20.8673 11.4698 23.08C11.6502 23.1215 11.8397 23.0929 11.9998 23C12.3179 22.8233 12.6221 22.6227 12.9098 22.4C15.5704 20.3649 18.0406 18.0922 20.2898 15.61C22.3398 13.25 23.9398 10.79 23.9998 9.00002C24.1298 4.42002 21.7998 2.11002 19.1898 1.62002Z" fill="black"/>
<path d="M17.08 4.00002C17.5282 3.95326 17.9812 4.00808 18.4054 4.16043C18.8295 4.31278 19.2139 4.55873 19.53 4.88002C20.2177 5.48455 20.7261 6.2663 21 7.14002C21.1429 7.60935 21.1899 8.10261 21.1384 8.59049C21.0869 9.07837 20.9378 9.55091 20.7 9.98002C20.344 10.7303 19.8524 11.4084 19.25 11.98C19.05 12.04 18.62 11.98 18.66 11.76C18.8182 10.9429 19.098 10.1542 19.49 9.42002C19.8145 8.78109 19.9889 8.07654 20 7.36002C19.8857 6.59889 19.56 5.88513 19.06 5.30002C18.8266 4.9901 18.5245 4.73851 18.1775 4.565C17.8305 4.3915 17.4479 4.30079 17.06 4.30002C16.69 4.21002 16.81 4.00002 17.08 4.00002Z" fill="black"/>
</g>
<defs>
<clipPath id="clip0_2863_19856">
<rect width="24" height="24" fill="white"/>
</clipPath>
</defs>
</svg>
