<svg width="21" height="21" viewBox="0 0 21 21" fill="none" xmlns="http://www.w3.org/2000/svg">
<path fill-rule="evenodd" clip-rule="evenodd" d="M10.5 2C8.0642 2 6.15392 3.8251 6.15392 6C6.15392 8.1749 8.0642 10 10.5 10C12.9358 10 14.8461 8.1749 14.8461 6C14.8461 3.8251 12.9358 2 10.5 2ZM5.15392 6C5.15392 3.20433 7.58298 1 10.5 1C13.417 1 15.8461 3.20433 15.8461 6C15.8461 8.79567 13.417 11 10.5 11C7.58298 11 5.15392 8.79567 5.15392 6ZM10.5 14C7.23692 14 4.34329 15.4626 2.50518 17.7215C2.28839 17.988 2.15914 18.1486 2.07834 18.2826C2.00864 18.3981 1.99903 18.4558 2.00007 18.5084C2.00074 18.5426 2.01636 18.6158 2.06396 18.7046C2.11091 18.7922 2.1671 18.8539 2.20653 18.8826C2.25527 18.9181 2.33343 18.9548 2.52778 18.9764C2.73312 18.9993 3.00473 19 3.42175 19H17.5783C17.9953 19 18.2669 18.9993 18.4722 18.9764C18.6666 18.9548 18.7447 18.9181 18.7935 18.8826C18.8329 18.8539 18.8891 18.7922 18.936 18.7046C18.9836 18.6158 18.9993 18.5426 18.9999 18.5084C19.001 18.4558 18.9914 18.3981 18.9217 18.2826C18.8409 18.1486 18.7116 17.988 18.4948 17.7215C16.6567 15.4626 13.7631 14 10.5 14ZM1.72953 17.0904C3.75709 14.5986 6.93533 13 10.5 13C14.0647 13 17.2429 14.5986 19.2705 17.0904L19.2893 17.1135C19.4811 17.3492 19.6564 17.5645 19.7779 17.766C19.9145 17.9925 20.0055 18.2353 19.9997 18.5281C19.9952 18.7609 19.9179 18.9895 19.8174 19.177C19.7163 19.3657 19.5691 19.5547 19.3824 19.6908C19.1384 19.8686 18.8674 19.9386 18.5829 19.9703C18.3156 20 17.9878 20 17.6051 20H3.39494C3.01217 20 2.68437 20 2.4171 19.9703C2.13262 19.9386 1.86159 19.8686 1.61761 19.6908C1.43088 19.5547 1.28374 19.3657 1.1826 19.177C1.0821 18.9895 1.00484 18.7609 1.00026 18.5281C0.994491 18.2353 1.08548 17.9925 1.22208 17.766C1.34362 17.5645 1.51886 17.3492 1.71074 17.1135L1.72953 17.0904Z" fill="black"/>
</svg>
