<svg width="21" height="21" viewBox="0 0 21 21" fill="none" xmlns="http://www.w3.org/2000/svg">
<path fill-rule="evenodd" clip-rule="evenodd" d="M4.148 2.01473C3.97394 2.00039 3.74862 2 3.40777 2H1.5C1.22386 2 1 1.77614 1 1.5C1 1.22386 1.22386 1 1.5 1L3.42761 1C3.74333 0.999993 4.01009 0.999986 4.23006 1.0181C4.46172 1.03717 4.68076 1.07858 4.89209 1.18321C5.04622 1.25979 5.18855 1.3594 5.31174 1.47893L5.31253 1.4797C5.48451 1.64732 5.58906 1.84137 5.6701 2.05085C5.74568 2.24621 5.8121 2.48688 5.88803 2.76201L5.89238 2.77776L6.10591 3.54752C6.22993 3.99518 6.27621 4.15131 6.33951 4.27591C6.45726 4.50711 6.63739 4.71482 6.86937 4.87842C7.10129 5.04198 7.37683 5.15551 7.67365 5.20625C7.83853 5.23364 8.03273 5.23529 8.53973 5.23529C8.81587 5.23529 9.03973 5.45915 9.03973 5.73529C9.03973 6.01144 8.81587 6.23529 8.53973 6.23529C8.52314 6.23529 8.50677 6.2353 8.4906 6.2353C8.0484 6.23535 7.7656 6.23539 7.5083 6.19248L7.50652 6.19218C7.06751 6.11735 6.65121 5.94822 6.29305 5.69564C5.93472 5.44294 5.64355 5.11286 5.44842 4.72974C5.33265 4.50202 5.25996 4.23975 5.15311 3.85387C5.14955 3.841 5.14595 3.82798 5.1423 3.81483L4.92877 3.04507C4.84585 2.74467 4.79238 2.55363 4.73746 2.41165C4.68669 2.28041 4.64819 2.22871 4.61493 2.19619C4.56832 2.15104 4.51228 2.11117 4.44811 2.07925C4.39427 2.05264 4.31471 2.02845 4.148 2.01473Z" fill="black"/>
<path fill-rule="evenodd" clip-rule="evenodd" d="M6.56997 12.5925C6.63759 12.5885 6.71588 12.5882 6.91004 12.5882H13.2329C13.509 12.5882 13.7329 12.3644 13.7329 12.0882C13.7329 11.8121 13.509 11.5882 13.2329 11.5882L6.89231 11.5882C6.72027 11.5882 6.6099 11.5882 6.50768 11.5945L6.50479 11.5946C5.9901 11.629 5.49219 11.7915 5.06647 12.0684C4.64046 12.3456 4.30079 12.7284 4.09208 13.1796L4.54586 13.3895L4.09261 13.1784C4.05427 13.2608 4.02035 13.3518 3.97603 13.4708C3.96925 13.489 3.96223 13.5078 3.95491 13.5274C3.91354 13.6319 3.87723 13.7381 3.84612 13.8457C3.84387 13.8535 3.84181 13.8614 3.83994 13.8693C3.78785 14.089 3.78736 14.3168 3.83852 14.5368C3.88965 14.7566 3.99049 14.9609 4.13125 15.1371C4.27186 15.3132 4.44893 15.4572 4.64879 15.5626C4.84858 15.6679 5.06822 15.7331 5.29361 15.7558L5.29558 15.756C5.38594 15.7648 5.49441 15.7647 5.63779 15.7647C5.64678 15.7647 5.65591 15.7647 5.66518 15.7647H17.926C18.2022 15.7647 18.426 15.5408 18.426 15.2647C18.426 14.9886 18.2022 14.7647 17.926 14.7647H5.66518C5.48356 14.7647 5.42813 14.7641 5.39272 14.7608C5.29269 14.7506 5.19813 14.7218 5.11514 14.678C5.03192 14.6341 4.96371 14.5771 4.91265 14.5131C4.86173 14.4494 4.82874 14.38 4.81253 14.3103C4.79715 14.2442 4.79652 14.1764 4.81067 14.1102C4.83237 14.0366 4.85753 13.9638 4.88611 13.8919L4.88979 13.8824C4.89811 13.8602 4.9057 13.8398 4.91266 13.8212C4.96083 13.6923 4.97868 13.6445 4.99912 13.6006L4.99965 13.5995C5.12497 13.3286 5.33444 13.0871 5.61176 12.9067C5.88898 12.7263 6.22055 12.6161 6.56997 12.5925Z" fill="black"/>
<path fill-rule="evenodd" clip-rule="evenodd" d="M19.7848 5.95397C19.4885 5.52296 19.0066 5.3704 18.4993 5.30245C17.9976 5.23526 17.3323 5.23528 16.5145 5.23529L8.63976 5.23529C7.93966 5.23529 7.37736 5.23528 6.93232 5.27883C6.47726 5.32337 6.07837 5.41814 5.73884 5.65401C5.48468 5.83066 5.27108 6.05688 5.11532 6.32009C4.90106 6.68133 4.86108 7.07773 4.88809 7.50602C4.91414 7.91886 5.0084 8.42798 5.12313 9.04761L5.13159 9.09348C5.24465 9.70825 5.33649 10.2076 5.45409 10.6068C5.57626 11.0214 5.73755 11.3707 6.01414 11.6689C6.226 11.8979 6.47853 12.0905 6.75831 12.239C7.1168 12.4287 7.50754 12.5108 7.96605 12.55C8.41288 12.5882 8.96569 12.5882 9.65974 12.5882H13.8767C14.5618 12.5882 15.1105 12.5882 15.5575 12.5465C16.0191 12.5034 16.4131 12.413 16.7801 12.2085C17.1498 12.0027 17.4223 11.7192 17.6781 11.3565C17.9224 11.0099 18.1702 10.5627 18.4746 10.0132L19.0384 8.99453C19.398 8.34507 19.6975 7.80426 19.8578 7.36257C20.0256 6.90035 20.0933 6.40531 19.7855 5.95503L19.7848 5.95397ZM16.4759 6.23529C17.3416 6.23529 17.9392 6.23638 18.3665 6.29361C18.7951 6.35101 18.9114 6.44907 18.9603 6.51991C18.9963 6.57272 19.0444 6.67276 18.9178 7.02137C18.7872 7.38115 18.5265 7.85455 18.1374 8.55735L17.6131 9.50486C17.2924 10.0837 17.0702 10.4832 16.8608 10.7802C16.6593 11.066 16.4906 11.2251 16.2936 11.3348C16.0928 11.4468 15.8502 11.5148 15.4645 11.5508C15.0694 11.5877 14.5674 11.5882 13.8524 11.5882H9.68251C8.96054 11.5882 8.45051 11.5878 8.05129 11.5537C7.65907 11.5201 7.41803 11.4567 7.2263 11.3553C7.04234 11.2575 6.88092 11.1333 6.74795 10.9896C6.61401 10.8452 6.51082 10.6551 6.41332 10.3241C6.31259 9.98225 6.22978 9.53614 6.11117 8.89121C5.98981 8.23572 5.90782 7.78729 5.88611 7.44307C5.86503 7.10887 5.90714 6.94527 5.97548 6.83012C6.05495 6.69578 6.16807 6.57351 6.30955 6.47517C6.44403 6.38177 6.64361 6.31186 7.02971 6.27408C7.42027 6.23586 7.93347 6.23529 8.66644 6.23529H16.4759Z" fill="black"/>
<path d="M16.7528 19.7324C17.4007 19.7324 17.926 19.2063 17.926 18.5574C17.926 17.9084 17.4007 17.3824 16.7528 17.3824C16.1048 17.3824 15.5795 17.9084 15.5795 18.5574C15.5795 19.2063 16.1048 19.7324 16.7528 19.7324Z" fill="black"/>
<path d="M7.36645 19.7324C8.01444 19.7324 8.53974 19.2063 8.53974 18.5574C8.53974 17.9084 8.01444 17.3824 7.36645 17.3824C6.71846 17.3824 6.19316 17.9084 6.19316 18.5574C6.19316 19.2063 6.71846 19.7324 7.36645 19.7324Z" fill="black"/>
</svg>
