<svg width="21" height="21" viewBox="0 0 21 21" fill="none" xmlns="http://www.w3.org/2000/svg">
<path fill-rule="evenodd" clip-rule="evenodd" d="M3.08073 1H6.91927C7.18285 0.999991 7.41023 0.999984 7.59752 1.01529C7.79519 1.03144 7.9918 1.06709 8.18099 1.16349C8.46323 1.3073 8.6927 1.53677 8.83651 1.81902C8.93291 2.0082 8.96857 2.20481 8.98472 2.40249C9.00002 2.58978 9.00001 2.81716 9 3.08074V6.91926C9.00001 7.18284 9.00002 7.41023 8.98472 7.59752C8.96857 7.79519 8.93291 7.9918 8.83651 8.18099C8.6927 8.46323 8.46323 8.6927 8.18099 8.83651C7.9918 8.93291 7.79519 8.96857 7.59752 8.98472C7.41023 9.00002 7.18284 9.00001 6.91926 9H3.08074C2.81716 9.00001 2.58978 9.00002 2.40249 8.98472C2.20481 8.96857 2.0082 8.93291 1.81902 8.83651C1.53677 8.6927 1.3073 8.46323 1.16349 8.18099C1.06709 7.9918 1.03144 7.79519 1.01529 7.59752C0.999984 7.41023 0.999991 7.18285 1 6.91927V3.08073C0.999991 2.81715 0.999984 2.58977 1.01529 2.40249C1.03144 2.20481 1.06709 2.0082 1.16349 1.81902C1.3073 1.53677 1.53677 1.3073 1.81902 1.16349C2.0082 1.06709 2.20481 1.03144 2.40249 1.01529C2.58977 0.999984 2.81715 0.999991 3.08073 1ZM2.48392 2.01196C2.34809 2.02306 2.29773 2.0419 2.27301 2.0545C2.17892 2.10243 2.10243 2.17892 2.0545 2.27301C2.0419 2.29773 2.02306 2.34809 2.01196 2.48392C2.00039 2.62559 2 2.81172 2 3.1V6.9C2 7.18828 2.00039 7.37441 2.01196 7.51608C2.02306 7.65191 2.0419 7.70227 2.0545 7.727C2.10243 7.82108 2.17892 7.89757 2.27301 7.9455C2.29773 7.9581 2.34809 7.97694 2.48392 7.98804C2.62559 7.99961 2.81172 8 3.1 8H6.9C7.18828 8 7.37441 7.99961 7.51608 7.98804C7.65191 7.97694 7.70227 7.9581 7.727 7.9455C7.82108 7.89757 7.89757 7.82108 7.9455 7.727C7.9581 7.70227 7.97694 7.65191 7.98804 7.51608C7.99961 7.37441 8 7.18828 8 6.9V3.1C8 2.81172 7.99961 2.62559 7.98804 2.48392C7.97694 2.34809 7.9581 2.29773 7.9455 2.27301C7.89757 2.17892 7.82108 2.10243 7.727 2.0545C7.70227 2.0419 7.65191 2.02306 7.51608 2.01196C7.37441 2.00039 7.18828 2 6.9 2H3.1C2.81172 2 2.62559 2.00039 2.48392 2.01196ZM14.0807 1H17.9193C18.1828 0.999991 18.4102 0.999984 18.5975 1.01529C18.7952 1.03144 18.9918 1.06709 19.181 1.16349C19.4632 1.3073 19.6927 1.53677 19.8365 1.81902C19.9329 2.0082 19.9686 2.20481 19.9847 2.40249C20 2.58977 20 2.81715 20 3.08072V6.91928C20 7.18285 20 7.41023 19.9847 7.59752C19.9686 7.79519 19.9329 7.9918 19.8365 8.18099C19.6927 8.46323 19.4632 8.6927 19.181 8.83651C18.9918 8.93291 18.7952 8.96857 18.5975 8.98472C18.4102 9.00002 18.1828 9.00001 17.9193 9H14.0807C13.8172 9.00001 13.5898 9.00002 13.4025 8.98472C13.2048 8.96857 13.0082 8.93291 12.819 8.83651C12.5368 8.6927 12.3073 8.46323 12.1635 8.18099C12.0671 7.9918 12.0314 7.79519 12.0153 7.59752C12 7.41023 12 7.18285 12 6.91928V3.08072C12 2.81715 12 2.58977 12.0153 2.40249C12.0314 2.20481 12.0671 2.0082 12.1635 1.81902C12.3073 1.53677 12.5368 1.3073 12.819 1.16349C13.0082 1.06709 13.2048 1.03144 13.4025 1.01529C13.5898 0.999984 13.8172 0.999991 14.0807 1ZM13.4839 2.01196C13.3481 2.02306 13.2977 2.0419 13.273 2.0545C13.1789 2.10243 13.1024 2.17892 13.0545 2.27301C13.0419 2.29773 13.0231 2.34809 13.012 2.48392C13.0004 2.62559 13 2.81172 13 3.1V6.9C13 7.18828 13.0004 7.37441 13.012 7.51608C13.0231 7.65191 13.0419 7.70227 13.0545 7.727C13.1024 7.82108 13.1789 7.89757 13.273 7.9455C13.2977 7.9581 13.3481 7.97694 13.4839 7.98804C13.6256 7.99961 13.8117 8 14.1 8H17.9C18.1883 8 18.3744 7.99961 18.5161 7.98804C18.6519 7.97694 18.7023 7.9581 18.727 7.9455C18.8211 7.89757 18.8976 7.82108 18.9455 7.727C18.9581 7.70227 18.9769 7.65191 18.988 7.51608C18.9996 7.37441 19 7.18828 19 6.9V3.1C19 2.81172 18.9996 2.62559 18.988 2.48392C18.9769 2.34809 18.9581 2.29773 18.9455 2.27301C18.8976 2.17892 18.8211 2.10243 18.727 2.0545C18.7023 2.0419 18.6519 2.02306 18.5161 2.01196C18.3744 2.00039 18.1883 2 17.9 2H14.1C13.8117 2 13.6256 2.00039 13.4839 2.01196ZM3.08072 12H6.91928C7.18285 12 7.41023 12 7.59752 12.0153C7.79519 12.0314 7.9918 12.0671 8.18099 12.1635C8.46323 12.3073 8.6927 12.5368 8.83651 12.819C8.93291 13.0082 8.96857 13.2048 8.98472 13.4025C9.00002 13.5898 9.00001 13.8172 9 14.0807V17.9193C9.00001 18.1828 9.00002 18.4102 8.98472 18.5975C8.96857 18.7952 8.93291 18.9918 8.83651 19.181C8.6927 19.4632 8.46323 19.6927 8.18099 19.8365C7.9918 19.9329 7.79519 19.9686 7.59752 19.9847C7.41023 20 7.18285 20 6.91928 20H3.08072C2.81715 20 2.58977 20 2.40249 19.9847C2.20481 19.9686 2.0082 19.9329 1.81902 19.8365C1.53677 19.6927 1.3073 19.4632 1.16349 19.181C1.06709 18.9918 1.03144 18.7952 1.01529 18.5975C0.999984 18.4102 0.999991 18.1828 1 17.9193V14.0807C0.999991 13.8172 0.999984 13.5898 1.01529 13.4025C1.03144 13.2048 1.06709 13.0082 1.16349 12.819C1.3073 12.5368 1.53677 12.3073 1.81902 12.1635C2.0082 12.0671 2.20481 12.0314 2.40249 12.0153C2.58977 12 2.81715 12 3.08072 12ZM2.48392 13.012C2.34809 13.0231 2.29773 13.0419 2.27301 13.0545C2.17892 13.1024 2.10243 13.1789 2.0545 13.273C2.0419 13.2977 2.02306 13.3481 2.01196 13.4839C2.00039 13.6256 2 13.8117 2 14.1V17.9C2 18.1883 2.00039 18.3744 2.01196 18.5161C2.02306 18.6519 2.0419 18.7023 2.0545 18.727C2.10243 18.8211 2.17892 18.8976 2.27301 18.9455C2.29773 18.9581 2.34809 18.9769 2.48392 18.988C2.62559 18.9996 2.81172 19 3.1 19H6.9C7.18828 19 7.37441 18.9996 7.51608 18.988C7.65191 18.9769 7.70227 18.9581 7.727 18.9455C7.82108 18.8976 7.89757 18.8211 7.9455 18.727C7.9581 18.7023 7.97694 18.6519 7.98804 18.5161C7.99961 18.3744 8 18.1883 8 17.9V14.1C8 13.8117 7.99961 13.6256 7.98804 13.4839C7.97694 13.3481 7.9581 13.2977 7.9455 13.273C7.89757 13.1789 7.82108 13.1024 7.727 13.0545C7.70227 13.0419 7.65191 13.0231 7.51608 13.012C7.37441 13.0004 7.18828 13 6.9 13H3.1C2.81172 13 2.62559 13.0004 2.48392 13.012ZM14.0807 12H17.9193C18.1829 12 18.4102 12 18.5975 12.0153C18.7952 12.0314 18.9918 12.0671 19.181 12.1635C19.4632 12.3073 19.6927 12.5368 19.8365 12.819C19.9329 13.0082 19.9686 13.2048 19.9847 13.4025C20 13.5898 20 13.8171 20 14.0807V17.9193C20 18.1829 20 18.4102 19.9847 18.5975C19.9686 18.7952 19.9329 18.9918 19.8365 19.181C19.6927 19.4632 19.4632 19.6927 19.181 19.8365C18.9918 19.9329 18.7952 19.9686 18.5975 19.9847C18.4102 20 18.1829 20 17.9193 20H14.0807C13.8171 20 13.5898 20 13.4025 19.9847C13.2048 19.9686 13.0082 19.9329 12.819 19.8365C12.5368 19.6927 12.3073 19.4632 12.1635 19.181C12.0671 18.9918 12.0314 18.7952 12.0153 18.5975C12 18.4102 12 18.1829 12 17.9193V14.0807C12 13.8171 12 13.5898 12.0153 13.4025C12.0314 13.2048 12.0671 13.0082 12.1635 12.819C12.3073 12.5368 12.5368 12.3073 12.819 12.1635C13.0082 12.0671 13.2048 12.0314 13.4025 12.0153C13.5898 12 13.8171 12 14.0807 12ZM13.4839 13.012C13.3481 13.0231 13.2977 13.0419 13.273 13.0545C13.1789 13.1024 13.1024 13.1789 13.0545 13.273C13.0419 13.2977 13.0231 13.3481 13.012 13.4839C13.0004 13.6256 13 13.8117 13 14.1V17.9C13 18.1883 13.0004 18.3744 13.012 18.5161C13.0231 18.6519 13.0419 18.7023 13.0545 18.727C13.1024 18.8211 13.1789 18.8976 13.273 18.9455C13.2977 18.9581 13.3481 18.9769 13.4839 18.988C13.6256 18.9996 13.8117 19 14.1 19H17.9C18.1883 19 18.3744 18.9996 18.5161 18.988C18.6519 18.9769 18.7023 18.9581 18.727 18.9455C18.8211 18.8976 18.8976 18.8211 18.9455 18.727C18.9581 18.7023 18.9769 18.6519 18.988 18.5161C18.9996 18.3744 19 18.1883 19 17.9V14.1C19 13.8117 18.9996 13.6256 18.988 13.4839C18.9769 13.3481 18.9581 13.2977 18.9455 13.273C18.8976 13.1789 18.8211 13.1024 18.727 13.0545C18.7023 13.0419 18.6519 13.0231 18.5161 13.012C18.3744 13.0004 18.1883 13 17.9 13H14.1C13.8117 13 13.6256 13.0004 13.4839 13.012Z" fill="black"/>
</svg>
