<svg width="21" height="21" viewBox="0 0 21 21" fill="none" xmlns="http://www.w3.org/2000/svg">
<path fill-rule="evenodd" clip-rule="evenodd" d="M0.5 5C0.5 4.72386 0.723858 4.5 1 4.5H19C19.2761 4.5 19.5 4.72386 19.5 5C19.5 5.27614 19.2761 5.5 19 5.5H1C0.723858 5.5 0.5 5.27614 0.5 5ZM0.5 11C0.5 10.7239 0.723858 10.5 1 10.5H19C19.2761 10.5 19.5 10.7239 19.5 11C19.5 11.2761 19.2761 11.5 19 11.5H1C0.723858 11.5 0.5 11.2761 0.5 11ZM0.5 17C0.5 16.7239 0.723858 16.5 1 16.5H13C13.2761 16.5 13.5 16.7239 13.5 17C13.5 17.2761 13.2761 17.5 13 17.5H1C0.723858 17.5 0.5 17.2761 0.5 17Z" fill="black"/>
</svg>
