<svg width="21" height="21" viewBox="0 0 21 21" fill="none" xmlns="http://www.w3.org/2000/svg">
<path fill-rule="evenodd" clip-rule="evenodd" d="M10.4931 2.90142C8.31513 0.730173 4.92439 0.214057 2.32995 2.4308C-0.375967 4.7428 -0.763469 8.6235 1.36945 11.3681C2.21462 12.4557 3.88931 14.117 5.52999 15.6656C7.18024 17.2233 8.82775 18.6962 9.64067 19.4161L9.6516 19.4258C9.73283 19.4977 9.81402 19.5696 9.88881 19.626C9.97284 19.6892 10.076 19.7544 10.2073 19.7936C10.393 19.849 10.5934 19.849 10.7791 19.7936C10.9105 19.7544 11.0136 19.6892 11.0976 19.626C11.1724 19.5696 11.2536 19.4977 11.3348 19.4258L11.3458 19.4161C12.1587 18.6962 13.8062 17.2233 15.4564 15.6656C17.0971 14.117 18.7718 12.4557 19.617 11.3681C21.7455 8.62918 21.4121 4.72109 18.6513 2.42642C16.0209 0.240196 12.6696 0.729317 10.4931 2.90142ZM10.1132 3.96175C8.26104 1.79636 5.23887 1.26067 2.97955 3.19108C0.67537 5.15982 0.357521 8.43631 2.15906 10.7545C2.94951 11.7717 4.5676 13.3822 6.21639 14.9384C7.85561 16.4856 9.49424 17.9506 10.3037 18.6674C10.4003 18.753 10.4513 18.7977 10.4904 18.8271C10.4913 18.8279 10.4923 18.8286 10.4932 18.8293C10.4941 18.8286 10.4951 18.8279 10.4961 18.8271C10.5351 18.7977 10.5861 18.753 10.6828 18.6674C11.4922 17.9506 13.1308 16.4856 14.77 14.9384C16.4188 13.3822 18.0369 11.7717 18.8274 10.7545C20.6333 8.43063 20.3474 5.1365 18.0121 3.19547C15.7045 1.27757 12.7216 1.80077 10.8732 3.96175C10.7782 4.07281 10.6394 4.13674 10.4932 4.13674C10.3471 4.13674 10.2082 4.07281 10.1132 3.96175Z" fill="black"/>
</svg>
