<?xml version="1.0" encoding="UTF-8"?>
<!DOCTYPE svg PUBLIC "-//W3C//DTD SVG 1.1//EN" "http://www.w3.org/Graphics/SVG/1.1/DTD/svg11.dtd">
<!-- Creator: CorelDRAW -->
<svg xmlns="http://www.w3.org/2000/svg" xml:space="preserve" width="60.8426mm" height="12.365mm" version="1.1" style="shape-rendering:geometricPrecision; text-rendering:geometricPrecision; image-rendering:optimizeQuality; fill-rule:evenodd; clip-rule:evenodd"
viewBox="0 0 300.27 61.02"
 xmlns:xlink="http://www.w3.org/1999/xlink"
 xmlns:xodm="http://www.corel.com/coreldraw/odm/2003">
 <defs>
  <style type="text/css">
   <![CDATA[
    .fil2 {fill:#FFCC00}
    .fil1 {fill:#FFCC00;fill-rule:nonzero}
    .fil0 {fill:black;fill-rule:nonzero}
   ]]>
  </style>
 </defs>
 <g id="Слой_x0020_1">
  <metadata id="CorelCorpID_0Corel-Layer"/>
  <g id="_105553264790304">
   <path class="fil0" d="M203 18.76l0 25.59c0,5.64 -1.47,9.82 -4.4,12.57 -2.93,2.74 -7.22,4.11 -12.85,4.11 -2.97,0 -5.79,-0.36 -8.45,-1.09 -2.67,-0.72 -4.87,-1.77 -6.63,-3.14l3.54 -6.4c1.29,1.07 2.93,1.91 4.91,2.54 1.98,0.63 3.96,0.94 5.94,0.94 3.08,0 5.36,-0.69 6.83,-2.08 1.47,-1.39 2.2,-3.49 2.2,-6.31l0 -1.31c-2.32,2.55 -5.56,3.83 -9.71,3.83 -2.82,0 -5.4,-0.62 -7.74,-1.86 -2.34,-1.24 -4.2,-2.98 -5.57,-5.23 -1.37,-2.25 -2.06,-4.84 -2.06,-7.77 0,-2.93 0.69,-5.52 2.06,-7.77 1.37,-2.25 3.23,-3.99 5.57,-5.23 2.34,-1.24 4.92,-1.86 7.74,-1.86 4.45,0 7.84,1.47 10.17,4.4l0 -3.94 8.45 0zm-16.85 21.93c2.36,0 4.29,-0.69 5.8,-2.08 1.5,-1.39 2.26,-3.21 2.26,-5.45 0,-2.25 -0.75,-4.07 -2.26,-5.45 -1.5,-1.39 -3.44,-2.08 -5.8,-2.08 -2.36,0 -4.3,0.69 -5.83,2.08 -1.52,1.39 -2.28,3.21 -2.28,5.45 0,2.25 0.76,4.06 2.28,5.45 1.52,1.39 3.46,2.08 5.83,2.08zm25.13 -21.93l8.91 0 0 30.73 -8.91 0 0 -30.73zm4.45 -4.28c-1.64,0 -2.97,-0.48 -4,-1.43 -1.03,-0.95 -1.54,-2.13 -1.54,-3.54 0,-1.41 0.51,-2.59 1.54,-3.54 1.03,-0.95 2.36,-1.43 4,-1.43 1.64,0 2.97,0.46 4,1.37 1.03,0.91 1.54,2.06 1.54,3.43 0,1.48 -0.51,2.71 -1.54,3.68 -1.03,0.97 -2.36,1.46 -4,1.46zm22.5 4.97l7.88 0 0 6.85 -7.65 0 0 23.19 -8.91 0 0 -23.19 -4.74 0 0 -6.85 4.74 0 0 -1.37c0,-3.5 1.04,-6.28 3.11,-8.34 2.08,-2.06 5,-3.08 8.77,-3.08 1.33,0 2.6,0.14 3.8,0.43 1.2,0.29 2.2,0.69 3,1.23l-2.34 6.45c-1.03,-0.72 -2.23,-1.09 -3.6,-1.09 -2.7,0 -4.06,1.48 -4.06,4.45l0 1.31zm32.16 28.56c-0.88,0.65 -1.95,1.13 -3.23,1.46 -1.28,0.32 -2.62,0.49 -4.03,0.49 -3.66,0 -6.48,-0.93 -8.48,-2.8 -2,-1.87 -3,-4.61 -3,-8.22l0 -12.62 -4.74 0 0 -6.85 4.74 0 0 -7.48 8.91 0 0 7.48 7.65 0 0 6.85 -7.65 0 0 12.51c0,1.29 0.33,2.29 1,3 0.67,0.7 1.61,1.06 2.83,1.06 1.41,0 2.61,-0.38 3.6,-1.14l2.4 6.28zm15.36 1.94c-2.55,0 -5.05,-0.31 -7.48,-0.94 -2.44,-0.63 -4.38,-1.42 -5.83,-2.37l2.97 -6.4c1.37,0.88 3.03,1.59 4.97,2.14 1.94,0.55 3.85,0.83 5.71,0.83 3.77,0 5.65,-0.93 5.65,-2.8 0,-0.88 -0.51,-1.5 -1.54,-1.89 -1.03,-0.38 -2.61,-0.7 -4.74,-0.97 -2.51,-0.38 -4.59,-0.82 -6.23,-1.31 -1.64,-0.49 -3.06,-1.37 -4.26,-2.63 -1.2,-1.26 -1.8,-3.05 -1.8,-5.37 0,-1.94 0.56,-3.66 1.68,-5.17 1.12,-1.5 2.76,-2.67 4.91,-3.51 2.15,-0.84 4.69,-1.26 7.62,-1.26 2.17,0 4.33,0.24 6.48,0.71 2.15,0.48 3.93,1.13 5.34,1.97l-2.97 6.34c-2.7,-1.52 -5.65,-2.28 -8.85,-2.28 -1.9,0 -3.33,0.27 -4.28,0.8 -0.95,0.53 -1.43,1.22 -1.43,2.06 0,0.95 0.51,1.62 1.54,2 1.03,0.38 2.67,0.74 4.91,1.09 2.51,0.42 4.57,0.87 6.17,1.34 1.6,0.48 2.99,1.34 4.17,2.6 1.18,1.26 1.77,3.01 1.77,5.25 0,1.9 -0.57,3.6 -1.71,5.08 -1.14,1.48 -2.81,2.64 -5,3.46 -2.19,0.82 -4.79,1.23 -7.8,1.23z"/>
   <path class="fil1" d="M66.43 46.32l-0.4 0c-7.25,-0.19 -12.78,-5.08 -13.78,-12.18 -0.77,-5.46 0.66,-11.79 2.68,-17.43 -2.83,0.32 -5.62,0.21 -8.1,-0.32l2.21 -10.2c4.5,0.96 10.83,-0.81 12.75,-3.58l4.32 2.97 4.4 2.87c-3.15,4.76 -8.87,17.16 -7.86,24.25 0.11,0.77 0.44,3.09 3.64,3.17 2.79,0.05 5.97,-1.88 8.1,-4.96 6.44,-9.32 8.83,-21.78 9.4,-25.37l10.39 1.64c-0.66,4.15 -3.42,18.53 -11.12,29.66 -4.08,5.89 -10.42,9.5 -16.64,9.5l0.02 0 0.01 -0.02z"/>
   <path class="fil1" d="M95 47.49c-2.59,0 -5.95,-0.8 -9.17,-3.97 -6.55,-6.46 -4.96,-20.05 -2.77,-33.42 0.29,-1.77 0.64,-3.95 0.66,-4.56l10.55 0.03c0,1.3 -0.27,3.03 -0.8,6.22 -0.68,4.16 -1.62,9.86 -1.77,15.02 -0.21,7.18 1.25,8.98 1.54,9.26 1.04,1.03 1.66,0.96 1.96,0.93 1.43,-0.15 3.87,-1.82 6.12,-5.19 5.43,-8.19 5.94,-22.19 5.97,-26.27l10.55 0.07c-0.05,6.17 -0.87,21.64 -7.71,31.97 -3.81,5.75 -8.85,9.34 -13.82,9.85 -0.4,0.05 -0.84,0.07 -1.3,0.07l-0.01 0 0.01 -0.01z"/>
   <path class="fil1" d="M33.22 56.88c-8.68,0 -17.2,-3.95 -20.9,-12.68 -2.64,-6.22 -2.49,-13.71 -0.63,-20.66 -0.69,-0.42 -1.38,-0.88 -2.05,-1.37 -4.42,-3.22 -7.66,-7.51 -9.64,-12.76l9.83 -3.67c1.22,3.25 3.2,5.9 5.86,7.89 1.17,-2.09 2.47,-4 3.89,-5.65 4.65,-5.46 10.39,-8.29 16.16,-7.95 4.45,0.26 8.32,2.39 10.62,5.85 2.44,3.65 3.05,8.27 1.64,12.34 -1.53,4.4 -5.24,7.76 -10.46,9.47 -4.04,1.33 -9.98,1.45 -16.02,-0.07 -1,4.46 -1.01,9 0.48,12.52 3.02,7.1 12.27,7.24 17.87,5.06 4.35,-1.69 7.21,-5.33 9.59,-12.18l9.93 3.4c-2.14,6.15 -6.08,14.77 -15.7,18.51 -3.29,1.28 -6.89,1.95 -10.47,1.95l0.01 0zm-7.83 -39.06c3.58,0.72 6.88,0.62 8.85,-0.03 1.44,-0.47 3.28,-1.37 3.83,-2.99 0.42,-1.19 0.03,-2.42 -0.46,-3.16 -0.46,-0.69 -1.38,-1.13 -2.49,-1.19 -2.35,-0.13 -5.1,1.41 -7.53,4.27 -0.77,0.92 -1.51,1.95 -2.2,3.1l0.01 0 -0.01 -0.01z"/>
   <path class="fil2" d="M125.38 52.09c-4.39,0 -7.9,-1.59 -10.52,-4.78 -2.62,-3.19 -3.93,-7.37 -3.93,-12.54 0,-5.67 1.31,-11.03 3.93,-16.1 2.62,-5.07 6.11,-9.14 10.47,-12.22 9.62,-6.81 22.97,-5.21 33.31,-0.88l-3.55 9.87 -2.14 -1.14c-0.25,1.55 -0.58,3.41 -1,5.58 -1.63,8.15 -2.44,13.81 -2.44,17 0,1.06 0.27,1.91 0.8,2.55 0.53,0.64 1.22,0.96 2.07,0.96 1.35,0 2.98,-0.87 4.89,-2.6 1.91,-1.74 4.5,-4.55 7.76,-8.45 0.03,-0.04 0.07,-0.08 0.1,-0.11l3.92 9.76c-0.06,0.08 -0.13,0.15 -0.19,0.23 -2.9,3.61 -5.99,6.66 -9.25,9.14 -3.26,2.48 -6.41,3.72 -9.46,3.72 -2.34,0 -4.48,-0.8 -6.43,-2.39 -1.95,-1.59 -3.42,-3.77 -4.41,-6.54 -3.68,5.95 -8.32,8.93 -13.92,8.93zm3.83 -10.73c1.56,0 3.05,-0.92 4.46,-2.76 1.42,-1.84 2.44,-4.29 3.08,-7.33l3.93 -19.55c-2.97,0.07 -5.72,1.19 -8.23,3.35 -2.51,2.16 -4.52,5.01 -6,8.55 -1.49,3.54 -2.23,7.3 -2.23,11.26 0,2.2 0.44,3.83 1.33,4.89 0.89,1.06 2.11,1.59 3.67,1.59z"/>
  </g>
 </g>
</svg>
