<svg width="149" height="42" viewBox="0 0 149 42" fill="none" xmlns="http://www.w3.org/2000/svg">
<path d="M134.172 27.0081C135.497 27.8204 136.624 28.3839 137.553 28.7135C138.477 29.0385 139.38 29.201 140.264 29.201C141.152 29.201 141.868 29.003 142.411 28.6122C142.949 28.2214 143.218 27.7187 143.218 27.1045C143.218 26.2262 142.259 25.2314 140.335 24.135C140.025 23.957 139.787 23.8148 139.619 23.7184L138.162 22.896C136.746 22.094 135.695 21.1854 135.015 20.1751C134.329 19.1649 133.989 18.0178 133.989 16.7384C133.989 15.0025 134.644 13.581 135.954 12.4691C137.259 11.3575 138.949 10.8042 141.02 10.8042C141.787 10.8042 142.614 10.8956 143.502 11.0733C144.396 11.2509 145.386 11.5302 146.477 11.9055V16.9569C145.437 16.3068 144.452 15.8045 143.518 15.4492C142.584 15.0936 141.792 14.9159 141.137 14.9159C140.411 14.9159 139.842 15.0735 139.426 15.3831C139.01 15.6926 138.802 16.119 138.802 16.6522C138.802 17.0279 138.923 17.3779 139.172 17.7029C139.421 18.0329 139.792 18.3273 140.289 18.5964L142.817 19.9926C144.934 21.165 146.356 22.2463 147.086 23.2362C147.817 24.2313 148.183 25.4037 148.183 26.7644C148.183 28.8662 147.467 30.5666 146.035 31.8611C144.599 33.1556 142.7 33.8003 140.33 33.8003C139.528 33.8003 138.654 33.7138 137.71 33.5464C136.771 33.3789 135.73 33.1147 134.603 32.7595L134.172 27.0081Z" fill="#2B2A29"/>
<path d="M118.333 33.0996V16.043H111.48V11.5352H130.304V16.043H123.481V33.0996H118.333Z" fill="#FEFEFE"/>
<path d="M94.001 33.0996V11.5352H107.403V15.9213H99.1181V20.216H106.52V24.5715H99.1181V33.0996H94.001Z" fill="#2B2A29"/>
<path d="M86.2041 33.0996V11.5352H91.3518V33.0996H86.2041Z" fill="#2B2A29"/>
<path d="M84.337 21.1295V31.6124C82.8902 32.3384 81.4789 32.8815 80.1085 33.247C78.7327 33.6174 77.4027 33.8003 76.1135 33.8003C72.8291 33.8003 70.1078 32.719 67.9403 30.5515C65.7727 28.3839 64.6914 25.6475 64.6914 22.348C64.6914 19.0126 65.7878 16.2562 67.986 14.0784C70.1842 11.8957 72.961 10.8042 76.3267 10.8042C77.5958 10.8042 78.8038 10.9765 79.9562 11.3269C81.1036 11.6723 82.2103 12.2003 83.2712 12.9007L82.7179 18.2967C81.7178 17.2868 80.7226 16.5457 79.7328 16.0785C78.738 15.6065 77.6971 15.3729 76.6056 15.3729C74.6716 15.3729 73.0725 16.0177 71.8033 17.3121C70.5346 18.6066 69.9 20.2258 69.9 22.1651C69.9 24.2109 70.5141 25.8758 71.7376 27.1703C72.961 28.4648 74.5397 29.1096 76.4688 29.1096C76.9155 29.1096 77.3672 29.0691 77.8241 28.9928C78.2811 28.9115 78.7531 28.8 79.2505 28.6477V25.5156L75.169 21.1295H84.337Z" fill="#2B2A29"/>
<path d="M118.333 16.043H111.013V33.0996H118.333V16.043Z" fill="#FECC00"/>
<path d="M130.801 16.043H123.48V33.0996H130.801V16.043Z" fill="#FECC00"/>
<path d="M132.259 7.229H109.523V11.535H132.259V7.229Z" fill="#FECC00"/>
<path fill-rule="evenodd" clip-rule="evenodd" d="M114.645 1.34251C116.015 0.163297 118.491 0.830389 120.176 2.83203C121.86 4.83366 122.115 7.41205 120.745 8.59127C119.374 9.77048 116.898 9.10342 115.213 7.10179C113.529 5.10015 113.274 2.52172 114.645 1.34251ZM115.381 2.19822C114.932 2.58411 114.852 3.2478 114.907 3.80263C114.999 4.73882 115.478 5.66328 116.077 6.37496C116.669 7.07871 117.491 7.70725 118.391 7.94952C118.921 8.09201 119.567 8.11544 120.009 7.73559C120.457 7.34971 120.537 6.68601 120.483 6.13118C120.39 5.19499 119.911 4.27053 119.312 3.55885C118.72 2.8551 117.898 2.22656 116.999 1.98429C116.469 1.84142 115.822 1.81838 115.381 2.19822Z" fill="#FECC00"/>
<path fill-rule="evenodd" clip-rule="evenodd" d="M127.617 1.34251C126.246 0.163297 123.77 0.830389 122.086 2.83203C120.401 4.83366 120.146 7.41205 121.516 8.59127C122.887 9.77048 125.363 9.10342 127.048 7.10179C128.732 5.10015 128.987 2.52172 127.617 1.34251ZM126.88 2.19822C127.329 2.58411 127.409 3.2478 127.354 3.80263C127.262 4.73882 126.783 5.66328 126.184 6.37496C125.592 7.07871 124.77 7.70725 123.871 7.94952C123.34 8.09201 122.694 8.11544 122.253 7.73559C121.804 7.34971 121.724 6.68601 121.779 6.13118C121.871 5.19499 122.35 4.27053 122.949 3.55885C123.542 2.8551 124.364 2.22656 125.263 1.98429C125.793 1.84142 126.439 1.81838 126.88 2.19822Z" fill="#FECC00"/>
<path d="M39.6387 32.6473L49.3203 11.3398L51.8964 11.3946L61.4016 32.6473H56.0932L54.7477 29.5552H46.1224L44.7467 32.6473H39.6387ZM47.5934 25.8933H53.1769L50.4201 19.2394L47.5934 25.8933Z" fill="#2B2A29"/>
<path d="M23.0195 32.6472L15.3232 11.3945H20.4615L24.5937 22.8567L28.2133 11.3945H30.2611L33.9045 22.8567L37.997 11.3945H42.7301L35.055 32.6472H32.5677L29.0369 21.185L25.5865 32.6472H23.0195Z" fill="#2B2A29"/>
<path d="M0.979492 32.6472V19.6192H5.9027H12.8971V23.9721H5.9027V28.1749H14.1878V32.6472H0.979492ZM0.979492 15.7769V11.3945H14.0676V15.7769H5.9027H0.979492Z" fill="#2B2A29"/>
</svg>
