<svg width="60" height="60" viewBox="0 0 60 60" fill="none" xmlns="http://www.w3.org/2000/svg">
<g clip-path="url(#clip0_169_5078)">
<path fill-rule="evenodd" clip-rule="evenodd" d="M49.9996 38.7751C49.4869 37.6761 48.794 36.6705 47.9496 35.8001C47.4768 35.3143 46.9481 34.8864 46.3746 34.5251L44.0496 26.8001C43.7635 25.8359 43.4127 24.8921 42.9996 23.9751C42.6486 23.2229 42.1159 22.57 41.4496 22.0751C40.5022 21.4542 39.4242 21.0606 38.2996 20.9251C36.0851 20.7864 33.8641 20.7864 31.6496 20.9251C29.3996 20.9251 27.1746 20.9251 24.9746 21.1251C23.446 21.2473 21.9316 21.5066 20.4496 21.9001C19.6014 22.077 18.7662 22.3108 17.9496 22.6001C17.4699 22.7942 17.0294 23.0737 16.6496 23.4251C15.9819 24.1501 15.4637 24.9997 15.1246 25.9251C14.6993 27.1317 14.3651 28.3685 14.1246 29.6251C13.9496 30.5001 13.8246 31.3501 13.7246 32.1251C13.6675 32.9575 13.6675 33.7927 13.7246 34.6251C13.2049 35.0345 12.7122 35.4771 12.2496 35.9501C11.2821 36.9784 10.4427 38.1201 9.74957 39.3501C9.01589 40.622 8.50042 42.0079 8.22457 43.4501C7.9804 44.5048 7.97723 45.601 8.21529 46.6572C8.45335 47.7133 8.92651 48.7021 9.59957 49.5501C10.2613 50.2775 11.1365 50.7764 12.0996 50.9751H12.2746V53.7751V55.9751V57.1001C12.3393 57.4218 12.4667 57.7276 12.6496 58.0001C13.2405 58.8456 14.1369 59.4283 15.1496 59.6251C16.3401 59.838 17.559 59.838 18.7496 59.6251C19.3165 59.5924 19.8741 59.4657 20.3996 59.2501C20.7844 59.0536 21.1117 58.7608 21.3496 58.4001C21.7688 57.6304 22.0081 56.7756 22.0496 55.9001C22.0709 54.2774 21.9622 52.6555 21.7246 51.0501C21.7246 51.0501 21.7246 50.9251 21.7246 50.8501C23.7246 51.0001 25.6996 51.2001 27.7246 51.2751H30.2246C31.5746 51.2751 32.8996 51.1251 34.2496 51.0001L37.9246 50.5501L37.4996 55.2751C37.4745 55.7414 37.4745 56.2088 37.4996 56.6751C37.5358 57.0277 37.6466 57.3686 37.8246 57.6751C38.2924 58.4282 39.0377 58.9671 39.8996 59.1751C41.3367 59.4332 42.813 59.3735 44.2246 59.0001C44.7569 58.9106 45.2771 58.7596 45.7746 58.5501C46.1547 58.4028 46.4725 58.1291 46.6746 57.7751C46.9613 57.1456 47.1226 56.4663 47.1496 55.7751C47.1395 54.4614 47.0393 53.15 46.8496 51.8501C46.8496 51.6247 46.76 51.4085 46.6006 51.2491C46.4412 51.0897 46.225 51.0001 45.9996 51.0001C45.7741 51.0001 45.5579 51.0897 45.3985 51.2491C45.2391 51.4085 45.1496 51.6247 45.1496 51.8501C45.1496 52.8251 45.1496 53.9501 44.9996 55.0001C44.9494 55.3597 44.8571 55.7121 44.7246 56.0501C44.3746 56.0501 43.8746 56.2501 43.7496 56.2501C42.924 56.3983 42.0881 56.4819 41.2496 56.5001C40.7496 56.5001 40.2246 56.5001 39.9496 56.1751L39.8496 55.0001C39.6996 54.3001 39.5746 53.6001 39.4746 52.8751C39.3746 52.1501 39.3246 51.4501 39.2746 50.7251L43.1246 50.2001C43.1278 50.3117 43.153 50.4216 43.1987 50.5235C43.2445 50.6254 43.3098 50.7173 43.3911 50.7939C43.4724 50.8705 43.5679 50.9304 43.6723 50.9701C43.7767 51.0097 43.8879 51.0284 43.9996 51.0251C45.2976 51.0894 46.5986 50.9971 47.8746 50.7501C48.892 50.5572 49.8307 50.0705 50.5746 49.3501C51.0647 48.8293 51.3945 48.1783 51.5246 47.4751C51.7006 46.2564 51.7006 45.0188 51.5246 43.8001C51.2629 42.06 50.7491 40.3672 49.9996 38.7751ZM15.8746 30.0001C16.1688 28.8792 16.5534 27.7839 17.0246 26.7251C17.2992 26.115 17.6996 25.5697 18.1996 25.1251C18.437 24.9346 18.7225 24.8134 19.0246 24.7751C19.7246 24.6001 20.4996 24.5251 21.0746 24.4001C22.445 24.1446 23.8318 23.9859 25.2246 23.9251C27.3746 23.8001 29.5496 23.8001 31.7246 23.8001C33.2996 23.8001 35.3246 23.4251 37.1996 23.4501C38.2157 23.3945 39.2276 23.6194 40.1246 24.1001C40.4852 24.338 40.7781 24.6653 40.9746 25.0501C41.4002 25.8496 41.7517 26.6864 42.0246 27.5501L44.2496 33.5751C43.8529 33.5062 43.4519 33.4644 43.0496 33.4501C42.9361 33.2923 42.7658 33.1848 42.5746 33.1501C41.0123 32.7552 39.4106 32.5371 37.7996 32.5001C35.4746 32.5001 33.0996 32.6501 30.9246 32.5001C28.7496 32.3501 26.8746 32.5001 24.8496 32.7251C22.3496 32.8751 19.5996 33.1251 16.9996 33.3501C16.8616 33.3043 16.7125 33.3043 16.5746 33.3501C16.0803 33.4015 15.5984 33.5368 15.1496 33.7501C15.1496 33.2751 15.1496 32.8001 15.3246 32.3251C15.4596 31.5395 15.6433 30.763 15.8746 30.0001ZM19.9996 51.3501C19.9996 52.5251 19.9996 53.8501 19.8246 55.2501C19.5996 57.0251 18.8496 57.0001 18.3496 57.0501C17.6015 57.1272 16.8476 57.1272 16.0996 57.0501C15.6346 57.0592 15.179 56.919 14.7996 56.6501C14.7996 56.1751 14.5996 55.9501 14.5496 55.7001C14.3069 54.8793 14.1149 54.0444 13.9746 53.2001C13.9746 52.5501 13.7996 51.9251 13.7496 51.2751H17.2496C17.3938 51.2832 17.5377 51.2555 17.6686 51.1944C17.7994 51.1333 17.9131 51.0408 17.9996 50.9251H20.0496C20.0091 51.0629 19.9922 51.2066 19.9996 51.3501ZM29.9996 48.7001H27.0996L23.5246 48.9001L24.2496 46.9501L24.9746 45.4501L25.9496 44.0001H26.7496L29.9996 43.9251C30.6859 43.8075 31.3789 43.7323 32.0746 43.7001C32.5496 43.7001 33.0246 43.5751 33.3246 43.8501C33.8693 44.3847 34.3026 45.022 34.5996 45.7251C34.9996 46.6501 35.3246 47.6501 35.6496 48.5751L29.9996 48.7001ZM48.7496 47.7751C48.3575 48.2302 47.8469 48.5677 47.2746 48.7501C46.2656 49.0554 45.2259 49.2483 44.1746 49.3251C44.1842 49.284 44.1842 49.2412 44.1746 49.2001C44.1682 49.0884 44.1398 48.9791 44.0911 48.8784C44.0424 48.7777 43.9743 48.6876 43.8907 48.6133C43.807 48.5389 43.7096 48.4818 43.6039 48.4453C43.4981 48.4087 43.3862 48.3933 43.2746 48.4001L37.4996 48.5251C37.2093 47.0733 36.8421 45.6379 36.3996 44.2251C36.1003 43.4334 35.6693 42.698 35.1246 42.0501C34.6087 41.53 33.9454 41.1809 33.2246 41.0501C32.0312 40.8713 30.8179 40.8713 29.6246 41.0501L26.5496 41.3251C26.1036 41.3242 25.659 41.3745 25.2246 41.4751C24.9373 41.5626 24.6669 41.6978 24.4246 41.8751C24.0822 42.116 23.7999 42.4325 23.5996 42.8001C23.329 43.3422 23.0952 43.9018 22.8996 44.4751L22.4996 46.4001L21.9496 49.0751C20.5746 49.0751 19.1996 49.3001 17.8246 49.4751C17.7044 49.5081 17.5933 49.568 17.4996 49.6501C16.0835 49.5849 14.6726 49.4346 13.2746 49.2001C12.596 49.1079 11.9786 48.7589 11.5496 48.2251C11.1813 47.63 10.9421 46.9643 10.8474 46.271C10.7526 45.5776 10.8045 44.8721 10.9996 44.2001C11.2506 43.0262 11.6365 41.8853 12.1496 40.8001C12.5747 39.6508 13.1105 38.5456 13.7496 37.5001C14.1488 36.9111 14.6097 36.3663 15.1246 35.8751C15.4552 35.6017 15.8158 35.3669 16.1996 35.1751C19.0996 35.3501 21.9996 35.5751 24.8996 35.6251H30.9996C33.4996 35.4501 36.2996 34.9251 38.9746 34.8001C40.0644 34.7118 41.1597 34.7118 42.2496 34.8001C42.2496 34.8001 42.2496 34.8001 42.3996 34.8001C43.1762 34.9169 43.9182 35.201 44.5742 35.6326C45.2303 36.0642 45.7849 36.6332 46.1996 37.3001C46.732 38.0741 47.1606 38.9146 47.4746 39.8001C47.9909 41.1978 48.3514 42.6483 48.5496 44.1251C48.7335 44.9476 48.8505 45.7837 48.8996 46.6251C48.9851 47.0169 48.9228 47.4265 48.7246 47.7751H48.7496Z" fill="black"/>
<path fill-rule="evenodd" clip-rule="evenodd" d="M17.7495 40.225C17.5555 40.1959 17.3574 40.2347 17.1888 40.335C17.0203 40.4352 16.8915 40.5907 16.8245 40.775C16.738 40.6351 16.608 40.5276 16.4544 40.4689C16.3008 40.4101 16.1322 40.4035 15.9745 40.45C15.4968 40.582 15.052 40.8126 14.6688 41.1269C14.2855 41.4413 13.9724 41.8323 13.7495 42.275C13.5459 42.6602 13.4395 43.0893 13.4395 43.525C13.4395 43.9607 13.5459 44.3898 13.7495 44.775C14.1641 45.4981 14.7931 46.0747 15.5495 46.425C16.2621 46.782 17.053 46.9539 17.8495 46.925C18.5855 46.911 19.2912 46.629 19.8343 46.132C20.3773 45.635 20.7205 44.9569 20.7995 44.225C20.8662 43.7615 20.8399 43.2893 20.7222 42.8361C20.6044 42.3828 20.3975 41.9576 20.1136 41.5852C19.8296 41.2128 19.4743 40.9007 19.0684 40.6672C18.6625 40.4336 18.2141 40.2833 17.7495 40.225ZM17.7495 44C17.4114 44.0018 17.0776 43.9248 16.7745 43.775C16.4495 43.65 16.0995 43.6 15.9245 43.375C15.8392 43.2591 15.7932 43.1189 15.7932 42.975C15.7932 42.8311 15.8392 42.6909 15.9245 42.575C16.0641 42.2884 16.2805 42.0461 16.5495 41.875C16.6488 41.8445 16.7403 41.7929 16.818 41.7239C16.8956 41.6549 16.9575 41.57 16.9995 41.475C17.0653 41.5881 17.1556 41.6849 17.2637 41.7585C17.3719 41.832 17.4952 41.8804 17.6245 41.9C17.8577 41.992 18.0619 42.1449 18.2158 42.3428C18.3698 42.5407 18.4677 42.7763 18.4995 43.025C18.4745 43.5 18.2745 44.025 17.6495 44H17.7495Z" fill="black"/>
<path fill-rule="evenodd" clip-rule="evenodd" d="M41.8249 38.85C41.6993 38.8134 41.5663 38.8103 41.4391 38.841C41.3119 38.8717 41.195 38.9351 41.0999 39.025C40.9985 38.9763 40.8874 38.9509 40.7749 38.9509C40.6624 38.9509 40.5513 38.9763 40.4499 39.025C39.6856 39.2508 39.0212 39.7306 38.5666 40.3852C38.112 41.0398 37.8945 41.83 37.9499 42.625C37.9549 43.0904 38.0562 43.5498 38.2473 43.9741C38.4384 44.3985 38.7152 44.7788 39.0604 45.0911C39.4055 45.4033 39.8115 45.6408 40.2528 45.7887C40.6942 45.9365 41.1613 45.9914 41.6249 45.95C42.4952 45.8862 43.3116 45.504 43.918 44.8764C44.5245 44.2489 44.8785 43.4199 44.9125 42.5479C44.9465 41.6759 44.6582 40.8218 44.1024 40.149C43.5467 39.4761 42.7626 39.0314 41.8999 38.9L41.8249 38.85ZM41.3499 43.05C41.1936 43.0795 41.0325 43.0712 40.88 43.0259C40.7275 42.9806 40.588 42.8996 40.4731 42.7896C40.3582 42.6796 40.2712 42.5438 40.2194 42.3934C40.1675 42.243 40.1522 42.0825 40.1749 41.925C40.1501 41.6177 40.2119 41.3096 40.3533 41.0357C40.4947 40.7617 40.71 40.5328 40.9749 40.375H41.0999C41.2011 40.4789 41.3322 40.5488 41.4749 40.575C41.7498 40.6712 41.9907 40.8454 42.1683 41.0762C42.3459 41.3071 42.4524 41.5846 42.4749 41.875C42.4988 42.0305 42.4867 42.1893 42.4394 42.3393C42.3921 42.4893 42.311 42.6264 42.2022 42.74C42.0934 42.8536 41.96 42.9407 41.8122 42.9944C41.6644 43.0482 41.5062 43.0672 41.3499 43.05Z" fill="black"/>
<path fill-rule="evenodd" clip-rule="evenodd" d="M53.6998 10.3C53.4843 10.236 53.2524 10.2575 53.0522 10.3599C52.8521 10.4623 52.699 10.6378 52.6248 10.85C52.5148 11.083 52.3895 11.3085 52.2498 11.525C52.1679 11.4539 52.0727 11.3996 51.9697 11.3652C51.8668 11.3309 51.758 11.3172 51.6498 11.325H49.1498C48.7928 11.3218 48.4385 11.2627 48.0998 11.15L47.4998 8.92501V8.20001C47.6235 8.22493 47.751 8.22493 47.8748 8.20001C48.3998 8.20001 48.9748 8.37501 49.6748 8.20001C49.9653 8.1432 50.2498 8.05951 50.5248 7.95001C50.9998 7.80001 51.2998 7.47501 51.6748 7.47501C51.7733 7.49937 51.8763 7.49937 51.9748 7.47501C52.0381 7.67703 52.1789 7.84572 52.3663 7.94412C52.5538 8.04253 52.7726 8.06262 52.9748 8.00001C53.0825 7.97391 53.1839 7.92637 53.2729 7.86021C53.3618 7.79406 53.4365 7.71065 53.4925 7.61498C53.5485 7.51931 53.5847 7.41333 53.5988 7.30337C53.613 7.19341 53.6048 7.08174 53.5748 6.97501C53.2815 5.41114 52.6408 3.9331 51.6998 2.65001C51.0328 1.74685 50.1804 0.996749 49.1998 0.450014C47.8724 -0.112389 46.3979 -0.226493 44.9998 0.125014C44.1118 0.301006 43.2642 0.640067 42.4998 1.12501C40.8735 2.1455 39.6807 3.72994 39.1498 5.57501H38.9248H37.2498L33.4998 5.42501H28.2748C26.0248 5.57501 23.7998 5.85001 21.5498 6.00001C21.0479 5.10025 20.4439 4.26138 19.7498 3.50001C19.1061 2.75059 18.3464 2.10913 17.4998 1.60001C16.7119 1.18617 15.8706 0.883303 14.9998 0.700014C14.0735 0.537982 13.1261 0.537982 12.1998 0.700014C10.6323 1.08146 9.22955 1.95817 8.19979 3.20001C7.18612 4.24781 6.4998 5.56832 6.22479 7.00001C6.20051 7.11542 6.20051 7.23461 6.22479 7.35001C6.11137 7.49197 6.04965 7.66831 6.04979 7.85001C6.05614 7.94858 6.0819 8.04492 6.12559 8.13351C6.16927 8.2221 6.23003 8.30118 6.30436 8.36622C6.37869 8.43126 6.46514 8.48098 6.55874 8.51252C6.65234 8.54406 6.75125 8.5568 6.84979 8.55001L9.14979 8.70001L10.7498 8.92501H11.2998V9.77501L11.6248 11.275C11.0954 11.1072 10.5513 10.99 9.99979 10.925H9.09979C8.80236 10.9495 8.50874 11.0082 8.22479 11.1C7.52479 11.35 6.99979 11.725 6.34979 12.025C6.15467 12.0558 5.97958 12.1624 5.86256 12.3215C5.74554 12.4807 5.69603 12.6796 5.72479 12.875C5.7518 13.0108 5.81847 13.1355 5.91637 13.2334C6.01427 13.3313 6.139 13.398 6.27479 13.425C6.38792 14.0223 6.55528 14.6081 6.77479 15.175C7.3361 16.6086 8.37917 17.802 9.72479 18.55C10.5813 19.0064 11.53 19.2628 12.4998 19.3C14.3445 19.3972 16.168 18.8686 17.6748 17.8C18.131 17.4809 18.5502 17.1119 18.9248 16.7C19.3206 16.2456 19.68 15.7608 19.9998 15.25C22.1998 15.45 24.3998 15.575 26.5998 15.6H29.6748L32.7748 15.425C34.9248 15.275 37.0498 15.05 39.1998 14.8C39.4104 15.1407 39.6443 15.4665 39.8998 15.775C40.2675 16.2137 40.6687 16.6233 41.0998 17C42.1777 18.0088 43.5388 18.6631 44.9998 18.875C46.5079 19.0309 48.0273 18.7165 49.3498 17.975C50.5834 17.2667 51.6619 16.3173 52.5209 15.1834C53.3799 14.0495 54.0019 12.7543 54.3498 11.375C54.3833 11.2616 54.3929 11.1425 54.3778 11.0253C54.3627 10.908 54.3233 10.7952 54.2621 10.694C54.2009 10.5929 54.1193 10.5056 54.0225 10.4377C53.9257 10.3699 53.8158 10.323 53.6998 10.3ZM48.0498 15.45C47.1346 15.8824 46.1369 16.1126 45.1248 16.125C44.0852 16.1348 43.0605 15.8765 42.1498 15.375C41.8017 15.1819 41.4676 14.9647 41.1498 14.725C40.9629 14.5713 40.7875 14.4042 40.6248 14.225C40.7074 14.0804 40.7505 13.9166 40.7498 13.75C40.7434 13.6383 40.7151 13.529 40.6663 13.4283C40.6176 13.3276 40.5495 13.2375 40.4659 13.1632C40.3823 13.0888 40.2848 13.0318 40.1791 12.9952C40.0734 12.9586 39.9615 12.9433 39.8498 12.95L29.4498 12.7C28.4248 12.7 27.3748 12.7 26.3498 12.875C24.2248 13.1 22.1248 13.425 20.0248 13.625H19.9998C19.8138 13.5001 19.586 13.4537 19.366 13.4958C19.146 13.5379 18.9515 13.6652 18.8248 13.85C18.7544 13.895 18.6947 13.9547 18.6498 14.025C18.3531 14.3689 18.0359 14.6945 17.6998 15C17.3191 15.3259 16.8991 15.6031 16.4498 15.825C15.2756 16.3846 13.9647 16.5929 12.6748 16.425C12.0669 16.3783 11.469 16.2435 10.8998 16.025C10.3155 15.8263 9.77301 15.5212 9.29979 15.125C8.90965 14.795 8.5724 14.4072 8.29979 13.975C8.29979 13.975 8.29979 13.8 8.29979 13.725C8.54082 13.7498 8.78376 13.7498 9.02479 13.725C9.4624 13.7048 9.8974 13.6462 10.3248 13.55C10.9748 13.4 11.5248 13.125 12.1748 13.025C12.8248 12.925 13.6748 12.3 13.5998 11.675L13.7248 9.75001L13.9998 8.80001C14.0657 8.65656 14.1497 8.52213 14.2498 8.40001C14.3313 8.22677 14.3821 8.04066 14.3998 7.85001C14.4756 7.58024 14.4756 7.29479 14.3998 7.02501C14.2498 6.67501 13.9248 6.22501 12.8998 6.05001H11.7498H10.7498L9.02479 6.32501L7.92479 6.65001C8.34054 5.81185 8.93847 5.07725 9.67479 4.50001C10.4877 3.86719 11.4718 3.49272 12.4998 3.42501C13.1134 3.33816 13.7362 3.33816 14.3498 3.42501C15.0081 3.53177 15.6534 3.70775 16.2748 3.95001C17.2002 4.28914 18.0498 4.80735 18.7748 5.47501C19.2118 5.90693 19.621 6.36619 19.9998 6.85001C19.9998 7.47501 19.9998 8.00001 27.2998 8.27501H30.5748C31.6498 8.27501 32.7498 8.10001 33.8248 8.02501L37.4998 7.65001L39.5748 7.30001C39.7903 7.36204 40.0215 7.33641 40.2182 7.22871C40.4149 7.12102 40.561 6.93997 40.6248 6.72501C40.6372 6.61704 40.6372 6.50799 40.6248 6.40001C40.9296 5.71502 41.3671 5.09722 41.9121 4.5823C42.457 4.06738 43.0986 3.66554 43.7998 3.40001C44.3524 3.16932 44.932 3.00971 45.5248 2.92501C46.3624 2.75856 47.2303 2.83667 48.0248 3.15001C48.9382 3.48643 49.7482 4.05512 50.3748 4.80001L50.8748 5.50001H50.2248C49.9678 5.46343 49.7068 5.46343 49.4498 5.50001C49.2036 5.54157 48.9666 5.6262 48.7498 5.75001C48.2535 6.06658 47.7926 6.43534 47.3748 6.85001H47.2498C47.209 6.73128 47.136 6.62627 47.0388 6.54678C46.9416 6.46728 46.8242 6.41646 46.6998 6.40001C46.6026 6.38604 46.5035 6.39196 46.4087 6.41743C46.3138 6.44289 46.2251 6.48737 46.1479 6.54816C46.0708 6.60894 46.0068 6.68477 45.9598 6.77104C45.9129 6.85731 45.884 6.95222 45.8748 7.05001L45.5248 8.97501L45.3498 11.325C45.3759 11.6961 45.4345 12.0642 45.5248 12.425C45.6174 12.7168 45.8015 12.971 46.0498 13.15C46.6895 13.5877 47.4498 13.8149 48.2248 13.8C49.2076 13.7112 50.1744 13.4927 51.0998 13.15C50.2404 14.1055 49.2048 14.8865 48.0498 15.45Z" fill="black"/>
</g>
<defs>
<clipPath id="clip0_169_5078">
<rect width="60" height="60" fill="white"/>
</clipPath>
</defs>
</svg>
