<svg width="60" height="60" viewBox="0 0 60 60" fill="none" xmlns="http://www.w3.org/2000/svg">
<g clip-path="url(#clip0_166_4898)">
<path d="M26.3999 34.65C26.1977 34.7196 26.0314 34.8667 25.9377 35.0589C25.8439 35.2512 25.8303 35.4728 25.8999 35.675C25.9696 35.8772 26.1167 36.0435 26.3089 36.1373C26.5011 36.2311 26.7227 36.2446 26.9249 36.175C27.9413 35.7954 28.8632 35.1998 29.627 34.4293C30.3908 33.6588 30.9783 32.7318 31.3491 31.7122C31.7199 30.6926 31.865 29.6047 31.7745 28.5236C31.684 27.4424 31.36 26.3938 30.8249 25.45C30.0361 24.2226 28.9065 23.252 27.5743 22.657C26.2422 22.0619 24.7654 21.8684 23.3249 22.1C19.0749 22.7 15.2999 28.1 17.2999 32.1C18.0535 33.1914 19.1036 34.0443 20.3262 34.5582C21.5489 35.072 22.893 35.2253 24.1999 35C24.3047 35.0197 24.4125 35.0161 24.5156 34.9894C24.6188 34.9627 24.7148 34.9136 24.7968 34.8455C24.8789 34.7775 24.9449 34.6922 24.9902 34.5958C25.0355 34.4993 25.059 34.3941 25.059 34.2875C25.059 34.1809 25.0355 34.0757 24.9902 33.9792C24.9449 33.8828 24.8789 33.7975 24.7968 33.7295C24.7148 33.6614 24.6188 33.6123 24.5156 33.5856C24.4125 33.5589 24.3047 33.5553 24.1999 33.575C23.2367 33.6419 22.2735 33.4444 21.4144 33.0038C20.5552 32.5632 19.8327 31.8962 19.3249 31.075C18.3249 28.575 21.4249 25 23.8249 24.75C24.7633 24.609 25.7223 24.7226 26.6019 25.0788C27.4814 25.435 28.2491 26.0208 28.8249 26.775C29.2609 27.4319 29.5456 28.1773 29.6584 28.9575C29.7712 29.7378 29.7094 30.5333 29.4774 31.2868C29.2454 32.0402 28.8489 32.7327 28.3168 33.3144C27.7846 33.896 27.1299 34.3522 26.3999 34.65Z" fill="black"/>
<path d="M54.9998 16.5251C55.7808 15.6785 56.304 14.6265 56.5077 13.4927C56.7114 12.359 56.5872 11.1907 56.1498 10.1251C55.056 7.91821 53.5933 5.91439 51.8248 4.2001C50.6498 3.2251 49.8998 3.4501 49.1998 4.2001C48.722 3.33246 48.1875 2.49731 47.5998 1.7001C44.1748 -2.4999 39.4248 1.9751 39.7248 4.7751C40.2693 6.57857 41.3942 8.15171 42.9248 9.2501C42.4998 9.6251 42.4998 10.0001 42.4998 10.4001C42.359 10.381 42.2158 10.4051 42.0892 10.4693C41.9625 10.5335 41.8583 10.6347 41.7905 10.7595C41.7227 10.8842 41.6944 11.0267 41.7095 11.1679C41.7245 11.3091 41.7822 11.4424 41.8748 11.5501C42.9469 13.0717 44.1337 14.5093 45.4248 15.8501C46.4711 16.9034 47.8065 17.6224 49.2618 17.9162C50.7171 18.2099 52.2268 18.0651 53.5998 17.5001C60.0998 26.1251 51.9498 50.0001 49.3498 52.9251C46.9134 55.5874 43.5883 57.2677 39.9998 57.6501C38.9103 57.7958 37.8031 57.5785 36.8496 57.0317C35.896 56.4848 35.1492 55.639 34.7248 54.6251C34.0884 52.2612 34.2645 49.752 35.2248 47.5001C35.6498 45.9001 34.1248 45.9001 33.6998 47.5001C32.7498 50.4501 31.8748 52.6751 32.8748 55.4001C33.3845 56.8481 34.361 58.0857 35.6507 58.9184C36.9404 59.751 38.4703 60.1315 39.9998 60.0001C44.3197 59.6857 48.375 57.8003 51.3998 54.7001C55.3248 50.0001 62.3248 25.7501 54.9998 16.5251ZM42.3248 4.5501C42.3551 4.4062 42.4147 4.27006 42.4998 4.1501C43.0214 3.32076 43.847 2.72852 44.7998 2.5001C46.2998 2.8751 47.2998 4.8001 48.0498 5.4001C46.9085 6.51747 45.6417 7.499 44.2748 8.3251C43.312 7.25467 42.6405 5.95475 42.3248 4.5501ZM51.3748 15.6001C47.8248 16.2251 45.6498 13.5251 43.1998 10.7751C43.4036 10.8008 43.6095 10.7471 43.7748 10.6251C46.2074 9.29716 48.5239 7.76675 50.6998 6.0501C51.7686 7.64617 52.7211 9.31717 53.5498 11.0501C53.7714 11.4846 53.89 11.9643 53.8963 12.452C53.9026 12.9397 53.7965 13.4223 53.5861 13.8623C53.3758 14.3024 53.0669 14.6881 52.6834 14.9894C52.2999 15.2908 51.8521 15.4998 51.3748 15.6001Z" fill="black"/>
<path d="M40.4751 45C44.8251 43.9 44.7501 37.5 45.4751 33.25C46.3251 28.6 48.4251 23.65 43.5751 21.9C41.2544 21.4223 38.8941 21.1629 36.5251 21.125C35.8213 19.9786 35.235 18.7641 34.7751 17.5C32.6751 11.1 35.4001 12.5 25.1001 10.25C20.1001 9.22503 20.4501 10.825 19.3501 12.475C18.9001 13.225 17.0751 16.025 16.1751 15.975L8.67506 15.55C8.4894 15.55 8.31136 15.6238 8.18008 15.7551C8.04881 15.8863 7.97506 16.0644 7.97506 16.25C7.97506 16.4357 8.04881 16.6137 8.18008 16.745C8.31136 16.8763 8.4894 16.95 8.67506 16.95C11.3941 17.2079 14.0869 17.693 16.7251 18.4C17.8251 18.55 19.0501 17.5 19.8501 16.675C20.7553 15.4263 21.5262 14.0855 22.1501 12.675C22.1501 12.675 30.2751 13.625 32.1501 13.875C32.9001 16.375 34.1751 22.625 36.3001 23.075C38.4251 23.525 43.8001 22.9 44.6001 25.35C45.1751 26.925 43.7501 31.225 43.4001 32.85C42.8751 35.35 42.5001 40.35 40.9001 42.125C40.2501 42.8 37.6251 42.625 36.7001 42.65C31.5751 42.65 24.8751 40.15 19.6251 39.05C15.5001 38.275 7.12506 38.1 4.62506 34.675C2.82506 32.175 6.47506 24.475 7.12506 21.875L8.12506 17.5C8.15789 17.413 8.17326 17.3204 8.1703 17.2275C8.16733 17.1345 8.14609 17.0431 8.10779 16.9583C8.06949 16.8736 8.01487 16.7973 7.94705 16.7336C7.87924 16.67 7.79956 16.6204 7.71256 16.5875C7.62556 16.5547 7.53294 16.5393 7.44 16.5423C7.34706 16.5452 7.25561 16.5665 7.17087 16.6048C7.08614 16.6431 7.00978 16.6977 6.94616 16.7655C6.88253 16.8333 6.83289 16.913 6.80006 17L5.27506 21.475C4.32506 24.625 5.57154e-05 32.275 2.50006 35.9C5.50006 40.35 14.2501 40.65 18.7251 41.65C25.2251 42.975 33.8751 46.775 40.4751 45Z" fill="black"/>
</g>
<defs>
<clipPath id="clip0_166_4898">
<rect width="60" height="60" fill="white"/>
</clipPath>
</defs>
</svg>
