<svg width="60" height="60" viewBox="0 0 60 60" fill="none" xmlns="http://www.w3.org/2000/svg">
<g clip-path="url(#clip0_165_7340)">
<path d="M11.975 19.0749C13.7018 17.9097 14.9042 16.1151 15.325 14.0749C15.5 13.0249 15.525 6.74989 15.325 5.69989C15.1898 4.20278 14.9559 2.71622 14.625 1.24989C14.6039 1.13321 14.56 1.02184 14.4958 0.922175C14.4316 0.822514 14.3483 0.736529 14.2507 0.669158C14.1531 0.601788 14.0432 0.554362 13.9272 0.529604C13.8113 0.504846 13.6916 0.503245 13.575 0.524892C13.4616 0.545903 13.3534 0.589136 13.2568 0.652103C13.1601 0.715069 13.0769 0.796527 13.0118 0.891789C12.9467 0.987052 12.9012 1.09424 12.8777 1.20718C12.8542 1.32012 12.8533 1.4366 12.875 1.54989C13.0889 2.94052 13.2142 4.34336 13.25 5.74989C13.25 6.59989 13.25 12.6499 12.95 13.4999C12.5262 14.8248 11.6385 15.9522 10.45 16.6749C9.69115 17.1513 8.83839 17.4583 7.95 17.5749V2.02489C7.95779 1.90909 7.94029 1.79298 7.89871 1.68462C7.85714 1.57626 7.79248 1.47824 7.70923 1.39737C7.62598 1.3165 7.52613 1.25471 7.41661 1.2163C7.30709 1.17788 7.19053 1.16375 7.075 1.17489C6.25 1.17489 6.025 3.67489 6 4.17489L5.25 17.1749C4.51209 16.7502 3.8997 16.1378 3.475 15.3999C2.6464 12.3057 2.17665 9.12647 2.075 5.92489C2.02723 5.09224 2.02723 4.25754 2.075 3.42489C2.08418 2.82941 2.14271 2.23571 2.25 1.64989C2.29771 1.44799 2.2676 1.23553 2.16567 1.05484C2.06374 0.874143 1.89747 0.738486 1.7 0.674892C1.49481 0.628327 1.27958 0.661924 1.09834 0.768809C0.917095 0.875694 0.783543 1.04779 0.725 1.24989C0.543185 1.86356 0.409447 2.49045 0.325 3.12489C0.15 4.27489 0 5.42489 0 5.92489C0 7.89989 0.4 15.7749 1.75 17.7499C2.53121 18.9158 3.6727 19.7939 5 20.2499C4.85 21.6999 4.725 23.1749 4.7 24.6249C4.7 24.8499 4.9 50.5999 5.325 58.9499C5.325 59.182 5.41719 59.4045 5.58128 59.5686C5.74538 59.7327 5.96794 59.8249 6.2 59.8249C6.43869 59.8249 6.66761 59.7301 6.8364 59.5613C7.00518 59.3925 7.1 59.1636 7.1 58.9249C7.35 51.0249 7.775 30.4999 7.7 25.5499V20.5499C9.2364 20.4754 10.7196 19.9637 11.975 19.0749Z" fill="black"/>
<path d="M59.4498 13.45C59.0969 10.9092 58.2474 8.46271 56.9498 6.24997C56.3748 5.19519 55.7231 4.18413 54.9998 3.22497C54.4402 2.56137 53.821 1.95048 53.1498 1.39997C52.5373 0.823373 51.7892 0.410636 50.9748 0.199967C50.3475 0.120085 49.7133 0.280881 49.1998 0.649967C48.8836 0.902333 48.6631 1.25515 48.5748 1.64997C48.4995 2.11358 48.4495 2.58093 48.4248 3.04997V14.65V20.875C48.4248 22.325 48.4248 23.725 48.6248 25.1L48.7748 34.475L49.3748 58.65C49.3812 58.7518 49.4076 58.8514 49.4525 58.943C49.4975 59.0346 49.5601 59.1165 49.6367 59.1838C49.7134 59.2512 49.8026 59.3028 49.8992 59.3356C49.9958 59.3684 50.098 59.3818 50.1998 59.375C50.3028 59.3721 50.4041 59.3479 50.4974 59.3041C50.5907 59.2603 50.6739 59.1978 50.742 59.1204C50.81 59.0429 50.8613 58.9523 50.8928 58.8542C50.9243 58.7561 50.9352 58.6525 50.9248 58.55V29.85L52.6248 30.125C53.4748 30.125 54.2748 30.125 55.2748 30.3C55.6498 30.3 56.5998 30.45 57.3498 30.45C57.7943 30.4423 58.2342 30.3577 58.6498 30.2C59.1623 29.7923 59.4945 29.1999 59.5748 28.55C59.8228 27.1375 59.9649 25.7086 59.9998 24.275C60.1323 20.6575 59.9483 17.0354 59.4498 13.45ZM57.4248 28.45H55.2998H52.7998L51.1498 28.225H50.8998V25L51.1248 14.675C51.1248 12.325 51.1248 6.77497 51.2998 3.84997C51.9222 4.37647 52.4916 4.9626 52.9998 5.59997C53.5893 6.31423 54.1321 7.06579 54.6248 7.84997C55.7532 9.72064 56.5088 11.7921 56.8498 13.95C57.4338 17.369 57.7265 20.8314 57.7248 24.3C57.7759 25.6706 57.7006 27.0431 57.4998 28.4L57.4248 28.45Z" fill="black"/>
<path d="M36.3001 24.1749C36.1861 24.1054 36.059 24.06 35.9268 24.0416C35.7945 24.0232 35.6599 24.0322 35.5313 24.0679C35.4027 24.1037 35.2828 24.1655 35.179 24.2495C35.0752 24.3335 34.9898 24.4379 34.9281 24.5563C34.8663 24.6747 34.8295 24.8045 34.82 24.9376C34.8104 25.0708 34.8283 25.2045 34.8726 25.3305C34.9168 25.4564 34.9865 25.572 35.0772 25.6699C35.168 25.7679 35.2778 25.8461 35.4001 25.8999C38.7501 27.5635 41.4379 30.3129 43.0251 33.6999C44.4334 37.1028 44.5841 40.896 43.4501 44.3999C42.6144 47.0302 40.8328 49.2571 38.4501 50.6499C36.0379 52.1599 33.3399 53.1557 30.5251 53.5749C28.9327 53.7953 27.3175 53.7953 25.7251 53.5749C24.1083 53.3624 22.5223 52.9596 21.0001 52.3749C19.2078 51.5484 17.6277 50.3239 16.38 48.7946C15.1323 47.2653 14.25 45.4716 13.8001 43.5499C12.5982 39.6026 12.7656 35.365 14.2751 31.5249C14.9705 30.0007 15.9652 28.632 17.2001 27.4999C18.4778 26.3032 19.8868 25.2549 21.4001 24.3749C22.6769 23.6624 24.062 23.1641 25.5001 22.8999C26.9801 22.5862 28.5049 22.5439 30.0001 22.7749C30.8511 22.9045 31.6881 23.1137 32.5001 23.3999C32.9833 23.5681 33.4321 23.8221 33.8251 24.1499C33.9039 24.2343 33.9992 24.3018 34.105 24.3482C34.2109 24.3946 34.3251 24.4189 34.4406 24.4197C34.5562 24.4205 34.6707 24.3977 34.7771 24.3527C34.8836 24.3077 34.9798 24.2415 35.0598 24.1581C35.1397 24.0747 35.2019 23.9759 35.2424 23.8677C35.2829 23.7594 35.3009 23.6441 35.2953 23.5286C35.2897 23.4132 35.2607 23.3001 35.2099 23.1963C35.1591 23.0925 35.0877 23.0001 35.0001 22.9249C34.4451 22.4312 33.8113 22.0341 33.1251 21.7499C32.2068 21.3809 31.2512 21.1126 30.2751 20.9499C28.6204 20.6668 26.9297 20.6668 25.2751 20.9499C23.5497 21.1848 21.8763 21.7088 20.3251 22.4999C18.2694 23.5793 16.3758 24.9427 14.7001 26.5499C13.525 27.6752 12.5525 28.9945 11.8251 30.4499C9.89891 34.8452 9.52854 39.7658 10.7751 44.3999C11.3281 46.8021 12.4279 49.0443 13.9889 50.9522C15.5499 52.8601 17.5299 54.3821 19.7751 55.3999C21.5626 56.0863 23.4258 56.5563 25.3251 56.7999C27.2319 57.0747 29.1683 57.0747 31.0751 56.7999C34.977 56.146 38.64 54.4826 41.7001 51.9749C43.8345 50.1583 45.3468 47.7193 46.0251 44.9999C47.1354 40.9148 46.7726 36.5692 45.0001 32.7249C43.1341 28.9848 40.072 25.9755 36.3001 24.1749Z" fill="black"/>
<path d="M27.7504 31.5001C26.799 30.6548 25.573 30.184 24.3004 30.1751C23.6889 30.1739 23.0841 30.3017 22.5254 30.5501C21.7473 30.9072 21.0434 31.4076 20.4504 32.0251C19.6362 32.8665 19.0664 33.9138 18.8021 35.0545C18.5379 36.1952 18.5891 37.3863 18.9504 38.5001C19.8317 41.5764 21.6599 44.2969 24.1754 46.2751C24.9629 46.855 25.7994 47.3652 26.6754 47.8001C27.1879 48.0677 27.749 48.2293 28.3254 48.2751C28.8994 48.2069 29.4529 48.0196 29.9504 47.7251C30.9754 47.1501 32.4504 46.1251 33.2004 45.6501C35.0976 44.336 36.6916 42.6312 37.8754 40.6501C38.7558 39.1416 39.0579 37.3647 38.7254 35.6501C38.5692 34.51 38.041 33.4533 37.2228 32.6442C36.4046 31.835 35.3421 31.3186 34.2004 31.1751C33.2674 31.0793 32.325 31.2113 31.4542 31.5596C30.5834 31.9079 29.81 32.4623 29.2004 33.1751C28.8423 32.5195 28.3479 31.9483 27.7504 31.5001ZM29.4254 34.3001C29.8268 33.7086 30.387 33.2424 31.0415 32.9549C31.6959 32.6675 32.4182 32.5705 33.1254 32.6751C33.7946 32.7962 34.4042 33.1376 34.8571 33.6449C35.3101 34.1522 35.5805 34.7964 35.6254 35.4751C35.73 36.5903 35.4571 37.7084 34.8504 38.6501C33.7474 40.2059 32.3345 41.5167 30.7004 42.5001C30.0504 42.9501 28.3504 44.0001 27.4754 44.4501C27.2504 44.4501 27.0004 44.1751 26.7254 44.0251L25.3004 43.0751C23.2587 41.568 21.724 39.4753 20.9004 37.0751C20.6117 36.389 20.5105 35.6386 20.6071 34.9006C20.7038 34.1627 20.9948 33.4636 21.4504 32.8751C21.7553 32.5262 22.109 32.2231 22.5004 31.9751C22.8459 31.7288 23.2523 31.5819 23.6754 31.5501C24.475 31.5241 25.2596 31.771 25.9004 32.2501C26.2302 32.454 26.508 32.7318 26.7119 33.0615C26.9158 33.3913 27.0403 33.7639 27.0754 34.1501C27.0754 34.6001 27.4504 34.8251 27.8754 34.9501C28.1692 35.0124 28.475 34.9836 28.752 34.8674C29.029 34.7513 29.2639 34.5533 29.4254 34.3001Z" fill="black"/>
</g>
<defs>
<clipPath id="clip0_165_7340">
<rect width="60" height="60" fill="white"/>
</clipPath>
</defs>
</svg>
