<svg width="60" height="60" viewBox="0 0 60 60" fill="none" xmlns="http://www.w3.org/2000/svg">
<path d="M8.14759 31.1028C8.25559 31.7248 8.99634 31.9968 9.48109 31.5923C9.63034 31.4678 9.73059 31.2943 9.76384 31.1028C9.93259 28.0393 10.1256 24.976 10.1256 21.8643C10.1256 20.031 10.1256 18.1978 9.93259 16.3888C9.81209 13.663 9.64334 10.9855 9.76384 8.33229C13.1436 7.84954 16.5533 7.60779 19.9671 7.60854H23.9956H30.0258C35.1395 7.70504 40.2211 7.8417 45.2706 8.01854C45.7686 8.07479 46.2108 7.69904 46.2353 7.19854C46.2773 6.70029 45.9126 6.26029 45.4153 6.20954C41.0976 5.92004 36.6591 5.14804 32.3416 4.81054C29.4056 4.56154 26.4581 4.48104 23.5131 4.56929C18.5801 4.75179 13.6838 5.49629 8.91959 6.78829C8.63109 6.86129 8.41334 7.09804 8.36484 7.39154C8.12759 7.53004 7.96734 7.77029 7.93059 8.04279C7.46259 10.7308 7.16459 13.446 7.03809 16.1715V19.645C7.03809 20.7065 7.03809 22.0573 7.23109 23.1185C7.44809 25.8203 7.85809 28.4735 8.14759 31.1028Z" fill="black"/>
<path d="M58.0067 47.6983C57.9265 47.3235 57.6157 47.042 57.235 46.9988C57.5667 46.7425 57.6682 46.286 57.4762 45.9133C56.7042 44.1765 55.9807 42.488 55.064 40.7995C54.678 40.1 54.2922 39.4005 53.858 38.725C53.4522 38.042 53.0092 37.3818 52.5312 36.747C51.4217 35.2275 50.119 33.8525 49.082 32.3813C49.3955 29.969 49.7815 27.5568 50.071 24.9518C50.1915 23.794 50.2397 22.5395 50.288 21.4543C50.3362 20.369 50.288 19.042 50.288 17.9325V16.654V16.1715C50.1675 13.4458 49.878 10.7683 49.5402 8.09102C49.5142 7.59777 49.0927 7.21927 48.5995 7.24677C48.0895 7.27277 47.6932 7.70102 47.707 8.21152C47.707 10.913 47.49 13.6388 47.3692 16.4128C47.3692 18.2218 47.2245 20.055 47.2245 21.8643V22.8533V23.625C47.2245 26.5678 47.2245 29.4625 47.4657 32.333C43.4375 32.0918 39.4092 31.754 35.405 31.561C32.4865 31.4405 29.5677 31.3198 26.649 31.368C21.7367 31.4718 16.8332 31.834 11.959 32.4535C11.5155 32.492 11.1835 32.8775 11.2112 33.322C11.2615 33.7595 11.6395 34.085 12.0797 34.0698H13.0205C12.8032 34.528 12.538 34.9863 12.321 35.4688C12.104 35.9513 11.766 36.7713 11.4767 37.4468C11.163 38.122 10.8735 38.7975 10.5842 39.4728C10.19 40.3125 9.86723 41.184 9.61923 42.078C9.48898 42.5023 9.48898 42.956 9.61923 43.3805C10.0285 44.0228 10.717 44.4343 11.4767 44.49C14.7275 44.972 18.0077 45.214 21.294 45.2138C24.84 45.2138 28.82 45.2138 32.583 45.045C37.1177 44.876 41.2907 44.5625 43.8235 44.3935L46.0907 44.2008C46.5452 44.1745 46.9667 43.955 47.2487 43.5975C47.4482 43.1993 47.563 42.764 47.5865 42.3193C47.5642 41.608 47.4507 40.9028 47.2487 40.2208C47.0315 39.1353 46.8627 38.0255 46.6215 36.916C46.3802 35.8065 46.2355 35.3963 45.9702 34.6485C45.8965 34.43 45.7407 34.2485 45.536 34.142H48.1895C48.913 35.7583 49.5885 37.3743 50.4567 38.9663C51.084 40.076 51.7835 41.1373 52.5072 42.1745C53.5927 43.7425 54.7745 45.2138 55.86 46.7818C55.9977 46.994 56.215 47.1418 56.463 47.1918C56.2765 47.3668 56.1717 47.6115 56.1735 47.8673C49.8537 48.012 43.534 47.8673 37.2142 47.6983C32.993 47.6983 28.7717 47.5295 24.5505 47.5295C17.4827 47.5295 10.4395 47.843 3.37173 48.253C2.92823 48.2663 2.57573 48.6295 2.57573 49.0733C2.60073 49.5115 2.95723 49.8575 3.39598 49.8693C9.76398 49.8693 16.0597 50.3275 22.4037 50.5205C26.625 50.641 30.8702 50.6893 35.0915 50.6653C42.1832 50.6653 49.2267 50.2553 56.27 49.6763C63.3132 49.0973 56.27 49.7968 56.27 49.8693C56.3182 50.2053 56.3182 50.5463 56.27 50.8823C56.0287 52.0885 54.6297 52.4743 53.1102 52.7155C50.639 52.942 48.152 52.942 45.6807 52.7155C41.725 52.7155 34.971 52.4743 28.458 52.426H19.8227C15.698 52.426 12.4172 52.595 11.2355 52.595C8.87423 52.7755 6.49948 52.547 4.21598 51.9195C2.91448 51.6073 2.02148 50.41 2.09348 49.0733V48.7598C2.44023 48.751 2.74648 48.5308 2.86523 48.2048C3.68123 46.409 4.59923 44.6613 5.61523 42.9705L7.71373 39.69C8.77498 37.6638 9.66748 35.6375 10.7047 33.732C11.085 33.3295 10.9485 32.6715 10.4395 32.4535C10.0722 32.1978 9.56773 32.2838 9.30573 32.6465C8.05148 34.118 6.70048 35.5893 5.51873 37.2778C5.03148 37.9945 4.58073 38.7353 4.16773 39.497C3.75773 40.2448 3.39598 41.0408 3.05823 41.9093C3.05823 42.0538 0.646229 48.0118 0.646229 49.0008C0.339979 51.1218 1.60123 53.1563 3.63723 53.825C6.12298 54.7035 8.74398 55.1363 11.3802 55.1035C12.562 55.1035 15.8667 55.3448 20.0397 55.4653H28.651C35.188 55.4653 41.942 55.3208 45.898 55.2483C48.9857 55.404 52.0802 55.1198 55.0882 54.404C56.6942 54.0458 57.9625 52.8148 58.3687 51.22C58.441 50.708 58.441 50.1883 58.3687 49.6763C58.3687 49.025 58.1032 48.3495 58.0067 47.6983ZM35.7667 34.4555C35.7187 35.2188 35.7187 35.984 35.7667 36.7473H32.4622H30.3877C30.3125 36.0343 30.1997 35.3255 30.05 34.6245H33.6925L35.7667 34.4555ZM28.048 34.4555C27.8662 35.155 27.7212 35.8635 27.6137 36.5783H24.0197L21.8005 36.699C21.8005 35.927 21.9212 35.155 21.9212 34.2868L25.1052 34.4073L28.048 34.4555ZM19.895 34.2628C19.5422 35.0015 19.2282 35.7585 18.9542 36.53V36.8195C17.917 36.8195 16.8797 36.9883 15.8425 37.0125C14.8052 37.0368 14.4917 37.0125 13.8165 37.0125C13.8165 36.7953 13.9612 36.5543 14.0577 36.337C14.323 35.6135 14.6125 34.938 14.9502 34.2385L19.895 34.2628ZM12.6585 42.3675C12.3472 42.3005 12.041 42.2118 11.742 42.102C11.9725 41.5158 12.2385 40.9438 12.538 40.3895L13.141 38.6285C13.9852 38.6285 14.8535 38.8698 15.722 38.9423C16.5905 39.0148 17.507 39.0628 18.3995 39.111V39.7383C18.3512 40.614 18.3512 41.4918 18.3995 42.3675C16.0355 42.3915 13.9852 42.4158 12.6827 42.3193L12.6585 42.3675ZM20.5462 42.3675C20.7632 41.6438 20.9805 40.9203 21.1735 40.1725C21.1735 39.883 21.294 39.5935 21.3665 39.304C22.2107 39.304 23.079 39.304 23.9232 39.4488H27.5172V39.69C27.5172 40.5343 27.6862 41.3543 27.7827 42.102L20.5462 42.3675ZM31.4492 42.102H30.0017C30.1707 41.306 30.3395 40.5343 30.436 39.69V39.4005H32.5345C33.8612 39.4005 35.1637 39.28 36.4905 39.2318C36.7557 40.1483 37.1177 41.0168 37.407 41.9333L31.4492 42.102ZM45.3672 42.102H42.6655H39.3127C39.361 41.154 39.361 40.204 39.3127 39.2558C41.17 39.111 43.0515 38.9423 44.909 38.7493C44.909 39.4005 45.0777 40.0518 45.1982 40.703C45.3187 41.3543 45.319 41.499 45.3672 41.9333V42.102ZM44.5952 36.9403H41.1217H38.975C38.9092 36.6048 38.8205 36.2745 38.7097 35.9513C38.5167 35.4688 38.2755 34.9863 38.0585 34.528C40.3017 34.528 42.545 34.528 44.7642 34.3833C44.357 34.577 44.1445 35.0323 44.2577 35.4688C44.4022 35.8788 44.4987 36.4095 44.5952 36.916V36.9403Z" fill="black"/>
<path d="M26.1187 28.4978C27.7162 28.9396 29.4162 28.8291 30.9429 28.1841C32.3432 27.5818 33.6129 26.7136 34.6819 25.6273C35.2094 25.0961 35.6934 24.5233 36.1292 23.9146C36.5489 23.2846 36.9047 22.6138 37.1904 21.9126C37.4122 21.4601 37.2154 20.9138 36.7562 20.7066C36.2969 20.4831 35.7434 20.6783 35.5262 21.1406C35.2412 21.6638 34.8929 22.1501 34.4889 22.5878C34.0647 23.0198 33.6047 23.4153 33.1139 23.7698C32.1414 24.4621 31.0672 24.9993 29.9299 25.3618C28.9277 25.6991 27.8544 25.7656 26.8182 25.5548C24.4764 24.9156 22.4089 23.5258 20.9327 21.5991C20.5037 21.1358 19.7342 21.3106 19.5474 21.9138C19.4829 22.1218 19.5042 22.3471 19.6059 22.5398C20.9652 25.2631 23.2854 27.3858 26.1187 28.4978Z" fill="black"/>
<path d="M21.7519 15.2309C22.0002 15.0817 22.2827 14.9984 22.5722 14.9899C23.2977 14.9062 24.0267 15.1144 24.5984 15.5687C25.0904 16.0794 25.9507 15.8659 26.1469 15.1844C26.2379 14.8682 26.1534 14.5272 25.9249 14.2904C25.2344 13.0972 24.0337 12.2877 22.6687 12.0952C22.2789 12.0119 21.8762 12.0119 21.4867 12.0952C20.9447 12.2339 20.4467 12.5077 20.0394 12.8912C19.2529 13.6679 18.7297 14.6719 18.5439 15.7617C18.3199 16.1594 18.4879 16.6634 18.9057 16.8472C19.3057 17.0407 19.7872 16.8802 19.9912 16.4854C20.4757 15.9394 21.0777 15.5104 21.7519 15.2309Z" fill="black"/>
<path d="M35.8154 11.2508C36.1949 11.0043 36.3029 10.4968 36.0567 10.1173C35.7952 9.75753 35.2992 9.66253 34.9232 9.90003C33.8294 10.2845 32.7912 10.8118 31.8354 11.468C31.0924 12.0395 30.6849 12.945 30.7499 13.88C30.8249 14.4465 31.0984 14.968 31.5219 15.3515C32.4437 16.012 33.4202 16.593 34.4407 17.0883C34.7992 17.4503 35.3844 17.4503 35.7432 17.0883C36.0924 16.7243 36.0924 16.1498 35.7432 15.7858C33.5964 13.1565 32.4384 15.0138 35.8154 11.2508Z" fill="black"/>
</svg>
