<svg width="60" height="60" viewBox="0 0 60 60" fill="none" xmlns="http://www.w3.org/2000/svg">
<g clip-path="url(#clip0_165_7343)">
<path fill-rule="evenodd" clip-rule="evenodd" d="M25.8498 27.225C25.7612 27.1938 25.6673 27.1808 25.5736 27.1867C25.4799 27.1926 25.3884 27.2172 25.3044 27.2592C25.2204 27.3012 25.1458 27.3596 25.0849 27.4311C25.0239 27.5025 24.978 27.5854 24.9498 27.675C24.0998 29.9 23.2248 32.125 22.1998 34.3C21.2431 36.418 20.0791 38.4362 18.7248 40.325C18.5498 40.575 18.1748 41.45 17.7748 42.2V40.625C17.5998 38.125 17.5748 35.625 17.4248 33.275C17.4248 31.6 17.1748 29.95 16.9248 28.275C16.9124 28.0692 16.8234 27.8755 16.6753 27.7321C16.5273 27.5887 16.3309 27.5059 16.1248 27.5C16.0194 27.5123 15.9175 27.5455 15.8251 27.5976C15.7326 27.6497 15.6515 27.7197 15.5863 27.8034C15.5212 27.8872 15.4734 27.983 15.4456 28.0855C15.4179 28.1879 15.4108 28.2948 15.4248 28.4V32.025C15.4248 34.9 15.2248 37.75 15.1748 40.625C15.2099 41.8647 15.3268 43.1007 15.5248 44.325C15.5855 44.7157 15.7865 45.0708 16.0903 45.3239C16.394 45.5771 16.7796 45.7108 17.1748 45.7C17.7623 45.5784 18.2911 45.2611 18.6748 44.8C19.485 43.8525 20.2048 42.8314 20.8248 41.75C21.9311 40.0937 22.8771 38.3358 23.6498 36.5C24.6945 33.762 25.5793 30.9656 26.2998 28.125C26.331 28.0364 26.344 27.9425 26.3381 27.8488C26.3322 27.7551 26.3076 27.6636 26.2656 27.5796C26.2236 27.4956 26.1652 27.421 26.0937 27.36C26.0223 27.2991 25.9393 27.2532 25.8498 27.225Z" fill="black"/>
<path fill-rule="evenodd" clip-rule="evenodd" d="M42.3248 27.225C42.2362 27.1938 42.1423 27.1808 42.0486 27.1867C41.9549 27.1926 41.8634 27.2172 41.7794 27.2592C41.6954 27.3012 41.6208 27.3596 41.5599 27.4311C41.4989 27.5025 41.453 27.5854 41.4248 27.675C40.5748 29.9 39.6748 32.125 38.6748 34.3C37.7181 36.418 36.5541 38.4362 35.1998 40.325C35.0248 40.575 34.6498 41.45 34.2498 42.2V40.625C34.0998 38.125 34.0498 35.625 33.9248 33.275C33.9248 31.6 33.6748 29.95 33.4248 28.275C33.4154 28.1632 33.3839 28.0544 33.3322 27.9548C33.2806 27.8553 33.2097 27.7669 33.1237 27.6949C33.0377 27.6228 32.9383 27.5685 32.8312 27.5351C32.7242 27.5016 32.6115 27.4897 32.4998 27.5C32.2852 27.5251 32.089 27.6335 31.9534 27.8018C31.8178 27.9701 31.7537 28.1849 31.7748 28.4C31.7748 29.625 31.9248 30.9 31.9248 32.025C31.9248 34.9 31.7248 37.75 31.6748 40.625C31.7119 41.8635 31.8204 43.0989 31.9998 44.325C32.061 44.7201 32.2656 45.0788 32.5746 45.3325C32.8837 45.5861 33.2754 45.717 33.6748 45.7C34.2623 45.5784 34.7911 45.2611 35.1748 44.8C36.0336 43.8768 36.8115 42.8814 37.4998 41.825C38.5575 40.1345 39.4612 38.3523 40.1998 36.5C41.2332 33.7581 42.1179 30.9623 42.8498 28.125C42.8799 28.0314 42.89 27.9326 42.8793 27.8349C42.8687 27.7371 42.8376 27.6428 42.7881 27.5579C42.7386 27.473 42.6717 27.3994 42.5919 27.3421C42.5121 27.2847 42.4211 27.2448 42.3248 27.225Z" fill="black"/>
<path fill-rule="evenodd" clip-rule="evenodd" d="M32.5002 19.9999C32.5002 18.0249 32.5002 16.0499 32.6252 14.0749H34.2252H41.0502C41.0502 14.0749 41.9502 13.8249 42.5752 13.7249C42.6759 14.8142 42.6759 15.9106 42.5752 16.9999C42.5752 18.0749 42.3752 19.1499 42.2502 20.1999C42.1252 22.6999 44.4752 22.1499 44.3252 20.1999C44.5752 19.2499 44.7752 18.2499 44.9502 17.2749C45.2124 15.6449 45.2293 13.9849 45.0002 12.3499C44.9312 12.0365 44.7709 11.7505 44.5395 11.528C44.3082 11.3055 44.0161 11.1566 43.7002 11.0999C42.7134 11.0507 41.7242 11.1094 40.7502 11.2749L37.5002 11.6499C37.6003 9.70952 37.6003 7.76527 37.5002 5.8249C37.4721 4.25264 37.2453 2.69024 36.8252 1.1749C36.7361 0.956144 36.5931 0.763491 36.4095 0.614871C36.2259 0.466252 36.0077 0.366499 35.7752 0.324898C35.2404 0.184744 34.6978 0.0762221 34.1502 -0.000101767C33.5119 -0.092414 32.8636 -0.092414 32.2252 -0.000101767C31.922 0.0864573 31.6464 0.250109 31.4252 0.474898C30.9148 1.21676 30.6048 2.07793 30.5252 2.9749C30.3236 4.4759 30.1984 5.98618 30.1502 7.4999C30.0645 9.16546 30.0645 10.8343 30.1502 12.4999C30.1502 14.9999 30.4752 17.4999 30.6752 19.9999C30.2752 22.2249 32.5002 22.6999 32.5002 19.9999ZM32.9752 7.6499C32.9752 7.0499 32.9752 5.3749 33.2502 3.9249C33.258 3.38247 33.3421 2.84384 33.5002 2.3249C33.9732 2.35283 34.4423 2.4282 34.9002 2.5499C35.2555 3.6574 35.5066 4.79568 35.6502 5.9499C35.9002 7.8999 35.9502 9.8999 36.0252 11.8249L35.0002 12.0499C34.2252 12.0499 33.4502 12.3499 32.6502 12.5249C32.5002 10.9249 32.6752 9.3249 32.8502 7.7249L32.9752 7.6499Z" fill="black"/>
<path fill-rule="evenodd" clip-rule="evenodd" d="M55.9499 54.0998C55.5749 50.6248 54.7749 47.1498 54.2999 43.7248L53.2249 35.5748L52.3749 30.5748C52.2987 29.1733 51.8807 27.8118 51.1573 26.6091C50.4339 25.4064 49.4271 24.399 48.2249 23.6748C43.4249 21.1748 14.9749 22.3248 10.7249 24.3498C9.97083 24.6401 9.33072 25.1662 8.89988 25.8498C6.7758 29.9544 5.41216 34.4095 4.87488 38.9998C4.1651 45.6925 3.83124 52.4197 3.87488 59.1498C3.90613 59.3159 3.99444 59.4659 4.12454 59.5738C4.25464 59.6817 4.41835 59.7407 4.58738 59.7407C4.7564 59.7407 4.92012 59.6817 5.05022 59.5738C5.18032 59.4659 5.26862 59.3159 5.29988 59.1498C5.45366 52.4582 5.98785 45.7807 6.89988 39.1498C7.54939 34.9554 8.93755 30.9094 10.9999 27.1998C11.2249 26.7998 11.9249 26.6498 12.5749 26.4498C13.3967 26.2239 14.2316 26.0486 15.0749 25.9248C16.9279 25.6182 18.7982 25.4261 20.6749 25.3498C23.5499 25.2248 26.4499 25.3498 29.3249 25.3498H36.8249C41.4749 25.3498 44.7749 24.9248 47.0249 26.0248C48.5249 26.7748 49.5249 28.2748 49.9999 31.0248L50.9749 35.8498L52.2499 43.9248C52.7499 46.8248 53.4749 49.7748 53.9499 52.7498C54.2981 54.6635 54.4738 56.6046 54.4749 58.5498C54.4715 58.6549 54.4889 58.7596 54.5261 58.8579C54.5633 58.9562 54.6194 59.0463 54.6914 59.1229C54.7634 59.1995 54.8497 59.2612 54.9456 59.3044C55.0414 59.3477 55.1448 59.3716 55.2499 59.3748C55.357 59.3815 55.4644 59.3667 55.5656 59.3311C55.6669 59.2955 55.7599 59.2399 55.8392 59.1675C55.9185 59.0952 55.9825 59.0077 56.0273 58.9102C56.072 58.8126 56.0967 58.7071 56.0999 58.5998C56.1579 57.0981 56.1078 55.5943 55.9499 54.0998Z" fill="black"/>
<path fill-rule="evenodd" clip-rule="evenodd" d="M15.9247 19.9999V14.0749H17.5247H24.3497C24.3497 14.0749 25.2497 13.8249 25.8747 13.7249C25.9753 14.8143 25.9753 15.9106 25.8747 16.9999C25.8747 18.0749 25.6747 19.1499 25.5497 20.1999C25.0997 23.0749 26.8747 22.8249 27.6247 20.1999C27.8747 19.2249 28.0997 18.2499 28.2497 17.2749C28.5328 15.6907 28.5833 14.0737 28.3997 12.4749C28.337 12.1585 28.1788 11.869 27.9463 11.6454C27.7138 11.4219 27.4183 11.2751 27.0997 11.2249C26.1129 11.1757 25.1237 11.2344 24.1497 11.3999L20.9997 11.7749C20.9997 9.87491 21.1247 7.89991 20.9997 5.94991C20.9904 4.33683 20.7719 2.73177 20.3497 1.17491C20.2648 0.958011 20.1262 0.766228 19.9469 0.617552C19.7676 0.468876 19.5535 0.368179 19.3247 0.324907C18.7893 0.186959 18.2469 0.078463 17.6997 -9.25502e-05C17.053 -0.0927426 16.3964 -0.0927426 15.7497 -9.25502e-05C15.454 0.111117 15.1946 0.301366 14.9997 0.549907C14.4901 1.29431 14.1723 2.15309 14.0747 3.04991C13.7747 4.62491 13.7497 6.77491 13.6747 7.49991C13.5889 9.16547 13.5889 10.8343 13.6747 12.4999C13.6747 14.9999 13.9747 17.4999 14.1747 19.9999C14.3747 22.4999 15.8747 23.0249 15.9247 19.9999ZM16.3747 7.64991C16.3747 7.04991 16.3747 5.37491 16.6497 3.92491C16.683 3.44248 16.7668 2.96488 16.8997 2.49991C17.3727 2.52784 17.8417 2.60321 18.2997 2.72491C18.655 3.83241 18.9061 4.97069 19.0497 6.12491C19.2816 8.07528 19.4151 10.0361 19.4497 11.9999C19.0997 11.9999 18.7497 11.9999 18.4247 12.1499C17.6247 12.1499 16.8497 12.4499 16.0747 12.6249C16.1247 10.9249 16.1997 9.32491 16.3747 7.72491V7.64991Z" fill="black"/>
</g>
<defs>
<clipPath id="clip0_165_7343">
<rect width="60" height="60" fill="white"/>
</clipPath>
</defs>
</svg>
