<svg width="60" height="60" viewBox="0 0 60 60" fill="none" xmlns="http://www.w3.org/2000/svg">
<g clip-path="url(#clip0_165_7341)">
<path d="M23.0994 32.9249C22.8969 32.8303 22.6654 32.8192 22.4548 32.8941C22.2443 32.9689 22.0717 33.1237 21.9744 33.3249C21.8528 33.5479 21.7844 33.796 21.7744 34.0499V34.9749C21.7462 35.4353 21.6272 35.8856 21.4244 36.2999C21.2996 36.6104 21.0695 36.867 20.7744 37.0249C20.6995 37.0985 20.6078 37.153 20.5072 37.1835C20.4067 37.214 20.3002 37.2196 20.197 37.2C20.0938 37.1803 19.9969 37.1359 19.9145 37.0706C19.8322 37.0052 19.767 36.9209 19.7244 36.8249C19.475 36.5499 19.257 36.2481 19.0744 35.9249C18.6428 35.1674 18.4757 34.2878 18.5994 33.4249C18.6854 33.2458 18.6968 33.04 18.6312 32.8525C18.5656 32.665 18.4283 32.5112 18.2494 32.4249C18.1592 32.3831 18.0617 32.3597 17.9624 32.356C17.8631 32.3523 17.764 32.3683 17.671 32.4032C17.5779 32.4381 17.4927 32.4911 17.4204 32.5592C17.348 32.6273 17.2899 32.7091 17.2494 32.7999C16.8075 33.7292 16.6078 34.7552 16.669 35.7824C16.7302 36.8096 17.0503 37.8046 17.5994 38.6749C17.8445 39.0842 18.1809 39.4315 18.5822 39.6896C18.9835 39.9477 19.439 40.1097 19.9132 40.1629C20.3874 40.2161 20.8675 40.1592 21.3161 39.9965C21.7646 39.8338 22.1696 39.5697 22.4994 39.2249C23.0169 38.7612 23.3973 38.1646 23.5994 37.4999C23.8575 36.6321 23.9088 35.716 23.7494 34.8249C23.7494 34.8249 24.0494 33.3749 23.0994 32.9249Z" fill="black"/>
<path d="M40.9242 34.9999C40.8257 34.9966 40.7275 35.0127 40.6352 35.0474C40.5429 35.082 40.4584 35.1345 40.3864 35.2018C40.3145 35.2691 40.2564 35.35 40.2157 35.4398C40.175 35.5295 40.1524 35.6264 40.1492 35.7249C40.0917 37.67 39.7979 39.6008 39.2742 41.4749C39.0242 42.0999 37.5992 41.6499 37.4992 41.4749C37.3769 41.1682 37.1599 40.9085 36.8797 40.7338C36.5995 40.559 36.2708 40.4783 35.9415 40.5034C35.6123 40.5285 35.2996 40.6582 35.0492 40.8734C34.7987 41.0886 34.6235 41.3782 34.5492 41.6999V42.2999V43.0749V45.2249C34.6138 45.4877 34.6138 45.7622 34.5492 46.0249C34.2742 46.5249 33.9742 46.8499 33.5742 46.8499C33.3133 46.8069 33.0672 46.6999 32.8578 46.5385C32.6484 46.3771 32.4822 46.1663 32.3742 45.9249C32.286 45.7211 32.1215 45.5598 31.9159 45.4757C31.7103 45.3916 31.48 45.3914 31.2742 45.4749C31.1679 45.5156 31.0712 45.5779 30.9901 45.6577C30.9091 45.7376 30.8454 45.8334 30.8031 45.939C30.7609 46.0447 30.7409 46.1579 30.7446 46.2717C30.7482 46.3854 30.7753 46.4972 30.8242 46.5999C31.0047 47.16 31.3316 47.6617 31.7712 48.0529C32.2108 48.4441 32.747 48.7107 33.3242 48.8249C33.9537 48.9096 34.5941 48.8051 35.164 48.5246C35.7338 48.2441 36.2073 47.8004 36.5242 47.2499C36.809 46.8298 36.9969 46.3516 37.0742 45.8499C37.1001 45.5672 37.1001 45.2827 37.0742 44.9999C37.8028 45.2299 38.5873 45.2096 39.3031 44.9423C40.0188 44.675 40.6246 44.1761 41.0242 43.5249C41.465 42.7612 41.7218 41.9052 41.7742 41.0249C41.8439 39.2974 41.777 37.567 41.5742 35.8499C41.5882 35.7513 41.5825 35.6509 41.5573 35.5545C41.5321 35.4581 41.488 35.3678 41.4275 35.2886C41.3669 35.2095 41.2913 35.1432 41.2049 35.0937C41.1185 35.0441 41.0231 35.0122 40.9242 34.9999Z" fill="black"/>
<path d="M53.8747 31.6749C53.727 31.3657 53.5034 31.0991 53.2247 30.8999C52.6583 30.5692 52.0419 30.3328 51.3997 30.1999C50.813 30.1024 50.2194 30.0523 49.6247 30.0499C49.6617 29.5673 49.6617 29.0825 49.6247 28.5999C49.6517 27.5485 49.4108 26.5075 48.9247 25.5749C48.4157 24.7488 47.6774 24.0886 46.7997 23.6749C47.1138 23.1184 47.3494 22.521 47.4997 21.8999C47.5537 21.0613 47.4864 20.2192 47.2997 19.3999C47.1497 18.6499 46.4747 17.5499 46.1497 16.4749C46.0756 16.3142 46.0373 16.1393 46.0373 15.9624C46.0373 15.7854 46.0756 15.6106 46.1497 15.4499C46.8747 14.4999 47.4247 13.7999 47.9497 13.1999C48.8497 12.1999 49.6747 11.3999 50.9997 10.0499C51.717 9.27766 52.3614 8.44076 52.9247 7.54989C53.3036 7.014 53.5205 6.38054 53.5497 5.72489C53.3634 5.03597 53.0016 4.40715 52.4997 3.89989C51.7366 2.99056 50.8437 2.19871 49.8497 1.54989C48.8038 0.946855 47.6869 0.476561 46.5247 0.149886C45.7759 -0.0844674 44.9734 -0.0844674 44.2247 0.149886C43.5531 0.537281 42.9665 1.05592 42.4997 1.67489C41.6247 2.74989 40.7497 4.17489 40.2497 4.87489C39.3997 5.97489 38.6997 7.09989 37.8747 8.12489C37.3843 8.75407 36.8314 9.33201 36.2247 9.84989C35.7116 10.1507 35.1167 10.282 34.5247 10.2249C33.5891 10.2166 32.654 10.2667 31.7247 10.3749C30.854 10.5064 30.01 10.7765 29.2247 11.1749C27.7554 11.9181 26.4069 12.8789 25.2247 14.0249C23.5199 15.72 22.0182 17.6077 20.7497 19.6499C20.2747 20.3749 19.4747 21.5749 18.7497 22.7249L17.9247 24.1249C16.5497 24.2999 14.8247 24.1249 13.2497 24.1249C12.3869 24.1525 11.5378 24.3478 10.7497 24.6999C10.6488 24.7433 10.5575 24.8063 10.4813 24.8854C10.4051 24.9645 10.3455 25.0581 10.3059 25.1605C10.2663 25.263 10.2476 25.3723 10.2508 25.4821C10.254 25.5919 10.2791 25.6999 10.3247 25.7999C10.3622 25.889 10.4226 25.9666 10.4997 26.0249H10.2497C10.1553 26.0481 10.0665 26.09 9.98865 26.1482C9.91079 26.2064 9.84542 26.2797 9.79645 26.3636C9.74747 26.4476 9.71587 26.5406 9.70354 26.637C9.69121 26.7334 9.6984 26.8313 9.72467 26.9249L10.3247 30.3999V30.7499C9.75581 30.6563 9.17347 30.6859 8.61707 30.8369C8.06068 30.9879 7.5432 31.2566 7.09967 31.6249C6.59861 32.1292 6.20683 32.7313 5.94876 33.3937C5.69068 34.0561 5.57185 34.7645 5.59967 35.4749C5.60186 36.1961 5.66879 36.9157 5.79967 37.6249C5.91023 38.3129 6.24406 38.9454 6.74967 39.4249C7.22337 39.8698 7.81233 40.1729 8.44967 40.2999C9.2122 40.4124 9.98713 40.4124 10.7497 40.2999C10.9147 40.3067 11.0777 40.2623 11.2165 40.1728C11.3552 40.0833 11.4629 39.953 11.5247 39.7999C11.9747 43.8499 12.0247 47.2999 12.3747 50.9749C12.5497 52.7499 12.7997 54.6249 13.1997 56.6749C13.2896 57.1787 13.4973 57.6541 13.8057 58.0625C14.1142 58.4708 14.5147 58.8006 14.9747 59.0249C16.652 59.6024 18.4351 59.8071 20.1997 59.6249C22.3747 59.6249 24.3997 59.8249 26.5497 59.8749H29.3497C31.2997 59.8749 35.9497 60.1249 39.5497 59.7249C41.274 59.6212 42.9434 59.0791 44.3997 58.1499C45.0347 57.5881 45.5165 56.8741 45.7997 56.0749C46.2549 54.6358 46.5566 53.1525 46.6997 51.6499C47.0997 48.8999 47.5247 47.4999 47.8497 45.4999C47.8497 44.6999 48.0997 43.8249 48.1997 42.7249L48.5497 39.9999C49.2437 39.8869 49.9466 39.8367 50.6497 39.8499C51.0981 39.7919 51.5311 39.6476 51.9247 39.4249C52.9073 38.7181 53.6001 37.6788 53.8747 36.4999C54.1365 35.6247 54.2547 34.7129 54.2247 33.7999C54.2479 33.0755 54.129 32.3536 53.8747 31.6749ZM44.4247 3.87489C44.7479 3.3834 45.1161 2.92308 45.5247 2.49989C45.5247 2.49989 50.9247 5.39989 51.3247 5.82489C51.7247 6.24989 50.0997 7.69989 49.4747 8.32489C47.8341 6.81582 46.0016 5.52972 44.0247 4.49989L44.4247 3.87489ZM30.2497 13.3499C32.0824 12.817 34.0001 12.6388 35.8997 12.8249C36.6543 12.7472 37.3727 12.4616 37.9747 11.9999C38.7207 11.4092 39.3998 10.7385 39.9997 9.99989C40.8497 8.94989 41.5497 7.84989 42.4997 6.69989L42.9497 6.07489C43.183 6.32489 43.433 6.57489 43.6997 6.82489C43.984 7.1257 44.2934 7.4017 44.6247 7.64989C45.0747 7.94989 45.5747 8.19989 45.9497 8.44989L48.0997 9.82489C47.4247 10.5749 46.8497 11.2249 46.2747 11.9249C45.6997 12.6249 45.1747 13.3499 44.4747 14.4249C44.2533 14.7506 44.1052 15.1203 44.0404 15.5088C43.9757 15.8972 43.9959 16.295 44.0997 16.6749C44.3497 17.8249 45.2747 19.1749 45.4747 19.9249C45.653 20.5335 45.7373 21.1658 45.7247 21.7999C45.6586 22.2623 45.5149 22.7103 45.2997 23.1249C43.4664 22.6306 41.5731 22.395 39.6747 22.4249C37.7997 22.4249 35.5747 22.4249 33.2747 22.6499L32.4997 21.7999C31.8903 21.2751 31.2472 20.7908 30.5747 20.3499C29.9695 20.0099 29.3852 19.6343 28.8247 19.2249C28.0247 18.7499 27.0997 17.9499 26.1497 17.3999L25.2247 16.9499L25.7497 16.3499C27.0613 15.0927 28.5847 14.0771 30.2497 13.3499ZM22.2247 20.6749C22.8747 19.7749 23.5247 18.9499 24.1747 18.1749C24.4747 18.3249 29.1747 22.6249 29.4497 22.7999C29.2747 22.7999 22.6247 23.4249 19.9497 23.8249L19.9997 23.5999C20.8497 22.4999 21.7247 21.3749 22.2247 20.6749ZM10.8997 38.7499C10.4016 38.6968 9.90841 38.6049 9.42467 38.4749C8.47467 38.1749 8.64967 37.6749 8.57467 35.4749C8.49726 35.0198 8.49726 34.555 8.57467 34.0999C8.62583 33.7057 8.80093 33.338 9.07467 33.0499C9.51307 32.7118 10.0464 32.5194 10.5997 32.4999C10.5997 32.4999 10.5997 32.7249 10.5997 32.8249C10.8247 34.5499 11.1497 36.2999 11.3747 38.0249C11.3978 38.3912 11.3978 38.7586 11.3747 39.1249C11.2696 38.9442 11.0998 38.8102 10.8997 38.7499ZM46.6247 32.0499C46.3997 33.4499 46.2247 34.8749 46.0747 36.2999C45.8747 38.3749 45.7497 40.4749 45.5247 42.5249C45.5247 43.5499 45.2997 44.3749 45.1747 45.0249C44.8497 47.0499 44.4247 48.4499 43.9997 51.2249C43.8705 52.3514 43.6785 53.4698 43.4247 54.5749C43.3176 55.0925 43.0663 55.5692 42.6997 55.9499C41.6788 56.5387 40.5277 56.8652 39.3497 56.8999C35.7997 57.3249 31.2247 57.0249 29.3497 57.1499H26.7247C24.5497 57.1499 22.5247 57.0249 20.3497 57.1499C19.1125 57.2987 17.8619 57.2987 16.6247 57.1499C16.3871 57.117 16.1649 57.0136 15.9867 56.8532C15.8084 56.6928 15.6823 56.4826 15.6247 56.2499C15.1747 54.2999 14.8747 52.5249 14.6497 50.7999C14.1247 46.5249 14.0497 42.6499 13.1997 37.6749C12.8997 35.9999 12.4997 34.2999 12.2497 32.4999C12.2497 31.7749 12.0497 31.0499 11.9747 30.3249L11.2247 26.6249C11.2056 26.5122 11.1534 26.4078 11.0747 26.3249C11.2206 26.3744 11.3788 26.3744 11.5247 26.3249C12.1081 26.1031 12.7256 25.9847 13.3497 25.9749C14.8997 25.9749 25.2997 25.1499 29.0997 24.9249C29.0997 24.9249 34.9997 24.5749 39.7247 24.6499C41.4185 24.6362 43.1045 24.8807 44.7247 25.3749C45.5891 25.5766 46.3521 26.0824 46.8747 26.7999C47.1405 27.3521 47.261 27.9631 47.2247 28.5749C47.1087 29.7462 46.9081 30.9075 46.6247 32.0499ZM51.4247 32.6749V35.1749C51.3545 35.7173 51.2374 36.2527 51.0747 36.7749C51.0747 37.0249 51.0747 37.2749 50.8247 37.3999C50.6724 37.5156 50.5039 37.6082 50.3247 37.6749C49.8152 37.8346 49.2978 37.9681 48.7747 38.0749C48.7747 37.1999 48.8997 36.3249 48.9997 35.4499C49.0997 34.5749 49.1997 33.4249 49.3497 32.4249C49.3792 32.1813 49.4209 31.9393 49.4747 31.6999C50.2997 31.9249 51.4247 32.3249 51.4247 32.6749Z" fill="black"/>
</g>
<defs>
<clipPath id="clip0_165_7341">
<rect width="60" height="60" fill="white"/>
</clipPath>
</defs>
</svg>
