<svg width="60" height="60" viewBox="0 0 60 60" fill="none" xmlns="http://www.w3.org/2000/svg">
<g clip-path="url(#clip0_161_6930)">
<path fill-rule="evenodd" clip-rule="evenodd" d="M17.8749 28.3501C17.8749 27.1001 17.8749 24.5251 17.5999 20.5501C18.0829 20.5753 18.5669 20.5753 19.0499 20.5501C19.4107 20.5331 19.7698 20.4913 20.1249 20.425C20.4827 20.3549 20.834 20.2546 21.1749 20.125C21.9999 19.875 22.7499 19.55 23.5499 19.25C23.5742 22.9505 23.7911 26.6472 24.1999 30.3251C24.1999 32.0751 25.7999 32.0251 25.7499 30.8251C25.5999 26.6751 26.1749 22.925 25.9249 18.175C25.8541 15.9871 25.397 13.8289 24.5749 11.8C24.0897 10.7827 23.3483 9.90902 22.4235 9.26473C21.4987 8.62044 20.4223 8.2277 19.2999 8.12505C18.453 8.09342 17.6159 8.31419 16.8948 8.75932C16.1737 9.20445 15.6012 9.85385 15.2499 10.625C15.0289 11.1836 14.9021 11.775 14.8749 12.375C13.7674 12.664 12.7298 13.1742 11.8249 13.8751C10.7274 14.79 10.0137 16.0838 9.82489 17.5C9.71113 19.0132 9.93308 20.5327 10.4749 21.95C10.501 22.0486 10.5463 22.1411 10.6082 22.2221C10.6702 22.3031 10.7475 22.3711 10.8357 22.4222C10.924 22.4733 11.0215 22.5065 11.1226 22.5199C11.2237 22.5332 11.3264 22.5265 11.4249 22.5C11.631 22.4521 11.8109 22.3268 11.9272 22.1499C12.0435 21.9731 12.0875 21.7583 12.0499 21.55C11.7642 19.8894 12.046 18.1809 12.8499 16.7C13.0772 16.3203 13.3364 15.9607 13.6249 15.625C13.9949 15.1801 14.4049 14.77 14.8499 14.4001C14.9213 14.5941 14.9716 14.7952 14.9999 15C15.2999 20 16.6999 28.6501 16.6999 28.6501C16.6499 29.3751 17.8749 29.7751 17.8749 28.3501ZM17.4999 16.7C17.2198 15.0955 17.2198 13.4546 17.4999 11.85C17.6893 11.4659 18.0113 11.1631 18.4065 10.9977C18.8016 10.8323 19.2432 10.8154 19.6499 10.95C20.1809 11.0876 20.6774 11.3343 21.1078 11.6743C21.5383 12.0143 21.8932 12.4403 22.1499 12.925C22.8201 14.4306 23.2422 16.0347 23.3999 17.6751H20.7749C20.4087 17.6492 20.0411 17.6492 19.6749 17.6751C19.3103 17.74 18.9509 17.832 18.5999 17.95C18.2249 17.95 17.8749 18.25 17.5249 18.4C17.4999 17.875 17.4999 17.275 17.4999 16.7Z" fill="black"/>
<path fill-rule="evenodd" clip-rule="evenodd" d="M43.9754 19.45C44.1396 17.5631 44.1896 15.668 44.1254 13.775C44.1254 12.7 43.9254 11.525 40.5004 3.05004C40.0783 2.15054 39.5404 1.31009 38.9004 0.550045C38.667 0.297153 38.3693 0.112409 38.0391 0.0155397C37.7088 -0.0813293 37.3585 -0.086685 37.0254 4.46206e-05C36.3871 0.230062 35.8069 0.596978 35.3254 1.07504C34.5619 1.96468 33.876 2.91817 33.2754 3.92504L31.5754 6.85004C31.0754 7.77504 30.6254 8.67504 30.2254 9.62504C29.9559 10.2673 29.7304 10.9272 29.5504 11.6C29.4254 11.975 29.2004 16.225 28.9004 18.125C28.7504 19.1084 28.6254 20.0834 28.5254 21.05C28.4339 22.0223 28.3922 22.9986 28.4004 23.975C28.4202 26.28 28.6292 28.5794 29.0254 30.85C29.0383 31.0379 29.1238 31.2134 29.2637 31.3394C29.4037 31.4654 29.5872 31.532 29.7754 31.525C29.9655 31.5061 30.1411 31.4153 30.2665 31.2713C30.392 31.1273 30.4577 30.9409 30.4504 30.75C30.4504 28.475 30.7754 26.225 31.0004 23.925C31.1504 22.4 31.2754 20.9 31.4004 19.375C31.5504 17.125 31.6504 14.85 31.8004 12.625L33.6754 12.775L35.7504 13.075C35.2708 14.9768 34.9035 16.9051 34.6504 18.85C34.5004 20.225 34.4754 21.625 34.4254 23V29.2C34.4123 29.3051 34.42 29.4117 34.4481 29.5138C34.4761 29.6159 34.524 29.7114 34.589 29.795C34.7203 29.9638 34.9133 30.0735 35.1254 30.1C35.3376 30.1266 35.5516 30.0677 35.7204 29.9364C35.8892 29.8052 35.9989 29.6122 36.0254 29.4C36.5072 27.121 36.866 24.8176 37.1004 22.5C37.2254 21.125 37.3254 19.725 37.3504 18.35C37.3754 16.975 37.3504 14.975 37.3504 13.35L39.0754 13.55C39.4754 13.55 40.7004 13.25 41.3754 13.225C41.3617 13.3162 41.3617 13.4089 41.3754 13.5V17.25C41.3754 19.475 41.3754 22.1 41.2004 24.475C41.2004 25.9 41.0004 26.975 41.0004 26.975C40.8004 27.75 42.5254 28.075 42.9504 26.175C43.4358 23.9577 43.7782 21.7114 43.9754 19.45ZM39.1504 11.2H31.6504C31.5766 11.1118 31.4821 11.0431 31.3754 11C31.4604 10.8009 31.5607 10.6086 31.6754 10.425C32.1657 9.5649 32.6997 8.73047 33.2754 7.92504L35.2504 5.42504C35.6504 4.92504 36.2254 4.00004 36.9004 3.25004C37.0914 3.0884 37.2918 2.93814 37.5004 2.80004C37.7631 3.22286 37.973 3.67623 38.1254 4.15004L41.3754 10.85C40.6254 10.925 39.6254 11.175 39.1504 11.2Z" fill="black"/>
<path fill-rule="evenodd" clip-rule="evenodd" d="M53.3753 24.3C52.5253 23.65 51.8003 22.925 50.8753 22.3C50.5075 22.027 50.1234 21.7765 49.7253 21.55C49.3322 21.3202 48.9228 21.1197 48.5003 20.95C47.5109 20.5515 46.4909 20.2338 45.4503 20C45.3534 19.959 45.2494 19.9374 45.1443 19.9365C45.0391 19.9357 44.9348 19.9556 44.8373 19.995C44.7398 20.0345 44.651 20.0928 44.576 20.1666C44.501 20.2403 44.4413 20.3281 44.4003 20.425C44.3592 20.5218 44.3377 20.6258 44.3368 20.731C44.336 20.8362 44.3559 20.9405 44.3953 21.038C44.4348 21.1355 44.4931 21.2243 44.5668 21.2993C44.6406 21.3742 44.7284 21.434 44.8253 21.475C45.7503 22.025 46.5253 22.7 47.3253 23.3C48.1253 23.9 48.5253 24.075 49.1503 24.4C49.7771 24.6866 50.4198 24.937 51.0753 25.15C50.7613 27.6709 50.319 30.1741 49.7503 32.65C48.3753 38.525 46.5753 42.65 44.9253 50.575C44.9253 50.575 44.7253 50.75 44.5753 50.875C44.0983 51.2045 43.5968 51.497 43.0753 51.75C41.4003 52.575 39.3253 53.325 38.5253 53.75C35.9895 55.4852 33.1476 56.7238 30.1503 57.4H30.0003C30.1239 57.2259 30.1774 57.0117 30.1503 56.8C29.9222 53.8891 29.8721 50.967 30.0003 48.05V44.6V42.275C30.0003 40.575 29.8753 38.65 29.7003 36.3C30.3629 36.2434 31.0124 36.0832 31.6253 35.825C33.1253 35.2 34.9003 34.125 35.7003 33.725L50.0753 26.225C50.2616 26.1196 50.3996 25.946 50.4602 25.7407C50.5209 25.5355 50.4994 25.3147 50.4003 25.125C50.304 24.9361 50.1367 24.7932 49.9352 24.7276C49.7336 24.662 49.5143 24.679 49.3253 24.775L45.0003 26.85C44.3003 27.15 37.2753 30.65 35.1753 31.6C34.5003 31.9 33.8503 31.9 32.5253 32.5C31.3442 33.202 30.1066 33.8041 28.8253 34.3C27.6253 34.15 12.9003 28.6 10.8753 27.8L11.3003 27.5C11.6003 27.275 11.9003 27.05 12.1753 26.8C12.8503 26.2 13.4753 25.575 14.1753 24.975C14.2657 24.921 14.3446 24.8497 14.4075 24.7651C14.4703 24.6805 14.5158 24.5843 14.5413 24.4821C14.5669 24.3799 14.572 24.2737 14.5564 24.1695C14.5407 24.0653 14.5047 23.9652 14.4503 23.875C14.3984 23.7825 14.3285 23.7012 14.2449 23.6359C14.1613 23.5706 14.0655 23.5226 13.9631 23.4947C13.8607 23.4667 13.7538 23.4595 13.6486 23.4733C13.5434 23.4871 13.442 23.5216 13.3503 23.575C12.4253 23.95 11.5753 24.25 10.8503 24.675C10.495 24.8507 10.1525 25.0512 9.82528 25.275C9.49538 25.4972 9.18583 25.7481 8.90028 26.025C8.65028 26.25 6.55028 28.525 6.67528 28.9C7.95028 33.175 9.90028 40.2 11.5003 45.6C12.1846 48.0492 13.0195 50.4537 14.0003 52.8C14.4421 53.624 15.0876 54.3212 15.8753 54.825C17.3723 55.798 18.9537 56.6347 20.6003 57.325C25.3503 59.45 28.1003 60.275 30.6003 60.05C33.975 59.3083 37.1696 57.9064 40.0003 55.925C42.0551 55.0467 44.051 54.0362 45.9753 52.9C46.703 52.4334 47.243 51.7253 47.5003 50.9C48.9003 43 50.5003 38.775 51.7503 32.9C52.5254 30.0824 53.0688 27.2062 53.3753 24.3ZM21.5503 54.825C20.2285 54.3303 18.9421 53.7456 17.7003 53.075C17.0253 52.7581 16.4407 52.2767 16.0003 51.675C15.0439 49.464 14.2093 47.2023 13.5003 44.9C11.7753 39.9 9.70028 33.375 8.27528 29.15L9.10028 28.725C12.5003 30.45 16.3003 32.5 20.2253 33.925C22.8022 34.9067 25.4632 35.6514 28.1753 36.15C27.9003 39.15 27.5253 41.4 27.3503 43.425C27.2418 45.0899 27.2418 46.7601 27.3503 48.425C27.5675 51.2542 28.0021 54.0625 28.6503 56.825C28.6833 56.9452 28.7432 57.0563 28.8253 57.15C26.3024 56.7233 23.853 55.9405 21.5503 54.825Z" fill="black"/>
</g>
<defs>
<clipPath id="clip0_161_6930">
<rect width="60" height="60" fill="white"/>
</clipPath>
</defs>
</svg>
