<svg width="60" height="60" viewBox="0 0 60 60" fill="none" xmlns="http://www.w3.org/2000/svg">
<path fill-rule="evenodd" clip-rule="evenodd" d="M48.8245 44.3C48.5745 40.925 48.3995 37.975 48.2495 35.05C48.0995 32.125 48.0245 29.15 47.9995 25.775C48.1231 23.6351 48.1231 21.4899 47.9995 19.35C47.9166 18.2927 47.6188 17.2634 47.1245 16.325C46.6311 15.4863 45.8347 14.8689 44.8995 14.6C43.1562 14.2758 41.3679 14.2758 39.6245 14.6C38.7245 14.6 37.8245 14.6 36.8995 14.75C36.8995 12.725 37.1495 11.25 37.1995 9.9V7.55C37.1552 6.97969 37.0801 6.4122 36.9745 5.85C36.9745 5.225 36.7495 5.025 36.1995 2.375H37.1995C38.0316 2.3106 38.8675 2.3106 39.6995 2.375C39.8079 2.40525 39.9212 2.4137 40.0328 2.39985C40.1444 2.38601 40.2522 2.35014 40.3499 2.29433C40.4475 2.23852 40.5332 2.16387 40.6018 2.07473C40.6704 1.98558 40.7206 1.8837 40.7495 1.775C40.8105 1.64302 40.8386 1.49823 40.8314 1.35302C40.8243 1.20781 40.782 1.0665 40.7083 0.941184C40.6346 0.815869 40.5316 0.710278 40.4082 0.633444C40.2847 0.556611 40.1445 0.510824 39.9995 0.5C39.0124 0.298138 38.0071 0.197617 36.9995 0.2C34.4995 0.2 31.3995 0.2 30.5495 0.025C28.6745 0 26.9745 0 24.9995 0C22.6745 0 20.1745 0.4 16.6995 0.75C16.5004 0.762385 16.3131 0.848739 16.1743 0.99212C16.0356 1.1355 15.9554 1.32556 15.9495 1.525C15.9528 1.62351 15.9754 1.72041 16.0161 1.81018C16.0568 1.89994 16.1148 1.9808 16.1868 2.04813C16.2587 2.11547 16.3433 2.16795 16.4356 2.20259C16.5278 2.23723 16.626 2.25334 16.7245 2.25L21.6745 2.5C21.6745 3.65 21.5495 4.625 21.5495 5.475V7.025C21.5965 7.72421 21.5965 8.42579 21.5495 9.125C21.5128 9.63267 21.5128 10.1423 21.5495 10.65C21.7245 12.125 22.1245 13.625 22.3995 15.375L17.9245 15.675C16.9237 15.7355 15.9377 15.9462 14.9995 16.3C14.232 16.5771 13.5508 17.0513 13.0245 17.675C12.2118 18.6772 11.6772 19.8757 11.4745 21.15C11.1898 22.8849 11.0643 24.6422 11.0995 26.4V33.9C11.0995 37.6 11.0995 41.2 11.2745 45.3C11.1836 47.4239 11.3092 49.5516 11.6495 51.65C11.874 52.7559 12.4021 53.7774 13.1745 54.6C14.14 55.3811 15.2965 55.8903 16.5245 56.075C17.0606 56.1971 17.6031 56.2889 18.1495 56.35C18.1249 56.5241 18.1249 56.7009 18.1495 56.875C18.3343 57.5414 18.5683 58.1932 18.8495 58.825C18.8728 58.935 18.9183 59.0391 18.9832 59.1308C19.0482 59.2226 19.1312 59.3001 19.2272 59.3587C19.3232 59.4172 19.4301 59.4555 19.5414 59.4712C19.6528 59.4869 19.7661 59.4797 19.8745 59.45C20.0932 59.3967 20.2818 59.2589 20.3989 59.0667C20.5161 58.8746 20.5523 58.6438 20.4995 58.425C20.4995 57.8 20.3745 57.175 20.2495 56.55L23.5745 56.7C27.3745 56.7 32.2995 56.9 36.6745 56.7C37.8745 56.7 38.9995 56.7 40.0745 56.55V56.875C40.0745 57.575 40.2745 58.275 40.3745 59C40.3745 59.2254 40.4641 59.4416 40.6235 59.601C40.7829 59.7604 40.9991 59.85 41.2245 59.85C41.45 59.85 41.6662 59.7604 41.8256 59.601C41.985 59.4416 42.0745 59.2254 42.0745 59C42.1528 58.2943 42.1945 57.585 42.1995 56.875V56.525C43.3858 56.4364 44.564 56.261 45.7245 56C46.5172 55.7806 47.2326 55.3434 47.7894 54.738C48.3461 54.1326 48.7221 53.3833 48.8745 52.575C49.2663 49.8293 49.2495 47.0407 48.8245 44.3ZM25.1245 2.8H30.6495C31.2245 2.8 32.8245 2.6 34.5245 2.425L34.2745 7.5V10.6C34.2745 11.675 34.5995 13.1 34.8995 14.725C32.3995 14.725 29.8995 14.95 27.3995 15.125L24.8995 15.275C24.7843 15.2492 24.6648 15.2492 24.5495 15.275H24.3995V9.25C24.4217 8.41298 24.3631 7.57577 24.2245 6.75C24.0245 5.65 23.6745 4.375 23.3495 2.65L25.1245 2.8ZM46.1495 50.95C45.9745 52.05 45.7495 53.1 44.8495 53.325C42.0911 53.7924 39.2972 54.0183 36.4995 54H23.5245C21.6114 54.0074 19.6996 53.8989 17.7995 53.675C16.7542 53.6395 15.7367 53.3291 14.8495 52.775C14.2759 52.1196 13.9333 51.294 13.8745 50.425C13.6702 48.7664 13.5783 47.096 13.5995 45.425C13.3995 41.35 13.2245 37.775 13.1245 34.1V26.6C13.0377 24.9307 13.1047 23.257 13.3245 21.6C13.4511 20.6242 13.8208 19.6958 14.3995 18.9C14.8267 18.3917 15.4046 18.0327 16.0495 17.875C16.7423 17.6737 17.4548 17.548 18.1745 17.5C20.6745 17.3 25.9745 17.125 27.6745 17.075C31.6745 16.9 35.7245 16.875 39.7245 16.65C41.0284 16.4962 42.3457 16.4962 43.6495 16.65C43.9553 16.6747 44.2515 16.7686 44.5156 16.9245C44.7798 17.0804 45.0051 17.2943 45.1745 17.55C45.5986 18.5007 45.8036 19.5345 45.7745 20.575C45.7745 22.45 45.6245 24.5 45.6245 25.925V35.275C45.6245 38.25 45.8495 41.225 46.0245 44.625C46.276 46.724 46.3179 48.8427 46.1495 50.95Z" fill="black"/>
<path fill-rule="evenodd" clip-rule="evenodd" d="M38.3742 23.55L34.4992 23.1C33.4492 23.1 32.5742 22.95 31.6992 22.975C30.3992 22.975 29.1992 23.15 27.5992 23.225L21.0992 24.225C20.9003 24.2482 20.7188 24.3495 20.5945 24.5065C20.4703 24.6636 20.4135 24.8636 20.4367 25.0625C20.4599 25.2614 20.5612 25.4429 20.7183 25.5672C20.8753 25.6914 21.0753 25.7482 21.2742 25.725L27.7492 26.025C28.7992 26.025 29.6742 26.025 30.4992 25.875C31.7992 25.875 32.9992 25.575 34.5492 25.425L38.4242 25.275C38.5359 25.2717 38.6458 25.2465 38.7477 25.2008C38.8496 25.1551 38.9414 25.0897 39.0181 25.0084C39.0947 24.9272 39.1545 24.8316 39.1942 24.7272C39.2339 24.6228 39.2526 24.5116 39.2492 24.4C39.2427 24.1723 39.1477 23.9561 38.9843 23.7974C38.8209 23.6386 38.602 23.5499 38.3742 23.55Z" fill="black"/>
<path fill-rule="evenodd" clip-rule="evenodd" d="M39.5494 43.375C39.5494 42.575 39.3994 41.825 39.3494 41.075C39.3494 39.275 39.3494 37.6 39.1494 35.625V33.125C39.1494 32.725 38.9994 31.1 38.9494 30.625C38.8994 30.15 37.4994 30 36.4994 30C34.7128 29.7268 32.9067 29.6014 31.0994 29.625H28.5994H26.8244C25.497 29.5917 24.1688 29.6502 22.8494 29.8C22.1697 29.8514 21.523 30.1136 20.9994 30.55C20.6913 30.9406 20.5318 31.4279 20.5494 31.925C20.5494 32.75 20.7244 33.775 20.7244 34.425C20.7244 34.575 20.7244 33.625 20.5744 43.825C20.5744 44.4 20.3244 45.475 20.3494 46.325C20.3518 46.8199 20.5289 47.298 20.8494 47.675C21.5242 48.362 22.3995 48.8172 23.3494 48.975C25.3135 49.2387 27.301 49.2807 29.2744 49.1H33.5744H35.4744C36.0604 49.0727 36.6446 49.0143 37.2244 48.925C37.5652 48.8581 37.8939 48.7401 38.1994 48.575C38.8116 48.2049 39.2588 47.6145 39.4494 46.925C39.7175 45.76 39.7515 44.5533 39.5494 43.375ZM37.7744 46.1C37.7658 46.311 37.7096 46.5172 37.6101 46.7034C37.5105 46.8896 37.3701 47.0508 37.1994 47.175C37.0425 47.249 36.8727 47.2915 36.6994 47.3H35.3994H33.6994H29.5494C28.0046 47.4549 26.451 47.505 24.8994 47.45C24.0532 47.5465 23.2007 47.3334 22.4994 46.85C22.3225 46.5758 22.2432 46.2499 22.2744 45.925C22.2744 45.2 22.4244 44.375 22.4244 43.875C22.4244 42.675 22.2494 32.4 22.2744 32.275C22.2552 32.0213 22.3359 31.7701 22.4994 31.575C22.9805 31.2841 23.538 31.1447 24.0994 31.175H27.2744H31.2494C32.7399 31.1345 34.2307 31.2434 35.6994 31.5C36.4744 31.675 37.2244 31.5 37.3744 32.15C37.3994 32.6164 37.3994 33.0837 37.3744 33.55V35.9V40.45C37.3744 41.425 37.3744 42.425 37.5994 43.525C37.7731 44.3716 37.8319 45.2377 37.7744 46.1Z" fill="black"/>
</svg>
