<svg width="60" height="60" viewBox="0 0 60 60" fill="none" xmlns="http://www.w3.org/2000/svg">
<g clip-path="url(#clip0_161_6822)">
<path d="M0.974542 14.9999C1.37454 14.9999 2.89954 15.4249 3.87454 15.5999C3.61736 17.0516 3.54178 18.5296 3.64954 19.9999C4.17454 21.9999 6.14954 22.4999 8.32454 22.1749C8.55661 22.1749 8.77917 22.0827 8.94326 21.9186C9.10735 21.7546 9.19954 21.532 9.19954 21.2999C9.19954 21.0679 9.10735 20.8453 8.94326 20.6812C8.77917 20.5171 8.55661 20.4249 8.32454 20.4249C7.82824 20.3859 7.34002 20.2765 6.87454 20.0999C6.52111 18.247 6.37854 16.36 6.44954 14.4749C6.44954 14.2499 6.87454 11.9749 6.44954 11.4499C6.02454 10.9249 5.39954 10.8749 4.94954 11.8749C4.77454 12.2999 4.47454 13.1999 4.29954 13.7749L2.49954 13.1499C2.8084 11.9356 3.19248 10.7416 3.64954 9.57493C3.99954 8.54993 3.47454 6.57493 8.14954 6.07493C8.39954 6.07493 7.82454 7.14993 8.92454 8.87493C9.46607 9.46794 10.1775 9.87931 10.9615 10.0529C11.7456 10.2264 12.5642 10.1537 13.3054 9.84466C14.0466 9.53559 14.6743 9.00525 15.1028 8.32607C15.5313 7.64689 15.7397 6.85199 15.6995 6.04993C16.8599 6.22797 17.9883 6.57322 19.0495 7.07493C19.9394 8.72525 20.7081 10.4381 21.3495 12.1999C20.8495 12.3999 20.1995 12.5749 19.7245 12.7249C19.4745 11.7249 18.1745 9.34993 17.4745 10.3749C17.0165 11.0802 16.8071 11.9183 16.8796 12.7562C16.952 13.594 17.3022 14.3837 17.8745 14.9999C17.9077 15.1988 18.0185 15.3764 18.1826 15.4936C18.3467 15.6109 18.5506 15.6581 18.7495 15.6249C18.9485 15.5918 19.1261 15.481 19.2433 15.3169C19.3605 15.1528 19.4077 14.9488 19.3745 14.7499V14.3749C20.6723 14.2967 21.9606 14.1043 23.2245 13.7999C25.0245 12.8999 22.4495 5.29993 19.6745 4.67493C18.3419 4.35018 16.9699 4.21551 15.5995 4.27493C15.3995 4.27493 13.8245 4.59993 13.8245 5.44993C13.7699 6.02582 13.5024 6.56064 13.0745 6.94993C12.7991 7.09769 12.4853 7.15869 12.1745 7.12493C10.5995 7.24993 10.3245 6.89993 10.0495 6.39993C9.42454 5.34993 9.72454 4.44993 8.02454 4.27493C6.10307 4.09353 4.17265 4.51281 2.49954 5.47493C1.28543 7.22722 0.4978 9.23909 0.199542 11.3499C-0.000457741 12.6499 -0.300458 14.6999 0.974542 14.9999Z" fill="black"/>
<path d="M35.4248 13.8749C36.6888 14.1793 37.9771 14.3717 39.2748 14.4499C39.2748 14.4499 39.2748 14.6749 39.2748 14.8249C39.2583 15.0193 39.3157 15.2129 39.4356 15.3669C39.5555 15.5209 39.7291 15.6239 39.9217 15.6555C40.1143 15.6871 40.3117 15.6448 40.4745 15.5372C40.6373 15.4295 40.7535 15.2644 40.7998 15.0749C41.3903 14.4533 41.7516 13.6493 41.8243 12.795C41.897 11.9408 41.6768 11.0873 41.1998 10.3749C40.4748 9.34987 39.1998 11.7249 38.9498 12.7249C38.5748 12.4999 37.9248 12.4999 37.4998 12.1999C38.1412 10.4784 38.91 8.80708 39.7998 7.19987C40.8645 6.70687 41.9916 6.362 43.1498 6.17487C43.0248 8.82487 44.9498 10.9499 48.5498 9.97487C49.8748 9.44987 50.6498 8.47487 50.6498 6.19987C55.2748 6.69987 54.7998 8.69987 55.1498 9.69987C55.6069 10.8665 55.991 12.0605 56.2998 13.2749L54.4748 13.9749C54.2998 13.3999 53.9998 12.4999 53.8248 12.0749C53.3748 11.0749 52.4498 11.3999 52.3248 11.6499C52.1998 11.8999 52.3248 14.4499 52.3248 14.6749C52.3958 16.5599 52.2533 18.4469 51.8998 20.2999C51.4344 20.4764 50.9461 20.5858 50.4498 20.6249C50.2178 20.6249 49.9952 20.7171 49.8311 20.8811C49.667 21.0452 49.5748 21.2678 49.5748 21.4999C49.5748 21.7319 49.667 21.9545 49.8311 22.1186C49.9952 22.2827 50.2178 22.3749 50.4498 22.3749C52.4998 22.4999 54.5998 22.0999 55.1248 19.9999C55.2615 18.5502 55.2195 17.0893 54.9998 15.6499C55.9748 15.4749 57.4998 15.1499 57.8998 15.0499C59.1748 14.6999 58.9248 12.5499 58.6748 11.3499C58.3652 9.24204 57.5785 7.23269 56.3748 5.47487C54.6611 4.50299 52.6801 4.10854 50.7248 4.34987C47.7998 4.62487 49.9998 7.49987 46.4748 7.19987C46.1641 7.23363 45.8503 7.17262 45.5748 7.02487C45.1469 6.63558 44.8795 6.10076 44.8248 5.52487C44.8248 4.67487 43.2498 4.34987 43.0498 4.34987C41.6793 4.28669 40.3069 4.4214 38.9748 4.74987C36.1748 5.37487 33.6248 12.9749 35.4248 13.8749Z" fill="black"/>
<path d="M18.6993 53.05C15.3727 53.7969 11.9013 53.5713 8.69934 52.4C6.72789 52.0615 4.94897 51.012 3.69934 49.45C3.40022 49.0492 3.19184 48.5881 3.08863 48.0987C2.98542 47.6093 2.98986 47.1033 3.10163 46.6158C3.2134 46.1283 3.42983 45.6709 3.73593 45.2754C4.04203 44.8798 4.43047 44.5555 4.87434 44.325C5.24934 44.125 7.62434 43.025 8.69934 42.575C6.87434 46.475 6.92434 46.475 7.47434 47C8.82434 48.35 10.9243 43.8 11.5743 42.775C12.2243 41.75 12.4243 41.075 11.6993 40.275C11.1414 39.7148 10.4413 39.3172 9.67434 39.125C8.79934 38.85 1.17434 37.7 3.32434 39.5C4.28328 40.4074 5.46475 41.0455 6.74934 41.35C5.40481 41.8187 4.10741 42.413 2.87434 43.125C1.68829 43.9898 0.867163 45.2655 0.571306 46.7032C0.275448 48.1409 0.52611 49.6372 1.27434 50.9C2.01066 52.0332 2.98026 52.9962 4.1184 53.7248C5.25653 54.4533 6.53702 54.9307 7.87434 55.125C11.6267 56.0379 15.5645 55.8293 19.1993 54.525C19.2962 54.4922 19.3856 54.4406 19.4625 54.3732C19.5395 54.3058 19.6023 54.2239 19.6476 54.1322C19.6929 54.0405 19.7196 53.9408 19.7264 53.8388C19.7331 53.7367 19.7197 53.6344 19.6868 53.5375C19.654 53.4407 19.6024 53.3512 19.535 53.2743C19.4676 53.1974 19.3858 53.1345 19.2941 53.0893C19.2024 53.044 19.1026 53.0172 19.0006 53.0105C18.8986 53.0038 18.7962 53.0172 18.6993 53.05Z" fill="black"/>
<path d="M59.9998 46.675C59.3248 43.325 56.9998 42.65 53.8498 41.35C55.1344 41.0455 56.3159 40.4074 57.2748 39.5C59.4248 37.7 51.7998 38.85 50.9248 39.125C49.6498 39.475 48.1748 40.4 48.4248 41.625C48.5507 42.0177 48.7362 42.3887 48.9748 42.725C49.6248 43.75 51.7248 48.3 53.0748 46.95C53.6748 46.4 53.6248 46.3 51.8498 42.525C52.9248 42.975 55.3248 44.1 55.6748 44.275C56.2611 44.6264 56.741 45.1303 57.0633 45.733C57.3856 46.3358 57.5383 47.0147 57.5049 47.6974C57.4715 48.3801 57.2534 49.0409 56.8739 49.6094C56.4943 50.1778 55.9676 50.6325 55.3498 50.925C52.7226 52.2779 49.8648 53.1259 46.9248 53.425C42.3498 53.75 41.1998 52.3 40.8248 53.55C40.7769 53.7454 40.8043 53.9516 40.9016 54.1277C40.9989 54.3037 41.1589 54.4367 41.3498 54.5C43.881 55.4303 46.5812 55.8111 49.271 55.6172C51.9607 55.4232 54.5783 54.6589 56.9498 53.375C58.0614 52.6827 58.9439 51.6775 59.4865 50.4856C60.0291 49.2936 60.2077 47.968 59.9998 46.675Z" fill="black"/>
<path d="M42.4994 44.9998C43.4994 42.9748 42.2494 36.5998 41.8244 34.3748C43.9387 34.1903 46.0363 33.8477 48.0994 33.3498C50.4744 32.0498 46.4494 20.6248 42.5994 19.6248C40.0994 18.9998 33.7494 17.7998 33.7494 20.2998C33.7042 21.351 33.2567 22.3445 32.4994 23.0748C31.7442 23.4437 30.9148 23.6355 30.0744 23.6355C29.2339 23.6355 28.4046 23.4437 27.6494 23.0748C27.3105 22.7266 27.0241 22.3307 26.7994 21.8998C25.4744 19.3998 25.8244 18.8498 23.9994 18.7248C20.9733 18.435 17.9306 19.0714 15.2744 20.5498C13.7744 21.6498 12.1244 27.7248 11.7244 29.6498C11.3244 31.5748 10.8494 34.4498 12.5494 34.9498C13.3744 35.1748 16.9744 36.0498 18.1244 36.1998C17.6898 38.5938 17.439 41.0176 17.3744 43.4498C17.5347 44.209 17.8986 44.9103 18.4271 45.4784C18.9556 46.0466 19.6287 46.4602 20.3744 46.6748C21.5804 47.0925 22.8481 47.3038 24.1244 47.2998C28.4244 47.4998 40.9494 48.2498 42.4994 44.9998ZM41.1994 31.3248C40.1494 26.5748 38.6994 28.5748 38.6994 29.2748C38.6994 30.4748 39.5244 34.2748 39.8744 39.2748C40.1244 42.9998 40.1744 43.4248 38.9244 43.6748C33.9372 44.1139 28.9279 44.2475 23.9244 44.0748C22.7744 44.0748 20.7744 44.0748 20.0494 43.1748C19.8494 42.9498 19.9244 43.5748 20.0494 34.5998C20.3517 33.1068 20.5522 31.595 20.6494 30.0748C20.5092 29.9475 20.3379 29.8594 20.1528 29.8196C19.9677 29.7797 19.7754 29.7895 19.5952 29.8478C19.4151 29.9062 19.2535 30.0111 19.127 30.1519C19.0004 30.2927 18.9133 30.4645 18.8744 30.6498C18.5994 31.4748 18.1744 33.4998 18.0494 34.1748C17.5494 34.1748 14.5244 32.9748 13.8744 32.7498C14.8194 29.4685 15.9803 26.2531 17.3494 23.1248C19.4028 21.6275 21.8831 20.8299 24.4244 20.8498C24.4095 22.4211 24.862 23.9613 25.7244 25.2748C26.4056 25.9702 27.2469 26.4879 28.1747 26.7824C29.1025 27.0769 30.0884 27.1392 31.0459 26.964C32.0034 26.7888 32.9033 26.3814 33.6667 25.7774C34.4301 25.1734 35.0336 24.3914 35.4244 23.4998C35.7855 22.6287 35.9642 21.6927 35.9494 20.7498C36.0573 20.764 36.1665 20.764 36.2744 20.7498C38.1712 20.9784 40.0242 21.4838 41.7744 22.2498C42.8494 22.6748 45.5744 29.9498 45.8994 31.1748C45.8994 31.5998 42.5244 32.1248 41.5244 32.6248L41.1994 31.3248Z" fill="black"/>
</g>
<defs>
<clipPath id="clip0_161_6822">
<rect width="60" height="60" fill="white"/>
</clipPath>
</defs>
</svg>
