<svg width="60" height="60" viewBox="0 0 60 60" fill="none" xmlns="http://www.w3.org/2000/svg">
<g clip-path="url(#clip0_168_4966)">
<path d="M58.1505 21.1001C55.8255 20.0001 51.7755 20.0001 43.8755 19.6251C43.8755 19.4251 43.0255 13.2751 43.0005 13.0501C42.5005 10.0001 41.2005 3.80008 44.2255 3.27508C44.4755 3.27508 44.6755 3.40008 44.8755 3.57508C49.2255 7.10008 48.4005 18.9751 51.0255 19.2001C51.1452 19.2143 51.2666 19.2028 51.3815 19.1665C51.4965 19.1302 51.6024 19.0698 51.6923 18.9894C51.7821 18.909 51.8538 18.8105 51.9026 18.7002C51.9515 18.59 51.9763 18.4706 51.9755 18.3501C51.9755 18.1251 50.2755 5.85008 48.2755 3.05008C47.0755 1.47508 45.7255 7.62828e-05 43.7005 0.400076C42.8108 0.552425 41.9857 0.963126 41.3278 1.58103C40.6698 2.19894 40.2082 2.99674 40.0005 3.87508C39.1755 6.72508 40.4505 11.0501 41.0505 13.4751C41.2755 14.3751 42.0755 18.4751 42.4755 19.5751C40.1755 19.5751 25.2505 19.1251 21.0005 19.0501C23.3005 13.1751 25.6255 10.1501 25.7755 5.60008C25.9126 4.79748 25.8318 3.9728 25.5416 3.21206C25.2513 2.45133 24.7623 1.7824 24.1255 1.27508C23.328 0.98706 22.4744 0.889066 21.6324 0.988885C20.7905 1.0887 19.9834 1.38358 19.2755 1.85008C15.6255 4.65008 13.9005 10.5751 12.5005 14.6501C11.805 16.0118 11.236 17.4344 10.8005 18.9001H10.1505C6.97546 18.5751 1.75046 19.4001 0.350459 22.9751C0.122293 23.4404 -0.0108434 23.9465 -0.0411688 24.4639C-0.0714942 24.9813 0.00159917 25.4995 0.17384 25.9883C0.346081 26.4771 0.614015 26.9266 0.961984 27.3107C1.30995 27.6947 1.73098 28.0056 2.20046 28.2251L3.07546 28.5501C3.13989 29.1968 3.24004 29.8394 3.37546 30.4751C4.60046 41.0251 4.55046 54.8001 14.2505 57.6751C18.414 58.8403 22.7038 59.4951 27.0255 59.6251C33.7375 59.8209 40.4494 59.2336 47.0255 57.8751C55.1005 55.2001 55.0005 47.6501 56.0505 40.3751C56.6549 37.6934 57.0478 34.9683 57.2255 32.2251C57.2255 31.9963 57.1346 31.7769 56.9728 31.6152C56.8111 31.4534 56.5917 31.3626 56.363 31.3626C56.1342 31.3626 55.9148 31.4534 55.7531 31.6152C55.5913 31.7769 55.5005 31.9963 55.5005 32.2251C55.238 34.8458 54.7868 37.4442 54.1505 40.0001C52.9005 46.9501 52.9505 53.3251 46.3005 55.3001C44.0831 55.8038 41.823 56.0968 39.5505 56.1751C31.3619 57.2344 23.0504 56.8366 15.0005 55.0001C5.95046 52.6751 6.72546 36.2751 4.60046 29.1001C6.29278 29.4235 8.00501 29.6323 9.72546 29.7251C10.4005 29.7251 47.7005 30.0751 51.0255 30.0001C52.9933 29.9974 54.955 29.7795 56.8755 29.3501C57.6922 29.0755 58.4178 28.5817 58.9728 27.9226C59.5278 27.2635 59.891 26.4645 60.0226 25.6129C60.1542 24.7614 60.0492 23.89 59.719 23.0941C59.3888 22.2982 58.8462 21.6084 58.1505 21.1001ZM14.3005 15.4001C15.7005 12.5001 18.4505 6.05008 21.0255 4.20008C23.6005 2.35008 23.0755 6.70008 22.5005 9.20008C21.7005 12.4001 18.9755 18.2001 19.2755 19.2001L12.5005 18.9251C12.3255 18.4251 13.7505 16.5751 14.3005 15.4001ZM56.5005 27.2501C52.0505 28.2501 44.9505 27.2501 38.4755 27.2501C16.9255 26.7501 10.7005 27.2501 5.15046 26.1751C3.47546 25.8501 2.45046 25.7001 3.05046 24.1001C3.85046 22.0251 8.42546 21.6001 9.95046 21.7251C15.0755 22.0501 51.9255 20.1501 57.4505 22.8751C58.5255 23.4001 58.3505 26.8251 56.5005 27.2501Z" fill="black"/>
<path d="M17.7255 33.425C16.5255 32.25 14.2755 35.4 14.1255 38.425C13.9279 40.4939 13.8444 42.572 13.8755 44.65C14.3755 52.15 20.8255 54.125 22.2505 50.025C22.6595 46.0081 22.164 41.9505 20.8005 38.15C20.1256 36.373 19.0769 34.7617 17.7255 33.425ZM19.6505 50C19.2505 50.125 18.9005 49.725 18.5505 49.425C17.392 48.2148 16.6554 46.6628 16.4505 45C14.5255 32.25 19.8005 34.15 19.8505 47C19.8505 47.1 20.0005 50 19.6505 50Z" fill="black"/>
<path d="M43.3751 33.9251C39.9501 37.2251 39.1001 41.7251 38.7251 46.4251C38.5501 48.9251 38.3251 51.4251 40.7251 52.2751C41.801 52.4379 42.9007 52.2452 43.8572 51.7264C44.8137 51.2075 45.5749 50.3907 46.0251 49.4001C47.8251 45.9751 47.1501 42.4001 46.9501 38.7751C46.8251 35.9001 44.5751 32.7751 43.3751 33.9251ZM44.6251 45.4001C44.4719 47.1335 43.7206 48.7597 42.5001 50.0001C42.1751 50.3001 41.8251 50.7001 41.4251 50.5751C41.0251 50.4501 41.2001 47.6001 41.2251 47.3751C41.3001 34.5501 46.5751 32.6501 44.6251 45.4001Z" fill="black"/>
<path d="M31.6758 33.9001C31.1008 33.2751 27.6008 32.2501 27.3508 37.5001C26.9508 45.1751 26.1258 48.5751 28.1008 50.8251C30.0758 53.0751 34.6258 51.8251 34.1758 43.3251C34.0508 41.1251 33.1508 35.5751 31.6758 33.9001ZM30.3008 48.9001C29.4508 49.1501 29.5508 41.5251 29.2258 37.4751C28.9008 33.4251 30.9508 36.7751 31.0758 37.4751C31.392 39.1239 31.5677 40.7965 31.6008 42.4751C31.6258 43.9501 31.2008 48.6751 30.3008 48.9251V48.9001Z" fill="black"/>
</g>
<defs>
<clipPath id="clip0_168_4966">
<rect width="60" height="60" fill="white"/>
</clipPath>
</defs>
</svg>
