<svg width="60" height="60" viewBox="0 0 60 60" fill="none" xmlns="http://www.w3.org/2000/svg">
<path d="M58.0242 27.075C57.7346 25.0102 56.868 23.0691 55.5242 21.475C53.4788 19.4382 51.1143 17.7492 48.5242 16.475C46.8992 15.55 45.3492 14.725 43.7742 13.975C42.8643 13.5583 41.9291 13.1992 40.9742 12.9V12.1C40.4492 7.87495 35.2742 7.82495 34.7742 7.92495C33.9441 8.13458 33.1955 8.58724 32.6242 9.22495C31.5225 10.2966 30.5872 11.5268 29.8492 12.875C28.7654 14.8063 27.8374 16.821 27.0742 18.9C26.4571 20.4097 26.369 22.0838 26.8242 23.65C27.1965 24.8412 28.0227 25.838 29.1242 26.425C30.108 27.0441 31.2688 27.3209 32.4261 27.2124C33.5835 27.1039 34.6726 26.6162 35.5242 25.825H35.6492L38.0242 26.875L34.1742 35.95C33.8242 36.75 31.4242 42.4999 29.7992 46.8499C29.1155 48.5376 28.5964 50.2874 28.2492 52.075C28.0923 53.2984 28.3364 54.5397 28.9449 55.6125C29.5535 56.6854 30.4936 57.5319 31.6242 58.0249C32.8041 58.4468 34.087 58.4854 35.2901 58.1352C36.4931 57.7851 37.555 57.0641 38.3242 56.075C39.447 54.0973 40.3683 52.0118 41.0742 49.85C43.0992 44.275 45.1992 37.0249 45.7492 35.3749C45.7492 35.2249 46.8492 32.5 47.1742 31.4V31.2249L47.7992 31.5C48.9492 32.025 50.0242 32.475 50.9492 32.85C52.0871 33.458 53.2748 33.9682 54.4992 34.375C55.1233 34.5176 55.7775 34.438 56.3492 34.15C56.7921 33.9001 57.177 33.5593 57.4787 33.1499C57.7803 32.7406 57.9918 32.272 58.0992 31.775C58.3561 30.2165 58.3307 28.6245 58.0242 27.075ZM30.5242 24.025C30.2324 23.8707 29.9781 23.6541 29.7793 23.3905C29.5806 23.127 29.4423 22.8229 29.3742 22.5C29.2639 21.6566 29.3583 20.7991 29.6492 20C30.2116 17.9967 30.9305 16.0407 31.7992 14.15C32.3349 12.9251 33.0512 11.7874 33.9242 10.775C34.4242 10.225 34.7492 9.79995 35.3992 9.79995C36.0492 9.79995 38.8242 9.79995 38.9992 12.5C38.9223 14.2425 38.4704 15.948 37.6742 17.5C36.8378 19.8498 35.5274 22.0027 33.8242 23.825C33.3603 24.2314 32.7742 24.4717 32.1585 24.5079C31.5428 24.5441 30.9326 24.3742 30.4242 24.025H30.5242ZM45.5242 30.875V31.1249C45.1492 32.1999 43.9992 34.85 43.9242 35C43.3242 36.6 40.8742 43.725 38.6242 49.2C37.9119 51.1348 37.0249 53.0009 35.9742 54.775C35.5788 55.2394 35.0482 55.5685 34.4565 55.7165C33.8647 55.8644 33.2416 55.8237 32.6742 55.5999C31.7242 55.2249 31.0992 54.2 31.1242 52.375C31.5767 50.3555 32.1613 48.3678 32.8742 46.4249C34.2242 42.3249 35.8242 37.675 36.0742 36.975L39.3992 27.775L45.6242 30.75C45.6021 30.7933 45.577 30.835 45.5492 30.875H45.5242ZM51.8242 30.5999C50.4742 30.1499 48.8742 29.55 47.1742 28.875C43.5742 27.425 39.6742 25.725 36.6742 24.65C38.0163 22.6679 39.0686 20.5044 39.7992 18.225C40.2313 17.0737 40.5577 15.8854 40.7742 14.675C41.5282 14.9704 42.2629 15.3128 42.9742 15.7C44.4242 16.475 45.8742 17.4 47.3492 18.375C49.5918 19.6768 51.6234 21.3122 53.3742 23.225C54.3612 24.4541 54.9847 25.9349 55.1742 27.5C55.3114 28.4528 55.3948 29.4127 55.4242 30.3749C55.4742 32.6749 52.4992 30.7999 51.8492 30.5999H51.8242Z" fill="black"/>
<path d="M18.8746 20.6749C19.441 18.975 19.5531 17.1565 19.1996 15.3999C19.099 14.7553 18.8965 14.1309 18.5996 13.5499C18.2137 12.9399 17.645 12.4675 16.9746 12.1999H16.4496C15.6182 12.1196 14.781 12.1196 13.9496 12.1999C13.5354 12.3448 13.1769 12.6158 12.9246 12.9749C12.5946 13.3773 12.3558 13.8464 12.2246 14.3499C12.1003 14.7095 12.0001 15.077 11.9246 15.4499L9.74961 14.9999H8.39961C7.9416 14.9754 7.48262 14.9754 7.02461 14.9999C6.07461 14.9999 5.14961 15.2999 4.17461 15.4249L3.72461 6.87493L3.52461 2.62493C3.52461 2.62493 3.64961 0.324932 2.87461 0.124932C1.52461 -0.400068 1.89961 2.09993 1.89961 2.69993V6.87493L1.72461 19.9999V35.6499C1.89961 43.4499 2.32461 51.2499 2.49961 59.0749C2.50612 59.3026 2.60117 59.5188 2.76456 59.6776C2.92796 59.8363 3.14681 59.925 3.37461 59.9249C3.60004 59.9249 3.81624 59.8354 3.97565 59.676C4.13506 59.5166 4.22461 59.3004 4.22461 59.0749C4.42461 51.2499 4.57461 43.4249 4.54961 35.6249C4.54961 30.3999 4.37461 25.1999 4.34961 19.9999L4.24961 17.1749C5.13605 17.4317 6.03785 17.6321 6.94961 17.7749C7.41557 17.8113 7.88365 17.8113 8.34961 17.7749C8.81593 17.8005 9.28329 17.8005 9.74961 17.7749L11.6746 17.4999C11.6496 17.8245 11.6496 18.1504 11.6746 18.4749C11.6948 19.1698 11.8387 19.8555 12.0996 20.4999C12.3247 21.1129 12.7145 21.652 13.2261 22.0578C13.7378 22.4636 14.3514 22.7204 14.9996 22.7999C15.7914 22.9454 16.6091 22.8135 17.3149 22.4264C18.0208 22.0393 18.5716 21.4207 18.8746 20.6749ZM16.6996 18.9999C16.6785 19.1575 16.6257 19.3091 16.5443 19.4456C16.4629 19.5821 16.3547 19.7007 16.2261 19.7942C16.0976 19.8877 15.9514 19.9541 15.7965 19.9895C15.6415 20.0248 15.481 20.0284 15.3246 19.9999C14.5996 19.9999 14.5246 19.0999 14.3996 18.3249C14.2246 17.1816 14.2246 16.0183 14.3996 14.8749C14.3996 14.8749 14.5496 14.0749 14.7496 13.9249C15.0027 13.8177 15.2747 13.7624 15.5496 13.7624C15.8245 13.7624 16.0965 13.8177 16.3496 13.9249C16.6746 13.9249 16.8246 14.3499 16.9496 14.6249C17.0808 15.0022 17.1401 15.4008 17.1246 15.7999C17.169 16.8831 17.0252 17.9659 16.6996 18.9999Z" fill="black"/>
<path d="M21.0997 2.14987C21.0059 2.09461 20.9014 2.05976 20.7932 2.04758C20.685 2.03541 20.5754 2.04618 20.4716 2.07921C20.3678 2.11223 20.2721 2.16676 20.1908 2.23924C20.1095 2.31173 20.0444 2.40053 19.9997 2.49987C19.4997 3.04987 18.9997 3.39987 18.5497 3.94987C18.3768 4.16763 18.2261 4.40213 18.0997 4.64987C17.9625 4.89841 17.8455 5.15758 17.7497 5.42487C17.4997 6.07487 17.4997 6.69987 17.2497 7.49987C17.137 7.69878 17.1079 7.93432 17.1689 8.15468C17.2298 8.37503 17.3758 8.56215 17.5747 8.67487C17.7737 8.78758 18.0092 8.81667 18.2296 8.75572C18.4499 8.69477 18.637 8.54878 18.7497 8.34987C19.2503 7.88354 19.7259 7.39119 20.1747 6.87487C20.3717 6.6499 20.5475 6.4072 20.6997 6.14987C20.8519 5.90016 20.9696 5.63106 21.0497 5.34987C21.2357 4.66093 21.3695 3.95894 21.4497 3.24987C21.505 3.15601 21.5399 3.05155 21.552 2.94332C21.5642 2.83508 21.5534 2.72549 21.5204 2.6217C21.4874 2.51791 21.4328 2.42225 21.3604 2.34095C21.2879 2.25965 21.1991 2.19454 21.0997 2.14987Z" fill="black"/>
<path d="M12.2245 25.4749C12.0184 25.3792 11.7831 25.3675 11.5685 25.4421C11.3539 25.5168 11.1767 25.672 11.0745 25.8749C10.5745 26.4499 10.1245 26.8999 9.7245 27.4499C9.5563 27.6886 9.4059 27.9392 9.2745 28.1999C9.14167 28.4619 9.04095 28.7389 8.9745 29.0249C8.82685 29.7242 8.74317 30.4355 8.7245 31.1499C8.6835 31.2417 8.66134 31.3407 8.65933 31.4411C8.65732 31.5415 8.67551 31.6413 8.71282 31.7346C8.75013 31.8279 8.8058 31.9127 8.87651 31.9841C8.94723 32.0554 9.03156 32.1118 9.1245 32.1499C9.31362 32.2244 9.52441 32.2215 9.71145 32.142C9.8985 32.0625 10.0468 31.9128 10.1245 31.7249C10.5995 31.1499 11.0495 30.7499 11.4745 30.1749C11.6308 29.9422 11.7728 29.7001 11.8995 29.4499C12.0061 29.1887 12.098 28.9216 12.1745 28.6499C12.3745 27.9999 12.4495 27.3749 12.6245 26.6249C12.7202 26.4188 12.732 26.1836 12.6573 25.969C12.5827 25.7543 12.4275 25.5772 12.2245 25.4749Z" fill="black"/>
<path d="M9.99924 6.05004C9.99924 6.30004 10.1742 6.57504 10.2742 6.85004C10.3742 7.12504 10.8742 8.00004 11.1992 8.67504C11.22 8.78781 11.2633 8.89522 11.3266 8.9908C11.39 9.08638 11.472 9.16816 11.5677 9.23122C11.6635 9.29428 11.771 9.33732 11.8838 9.35774C11.9967 9.37816 12.1125 9.37554 12.2242 9.35004C12.4441 9.29642 12.6346 9.15969 12.7558 8.96856C12.877 8.77744 12.9195 8.54679 12.8742 8.32504C12.9106 7.63385 12.9106 6.94123 12.8742 6.25004C12.9125 5.95963 12.9125 5.66546 12.8742 5.37504C12.8091 5.08382 12.717 4.79926 12.5992 4.52504C12.2758 3.88884 11.8906 3.28595 11.4492 2.72504C11.4236 2.63008 11.3789 2.54134 11.3178 2.46422C11.2567 2.38709 11.1806 2.3232 11.0941 2.27642C11.0076 2.22965 10.9124 2.20097 10.8145 2.19214C10.7165 2.18331 10.6177 2.1945 10.5242 2.22504C10.4289 2.25106 10.3396 2.29568 10.2616 2.35631C10.1835 2.41695 10.1182 2.49242 10.0694 2.57839C10.0206 2.66435 9.98931 2.7591 9.97727 2.85721C9.96522 2.95532 9.97269 3.05483 9.99924 3.15004V5.20004V6.05004Z" fill="black"/>
<path d="M19.9993 29.2249C19.9048 28.9608 19.7789 28.709 19.6243 28.4749C19.4892 28.2206 19.3211 27.9852 19.1243 27.7749C18.6993 27.2499 18.2243 26.8249 17.7243 26.2749C17.605 26.0832 17.4179 25.9434 17.2002 25.8832C16.9826 25.823 16.7503 25.8468 16.5493 25.9499C16.447 26.0018 16.3567 26.0745 16.284 26.1633C16.2114 26.2521 16.1581 26.3551 16.1275 26.4657C16.0969 26.5763 16.0897 26.692 16.1064 26.8055C16.1231 26.919 16.1633 27.0278 16.2243 27.1249C16.4243 27.8499 16.5493 28.4749 16.7743 29.1249C16.8652 29.4021 16.9824 29.67 17.1243 29.9249C17.2678 30.1818 17.4352 30.4245 17.6243 30.6499C18.1319 31.1548 18.675 31.6226 19.2493 32.0499C19.3022 32.1354 19.3723 32.209 19.4551 32.2659C19.5379 32.3229 19.6316 32.362 19.7304 32.3809C19.8291 32.3997 19.9307 32.3977 20.0286 32.3752C20.1266 32.3526 20.2188 32.31 20.2993 32.2499C20.4652 32.1378 20.5812 31.9659 20.6232 31.7702C20.6651 31.5745 20.6297 31.3701 20.5243 31.1999C20.2743 30.4999 20.2243 29.9999 19.9993 29.2249Z" fill="black"/>
</svg>
