<svg width="60" height="60" viewBox="0 0 60 60" fill="none" xmlns="http://www.w3.org/2000/svg">
<g clip-path="url(#clip0_168_4965)">
<path fill-rule="evenodd" clip-rule="evenodd" d="M51.5002 23.25C50.7826 23.3529 50.0886 23.5814 49.4502 23.925C49.1665 24.0768 48.8911 24.2438 48.6252 24.425C48.6252 24.425 48.6252 24.2 48.6252 24.1C48.558 23.7896 48.422 23.4982 48.2273 23.2473C48.0327 22.9963 47.7842 22.7922 47.5002 22.65C47.2546 22.5483 46.991 22.4973 46.7252 22.5C46.8336 22.4936 46.9397 22.4659 47.0374 22.4184C47.1351 22.371 47.2224 22.3047 47.2944 22.2234C47.3664 22.1421 47.4217 22.0474 47.457 21.9447C47.4923 21.842 47.507 21.7334 47.5002 21.625C47.4275 18.4449 46.4757 15.3472 44.7502 12.675C43.0201 9.86719 40.4224 7.69948 37.3502 6.49997C36.2989 6.12747 35.2085 5.87585 34.1002 5.74997C34.3378 5.46278 34.5163 5.13142 34.6252 4.77497C34.7597 4.21477 34.7548 3.63016 34.611 3.0723C34.4671 2.51444 34.1888 2.00033 33.8002 1.57497C33.0772 0.703249 32.0491 0.139994 30.9252 -3.43571e-05C30.2499 -0.0420616 29.5757 0.0981975 28.9731 0.406065C28.3706 0.713932 27.8619 1.17809 27.5002 1.74997C27.1573 2.30611 26.9758 2.94661 26.9758 3.59997C26.9758 4.25332 27.1573 4.89382 27.5002 5.44997C27.5002 5.62497 27.7752 5.77497 27.9002 5.92497C25.0911 6.42315 22.407 7.4679 20.0002 8.99997C18.2336 10.2025 16.8048 11.8379 15.8502 13.75C14.5544 16.4439 13.7098 19.3323 13.3502 22.3C13.3285 22.3971 13.3271 22.4977 13.3459 22.5954C13.3648 22.6931 13.4036 22.7859 13.4599 22.868C13.5162 22.9501 13.5887 23.0197 13.6731 23.0725C13.7575 23.1253 13.8518 23.1602 13.9502 23.175C14.0526 23.1927 14.1576 23.1889 14.2584 23.1639C14.3593 23.1389 14.4538 23.0932 14.5361 23.0298C14.6183 22.9663 14.6865 22.8864 14.7363 22.7952C14.7861 22.704 14.8164 22.6035 14.8252 22.5C15.3705 19.7975 16.3409 17.1985 17.7002 14.8C18.5821 13.2976 19.829 12.0422 21.3252 11.15C23.6406 9.84081 26.1874 8.99189 28.8252 8.64997C31.3799 8.18572 34.0076 8.32267 36.5002 9.04997C39.0901 9.92843 41.3264 11.621 42.8752 13.875C44.5449 16.1451 45.5413 18.8397 45.7502 21.65C45.7663 21.846 45.8498 22.0303 45.9866 22.1716C46.1233 22.313 46.3049 22.4025 46.5002 22.425C46.1252 22.425 45.6752 22.575 45.4502 22.6L42.2252 23.125C40.7252 23.275 39.2002 23.375 37.7002 23.425C35.3752 23.425 33.0752 23.425 30.7502 23.575H16.4502C16.2508 23.5808 16.0607 23.661 15.9174 23.7997C15.774 23.9385 15.6876 24.1258 15.6752 24.325C15.6719 24.4255 15.6888 24.5258 15.725 24.6197C15.7612 24.7136 15.8159 24.7992 15.8859 24.8715C15.9558 24.9438 16.0397 25.0013 16.1323 25.0406C16.225 25.0798 16.3246 25.1 16.4252 25.1L30.7002 25.675C33.0252 25.675 35.3502 25.85 37.6752 25.85H42.4252L45.5002 25.475C45.5002 26.075 45.6752 26.9 45.6252 27.15C45.4302 28.7611 44.9564 30.3261 44.2252 31.775C43.5019 33.2096 42.5088 34.4913 41.3002 35.55C37.5729 38.6364 32.8036 40.1754 27.9752 39.85C25.5813 39.8387 23.2322 39.2003 21.1618 37.9984C19.0915 36.7966 17.3722 35.0732 16.1752 33C15.746 32.1724 15.4347 31.2888 15.2502 30.375C14.9938 28.9048 14.8517 27.4171 14.8252 25.925C14.8322 25.8038 14.8139 25.6825 14.7715 25.5688C14.7291 25.455 14.6635 25.3514 14.5788 25.2644C14.4942 25.1774 14.3924 25.109 14.2798 25.0634C14.1673 25.0179 14.0466 24.9963 13.9252 25C13.7672 25.012 13.6163 25.0707 13.4917 25.1686C13.367 25.2665 13.2743 25.3993 13.2252 25.55L12.7252 25C12.2825 24.576 11.7656 24.237 11.2002 24C10.4146 23.6491 9.56041 23.4783 8.70023 23.5C8.01702 23.5473 7.35593 23.7619 6.77523 24.125C6.35761 24.4368 6.01667 24.8399 5.77839 25.3035C5.54011 25.767 5.41077 26.2789 5.40023 26.8C5.37629 27.3076 5.46728 27.814 5.6664 28.2815C5.86553 28.749 6.16765 29.1655 6.55023 29.5C6.94485 29.8073 7.39459 30.0365 7.87523 30.175C8.46016 30.2859 9.05498 30.3362 9.65023 30.325L13.0002 30H13.3502C13.3625 30.2165 13.3625 30.4335 13.3502 30.65C13.542 31.7478 13.8782 32.8154 14.3502 33.825C15.8814 36.9348 18.469 39.3983 21.6502 40.775C21.3582 41.1078 21.0987 41.4678 20.8752 41.85C20.3752 42.7 19.9752 43.625 19.4752 44.35C18.9752 45.075 18.8252 45.7 18.5502 46.4C18.1646 47.4896 17.8391 48.5996 17.5752 49.725C17.4338 49.7129 17.2916 49.7129 17.1502 49.725C17.035 49.6991 16.9155 49.6991 16.8002 49.725C15.6423 49.4991 14.4418 49.7293 13.4496 50.3676C12.4573 51.0058 11.75 52.0026 11.4752 53.15C11.183 53.8064 11.0356 54.518 11.0432 55.2365C11.0508 55.955 11.2132 56.6633 11.5192 57.3134C11.8253 57.9635 12.2679 58.5399 12.8168 59.0036C13.3657 59.4672 14.0081 59.807 14.7002 60C15.5239 60.1686 16.3746 60.153 17.1915 59.9541C18.0084 59.7553 18.7712 59.3783 19.4252 58.85C20.0779 58.3429 20.6079 57.6952 20.9757 56.955C21.3436 56.2149 21.54 55.4014 21.5502 54.575C21.554 53.392 21.1673 52.2408 20.4502 51.3C20.1072 50.8938 19.6919 50.5547 19.2252 50.3C19.8502 49.45 20.5252 48.675 21.0752 47.8C21.4831 47.1092 21.8423 46.3908 22.1502 45.65C22.4252 44.75 22.5752 43.725 22.8502 42.75C22.9294 42.3966 23.0468 42.053 23.2002 41.725C23.2002 41.725 23.2002 41.55 23.2002 41.45C24.6707 41.9574 26.1995 42.2766 27.7502 42.4C30.1906 42.5745 32.6428 42.3293 35.0002 41.675C35.3752 43.45 35.7252 45.275 36.1252 47.175C34.1502 47.175 32.7002 46.925 30.9502 46.825H28.2252H24.7252C23.8858 46.8272 23.0485 46.911 22.2252 47.075C22.1173 47.0694 22.0094 47.0873 21.9089 47.1274C21.8085 47.1675 21.718 47.2288 21.6434 47.3072C21.5689 47.3855 21.5123 47.479 21.4773 47.5813C21.4423 47.6836 21.4298 47.7923 21.4408 47.8999C21.4517 48.0074 21.4858 48.1114 21.5406 48.2045C21.5955 48.2977 21.6699 48.3779 21.7586 48.4397C21.8474 48.5014 21.9484 48.5432 22.0549 48.5623C22.1613 48.5813 22.2706 48.5771 22.3752 48.55C22.9279 48.565 23.479 48.6151 24.0252 48.7C25.3502 48.875 26.7502 49.2 28.0252 49.4C29.2703 49.5459 30.5218 49.6294 31.7752 49.65C33.387 49.5738 34.9911 49.3816 36.5752 49.075C36.9752 50.6 37.5002 52.1 37.9252 53.525L40.0002 59.125C40.0391 59.2304 40.0986 59.327 40.1751 59.4093C40.2516 59.4916 40.3436 59.558 40.4459 59.6045C40.5482 59.651 40.6587 59.6767 40.771 59.6802C40.8833 59.6837 40.9952 59.665 41.1002 59.625C41.309 59.5411 41.4775 59.38 41.5706 59.1751C41.6637 58.9703 41.6743 58.7374 41.6002 58.525L40.4502 52.825C40.2752 51.975 40.1002 51.075 39.8752 50.15C39.6502 49.225 39.1752 47.65 38.7252 46.2C38.1252 44.45 37.4252 42.775 36.7502 41.2C39.1278 40.4345 41.341 39.2304 43.2752 37.65C44.7634 36.3498 45.9932 34.7807 46.9002 33.025C47.264 32.253 47.5813 31.4599 47.8502 30.65C48.5275 30.6373 49.2035 30.5872 49.8752 30.5C50.7242 30.3603 51.5604 30.1512 52.3752 29.875C53.1842 29.511 53.8392 28.8737 54.2252 28.075C54.6485 27.3141 54.8233 26.44 54.7252 25.575C54.7149 25.1904 54.6159 24.8134 54.436 24.4733C54.2561 24.1333 54.0002 23.8393 53.6881 23.6143C53.3761 23.3893 53.0163 23.2394 52.6368 23.1762C52.2573 23.113 51.8684 23.1383 51.5002 23.25ZM29.6002 3.52497C29.709 3.31182 29.8789 3.13605 30.0883 3.02023C30.2977 2.90441 30.5369 2.85382 30.7752 2.87497C31.1787 2.91919 31.5565 3.09488 31.8502 3.37497C32.1502 3.64997 32.5002 3.94997 32.4502 4.32497C32.4254 4.57637 32.3202 4.81307 32.1502 4.99997C31.928 5.22231 31.6852 5.4232 31.4252 5.59997H30.5002L29.8252 5.17497C29.6096 5.00142 29.4525 4.76578 29.3752 4.49997C29.3436 4.33072 29.3472 4.15675 29.3859 3.98897C29.4246 3.82119 29.4976 3.66322 29.6002 3.52497ZM13.1002 28.35L9.82523 28C9.49464 27.9402 9.16879 27.8567 8.85023 27.75C8.67439 27.7053 8.51163 27.6196 8.37523 27.5C8.25023 27.375 8.37523 27.15 8.37523 26.95C8.36507 26.8685 8.37327 26.7858 8.39923 26.708C8.42518 26.6301 8.46824 26.559 8.52523 26.5C8.74947 26.3278 9.01849 26.2236 9.30023 26.2C9.73131 26.1374 10.1692 26.1374 10.6002 26.2C11.035 26.2812 11.4455 26.4607 11.8002 26.725C12.2422 27.0526 12.6448 27.4301 13.0002 27.85C13.0002 27.85 13.1752 27.85 13.2502 27.975C13.3252 28.1 13.2502 28.325 13.2502 28.475L13.1002 28.35ZM17.7752 56.525C17.4233 56.7923 17.0174 56.98 16.5857 57.0749C16.1541 57.1699 15.7069 57.1699 15.2752 57.075C13.7752 56.8 13.4752 55.225 13.7752 53.9C14.0752 52.575 15.2252 50.975 17.0252 51.4C17.1774 51.4625 17.3481 51.4625 17.5002 51.4C17.7638 51.4527 18.0134 51.56 18.233 51.715C18.4526 51.87 18.6373 52.0692 18.7752 52.3C19.1267 52.9038 19.2674 53.6074 19.1752 54.3C19.1112 54.7484 18.9534 55.1782 18.7122 55.5616C18.471 55.945 18.1517 56.2732 17.7752 56.525ZM51.6502 26.325C51.599 26.6192 51.4884 26.8999 51.3252 27.15C51.3252 27.275 51.3252 27.425 51.1252 27.475C50.5284 27.8305 49.9009 28.1317 49.2502 28.375L48.2002 28.675C48.3183 28.2561 48.4101 27.8303 48.4752 27.4C48.4604 27.1168 48.4604 26.8331 48.4752 26.55C48.8787 26.345 49.2964 26.1696 49.7252 26.025C50.3081 25.8493 50.9181 25.7815 51.5252 25.825C51.5252 25.825 51.7252 25.825 51.7252 25.825C51.6772 25.9873 51.6519 26.1556 51.6502 26.325Z" fill="black"/>
<path fill-rule="evenodd" clip-rule="evenodd" d="M35.2256 14.7749C35.6412 15.124 36.0337 15.4998 36.4006 15.8999C36.7667 16.2804 37.1011 16.6901 37.4006 17.1249C37.8931 17.8129 38.2963 18.5605 38.6006 19.3499C38.6542 19.5698 38.7909 19.7604 38.982 19.8816C39.1732 20.0028 39.4038 20.0452 39.6256 19.9999C39.8408 19.941 40.0254 19.8021 40.1416 19.6115C40.2577 19.421 40.2967 19.1933 40.2506 18.9749C40.1493 17.9351 39.8703 16.9203 39.4256 15.9749C39.1142 15.3219 38.7007 14.7227 38.2006 14.1999C37.7196 13.6786 37.1634 13.232 36.5506 12.8749C35.6535 12.3951 34.6944 12.0418 33.7006 11.8249C33.6091 11.7849 33.5103 11.7642 33.4104 11.7642C33.3106 11.7641 33.2118 11.7847 33.1203 11.8246C33.0287 11.8645 32.9464 11.9228 32.8785 11.996C32.8106 12.0692 32.7585 12.1557 32.7256 12.2499C32.6892 12.3418 32.6713 12.44 32.673 12.5389C32.6746 12.6377 32.6958 12.7352 32.7353 12.8258C32.7748 12.9164 32.8318 12.9983 32.9031 13.0668C32.9744 13.1353 33.0585 13.1891 33.1506 13.2249C33.8956 13.666 34.5912 14.1857 35.2256 14.7749Z" fill="black"/>
</g>
<defs>
<clipPath id="clip0_168_4965">
<rect width="60" height="60" fill="white"/>
</clipPath>
</defs>
</svg>
