<svg width="60" height="60" viewBox="0 0 60 60" fill="none" xmlns="http://www.w3.org/2000/svg">
<g clip-path="url(#clip0_165_7454)">
<path fill-rule="evenodd" clip-rule="evenodd" d="M31.025 37.3499C30.72 38.703 30.6523 40.0987 30.825 41.4749C31.0167 42.9566 31.5943 44.3618 32.5 45.5499C33.574 46.9418 35.0351 47.9854 36.7 48.5499C38.3101 49.0816 40.0209 49.2355 41.7 48.9999C43.2087 48.774 44.5849 48.0104 45.575 46.8499C46.0711 46.2519 46.431 45.5529 46.6296 44.8017C46.8282 44.0505 46.8607 43.265 46.725 42.4999C46.6775 41.9826 46.5046 41.4847 46.2215 41.0491C45.9384 40.6135 45.5535 40.2534 45.1 39.9999C44.3042 39.6163 43.4647 39.3309 42.6 39.1499C41.9732 39.0673 41.3922 38.7768 40.95 38.3249C40.95 38.3249 40.775 38.3249 40.675 38.1749C40.5124 37.6029 40.5124 36.9969 40.675 36.4249C40.95 35.1499 41.55 33.9249 41.75 32.7499C41.812 32.1766 41.812 31.5983 41.75 31.0249C41.7498 30.4715 41.6996 29.9193 41.6 29.3749C41.3264 26.9474 40.5242 24.6092 39.25 22.5249C38.7423 21.7409 38.0784 21.0699 37.2999 20.5537C36.5214 20.0376 35.6449 19.6874 34.725 19.5249C34.4089 19.4999 34.0912 19.4999 33.775 19.5249C34.4532 19.3085 35.082 18.9602 35.625 18.4999C36.7974 17.5125 37.6645 16.2119 38.125 14.7499C38.6508 13.3132 38.6508 11.7367 38.125 10.2999C38.0489 10.2076 37.9535 10.1329 37.8456 10.0811C37.7377 10.0293 37.6197 10.0016 37.5 9.99993C36.8267 8.62397 35.6426 7.56543 34.2 7.04993C33.3429 6.73592 32.4227 6.63332 31.5174 6.75083C30.6122 6.86834 29.7486 7.20249 29 7.72493C27.688 8.65329 26.7487 10.0179 26.35 11.5749C25.9428 13.1332 26.048 14.7811 26.65 16.2749C26.7837 16.5713 26.9426 16.8557 27.125 17.1249C27.3526 17.4825 27.6031 17.8249 27.875 18.1499C28.8404 19.2399 30.1971 19.9048 31.65 19.9999C30.3186 20.4651 28.9078 20.6606 27.5 20.5749C26.1797 20.2101 24.8985 19.716 23.675 19.0999C23.2953 18.9523 22.9016 18.8434 22.5 18.7749C21.7285 18.6755 20.9444 18.7789 20.225 19.0749C19.642 19.3295 19.1589 19.7687 18.85 20.3249C18.4085 21.2067 18.2934 22.2164 18.525 23.1749C18.8216 24.3677 19.4249 25.4622 20.275 26.3499C21.3943 27.6594 22.8579 28.6294 24.5 29.1499C26.1439 29.5913 27.8803 29.5479 29.5 29.0249C29.6317 28.9773 29.7453 28.8899 29.825 28.7749C30.3925 29.6534 30.9099 30.5632 31.375 31.4999C31.6897 32.1117 31.8607 32.7871 31.875 33.4749C31.8624 33.8293 31.8121 34.1812 31.725 34.5249C31.6 35.4749 31.225 36.3999 31.025 37.3499ZM29.3 14.9999C28.9443 14.0845 28.8661 13.0846 29.075 12.1249C29.2636 11.1581 29.7642 10.2798 30.5 9.62493C30.9198 9.25324 31.4232 8.98863 31.9674 8.85367C32.5115 8.71872 33.0803 8.71743 33.625 8.84993C34.2121 8.99704 34.7589 9.27305 35.226 9.65792C35.693 10.0428 36.0684 10.5268 36.325 11.0749C36.3702 11.1942 36.4482 11.2982 36.55 11.3749C36.7303 12.3338 36.626 13.3245 36.25 14.2249C35.8232 15.2247 35.1317 16.089 34.25 16.7249C33.582 17.1505 32.7855 17.3275 32 17.2249C31.6155 17.2061 31.2392 17.1074 30.8949 16.9353C30.5505 16.7631 30.2458 16.5212 30 16.2249L29.3 14.9999ZM30.95 27.4999C30.8378 27.3347 30.6679 27.2174 30.4736 27.1712C30.2793 27.1249 30.0747 27.153 29.9 27.2499C29.7905 27.3297 29.7112 27.4443 29.675 27.5749C29.5229 27.5124 29.3522 27.5124 29.2 27.5749C27.8249 27.9773 26.3599 27.9511 25 27.4999C23.7055 26.9847 22.5801 26.119 21.75 24.9999C21.312 24.4535 20.9889 23.8243 20.8 23.1499C20.7149 22.8966 20.6821 22.6285 20.7036 22.3621C20.7251 22.0957 20.8004 21.8364 20.925 21.5999C20.925 21.5999 21.175 21.5999 21.325 21.5999C21.5243 21.5758 21.7258 21.5758 21.925 21.5999C23.2526 22.0404 24.5405 22.5923 25.775 23.2499C26.2107 23.4108 26.6639 23.5199 27.125 23.5749C27.7302 23.6625 28.3449 23.6625 28.95 23.5749C30.7207 22.9809 32.5612 22.6195 34.425 22.4999C34.9871 22.5831 35.526 22.7814 36.0078 23.0825C36.4896 23.3837 36.904 23.7811 37.225 24.2499C38.398 25.9754 39.1749 27.939 39.5 29.9999C39.6034 30.4522 39.6702 30.912 39.7 31.3749C39.75 31.8152 39.75 32.2597 39.7 32.6999C39.55 33.9999 38.875 35.5749 38.75 37.0249C38.6518 37.8092 38.773 38.6054 39.1 39.3249C39.16 39.4473 39.2478 39.554 39.3563 39.6365C39.4648 39.7189 39.5911 39.7749 39.725 39.7999C40.8 41.0249 42.775 41.1249 44.025 41.9749C44.1835 42.0901 44.3133 42.2402 44.4043 42.4136C44.4954 42.587 44.5452 42.7791 44.55 42.9749C44.5779 43.4099 44.5144 43.846 44.3638 44.255C44.2131 44.664 43.9785 45.037 43.675 45.3499C43.0502 45.9882 42.2155 46.379 41.325 46.4499C40.0209 46.5459 38.7121 46.3406 37.5 45.8499C36.3453 45.4549 35.3294 44.7343 34.575 43.7749C33.9666 42.979 33.5708 42.0412 33.425 41.0499C33.2384 39.9662 33.2384 38.8586 33.425 37.7749C33.55 36.8249 33.8 35.8499 33.925 34.8749C33.9754 34.3929 33.9754 33.9069 33.925 33.4249C33.8748 32.6747 33.6706 31.9428 33.325 31.2749C32.6102 29.9699 31.817 28.7093 30.95 27.4999Z" fill="black"/>
<path fill-rule="evenodd" clip-rule="evenodd" d="M20.7747 41.3C21.4401 39.7042 22.5294 38.3209 23.9247 37.3C25.4376 36.23 27.1315 35.4423 28.9247 34.975C29.1203 34.9352 29.292 34.8193 29.4022 34.6529C29.5124 34.4865 29.5519 34.2831 29.5122 34.0875C29.4724 33.8919 29.3565 33.7201 29.1901 33.6099C29.0236 33.4997 28.8203 33.4602 28.6247 33.5C26.5631 33.7681 24.5702 34.4211 22.7497 35.425C21.3768 36.1877 20.1784 37.2288 19.2313 38.4816C18.2841 39.7343 17.6092 41.1712 17.2497 42.7C17.1368 43.3786 17.1368 44.0713 17.2497 44.75C17.2974 45.7831 17.7247 46.7623 18.4497 47.5C18.8411 47.8501 19.301 48.1154 19.8001 48.2789C20.2993 48.4424 20.8269 48.5006 21.3497 48.45C22.0613 48.3011 22.7236 47.9743 23.2747 47.5C23.9246 47.0068 24.5196 46.4452 25.0497 45.825C25.6247 45.225 26.1747 44.65 26.7497 44.15C27.3568 43.6601 28.0003 43.2172 28.6747 42.825C28.7748 42.7741 28.8639 42.704 28.937 42.6186C29.01 42.5333 29.0655 42.4344 29.1003 42.3276C29.1352 42.2208 29.1486 42.1082 29.1399 41.9963C29.1312 41.8843 29.1005 41.7751 29.0497 41.675C28.9988 41.5748 28.9287 41.4857 28.8433 41.4127C28.758 41.3396 28.6591 41.2841 28.5523 41.2493C28.4455 41.2145 28.3329 41.201 28.221 41.2097C28.109 41.2184 27.9998 41.2491 27.8997 41.3C27.0898 41.6678 26.3121 42.1027 25.5747 42.6C24.8625 43.1131 24.1782 43.6639 23.5247 44.25C23.1027 44.6241 22.6603 44.9746 22.1997 45.3C21.8925 45.5262 21.5295 45.6645 21.1497 45.7C20.8407 45.6773 20.5532 45.5336 20.3497 45.3C20.1522 45.0765 20.0297 44.7967 19.9997 44.5C19.9822 43.9858 20.0412 43.4718 20.1747 42.975C20.3338 42.4028 20.5343 41.843 20.7747 41.3Z" fill="black"/>
<path fill-rule="evenodd" clip-rule="evenodd" d="M11.0002 50.55C11.1691 50.652 11.3697 50.688 11.5635 50.6511C11.7573 50.6142 11.9306 50.507 12.0502 50.35C12.1067 50.2682 12.1465 50.1759 12.1671 50.0786C12.1876 49.9813 12.1886 49.8808 12.17 49.7831C12.1514 49.6854 12.1136 49.5924 12.0586 49.5094C12.0037 49.4265 11.9329 49.3553 11.8502 49.3C8.23392 46.6302 5.59804 42.8433 4.35018 38.525C3.03941 34.2416 2.96144 29.6757 4.12518 25.35C4.84933 22.7685 5.93509 20.3024 7.35018 18.025C8.79722 15.7211 10.4723 13.5686 12.3502 11.6C13.3755 10.4126 14.4602 9.27779 15.6002 8.20001C16.318 7.5222 17.0963 6.91134 17.9252 6.37501C21.1233 4.38327 24.7652 3.21512 28.5252 2.97501C32.3108 2.66319 36.1195 3.15739 39.7002 4.42501C43.0969 5.73994 46.1985 7.71653 48.825 10.24C51.4515 12.7635 53.5505 15.7836 55.0002 19.125C56.584 22.4317 57.4906 26.0218 57.6666 29.684C57.8426 33.3462 57.2845 37.0066 56.0252 40.45C55.1186 42.8692 53.8361 45.1303 52.2252 47.15C51.1834 48.4419 49.8798 49.4984 48.4002 50.25C48.2984 50.2959 48.2066 50.3615 48.1301 50.4429C48.0537 50.5243 47.994 50.62 47.9545 50.7244C47.9151 50.8289 47.8966 50.9401 47.9001 51.0518C47.9037 51.1634 47.9292 51.2732 47.9752 51.375C48.073 51.5824 48.2482 51.7431 48.4633 51.8226C48.6784 51.9021 48.916 51.894 49.1252 51.8C50.8501 50.9666 52.3826 49.7831 53.6252 48.325C55.3954 46.1933 56.821 43.7976 57.8502 41.225C59.3071 37.5318 60.0049 33.5828 59.9018 29.6139C59.7987 25.645 58.8969 21.7376 57.2502 18.125C55.7133 14.4165 53.4478 11.0541 50.5878 8.23702C47.7278 5.41998 44.3316 3.20558 40.6002 1.72501C36.6478 0.264635 32.4263 -0.323811 28.2252 9.10275e-06C23.989 0.330125 19.9006 1.70438 16.3252 4.00001C15.3609 4.64132 14.4571 5.36934 13.6252 6.17501C12.4252 7.30001 11.3502 8.67501 10.2752 9.80001C8.39504 11.9554 6.72105 14.2822 5.27518 16.75C3.79083 19.2562 2.6633 21.9573 1.92518 24.775C0.752767 29.5077 0.95221 34.4765 2.50018 39.1C3.99048 43.7511 6.97949 47.7774 11.0002 50.55Z" fill="black"/>
<path fill-rule="evenodd" clip-rule="evenodd" d="M56.6249 53.1251C56.1977 53.7458 55.7211 54.331 55.1999 54.8751C54.88 55.1829 54.518 55.4439 54.1249 55.6501C52.8521 56.245 51.414 56.3862 50.0499 56.0501C47.8454 55.516 45.7764 54.5283 43.9749 53.1501C43.8364 53.0501 43.6785 52.9801 43.5114 52.9447C43.3442 52.9093 43.1715 52.9093 43.0043 52.9446C42.8372 52.9799 42.6793 53.0498 42.5407 53.1498C42.4022 53.2498 42.2861 53.3776 42.1999 53.5251C41.7434 54.2683 41.1089 54.886 40.3538 55.3225C39.5987 55.759 38.7467 56.0005 37.8749 56.0251C34.9778 56.1303 32.1308 55.2489 29.7999 53.5251C29.6491 53.4129 29.4776 53.3315 29.2953 53.2858C29.1129 53.2401 28.9233 53.231 28.7374 53.2588C28.5515 53.2867 28.373 53.3511 28.2121 53.4483C28.0512 53.5455 27.9111 53.6736 27.7999 53.8251C27.1209 54.8438 26.2088 55.6859 25.1392 56.2816C24.0696 56.8772 22.8734 57.2092 21.6499 57.2501C19.07 57.2804 16.563 56.3945 14.5749 54.7501C14.3593 54.5349 14.0671 54.414 13.7624 54.414C13.4577 54.414 13.1655 54.5349 12.9499 54.7501C12.3164 55.5616 11.4759 56.1873 10.5168 56.5612C9.55766 56.9352 8.51545 57.0436 7.49989 56.8751C5.26237 56.4601 3.17482 55.4595 1.44989 53.9751C1.30548 53.8361 1.11283 53.7584 0.912385 53.7584C0.711939 53.7584 0.519289 53.8361 0.374885 53.9751C0.235866 54.1195 0.158203 54.3122 0.158203 54.5126C0.158203 54.7131 0.235866 54.9057 0.374885 55.0501C2.62287 57.2435 5.56874 58.5794 8.69989 58.8251C10.5369 58.8416 12.316 58.1833 13.6999 56.9751C15.9321 58.8691 18.7481 59.9372 21.6749 60.0001C23.0966 59.9952 24.501 59.6872 25.7943 59.0966C27.0876 58.506 28.2401 57.6464 29.1749 56.5751C31.846 58.2013 34.9548 58.961 38.0749 58.7501C39.1428 58.6677 40.1816 58.3626 41.1246 57.8545C42.0675 57.3465 42.8937 56.6467 43.5499 55.8001C45.4013 56.951 47.4543 57.7399 49.5999 58.1251C51.441 58.4879 53.3511 58.1961 54.9999 57.3001C55.5387 56.9814 56.0344 56.5949 56.4749 56.1501C57.0325 55.5137 57.5422 54.8368 57.9999 54.1251C58.0655 54.0332 58.1125 53.9292 58.1379 53.8192C58.1634 53.7091 58.167 53.5951 58.1484 53.4837C58.1298 53.3723 58.0895 53.2656 58.0297 53.1698C57.9699 53.0739 57.8918 52.9908 57.7999 52.9251C57.708 52.8595 57.604 52.8126 57.4939 52.7871C57.3839 52.7616 57.2699 52.758 57.1585 52.7766C57.047 52.7952 56.9404 52.8355 56.8445 52.8953C56.7487 52.9551 56.6655 53.0332 56.5999 53.1251H56.6249Z" fill="black"/>
</g>
<defs>
<clipPath id="clip0_165_7454">
<rect width="60" height="60" fill="white"/>
</clipPath>
</defs>
</svg>
