<svg width="60" height="60" viewBox="0 0 60 60" fill="none" xmlns="http://www.w3.org/2000/svg">
<path fill-rule="evenodd" clip-rule="evenodd" d="M44.5503 32.5C44.5124 31.9605 44.3945 31.4297 44.2003 30.925C44.048 30.4657 43.7813 30.0527 43.4253 29.725C43.1123 29.4353 42.7211 29.2441 42.3003 29.175C41.7436 29.1151 41.182 29.1151 40.6253 29.175L36.4503 29.475V27.575L36.5753 25.075C36.6017 24.4601 36.4352 23.8523 36.099 23.3367C35.7627 22.8212 35.2737 22.4237 34.7003 22.2C32.7518 21.6447 30.7138 21.4748 28.7003 21.7C27.512 21.6837 26.3245 21.7673 25.1503 21.95C24.4329 22.0753 23.7704 22.4153 23.2503 22.925C23.0447 23.149 22.9062 23.4262 22.8503 23.725C22.8111 24.2493 22.8111 24.7757 22.8503 25.3L23.0503 29.5H22.9253H20.8003C20.1258 29.5374 19.4498 29.5374 18.7753 29.5C18.1889 29.3885 17.5867 29.3885 17.0003 29.5C16.5735 29.6337 16.2038 29.9065 15.9503 30.275C15.6679 30.678 15.4799 31.1394 15.4003 31.625C15.2757 32.4522 15.2255 33.2889 15.2503 34.125V36.95C15.3015 38.2375 15.4688 39.5177 15.7503 40.775C15.8881 41.3343 16.2149 41.8288 16.6753 42.175C17.3257 42.563 18.068 42.7701 18.8253 42.775C20.0354 42.5254 21.2652 42.3832 22.5003 42.35C22.631 42.3875 22.7696 42.3875 22.9003 42.35V43.625C22.7619 44.5107 22.6784 45.404 22.6503 46.3C22.6602 46.8632 22.8152 47.4142 23.1003 47.9C23.3401 48.2404 23.6687 48.5085 24.0503 48.675C24.5742 48.8888 25.1187 49.048 25.6753 49.15L27.1003 49.35H29.0503C29.7915 49.3875 30.5341 49.3875 31.2753 49.35C32.0397 49.3186 32.8004 49.2266 33.5503 49.075C33.9752 49.026 34.394 48.9339 34.8003 48.8C35.1093 48.6736 35.3898 48.4866 35.6253 48.25C36.2169 47.5349 36.5977 46.6693 36.7253 45.75C36.8864 44.0371 36.8864 42.3129 36.7253 40.6C36.7286 40.4949 36.7112 40.3902 36.6741 40.2919C36.6369 40.1936 36.5807 40.1035 36.5088 40.0269C36.4368 39.9503 36.3504 39.8886 36.2546 39.8454C36.1588 39.8021 36.0554 39.7782 35.9503 39.775C35.8464 39.7716 35.743 39.7892 35.646 39.8267C35.5491 39.8641 35.4607 39.9207 35.386 39.993C35.3114 40.0653 35.2521 40.1518 35.2116 40.2475C35.1711 40.3432 35.1502 40.4461 35.1503 40.55C35.1503 41.725 35.1503 43.275 34.7753 44.675C34.4003 46.075 34.0003 46.475 33.1253 46.575C32.2503 46.675 32.0753 46.575 31.5503 46.575H29.0503H27.1503H25.9753C24.5003 46.45 24.7003 46.2 24.6253 45.725C24.5503 45.25 24.6253 44.05 24.6253 43.575C24.6253 43.1 24.6253 42.425 24.5003 41.825C24.5003 40.175 24.1003 40.725 18.9253 40.575C17.3503 40.575 17.9003 39.4 17.9003 38.3C17.9295 37.742 17.9295 37.183 17.9003 36.625V34.125V32.25C17.9003 31.075 17.9003 31.5 18.8003 31.475C19.7003 31.45 20.0003 31.475 20.6003 31.275C21.2003 31.075 22.3253 31 23.1003 30.825C23.4892 30.7873 23.8495 30.604 24.1091 30.312C24.3687 30.02 24.5084 29.6407 24.5003 29.25L24.8503 25.225C24.8503 25.025 25.1753 24.425 25.0503 24.2C25.3574 24.1605 25.6682 24.1605 25.9753 24.2H28.7753C30.2465 24.0496 31.7291 24.0496 33.2003 24.2C33.8003 24.2 34.3253 24.45 34.4003 25.075L34.5253 27.575C34.5253 28.225 34.7003 28.825 34.7503 29.45C34.7752 29.8079 34.7752 30.1671 34.7503 30.525C34.7503 31.7 35.6503 30.875 40.5753 31.225C42.0253 31.375 41.6253 30.725 42.0003 32.775L42.1503 38.425V40.425C41.8636 40.5008 41.5708 40.551 41.2753 40.575H38.3753C38.2715 40.5682 38.1673 40.5825 38.0691 40.6168C37.9709 40.6512 37.8806 40.7049 37.8036 40.7749C37.7266 40.8449 37.6645 40.9297 37.621 41.0242C37.5775 41.1187 37.5534 41.221 37.5503 41.325C37.5434 41.5331 37.6179 41.7356 37.7579 41.8897C37.8979 42.0437 38.0925 42.1371 38.3003 42.15C39.5241 42.3516 40.7604 42.4685 42.0003 42.5C42.6273 42.456 43.2434 42.3126 43.8253 42.075C44.6753 41.7 44.4253 40.95 44.6003 38.375V34.95C44.6342 34.1331 44.6175 33.3149 44.5503 32.5Z" fill="black"/>
<path fill-rule="evenodd" clip-rule="evenodd" d="M59.85 17.6499C59.7842 16.9169 59.5574 16.2074 59.1857 15.5721C58.8141 14.9369 58.3068 14.3915 57.7 13.9749C56.4091 13.1957 54.9704 12.6934 53.475 12.4999H38.85C38.85 12.1999 38.85 11.8999 38.975 11.5749V9.0749V6.2499C38.9476 5.49774 38.6945 4.77123 38.2487 4.16485C37.8028 3.55847 37.1848 3.10029 36.475 2.8499C35.5318 2.44483 34.5249 2.20793 33.5 2.1499C31.95 2.1499 30.325 2.2749 29.05 2.2999C27.6973 2.28757 26.3449 2.35435 25 2.4999C23.93 2.62069 22.9072 3.00744 22.025 3.6249C21.7386 3.84156 21.5214 4.13691 21.4 4.4749C21.3068 5.03693 21.2567 5.60525 21.25 6.1749C21.1335 7.23733 21.0917 8.30662 21.125 9.3749C21.1223 10.4191 21.1807 11.4625 21.3 12.4999C21.3036 12.6269 21.3473 12.7494 21.425 12.8499C21.425 12.8499 21.925 12.8499 11.725 13.4749C8.95 13.6499 6.325 12.6749 3 15.1749C1.475 16.3249 0.4 18.8499 0 28.6749C0 33.9749 0.125 39.3249 0.4 44.4999C0.390363 46.978 0.69274 49.4474 1.3 51.8499C1.85347 53.6712 3.05384 55.2272 4.675 56.2249C5.90447 56.9044 7.25469 57.3375 8.65 57.4999C10.5349 57.6995 12.4296 57.7914 14.325 57.7749H22.125C26.025 57.7749 29.925 57.6249 33.8 57.5249C38.55 57.3749 43.675 57.7249 48.575 57.3999C50.7347 57.3233 52.884 57.064 55 56.6249C55.2048 56.5772 55.3826 56.4508 55.4949 56.273C55.6071 56.0952 55.6449 55.8803 55.6 55.6749C55.5825 55.5728 55.5441 55.4754 55.4871 55.3889C55.4301 55.3024 55.3558 55.2287 55.2689 55.1723C55.182 55.1159 55.0844 55.0782 54.9822 55.0614C54.8799 55.0447 54.7754 55.0492 54.675 55.0749C52.6461 55.4585 50.5893 55.6759 48.525 55.7249C43.525 55.8749 38.525 55.3749 33.8 55.3749L14.425 55.1499C12.6236 55.2093 10.8203 55.1592 9.025 54.9999C7.97588 54.8822 6.95821 54.5685 6.025 54.0749C4.93617 53.4035 4.13462 52.3525 3.775 51.1249C3.15784 48.9525 2.83002 46.7081 2.8 44.4499C2.325 39.4499 1.85 34.0749 1.825 28.8249C1.825 27.8999 1.525 17.2999 4.8 16.0749C7.08802 15.5103 9.44625 15.2829 11.8 15.3999L15 15.1749C18.825 14.9999 22.7 14.9999 26.575 14.9999H44.075C46.275 14.9999 49.2 14.6999 51.925 14.9999C53.4815 15.048 55.0053 15.4589 56.375 16.1999C56.7634 16.5608 57.0661 17.0041 57.2608 17.4973C57.4555 17.9905 57.5372 18.521 57.5 19.0499C57.5009 21.1903 57.3589 23.3284 57.075 25.4499C56.7 30.9999 56.925 36.5499 56.8 42.0999C56.8 43.4749 56.8 44.8499 56.6 46.1999V52.0749C56.5643 52.8599 56.447 53.6391 56.25 54.3999C56.2156 54.4982 56.2021 54.6027 56.2103 54.7065C56.2184 54.8104 56.2482 54.9114 56.2976 55.0031C56.347 55.0949 56.4149 55.1753 56.4971 55.2393C56.5793 55.3033 56.674 55.3495 56.775 55.3749C56.8735 55.4056 56.9771 55.4163 57.0797 55.4064C57.1824 55.3965 57.282 55.3662 57.3728 55.3173C57.4636 55.2684 57.5438 55.2019 57.6085 55.1216C57.6733 55.0414 57.7214 54.949 57.75 54.8499C58.01 53.9953 58.1776 53.1153 58.25 52.2249C58.425 50.2499 58.25 48.1499 58.5 46.3499C58.65 44.9749 58.725 43.5749 58.825 42.1749C59.1 36.6499 59.025 31.1249 59.525 25.6249C59.9738 22.9914 60.083 20.3112 59.85 17.6499ZM37.25 12.4999H29.45C26.85 12.4999 25 12.6999 22.5 12.8249C22.5479 12.6959 22.5479 12.5539 22.5 12.4249C22.4497 11.4255 22.4497 10.4243 22.5 9.4249C22.5576 8.45601 22.6998 7.49402 22.925 6.5499C23.25 5.1749 23.375 5.1749 25 4.9999C26.625 4.8249 27.725 4.9999 28.85 4.9999C30.8492 4.76076 32.8664 4.71054 34.875 4.8499C35.85 4.9999 36.7 5.3249 36.825 6.3999L36.95 8.8999V11.3999V12.3749L37.25 12.4999Z" fill="black"/>
<path fill-rule="evenodd" clip-rule="evenodd" d="M43.4999 11.425C43.6749 10.25 43.4999 10.3 44.6249 9.89997C45.1133 9.75355 45.6164 9.66133 46.1249 9.62496C47.0623 9.49771 48.0126 9.49771 48.9499 9.62496C49.5249 9.62496 49.9999 9.04997 50.5249 10.575C50.6482 10.9518 50.7484 11.3359 50.8249 11.725C50.8249 12.375 52.4249 12.275 52.3749 11.35C52.3746 10.8214 52.3244 10.2941 52.2249 9.77497C52.1157 9.2746 51.9302 8.79399 51.6749 8.34996C51.4514 8.03218 51.138 7.78842 50.7749 7.64997C50.3501 7.49708 49.9159 7.37182 49.4749 7.27497C48.0592 6.88315 46.5762 6.79791 45.1249 7.02497C44.0186 7.20578 43.0009 7.74095 42.2249 8.54997C41.8386 9.09786 41.6372 9.7547 41.6499 10.425C41.6258 10.8413 41.6258 11.2586 41.6499 11.675C41.6499 12.375 43.2749 12.45 43.3999 11.675C43.4441 11.5964 43.4777 11.5123 43.4999 11.425Z" fill="black"/>
<path fill-rule="evenodd" clip-rule="evenodd" d="M7.49999 12.1249C7.51429 11.5686 7.62423 11.0189 7.82499 10.4999C7.82499 10.4999 8.04999 10.3499 8.22499 10.2749C8.70979 10.114 9.21464 10.0214 9.72499 9.99987L11.65 9.79987L14.4 9.34987C14.7614 9.5829 15.0275 9.93764 15.15 10.3499C15.3 10.8749 15.4 11.4249 15.5 11.9499C15.5 13.0249 17.375 12.8499 17.275 11.9499C17.2858 11.1084 17.1934 10.2688 17 9.44987C16.8149 8.67762 16.3744 7.99051 15.75 7.49987C15.2298 7.16186 14.6202 6.98768 14 6.99987C13.1116 7.0158 12.2257 7.09938 11.35 7.24987L9.22499 7.49987C8.13352 7.67754 7.13621 8.22474 6.39999 9.04987C5.86795 9.98125 5.69878 11.0764 5.92499 12.1249V12.8249C5.92499 13.4749 7.44999 13.4249 7.44999 12.8249L7.49999 12.1249Z" fill="black"/>
</svg>
