<svg width="60" height="60" viewBox="0 0 60 60" fill="none" xmlns="http://www.w3.org/2000/svg">
<g clip-path="url(#clip0_168_4977)">
<path fill-rule="evenodd" clip-rule="evenodd" d="M14.6507 47.2C14.5423 47.1698 14.429 47.1613 14.3174 47.1752C14.2058 47.189 14.098 47.2249 14.0003 47.2807C13.9027 47.3365 13.817 47.4111 13.7484 47.5003C13.6798 47.5894 13.6296 47.6913 13.6007 47.8C13.1007 48.85 12.5257 49.825 12.1007 50.95C11.9214 51.4045 11.7793 51.8727 11.6757 52.35C11.6757 52.825 11.5007 53.3 11.4257 53.8C11.2757 54.95 11.2507 56.05 11.1507 57.2C11.1127 57.3198 11.0995 57.4461 11.112 57.5711C11.1244 57.6961 11.1622 57.8173 11.223 57.9273C11.2838 58.0372 11.3664 58.1336 11.4657 58.2106C11.5651 58.2876 11.679 58.3435 11.8007 58.375C12.0426 58.4361 12.2988 58.3995 12.514 58.2732C12.7292 58.1469 12.886 57.941 12.9507 57.7C13.4507 56.625 13.9507 55.625 14.3507 54.5C14.5007 54.05 14.6757 53.575 14.8007 53.1C14.9054 52.6311 14.9722 52.1546 15.0007 51.675C15.0007 50.5 15.0007 49.4 15.1507 48.225C15.186 48.1249 15.2011 48.0188 15.195 47.9129C15.189 47.8069 15.1619 47.7032 15.1154 47.6078C15.0688 47.5124 15.0038 47.4272 14.924 47.3572C14.8442 47.2872 14.7513 47.2338 14.6507 47.2Z" fill="black"/>
<path fill-rule="evenodd" clip-rule="evenodd" d="M56.0756 24.7C55.7456 24.5005 55.3809 24.3648 55.0006 24.3H52.7006L44.5006 24.55H39.7506L37.7506 24.4C37.4171 24.3678 37.0816 24.4364 36.7875 24.5968C36.4934 24.7573 36.2541 25.0022 36.1006 25.3C35.0506 28.775 34.2506 32.125 33.1256 35.3C32.376 37.4689 31.4391 39.5685 30.3256 41.575C30.2682 41.6686 30.2297 41.7726 30.2125 41.881C30.1952 41.9894 30.1994 42.1002 30.225 42.207C30.2765 42.4227 30.4117 42.609 30.6006 42.725C30.7896 42.8411 31.0169 42.8773 31.2326 42.8257C31.4483 42.7742 31.6346 42.639 31.7506 42.45C33.034 40.4506 34.1223 38.3326 35.0006 36.125C36.2006 33.225 37.1506 30.275 38.2506 27.2L39.5506 27.375L44.4006 27.6L52.5006 27.5C52.8549 27.4712 53.2062 27.4127 53.5506 27.325C53.5506 27.7 53.7756 28.125 53.7756 28.225C53.8629 29.3066 53.8629 30.3935 53.7756 31.475C53.7359 32.5445 53.5936 33.6077 53.3506 34.65C52.7222 38.4536 51.101 42.0239 48.6506 45C47.8334 45.8595 46.7789 46.4564 45.6214 46.7146C44.4639 46.9728 43.2557 46.8807 42.1506 46.45C41.6436 46.2591 41.1577 46.0161 40.7006 45.7251C40.2001 45.4204 39.7237 45.0778 39.2756 44.7C39.1082 44.5683 38.9012 44.4966 38.6881 44.4966C38.475 44.4966 38.2681 44.5683 38.1006 44.7C37.9275 44.7239 37.7664 44.8021 37.6406 44.9234C37.5148 45.0448 37.4308 45.2029 37.4006 45.375C36.9756 46.85 36.4756 48.275 36.1256 49.8C36.1256 50.375 35.9256 50.95 35.8506 51.525H34.2506C32.263 51.5233 30.2797 51.3392 28.3256 50.975C27.0448 50.7673 25.7825 50.458 24.5506 50.05C22.0548 49.2115 19.7333 47.9236 17.7006 46.25C18.7506 46.375 19.8006 46.575 20.8506 46.65C21.9006 46.725 22.2506 46.8 22.9756 46.825H26.0756H31.9756C33.3488 46.7858 34.7182 46.6606 36.0756 46.45C36.1985 46.444 36.3188 46.4128 36.4291 46.3585C36.5394 46.3041 36.6374 46.2277 36.7171 46.134C36.7967 46.0403 36.8563 45.9313 36.8922 45.8136C36.9281 45.696 36.9395 45.5723 36.9256 45.45C36.9162 45.3252 36.8821 45.2034 36.8254 45.0917C36.7687 44.98 36.6904 44.8807 36.5952 44.7993C36.4999 44.718 36.3895 44.6563 36.2703 44.6178C36.1511 44.5793 36.0255 44.5648 35.9006 44.575H33.9756C32.1506 44.45 30.3506 44.15 28.5256 43.975C27.7006 43.975 26.9006 43.85 26.0256 43.825C25.1506 43.8 23.9006 43.825 22.8506 43.825C18.3756 44.15 13.0756 44.3 14.9006 46.325C17.1666 49.2049 20.1016 51.4877 23.4506 52.975C24.7995 53.583 26.2068 54.0521 27.6506 54.375C29.8004 54.7882 31.9867 54.9809 34.1756 54.95C34.6256 54.95 35.0756 54.95 35.5256 54.825C35.5256 56.05 35.5256 57.325 35.3756 58.475C35.3325 58.7237 35.39 58.9793 35.5353 59.1856C35.6807 59.3918 35.902 59.532 36.1506 59.575C36.3993 59.6181 36.6549 59.5607 36.8611 59.4154C37.0674 59.27 37.2075 59.0487 37.2506 58.8C37.7006 57.4 38.1006 56 38.4506 54.575H39.0006C40.1207 54.3901 41.2183 54.0884 42.2756 53.675C43.2391 53.2217 44.1524 52.6687 45.0006 52.025C45.7506 51.475 46.4756 50.8751 47.2256 50.3001C47.2597 50.6207 47.3182 50.9383 47.4006 51.25C47.4006 51.675 47.6256 52.1 47.7506 52.525C48.1256 53.5 48.5506 54.425 48.9506 55.4C49.0102 55.6416 49.1599 55.8513 49.3691 55.9861C49.5782 56.1208 49.831 56.1706 50.0756 56.1251C50.1985 56.1015 50.3153 56.0532 50.419 55.9832C50.5227 55.9132 50.6111 55.8229 50.6789 55.7177C50.7467 55.6125 50.7924 55.4947 50.8133 55.3714C50.8342 55.248 50.8299 55.1217 50.8006 55V51.875C50.7686 51.4386 50.7101 51.0045 50.6256 50.575C50.5355 50.135 50.4186 49.7009 50.2756 49.275C50.0141 48.6934 49.7221 48.1259 49.4006 47.575C49.7533 47.3706 50.0879 47.1365 50.4006 46.875C53.4086 43.6378 55.5048 39.6611 56.4756 35.35C56.8008 34.1488 57.0018 32.9173 57.0756 31.675C57.1632 30.4516 57.1632 29.2235 57.0756 28C57.0694 27.2469 57.0109 26.4951 56.9006 25.75C56.7638 25.3107 56.4702 24.9369 56.0756 24.7ZM43.7756 50.125C43.0575 50.5432 42.2943 50.8787 41.5006 51.1251C40.6829 51.3466 39.8457 51.4889 39.0006 51.5501C39.0006 51.1501 39.0006 50.725 39.1256 50.325V47.025C39.4021 47.2615 39.6944 47.4787 40.0006 47.675C40.468 47.9772 40.9617 48.2366 41.4756 48.45C42.754 48.9533 44.1325 49.1502 45.5006 49.025L43.7756 50.125Z" fill="black"/>
<path fill-rule="evenodd" clip-rule="evenodd" d="M41.6001 4.275C42.0395 4.70636 42.441 5.17475 42.8001 5.675C42.9501 5.85 43.2501 6.525 43.5251 6.875C43.7978 7.21293 44.1624 7.46472 44.5751 7.6C44.8333 7.67433 45.1052 7.68819 45.3697 7.6405C45.6341 7.59281 45.8841 7.48485 46.1001 7.325C46.598 6.89067 47.0657 6.42292 47.5001 5.925C47.9719 5.17576 48.5439 4.49447 49.2001 3.9C49.6115 3.53432 50.0858 3.24632 50.6001 3.05C50.7217 3.02069 50.8363 2.96765 50.9373 2.89393C51.0384 2.82021 51.1239 2.72725 51.1889 2.6204C51.254 2.51355 51.2973 2.39491 51.3163 2.27129C51.3354 2.14766 51.3299 2.02149 51.3001 1.9C51.2783 1.75856 51.224 1.6241 51.1415 1.5072C51.0589 1.39029 50.9504 1.29413 50.8244 1.22629C50.6984 1.15844 50.5583 1.12075 50.4153 1.11619C50.2723 1.11163 50.1301 1.14032 50.0001 1.2C49.2165 1.29227 48.455 1.52071 47.7501 1.875C46.7573 2.40043 45.8336 3.04704 45.0001 3.8V3.575C44.3796 3.10265 43.7088 2.70022 43.0001 2.375C42.3448 2.0283 41.6584 1.74372 40.9501 1.525C40.7543 1.42974 40.5289 1.4157 40.3228 1.48594C40.1168 1.55618 39.9469 1.70502 39.8501 1.9C39.7952 1.99733 39.7614 2.10507 39.7507 2.21627C39.7401 2.32747 39.7528 2.43967 39.7881 2.54565C39.8235 2.65163 39.8806 2.74904 39.9558 2.8316C40.0311 2.91416 40.1228 2.98004 40.2251 3.025C40.7121 3.40898 41.1716 3.82667 41.6001 4.275Z" fill="black"/>
<path fill-rule="evenodd" clip-rule="evenodd" d="M58.8504 12.225C58.0668 12.3172 57.3054 12.5457 56.6004 12.9C55.6127 13.4212 54.6968 14.0683 53.8754 14.825V15L53.6754 14.725C53.0549 14.2526 52.3842 13.8502 51.6754 13.525C51.0188 13.1166 50.3238 12.7733 49.6004 12.5C49.4001 12.4098 49.1731 12.3983 48.9647 12.4678C48.7563 12.5373 48.5816 12.6826 48.4754 12.875C48.3808 13.0774 48.3698 13.309 48.4446 13.5195C48.5195 13.7301 48.6742 13.9027 48.8754 14C49.4055 14.3792 49.9068 14.797 50.3754 15.25C50.8149 15.6813 51.2163 16.1497 51.5754 16.65C51.7254 16.825 52.0254 17.5 52.3004 17.85C52.569 18.1923 52.9351 18.4451 53.3504 18.575C53.6225 18.6775 53.9158 18.7106 54.2039 18.6713C54.492 18.632 54.7657 18.5216 55.0004 18.35C55.4573 17.9057 55.8912 17.4385 56.3004 16.95C56.7391 16.2347 57.2685 15.5793 57.8754 15C58.2868 14.6343 58.7612 14.3463 59.2754 14.15C59.4076 14.1246 59.5329 14.0715 59.643 13.994C59.753 13.9166 59.8454 13.8167 59.914 13.7008C59.9825 13.585 60.0257 13.456 60.0406 13.3222C60.0555 13.1884 60.0418 13.053 60.0004 12.925C59.9743 12.8016 59.9232 12.6849 59.8503 12.5821C59.7774 12.4792 59.6842 12.3923 59.5765 12.3268C59.4688 12.2612 59.3488 12.2184 59.224 12.2009C59.0991 12.1833 58.972 12.1916 58.8504 12.225Z" fill="black"/>
<path fill-rule="evenodd" clip-rule="evenodd" d="M14.0503 25.625C14.2503 25.3 14.4753 24.95 14.6503 24.6L15.2753 25.225C15.9838 25.8753 16.8429 26.3392 17.7753 26.575C19.1416 26.9 20.549 27.018 21.9503 26.925C22.4093 26.835 22.8606 26.7096 23.3003 26.55C23.2508 26.6959 23.2508 26.8541 23.3003 27C23.3003 28.8 23.3003 30.55 23.5753 32.35C23.5753 33.1 23.7753 33.85 23.9003 34.6C24.0253 35.35 24.2253 36.075 24.4253 36.825C24.8753 38.55 25.4503 40.225 25.9753 41.825C25.9932 41.9465 26.0357 42.063 26.1003 42.1674C26.1648 42.2719 26.2501 42.362 26.3508 42.4322C26.4515 42.5025 26.5655 42.5514 26.6858 42.5759C26.8061 42.6005 26.9301 42.6002 27.0503 42.575C27.1735 42.5538 27.2913 42.5086 27.397 42.4418C27.5027 42.375 27.5941 42.288 27.6661 42.1858C27.7381 42.0836 27.7892 41.9683 27.8166 41.8463C27.8439 41.7243 27.8468 41.5981 27.8253 41.475C27.6753 39.7 27.5753 37.925 27.3753 36.15C27.3753 35.4 27.2003 34.65 27.0503 33.9C26.9341 33.1561 26.767 32.421 26.5503 31.7C26.0753 29.95 25.4753 28.325 24.9253 26.7C24.8918 26.5015 24.7846 26.323 24.6253 26.2C24.6253 26.2 24.8503 26.2 24.9753 26.2C26.1827 25.6059 27.1778 24.6545 27.8253 23.475C28.1376 22.9291 28.3891 22.3507 28.5753 21.75C28.9984 22.1332 29.4497 22.4842 29.9253 22.8C30.3819 23.1137 30.8778 23.3659 31.4003 23.55C32.6178 23.956 33.9191 24.0427 35.1797 23.802C36.4404 23.5613 37.6181 23.0011 38.6003 22.175C40.4549 20.6223 41.6958 18.4597 42.1003 16.075C42.1215 15.9515 42.1175 15.825 42.0883 15.7031C42.0592 15.5812 42.0056 15.4665 41.9308 15.366C41.8559 15.2655 41.7615 15.1812 41.6531 15.1183C41.5447 15.0553 41.4247 15.0151 41.3003 15C41.4041 14.9071 41.4834 14.7901 41.5314 14.6593C41.5794 14.5285 41.5944 14.388 41.5753 14.25C41.7775 14.3631 42.0126 14.4024 42.2406 14.3614C42.4686 14.3204 42.6753 14.2015 42.8253 14.025C42.9738 13.8225 43.0362 13.5695 42.9987 13.3212C42.9612 13.0729 42.827 12.8496 42.6253 12.7C41.4503 11.775 38.4003 9.79998 35.1253 7.89998C31.8503 5.99998 29.2253 4.29998 27.5003 3.49998C26.2253 2.92498 24.3503 1.72498 22.6253 0.99998C21.6941 0.640964 20.6963 0.487459 19.7003 0.54998C18.7055 0.735363 17.7755 1.17455 17.0003 1.82498C15.6967 2.92395 14.4533 4.0923 13.2753 5.32498C10.7753 7.82498 8.45031 10.325 6.22531 12.825C4.00219 15.4586 1.97192 18.2492 0.150307 21.175C0.089102 21.2651 0.0463546 21.3665 0.0245322 21.4732C0.00270979 21.5799 0.00224464 21.6899 0.0231636 21.7969C0.0440825 21.9038 0.0859712 22.0055 0.146412 22.0961C0.206852 22.1868 0.284647 22.2646 0.375307 22.325C0.536603 22.4381 0.73494 22.4856 0.929987 22.4577C1.12503 22.4299 1.30215 22.3288 1.42531 22.175C1.63711 23.2158 2.06756 24.1997 2.68818 25.0617C3.30879 25.9237 4.10541 26.644 5.02531 27.175C6.04147 27.7335 7.16659 28.0652 8.32322 28.1472C9.47985 28.2292 10.6405 28.0595 11.7253 27.65C12.6798 27.2141 13.4875 26.5106 14.0503 25.625ZM23.4253 23.25C22.6889 23.5894 21.8861 23.7602 21.0753 23.75C20.1681 23.755 19.2629 23.6628 18.3753 23.475C17.8369 23.2809 17.3616 22.9439 17.0003 22.5C16.628 22.1451 16.2852 21.7605 15.9753 21.35C16.6003 21.35 17.2253 21.35 17.8503 21.15C20.5253 20.725 23.1503 20.1 25.7753 19.425C25.6456 20.2205 25.3656 20.9841 24.9503 21.675C24.6167 22.3448 24.084 22.895 23.4253 23.25ZM37.0503 20.275C36.3516 20.8207 35.5203 21.1708 34.6417 21.2894C33.7631 21.408 32.8687 21.2909 32.0503 20.95C31.7563 20.8431 31.4849 20.682 31.2503 20.475C30.8503 20.15 30.4503 19.775 30.0503 19.425C30.0503 19.225 29.7503 18.9 29.5503 18.575C33.1503 17.575 36.7003 16.5 40.1753 15.475L40.0503 15.675C39.6244 17.5143 38.5618 19.1437 37.0503 20.275ZM6.65031 15.925C9.41325 13.0006 12.3343 10.2298 15.4003 7.62498C15.9003 7.17498 17.1753 5.82498 18.4503 4.77498C19.0503 4.27498 19.5503 3.77498 19.9753 3.74998C20.7411 3.7624 21.4938 3.95057 22.1753 4.29998C23.6753 4.89998 25.2503 5.77498 26.3253 6.19998C28.0503 6.87498 31.0753 8.37498 34.0253 9.92498C36.5253 11.2 38.8003 12.425 40.3253 13.4L24.2003 16.75L17.7503 18.05L13.4503 18.925C10.0137 19.582 6.54079 20.0328 3.05031 20.275C4.20031 18.8 5.37531 17.3 6.65031 15.925ZM10.8003 25.4C10.0432 25.7463 9.22037 25.9255 8.38781 25.9255C7.55524 25.9255 6.73243 25.7463 5.97531 25.4C5.30717 25.0651 4.71429 24.5975 4.23288 24.0258C3.75147 23.4542 3.39162 22.7904 3.17531 22.075C6.37842 22.162 9.58388 22.0618 12.7753 21.775C12.5688 22.4525 12.3097 23.1128 12.0003 23.75C11.6503 24.425 11.3253 25.175 10.8003 25.4Z" fill="black"/>
</g>
<defs>
<clipPath id="clip0_168_4977">
<rect width="60" height="60" fill="white"/>
</clipPath>
</defs>
</svg>
