<svg width="60" height="60" viewBox="0 0 60 60" fill="none" xmlns="http://www.w3.org/2000/svg">
<path d="M28.6259 26.975C28.2568 24.8483 27.679 22.7633 26.9009 20.75C26.1135 18.7741 25.1947 16.8532 24.1509 15C23.7745 14.3603 23.4323 13.701 23.1259 13.025C22.0259 11.75 21.1759 12.2 21.5509 13.75C21.8759 14.65 22.3009 15.55 22.4259 15.825C23.2538 17.6841 23.9799 19.5869 24.6009 21.525C25.186 23.4763 25.5959 25.4759 25.8259 27.5C26.2255 30.3576 26.426 33.2395 26.4259 36.125C26.444 38.9887 26.1591 41.8462 25.5759 44.65C25.3259 45.725 25.1509 46.9 24.8509 48.025C24.6901 48.7116 24.4641 49.3813 24.1759 50.025C23.7259 50.975 23.1009 51.625 22.7759 52.525V53.075C23.3009 53.9 24.2259 53.675 24.9009 52.675C25.2509 52.125 25.6759 51.625 26.0509 50.975C26.4462 50.2313 26.7725 49.4531 27.0259 48.65C27.3759 47.55 27.6509 46.375 27.9759 45.3C28.8228 42.3452 29.3014 39.2971 29.4009 36.225C29.4287 33.1243 29.1692 30.0278 28.6259 26.975Z" fill="black"/>
<path d="M15.3507 28.825C15.4918 26.7225 15.9035 24.6471 16.5757 22.65C17.1507 21.1 17.7257 19.575 18.4257 18.075C18.8865 17.107 19.4128 16.1715 20.0007 15.275L20.8007 14.05C21.2007 13.375 21.2007 12.25 20.0507 12.65C19.467 13.095 18.9457 13.6163 18.5007 14.2C17.7796 15.1169 17.1278 16.0863 16.5507 17.1C15.7007 18.575 15.0007 20.125 14.2507 21.675C13.3285 23.8581 12.7386 26.1671 12.5007 28.525C12.1401 31.9905 12.2494 35.4888 12.8257 38.925C13.5686 43.8532 15.5276 48.5187 18.5257 52.5C19.5257 53.6 21.2007 52.925 20.7507 52.375C17.671 48.3443 15.8608 43.4881 15.5507 38.425C15.133 35.2419 15.0659 32.0227 15.3507 28.825Z" fill="black"/>
<path d="M57.7005 25.125V21.95C57.7005 20.875 57.5255 19.85 57.4255 18.825V17C57.3953 16.6169 57.2262 16.2581 56.95 15.991C56.6737 15.724 56.3093 15.5671 55.9255 15.55H53.0005V10.55C53.0005 8.9 53.0005 7.325 52.8255 5.75C52.8255 5.25 53.0755 3.55 53.0255 2.5C53.0385 1.89874 52.8344 1.31294 52.4505 0.85C52.1013 0.560451 51.6759 0.378117 51.2255 0.325C50.4677 0.284234 49.7082 0.284234 48.9505 0.325L42.2005 0C40.0005 0 37.0505 0 34.0255 0.15C27.5005 0.4 20.0005 0.925 15.0005 1.1C14.8999 1.09665 14.7997 1.11357 14.7058 1.14975C14.6119 1.18594 14.5262 1.24065 14.4539 1.31063C14.3816 1.38061 14.3241 1.46443 14.2848 1.55709C14.2456 1.64976 14.2254 1.74937 14.2255 1.85C14.2255 2.05554 14.3071 2.25267 14.4525 2.39801C14.5978 2.54335 14.7949 2.625 15.0005 2.625L21.5255 2.8C21.5255 3.3 21.1505 4.475 21.1005 4.95C21.0505 5.425 21.1005 5.525 20.9755 5.825C20.9502 6.28299 20.9502 6.74201 20.9755 7.2C20.9755 7.975 21.1505 8.75 21.2755 9.525C20.7313 9.60488 20.2062 9.78276 19.7255 10.05C18.68 10.6773 17.6927 11.3968 16.7755 12.2C14.7382 13.8131 12.8322 15.5853 11.0755 17.5C9.40046 19.3 7.85046 21.225 6.22546 23.325C5.38411 24.4055 4.67101 25.5801 4.10046 26.825C3.51967 28.0699 3.05924 29.3675 2.72546 30.7C2.38912 31.9481 2.13854 33.2177 1.97546 34.5C1.91313 35.3822 1.91313 36.2678 1.97546 37.15C1.9124 41.8708 3.47477 46.4696 6.40046 50.175C9.72173 53.555 14.1717 55.5931 18.9005 55.9C23.2456 56.567 27.6886 56.1373 31.8255 54.65C34.6934 53.4666 37.0494 51.3054 38.4755 48.55C40.916 43.5704 41.5607 37.9004 40.3005 32.5C39.1748 27.2018 36.7427 22.269 33.2255 18.15C30.9235 15.994 28.5119 13.9579 26.0005 12.05C25.0005 11.2 23.9505 10.5 23.3255 10C23.5448 9.0937 23.7117 8.17551 23.8255 7.25C23.8505 6.84205 23.8505 6.43295 23.8255 6.025C23.771 5.60307 23.6875 5.1854 23.5755 4.775C23.5755 4.375 23.2005 3.3 23.1005 2.825H31.4005H42.2505C42.2505 2.825 50.3255 3.3 50.7505 3.075V10.575C50.7505 12.1 50.8755 14.05 50.9005 15.75H49.9755C49.7505 15.75 48.4005 15.75 47.8505 16C47.5289 16.0828 47.2299 16.2366 46.9755 16.45C46.6758 16.7731 46.4912 17.1862 46.4505 17.625C46.2995 18.7946 46.2077 19.9711 46.1755 21.15C45.9005 28.9 46.1755 46.675 46.1755 54.8V58.525C46.1755 59.65 47.6255 59.275 47.6505 59.25C47.6867 59.1191 47.6867 58.9809 47.6505 58.85C47.6647 58.7841 47.6647 58.7159 47.6505 58.65V54.925C47.8255 46.85 48.3505 29.125 48.8005 21.4C48.8005 20.475 48.8005 19.7 48.9255 19.1C49.4005 19.1 54.2505 18.475 54.2505 18.475C54.2505 18.475 54.3755 20.975 54.4505 22.075C54.5255 23.175 54.5755 24.075 54.6005 25.05L56.1005 59.05C56.1005 59.2821 56.1927 59.5046 56.3567 59.6687C56.5208 59.8328 56.7434 59.925 56.9755 59.925C57.2032 59.9185 57.4194 59.8234 57.5781 59.66C57.7368 59.4966 57.8256 59.2778 57.8255 59.05L57.7005 25.125ZM27.8505 16.05C29.1706 17.1305 30.4308 18.2822 31.6255 19.5C34.8001 23.4126 36.956 28.0508 37.9005 33C38.9134 37.8491 38.2247 42.8991 35.9505 47.3C34.426 49.7896 32.1993 51.7728 29.5505 53C27.2255 53.975 14.5505 55.125 8.35046 48.275C5.77244 45.0913 4.36098 41.1216 4.35046 37.025C4.26308 36.077 4.26308 35.123 4.35046 34.175C4.48379 33.1917 4.65879 32.2167 4.87546 31.25C5.136 30.0526 5.50416 28.8812 5.97546 27.75C6.46825 26.6372 7.08015 25.581 7.80046 24.6C9.26082 22.5749 10.8298 20.6304 12.5005 18.775C14.1197 16.9674 15.8839 15.2952 17.7755 13.775C18.5255 13.175 21.6255 11.275 21.8005 11.275C23.3005 12.2 26.3005 14.7 27.8505 16.05Z" fill="black"/>
<path d="M47.8008 59.0501C48.2508 59.0501 48.1008 59.05 47.8008 58.925V59.0501Z" fill="black"/>
</svg>
