<svg width="60" height="60" viewBox="0 0 60 60" fill="none" xmlns="http://www.w3.org/2000/svg">
<g clip-path="url(#clip0_168_4986)">
<path fill-rule="evenodd" clip-rule="evenodd" d="M45.3495 34.4002C45.1195 34.5278 44.909 34.6878 44.7245 34.8752C42.7245 36.7252 43.0745 37.1252 43.1995 37.3752C43.3245 37.6252 43.1995 38.2252 46.1245 37.2252C46.3674 37.1287 46.6016 37.0116 46.8245 36.8752L47.4495 36.4002C47.8745 36.0252 48.2245 35.6002 48.7245 35.1252C49.3245 33.9502 48.8745 33.5252 47.5245 33.7002C47.0429 33.8088 46.5673 33.9423 46.0995 34.1002C45.8438 34.1854 45.5934 34.2856 45.3495 34.4002Z" fill="black"/>
<path fill-rule="evenodd" clip-rule="evenodd" d="M58.8744 41.2C58.5113 40.4768 58.0003 39.838 57.3744 39.325C56.9483 38.9732 56.4667 38.6944 55.9494 38.5C55.1869 38.208 54.3877 38.0229 53.5744 37.95H52.7744C52.7034 36.3951 52.3119 34.8716 51.6244 33.475C51.0191 32.3114 50.0901 31.3477 48.9494 30.7C48.2451 30.2784 47.4887 29.9507 46.6994 29.725C45.9986 29.5122 45.2503 29.5122 44.5494 29.725C42.4994 30.5 40.4244 31.325 38.4244 32.225C36.4244 33.125 34.4994 34.275 32.5494 35.325L28.6494 37.575C27.7817 37.7449 26.9408 38.0308 26.1494 38.425C24.4602 39.3452 23.0061 40.6428 21.9004 42.2168C20.7947 43.7909 20.0671 45.5988 19.7744 47.5C18.4986 47.5779 17.2542 47.9274 16.1244 48.525C14.4379 49.4294 12.9816 50.7089 11.8676 52.265C10.7537 53.821 10.0119 55.612 9.69942 57.5C9.58591 57.6322 9.52379 57.8008 9.52442 57.975C9.53072 58.1985 9.62229 58.411 9.78035 58.5691C9.93841 58.7272 10.151 58.8187 10.3744 58.825L15.7994 59.325H19.3994C20.8244 59.325 22.2494 59.325 23.6744 59.475C25.1568 59.55 26.642 59.55 28.1244 59.475H28.2994H28.6744C28.8007 59.4513 28.9202 59.4001 29.0244 59.325L34.2494 59.825H37.8494C39.2744 59.825 40.6994 59.825 42.1244 60C43.6068 60.0752 45.092 60.0752 46.5744 60H46.7744C46.888 60.0381 47.0109 60.0381 47.1244 60C47.2379 59.9899 47.3479 59.9557 47.447 59.8996C47.5462 59.8436 47.6322 59.767 47.6994 59.675C47.6994 59.675 47.8244 59.675 47.8744 59.675C49.3244 58.45 50.8744 57.175 52.3994 55.8C53.0244 55.25 53.6494 54.65 54.2494 54.025C54.8494 53.4 55.3994 52.8 55.9494 52.125C57.0994 50.7 58.1744 49.175 59.2994 47.55C59.4458 47.4816 59.5688 47.3716 59.6533 47.2339C59.7377 47.0961 59.7798 46.9365 59.7744 46.775C59.9791 44.8696 59.6682 42.9442 58.8744 41.2ZM33.6744 37.65L45.5244 32.275C45.8245 32.1741 46.1494 32.1741 46.4494 32.275C47.2402 32.4673 47.9811 32.8252 48.6233 33.3251C49.2654 33.8251 49.7941 34.4556 50.1744 35.175C50.6558 36.2015 50.9681 37.299 51.0994 38.425C49.6494 39.375 48.1494 40.225 46.6744 41.15C45.9744 41.6 45.2994 42.075 44.6494 42.55C43.9994 43.025 43.3244 43.525 42.6744 44.05C41.4994 45 40.3994 46.05 39.2994 47.075C39.1968 45.3673 38.69 43.7085 37.8207 42.235C36.9514 40.7616 35.7445 39.5157 34.2994 38.6C33.849 38.3641 33.3809 38.1635 32.8994 38L33.6744 37.65ZM25.9494 41.8C26.812 41.2293 27.7682 40.8147 28.7744 40.575C30.1995 40.1716 31.7239 40.3143 33.0494 40.975C34.4105 41.6563 35.5217 42.7499 36.2244 44.1C36.8395 45.3036 37.2694 46.5931 37.4994 47.925H37.3244C35.5994 47.65 33.8994 47.225 32.1744 46.925L30.5994 46.75C30.7279 46.6022 30.8294 46.433 30.8994 46.25C30.9228 46.101 30.9228 45.9491 30.8994 45.8C30.9233 45.651 30.9233 45.4991 30.8994 45.35C30.4244 43.425 30.0994 43.375 29.7244 43.35C29.3494 43.325 28.9744 43.35 28.2494 45.175C28.226 45.3241 28.226 45.476 28.2494 45.625C28.2113 45.7811 28.2113 45.944 28.2494 46.1C28.3153 46.2788 28.3904 46.4541 28.4744 46.625H27.9494C27.2244 46.625 26.4994 46.8 25.7494 46.85L21.4744 47.125C22.3524 44.9137 23.9222 43.0457 25.9494 41.8ZM22.2244 56.8C21.861 56.7337 21.4935 56.692 21.1244 56.675C21.164 56.5361 21.164 56.3889 21.1244 56.25C21.1503 56.1095 21.1503 55.9655 21.1244 55.825C20.5494 53.95 20.2994 53.925 19.8994 53.9C19.4994 53.875 19.0994 53.9 18.4744 55.775C18.4534 55.9327 18.4534 56.0924 18.4744 56.25C18.4606 56.3579 18.4606 56.4671 18.4744 56.575H17.9744L15.7744 56.8L11.4744 57.1C12.3445 54.8719 13.9036 52.9799 15.9244 51.7C16.8036 51.1434 17.7655 50.7299 18.7744 50.475C20.1911 50.0708 21.708 50.2135 23.0244 50.875C24.3986 51.5585 25.5194 52.6618 26.2244 54.025C26.8365 55.2211 27.2662 56.5019 27.4994 57.825C25.7744 57.5 24.0244 57.125 22.2244 56.825V56.8ZM28.8994 55.15C28.6253 54.0171 28.2052 52.9246 27.6494 51.9C27.0858 50.9538 26.3675 50.1087 25.5244 49.4H25.8244H29.4244C30.7244 49.4 31.9244 49.4 33.3244 49.55C31.3614 50.9836 29.8305 52.9296 28.8994 55.175V55.15ZM40.6744 57.275L39.7744 57.15C39.7744 57 39.8994 56.85 39.9494 56.675C39.9737 56.4841 39.9737 56.2909 39.9494 56.1C39.9634 55.8919 39.9634 55.6831 39.9494 55.475C39.3744 53.325 38.9244 53.25 38.5244 53.275C38.1244 53.3 37.7994 53.275 37.2744 55.525C37.2622 55.7165 37.2622 55.9086 37.2744 56.1C37.2483 56.3076 37.2483 56.5175 37.2744 56.725V56.95H36.3244C35.5994 56.95 34.8744 57.125 34.1244 57.175L29.9994 57.5C30.8617 55.2738 32.4233 53.3876 34.4494 52.125C35.3176 51.5646 36.272 51.1507 37.2744 50.9C38.6995 50.4966 40.2239 50.6393 41.5494 51.3C42.9113 51.992 44.0217 53.0937 44.7244 54.45C45.3776 55.6641 45.8413 56.9708 46.0994 58.325C44.2244 58.05 42.4994 57.5 40.6744 57.3V57.275ZM53.9744 50C52.7653 51.176 51.606 52.4021 50.4994 53.675C49.4994 54.825 48.5744 55.95 47.6744 57.05C47.4452 55.4108 46.8835 53.8357 46.0237 52.4213C45.1639 51.0069 44.0241 49.7831 42.6744 48.825C42.1286 48.5317 41.5494 48.305 40.9494 48.15C42.0744 47.45 43.1994 46.775 44.3244 46.05C45.4494 45.325 46.5244 44.6 47.5744 43.8C49.1497 42.4829 50.644 41.072 52.0494 39.575H52.1994C52.5265 39.5357 52.8578 39.5968 53.1494 39.75C53.7239 40.0021 54.262 40.3301 54.7494 40.725C55.1609 41.0161 55.5238 41.3705 55.8244 41.775C56.1832 42.1939 56.5013 42.6459 56.7744 43.125C57.3486 44.1269 57.754 45.2165 57.9744 46.35C56.6494 47.675 55.2744 48.85 53.9744 50Z" fill="black"/>
<path fill-rule="evenodd" clip-rule="evenodd" d="M49.6745 50.675C50.0016 50.3684 50.3105 50.0428 50.5995 49.7C51.2995 48.925 51.8995 48.1 52.5495 47.2C52.7008 47.0418 52.7852 46.8314 52.7852 46.6125C52.7852 46.3936 52.7008 46.1832 52.5495 46.025C52.3902 45.8663 52.1744 45.7771 51.9495 45.7771C51.7246 45.7771 51.5088 45.8663 51.3495 46.025C50.4745 46.6 49.6245 47.1 48.8495 47.725C48.4846 47.9715 48.134 48.2386 47.7995 48.525C47.4727 48.8143 47.1638 49.1232 46.8745 49.45C46.5495 49.85 46.2745 50.25 45.9745 50.65C45.6745 51.725 45.9745 52.375 47.0245 52.5C47.5745 52.175 48.1495 51.85 48.6995 51.45C49.2495 51.05 49.3495 50.95 49.6745 50.675Z" fill="black"/>
<path fill-rule="evenodd" clip-rule="evenodd" d="M41.425 42.5001C41.7107 42.2974 41.9861 42.0804 42.25 41.8501C44.75 39.4751 44.25 39.0501 44.075 38.8251C43.9 38.6001 43.4 38.2501 40.675 39.6751C40.1934 39.9047 39.7403 40.19 39.325 40.5251C39.0566 40.756 38.8059 41.0067 38.575 41.2751C37.9 42.3751 38.2 43.0751 39.5 43.4001L40.575 43.0001C40.8669 42.8483 41.1506 42.6814 41.425 42.5001Z" fill="black"/>
<path fill-rule="evenodd" clip-rule="evenodd" d="M22.4996 20.225C21.2002 21.4095 19.9808 22.6789 18.8496 24.025C18.0996 24.95 17.4246 25.925 16.7496 26.925C15.2746 29.2 13.9746 31.6 12.5246 33.825C11.8246 34.9 11.1246 35.95 10.3996 37C9.67459 38.05 8.94959 39.05 8.14959 40.025C7.73125 40.591 7.26268 41.1181 6.74959 41.6C6.36168 41.9909 5.87947 42.275 5.34959 42.425C5.04873 42.4566 4.74484 42.4086 4.4684 42.2858C4.19195 42.1629 3.95268 41.9695 3.77459 41.725C3.52736 41.4767 3.33506 41.1793 3.21017 40.852C3.08527 40.5247 3.03056 40.1748 3.04959 39.825C3.13796 39.3145 3.33397 38.8288 3.62459 38.4C4.18338 37.5253 4.80149 36.69 5.47459 35.9C7.97459 32.6 10.4746 29.075 12.9746 25.725C14.0496 24.3 15.1496 22.9 16.2996 21.575C17.4496 20.25 18.1246 19.625 19.0996 18.7C20.9996 16.975 22.2746 15.825 24.2496 14.075C24.7496 13.4 23.9996 12.325 23.3246 12.825C21.2746 14.55 19.9996 15.625 17.8246 17.5C16.7746 18.425 15.7246 19.35 14.7496 20.375C13.7746 21.4 12.2496 23.075 11.1246 24.475C8.44959 27.5 5.97459 31.025 3.29959 34.225C2.57021 35.0804 1.88594 35.9733 1.24959 36.9C0.739285 37.6511 0.398098 38.5041 0.249588 39.4C0.179427 40.1608 0.270034 40.9279 0.515529 41.6515C0.761024 42.375 1.15592 43.0389 1.67459 43.6C2.19347 44.2314 2.87622 44.7078 3.64797 44.9768C4.41971 45.2458 5.25063 45.297 6.04959 45.125C6.84811 44.9135 7.59055 44.5295 8.22459 44C9.02217 43.3209 9.73558 42.5487 10.3496 41.7C10.9746 40.85 11.5996 40 12.1746 39.2C13.0496 37.9 13.8496 36.575 14.6746 35.225C16.0496 32.925 17.1746 30.475 18.6496 28.175C19.2246 27.225 19.8496 26.275 20.5246 25.375C21.5396 24.0521 22.6332 22.7915 23.7996 21.6C25.1246 20.275 26.5246 19.1 27.9496 17.825C28.0254 17.6673 28.0549 17.4913 28.0347 17.3175C28.0145 17.1437 27.9454 16.9792 27.8354 16.8431C27.7255 16.707 27.5792 16.6049 27.4136 16.5486C27.2479 16.4922 27.0697 16.4841 26.8996 16.525C25.3246 17.775 23.9496 18.825 22.4996 20.225Z" fill="black"/>
<path fill-rule="evenodd" clip-rule="evenodd" d="M36.325 2.72507C36.7103 2.83608 37.08 2.9957 37.425 3.20007C37.7429 3.37773 38.0299 3.60568 38.275 3.87507C38.275 3.87507 38.475 4.00007 38.475 4.07507C38.4896 4.51373 38.3576 4.94474 38.1 5.30007C37.8708 5.70225 37.6117 6.08667 37.325 6.45007C37.15 7.17507 37.95 7.47507 38.775 7.37507C39.2119 7.05066 39.6216 6.69113 40 6.30007C40.5198 5.72768 40.859 5.01452 40.975 4.25007C40.9783 3.5401 40.7866 2.84285 40.4207 2.23445C40.0548 1.62604 39.5287 1.12985 38.9 0.800068C38.3335 0.420686 37.6916 0.168391 37.0184 0.0605066C36.3452 -0.0473778 35.6566 -0.00829634 35 0.175068C34.7301 0.285476 34.484 0.446736 34.275 0.650068C34.018 0.933725 33.7917 1.24378 33.6 1.57507L33 2.75007C32.8 3.60007 33 3.97507 34.125 3.87507C35.675 2.70007 35.7 2.50007 36.325 2.72507Z" fill="black"/>
<path fill-rule="evenodd" clip-rule="evenodd" d="M44.9993 10.1251C44.9641 9.5826 44.7732 9.06177 44.4493 8.6251C44.2572 8.39119 44.0172 8.20104 43.7456 8.06738C43.474 7.93372 43.1769 7.85964 42.8743 7.8501C42.2869 7.87399 41.702 7.94084 41.1243 8.0501C40.5792 8.04983 40.0353 7.99962 39.4993 7.9001L37.1993 7.1501C36.6127 6.96876 36.0685 6.67119 35.5993 6.2751C35.008 5.75006 34.4565 5.18183 33.9493 4.5751C33.0993 3.5751 32.5243 3.3751 31.7493 3.6501C31.0859 3.92118 30.4633 4.28296 29.8993 4.7251C29.4539 5.17407 29.0364 5.64997 28.6493 6.1501L24.5493 11.3751C23.8243 12.3251 24.2493 12.7251 25.1243 13.4251C26.6992 14.6164 27.9182 16.2158 28.6493 18.0501C29.4693 19.9542 29.7546 22.0459 29.4743 24.1001C29.4505 24.2492 29.4505 24.4011 29.4743 24.5501C29.4647 24.7298 29.5201 24.9069 29.6302 25.0492C29.7404 25.1914 29.898 25.2894 30.0743 25.3251C30.222 25.3621 30.3766 25.3621 30.5243 25.3251C32.5702 25.1796 34.5711 24.654 36.4243 23.7751C38.3694 22.8667 40.08 21.5239 41.4243 19.8501C42.7966 18.0831 43.8229 16.0729 44.4493 13.9251C44.852 12.7 45.0381 11.4141 44.9993 10.1251ZM41.7493 14.1501C41.2966 15.6993 40.5868 17.1613 39.6493 18.4751C38.5716 19.9465 37.1795 21.1592 35.5743 22.0251C34.2068 22.7534 32.7287 23.2517 31.1993 23.5001C31.3991 21.4672 31.1341 19.4155 30.4243 17.5001C29.7078 15.4512 28.5661 13.5769 27.0743 12.0001L30.5493 7.9501L31.7743 6.6751C31.9243 6.8001 32.0993 7.0501 32.1993 7.1251C32.9931 7.8089 33.828 8.44342 34.6993 9.0251C35.3281 9.42093 35.9887 9.76378 36.6743 10.0501C37.3794 10.3224 38.1073 10.5315 38.8493 10.6751C39.5995 10.8117 40.3628 10.862 41.1243 10.8251C41.459 10.7372 41.7852 10.6201 42.0993 10.4751C42.1219 10.6326 42.1219 10.7926 42.0993 10.9501C42.0997 12.0326 41.9482 13.1097 41.6493 14.1501H41.7493Z" fill="black"/>
</g>
<defs>
<clipPath id="clip0_168_4986">
<rect width="60" height="60" fill="white"/>
</clipPath>
</defs>
</svg>
