<svg width="60" height="60" viewBox="0 0 60 60" fill="none" xmlns="http://www.w3.org/2000/svg">
<path d="M37.1641 13.5641C35.7585 10.5398 34.1051 7.62347 32.219 4.84144C32.0731 4.79299 31.9152 4.78693 31.7656 4.82404C31.616 4.86115 31.4817 4.93973 31.38 5.04962C31.1151 5.34106 31.38 5.04962 28.7088 8.96334C27.6491 10.5871 26.2583 11.1908 25.9492 14.022C25.8705 15.4089 25.8705 16.7987 25.9492 18.1856C25.7946 27.3662 25.044 36.3178 26.192 45.769C26.6556 49.4121 27.4725 54.0961 31.4463 54.7415C35.4201 55.3868 36.8992 50.5779 37.1862 46.4144C37.1862 38.9825 37.6278 42.0843 37.3628 20.9752C37.3408 20.8711 37.2083 13.8139 37.1641 13.5641ZM28.6867 45.8107C28.6867 45.2278 28.5542 44.8739 28.3555 43.2293C30.4788 43.4854 32.6251 43.5272 34.7578 43.3542C34.7206 44.0477 34.7206 44.7425 34.7578 45.4359C32.7456 44.9263 30.6112 45.058 28.6867 45.8107ZM35.3097 14.1678C35.9278 15.3752 35.1552 37.317 34.8902 41.6055C32.7389 40.8921 30.3866 40.9365 28.2672 41.7304C27.6049 33.9862 27.7815 26.3045 27.6049 18.1856V15.2503C28.6867 16.5826 30.6957 20.1008 32.0203 18.0399C32.9708 16.6504 34.0653 15.3533 35.2876 14.1678H35.3097ZM31.7554 6.92321C32.0246 7.34685 32.2679 7.78475 32.4839 8.23472C33.3363 9.56484 34.0746 10.9571 34.6916 12.3983C34.4929 12.3983 30.8502 15.3544 30.7177 15.4793C29.5035 14.1469 29.4152 14.8548 27.7815 12.8354C28.201 11.6696 28.0465 12.6064 31.7554 6.92321ZM28.9295 47.4344C30.8255 47.6489 32.7445 47.5998 34.6253 47.2887C33.8526 54.5957 30.0334 53.7006 28.9295 47.4344Z" fill="black"/>
<path d="M47.783 21.0792C47.9352 21.162 48.1161 21.1844 48.2859 21.1414C48.4556 21.0985 48.6003 20.9937 48.6882 20.8502C48.776 20.7066 48.7997 20.5361 48.7542 20.376C48.7087 20.2159 48.5975 20.0795 48.4453 19.9967C47.6285 19.497 46.4584 20.2465 44.2066 18.5186C43.8936 18.3072 43.6302 18.0373 43.4327 17.7257C43.2352 17.4141 43.1078 17.0675 43.0586 16.7075C42.7937 13.9387 47.4739 12.0859 47.8492 9.00491C47.7757 8.60318 47.6496 8.2116 47.4739 7.83912C50.0569 8.94245 50.7854 8.94245 51.4698 9.67107C53.3463 11.7528 52.9048 15.6666 51.4698 17.8524C51.0721 18.6556 50.4918 19.3664 49.7699 19.9342C48.7985 20.3922 49.6154 22.4323 51.6685 20.2881C55.5099 16.2703 55.5099 11.0242 53.3243 8.31792C52.3488 7.29797 51.0852 6.56139 49.6816 6.19452C48.9667 5.7583 48.1738 5.44795 47.3415 5.27854C47.1225 5.22585 46.8946 5.21485 46.6711 5.24619C46.4476 5.27753 46.2329 5.35058 46.0397 5.46107C45.8465 5.57155 45.6786 5.71726 45.5458 5.88966C45.413 6.06207 45.3179 6.25771 45.2663 6.46515C45.1891 7.20586 45.1891 7.95193 45.2663 8.69264L44.8027 9.75434C43.5001 12.0443 40.3873 13.5848 41.0717 16.9364C41.8885 21.1624 48.4895 21.1624 47.783 21.0792Z" fill="black"/>
<path d="M50.7193 23.827C50.7193 24.1809 50.7193 23.827 50.5648 29.8225C50.5648 34.6522 48.5338 52.0558 47.7611 51.9725C46.9884 51.8892 46.1715 47.9339 46.0612 47.2261C44.78 40.9949 44.4307 34.6253 45.0236 28.3028C45.2155 26.3615 45.6149 24.4435 46.2157 22.5779C46.2157 21.4954 45.2222 21.0374 44.7807 22.3073C44.3392 23.5772 44.0963 24.6389 43.9859 25.0969C41.2705 36.047 43.4561 49.8907 44.9132 52.4721C46.3702 55.0535 49.0636 55.0952 50.2999 52.6179C50.9313 50.7025 51.266 48.7112 51.2933 46.7056C52.1102 34.4024 52.4192 39.1696 52.2206 23.8062C53.0595 23.0151 51.0946 21.7869 50.7193 23.827Z" fill="black"/>
<path d="M12.1514 44.0205C11.1801 44.2703 10.9814 44.3744 10.8268 44.9573C10.6723 45.5402 10.8268 45.2279 13.4319 49.6829C15.6395 53.5342 15.6395 53.8464 16.2798 53.8464C16.4289 53.8495 16.5745 53.8033 16.6914 53.7159C16.8083 53.6285 16.8892 53.5053 16.92 53.3676C16.92 53.1595 17.3836 53.9297 12.9683 45.8733C15.4238 45.7762 17.8635 45.4555 20.2536 44.9157C19.1261 46.9183 18.1807 49.0076 17.4278 51.161C17.4278 51.9729 18.5537 52.1602 18.9731 51.161C21.3353 45.9982 22.1963 45.3736 22.1963 43.7499C22.1963 42.1261 13.0566 43.7707 12.1514 44.0205Z" fill="black"/>
<path d="M8.26585 17.1864C8.66808 16.0508 9.23255 14.9723 9.94367 13.9804C10.4686 13.4333 11.1515 13.0426 11.9085 12.8563C11.2904 16.6659 11.5553 20.08 11.2683 23.848C10.8488 29.6562 10.8047 36.6093 10.8047 40.8977C11.0696 42.9795 11.6657 42.9795 12.615 40.8977C12.615 38.816 12.615 36.0056 13.0344 30.4889C15.4014 30.9985 17.8729 30.8686 20.1652 30.1142C20.1652 36.5885 20.2976 39.5238 20.3197 40.981C20.3418 42.4382 21.2249 42.6464 22.1079 40.981C22.1079 38.2331 22.1079 31.1967 22.3729 14.7091C22.3729 11.6905 22.7923 8.0474 19.8782 6.38199C19.0172 5.86155 18.4211 5.23701 17.1628 5.42437C14.1162 5.924 12.7474 8.6303 12.1513 11.4823C10.7404 11.4643 9.37225 11.9388 8.31 12.8147C5.52834 15.6667 5.04265 18.4979 4.84396 22.37C4.84396 23.7439 4.44658 26.5335 6.0361 26.5335C7.62562 26.5335 5.52834 24.8056 8.26585 17.1864ZM17.5822 7.77677L18.4874 8.33885C20.0769 9.21319 19.8782 12.315 19.834 14.0845C17.9655 13.6934 16.0288 13.6934 14.1603 14.0845C14.359 11.7738 15.1979 8.15149 17.5822 7.77677ZM13.4759 24.0354L14.0279 15.7083C15.9344 16.1687 17.9264 16.2185 19.8561 15.854L20.0548 28.3447C17.6979 28.0426 15.2991 28.2417 13.0344 28.9275C13.1669 27.3246 13.2993 25.6592 13.4759 24.0354Z" fill="black"/>
</svg>
