<svg width="60" height="60" viewBox="0 0 60 60" fill="none" xmlns="http://www.w3.org/2000/svg">
<g clip-path="url(#clip0_169_5079)">
<path fill-rule="evenodd" clip-rule="evenodd" d="M45 31.1499H45.525C45.6367 31.1602 45.7493 31.1483 45.8564 31.1149C45.9635 31.0814 46.0629 31.0271 46.1489 30.9551C46.2349 30.883 46.3057 30.7947 46.3574 30.6951C46.4091 30.5955 46.4406 30.4867 46.45 30.3749C46.4658 30.1923 46.4203 30.0096 46.3207 29.8556C46.2211 29.7017 46.0731 29.5854 45.9 29.5249C45.8298 29.4603 45.7467 29.4113 45.6562 29.3812C45.5658 29.351 45.4699 29.3404 45.375 29.3499H45C42.6535 29.0365 40.3535 28.4405 38.15 27.5749C35.8251 26.6861 33.7005 25.3434 31.9 23.6249C30.27 22.0459 28.9177 20.2034 27.9 18.1749C27.1921 16.7912 26.5741 15.3632 26.05 13.8999C24.7593 10.1376 23.9201 6.23526 23.55 2.27494C23.5257 2.10046 23.4387 1.9408 23.3053 1.82578C23.1719 1.71076 23.0011 1.64825 22.825 1.64994C21.3 1.64994 20.95 10.7749 16.225 18.3499C15.1376 20.1327 13.7988 21.7493 12.25 23.1499C11.2214 24.0952 10.0989 24.9329 8.89999 25.6499C7.66881 26.4023 6.36154 27.0224 4.99999 27.4999C1.87499 28.6249 -0.150009 28.4499 -9.22929e-06 29.6499C0.0177546 29.7461 0.0548015 29.8377 0.108901 29.9192C0.163 30.0007 0.233033 30.0704 0.314782 30.1242C0.396532 30.1779 0.488308 30.2145 0.584584 30.2318C0.68086 30.2491 0.779645 30.2468 0.874991 30.2249C1.29999 30.2249 2.04999 29.6499 6.67499 31.5749C7.85955 32.0112 8.97839 32.6084 9.99999 33.3499C11.3769 34.377 12.5979 35.598 13.625 36.9749C15.2045 39.052 16.4837 41.3412 17.425 43.7749C20.875 52.4999 19.925 58.1499 21.275 58.3499C21.3722 58.3677 21.472 58.3654 21.5683 58.3432C21.6645 58.321 21.7553 58.2794 21.8349 58.2209C21.9145 58.1623 21.9813 58.0881 22.0311 58.0029C22.081 57.9176 22.113 57.823 22.125 57.7249C22.8248 53.4181 23.8273 49.1659 25.125 44.9999C25.7067 43.2666 26.4517 41.5924 27.35 39.9999C28.3052 38.3272 29.53 36.8237 30.975 35.5499C32.4584 34.2847 34.1502 33.2866 35.975 32.5999C37.144 32.1698 38.3487 31.8435 39.575 31.6249C41.325 31.4749 43.125 31.2999 45 31.1499ZM35.325 30.5249C33.142 31.1518 31.0976 32.1868 29.3 33.5749C27.5057 35.006 25.9962 36.7615 24.85 38.7499C23.8614 40.4974 23.0731 42.3508 22.5 44.2749C22.0149 46.0671 21.6392 47.8872 21.375 49.7249C20.9462 46.4217 20.0453 43.1971 18.7 40.1499C17.9118 38.3487 16.8769 36.666 15.625 35.1499C14.3545 33.6489 12.8623 32.3506 11.2 31.2999C10.0377 30.5964 8.79557 30.0341 7.49999 29.6249C6.97499 29.4499 6.44999 29.3499 5.92499 29.2249L6.49999 29.0749C7.70033 28.7279 8.87078 28.2848 9.99999 27.7499C11.8256 26.9228 13.5123 25.818 15 24.4749C16.4514 23.1181 17.6902 21.5505 18.675 19.8249C20.5509 16.3601 21.8432 12.6099 22.5 8.72494C22.7992 11.6065 23.4369 14.4427 24.4 17.1749C25.5761 20.429 27.4933 23.3648 30 25.7499C32.2026 27.5843 34.7539 28.9535 37.5 29.7749C37.7028 29.8131 37.9031 29.8632 38.1 29.9249C37.1284 30.0552 36.1676 30.2557 35.225 30.5249H35.325Z" fill="black"/>
<path fill-rule="evenodd" clip-rule="evenodd" d="M59.2254 12C58.089 11.7103 56.9372 11.4849 55.7754 11.325H55.5254C55.5378 11.192 55.5378 11.058 55.5254 10.925C55.3754 9.75 55.0504 8.675 54.8254 7.5C54.8254 7.30109 54.7464 7.11032 54.6057 6.96967C54.4651 6.82902 54.2743 6.75 54.0754 6.75C53.8765 6.75 53.6857 6.82902 53.5451 6.96967C53.4044 7.11032 53.3254 7.30109 53.3254 7.5C53.1504 8.675 52.9004 9.8 52.8004 10.975V11.275C51.6254 11.275 50.5254 11.7 49.4004 11.925C49.3019 11.925 49.2044 11.9444 49.1134 11.9821C49.0224 12.0198 48.9397 12.075 48.8701 12.1447C48.8004 12.2143 48.7452 12.297 48.7075 12.388C48.6698 12.479 48.6504 12.5765 48.6504 12.675C48.6504 12.7735 48.6698 12.871 48.7075 12.962C48.7452 13.053 48.8004 13.1357 48.8701 13.2053C48.9397 13.275 49.0224 13.3302 49.1134 13.3679C49.2044 13.4056 49.3019 13.425 49.4004 13.425C50.5504 13.6 51.7004 13.85 52.8754 13.975C53.0254 15.125 53.2504 16.225 53.4254 17.375C53.4382 17.5983 53.536 17.8082 53.6987 17.9616C53.8614 18.1151 54.0767 18.2004 54.3004 18.2C54.4119 18.2037 54.5229 18.1841 54.6263 18.1423C54.7298 18.1006 54.8234 18.0377 54.901 17.9576C54.9787 17.8776 55.0388 17.7822 55.0775 17.6775C55.1161 17.5729 55.1324 17.4613 55.1254 17.35C55.2754 16.225 55.4504 15.125 55.5504 14C56.7254 14 57.8754 13.75 59.0254 13.7C59.2471 13.7211 59.4682 13.6543 59.6412 13.5141C59.8142 13.3738 59.9252 13.1713 59.9504 12.95C59.9725 12.7292 59.9099 12.5083 59.7753 12.332C59.6407 12.1556 59.4442 12.0369 59.2254 12Z" fill="black"/>
<path fill-rule="evenodd" clip-rule="evenodd" d="M48.1003 50.8C46.9253 50.675 45.8253 50.45 44.6753 50.3C44.6628 50.1001 44.6628 49.8998 44.6753 49.7C44.5503 48.35 44.2753 47.05 44.1003 45.7C44.1003 45.501 44.0212 45.3103 43.8806 45.1696C43.7399 45.029 43.5492 44.95 43.3503 44.95C43.1513 44.95 42.9606 45.029 42.8199 45.1696C42.6793 45.3103 42.6003 45.501 42.6003 45.7C42.3503 47.075 42.0753 48.375 41.9253 49.75V50C40.4861 50.0959 39.0567 50.3048 37.6503 50.625C37.4491 50.6378 37.2609 50.7286 37.1255 50.8779C36.9902 51.0273 36.9183 51.2235 36.9253 51.425C36.9381 51.6195 37.0262 51.8013 37.1709 51.932C37.3156 52.0627 37.5054 52.1319 37.7003 52.125C38.9253 52.3 40.2003 52.6 41.3253 52.75H42.0003C41.9879 52.8328 41.9879 52.9171 42.0003 53C42.0003 54.35 42.3503 55.675 42.5503 57.025C42.5503 57.2504 42.6398 57.4666 42.7992 57.626C42.9586 57.7854 43.1748 57.875 43.4003 57.875C43.628 57.8684 43.8442 57.7734 44.0029 57.61C44.1616 57.4466 44.2504 57.2277 44.2503 57C44.3753 55.65 44.5753 54.325 44.6753 52.975V52.75C45.8503 52.75 46.9753 52.5 48.1503 52.325C48.2629 52.3252 48.3745 52.3023 48.478 52.2577C48.5815 52.2132 48.6747 52.1479 48.752 52.0659C48.8293 51.9839 48.889 51.887 48.9274 51.781C48.9658 51.6751 48.9821 51.5624 48.9753 51.45C48.9287 51.2562 48.8156 51.085 48.6557 50.9662C48.4957 50.8474 48.2992 50.7886 48.1003 50.8Z" fill="black"/>
</g>
<defs>
<clipPath id="clip0_169_5079">
<rect width="60" height="60" fill="white"/>
</clipPath>
</defs>
</svg>
