<svg width="60" height="60" viewBox="0 0 60 60" fill="none" xmlns="http://www.w3.org/2000/svg">
<g clip-path="url(#clip0_165_7404)">
<path fill-rule="evenodd" clip-rule="evenodd" d="M44.9996 26.2751C45.0555 26.4326 45.0663 26.6026 45.031 26.766C44.9957 26.9294 44.9156 27.0797 44.7996 27.2001C45.1246 26.8251 44.9996 26.5251 44.9996 26.2751ZM34.5496 18.1751C34.9746 18.5001 36.0496 16.8001 36.2246 16.6001L39.9996 12.6251C41.6496 10.8501 43.6496 8.72509 45.7246 6.85009C46.9911 5.66163 48.3825 4.61385 49.8746 3.72509C50.2756 3.48674 50.6934 3.27785 51.1246 3.10009C51.3416 3.00283 51.5677 2.92745 51.7996 2.87508H52.1746C52.6343 3.29369 52.9713 3.8295 53.1496 4.42508C53.4065 5.23782 53.5741 6.07608 53.6496 6.92508C54.2133 9.67427 54.281 12.5021 53.8496 15.2751C53.5142 16.995 52.6384 18.5628 51.3496 19.7501C50.3746 20.6251 49.3496 21.5501 48.2996 22.4501C47.2496 23.3501 46.8996 23.5751 46.1996 24.0751C45.4996 24.5751 44.4996 25.4251 43.9746 25.8251H43.7996L43.6496 25.9501C43.2496 26.3751 43.6496 28.0001 44.9746 27.1001C45.4996 26.7001 46.7996 25.7501 47.2246 25.5001C47.6496 25.2501 48.7496 24.4501 49.5246 23.8751C50.2996 23.3001 51.7496 22.1501 52.7746 21.3751C54.5133 19.965 55.7426 18.0245 56.2746 15.8501C56.8939 12.7867 56.9616 9.63731 56.4746 6.55008C56.3474 5.28103 56.0445 4.03581 55.5746 2.85008C55.1882 1.88904 54.5274 1.06304 53.6746 0.475085C53.3455 0.249837 52.975 0.0919083 52.5846 0.0103884C52.1941 -0.0711314 51.7914 -0.074633 51.3996 8.51266e-05C50.3119 0.242994 49.2781 0.683639 48.3496 1.30009C46.7316 2.36177 45.2388 3.60298 43.8996 5.00008C41.8746 7.05008 39.9996 9.37509 38.4246 11.3001L34.9996 15.5251C34.8246 15.7251 33.7246 16.7501 33.3746 17.2001C33.2418 17.3415 33.1542 17.5194 33.123 17.7109C33.0918 17.9024 33.1185 18.0988 33.1996 18.2751C33.2671 18.3947 33.3652 18.4943 33.4838 18.5635C33.6024 18.6328 33.7373 18.6693 33.8746 18.6693C34.012 18.6693 34.1469 18.6328 34.2655 18.5635C34.3841 18.4943 34.4821 18.3947 34.5496 18.2751V18.1751Z" fill="black"/>
<path fill-rule="evenodd" clip-rule="evenodd" d="M48.9998 16.3251C48.6498 16.3251 48.3248 16.5251 48.3248 17.1501C48.3216 16.9549 48.3876 16.765 48.5112 16.6139C48.6348 16.4629 48.8079 16.3605 48.9998 16.3251ZM49.6998 16.5001V16.2751L49.3748 14.5751V9.90006C49.3748 9.70006 49.7998 8.92506 49.5248 8.72506C49.6423 8.68545 49.7476 8.61639 49.8308 8.52448C49.9139 8.43257 49.9721 8.32087 49.9998 8.20006C50.0257 8.10633 50.0317 8.00824 50.0176 7.91204C50.0035 7.81584 49.9694 7.72365 49.9177 7.64133C49.8659 7.55901 49.7976 7.48837 49.7171 7.43392C49.6365 7.37946 49.5455 7.34239 49.4498 7.32506C49.0748 7.17506 48.6998 7.32506 48.3248 7.70006C47.9146 8.18132 47.593 8.7315 47.3748 9.32506C47.0963 9.8603 46.8702 10.4213 46.6998 11.0001C46.6013 11.3932 46.5426 11.7952 46.5248 12.2001C46.454 13.2895 46.6514 14.3797 47.0998 15.3751L47.8748 16.8501C48.0752 17.2099 48.3376 17.5315 48.6498 17.8001C48.7952 17.8937 48.9644 17.9435 49.1373 17.9435C49.3102 17.9435 49.4795 17.8937 49.6248 17.8001C49.7475 17.7349 49.8524 17.6406 49.9303 17.5255C50.0081 17.4105 50.0566 17.278 50.0714 17.1399C50.0862 17.0017 50.0669 16.862 50.0152 16.733C49.9635 16.6041 49.881 16.4897 49.7748 16.4001L49.6998 16.5001Z" fill="black"/>
<path fill-rule="evenodd" clip-rule="evenodd" d="M21.2498 26.3251C18.7498 28.0501 18.3248 29.0501 18.8998 29.2001C18.3498 30.1001 18.8998 30.0251 21.0748 28.3501C21.398 28.1579 21.6998 27.9316 21.9748 27.6751L22.4998 27.3251C22.594 27.2613 22.6713 27.1755 22.7248 27.0751L23.5498 26.3501L26.2248 23.6001C27.7619 21.8105 29.6293 20.3336 31.7248 19.2501C32.2743 18.9821 32.8989 18.9104 33.4948 19.0468C34.0907 19.1833 34.6218 19.5197 34.9998 20.0001C36.3748 21.4001 38.1498 23.0001 39.6748 24.7001C40.646 25.6701 41.4865 26.7626 42.1748 27.9501C42.4767 28.4565 42.744 28.9827 42.9748 29.5251C43.1649 29.8217 43.2446 30.1757 43.1998 30.5251C42.8956 31.463 42.4487 32.3484 41.8748 33.1501C40.9734 34.4877 39.9969 35.7731 38.9498 37.0001L37.2998 38.7251C37.2998 38.8501 36.5998 39.5251 36.4998 39.6751C35.7248 40.5001 35.6998 41.0251 36.0248 41.2251C36.3498 41.4251 36.6998 41.8751 37.8498 40.7251V40.5751L38.4998 39.9251L40.2998 38.2251C41.4867 37.0133 42.6051 35.7363 43.6498 34.4001C44.4026 33.4407 45.017 32.3804 45.4748 31.2501C45.6262 30.6682 45.6262 30.0571 45.4748 29.4751C45.2378 28.5192 44.8852 27.5958 44.4248 26.7251C43.6908 25.2827 42.7658 23.9457 41.6748 22.7501C40.1248 21.0001 38.2748 19.3751 36.8498 17.9751C36.083 17.1451 35.0575 16.5993 33.9406 16.4268C32.8238 16.2543 31.6814 16.4652 30.6998 17.0251C28.3811 18.3748 26.3576 20.1773 24.7498 22.3251L22.2498 25.2251L21.3248 26.1751L21.2498 26.3251Z" fill="black"/>
<path fill-rule="evenodd" clip-rule="evenodd" d="M20.5249 27.5002C24.0558 30.2323 27.4436 33.1445 30.6749 36.2252C32.309 37.7255 33.8454 39.3288 35.2749 41.0252C35.8133 41.5453 36.2166 42.1889 36.4499 42.9002L27.9249 50.9752L20.8749 57.6502C20.7161 57.8095 20.627 58.0253 20.627 58.2502C20.627 58.4751 20.7161 58.6909 20.8749 58.8502C21.0342 59.009 21.25 59.0981 21.4749 59.0981C21.6998 59.0981 21.9156 59.009 22.0749 58.8502L29.3249 52.5002C31.1499 50.7252 34.8249 47.7752 36.8249 45.7502C37.389 45.2361 37.8999 44.6666 38.3499 44.0502C38.5899 43.7064 38.7126 43.2943 38.6999 42.8752C37.7845 40.302 36.2167 38.0106 34.1499 36.2252C30.1508 32.0149 25.8476 28.1043 21.2749 24.5252C21.0867 24.4074 20.8748 24.3328 20.6543 24.3069C20.4338 24.281 20.2103 24.3043 19.9999 24.3752C19.6466 24.5216 19.3242 24.7337 19.0499 25.0002C18.0499 25.8502 15.9499 28.1002 14.8749 28.9252C14.3499 29.3252 13.8499 29.7502 13.3749 30.1752L11.3749 32.1502C8.61102 34.4654 6.18719 37.1585 4.17492 40.1502C3.72961 40.9416 3.45307 41.8167 3.36271 42.7202C3.27235 43.6238 3.37014 44.5363 3.64992 45.4002C3.96087 46.3555 4.41614 47.2576 4.99992 48.0752C5.90272 49.1825 6.86235 50.2423 7.87492 51.2502C9.12492 52.5752 10.3749 53.9502 11.7249 55.1752C12.6626 56.02 13.6657 56.789 14.7249 57.4752C15.7443 58.2522 16.8133 58.9621 17.9249 59.6002C18.5452 59.9808 19.2826 60.1229 19.9999 60.0002C20.1889 59.9505 20.3504 59.8277 20.4488 59.6589C20.5473 59.4901 20.5746 59.2892 20.5249 59.1002C20.4752 58.9112 20.3524 58.7498 20.1836 58.6513C20.0149 58.5528 19.8139 58.5255 19.6249 58.5752C19.1011 58.5841 18.5928 58.3968 18.1999 58.0502C17.1999 57.4502 16.2249 56.5252 15.6999 56.1252C14.7505 55.4847 13.8632 54.7565 13.0499 53.9502C11.7677 52.6956 10.5495 51.3773 9.39992 50.0002C8.50443 49.0273 7.66953 48.0004 6.89992 46.9252C6.44177 46.2666 6.08763 45.5415 5.84992 44.7752C5.68055 43.9838 5.70582 43.1631 5.92355 42.3837C6.14128 41.6042 6.54496 40.8893 7.09992 40.3002C9.01692 38.1022 11.116 36.07 13.3749 34.2252L16.5999 31.2752C17.4999 30.4502 19.3999 28.5252 20.5249 27.5002Z" fill="black"/>
</g>
<defs>
<clipPath id="clip0_165_7404">
<rect width="60" height="60" fill="white"/>
</clipPath>
</defs>
</svg>
