<svg width="60" height="60" viewBox="0 0 60 60" fill="none" xmlns="http://www.w3.org/2000/svg">
<g clip-path="url(#clip0_161_6824)">
<path fill-rule="evenodd" clip-rule="evenodd" d="M57.3501 17.775C56.887 16.9248 56.2478 16.1833 55.4751 15.6C54.4367 14.8425 53.3418 14.1655 52.2001 13.575C51.3501 13.1 50.5251 12.6 49.7001 12.15C49.1007 11.8231 48.483 11.5309 47.8501 11.275C46.7001 10.825 45.3501 10.3 44.1001 9.925C43.1966 9.65989 42.2653 9.50049 41.3251 9.45C41.0948 9.44964 40.8731 9.53757 40.7057 9.69569C40.5383 9.8538 40.4379 10.0701 40.4251 10.3C40.4183 10.4125 40.4345 10.5252 40.4729 10.6311C40.5113 10.737 40.571 10.834 40.6483 10.916C40.7256 10.9979 40.8189 11.0632 40.9224 11.1078C41.0259 11.1523 41.1374 11.1752 41.2501 11.175C42.0489 11.2279 42.8382 11.3791 43.6001 11.625C44.8501 12 46.1001 12.525 47.1751 12.975L48.8251 13.8C49.6501 14.25 50.4751 14.75 51.3251 15.25C52.3704 15.8087 53.3732 16.4438 54.3251 17.15C54.8647 17.5742 55.315 18.1009 55.6501 18.7C55.8099 19.0927 55.8099 19.5323 55.6501 19.925C55.2149 20.7853 54.7307 21.62 54.2001 22.425L50.5751 28.975C49.8921 30.006 49.2823 31.0837 48.7501 32.2C48.2756 33.0626 47.9942 34.018 47.9251 35V44.825C47.9251 47 47.8001 49.15 47.6751 51.325C47.6491 52.3074 47.5404 53.2859 47.3501 54.25C47.2001 54.825 47.0751 55.425 46.5501 55.525C45.8064 55.6577 45.0548 55.7412 44.3001 55.775H38.5751L21.5251 56.625C19.9501 56.625 17.7501 57.075 15.7501 57C14.7393 57.042 13.7414 56.7618 12.9001 56.2C12.9001 56.2 12.9001 55.975 12.9001 55.825C12.9001 55.675 12.5001 55.25 12.5001 55V52.25C12.5001 49.75 12.2751 47.425 12.1001 45C11.9251 42.575 11.8501 40 11.6251 37.675C11.3868 35.6853 10.8385 33.7451 10.0001 31.925C8.8128 29.359 7.4944 26.8557 6.05008 24.425C5.36968 23.312 4.80826 22.1305 4.37508 20.9C4.24787 20.5951 4.18237 20.2679 4.18237 19.9375C4.18237 19.6071 4.24787 19.2799 4.37508 18.975C4.53123 18.7397 4.74686 18.55 5.00008 18.425C5.52508 18.1 6.15008 17.825 6.55008 17.6C7.65008 17 8.75008 16.425 9.87508 15.9C11.0001 15.375 12.1501 14.9 13.3251 14.45L20.0001 11.725C20.4253 11.9768 20.8903 12.1544 21.3751 12.25C22.3872 12.386 23.413 12.386 24.4251 12.25C26.3501 12.25 28.3001 12.05 30.2501 12H34.0251C35.0822 12.2226 36.1504 12.3895 37.2251 12.5C37.6509 12.5025 38.0727 12.4171 38.4641 12.2494C38.8555 12.0817 39.2082 11.8351 39.5001 11.525C40.1702 10.7052 40.6332 9.73632 40.8501 8.7C41.0744 7.47685 41.2247 6.24126 41.3001 5C41.4314 4.40114 41.4735 3.78617 41.4251 3.175C41.3895 2.71262 41.2053 2.27414 40.9001 1.925C40.3356 1.23597 39.5782 0.731091 38.7251 0.475C37.7082 0.18265 36.6579 0.0229931 35.6001 0L29.5001 0C28.0707 0.00204521 26.6429 0.0938928 25.2251 0.275C23.797 0.476916 22.3909 0.811702 21.0251 1.275C20.9047 1.31015 20.7933 1.37075 20.6984 1.4527C20.6035 1.53465 20.5274 1.63604 20.4751 1.75C20.3532 1.6622 20.2078 1.613 20.0577 1.60877C19.9076 1.60454 19.7597 1.64548 19.6331 1.72628C19.5065 1.80708 19.4071 1.92403 19.3477 2.06198C19.2883 2.19992 19.2717 2.35252 19.3001 2.5L18.7751 8.175C18.7105 8.7649 18.7105 9.3601 18.7751 9.95C18.8068 10.1488 18.8657 10.3422 18.9501 10.525L12.7751 12.875C11.5751 13.3 10.2751 13.775 9.20008 14.3C8.12508 14.825 6.87508 15.375 5.72508 15.95C5.02322 16.2649 4.34627 16.6326 3.70008 17.05C3.32994 17.3128 3.02259 17.6543 2.80008 18.05C2.4131 18.8226 2.29015 19.7008 2.45008 20.55C2.85747 22.2106 3.50603 23.8025 4.37508 25.275C5.60008 27.775 7.02508 30.125 8.05008 32.775C8.70266 34.3722 9.11546 36.0571 9.27508 37.775C9.42508 40.125 9.57508 42.525 9.70008 44.95C9.82508 47.375 9.92508 49.725 9.95008 52.1C9.86169 53.4235 9.86169 54.7515 9.95008 56.075C10.0209 56.9707 10.4218 57.8082 11.0751 58.425C12.0202 59.2565 13.1819 59.8026 14.4251 60C16.8036 60.1168 19.1877 60.0248 21.5501 59.725L38.6251 58.9C40.5001 58.775 42.4501 58.9 44.3501 58.75C45.23 58.6994 46.1064 58.5993 46.9751 58.45C47.5114 58.3601 48.0183 58.143 48.4533 57.8167C48.8883 57.4905 49.2387 57.0647 49.4751 56.575C50.1108 54.9865 50.417 53.2854 50.3751 51.575C50.3751 49.35 50.5251 47.15 50.5251 44.95V35.1C50.5441 34.4775 50.6887 33.8653 50.9501 33.3C51.4073 32.2693 51.9422 31.2747 52.5501 30.325L55.9501 23.5C56.6067 22.4005 57.1272 21.2252 57.5001 20C57.7303 19.2657 57.6767 18.4718 57.3501 17.775ZM35.5001 2.5C36.1911 2.52056 36.8781 2.61272 37.5501 2.775C39.4251 3.275 38.6001 4 38.5001 4.55C38.409 5.73308 38.2504 6.91 38.0251 8.075C37.5001 10.2 37.0751 9.675 36.3001 9.575C35.5251 9.475 34.6751 9.25 34.1501 9.225H30.7001C30.8251 8.525 30.9501 7.85 31.0251 7.125C31.0879 6.41806 31.0879 5.70694 31.0251 5C30.9416 4.06821 30.7657 3.14702 30.5001 2.25L35.5001 2.5ZM20.8001 2.825C20.9147 2.87382 21.038 2.89899 21.1626 2.89899C21.2872 2.89899 21.4105 2.87382 21.5251 2.825C22.8098 2.49282 24.1248 2.29179 25.4501 2.225C26.5321 2.1496 27.6181 2.1496 28.7001 2.225C28.5751 3.05 28.4001 3.875 28.2751 4.725C28.2502 5.15798 28.2502 5.59202 28.2751 6.025C28.2503 6.46632 28.2503 6.90868 28.2751 7.35C28.2751 8.1 28.4751 8.825 28.6001 9.55L24.2251 10C23.396 10.1186 22.5542 10.1186 21.7251 10C21.3316 9.98431 20.9578 9.82409 20.6751 9.55V8.1L20.8001 2.825Z" fill="black"/>
<path fill-rule="evenodd" clip-rule="evenodd" d="M31.8003 38.8251C31.6003 35.3751 31.3753 31.9251 31.1253 28.4751C30.7503 23.3001 30.2753 18.1501 30.1003 12.9501C30.0678 12.7715 29.9737 12.61 29.8344 12.4937C29.695 12.3774 29.5193 12.3137 29.3378 12.3137C29.1563 12.3137 28.9806 12.3774 28.8412 12.4937C28.7019 12.61 28.6078 12.7715 28.5753 12.9501C28.3253 18.8001 28.1753 24.5751 28.4003 30.4501C28.5253 33.9251 28.8003 37.4001 29.1253 40.8501C29.5503 45.8501 30.1253 50.2251 30.6253 55.1251C30.6419 55.3737 30.7566 55.6056 30.9441 55.7697C31.1316 55.9338 31.3767 56.0167 31.6253 56.0001C31.8739 55.9835 32.1058 55.8688 32.2699 55.6813C32.434 55.4938 32.5169 55.2487 32.5003 55.0001C32.2253 49.4251 32.0753 44.3251 31.8003 38.8251Z" fill="black"/>
<path fill-rule="evenodd" clip-rule="evenodd" d="M36.7502 37.3249C36.5844 37.437 36.4683 37.6089 36.4264 37.8046C36.3844 38.0003 36.4199 38.2047 36.5252 38.3749C36.8211 39.2376 37.189 40.0739 37.6252 40.8749C37.8097 41.2202 38.0274 41.5468 38.2752 41.8499C38.5252 42.1249 38.7752 42.3999 39.0752 42.6749C39.3752 42.9499 40.3502 43.7999 41.0752 44.4749C41.2183 44.6552 41.425 44.7738 41.6529 44.8063C41.8807 44.8389 42.1124 44.7829 42.3002 44.6499C42.3894 44.5814 42.4641 44.4958 42.52 44.3982C42.576 44.3006 42.6119 44.1928 42.6259 44.0812C42.6398 43.9696 42.6315 43.8563 42.6013 43.7479C42.5712 43.6396 42.5198 43.5382 42.4502 43.4499C42.0002 42.5249 41.6502 41.7499 41.2002 40.9499C41.0123 40.6202 40.8035 40.3029 40.5752 39.9999C40.3449 39.6997 40.0943 39.4157 39.8252 39.1499C39.1752 38.5249 38.5002 38.0499 37.8002 37.3999C37.6668 37.2575 37.4845 37.1707 37.2899 37.1568C37.0953 37.1429 36.9025 37.2029 36.7502 37.3249Z" fill="black"/>
<path fill-rule="evenodd" clip-rule="evenodd" d="M22.5 38.525C21.6534 39.2543 20.7315 39.8912 19.75 40.425C19.3327 40.737 18.9321 41.0708 18.55 41.425C18.0247 41.99 17.5402 42.5915 17.1 43.225C16.6382 43.8791 16.2524 44.5837 15.95 45.325C15.8915 45.4216 15.8529 45.5289 15.8363 45.6405C15.8198 45.7522 15.8256 45.8661 15.8536 45.9755C15.8815 46.0848 15.9309 46.1876 15.999 46.2776C16.0671 46.3677 16.1524 46.4433 16.25 46.5C16.3491 46.5711 16.4623 46.62 16.582 46.6434C16.7017 46.6668 16.825 46.6642 16.9435 46.6357C17.0621 46.6073 17.1732 46.5536 17.2692 46.4784C17.3652 46.4033 17.4439 46.3083 17.5 46.2C17.8398 45.7684 18.2162 45.3669 18.625 45C19.2422 44.4589 19.8936 43.9578 20.575 43.5L21.475 42.675C21.7802 42.3698 22.0642 42.0441 22.325 41.7C22.9129 40.9862 23.4007 40.1956 23.775 39.35C23.8844 39.181 23.9221 38.9754 23.8799 38.7784C23.8377 38.5815 23.7191 38.4094 23.55 38.3C23.3809 38.1906 23.1753 38.1529 22.9784 38.1951C22.7815 38.2373 22.6094 38.356 22.5 38.525Z" fill="black"/>
</g>
<defs>
<clipPath id="clip0_161_6824">
<rect width="60" height="60" fill="white"/>
</clipPath>
</defs>
</svg>
