<svg width="60" height="60" viewBox="0 0 60 60" fill="none" xmlns="http://www.w3.org/2000/svg">
<path fill-rule="evenodd" clip-rule="evenodd" d="M31.225 3.07495V2.94995C31.225 2.94995 31.2 3.04995 31.225 3.07495Z" fill="black"/>
<path fill-rule="evenodd" clip-rule="evenodd" d="M21.4496 5.64992C21.4878 6.15475 21.563 6.6561 21.6746 7.14992C21.6943 7.24677 21.7329 7.33879 21.7882 7.42073C21.8434 7.50267 21.9143 7.57292 21.9967 7.62748C22.0791 7.68203 22.1714 7.71982 22.2685 7.73868C22.3655 7.75755 22.4653 7.75712 22.5621 7.73742C22.659 7.71772 22.751 7.67914 22.8329 7.62388C22.9149 7.56862 22.9851 7.49776 23.0397 7.41535C23.0942 7.33293 23.132 7.24058 23.1509 7.14357C23.1697 7.04655 23.1693 6.94677 23.1496 6.84992C23.1122 6.4508 23.1122 6.04904 23.1496 5.64992C23.1496 4.97492 23.2996 4.32492 23.3746 3.67492C23.3746 3.49992 23.5496 3.19992 23.4996 3.04992H23.9246C24.3076 3.0267 24.6916 3.0267 25.0746 3.04992H27.7746C28.6115 3.03258 29.4483 3.09116 30.2746 3.22492H31.2996C31.4746 3.22492 31.2996 4.19992 31.2996 4.52492C31.2996 4.84992 31.4746 5.69992 31.5246 6.24992V6.59992C31.4457 6.66535 31.3508 6.70851 31.2496 6.72492L30.0996 6.89992L27.9746 7.12492L23.4996 7.89992C23.2719 7.90643 23.0557 8.00148 22.897 8.16488C22.7383 8.32827 22.6495 8.54712 22.6496 8.77492C22.6528 8.88656 22.678 8.99647 22.7238 9.09836C22.7695 9.20025 22.8349 9.29213 22.9161 9.36875C22.9974 9.44537 23.093 9.50522 23.1974 9.54488C23.3018 9.58455 23.413 9.60325 23.5246 9.59992L28.1996 9.27492H30.1996H31.5996C32.0021 9.25776 32.3955 9.14992 32.7505 8.95945C33.1054 8.76898 33.4128 8.5008 33.6496 8.17492C34.1902 6.95024 34.3471 5.59053 34.0996 4.27492C34.0836 3.53317 33.9486 2.79881 33.6996 2.09992C33.5079 1.61519 33.1774 1.19778 32.7496 0.89992C32.4716 0.705178 32.1569 0.56908 31.8246 0.49992C31.4046 0.409824 30.9784 0.351327 30.5496 0.32492C29.7187 0.234467 28.8805 0.234467 28.0496 0.32492C26.8996 0.32492 25.7496 0.62492 24.5996 0.79992C23.8754 0.888418 23.1679 1.08213 22.4996 1.37492C22.1213 1.57986 21.7893 1.86073 21.5246 2.19992C21.3671 2.43216 21.2645 2.69718 21.2246 2.97492V3.84992C21.4496 4.24992 21.4246 4.99992 21.4496 5.64992Z" fill="black"/>
<path fill-rule="evenodd" clip-rule="evenodd" d="M46.25 42.225C46.3707 40.3057 46.2953 38.379 46.025 36.475C45.8221 35.4862 45.3556 34.5705 44.675 33.825C43.55 32.625 41.325 32.325 39.975 31.325C39.7917 31.2074 39.6378 31.0494 39.5251 30.863C39.4125 30.6767 39.344 30.467 39.325 30.25C39.2943 30.0288 39.3095 29.8036 39.3698 29.5886C39.43 29.3735 39.5339 29.1731 39.675 29C40.4322 28.3894 41.2744 27.8925 42.175 27.525C42.9929 27.1138 43.6713 26.4702 44.125 25.675C44.4344 25.0303 44.629 24.3366 44.7 23.625C44.7747 22.7015 44.7747 21.7735 44.7 20.85C44.7331 19.3068 44.6831 17.7629 44.55 16.225C44.4704 15.469 44.2589 14.7329 43.925 14.05C43.6978 13.6365 43.3921 13.2714 43.025 12.975C42.314 12.4845 41.5611 12.0579 40.775 11.7C39.55 11.075 38.275 10.175 37.15 9.47502C36.5749 9.1417 35.9728 8.85736 35.35 8.62502C35.245 8.58502 35.1331 8.56623 35.0208 8.56975C34.9085 8.57327 34.798 8.59903 34.6957 8.64552C34.5934 8.69202 34.5013 8.75834 34.4248 8.84064C34.3483 8.92295 34.2889 9.0196 34.25 9.12502C34.182 9.33773 34.1956 9.56811 34.288 9.7714C34.3804 9.97469 34.545 10.1364 34.75 10.225C35.275 10.4396 35.7846 10.6902 36.275 10.975C37.525 11.725 38.775 12.65 39.925 13.3C40.425 13.575 41.075 13.875 41.625 14.25C41.883 14.4234 42.0969 14.6545 42.25 14.925C42.4029 15.2509 42.5121 15.5956 42.575 15.95C42.575 15.95 42.425 15.95 42.375 15.95C41.4478 16.7342 40.288 17.1911 39.075 17.25C37.0829 17.3353 35.0886 17.1418 33.15 16.675C30.975 16.375 28.9 15.95 26.85 15.75C25.3943 15.6253 23.9307 15.6253 22.475 15.75C20.2223 15.8597 18.002 16.3325 15.9 17.15C15.8883 17.0002 15.8883 16.8498 15.9 16.7C15.9878 16.4946 16.1253 16.3142 16.3 16.175C16.675 15.8 17.15 15.475 17.5 15.175L22.3 10.85C22.3718 10.7801 22.4289 10.6966 22.4679 10.6042C22.5069 10.5119 22.5269 10.4127 22.5269 10.3125C22.5269 10.2123 22.5069 10.1131 22.4679 10.0208C22.4289 9.92848 22.3718 9.8449 22.3 9.77502C22.2323 9.70392 22.1508 9.64731 22.0606 9.60864C21.9703 9.56996 21.8732 9.55002 21.775 9.55002C21.6768 9.55002 21.5797 9.56996 21.4894 9.60864C21.3992 9.64731 21.3177 9.70392 21.25 9.77502L16.4 13.9C15.8758 14.2868 15.375 14.7042 14.9 15.15C14.6306 15.4124 14.4179 15.7272 14.275 16.075C14.046 16.7017 13.9112 17.3588 13.875 18.025V22.075C13.875 22.8 13.675 23.925 13.7 24.875C13.7236 25.4111 13.851 25.9375 14.075 26.425C14.3955 26.8515 14.8283 27.1805 15.325 27.375C16.461 27.7991 17.5238 28.398 18.475 29.15C18.7779 29.4033 19.0204 29.721 19.1848 30.08C19.3492 30.439 19.4312 30.8302 19.425 31.225C19.4107 31.5248 19.3292 31.8176 19.1863 32.0816C19.0435 32.3456 18.8431 32.574 18.6 32.75C17.7514 33.3017 16.866 33.7945 15.95 34.225C14.746 34.8125 13.7766 35.7907 13.2 37C12.7719 38.1798 12.5356 39.4205 12.5 40.675V45.8V53.65C12.5 54.45 12.5 56.325 12.775 57.475C12.8282 58.1197 13.0817 58.7316 13.5 59.225C14.234 59.577 15.036 59.7647 15.85 59.775C18.525 60 24.325 60 30 60C35.675 60 41.575 59.7 44.3 59.4C45.0442 59.3491 45.7728 59.1627 46.45 58.85C46.7831 58.527 47.0443 58.1374 47.2166 57.7066C47.3889 57.2759 47.4684 56.8136 47.45 56.35C47.625 52.975 46.275 45.425 46.25 42.225ZM44.675 56.475L43.175 56.65C40.85 56.825 37.175 56.95 33.175 57.05C26.775 57.175 19.625 57.05 16.3 57.05H15.475C15.475 57.05 15.275 51.475 15 45.8C15 44.25 14.825 42.5 15 40.8C14.9818 39.8546 15.2011 38.9198 15.6379 38.0812C16.0747 37.2426 16.7149 36.527 17.5 36C18.7737 35.4129 19.9073 34.5606 20.825 33.5C21.3349 32.8233 21.6073 31.9973 21.6 31.15C21.6223 30.4608 21.4901 29.7754 21.2133 29.1438C20.9365 28.5123 20.5219 27.9507 20 27.5C19.017 26.7143 17.9103 26.0976 16.725 25.675C16.35 25.525 16.025 25.15 15.875 25.25C15.8232 24.9439 15.8232 24.6312 15.875 24.325V21.975C15.875 20.975 15.725 19.8 15.7 18.65C17.874 18.0676 20.1307 17.8563 22.375 18.025C23.725 18.025 25.05 18.325 26.425 18.525L32.675 19.375C34.8732 19.6737 37.1018 19.6737 39.3 19.375C40.4515 19.1609 41.5431 18.7004 42.5 18.025V20.875C42.5501 21.7076 42.5501 22.5424 42.5 23.375C42.4476 23.8292 42.312 24.2699 42.1 24.675C41.7054 25.2164 41.1564 25.626 40.525 25.85C39.6103 26.2548 38.7663 26.8034 38.025 27.475C37.654 27.8637 37.3741 28.3301 37.2054 28.8403C37.0368 29.3505 36.9837 29.8918 37.05 30.425C37.0748 30.9513 37.218 31.4652 37.4691 31.9283C37.7202 32.3915 38.0726 32.792 38.5 33.1C39.75 34.1 41.85 34.325 42.875 35.45C43.9 36.575 43.65 42.125 43.625 42.225C43.625 45.175 44.8 53.3 44.7 56.125C44.7034 56.2422 44.695 56.3595 44.675 56.475Z" fill="black"/>
<path fill-rule="evenodd" clip-rule="evenodd" d="M26.7504 54.6C28.6504 54.475 30.5754 54.475 32.5004 54.4C34.4254 54.325 36.3754 54.25 38.3254 54.15C40.2754 54.05 42.0504 53.85 43.9004 53.65C44.7004 53.65 44.2754 51.975 43.3004 51.775C39.5504 51.775 36.2504 51.6 32.4504 51.575C30.5004 51.575 28.5254 51.575 26.5754 51.775L16.8004 52.75C15.8004 53.125 15.9504 54.325 16.8004 54.325C18.7004 54.325 19.5254 54.55 21.4254 54.6C23.3254 54.65 25.0004 54.625 26.7504 54.6Z" fill="black"/>
<path fill-rule="evenodd" clip-rule="evenodd" d="M29.0501 38.975C30.5501 38.975 32.0501 38.8249 33.5251 38.7249C37.0751 38.4749 39.7751 38.175 42.2501 37.9C43.0751 37.9 43.1251 36.175 41.9501 36.075H33.4251H28.9751C27.4501 36.075 25.9501 36.075 24.5251 36.275C21.8001 36.425 19.3751 36.6249 17.5501 36.7499C16.0251 37.2499 16.1751 38.6249 17.5501 38.7249C19.4751 38.8999 21.0251 38.9749 24.7001 39.0249C26.0251 39.0499 27.5001 39.025 29.0501 38.975Z" fill="black"/>
<path fill-rule="evenodd" clip-rule="evenodd" d="M32.0749 46.225C34.2249 45.875 36.3249 45.425 38.4749 45.125C38.7026 45.1058 38.9138 44.9983 39.0633 44.8255C39.2128 44.6526 39.2887 44.4281 39.2749 44.2C39.2685 44.0883 39.2401 43.979 39.1914 43.8783C39.1427 43.7776 39.0746 43.6875 38.991 43.6131C38.9073 43.5388 38.8099 43.4817 38.7042 43.4452C38.5984 43.4086 38.4865 43.3932 38.3749 43.4H31.9749C31.0749 43.4 30.1499 43.4 29.2499 43.6C28.3499 43.8 27.4749 43.825 26.5749 43.975C24.4749 44.325 22.4499 44.8 20.3749 45.125C20.1737 45.1379 19.9855 45.2286 19.8501 45.378C19.7148 45.5273 19.643 45.7235 19.6499 45.925C19.6562 46.0236 19.682 46.1199 19.7257 46.2085C19.7694 46.2971 19.8301 46.3762 19.9044 46.4412C19.9788 46.5062 20.0652 46.556 20.1588 46.5875C20.2524 46.619 20.3513 46.6318 20.4499 46.625C22.8896 46.7627 25.3351 46.7627 27.7749 46.625C29.2249 46.65 30.6499 46.425 32.0749 46.225Z" fill="black"/>
</svg>
