<svg width="60" height="60" viewBox="0 0 60 60" fill="none" xmlns="http://www.w3.org/2000/svg">
<g clip-path="url(#clip0_165_7221)">
<path fill-rule="evenodd" clip-rule="evenodd" d="M50.9754 43.4751C50.9754 40.8001 51.1004 37.7251 50.9754 34.7751C50.8746 32.7254 50.4354 30.7064 49.6754 28.8001C48.8114 26.7631 47.3684 25.0245 45.5254 23.8001C43.0342 22.1919 40.1817 21.2296 37.2254 21.0001L36.9504 16.3001L37.5004 16.0001C37.7892 15.8218 38.0575 15.6122 38.3004 15.3751C38.9552 14.8236 39.4103 14.0719 39.5956 13.2361C39.7808 12.4002 39.6859 11.5266 39.3254 10.7501C38.9622 10.1162 38.4694 9.56588 37.8793 9.13513C37.2891 8.70437 36.6149 8.40281 35.9004 8.2501C36.1653 7.18581 36.3162 6.09633 36.3504 5.0001C36.3679 3.9879 36.0993 2.99133 35.5754 2.1251C35.0942 1.54554 34.5005 1.06951 33.8302 0.725765C33.1599 0.38202 32.4268 0.177685 31.6754 0.125098C29.8349 -0.061428 27.978 -0.0110164 26.1504 0.275098C25.5069 0.362551 24.877 0.530534 24.2754 0.775098C23.7409 1.00038 23.2753 1.36254 22.9254 1.8251C22.7248 2.09358 22.5803 2.39965 22.5004 2.7251C22.4486 3.23211 22.4486 3.74309 22.5004 4.2501C22.5004 4.9501 22.5504 5.6501 22.6504 6.3501C22.6504 7.1501 22.8504 7.9501 22.9504 8.8501C22.6228 8.96604 22.3051 9.10817 22.0004 9.2751C21.2398 9.60815 20.5741 10.1254 20.0635 10.7801C19.5528 11.4348 19.2132 12.2063 19.0754 13.0251C18.9974 13.8114 19.1496 14.6034 19.5136 15.3047C19.8775 16.006 20.4375 16.5863 21.1254 16.9751V19.4751V21.7751C20.1004 22.1501 19.1004 22.5501 18.1004 23.0001C17.275 23.3688 16.4808 23.8036 15.7254 24.3001C13.0537 26.0167 11.0713 28.6186 10.1254 31.6501C9.03157 36.0101 8.65165 40.5185 9.00038 45.0001C8.87712 47.5055 8.99432 50.017 9.35038 52.5001C9.6136 54.3594 10.4941 56.0763 11.8504 57.3751C13.1244 58.4575 14.6434 59.2127 16.2754 59.5751C18.5595 59.9841 20.8834 60.1267 23.2004 60.0001H29.6754C31.4504 60.0001 33.2504 60.0001 36.1754 59.7751C37.7504 59.7751 39.5004 59.7751 41.1754 59.6001C42.3896 59.5178 43.5897 59.2913 44.7504 58.9251C45.9754 58.4998 47.0861 57.7983 47.9965 56.8749C48.9069 55.9515 49.5925 54.831 50.0004 53.6001C50.9331 50.3115 51.2635 46.8813 50.9754 43.4751ZM24.4254 6.8001C24.4254 5.9751 24.4254 5.1751 24.6254 4.3001V3.5001C24.6104 3.43428 24.6104 3.36592 24.6254 3.3001C24.7504 3.1501 24.9754 3.1501 25.1754 3.1001C25.5449 3.01496 25.9215 2.96474 26.3004 2.9501C27.9071 2.72889 29.5319 2.67026 31.1504 2.7751C32.1004 2.7751 33.0004 2.9251 33.4504 3.4751C33.8188 3.94077 34.0368 4.50755 34.0754 5.1001C34.1634 6.01465 34.1634 6.93555 34.0754 7.8501C31.6619 7.67386 29.2388 7.67386 26.8254 7.8501C25.9826 7.92914 25.1469 8.07121 24.3254 8.2751L24.4254 6.8001ZM48.5254 43.5251C48.7471 46.6039 48.3997 49.6972 47.5004 52.6501C47.2259 53.4985 46.7611 54.2729 46.1415 54.9142C45.5219 55.5555 44.7639 56.0466 43.9254 56.3501C42.9836 56.6421 42.0098 56.8184 41.0254 56.8751C39.3754 57.0001 37.6754 56.8751 36.0254 57.0001C33.1754 57.1251 31.4004 57.1751 29.6504 57.2001H23.2254C21.1633 57.2565 19.1012 57.0888 17.0754 56.7001C15.8549 56.4063 14.7231 55.8233 13.7754 55.0001C12.833 54.1214 12.2161 52.9494 12.0254 51.6751C11.6939 49.4665 11.5683 47.2319 11.6504 45.0001C11.2754 40.8146 11.5622 36.5962 12.5004 32.5001C13.2498 29.9403 14.8674 27.7215 17.0754 26.2251C17.7177 25.7651 18.3948 25.3555 19.1004 25.0001C20.2254 24.4501 21.4004 23.9751 22.5504 23.5251C22.754 23.4485 22.9261 23.3059 23.0393 23.1202C23.1526 22.9345 23.2005 22.7162 23.1754 22.5001V19.3751C23.1754 18.3501 23.1754 17.2751 22.9254 16.2501C22.9107 16.0935 22.8573 15.9429 22.77 15.812C22.6827 15.6811 22.5643 15.5739 22.4254 15.5001C21.9516 15.3173 21.5446 14.9945 21.2588 14.5747C20.973 14.1549 20.8218 13.658 20.8254 13.1501C20.9152 12.6138 21.1324 12.1069 21.4586 11.6719C21.7849 11.2369 22.2107 10.8865 22.7004 10.6501C24.0821 9.955 25.5842 9.53071 27.1254 9.4001C29.5551 9.21333 31.9956 9.21333 34.4254 9.4001C34.528 9.49773 34.6597 9.55918 34.8004 9.5751C34.9046 9.65019 35.0241 9.7014 35.1504 9.7251C35.6768 9.81456 36.1757 10.0233 36.6091 10.3353C37.0424 10.6472 37.3986 11.0542 37.6504 11.5251C37.81 11.9626 37.8284 12.4393 37.7028 12.8878C37.5772 13.3363 37.314 13.7341 36.9504 14.0251C36.777 14.1946 36.5735 14.3302 36.3504 14.4251C36.0909 14.5505 35.8237 14.659 35.5504 14.7501C35.3577 14.8198 35.1927 14.95 35.08 15.1213C34.9674 15.2925 34.9131 15.4955 34.9254 15.7001L35.2004 21.8001C35.1996 22.0396 35.2894 22.2705 35.4516 22.4467C35.6139 22.6228 35.8366 22.7312 36.0754 22.7501C38.4611 22.929 40.7884 23.5745 42.9254 24.6501C44.9785 25.7132 46.5706 27.4921 47.4004 29.6501C48.0847 31.3563 48.4818 33.1641 48.5754 35.0001C48.7504 37.8251 48.5254 40.8501 48.5254 43.5251Z" fill="black"/>
<path fill-rule="evenodd" clip-rule="evenodd" d="M43.3757 38.225C43.1981 38.2438 43.0313 38.3198 42.9006 38.4416C42.7699 38.5633 42.6822 38.7241 42.6507 38.9C41.2582 39.6435 39.7252 40.0864 38.1507 40.2C36.5079 40.3359 34.856 40.0877 33.3257 39.475C31.1007 38.575 29.1007 37.125 26.8757 36.3C25.8039 35.888 24.6727 35.6516 23.5257 35.6C22.3245 35.5615 21.1273 35.7568 20.0007 36.175C18.4117 36.8044 16.9148 37.6453 15.5507 38.675C15.3415 38.8197 15.1784 39.0216 15.0808 39.2566C14.9833 39.4916 14.9555 39.7496 15.0007 40C14.8409 42.1971 14.8409 44.4029 15.0007 46.6C15.182 48.3212 15.8891 49.9448 17.0257 51.25C17.7844 51.8914 18.6982 52.3225 19.6757 52.5C20.9055 52.7933 22.162 52.9609 23.4257 53H28.8257C31.4507 53 34.1007 52.775 36.7507 52.7C38.0375 52.7729 39.3284 52.7058 40.6007 52.5C41.5565 52.2269 42.4205 51.6999 43.1007 50.975C44.257 49.5677 44.8771 47.7962 44.8507 45.975C44.8153 43.6118 44.598 41.2548 44.2007 38.925C44.1659 38.7306 44.0645 38.5545 43.9139 38.4268C43.7634 38.299 43.5731 38.2277 43.3757 38.225ZM41.6507 49.525C41.2063 49.951 40.6524 50.2452 40.0507 50.375C38.9441 50.5584 37.8204 50.6171 36.7007 50.55H28.8007C27.0757 50.55 25.3507 50.55 23.6257 50.35C22.5584 50.3384 21.4949 50.2211 20.4507 50C19.926 49.878 19.4429 49.6192 19.0507 49.25C18.3046 48.3799 17.8576 47.2932 17.7757 46.15C17.5782 44.3069 17.528 42.451 17.6257 40.6C18.6007 39.8103 19.6769 39.1544 20.8257 38.65C21.6587 38.2768 22.5629 38.0892 23.4757 38.1C24.3759 38.1008 25.2703 38.2443 26.1257 38.525C28.3507 39.25 30.4007 40.575 32.6257 41.35C34.4519 41.996 36.4049 42.2016 38.3257 41.95C39.8776 41.7684 41.3845 41.3113 42.7757 40.6C43.024 42.3885 43.1077 44.1961 43.0257 46C42.9861 47.2981 42.5005 48.5429 41.6507 49.525Z" fill="black"/>
</g>
<defs>
<clipPath id="clip0_165_7221">
<rect width="60" height="60" fill="white"/>
</clipPath>
</defs>
</svg>
