<svg width="60" height="60" viewBox="0 0 60 60" fill="none" xmlns="http://www.w3.org/2000/svg">
<g clip-path="url(#clip0_169_5123)">
<path fill-rule="evenodd" clip-rule="evenodd" d="M28.7253 43.9002C28.0003 44.6502 25.5003 46.2252 26.9503 46.9002C27.5003 47.1752 29.7003 45.4252 29.9753 45.2002C33.1011 42.5129 35.0488 38.7073 35.4003 34.6002C39.5753 35.7252 46.3003 32.4002 46.0753 32.4752C46.3253 32.4752 46.2753 32.3002 46.5003 32.2252C43.7503 36.4502 43.7503 36.5752 43.5503 36.7752C40.7417 40.0026 37.1141 42.4123 33.0503 43.7502C32.9453 43.788 32.8487 43.846 32.7661 43.9211C32.6834 43.9962 32.6164 44.0868 32.5688 44.1878C32.5212 44.2888 32.494 44.3982 32.4887 44.5097C32.4834 44.6212 32.5001 44.7327 32.5378 44.8377C32.5756 44.9428 32.6336 45.0394 32.7087 45.122C32.7838 45.2046 32.8744 45.2716 32.9754 45.3192C33.0764 45.3668 33.1858 45.394 33.2973 45.3993C33.4088 45.4047 33.5203 45.388 33.6253 45.3502C38.225 44.4813 42.4283 42.1695 45.6253 38.7502C47.4003 36.1524 48.7976 33.3158 49.7753 30.3252C49.8127 30.1202 49.785 29.9087 49.6963 29.7202C49.6076 29.5317 49.4622 29.3756 49.2805 29.2737C49.0988 29.1718 48.8898 29.1293 48.6826 29.1519C48.4755 29.1746 48.2807 29.2614 48.1253 29.4002C44.4753 32.6252 39.6503 31.7502 34.8003 31.3002C34.588 31.1199 34.3267 31.007 34.0499 30.976C33.7731 30.9449 33.4933 30.9972 33.2464 31.126C32.9994 31.2549 32.7965 31.4545 32.6636 31.6993C32.5307 31.9441 32.4739 32.2229 32.5003 32.5002V36.0002C31.9036 38.9015 30.6078 41.6133 28.7253 43.9002Z" fill="black"/>
<path fill-rule="evenodd" clip-rule="evenodd" d="M25 47.5002C25.2254 47.5002 25.4416 47.4106 25.601 47.2512C25.7604 47.0918 25.85 46.8756 25.85 46.6502C25.85 46.4247 25.7604 46.2085 25.601 46.0491C25.4416 45.8897 25.2254 45.8002 25 45.8002C21.25 45.8002 15.675 45.6752 11.925 45.3752C9.775 45.1752 5.075 45.3752 3.025 44.2502C3.86531 40.505 4.98511 36.828 6.375 33.2502C7.09296 28.6594 7.469 24.0216 7.5 19.3752C7.5 19.3752 8.05 8.65017 8.075 7.82517C8.075 6.57517 6.7 6.87517 6.6 7.20017C6.35 8.02517 4.625 28.4252 3.575 32.6002C2.07122 36.5432 0.875956 40.597 0 44.7252C0.2 45.8752 1.775 46.6252 2.875 47.0002C2.85 48.0752 24 47.5002 25 47.5002Z" fill="black"/>
<path fill-rule="evenodd" clip-rule="evenodd" d="M47.6996 7.50011C48.8926 7.57359 50.0701 7.80909 51.1996 8.20011C51.1996 8.45011 51.3746 8.85011 51.3496 8.97511C50.1971 15.1841 49.6114 21.485 49.5996 27.8001C49.583 27.999 49.6461 28.1964 49.7751 28.3487C49.904 28.5011 50.0882 28.596 50.2871 28.6126C50.486 28.6292 50.6833 28.5661 50.8357 28.4371C50.9881 28.3082 51.083 28.124 51.0996 27.9251C51.6748 20.8959 52.6262 13.9025 53.9496 6.97511C52.3035 5.50801 50.1795 4.69042 47.9746 4.67511C47.7496 4.67511 25.2246 3.57511 15.4746 5.45011C12.5246 6.02511 9.89958 5.45011 10.2246 6.97511C10.5996 8.80011 21.3996 5.00011 47.6996 7.50011Z" fill="black"/>
<path fill-rule="evenodd" clip-rule="evenodd" d="M59.1002 12.5C58.1502 11.625 57.4002 10.825 56.7502 10C54.8252 10.225 53.3252 10.625 56.7502 12.85L57.9502 13.925C59.0252 15.95 51.0752 43.925 49.7252 46.55C49.3317 47.4374 48.7604 48.2347 48.0466 48.8926C47.3328 49.5505 46.4917 50.055 45.5752 50.375C46.3252 47.575 45.4002 40.75 43.3002 42.625C43.0002 42.875 43.1002 49.95 44.2752 50.825C36.7752 53.2 27.2752 52.95 23.3252 53.325C17.1281 53.4961 10.9263 53.3125 4.75022 52.775C4.58292 51.9517 4.49088 51.115 4.47522 50.275C4.10022 47.6 2.32522 48.275 2.85022 50.275C2.85798 51.2291 2.93317 52.1815 3.07522 53.125C3.10687 53.4309 3.23177 53.7196 3.433 53.9522C3.63423 54.1847 3.90206 54.3498 4.20022 54.425C10.5979 55.1896 17.0324 55.6069 23.4752 55.675C27.9055 55.7517 32.3367 55.5932 36.7502 55.2C50.4752 53.125 51.7502 51.225 54.2502 41.425C58.1002 26.65 60.0002 15.625 60.0002 15.425C60.0853 14.9011 60.0484 14.3646 59.8923 13.8572C59.7362 13.3499 59.4651 12.8855 59.1002 12.5Z" fill="black"/>
</g>
<defs>
<clipPath id="clip0_169_5123">
<rect width="60" height="60" fill="white"/>
</clipPath>
</defs>
</svg>
