<svg width="60" height="60" viewBox="0 0 60 60" fill="none" xmlns="http://www.w3.org/2000/svg">
<g clip-path="url(#clip0_161_6821)">
<path fill-rule="evenodd" clip-rule="evenodd" d="M33.0751 31.025C33.2384 31.5798 33.3472 32.1491 33.4001 32.725C33.4951 33.5556 33.4951 34.3944 33.4001 35.225C33.3172 36.9059 33.4772 38.5899 33.8751 40.225C34.3325 41.8515 35.1055 43.3721 36.1501 44.7C36.203 44.8245 36.2848 44.9345 36.3888 45.021C36.4928 45.1075 36.6159 45.1679 36.7479 45.1972C36.88 45.2265 37.0171 45.224 37.1479 45.1897C37.2787 45.1554 37.3994 45.0904 37.5001 45C37.5963 44.9416 37.6795 44.8642 37.7446 44.7724C37.8098 44.6807 37.8554 44.5766 37.8789 44.4665C37.9023 44.3565 37.9029 44.2428 37.8808 44.1325C37.8586 44.0221 37.8142 43.9175 37.7501 43.825C37.0487 42.5743 36.5985 41.1985 36.4251 39.775C36.2381 38.3478 36.2381 36.9023 36.4251 35.475C36.5126 34.3687 36.4283 33.2555 36.1751 32.175C36.0112 31.4401 35.7417 30.7327 35.3751 30.075C34.7403 28.9179 33.892 27.8914 32.8751 27.05C32.0251 26.675 31.1001 27.575 31.6501 28.225C32.3297 29.0393 32.8167 29.9964 33.0751 31.025Z" fill="black"/>
<path fill-rule="evenodd" clip-rule="evenodd" d="M41.1755 8.75001C40.8041 8.52625 40.4103 8.34192 40.0005 8.20001C39.4791 8.00403 38.9444 7.8453 38.4005 7.72501C38.1751 7.67246 37.9381 7.71135 37.7413 7.83318C37.5445 7.955 37.404 8.14982 37.3505 8.37501C37.3043 8.59334 37.3433 8.82107 37.4595 9.0116C37.5757 9.20214 37.7603 9.34108 37.9755 9.40001L39.1005 9.75001C39.4266 9.89162 39.7367 10.0676 40.0255 10.275C41.8255 11.575 42.0005 12.925 41.3255 14.2C39.5604 16.5157 37.443 18.5403 35.0505 20.2L31.2755 23.55H31.0505C30.2005 22.6 29.3005 21.675 28.3505 20.8C27.0871 19.6411 25.751 18.5639 24.3505 17.575C22.5005 16.45 20.0005 15.925 18.6005 14.725C17.9005 14.15 17.7005 13.325 18.3255 11.95L19.2255 10.375C19.4473 10.1112 19.7088 9.88348 20.0005 9.70001C20.4255 9.35001 20.9005 9.02501 21.3255 8.72501C21.4914 8.61292 21.6074 8.44102 21.6493 8.24529C21.6913 8.04957 21.6559 7.84521 21.5505 7.67501C21.4985 7.57069 21.422 7.48047 21.3277 7.41198C21.2333 7.34349 21.1239 7.29876 21.0086 7.28159C20.8933 7.26442 20.7755 7.2753 20.6653 7.31333C20.5551 7.35135 20.4557 7.41539 20.3755 7.50001C19.9005 7.77501 19.3755 8.10001 18.8755 8.45001C18.5216 8.71714 18.195 9.0186 17.9005 9.35001L16.6755 11.15C16.2754 11.733 16.029 12.4076 15.9591 13.1112C15.8891 13.8148 15.998 14.5247 16.2755 15.175C16.8925 16.2788 17.8477 17.1552 19.0005 17.675C20.3181 18.2976 21.5882 19.0162 22.8005 19.825C24.0512 20.815 25.2448 21.875 26.3755 23C27.4005 24 29.4005 27.05 30.6505 27.125C31.9005 27.2 32.9505 25.95 33.1505 25.875C33.7255 25.425 34.3005 24.95 34.8505 24.45L37.1505 22.225C39.6306 20.2417 41.7821 17.8793 43.5255 15.225C43.8285 14.6513 44.0081 14.0206 44.0527 13.3734C44.0974 12.7262 44.0061 12.0768 43.7848 11.467C43.5635 10.8571 43.217 10.3003 42.7676 9.83243C42.3182 9.36451 41.7759 8.9958 41.1755 8.75001Z" fill="black"/>
<path fill-rule="evenodd" clip-rule="evenodd" d="M26.625 30C26.1706 31.3361 25.9424 32.7388 25.95 34.15C25.95 35.4 25.95 36.65 26.175 38.05C26.5178 39.8046 26.5086 41.6097 26.1481 43.3607C25.7877 45.1117 25.083 46.7736 24.075 48.25C23.9221 48.4124 23.8369 48.627 23.8369 48.85C23.8369 49.0731 23.9221 49.2877 24.075 49.45C24.1619 49.521 24.2619 49.5741 24.3693 49.6063C24.4768 49.6384 24.5895 49.649 24.7011 49.6374C24.8126 49.6257 24.9207 49.5922 25.0193 49.5386C25.1178 49.485 25.2047 49.4124 25.275 49.325C27.0981 47.4249 28.3087 45.0211 28.75 42.425C28.9442 41.2437 29.0279 40.0469 29 38.85C29 37.1 28.725 35.425 28.6 33.85C28.3313 31.9705 28.6638 30.0541 29.55 28.375C29.6427 28.1907 29.6692 27.9802 29.6252 27.7787C29.5811 27.5772 29.4692 27.3969 29.3081 27.268C29.1471 27.1392 28.9466 27.0695 28.7403 27.0708C28.5341 27.0721 28.3345 27.1442 28.175 27.275C27.4421 28.0421 26.9097 28.9781 26.625 30Z" fill="black"/>
<path fill-rule="evenodd" clip-rule="evenodd" d="M57.2504 21.15C56.7441 18.8851 55.7923 16.7435 54.4504 14.85C53.1029 13.0696 51.2845 11.7014 49.2004 10.9C49.0546 10.2927 48.8364 9.70516 48.5504 9.14996C48.0209 8.14385 47.4105 7.18237 46.7254 6.27496C45.7895 4.94969 44.6984 3.74111 43.4754 2.67496C42.5903 1.95935 41.6154 1.36262 40.5754 0.899956C39.5007 0.435928 38.3635 0.132675 37.2004 -4.4262e-05C35.5862 -0.124985 33.9647 -0.124985 32.3504 -4.4262e-05C29.6754 0.249956 26.8504 0.124956 24.1754 0.499956C22.9129 0.714456 21.6796 1.07522 20.5004 1.57496C18.4775 2.37944 16.6148 3.53938 15.0004 4.99996C13.4102 6.41872 12.1623 8.17951 11.3504 10.15C11.2867 10.1462 11.2229 10.1553 11.1627 10.1768C11.1026 10.1983 11.0474 10.2317 11.0004 10.275C9.67545 11.175 8.20045 12.1 6.90045 13.175C5.95288 13.8856 5.11113 14.7274 4.40045 15.675C3.53266 17.1096 2.89177 18.6696 2.50045 20.3C1.84897 22.647 1.48794 25.065 1.42545 27.5C1.33996 30.0077 1.48221 32.518 1.85045 35C2.35045 38.625 3.25045 42.125 4.10045 45.975C4.62545 48.25 5.47545 52.85 6.22545 55.65C6.41966 56.5177 6.72202 57.3576 7.12545 58.15C7.29491 58.4024 7.51657 58.6155 7.77545 58.775C8.74168 59.2793 9.79255 59.6013 10.8754 59.725C13.0733 59.989 15.2883 60.081 17.5004 60L34.2504 59.725C37.2254 59.725 43.6504 59.725 47.6254 59.35C48.9733 59.3408 50.3065 59.0691 51.5505 58.55C52.7824 57.6424 53.7421 56.4146 54.3254 55C55.1004 53.275 55.4754 51.275 56.1504 49.45C57.7165 44.9011 58.5601 40.135 58.6504 35.325C58.7804 30.5599 58.3101 25.7975 57.2504 21.15ZM56.3505 35.225C56.2214 39.7621 55.3777 44.2506 53.8505 48.525C53.1755 50.275 52.7754 52.225 52.0004 53.875C51.5846 54.833 50.9092 55.6556 50.0504 56.25C48.6674 56.5768 47.2445 56.7031 45.8254 56.625H44.6755C44.9005 53 44.8754 49.675 45.0504 46.225C45.0504 44.75 45.2504 43.25 45.4754 41.7C45.7004 40.15 45.8004 38.8 45.8504 37.3C45.8504 35.225 45.8504 33.1 46.1504 30.975C46.3093 29.4972 46.6193 28.0395 47.0754 26.625C47.1118 26.5331 47.1297 26.4349 47.128 26.336C47.1264 26.2372 47.1052 26.1397 47.0657 26.0491C47.0262 25.9585 46.9692 25.8766 46.8979 25.8081C46.8266 25.7396 46.7425 25.6858 46.6504 25.65C46.559 25.6099 46.4602 25.5892 46.3603 25.5892C46.2605 25.5891 46.1617 25.6097 46.0701 25.6496C45.9786 25.6895 45.8963 25.7478 45.8284 25.821C45.7605 25.8942 45.7084 25.9807 45.6754 26.075C44.8068 28.0232 44.1853 30.0724 43.8254 32.175C43.5254 33.725 43.3004 35.25 43.1254 36.8C42.9504 38.35 42.8504 39.825 42.6254 41.3C42.4282 42.9175 42.328 44.5454 42.3254 46.175C42.3254 49.65 42.8004 53 42.9004 56.675H34.2004L20.0004 57.05C20.1254 54.075 20.1504 50.925 20.0004 47.75C20.0004 45.25 19.6754 42.95 19.5004 40.6C19.3254 38.25 18.9754 36.975 18.6754 35.6C18.2004 33.425 17.6004 31.45 16.5754 28.1C16.5334 27.9123 16.4232 27.747 16.2661 27.6361C16.109 27.5252 15.9163 27.4767 15.7254 27.5C15.5338 27.5474 15.3685 27.6684 15.2655 27.8369C15.1625 28.0054 15.1302 28.2077 15.1754 28.4C15.6754 31.075 16.0004 32.875 16.2254 34.625C16.4504 36.375 16.6254 38.25 16.7254 40.825C16.9004 42.875 17.0504 44.95 17.2504 47.025C17.4504 49.1 17.7254 51.175 17.9254 53.2C17.9254 54.5 18.1254 55.7 18.2004 57.05H17.5004C16.1004 57.05 14.0504 57.2 12.1504 57.05C11.225 57.0278 10.3108 56.8416 9.45045 56.5C9.36914 56.3569 9.30214 56.2062 9.25045 56.05C8.40045 53.7 7.25045 48.025 6.60045 45.45C5.65045 41.7 4.67545 38.275 4.10045 34.725C3.64387 32.3435 3.40953 29.9248 3.40045 27.5C3.38487 25.2021 3.64506 22.9108 4.17545 20.675C4.5307 19.2259 5.11289 17.8421 5.90045 16.575C6.46799 15.7271 7.15894 14.9687 7.95045 14.325C9.20045 13.25 10.6254 12.325 11.8754 11.4C11.9707 11.327 12.0478 11.2328 12.1004 11.125C12.2348 11.1109 12.3632 11.062 12.4728 10.9831C12.5824 10.9042 12.6695 10.7979 12.7254 10.675C13.571 9.01378 14.7957 7.57498 16.3004 6.47496C17.8036 5.3483 19.4973 4.50146 21.3005 3.97496C22.3477 3.68243 23.4184 3.48167 24.5004 3.37496C27.1754 3.12496 29.9504 3.22496 32.6004 3.02496C34.0591 2.83653 35.5302 2.76131 37.0004 2.79996C37.9027 2.84274 38.7946 3.01103 39.6504 3.29996C40.6956 3.68919 41.6613 4.26522 42.5004 4.99996C43.4108 5.75258 44.2478 6.58964 45.0004 7.49996C45.6881 8.27835 46.3071 9.11481 46.8504 9.99996C47.1801 10.5339 47.4247 11.1158 47.5754 11.725C47.6055 11.9148 47.7028 12.0875 47.8497 12.2114C47.9966 12.3354 48.1833 12.4023 48.3754 12.4C50.1753 13.1316 51.7341 14.3527 52.8754 15.925C54.0319 17.6305 54.8312 19.5524 55.2254 21.575C56.1895 26.0571 56.5677 30.6454 56.3505 35.225Z" fill="black"/>
</g>
<defs>
<clipPath id="clip0_161_6821">
<rect width="60" height="60" fill="white"/>
</clipPath>
</defs>
</svg>
