<svg width="60" height="60" viewBox="0 0 60 60" fill="none" xmlns="http://www.w3.org/2000/svg">
<g clip-path="url(#clip0_165_7455)">
<path fill-rule="evenodd" clip-rule="evenodd" d="M10.5244 44.1501C10.9307 43.8421 11.3938 43.6173 11.8871 43.4886C12.3805 43.3599 12.8944 43.3299 13.3994 43.4001C14.1436 43.5365 14.8259 43.9039 15.3494 44.4501C15.892 45.0491 16.2634 45.7831 16.4244 46.5751C16.4549 46.7439 16.5508 46.8937 16.6913 46.9921C16.8318 47.0904 17.0054 47.1292 17.1744 47.1001C17.2569 47.088 17.3362 47.0595 17.4075 47.0162C17.4789 46.973 17.5408 46.9159 17.5898 46.8483C17.6387 46.7808 17.6736 46.7041 17.6924 46.6228C17.7113 46.5415 17.7136 46.4573 17.6994 46.3751C17.5789 45.3204 17.1917 44.3138 16.5744 43.4501C15.9091 42.5247 14.9477 41.8544 13.8494 41.5501C13.0819 41.3242 12.2753 41.263 11.4826 41.3708C10.6898 41.4785 9.92875 41.7526 9.24939 42.1751C8.54106 42.5998 7.93301 43.1727 7.46696 43.8546C7.0009 44.5364 6.68789 45.3109 6.54939 46.1251C6.36103 47.4654 6.6758 48.828 7.43295 49.9499C8.19009 51.0717 9.33595 51.8734 10.6494 52.2001C11.8758 52.5604 13.1897 52.4801 14.3632 51.9733C15.5367 51.4664 16.4958 50.565 17.0744 49.4251C17.1241 49.3432 17.1572 49.2522 17.1715 49.1574C17.1859 49.0626 17.1813 48.966 17.1581 48.873C17.1348 48.78 17.0933 48.6925 17.0361 48.6156C16.9788 48.5388 16.9068 48.474 16.8244 48.4251C16.6573 48.3311 16.4606 48.3046 16.2746 48.3511C16.0887 48.3976 15.9275 48.5136 15.8244 48.6751C15.3564 49.4203 14.6459 49.9813 13.8125 50.2637C12.9791 50.546 12.0739 50.5324 11.2494 50.2251C10.4755 49.9973 9.814 49.4898 9.39352 48.8014C8.97304 48.1129 8.82365 47.2926 8.97439 46.5001C9.06025 46.0239 9.24191 45.5701 9.50834 45.1661C9.77477 44.7622 10.1204 44.4165 10.5244 44.1501Z" fill="black"/>
<path fill-rule="evenodd" clip-rule="evenodd" d="M49.9998 25.0002C48.4017 22.7728 46.5191 20.7641 44.3998 19.0252C45.2107 17.9336 45.8203 16.706 46.1998 15.4002C46.4111 14.7058 46.4463 13.9698 46.3023 13.2584C46.1582 12.547 45.8395 11.8827 45.3748 11.3252C44.8197 10.62 44.078 10.0846 43.234 9.77969C42.39 9.47478 41.4774 9.41259 40.5998 9.60018C39.0323 9.98163 37.6295 10.8583 36.5998 12.1002L16.1748 33.6002C14.4153 33.2313 12.5997 33.2182 10.8351 33.5617C9.07048 33.9051 7.39242 34.5983 5.89976 35.6002C4.37227 36.5637 3.0688 37.8431 2.077 39.3524C1.08519 40.8616 0.428049 42.5658 0.149759 44.3502C-0.12718 45.9889 -0.0471917 47.6682 0.384262 49.2732C0.815717 50.8782 1.58847 52.3712 2.64976 53.6502C4.78553 56.1641 7.7793 57.7946 11.0498 58.2252C11.2174 58.2404 11.3847 58.1925 11.5189 58.0907C11.653 57.989 11.7443 57.8408 11.7748 57.6752C11.7962 57.5064 11.7506 57.3359 11.6478 57.2004C11.545 57.0648 11.3931 56.975 11.2248 56.9502C8.28561 56.5429 5.60777 55.0434 3.72476 52.7502C2.82089 51.6169 2.17026 50.3031 1.81665 48.8973C1.46304 47.4915 1.41466 46.0263 1.67476 44.6002C1.95297 43.0534 2.55864 41.5841 3.45117 40.2905C4.3437 38.997 5.50246 37.9093 6.84976 37.1002C8.15695 36.2448 9.62441 35.6641 11.163 35.3933C12.7015 35.1226 14.2791 35.1674 15.7998 35.5252H16.1748C16.3487 35.5755 16.5328 35.5789 16.7085 35.535C16.8841 35.4911 17.045 35.4015 17.1748 35.2752L38.3248 13.7002C39.0069 12.8412 39.9432 12.2199 40.9998 11.9252C41.466 11.8333 41.9489 11.8762 42.3917 12.0488C42.8344 12.2215 43.2188 12.5168 43.4998 12.9002C43.7379 13.2736 43.8644 13.7073 43.8644 14.1502C43.8644 14.5931 43.7379 15.0267 43.4998 15.4002C43.0544 16.483 42.4382 17.4875 41.6748 18.3752C41.5675 18.4989 41.4862 18.643 41.4356 18.7987C41.385 18.9544 41.3662 19.1187 41.3801 19.2819C41.3941 19.445 41.4407 19.6037 41.517 19.7485C41.5934 19.8934 41.698 20.0215 41.8248 20.1252C43.2371 21.2793 44.5811 22.5148 45.8498 23.8252C46.5745 24.5911 47.2195 25.4287 47.7748 26.3252C48.1748 27.0252 48.6748 26.9002 46.8248 28.8252C46.6248 29.0252 46.2998 29.1002 46.2498 29.2502C43.9355 27.6374 41.7762 25.8129 39.7998 23.8002C39.4075 23.4309 38.9245 23.1722 38.3998 23.0502C38.0789 23.0167 37.7573 23.106 37.4998 23.3002C37.0238 23.7057 36.5729 24.1398 36.1498 24.6002C35.1998 25.6252 34.1748 26.9502 33.6498 27.6252C33.1248 28.3002 33.1748 28.9252 33.9248 29.9752C34.9498 31.4002 37.8498 33.9002 39.2498 35.7002C39.4449 35.93 39.6126 36.1817 39.7498 36.4502L37.2498 38.8252L36.8248 38.6752C36.3422 38.3951 35.8824 38.0775 35.4498 37.7252C33.7248 36.3502 31.7248 34.2252 30.7498 33.3252C30.4204 32.9666 29.9802 32.7289 29.4998 32.6502C28.9779 32.8107 28.5163 33.1242 28.1748 33.5502C26.9748 34.8502 24.5248 37.8252 22.6498 39.8002C22.5455 39.9507 22.4896 40.1295 22.4896 40.3127C22.4896 40.4958 22.5455 40.6746 22.6498 40.8252C23.0075 41.4817 23.3086 42.1675 23.5498 42.8752C23.7968 43.5655 23.9809 44.2767 24.0998 45.0002V46.7752C24.0084 47.5285 23.8236 48.2675 23.5498 48.9752C23.277 49.7307 22.9338 50.4589 22.5248 51.1502C21.7742 52.4659 20.7818 53.6279 19.5998 54.5752C18.4162 55.5269 17.0444 56.2171 15.5748 56.6002C15.3923 56.6581 15.2389 56.7835 15.1459 56.9508C15.053 57.1182 15.0275 57.3147 15.0748 57.5002C15.122 57.6853 15.2404 57.8444 15.4043 57.9427C15.5681 58.041 15.7642 58.0706 15.9498 58.0252C17.6131 57.5974 19.1705 56.8315 20.5248 55.7752C21.8669 54.7194 23.0098 53.4326 23.8998 51.9752C24.3585 51.1751 24.7515 50.339 25.0748 49.4752C25.4048 48.6048 25.6314 47.6985 25.7498 46.7752V44.8752C25.6152 44.0275 25.4146 43.1916 25.1498 42.3752C24.9446 41.781 24.711 41.197 24.4498 40.6252C26.2748 38.7002 28.4998 36.0752 29.6248 34.8752C31.3703 36.7114 33.2415 38.4238 35.2248 40.0002C35.6072 40.3269 36.0542 40.5693 36.5367 40.7115C37.0192 40.8536 37.5263 40.8924 38.0248 40.8252C38.6379 40.4371 39.2079 39.9845 39.7248 39.4752C40.4715 38.7869 41.1652 38.0431 41.7998 37.2502C41.9295 36.8864 41.9295 36.489 41.7998 36.1252C41.5734 35.4333 41.2075 34.7951 40.7248 34.2502C39.4498 32.6752 37.1748 30.5752 35.9998 29.2502C35.8695 29.1112 35.7524 28.9606 35.6498 28.8002C36.1498 28.2252 36.7998 27.4252 37.4498 26.7002L38.3248 25.7752C40.467 27.9874 42.8387 29.9652 45.3998 31.6752C45.8123 31.8572 46.2691 31.9139 46.7136 31.8383C47.1581 31.7628 47.5706 31.5583 47.8998 31.2502C48.7538 30.5092 49.5174 29.6701 50.1748 28.7502C50.548 28.1877 50.7323 27.5209 50.7009 26.8465C50.6694 26.1722 50.4238 25.5255 49.9998 25.0002Z" fill="black"/>
<path d="M30.3745 13.8751C30.8995 13.8751 31.7745 11.0001 33.6245 9.37507C35.4745 7.75008 36.9245 7.80007 37.0245 7.10007C37.4745 4.25007 32.6495 6.47507 31.4745 8.25007C30.2995 10.0251 29.6995 13.7751 30.3745 13.8751Z" fill="black"/>
<path d="M26.6247 12.6751C26.7993 12.6156 26.952 12.5052 27.0634 12.3582C27.1748 12.2112 27.2397 12.0343 27.2497 11.8501C27.1974 9.94527 27.4592 8.04483 28.0247 6.22511C29.3747 3.72511 32.6997 2.77511 32.4747 2.10011C32.0747 0.85011 27.0747 3.57511 26.1747 6.62511C25.4997 8.95011 25.9497 12.8001 26.6247 12.6751Z" fill="black"/>
<path d="M52.0496 22.5002C51.6246 22.2002 52.9746 19.4502 52.7496 17.0002C52.4996 14.1502 51.3996 13.6002 51.7996 13.0002C53.3996 10.5002 55.4496 15.5002 55.0746 17.6502C54.6996 19.8002 52.6246 22.8002 52.0496 22.5002Z" fill="black"/>
<path d="M55.0001 25.0001C54.8999 24.8433 54.8467 24.6611 54.8467 24.4751C54.8467 24.289 54.8999 24.1069 55.0001 23.9501C56.3393 22.5995 57.4459 21.0368 58.2751 19.3251C59.0001 16.5501 57.2001 13.6001 57.8251 13.2501C58.9751 12.6251 60.7751 18.0251 59.3501 20.8751C58.3751 22.9001 55.4251 25.4251 55.0001 25.0001Z" fill="black"/>
</g>
<defs>
<clipPath id="clip0_165_7455">
<rect width="60" height="60" fill="white"/>
</clipPath>
</defs>
</svg>
