<svg width="60" height="60" viewBox="0 0 60 60" fill="none" xmlns="http://www.w3.org/2000/svg">
<path fill-rule="evenodd" clip-rule="evenodd" d="M16.2009 29.0501C19.7429 28.9015 23.2691 28.4921 26.7509 27.8251C26.9664 27.7853 27.1573 27.6616 27.2815 27.4811C27.4057 27.3006 27.4532 27.0781 27.4134 26.8626C27.3736 26.6471 27.2499 26.4562 27.0694 26.332C26.8889 26.2078 26.6664 26.1603 26.4509 26.2001C23.6239 26.2856 20.7944 26.2105 17.9759 25.9751C15.6152 25.9924 13.262 26.2436 10.9509 26.7251C10.6194 26.6555 10.2738 26.7204 9.99013 26.9056C9.70649 27.0908 9.50802 27.3811 9.4384 27.7126C9.36878 28.0441 9.43371 28.3897 9.6189 28.6734C9.8041 28.957 10.0944 29.1555 10.4259 29.2251C12.0009 29.1001 13.0759 29.1751 16.2009 29.0501Z" fill="black"/>
<path fill-rule="evenodd" clip-rule="evenodd" d="M33.2754 17.5C31.9504 12.8 27.9754 10.375 23.2754 9.25005C23.5087 8.42683 23.7006 7.59246 23.8504 6.75005C24.0203 5.52315 23.8651 4.27316 23.4004 3.12505C24.7254 3.30005 25.4254 3.57505 25.7254 4.80005C25.9316 6.13954 25.9986 7.49676 25.9254 8.85005C25.9041 8.95674 25.904 9.0666 25.9251 9.17335C25.9462 9.28009 25.9881 9.38163 26.0485 9.47216C26.1704 9.65501 26.3599 9.78195 26.5754 9.82505C26.7909 9.86814 27.0147 9.82387 27.1975 9.70197C27.3804 9.58008 27.5073 9.39053 27.5504 9.17505C27.9754 5.20005 28.5004 2.32505 24.8504 0.925046C21.6065 -0.0635241 18.1629 -0.201269 14.8504 0.525046C13.9921 0.672361 13.1959 1.06829 12.5604 1.66377C11.9249 2.25925 11.4781 3.0281 11.2754 3.87505C11.3045 5.8168 11.4632 7.75444 11.7504 9.67505C9.54883 10.4014 7.59262 11.7258 6.10043 13.5C3.65043 16.5 1.42543 20.825 2.50043 24.6C3.08922 26.2429 4.28924 27.5951 5.85043 28.375L4.80043 29.2C1.17543 32.85 0.275427 38.85 4.37543 41.7C6.27543 43.025 6.65043 42.45 6.00043 42.95C5.0164 43.6418 4.19397 44.5387 3.58976 45.5788C2.98555 46.6189 2.61391 47.7775 2.50043 48.975C2.53616 50.3444 2.87805 51.6883 3.501 52.9083C4.12395 54.1282 5.01215 55.1932 6.10043 56.025C8.60043 57.55 16.1004 58.175 19.0504 58.225C20.8044 58.5249 22.5965 58.5249 24.3504 58.225C24.4522 58.1873 24.5455 58.1299 24.6251 58.056C24.7047 57.9822 24.769 57.8934 24.8142 57.7948C24.8595 57.6961 24.8849 57.5895 24.889 57.481C24.893 57.3725 24.8757 57.2643 24.8379 57.1625C24.8002 57.0608 24.7427 56.9674 24.6689 56.8878C24.5951 56.8083 24.5063 56.744 24.4076 56.6987C24.309 56.6535 24.2024 56.6281 24.0939 56.624C23.9854 56.62 23.8772 56.6373 23.7754 56.675C22.2246 56.8261 20.6605 56.7672 19.1254 56.5C16.5462 56.3839 13.9801 56.0663 11.4504 55.55C8.15043 54.9 6.75043 54.7 5.47543 51.975C5.13438 51.3717 4.91618 50.7067 4.83342 50.0186C4.75066 49.3305 4.80497 48.6327 4.99323 47.9657C5.18149 47.2987 5.49996 46.6755 5.93028 46.1322C6.3606 45.5888 6.89424 45.1361 7.50043 44.8L9.02543 43.7C11.8754 41.375 8.37543 40.85 7.45043 40.375C6.51195 40.0272 5.65932 39.4816 4.95043 38.775C3.30043 36.525 4.62543 33.1 6.57543 31.275C7.40091 30.6941 8.19377 30.0682 8.95043 29.4C9.60043 27.9 8.95043 27.3 7.95043 26.75C6.30043 25.825 3.82543 25.025 5.17543 20.5C5.83872 18.5529 6.84639 16.7408 8.15043 15.15C11.7004 10.525 19.3004 10 24.7504 11.8C26.3465 12.1521 27.8248 12.9101 29.0423 14.0006C30.2598 15.091 31.1753 16.4772 31.7004 18.025C32.4069 21.0082 32.8751 24.0427 33.1004 27.1C33.1323 27.2724 33.2235 27.4281 33.3582 27.5402C33.4929 27.6523 33.6627 27.7137 33.8379 27.7137C34.0132 27.7137 34.1829 27.6523 34.3176 27.5402C34.4524 27.4281 34.5436 27.2724 34.5754 27.1C34.3734 23.873 33.9389 20.6646 33.2754 17.5ZM13.2754 9.12505C13.2386 7.53131 13.297 5.9368 13.4504 4.35005C13.6004 3.30005 15.4004 2.95005 16.4754 2.82505C16.1216 3.66403 15.9625 4.57231 16.0101 5.48162C16.0577 6.39093 16.3109 7.27762 16.7504 8.07505C16.7578 8.18293 16.7885 8.28794 16.8402 8.38287C16.892 8.4778 16.9637 8.56042 17.0504 8.62505C15.7853 8.68327 14.529 8.86751 13.3004 9.17505L13.2754 9.12505ZM21.6004 8.82505C20.4353 8.62777 19.257 8.51912 18.0754 8.50005C18.178 8.41606 18.2588 8.30858 18.311 8.18673C18.3633 8.06488 18.3853 7.93224 18.3754 7.80005C18.6905 6.66165 18.8172 5.47936 18.7504 4.30005C18.4004 2.47505 17.8254 2.80005 19.1004 2.80005H21.6004C21.1924 3.76142 20.9842 4.79575 20.9885 5.84012C20.9928 6.88449 21.2095 7.91707 21.6254 8.87505L21.6004 8.82505Z" fill="black"/>
<path fill-rule="evenodd" clip-rule="evenodd" d="M23.9758 42.5001C24.1731 42.4659 24.352 42.3631 24.481 42.2099C24.6099 42.0567 24.6806 41.8629 24.6806 41.6626C24.6806 41.4624 24.6099 41.2685 24.481 41.1153C24.352 40.9621 24.1731 40.8593 23.9758 40.8251C20.1581 40.3181 16.2837 40.4278 12.5008 41.1501C11.3008 41.7251 11.1508 42.4251 12.3258 43.3251C16.2277 43.482 20.135 43.2053 23.9758 42.5001Z" fill="black"/>
<path fill-rule="evenodd" clip-rule="evenodd" d="M48.5001 34.825C46.9046 34.4064 45.2717 34.1468 43.6251 34.0499C43.4328 34.0267 43.2392 34.0809 43.0868 34.2004C42.9344 34.32 42.8358 34.4952 42.8126 34.6874C42.7894 34.8797 42.8435 35.0734 42.9631 35.2257C43.0826 35.3781 43.2578 35.4767 43.4501 35.4999C45.1648 36.0893 46.8357 36.7995 48.4501 37.625C48.9501 37.8 50.0001 38.575 50.9501 38.125C53.1751 37.125 53.1751 33.1249 53.2751 30.6249C53.2751 30.4061 53.1882 30.1963 53.0335 30.0416C52.8787 29.8869 52.6689 29.8 52.4501 29.8C52.2313 29.8 52.0215 29.8869 51.8667 30.0416C51.712 30.1963 51.6251 30.4061 51.6251 30.6249C51.3731 32.0093 50.962 33.3599 50.4001 34.6499C50.1751 35.1999 50.4001 35.2499 49.7001 33.7499C48.4494 30.9098 46.6284 28.357 44.3501 26.2499C43.6117 25.6211 42.6794 25.2654 41.7098 25.2426C40.7401 25.2199 39.7922 25.5314 39.0251 26.1249C37.4089 27.5648 36.1942 29.3997 35.5001 31.4499C34.7677 32.9397 34.1574 34.4865 33.6751 36.075C33.6187 36.2606 33.6384 36.461 33.7299 36.6322C33.8213 36.8033 33.9769 36.9311 34.1626 36.9875C34.3483 37.0438 34.5487 37.0241 34.7198 36.9327C34.8909 36.8413 35.0187 36.6856 35.0751 36.5C38.2001 30.325 40.6001 27.7249 41.8251 28.0749C44.2251 28.6249 47.5001 33.2 48.5001 34.825Z" fill="black"/>
<path fill-rule="evenodd" clip-rule="evenodd" d="M37.0003 52.5C34.8063 52.8232 32.58 52.8652 30.3753 52.625C26.9003 51.675 28.7253 52.325 33.1003 41.95C34.4003 44.25 33.8503 43.225 35.3503 46.2C35.3782 46.305 35.4265 46.4035 35.4925 46.4899C35.5585 46.5763 35.6409 46.6488 35.7349 46.7034C35.8289 46.758 35.9328 46.7935 36.0405 46.8079C36.1482 46.8223 36.2578 46.8154 36.3628 46.7875C36.4679 46.7595 36.5664 46.7112 36.6528 46.6452C36.7392 46.5793 36.8117 46.4969 36.8663 46.4029C36.9208 46.3089 36.9563 46.205 36.9707 46.0973C36.9852 45.9895 36.9782 45.88 36.9503 45.775C36.4944 43.7413 35.8413 41.7569 35.0003 39.85C34.8039 39.4228 34.5057 39.0504 34.1318 38.7653C33.758 38.4802 33.32 38.2911 32.8561 38.2146C32.3922 38.1381 31.9166 38.1765 31.4711 38.3265C31.0255 38.4765 30.6235 38.7335 30.3003 39.075C30.1003 39.225 31.0003 38.425 26.3753 42.65C26.2887 42.7085 26.2157 42.7852 26.1615 42.8746C26.1072 42.9641 26.073 43.0642 26.0611 43.1681C26.0492 43.272 26.0599 43.3773 26.0926 43.4767C26.1252 43.5761 26.1789 43.6672 26.2501 43.7439C26.3213 43.8205 26.4082 43.8809 26.5049 43.9208C26.6016 43.9607 26.7058 43.9792 26.8103 43.975C26.9148 43.9708 27.0172 43.9441 27.1104 43.8966C27.2036 43.8491 27.2855 43.782 27.3503 43.7C28.6753 42.725 29.4253 42.675 31.5503 41.425C29.5253 44.825 27.2003 47.775 26.5503 49.325C25.3753 51.825 25.7753 53.975 28.3003 54.775C29.9404 55.1573 31.6403 55.2083 33.3003 54.925L37.5003 54.125C37.607 54.0921 37.7062 54.0386 37.7922 53.9674C37.8782 53.8963 37.9494 53.8089 38.0016 53.7102C38.0538 53.6115 38.0861 53.5036 38.0966 53.3924C38.1071 53.2813 38.0956 53.1692 38.0628 53.0625C38.03 52.9558 37.9765 52.8566 37.9053 52.7706C37.8341 52.6845 37.7467 52.6134 37.6481 52.5612C37.5494 52.5089 37.4414 52.4766 37.3303 52.4661C37.2191 52.4556 37.107 52.4671 37.0003 52.5Z" fill="black"/>
<path fill-rule="evenodd" clip-rule="evenodd" d="M57.7752 48.5249C56.9048 46.289 55.7268 44.1854 54.2752 42.2749C54.1492 42.0926 53.9559 41.9678 53.7379 41.9279C53.5199 41.8881 53.295 41.9365 53.1127 42.0624C52.9303 42.1884 52.8055 42.3817 52.7657 42.5997C52.7258 42.8177 52.7742 43.0426 52.9002 43.2249C54.3321 45.5796 55.2758 48.1982 55.6752 50.9249C55.6752 52.0999 54.3252 51.9999 52.7252 52.1249C49.9252 52.4749 47.7252 52.1249 44.8502 52.7749C45.8923 51.5532 47.0383 50.424 48.2752 49.3999C48.3581 49.3503 48.4303 49.2845 48.4874 49.2065C48.5446 49.1285 48.5856 49.0398 48.6079 48.9458C48.6303 48.8517 48.6336 48.7541 48.6177 48.6587C48.6018 48.5633 48.567 48.4721 48.5153 48.3904C48.4636 48.3087 48.3961 48.2381 48.3167 48.1829C48.2373 48.1277 48.1477 48.0889 48.0531 48.0688C47.9585 48.0487 47.8609 48.0478 47.7659 48.066C47.671 48.0842 47.5806 48.1213 47.5002 48.1749C46.0152 48.8564 44.6072 49.6945 43.3002 50.6749C42.7829 50.9895 42.3681 51.4476 42.1062 51.9935C41.8444 52.5394 41.7467 53.1496 41.8252 53.7499C42.3752 56.2499 46.4002 58.3999 48.6502 59.7249C48.7388 59.789 48.8392 59.8349 48.9456 59.8601C49.052 59.8853 49.1623 59.8894 49.2703 59.872C49.3782 59.8545 49.4817 59.816 49.5747 59.7586C49.6678 59.7012 49.7487 59.6261 49.8127 59.5374C49.8767 59.4488 49.9226 59.3484 49.9479 59.242C49.9731 59.1356 49.9771 59.0253 49.9597 58.9174C49.9423 58.8094 49.9038 58.7059 49.8464 58.6129C49.789 58.5198 49.7138 58.439 49.6252 58.3749C48.0146 57.1696 46.5616 55.767 45.3002 54.1999C49.8252 54.0499 58.9752 56.6999 58.3752 50.6249L57.7752 48.5249Z" fill="black"/>
</svg>
