<svg width="60" height="60" viewBox="0 0 60 60" fill="none" xmlns="http://www.w3.org/2000/svg">
<g clip-path="url(#clip0_165_7220)">
<path d="M16.3749 26.8752C17.2249 26.8752 17.9499 27.0752 18.6749 27.1252C19.4577 27.1653 20.2421 27.1653 21.0249 27.1252H26.0249C27.5999 27.1252 29.1749 27.1252 31.1499 26.9002L38.8249 26.2752L43.2749 25.8502C43.4666 25.7939 43.635 25.677 43.7547 25.517C43.8745 25.357 43.9392 25.1625 43.9392 24.9627C43.9392 24.7629 43.8745 24.5684 43.7547 24.4084C43.635 24.2484 43.4666 24.1315 43.2749 24.0752H38.8249H31.0999C28.5999 24.2252 26.9249 24.2502 24.9999 24.3752C23.7749 24.3752 22.4999 24.6002 20.9249 24.7502C19.9999 25.0002 19.4249 25.0002 18.7249 25.0002H16.5249C15.8088 24.9609 15.091 24.9609 14.3749 25.0002H14.0749C13.9083 25.2477 13.8193 25.5393 13.8193 25.8377C13.8193 26.1361 13.9083 26.4277 14.0749 26.6752L16.3749 26.8752Z" fill="black"/>
<path d="M21.6498 43.7C22.8998 43.7 24.1498 43.875 25.3998 43.875C26.6498 43.875 27.3248 43.875 28.3248 43.75C30.5498 43.575 32.8498 43.275 34.9748 43.2L41.2748 42.5C41.499 42.4484 41.6969 42.3171 41.8317 42.1306C41.9664 41.9441 42.0289 41.715 42.0075 41.4859C41.9861 41.2569 41.8823 41.0433 41.7154 40.885C41.5485 40.7266 41.3297 40.6343 41.0998 40.625H34.9998H31.0498C29.0998 40.75 27.1498 41.025 25.3248 41.15C23.8583 41.3494 22.3799 41.4496 20.8998 41.45H18.3998C16.8998 41.05 17.0748 42.85 18.1998 43.1C19.3248 43.35 20.1748 43.55 21.6498 43.7Z" fill="black"/>
<path d="M48.9252 52.1501C48.4252 48.3251 45.3002 43.9751 44.8252 40.8251C44.6478 39.3752 44.7069 37.9061 45.0002 36.4751C45.5502 32.7501 46.8502 28.7501 46.9502 25.5001C47.0397 22.6548 46.2258 19.8542 44.6252 17.5001C42.204 14.3295 39.2724 11.5837 35.9502 9.37508C35.8734 9.30161 35.7785 9.24985 35.6752 9.22508C35.9562 8.86344 36.1758 8.45802 36.3252 8.02508C36.5411 7.32076 36.7081 6.60239 36.8252 5.87508C36.9336 5.04527 36.9336 4.20489 36.8252 3.37508C36.7896 2.6588 36.5559 1.96644 36.1502 1.37508C35.345 0.546038 34.2546 0.0544403 33.1002 8.03289e-05C31.1055 -0.0229714 29.111 0.0604807 27.1252 0.25008C26.2855 0.247861 25.4478 0.331632 24.6252 0.50008C24.0149 0.607963 23.4299 0.828375 22.9002 1.15008C22.3351 1.37825 21.8728 1.805 21.6002 2.35008C21.4759 2.61095 21.3916 2.88908 21.3502 3.17508V4.72508C21.2078 5.46332 21.228 6.22372 21.4093 6.95337C21.5906 7.68302 21.9288 8.36439 22.4002 8.95008C23.4502 9.97508 25.4502 9.72508 28.2752 10.2251C29.8719 10.3714 31.4785 10.3714 33.0752 10.2251C33.599 10.2123 34.1194 10.1368 34.6252 10.0001C34.5738 10.1602 34.5726 10.3323 34.6218 10.4931C34.6709 10.654 34.7681 10.796 34.9002 10.9001C38.0041 13.0153 40.7404 15.6248 43.0002 18.6251C44.0555 20.2935 44.6665 22.204 44.7752 24.1751V25.9251C44.5252 29.0001 43.2752 32.6501 42.7002 36.1001C42.4149 37.5819 42.3225 39.0945 42.4252 40.6001L42.7252 42.3751C43.6002 45.3501 45.9502 49.1251 46.3252 52.3751C46.4363 53.0272 46.3899 53.6965 46.1899 54.3271C45.9898 54.9576 45.6419 55.5313 45.1752 56.0001C44.6733 56.494 44.0236 56.8101 43.3252 56.9001C43.017 56.934 42.7052 56.9002 42.4115 56.8008C42.1178 56.7015 41.8495 56.5391 41.6252 56.3251C40.849 55.4985 40.0134 54.7298 39.1252 54.0251C38.2923 53.4491 37.2837 53.1837 36.2752 53.2751C35.5667 53.3532 34.8795 53.5653 34.2502 53.9001C33.2295 54.4599 32.2737 55.1306 31.4002 55.9001C30.8331 56.4562 30.1239 56.8454 29.3502 57.0251C28.7152 57.0161 28.1074 56.7659 27.6502 56.3251C26.8532 55.6762 26.0184 55.0751 25.1502 54.5251C24.5216 54.1531 23.8056 53.9547 23.0752 53.9501C22.1436 54.0541 21.26 54.418 20.5252 55.0001C19.5752 55.6251 18.9002 56.5751 18.2502 57.0251C17.9776 57.1744 17.6775 57.2668 17.3681 57.2969C17.0587 57.327 16.7465 57.2941 16.4502 57.2001C15.7306 57.075 15.0622 56.7452 14.5252 56.2501C14.1566 55.844 13.895 55.3526 13.7641 54.82C13.6331 54.2875 13.6369 53.7308 13.7752 53.2001C14.2752 49.7501 16.6752 45.7001 16.8752 43.2001V41.6001C16.4502 38.7001 14.6002 36.1251 13.7252 31.3751C13.4777 29.8954 13.3357 28.3999 13.3002 26.9001C13.3002 26.9001 13.3002 26.0751 13.3002 25.3751V23.8001C13.5723 21.6929 14.4396 19.7069 15.8002 18.0751C17.9464 15.3941 20.4438 13.0144 23.2252 11.0001C23.3795 10.8895 23.4842 10.7228 23.5169 10.5358C23.5497 10.3488 23.5077 10.1565 23.4002 10.0001C23.2806 9.84234 23.1052 9.73633 22.91 9.70379C22.7148 9.67125 22.5145 9.71465 22.3502 9.82508C19.4433 11.8015 16.8119 14.1554 14.5252 16.8251C12.8888 18.7072 11.8146 21.0116 11.4252 23.4751C11.1431 26.1717 11.2019 28.8932 11.6002 31.5751C12.4252 36.8001 14.6002 39.3251 14.4752 42.6751C14.4752 45.1751 11.7002 49.2001 11.1252 52.6751C10.8896 53.6226 10.8919 54.6137 11.1318 55.5602C11.3717 56.5066 11.8418 57.3791 12.5002 58.1001C13.6332 59.1634 15.0807 59.8301 16.6252 60.0001C17.8066 60.152 19.0034 59.8772 20.0002 59.2251C20.6921 58.5298 21.4268 57.8785 22.2002 57.2751C22.5239 57.03 22.9192 56.8983 23.3252 56.9001C23.9721 57.01 24.5626 57.3361 25.0002 57.8251C25.8213 58.5545 26.7381 59.1685 27.7252 59.6501C28.3779 59.9335 29.0921 60.0453 29.8002 59.9751C30.5456 59.9104 31.2651 59.6705 31.9002 59.2751C32.8452 58.6599 33.755 57.9922 34.6252 57.2751C35.2204 56.7318 35.9571 56.3678 36.7502 56.2251C37.1147 56.1787 37.4829 56.2775 37.7752 56.5001C38.5099 57.0943 39.1878 57.7554 39.8002 58.4751C40.3144 58.9656 40.9306 59.3365 41.6048 59.5612C42.279 59.7859 42.9945 59.859 43.7002 59.7751C45.0385 59.6046 46.2804 58.9881 47.2252 58.0251C47.9494 57.2477 48.4805 56.3109 48.7759 55.2903C49.0712 54.2698 49.1223 53.1941 48.9252 52.1501ZM34.2252 4.20008C34.272 4.58198 34.272 4.96818 34.2252 5.35008L33.7252 7.25008C32.0813 7.58808 30.402 7.72243 28.7252 7.65008H25.3252C24.4252 7.65008 24.2252 7.65008 23.8752 7.45008C23.5252 7.25008 23.2252 6.25008 23.1502 4.75008C23.1502 1.57508 24.9252 2.25008 25.4752 2.25008C26.0492 2.20137 26.6262 2.20137 27.2002 2.25008C28.1252 2.25008 30.3252 2.25008 32.2002 2.42508C33.1252 2.42508 34.0002 2.42508 34.3002 2.97508C34.3774 3.3833 34.3516 3.80432 34.2252 4.20008Z" fill="black"/>
</g>
<defs>
<clipPath id="clip0_165_7220">
<rect width="60" height="60" fill="white"/>
</clipPath>
</defs>
</svg>
