<svg width="60" height="60" viewBox="0 0 60 60" fill="none" xmlns="http://www.w3.org/2000/svg">
<g clip-path="url(#clip0_161_6825)">
<path d="M30.7504 27.65C26.7984 27.6509 22.893 28.5036 19.3003 30.15C19.0753 28.825 18.8754 26.725 18.8254 25.825C18.8254 25.6261 18.7463 25.4353 18.6057 25.2947C18.465 25.154 18.2743 25.075 18.0754 25.075C17.8764 25.075 17.6857 25.154 17.545 25.2947C17.4044 25.4353 17.3253 25.6261 17.3253 25.825C17.3253 26.925 17.5004 29.85 17.6754 31.05C17.7201 31.3578 17.8218 31.6545 17.9754 31.925C18.1028 32.1155 18.2999 32.2485 18.5243 32.2952C18.7487 32.342 18.9824 32.2988 19.1754 32.175C22.7967 30.5053 26.7672 29.7335 30.7504 29.925C34.6554 29.8362 38.5238 30.6939 42.0253 32.425C42.2677 32.6156 42.567 32.7192 42.8753 32.7192C43.1837 32.7192 43.483 32.6156 43.7253 32.425C44.2273 31.9266 44.5221 31.2568 44.5503 30.55C44.7752 27.6794 44.7752 24.7956 44.5503 21.925C44.5143 21.2549 44.2793 20.6108 43.8753 20.075C41.5044 18.9428 38.9758 18.1758 36.3754 17.8C33.9039 17.3357 31.3808 17.2096 28.8754 17.425C26.7937 17.6037 24.7436 18.049 22.7753 18.75C20.8836 19.5268 19.1085 20.5617 17.5004 21.825C17.4042 21.8834 17.321 21.9608 17.2558 22.0526C17.1907 22.1443 17.145 22.2484 17.1216 22.3585C17.0982 22.4685 17.0975 22.5822 17.1197 22.6926C17.1418 22.8029 17.1863 22.9075 17.2504 23C17.3731 23.1888 17.5658 23.3212 17.7861 23.3681C18.0064 23.415 18.2363 23.3725 18.4253 23.25C20.0239 22.1769 21.7661 21.3353 23.6003 20.75C25.4289 20.1981 27.3177 19.8707 29.2253 19.775C31.4937 19.7087 33.7614 19.9271 35.9754 20.425C37.8913 20.8145 39.7662 21.3837 41.5753 22.125C41.6652 22.4871 41.732 22.8545 41.7753 23.225C41.7753 24.95 41.9253 27.575 41.7753 29.325C38.2413 28.0666 34.4987 27.498 30.7504 27.65Z" fill="black"/>
<path d="M59.1002 47.4999C58.2539 45.1579 57.0294 42.9706 55.4752 41.0249C55.6861 41.0136 55.8858 40.9264 56.0374 40.7793C56.189 40.6323 56.2824 40.4354 56.3002 40.2249C56.4752 36.2749 56.6002 25.6249 51.3002 17.7249C48.2048 13.2383 43.4754 10.1422 38.1252 9.09992C37.2986 8.93892 36.4641 8.82209 35.6252 8.74992C35.5979 7.78032 35.3784 6.82578 34.9792 5.94171C34.5801 5.05764 34.0094 4.26164 33.3002 3.59992C32.5662 3.04128 31.692 2.69656 30.7742 2.60391C29.8565 2.51125 28.931 2.67427 28.1002 3.07492C27.0187 3.61643 26.1417 4.49349 25.6002 5.57492C25.0835 6.64338 24.8103 7.81314 24.8002 8.99992C20.7187 9.98336 16.9036 11.8525 13.6252 14.4749C9.85588 17.5457 7.04503 21.6318 5.52516 26.2499C4.85438 28.6117 4.40247 31.0303 4.17516 33.4749C3.88073 35.8964 3.78874 38.3382 3.90016 40.7749C3.90016 40.9738 3.97918 41.1646 4.11983 41.3053C4.26048 41.4459 4.45125 41.5249 4.65016 41.5249C4.84908 41.5249 5.03984 41.4459 5.18049 41.3053C5.32115 41.1646 5.40016 40.9738 5.40016 40.7749C5.36908 38.439 5.54477 36.1049 5.92516 33.7999C6.2384 31.473 6.76563 29.18 7.50016 26.9499C9.05506 22.8171 11.7406 19.2046 15.2502 16.5249C18.774 13.906 22.8853 12.1894 27.2252 11.5249C28.8883 11.3721 30.562 11.3721 32.2252 11.5249C33.9904 11.5603 35.752 11.7022 37.5002 11.9499C40.4358 12.4523 43.2079 13.6524 45.5833 15.4491C47.9586 17.2459 49.8678 19.5868 51.1502 22.2749C53.6749 27.9021 54.8643 34.0369 54.6252 40.1999C53.8279 39.7761 52.9905 39.4328 52.1252 39.1749C45.0508 37.1697 37.7281 36.1765 30.3752 36.2249C22.5002 36.2249 11.5752 37.6749 4.80016 41.6249C4.62869 41.7216 4.47621 41.8487 4.35016 41.9999C2.92722 44.2328 1.80899 46.6458 1.02516 49.1749C0.50952 50.3009 0.16408 51.4973 0.000162839 52.7249C-0.0251951 53.4871 0.17785 54.2395 0.583225 54.8854C0.988601 55.5313 1.5778 56.0413 2.27516 56.3499C4.09556 57.0049 6.06688 57.1178 7.95016 56.6749C9.11934 56.4431 10.2719 56.1341 11.4002 55.7499C13.9002 54.8999 16.4002 53.7999 18.9002 53.0499C21.2251 52.4111 23.6158 52.042 26.0252 51.9499C28.4608 51.8602 30.8997 51.9353 33.3252 52.1749C35.8625 52.4129 38.3728 52.8815 40.8252 53.5749C44.8752 54.7249 47.5252 56.0749 52.0252 57.1749C53.8241 57.4993 55.6795 57.2455 57.3252 56.4499C57.9594 56.1567 58.5252 55.7337 58.9859 55.2084C59.4466 54.6831 59.7922 54.067 60.0002 53.3999C60.27 51.3877 59.9577 49.3402 59.1002 47.4999ZM31.3502 8.47492C29.8155 8.38337 28.2756 8.43358 26.7502 8.62492C26.9044 8.17987 27.1056 7.75247 27.3502 7.34992C27.7483 6.63119 28.3849 6.0741 29.1502 5.77492C29.6489 5.49443 30.2288 5.39354 30.793 5.48909C31.3572 5.58464 31.8716 5.87084 32.2502 6.29992C32.8552 6.9697 33.3073 7.76303 33.5752 8.62492C32.8002 8.54992 32.0752 8.52492 31.3502 8.47492ZM57.0502 52.6499C56.8502 53.3999 56.1002 53.7999 55.3252 54.0999C54.4158 54.4404 53.4328 54.5353 52.4752 54.3749C48.0252 53.3999 45.4002 51.8749 41.4002 50.8749C38.8034 50.1924 36.1514 49.7406 33.4752 49.5249C30.9124 49.3242 28.3379 49.3242 25.7752 49.5249C23.1808 49.671 20.6128 50.1242 18.1252 50.8749C15.6252 51.6749 13.1252 52.8499 10.6252 53.7499C9.60527 54.1079 8.56089 54.392 7.50016 54.5999C6.05873 55.0449 4.5166 55.0449 3.07516 54.5999C2.71181 54.4487 2.40273 54.191 2.18855 53.8608C1.97438 53.5306 1.86512 53.1434 1.87516 52.7499C2.12661 51.4138 2.5379 50.1128 3.10016 48.8749C3.97516 46.5999 5.07516 44.0499 5.60016 42.8999C5.60016 42.8999 5.72516 42.7499 5.80016 42.7249L7.02516 42.1499C14.4564 39.4369 22.3449 38.1972 30.2502 38.4999C37.3488 38.6605 44.3909 39.8047 51.1752 41.8999C51.7784 42.0449 52.3588 42.272 52.9002 42.5749C54.2056 44.0337 55.2158 45.7317 55.8752 47.5749C56.7558 49.1149 57.1644 50.8797 57.0502 52.6499Z" fill="black"/>
</g>
<defs>
<clipPath id="clip0_161_6825">
<rect width="60" height="60" fill="white"/>
</clipPath>
</defs>
</svg>
