<svg width="24" height="24" viewBox="0 0 24 24" fill="none" xmlns="http://www.w3.org/2000/svg">
<g clip-path="url(#clip0_1994_19598)">
<path fill-rule="evenodd" clip-rule="evenodd" d="M8.75977 4.41999C8.75977 4.55999 8.75977 4.78999 10.1198 4.97999C10.2763 4.98995 10.4333 4.98995 10.5898 4.97999C10.7498 4.97999 10.8998 4.97999 11.0598 4.91999C12.5098 4.64999 12.4298 4.41999 12.4198 4.26999C12.4098 4.11999 12.2598 3.99999 10.9998 3.88999C10.8499 3.87999 10.6996 3.87999 10.5498 3.88999C10.4035 3.87472 10.256 3.87472 10.1098 3.88999C8.73977 4.10999 8.76977 4.26999 8.75977 4.41999Z" fill="black"/>
<path fill-rule="evenodd" clip-rule="evenodd" d="M10.05 10.15C10.1261 10.1042 10.1813 10.0304 10.2037 9.94445C10.2262 9.85848 10.214 9.76714 10.17 9.68999C9.97001 9.14243 9.58428 8.68238 9.07997 8.38999C8.92676 8.31149 8.76087 8.26071 8.58998 8.23999C8.29358 8.2001 7.99219 8.25617 7.72997 8.39999C7.50211 8.53044 7.30444 8.70766 7.14998 8.91999C7.06009 9.04528 6.98304 9.17928 6.91998 9.31999C6.83998 9.49999 6.77997 9.67999 6.70997 9.88999C6.68108 9.96082 6.6794 10.0398 6.70524 10.1118C6.73109 10.1838 6.78263 10.2437 6.84997 10.28C6.92051 10.3113 7.0004 10.3142 7.07303 10.2881C7.14566 10.2621 7.20545 10.209 7.23997 10.14C7.32257 10.021 7.41276 9.9074 7.50998 9.79999C7.59293 9.70474 7.69089 9.62367 7.79998 9.55999C7.91864 9.48692 8.04641 9.42976 8.17998 9.38999C8.3293 9.34042 8.49065 9.34042 8.63998 9.38999C9.03623 9.48962 9.38806 9.7183 9.63998 10.04C9.68446 10.1036 9.74995 10.1495 9.82494 10.1697C9.89993 10.1898 9.97961 10.1828 10.05 10.15Z" fill="black"/>
<path fill-rule="evenodd" clip-rule="evenodd" d="M14.2898 8.20999C14.0101 8.12043 13.7095 8.12043 13.4298 8.20999C13.166 8.3004 12.9289 8.45505 12.7398 8.65999C12.6108 8.81298 12.5062 8.98502 12.4298 9.16999C12.3369 9.40698 12.2633 9.65111 12.2098 9.89999C12.1819 9.97292 12.1842 10.0539 12.2161 10.1252C12.248 10.1965 12.3069 10.2521 12.3798 10.28C12.4527 10.3078 12.5337 10.3056 12.605 10.2737C12.6763 10.2418 12.7319 10.1829 12.7598 10.11C12.8447 9.95272 12.9417 9.80227 13.0498 9.65999C13.1413 9.55217 13.2535 9.46377 13.3798 9.39999C13.4865 9.33344 13.6055 9.28922 13.7298 9.26999C13.8866 9.22498 14.053 9.22498 14.2098 9.26999C14.585 9.4016 14.9054 9.65508 15.1198 9.98999C15.1317 10.035 15.153 10.077 15.1823 10.1132C15.2116 10.1495 15.2482 10.1791 15.2897 10.2001C15.3313 10.2212 15.3768 10.2332 15.4233 10.2354C15.4699 10.2376 15.5163 10.2299 15.5597 10.2128C15.603 10.1958 15.6423 10.1697 15.6748 10.1364C15.7074 10.1031 15.7325 10.0633 15.7486 10.0196C15.7647 9.97586 15.7713 9.92923 15.7681 9.88277C15.7648 9.83631 15.7518 9.79105 15.7298 9.74999C15.6277 9.39817 15.4441 9.07537 15.1939 8.8078C14.9437 8.54022 14.634 8.33541 14.2898 8.20999Z" fill="black"/>
<path fill-rule="evenodd" clip-rule="evenodd" d="M12.7601 11.78C12.5497 12.0007 12.2883 12.1663 11.9988 12.2623C11.7093 12.3582 11.4007 12.3814 11.1001 12.33C10.9243 12.3238 10.7498 12.2969 10.5801 12.25C10.1382 12.1779 9.73327 11.9596 9.43015 11.63C9.38813 11.567 9.32317 11.523 9.24913 11.5073C9.17509 11.4916 9.09784 11.5054 9.03388 11.5459C8.96992 11.5864 8.92431 11.6502 8.9068 11.7239C8.88928 11.7975 8.90125 11.8751 8.94015 11.94C9.18775 12.5273 9.64869 12.999 10.2301 13.26C10.4874 13.3689 10.7613 13.4331 11.0401 13.45C11.3179 13.4628 11.5956 13.4255 11.8601 13.34C12.4767 13.1515 12.9941 12.7275 13.3001 12.16C13.3505 12.0884 13.3704 11.9997 13.3554 11.9134C13.3404 11.8272 13.2918 11.7504 13.2201 11.7C13.1485 11.6496 13.0598 11.6297 12.9736 11.6447C12.8873 11.6597 12.8105 11.7084 12.7601 11.78Z" fill="black"/>
<path fill-rule="evenodd" clip-rule="evenodd" d="M19 17.59C19.6062 17.3903 20.1694 17.0782 20.66 16.67C20.8972 16.4869 21.0872 16.2499 21.2142 15.9785C21.3411 15.7072 21.4014 15.4094 21.39 15.11C21.3664 15.0071 21.3161 14.9122 21.2441 14.8349C21.1721 14.7577 21.081 14.7008 20.98 14.67C20.83 14.62 20.47 14.51 20.42 14.48C20.2599 14.3937 20.1148 14.2823 19.99 14.15C19.8794 14.0396 19.7941 13.9065 19.74 13.76C19.667 13.5297 19.6233 13.2912 19.61 13.05V11.78V9.37999C19.5932 8.87434 19.5465 8.37012 19.47 7.86999C18.71 6.59999 18.27 7.26999 18.47 8.17999C18.3343 9.66742 17.7203 11.0708 16.72 12.18C15.6182 13.4485 14.1738 14.3721 12.56 14.84C12.0492 14.9613 11.5248 15.0151 11 15C10.498 15.0142 9.99572 14.9807 9.5 14.9C9.16264 14.842 8.82879 14.7652 8.5 14.67C8.18776 14.5745 7.88618 14.4472 7.6 14.29C7.13222 14.0268 6.67829 13.7398 6.24 13.43C5.96916 13.2349 5.71798 13.0138 5.49 12.77C4.97238 12.2099 4.57352 11.5508 4.31745 10.8324C4.06137 10.114 3.95339 9.35123 4 8.58999V8.03999C4 7.33999 3.47 7.18999 3.21 7.99999C3.1295 8.62073 3.1295 9.24926 3.21 9.86999V11C3.21 11.37 3.14 11.85 3.1 12.27C3.04 12.89 2.98 13.52 2.86 14.16C2.84175 14.2571 2.79672 14.3471 2.73 14.42C2.62463 14.5421 2.50358 14.6497 2.37 14.74C2.2 14.86 1.9 14.93 1.77 15.08C1.66172 15.195 1.59486 15.3428 1.58 15.5C1.57623 15.9027 1.68723 16.2981 1.9 16.64C2.1677 17.086 2.54677 17.4547 3 17.71C3.17 17.81 0.110003 19.54 0.230003 23.23C0.22998 23.2689 0.237799 23.3075 0.252994 23.3433C0.268189 23.3792 0.290449 23.4116 0.318447 23.4387C0.346444 23.4657 0.379605 23.4869 0.415951 23.5009C0.452298 23.5148 0.491087 23.5213 0.530003 23.52C0.606916 23.52 0.680678 23.4894 0.735064 23.4351C0.78945 23.3807 0.820003 23.3069 0.820003 23.23C0.820003 20.5 2.82 18.58 5.43 17.47C5.83133 17.2915 6.24192 17.1346 6.66 17C6.91846 17.7207 7.28975 18.3958 7.76 19C8.15397 19.4932 8.64383 19.9014 9.2 20.2C9.93006 20.5532 10.7574 20.6518 11.55 20.48C12.0657 20.3748 12.5574 20.1747 13 19.89C14.0702 19.1936 14.8436 18.1244 15.17 16.89C15.1797 16.8438 15.1797 16.7962 15.17 16.75C15.8329 16.908 16.4792 17.129 17.1 17.41C18.2675 17.972 19.2369 18.8752 19.88 20C20.5169 21.1376 20.8991 22.4001 21 23.7C21.0077 23.7858 21.0485 23.8652 21.1139 23.9212C21.1793 23.9773 21.2641 24.0056 21.35 24C21.3934 23.9974 21.4358 23.9864 21.4749 23.9674C21.5139 23.9484 21.5489 23.9219 21.5777 23.8894C21.6065 23.8568 21.6286 23.819 21.6427 23.7779C21.6568 23.7368 21.6627 23.6933 21.66 23.65C21.5997 22.2215 21.2313 20.8229 20.58 19.55C20.1761 18.8065 19.6408 18.1425 19 17.59ZM5 16.59C4.46757 16.8679 3.89336 17.0571 3.3 17.15C3.01405 16.9652 2.77999 16.7105 2.62 16.41C2.47593 16.1832 2.40281 15.9186 2.41 15.65C2.54571 15.637 2.67974 15.6102 2.81 15.57C3.0887 15.4257 3.33932 15.2326 3.55 15C3.71576 14.8023 3.82617 14.5642 3.87 14.31C3.96681 13.7274 4.03025 13.1398 4.06 12.55C4.25173 12.8704 4.46911 13.1747 4.71 13.46C4.97312 13.767 5.26811 14.0453 5.59 14.29C6.04834 14.6582 6.53296 14.9924 7.04 15.29C7.30605 15.4387 7.58361 15.5658 7.87 15.67C6.88445 15.8686 5.9225 16.1703 5 16.57V16.59ZM14.5 16.74C14.1325 17.7228 13.4222 18.5396 12.5 19.04C12.1452 19.2243 11.764 19.3525 11.37 19.42C10.8016 19.5352 10.2114 19.4724 9.68 19.24C9.10341 19.0104 8.59184 18.643 8.19 18.17C7.84919 17.7729 7.55712 17.3365 7.32 16.87C8.62676 16.5322 9.97032 16.3576 11.32 16.35C12.4314 16.3308 13.5415 16.4347 14.63 16.66C14.5865 16.6721 14.5458 16.6924 14.51 16.72L14.5 16.74ZM18.5 17.08C18.4587 17.0899 18.4207 17.1106 18.39 17.14C18.1039 16.9348 17.8031 16.751 17.49 16.59C16.3903 16.0375 15.2138 15.6533 14 15.45C15.3514 14.8596 16.5515 13.9707 17.51 12.85C17.956 12.3253 18.3355 11.7476 18.64 11.13C18.64 11.34 18.59 11.54 18.57 11.75C18.57 12.18 18.5 12.65 18.52 13.11C18.5348 13.4507 18.5988 13.7876 18.71 14.11C18.8281 14.4082 19.0088 14.6776 19.24 14.9C19.4561 15.1079 19.7064 15.2771 19.98 15.4C19.98 15.4 20.21 15.52 20.39 15.59C20.2724 15.8431 20.0978 16.0655 19.88 16.24C19.4649 16.5827 18.9995 16.8593 18.5 17.06V17.08Z" fill="black"/>
<path fill-rule="evenodd" clip-rule="evenodd" d="M23.2201 1.20999C23.1096 1.07449 22.9856 0.950521 22.8501 0.839994C22.7159 0.724611 22.572 0.620901 22.4201 0.529994C22.2087 0.414896 21.9879 0.317883 21.7601 0.239994C21.5406 0.169285 21.3168 0.112505 21.0901 0.0699941C20.3177 -0.0603377 19.5252 -0.00201471 18.7801 0.239994C17.7801 0.529994 16.7801 1.05999 15.7801 1.40999C15.4101 1.51999 13.1401 -0.450006 10.1301 0.319994C10.0453 0.341247 9.97232 0.395317 9.92732 0.470321C9.88232 0.545325 9.86893 0.635127 9.89011 0.719994C9.91136 0.804842 9.96543 0.877781 10.0404 0.922783C10.1154 0.967785 10.2052 0.981169 10.2901 0.959994C11.2658 0.792245 12.2671 0.852066 13.2159 1.1348C14.1647 1.41753 15.0354 1.91553 15.7601 2.58999C16.7834 3.44434 17.5716 4.54578 18.0501 5.78999C17.4392 5.95786 16.8179 6.08481 16.1901 6.16999C14.6471 6.36272 13.0949 6.47288 11.5401 6.49999C10.0801 6.49999 8.63011 6.65999 7.18011 6.67999C6.25011 6.67999 5.32011 6.67999 4.38011 6.61999C4.63651 5.75831 4.99931 4.93194 5.46011 4.15999C5.88891 3.41879 6.42468 2.74488 7.05011 2.15999C7.69031 1.59891 8.44417 1.18275 9.26011 0.939994C9.29696 0.929629 9.3314 0.912069 9.36144 0.888326C9.39147 0.864583 9.41651 0.835128 9.4351 0.801659C9.4537 0.768191 9.46548 0.731372 9.46977 0.693327C9.47406 0.655282 9.47078 0.616763 9.46011 0.579994C9.451 0.542383 9.43421 0.507067 9.41077 0.476275C9.38733 0.445483 9.35777 0.419882 9.32394 0.40109C9.29012 0.382297 9.25276 0.37072 9.21424 0.367089C9.17571 0.363458 9.13685 0.367852 9.10011 0.379994C8.19107 0.615677 7.34682 1.05318 6.63011 1.65999C5.92824 2.26685 5.32444 2.9786 4.84011 3.76999C4.39011 4.44999 3.21011 6.66999 3.39011 7.04999C3.57011 7.42999 5.80011 7.35999 7.18011 7.39999C8.56011 7.43999 10.0901 7.39999 11.5501 7.39999C13.1454 7.44738 14.7422 7.3906 16.3301 7.22999C18.4501 6.96999 21.7101 5.84999 23.1001 4.22999C23.5088 3.84099 23.7499 3.3081 23.7723 2.74432C23.7947 2.18054 23.5966 1.6302 23.2201 1.20999ZM22.3201 3.56999C21.3943 4.41554 20.3005 5.05616 19.1101 5.44999L18.9201 5.51999C18.3503 4.14049 17.4383 2.92901 16.2701 1.99999C17.1801 1.69999 18.0901 1.27999 19.0201 0.999994C19.6355 0.829368 20.2813 0.798616 20.9101 0.909994C21.0966 0.956051 21.2802 1.01281 21.4601 1.07999C21.6326 1.13964 21.7972 1.22024 21.9501 1.31999C22.0546 1.37848 22.1519 1.44896 22.2401 1.52999C22.3246 1.613 22.4016 1.70336 22.4701 1.79999C22.6814 2.05608 22.7841 2.38474 22.756 2.71558C22.728 3.04642 22.5715 3.35312 22.3201 3.56999Z" fill="black"/>
</g>
<defs>
<clipPath id="clip0_1994_19598">
<rect width="24" height="24" fill="white"/>
</clipPath>
</defs>
</svg>
