<svg width="60" height="60" viewBox="0 0 60 60" fill="none" xmlns="http://www.w3.org/2000/svg">
<g clip-path="url(#clip0_161_6820)">
<path d="M20.9005 40.5L21.7755 40L28.0005 37.5C28.7646 37.2079 29.4808 36.8034 30.1255 36.3C30.5185 35.9375 30.7522 35.4342 30.7755 34.9C30.7601 34.4582 30.612 34.0314 30.3505 33.675C29.8589 33.1378 29.2851 32.6821 28.6505 32.325C27.7755 31.8 26.8505 31.3 25.9255 30.85C25.0005 30.4 24.0255 30.025 23.0755 29.675H22.9005L23.4005 29.45C24.8255 28.45 26.6005 27.575 28.1255 26.55C28.8725 26.083 29.568 25.5383 30.2005 24.925C30.4019 24.738 30.5374 24.4909 30.587 24.2206C30.6365 23.9503 30.5974 23.6713 30.4755 23.425C30.1993 22.9277 29.8635 22.466 29.4755 22.05L26.2755 18.05C25.3255 16.1 23.7755 17.2 24.5255 18.25C24.6276 18.5333 24.7801 18.7959 24.9755 19.025L27.8755 23.025C28.0246 23.2002 28.1832 23.3671 28.3505 23.525C27.8989 23.8401 27.4316 24.1321 26.9505 24.4C25.2755 25.325 23.4255 26.1 21.9505 27.025C21.6505 27.225 20.4505 27.75 19.8255 28.225C19.405 28.5297 19.1043 28.9719 18.9755 29.475C18.9181 29.7427 18.9292 30.0206 19.0079 30.2828C19.0866 30.545 19.2302 30.7831 19.4255 30.975C20.2592 31.5383 21.1798 31.9606 22.1505 32.225C23.0005 32.525 23.8755 32.9 24.6505 33.3C25.5073 33.6866 26.342 34.1206 27.1505 34.6C27.2151 34.6517 27.2738 34.7104 27.3255 34.775L26.8505 34.95L20.8505 37.85C20.1028 38.1509 19.3762 38.5017 18.6755 38.9C18.3611 39.1105 18.1379 39.4319 18.0505 39.8C18.0207 40.1864 18.1366 40.5699 18.3755 40.875C18.698 41.236 19.0492 41.5705 19.4255 41.875C19.9005 42.35 20.8755 43.25 21.9255 44.15C22.9755 45.05 24.2005 44.025 23.2255 43.075C22.2505 42.125 21.3755 41 20.9005 40.5Z" fill="black"/>
<path d="M58.7502 47.0501C58.3007 46.3172 57.678 45.706 56.937 45.2701C56.1959 44.8342 55.3592 44.5869 54.5002 44.5501H54.3002C54.3416 41.4015 54.1829 38.2535 53.8252 35.1251C53.5027 32.5185 52.8733 29.9591 51.9502 27.5001C51.4122 25.9702 50.7603 24.4827 50.0002 23.0501C49.1892 21.5874 48.2165 20.2205 47.1002 18.9751C46.3405 18.1245 45.5036 17.3462 44.6002 16.6501C43.702 15.9644 42.7488 15.354 41.7502 14.8251C40.7826 14.2958 39.7704 13.8524 38.7252 13.5001C40.2905 12.5585 41.5428 11.1757 42.3252 9.52509C42.6219 8.80952 42.6672 8.01452 42.4538 7.26987C42.2404 6.52523 41.7808 5.87491 41.1502 5.42509C40.483 4.96213 39.7377 4.62337 38.9502 4.42509V4.27509C39.191 3.64581 39.2516 2.96189 39.1252 2.30009C39.0133 1.89123 38.8084 1.51377 38.5266 1.19718C38.2447 0.8806 37.8934 0.633469 37.5002 0.475089C37.0514 0.223714 36.5557 0.067359 36.0439 0.0157487C35.5321 -0.0358615 35.0152 0.0183763 34.5252 0.175089C33.6176 0.505875 32.7723 0.987657 32.0252 1.60009C31.6828 1.91445 31.2951 2.17569 30.8752 2.37509C30.4865 1.86679 29.9677 1.47299 29.3736 1.23535C28.7795 0.99771 28.1322 0.925061 27.5002 1.02509C26.6406 1.05654 25.7937 1.24286 25.0002 1.57509C24.4418 1.82229 23.9334 2.16969 23.5002 2.60009C23.1064 2.97772 22.8361 3.46583 22.7252 4.00009C22.6097 4.32299 22.5341 4.65882 22.5002 5.00009C21.2369 5.18183 20.0122 5.57037 18.8752 6.15009C18.2536 6.53416 17.7646 7.09951 17.474 7.76999C17.1835 8.44046 17.1054 9.18387 17.2502 9.90009C17.3252 10.8383 17.7227 11.7217 18.3752 12.4001C19.2131 13.2769 20.2511 13.9374 21.4002 14.3251C21.5099 14.3835 21.6323 14.4137 21.7565 14.4131C21.8807 14.4125 22.0029 14.381 22.1119 14.3215C22.221 14.2621 22.3135 14.1764 22.3813 14.0723C22.4491 13.9682 22.49 13.8489 22.5002 13.7251C22.5366 13.6332 22.5545 13.535 22.5528 13.4362C22.5511 13.3374 22.5299 13.2398 22.4904 13.1492C22.4509 13.0586 22.3939 12.9767 22.3227 12.9082C22.2514 12.8397 22.1673 12.786 22.0752 12.7501C21.3069 12.4532 20.6025 12.0119 20.0002 11.4501C19.5067 10.9869 19.2111 10.351 19.1752 9.67509C19.1148 9.33389 19.1617 8.98235 19.3095 8.66893C19.4573 8.35551 19.6986 8.09563 20.0002 7.92509C21.4491 7.45914 22.9392 7.13266 24.4502 6.95009C24.7227 6.82369 24.9501 6.61712 25.102 6.358C25.2538 6.09889 25.323 5.79958 25.3002 5.50009C25.3264 5.16727 25.3264 4.83291 25.3002 4.50009L25.9002 4.15009C26.3886 4.00368 26.8916 3.91146 27.4002 3.87509C27.893 3.83168 28.3887 3.91181 28.8427 4.10824C29.2967 4.30467 29.6945 4.6112 30.0002 5.00009C30.3336 5.21386 30.7353 5.29419 31.1252 5.22509C31.9649 5.05015 32.7524 4.6821 33.4252 4.15009C34.0092 3.59994 34.6756 3.14445 35.4002 2.80009C35.5945 2.74171 35.7986 2.7227 36.0003 2.74416C36.2021 2.76562 36.3975 2.82713 36.5752 2.92509C36.6335 3.16324 36.6335 3.41194 36.5752 3.65009C36.3758 4.16859 36.2741 4.71955 36.2752 5.27509C36.2896 5.62501 36.3836 5.96704 36.5502 6.27509C36.7593 6.63217 37.1006 6.89261 37.5002 7.00009C38.3752 7.00009 40.5002 7.45009 40.0002 9.50009C39.7252 10.7001 38.3252 11.5751 37.5002 12.1751C37.3502 12.2658 37.233 12.4019 37.1655 12.5638C37.0981 12.7256 37.084 12.9047 37.1252 13.0751C32.2788 11.7787 27.1206 12.3777 22.7002 14.7501C17.0823 17.8281 12.5185 22.5226 9.60022 28.2251C8.49448 30.3415 7.57437 32.5497 6.85022 34.8251C6.1052 37.1049 5.56965 39.448 5.25022 41.8251L5.00022 44.5751C4.59217 44.6396 4.19062 44.74 3.80022 44.8751C1.57522 45.6751 0.225216 49.6251 0.500216 52.9251C0.725216 55.6501 2.00022 57.7501 4.07522 57.6501C4.1909 57.6731 4.3103 57.6693 4.42433 57.6392C4.53836 57.6091 4.644 57.5533 4.73321 57.4761C4.82242 57.399 4.89284 57.3025 4.93911 57.194C4.98538 57.0855 5.00628 56.9679 5.00022 56.8501C4.98149 56.6512 4.889 56.4665 4.74095 56.3323C4.59291 56.1981 4.40001 56.1242 4.20022 56.1251C3.90017 56.1156 3.61016 56.0148 3.36893 55.8361C3.1277 55.6574 2.94674 55.4093 2.85022 55.1251C2.38795 54.0026 2.21599 52.7816 2.35022 51.5751C2.50022 49.4001 3.17522 47.1001 4.60022 46.5751C5.62132 46.2669 6.70125 46.2069 7.75022 46.4001C10.5121 47.1661 13.317 47.7671 16.1502 48.2001C17.0383 48.2008 17.9249 48.1255 18.8002 47.9751C20.7002 47.6501 22.5502 47.0751 24.4502 46.7501C25.6162 46.551 26.7935 46.4258 27.9752 46.3751H33.4502C36.2594 46.6967 39.0361 47.257 41.7502 48.0501C43.1252 48.2644 44.5252 48.2644 45.9002 48.0501C52.8252 47.1251 55.5252 46.7251 56.3502 48.2751C56.7936 49.3609 56.8897 50.5574 56.6252 51.7001C56.5321 52.9332 56.0205 54.0975 55.1752 55.0001C54.0226 55.7141 52.7236 56.1585 51.3752 56.3001C47.4252 57.0001 42.4002 56.9751 40.4252 57.2501C35.1155 57.7538 29.7836 57.9874 24.4502 57.9501C18.8002 57.9501 12.8252 57.8251 8.40022 57.4251C8.17852 57.404 7.95741 57.4708 7.78442 57.611C7.61144 57.7513 7.50042 57.9538 7.47522 58.1751C7.46128 58.2868 7.4697 58.4002 7.49997 58.5087C7.53023 58.6172 7.58176 58.7186 7.65154 58.8069C7.72132 58.8953 7.80796 58.969 7.90645 59.0236C8.00493 59.0782 8.11329 59.1127 8.22522 59.1251C12.6752 59.6251 18.7252 59.9001 24.4502 60.0001C31.7252 60.1251 38.4502 60.0001 40.7502 59.7001C43.0502 59.4001 47.8252 59.5751 51.8252 58.9501C53.6038 58.7567 55.3143 58.158 56.8252 57.2001C58.1842 55.934 59.0669 54.2394 59.3252 52.4001C59.702 50.6007 59.5007 48.7283 58.7502 47.0501ZM45.3752 45.3501C44.2906 45.526 43.1848 45.526 42.1002 45.3501C39.2213 44.6334 36.2983 44.1072 33.3502 43.7751C31.4651 43.696 29.5768 43.7545 27.7002 43.9501C26.7752 43.9501 19.6502 45.5751 18.2752 45.8501C17.534 46.0032 16.7815 46.0952 16.0252 46.1251C13.2817 45.7726 10.5606 45.2635 7.87522 44.6001H6.62522L6.95022 42.1001C7.32975 39.8485 7.92413 37.6384 8.72522 35.5001C9.51296 33.3544 10.4832 31.2801 11.6252 29.3001C14.0595 25.0221 17.4899 21.3945 21.6252 18.7251C24.6802 16.6172 28.2672 15.4129 31.9752 15.2501C35.9064 15.2135 39.7391 16.4793 42.8752 18.8501C43.6789 19.4164 44.4242 20.0612 45.1002 20.7751C46.1226 21.8449 47.02 23.0275 47.7752 24.3001C48.5444 25.6009 49.2211 26.9542 49.8002 28.3501C50.7309 30.6238 51.3937 32.9981 51.7752 35.4251C52.2287 38.4294 52.4709 41.4619 52.5002 44.5001C50.1252 44.5751 47.5002 45.0001 45.3752 45.3501Z" fill="black"/>
<path d="M41.7004 42.1252C42.0194 41.5255 42.3032 40.9078 42.5504 40.2752C42.9254 39.3752 43.2254 38.4252 43.5504 37.4752C43.7874 36.9618 43.9717 36.4258 44.1004 35.8752C44.1755 35.5368 44.1351 35.183 43.9856 34.8703C43.836 34.5576 43.586 34.3041 43.2754 34.1502C42.9254 33.9752 42.3004 33.8002 42.1254 33.7252C41.3981 33.4364 40.6446 33.2187 39.8754 33.0752C39.3754 33.0752 38.8504 32.9002 38.3504 32.8502L39.1004 32.1002C39.8254 31.4002 40.6004 30.7252 41.3504 30.0502C41.9092 29.6323 42.4206 29.1545 42.8754 28.6252C42.9844 28.3946 43.041 28.1427 43.041 27.8877C43.041 27.6326 42.9844 27.3807 42.8754 27.1502C42.6943 26.7759 42.4075 26.463 42.0504 26.2502C41.4922 25.9772 40.9052 25.7675 40.3004 25.6252C39.6254 25.4502 38.0754 25.3002 36.7504 24.9502L36.0504 24.7502C36.3504 24.2752 36.5504 23.4752 36.6504 23.3502C37.4504 21.9002 39.3254 19.2252 39.8504 18.3502C39.9696 18.1887 40.0238 17.9883 40.0022 17.7888C39.9805 17.5892 39.8847 17.4051 39.7336 17.2729C39.5826 17.1407 39.3873 17.0702 39.1867 17.0752C38.986 17.0803 38.7946 17.1606 38.6504 17.3002C38.5004 17.5752 35.6754 20.8502 34.7504 22.3002C34.1586 22.9901 33.647 23.7449 33.2254 24.5502C33.1418 24.7348 33.0986 24.9351 33.0986 25.1377C33.0986 25.3403 33.1418 25.5406 33.2254 25.7252C33.6978 26.5257 34.4578 27.1158 35.3504 27.3752C36.5286 27.7692 37.7311 28.0865 38.9504 28.3252C38.2754 28.9252 37.6004 29.5252 36.9504 30.1752C36.4186 30.6867 35.9177 31.2293 35.4504 31.8002C35.0226 32.3034 34.6458 32.8477 34.3254 33.4252C34.2449 33.6194 34.2035 33.8275 34.2035 34.0377C34.2035 34.2479 34.2449 34.456 34.3254 34.6502C34.42 34.8794 34.57 35.0817 34.762 35.2387C34.954 35.3958 35.1819 35.5028 35.4254 35.5502C36.0572 35.6116 36.6935 35.6116 37.3254 35.5502C37.9939 35.5536 38.6616 35.5953 39.3254 35.6752C39.9685 35.7691 40.6036 35.9111 41.2254 36.1002H41.3754V36.8752C41.1254 37.8002 40.9004 38.7252 40.6004 39.6002C40.3004 40.4752 40.1754 40.7502 39.9254 41.3252L39.0254 43.4502C38.7754 44.3002 40.2004 44.6502 40.7004 43.8502L41.7004 42.1252Z" fill="black"/>
</g>
<defs>
<clipPath id="clip0_161_6820">
<rect width="60" height="60" fill="white"/>
</clipPath>
</defs>
</svg>
