<svg width="60" height="60" viewBox="0 0 60 60" fill="none" xmlns="http://www.w3.org/2000/svg">
<g clip-path="url(#clip0_165_7344)">
<path fill-rule="evenodd" clip-rule="evenodd" d="M31.2246 16.2502C30.753 16.8569 30.4124 17.555 30.2246 18.3002C29.8996 19.4252 29.9996 20.6752 29.7496 21.8252C29.6773 22.1487 29.5413 22.4547 29.3496 22.7252C28.3996 24.2252 27.4996 24.3752 26.4996 25.3752C26.2027 25.6651 25.9347 25.9832 25.6996 26.3252C25.1584 27.0571 24.8218 27.92 24.7246 28.8252C24.6621 29.5238 24.6621 30.2266 24.7246 30.9252C24.8452 31.6838 24.8026 32.4594 24.5996 33.2002C24.4952 33.4658 24.3329 33.705 24.1246 33.9002C23.5996 34.4002 22.9746 34.8252 22.4996 35.3252C22.0246 35.8252 21.1746 36.5252 21.0746 37.3502C20.8496 38.9002 22.0996 39.3252 22.6996 38.3502C23.0584 37.7975 23.4964 37.3005 23.9996 36.8752C24.5996 36.3252 25.3996 35.9252 25.9996 35.3752C26.3726 35.0413 26.6708 34.6324 26.8746 34.1752C27.3699 32.5558 27.6061 30.8683 27.5746 29.1752C27.6294 28.7492 27.793 28.3445 28.0496 28.0002C28.7834 27.0729 29.6223 26.2339 30.5496 25.5002C30.9881 25.0384 31.3585 24.5165 31.6496 23.9502C31.9652 23.3593 32.1686 22.7151 32.2496 22.0502C32.2496 20.9002 32.0996 19.7002 32.2496 18.5752C32.3996 17.4502 32.4496 17.3252 32.7996 17.0502C33.1496 16.7752 31.7996 15.6002 31.2246 16.2502Z" fill="black"/>
<path fill-rule="evenodd" clip-rule="evenodd" d="M40.2252 15.8751C39.3936 15.3081 38.4723 14.8856 37.5002 14.6251L29.4252 11.8001C29.6244 11.2762 29.8756 10.7737 30.1752 10.3001C30.9002 9.30007 31.8002 8.50006 32.6752 7.17506C33.1252 6.50006 33.7502 5.80006 34.1502 5.05006C34.3748 4.58619 34.5186 4.08735 34.5752 3.57507C34.5484 2.9331 34.3389 2.31212 33.9713 1.78512C33.6037 1.25812 33.0934 0.846997 32.5002 0.600065C31.5281 0.132708 30.4512 -0.0740466 29.3752 6.52566e-05C28.6865 0.00130245 28.0212 0.249697 27.5002 0.700065C26.9322 1.25208 26.4592 1.89404 26.1002 2.60007C25.6821 3.51237 25.3149 4.44714 25.0002 5.40007C24.4502 6.82507 24.1752 7.60007 23.7752 8.50007C23.5919 8.90007 23.3669 9.37507 23.1002 9.92507H22.9502C22.6133 10.0357 22.3172 10.2447 22.1002 10.5251C21.8013 10.9419 21.5577 11.3957 21.3752 11.8751L19.5502 15.0001C18.3648 16.7828 17.32 18.6551 16.4252 20.6001C15.2002 23.2751 14.3502 25.9001 12.8752 29.3001L10.7502 34.1751C10.5103 34.6914 10.3421 35.2382 10.2502 35.8001C10.1835 36.2492 10.2717 36.7077 10.5002 37.1001C10.7352 37.4129 11.0445 37.6621 11.4002 37.8251C12.1252 38.2001 13.3752 38.5251 13.9002 38.7001C14.9002 39.1501 15.9002 39.5001 16.9252 39.8501C19.0752 40.5501 21.2752 41.1251 23.4002 41.9251L23.0002 42.2251C22.8213 42.3114 22.684 42.4652 22.6184 42.6527C22.5528 42.8402 22.5642 43.046 22.6502 43.2251C22.7415 43.4057 22.8999 43.5434 23.0914 43.6088C23.2829 43.6743 23.4925 43.6621 23.6752 43.5751C24.8075 43.1579 25.8961 42.6304 26.9252 42.0001C29.2502 40.5501 31.4752 38.5251 33.5002 37.3001C33.6991 37.1907 33.8464 37.0067 33.9097 36.7887C33.973 36.5707 33.9471 36.3365 33.8377 36.1376C33.7283 35.9387 33.5443 35.7913 33.3263 35.7281C33.1083 35.6648 32.8741 35.6907 32.6752 35.8001C30.5889 36.911 28.5764 38.1552 26.6502 39.5251L25.1752 40.6001L24.7002 40.9751C24.6432 40.8542 24.546 40.757 24.4252 40.7001C23.6502 40.3251 18.4752 38.5001 17.5252 38.2001C16.5745 37.8622 15.6475 37.4614 14.7502 37.0001C14.3502 36.8001 11.9252 36.5501 12.2502 35.9751L12.7752 35.0001L15.1252 30.3251C16.7002 27.0001 17.6252 24.4251 18.9502 21.8001C19.8136 19.9755 20.8166 18.2203 21.9502 16.5501L23.9502 13.2251C23.9502 13.2251 24.2002 12.9001 24.3002 12.7251H24.5002C25.3252 13.0501 26.1502 13.6001 26.8002 13.8251L36.5252 16.9501C36.8252 17.0751 37.9752 17.1251 38.4252 17.3251C38.4211 17.6196 38.3529 17.9096 38.2252 18.1751C37.7502 19.2501 36.9002 20.2751 36.5502 21.3001C36.3337 21.9612 36.0488 22.598 35.7002 23.2001C35.1752 24.0251 34.6252 24.6001 33.7252 26.0751L31.2252 31.4251C30.8002 32.2751 30.1752 33.2751 29.7002 34.2751C29.4815 34.7328 29.3057 35.2098 29.1752 35.7001C29.1155 35.9189 29.1452 36.1524 29.2577 36.3493C29.3702 36.5462 29.5564 36.6904 29.7752 36.7501C29.994 36.8097 30.2275 36.78 30.4244 36.6675C30.6214 36.555 30.7655 36.3689 30.8252 36.1501C31.0071 35.6318 31.2329 35.1299 31.5002 34.6501C31.9502 33.8251 32.5002 33.0001 32.8752 32.3001L35.5752 27.3001C36.5002 25.8751 37.0752 25.3251 37.6252 24.5001C38.0897 23.7856 38.4753 23.0228 38.7752 22.2251C39.1502 21.2751 40.0002 20.3251 40.4752 19.3251C40.7975 18.7252 40.9691 18.056 40.9752 17.3751C40.9679 17.0853 40.8969 16.8007 40.7673 16.5415C40.6377 16.2823 40.4526 16.0547 40.2252 15.8751ZM27.7252 11.1751C26.9752 10.9251 25.9752 10.2251 25.0502 9.95007L27.1752 6.40006C27.5752 5.67506 28.0502 4.80007 28.6002 3.90007C29.5752 2.42507 29.6752 2.75007 30.3252 2.87507C30.9752 3.00007 32.3252 3.32507 31.9002 3.55007C31.4752 3.77507 31.9002 3.67507 31.7002 4.10007C31.5002 4.52507 31.0002 5.27506 30.7002 5.82506C29.8252 7.50006 28.9002 8.45007 28.2002 9.82507C28.0002 10.3001 27.8502 10.7251 27.7252 11.1751Z" fill="black"/>
<path fill-rule="evenodd" clip-rule="evenodd" d="M53.0247 36.8002C53.0247 35.1252 52.5997 33.1252 52.4497 31.8002C52.4497 31.8002 52.4497 31.6502 52.3247 31.5752C52.3878 31.2364 52.3878 30.8889 52.3247 30.5502C52.0839 29.8172 51.6525 29.1614 51.0747 28.6502C49.9008 27.7679 48.5806 27.0993 47.1747 26.6752C46.1497 26.3752 45.0497 26.1752 44.0747 25.9002C43.0997 25.6252 42.4747 25.6002 41.5747 25.3752C41.2889 25.2754 41.0128 25.1499 40.7497 25.0002C40.6496 24.9476 40.5401 24.9153 40.4275 24.9051C40.3149 24.8949 40.2013 24.907 40.0934 24.9406C39.9854 24.9743 39.8852 25.0289 39.7983 25.1013C39.7115 25.1737 39.6397 25.2625 39.5872 25.3627C39.5347 25.4628 39.5024 25.5723 39.4922 25.6849C39.482 25.7975 39.494 25.911 39.5277 26.019C39.5614 26.1269 39.616 26.2272 39.6884 26.314C39.7608 26.4009 39.8496 26.4726 39.9497 26.5252C40.3106 26.7151 40.6869 26.874 41.0747 27.0002C41.8497 27.2502 42.6247 27.3502 43.4497 27.6252C44.2747 27.9002 45.4747 28.1502 46.4747 28.5002C46.8515 28.6242 47.2191 28.7745 47.5747 28.9502C48.165 29.2509 48.7332 29.5935 49.2747 29.9752C49.6762 30.2607 49.9675 30.6755 50.0997 31.1502C50.2747 31.7752 49.7997 32.3502 49.2747 32.9752C48.2188 34.1057 47.0825 35.1585 45.8747 36.1252L39.0747 42.7752C37.5747 44.2002 36.0497 45.6502 34.4747 47.0252C33.4796 47.9939 32.4003 48.8724 31.2497 49.6502C30.6471 50.0393 29.9419 50.2395 29.2247 50.2252C26.5901 50.1097 23.9832 49.6388 21.4747 48.8252C18.8878 48.0368 16.3776 47.016 13.9747 45.7752L12.4997 45.2752C11.3711 45.173 10.2701 44.8681 9.24971 44.3752C9.09971 44.3752 8.94971 44.2502 8.94971 44.1252C8.94971 44.0002 8.94971 43.8002 9.29971 43.6002L9.99971 42.8252L11.4247 42.0002C11.5101 41.9509 11.5849 41.8853 11.6449 41.8072C11.7049 41.729 11.749 41.6398 11.7745 41.5446C11.8 41.4494 11.8066 41.3502 11.7937 41.2524C11.7809 41.1547 11.749 41.0605 11.6997 40.9752C11.6505 40.8898 11.5849 40.815 11.5067 40.755C11.4286 40.6949 11.3393 40.6509 11.2442 40.6254C11.149 40.5998 11.0497 40.5933 10.952 40.6061C10.8543 40.619 10.7601 40.6509 10.6747 40.7002L9.04971 41.5752L8.07471 42.5002C7.7852 42.726 7.55607 43.0199 7.40776 43.3558C7.25945 43.6917 7.19656 44.0591 7.22471 44.4252C7.1472 44.4985 7.08684 44.5881 7.04794 44.6875C7.00905 44.7869 6.99258 44.8937 6.99971 45.0002V49.1002C6.96103 49.6995 6.96103 50.3008 6.99971 50.9002C7.05208 51.3087 7.22632 51.6921 7.49971 52.0002C7.74684 52.2711 8.04394 52.4918 8.37471 52.6502C8.98543 52.9345 9.61139 53.1849 10.2497 53.4002L17.2247 55.5252C19.7247 56.4002 22.8997 58.1752 25.5997 59.1752C27.0384 59.8037 28.6093 60.0698 30.1747 59.9502C31.2085 59.7365 32.2034 59.3655 33.1247 58.8502C34.404 58.1497 35.6028 57.3114 36.6997 56.3502C37.8247 55.3752 38.9747 54.4502 40.0997 53.4502L41.5247 52.0502C43.4497 50.0752 45.4497 48.1752 47.3747 46.2002C48.2247 45.3502 49.0497 44.4752 49.8747 43.5502C50.7032 42.7152 51.4796 41.8302 52.1997 40.9002C52.5597 40.3948 52.8226 39.8267 52.9747 39.2252C53.0873 38.4217 53.1041 37.6076 53.0247 36.8002ZM50.9997 38.7502C50.8372 39.2191 50.5725 39.646 50.2247 40.0002C49.5747 40.7502 48.7497 41.4502 48.1997 42.0252C47.6497 42.6002 46.5497 43.6752 45.6997 44.5252C43.6997 46.4252 41.6247 48.2252 39.5997 50.1502L34.8247 54.2002C34.04 54.88 33.2042 55.4985 32.3247 56.0502C31.5251 56.5757 30.6351 56.9487 29.6997 57.1502C28.6341 57.1898 27.5736 56.9845 26.5997 56.5502C23.8497 55.6252 20.5247 54.0502 18.0497 53.3002L10.9497 51.5752C10.5247 51.4252 9.97471 51.3002 9.47471 51.1002C9.24772 51.0323 9.03564 50.922 8.84971 50.7752L8.59971 46.0752C9.72563 46.6227 10.9195 47.0178 12.1497 47.2502L13.0997 47.6502C15.5359 49.0784 18.0964 50.2833 20.7497 51.2502C23.4431 52.2531 26.2608 52.8839 29.1247 53.1252C30.3901 53.1828 31.6438 52.8607 32.7247 52.2002C34.0541 51.3532 35.2938 50.3732 36.4247 49.2752C38.0497 47.8502 39.5997 46.4002 41.1247 44.8752C43.3747 42.6252 45.5247 40.3002 47.7247 38.0002C48.8857 36.9453 49.9874 35.8269 51.0247 34.6502C51.0247 35.4252 51.1497 36.2002 51.1497 36.9252C51.1668 37.5372 51.1165 38.1492 50.9997 38.7502Z" fill="black"/>
</g>
<defs>
<clipPath id="clip0_165_7344">
<rect width="60" height="60" fill="white"/>
</clipPath>
</defs>
</svg>
