<svg width="24" height="24" viewBox="0 0 24 24" fill="none" xmlns="http://www.w3.org/2000/svg">
<g clip-path="url(#clip0_3104_20268)">
<path fill-rule="evenodd" clip-rule="evenodd" d="M10.2754 15.8494C10.2662 15.808 10.249 15.7689 10.2247 15.7342C10.2004 15.6995 10.1694 15.6699 10.1337 15.6472C10.098 15.6244 10.0581 15.6089 10.0164 15.6016C9.97465 15.5943 9.93188 15.5952 9.89053 15.6044C9.84917 15.6136 9.81002 15.6309 9.77533 15.6552C9.74063 15.6795 9.71107 15.7104 9.68832 15.7462C9.66558 15.7819 9.65009 15.8218 9.64276 15.8635C9.63542 15.9052 9.63638 15.948 9.64557 15.9893L10.3654 18.6289C10.4239 18.8413 10.4607 19.059 10.4754 19.2788C10.496 19.3945 10.496 19.513 10.4754 19.6287C10.3054 19.4687 9.70556 19.6287 9.56558 19.6287H9.17565L6.08619 19.3988H4.99638V19.1988L5.51629 16.8192C5.51629 16.8192 5.61627 16.2893 5.64627 16.0893C5.6663 15.9612 5.64632 15.8301 5.58906 15.7138C5.5318 15.5975 5.44005 15.5017 5.32632 15.4394C5.2525 15.406 5.1724 15.3888 5.09136 15.3888C5.01033 15.3888 4.93023 15.406 4.8564 15.4394C4.76642 15.4394 4.49647 15.6394 4.46647 15.6594C4.27958 15.7337 4.08512 15.7873 3.88657 15.8194C3.69775 15.8488 3.5055 15.8488 3.31667 15.8194C3.20912 15.8147 3.10213 15.8013 2.99673 15.7794C2.88479 15.7293 2.77769 15.6691 2.67678 15.5994L2.41683 15.3195L2.29685 15.0495C2.27196 14.9442 2.2819 14.8337 2.32516 14.7346C2.36843 14.6354 2.4427 14.553 2.53681 14.4996C3.05097 14.296 3.57886 14.129 4.11653 13.9997L4.93639 13.6298C5.13693 13.5094 5.32456 13.3686 5.49629 13.2098C5.58628 13.1298 5.65626 13.0399 5.73625 12.9599C6.47144 13.2705 7.28276 13.3541 8.06584 13.1998C8.52574 13.0673 8.94723 12.8265 9.29511 12.4978C9.64298 12.1691 9.90713 11.7618 10.0655 11.3102C10.2074 10.9225 10.2705 10.5104 10.251 10.098C10.2316 9.68564 10.1299 9.28131 9.95202 8.90877C9.77413 8.53622 9.52361 8.20297 9.21516 7.92857C8.90671 7.65418 8.54655 7.44416 8.15583 7.31087C7.41661 7.05798 6.61224 7.07147 5.88191 7.34899C5.15159 7.62652 4.54125 8.15061 4.15653 8.8306C3.93451 9.21792 3.8046 9.65114 3.77686 10.0967C3.74912 10.5423 3.82429 10.9883 3.99655 11.4002C4.24709 11.9437 4.65448 12.3998 5.16635 12.7099L5.08636 12.7899C4.93268 12.9135 4.76879 13.0239 4.59645 13.1199L3.86658 13.3898C3.25668 13.5898 2.30685 13.5798 1.86693 14.0097C1.71517 14.1526 1.59971 14.3297 1.53015 14.5262C1.4606 14.7227 1.43894 14.9329 1.467 15.1395C1.47478 15.2555 1.49833 15.3698 1.53698 15.4794C1.56999 15.5804 1.61356 15.6776 1.66696 15.7694C1.72541 15.8746 1.79228 15.9749 1.86693 16.0693C1.94592 16.1633 2.0329 16.2503 2.12688 16.3293C2.28389 16.4553 2.455 16.5627 2.63679 16.6492C2.81667 16.7374 3.00878 16.7981 3.20669 16.8292C3.44536 16.8644 3.6879 16.8644 3.92657 16.8292C4.10519 16.818 4.2825 16.7912 4.45647 16.7492L3.99655 18.9988C3.91408 19.2779 3.87364 19.5677 3.87657 19.8587C3.8996 19.9517 3.94291 20.0385 4.00341 20.1128C4.0639 20.1871 4.14009 20.2472 4.22651 20.2886C4.42871 20.3709 4.64026 20.428 4.8564 20.4586C4.98952 20.4688 5.12322 20.4688 5.25633 20.4586C5.09257 21.1469 5.07215 21.8616 5.19634 22.5582C5.29048 22.9029 5.50157 23.2041 5.79343 23.4102C6.08529 23.6163 6.43975 23.7146 6.79607 23.688C7.16231 23.7068 7.52133 23.5812 7.79589 23.3381C7.9442 23.5534 8.14523 23.7271 8.37977 23.8426C8.61432 23.9581 8.87456 24.0116 9.13566 23.998C9.40627 23.9933 9.67164 23.9225 9.90864 23.7918C10.1456 23.6611 10.3471 23.4745 10.4954 23.2481C10.7203 22.8672 10.8538 22.4394 10.8853 21.9983C10.9005 21.4856 10.8603 20.9727 10.7654 20.4686C10.9212 20.4173 11.0529 20.3105 11.1353 20.1686C11.2531 19.9333 11.3082 19.6716 11.2953 19.4088C11.2772 19.0685 11.2133 18.7321 11.1053 18.4089L10.2754 15.8494ZM4.8764 11.0002C4.73616 10.7156 4.66323 10.4026 4.66323 10.0854C4.66323 9.76813 4.73616 9.45512 4.8764 9.17054C4.99763 8.89049 5.17363 8.63751 5.39404 8.42645C5.61445 8.2154 5.87482 8.05053 6.15986 7.94154C6.4449 7.83256 6.74885 7.78165 7.05384 7.79182C7.35883 7.80199 7.65872 7.87302 7.93587 8.00074C8.4445 8.22111 8.85885 8.61421 9.10566 9.11055C9.25258 9.40243 9.33324 9.72314 9.34188 10.0498C9.35052 10.3765 9.28693 10.701 9.15565 11.0002C9.04917 11.2921 8.87345 11.5537 8.64357 11.7627C8.4137 11.9717 8.13653 12.1217 7.83588 12.2C7.26839 12.2959 6.6853 12.2265 6.15618 12C5.61997 11.8378 5.16362 11.4812 4.8764 11.0002ZM7.35597 21.9983C7.33951 22.17 7.2885 22.3367 7.20599 22.4882C7.16871 22.5737 7.10913 22.6476 7.03349 22.7021C6.95785 22.7566 6.86894 22.7898 6.77607 22.7982C6.60031 22.8331 6.41788 22.8065 6.25946 22.7227C6.10104 22.6389 5.9763 22.5032 5.90622 22.3382C5.75349 21.7438 5.72625 21.1241 5.82623 20.5186H7.48594C7.48161 20.5383 7.48161 20.5588 7.48594 20.5785C7.38336 21.0445 7.33969 21.5215 7.35597 21.9983ZM10.1155 21.9483C10.0724 22.261 9.95593 22.5591 9.77554 22.8182C9.69851 22.912 9.60038 22.9862 9.48918 23.0349C9.37797 23.0835 9.25683 23.1052 9.13566 23.0981C9.02927 23.0977 8.92513 23.0675 8.83501 23.011C8.7449 22.9544 8.67241 22.8738 8.62575 22.7782C8.51381 22.533 8.4526 22.2677 8.44578 21.9983C8.45053 21.9251 8.45053 21.8516 8.44578 21.7783L8.50577 21.0785V20.6785C8.51232 20.6422 8.51232 20.6049 8.50577 20.5685H10.0955C10.1563 21.0093 10.163 21.4559 10.1155 21.8983V21.9483Z" fill="black"/>
<path fill-rule="evenodd" clip-rule="evenodd" d="M22.5133 12.9998C22.4639 12.7343 22.3455 12.4864 22.17 12.2811C21.9945 12.0757 21.7681 11.9202 21.5135 11.83C21.1881 11.7391 20.8465 11.7221 20.5136 11.78C20.091 11.8649 19.6762 11.9853 19.2739 12.14C19.7192 11.5213 19.9122 10.7562 19.8138 10.0003C19.4638 6.42096 14.1348 6.37096 13.9648 10.0903C13.9099 10.8132 14.1186 11.5315 14.5524 12.1123C14.9862 12.6931 15.6157 13.0972 16.3244 13.2498C16.5241 13.2961 16.7296 13.313 16.9343 13.2998C17.2184 13.2767 17.4996 13.2265 17.7741 13.1498C18.0374 13.0631 18.2867 12.9385 18.514 12.7799C18.5434 12.8195 18.5834 12.8499 18.6295 12.8676C18.6755 12.8853 18.7256 12.8895 18.774 12.8798C19.1739 12.8298 19.7738 12.6899 20.3237 12.6499C20.5879 12.6178 20.856 12.6522 21.1035 12.7499C21.2167 12.8069 21.3104 12.8963 21.3727 13.0067C21.435 13.117 21.4631 13.2434 21.4535 13.3697C21.4587 13.6981 21.353 14.0187 21.1535 14.2796C20.9197 14.5642 20.6117 14.7788 20.2637 14.8995C19.6638 15.0678 19.0522 15.1915 18.434 15.2694C18.36 15.2883 18.2964 15.3357 18.257 15.4012C18.2177 15.4667 18.2059 15.5451 18.224 15.6194L18.494 17.1091L18.8439 18.5788C19.0503 19.0814 19.2272 19.5955 19.3738 20.1186C19.4657 20.4263 19.5029 20.7478 19.4838 21.0684C19.4881 21.2523 19.4454 21.4342 19.3596 21.597C19.2739 21.7597 19.148 21.8978 18.9939 21.9982C17.5342 22.8481 17.4242 20.9384 17.4142 20.9084C17.2719 20.3795 17.0915 19.8616 16.8743 19.3587C16.8464 19.2778 16.7876 19.2113 16.7107 19.1738C16.6339 19.1363 16.5452 19.1309 16.4644 19.1587C16.3835 19.1866 16.317 19.2454 16.2795 19.3223C16.242 19.3992 16.2365 19.4878 16.2644 19.5687C16.4306 20.0558 16.5642 20.5535 16.6643 21.0584C16.7193 21.3592 16.7193 21.6675 16.6643 21.9682C16.6246 22.1006 16.5444 22.2171 16.435 22.3014C16.3256 22.3857 16.1925 22.4335 16.0544 22.4382C15.907 22.4586 15.757 22.4458 15.6151 22.4009C15.4733 22.3559 15.3433 22.2798 15.2346 22.1782C15.0816 22.016 14.9505 21.8345 14.8446 21.6383C14.6706 21.3135 14.5138 20.9797 14.3747 20.6385C14.0444 19.8323 13.7835 18.9994 13.5949 18.1489C13.3989 17.2847 13.252 16.4102 13.1549 15.5294L13.055 13.6597C13.055 13.5828 13.0244 13.5091 12.97 13.4547C12.9157 13.4003 12.8419 13.3697 12.765 13.3697C12.6881 13.3697 12.6144 13.4003 12.56 13.4547C12.5056 13.5091 12.4751 13.5828 12.4751 13.6597L12.4151 15.5994C12.4119 16.7123 12.5089 17.8233 12.705 18.9188C12.8656 19.6294 13.0864 20.3252 13.3649 20.9984C13.5189 21.4032 13.7061 21.7944 13.9248 22.1682C14.0902 22.4382 14.2883 22.6867 14.5147 22.9081C14.7461 23.1091 15.0207 23.2542 15.3171 23.3322C15.6136 23.4103 15.924 23.4191 16.2244 23.358C16.5248 23.3106 16.8039 23.1735 17.0252 22.9648C17.2464 22.7561 17.3994 22.4854 17.4642 22.1882C17.4497 22.2524 17.4554 22.3195 17.4805 22.3803C17.5055 22.4411 17.5487 22.4928 17.6042 22.5282C17.8615 22.7095 18.1605 22.8228 18.4733 22.8578C18.7862 22.8928 19.1028 22.8481 19.3938 22.7281C19.6875 22.5841 19.9413 22.3702 20.133 22.1052C20.3248 21.8403 20.4486 21.5323 20.4937 21.2084C20.5624 20.766 20.5455 20.3146 20.4437 19.8786C20.2749 19.3013 20.0575 18.7394 19.7938 18.1989L19.2639 16.8991L18.8739 15.7493C18.9202 15.7926 18.9806 15.8175 19.0439 15.8193C19.6337 15.8569 20.2256 15.7926 20.7936 15.6294C21.2077 15.509 21.5878 15.2933 21.9034 14.9995C22.1519 14.7354 22.3361 14.4177 22.4419 14.0709C22.5477 13.7241 22.5721 13.3576 22.5133 12.9998ZM17.4542 12.11C17.2984 12.163 17.1376 12.1998 16.9743 12.22C16.8317 12.2399 16.687 12.2399 16.5443 12.22C16.0581 12.1325 15.6186 11.8757 15.3038 11.4949C14.989 11.1142 14.8192 10.6343 14.8246 10.1403C14.7547 7.46078 18.714 7.43078 18.8239 10.1403C18.8551 10.5757 18.7362 11.0087 18.487 11.3671C18.2377 11.7255 17.8732 11.9877 17.4542 12.11Z" fill="black"/>
<path fill-rule="evenodd" clip-rule="evenodd" d="M12.7654 1.00192C12.799 0.922284 12.8001 0.832618 12.7683 0.752217C12.7365 0.671815 12.6744 0.607103 12.5954 0.572C12.3722 0.465726 12.1416 0.375513 11.9056 0.302047C11.6856 0.232059 11.4456 0.17207 11.2157 0.122078L10.2158 0.00209946C9.80682 -0.00908479 9.3978 0.0244415 8.99606 0.102082C8.80088 0.155671 8.62656 0.267236 8.49615 0.422026C8.44447 0.502578 8.41699 0.596273 8.41699 0.691979C8.41699 0.787685 8.44447 0.881379 8.49615 0.961932L8.63612 1.1519L9.12604 1.94176C9.316 2.24171 9.55596 2.55165 9.77592 2.8816H9.59596C9.46566 2.91224 9.34087 2.96283 9.22602 3.03157C9.0319 3.13681 8.86324 3.28336 8.73191 3.46087C8.60058 3.63838 8.50979 3.84254 8.46594 4.05895C8.42208 4.27536 8.42623 4.49875 8.4781 4.71339C8.52996 4.92802 8.62827 5.12866 8.7661 5.30117C8.88646 5.50136 9.04795 5.67371 9.23991 5.80682C9.43186 5.93992 9.64989 6.03074 9.87957 6.07328C10.1092 6.11581 10.3453 6.10908 10.5722 6.05354C10.7991 5.998 11.0116 5.89491 11.1957 5.7511C11.4133 5.57498 11.5677 5.33283 11.6356 5.06122C11.7123 4.73236 11.7123 4.39025 11.6356 4.06139C11.5125 3.62054 11.3202 3.20206 11.0657 2.82161C10.7358 2.2917 10.3058 1.82178 9.97589 1.34187L9.71593 1.00192C9.90156 0.926251 10.0919 0.862793 10.2858 0.811958H11.0757C11.2957 0.811958 11.5056 0.881946 11.7156 0.931937C11.9266 0.980065 12.1338 1.04356 12.3355 1.1219C12.4091 1.15939 12.4942 1.16786 12.5738 1.14565C12.6534 1.12343 12.7218 1.07214 12.7654 1.00192ZM10.1359 3.4515C10.315 3.72662 10.4531 4.02639 10.5458 4.34134C10.5709 4.48019 10.5709 4.62242 10.5458 4.76127C10.5498 4.80158 10.5447 4.84229 10.5309 4.88037C10.517 4.91845 10.4948 4.95292 10.4658 4.98123C10.3874 5.04797 10.2958 5.09738 10.1969 5.12619C10.0981 5.155 9.99425 5.16258 9.89226 5.14841C9.79028 5.13425 9.69245 5.09867 9.60519 5.04401C9.51794 4.98934 9.44323 4.91684 9.38599 4.83126C9.30529 4.74366 9.24516 4.63914 9.21001 4.52534C9.17486 4.41153 9.16557 4.29132 9.18281 4.17346C9.20006 4.05561 9.24341 3.94309 9.3097 3.84413C9.37599 3.74517 9.46354 3.66227 9.56596 3.60147C9.63252 3.54665 9.71146 3.50889 9.79592 3.49149L10.1359 3.4515Z" fill="black"/>
<path fill-rule="evenodd" clip-rule="evenodd" d="M16.0551 6.08106C16.3081 5.9834 16.5351 5.82893 16.7188 5.62957C16.9026 5.43021 17.0382 5.19129 17.1149 4.93126C17.3128 4.00522 17.3667 3.05423 17.2749 2.11175V1.2819L17.5249 1.33189C17.7521 1.39377 17.9704 1.48449 18.1747 1.60184C18.3274 1.69057 18.4686 1.79806 18.5947 1.92179C18.7347 2.05176 18.8646 2.19174 18.9946 2.33171C19.0573 2.38933 19.1394 2.4213 19.2246 2.4213C19.3097 2.4213 19.3918 2.38933 19.4545 2.33171C19.4854 2.30188 19.5099 2.26615 19.5266 2.22664C19.5433 2.18714 19.552 2.14466 19.552 2.10176C19.552 2.05885 19.5433 2.01637 19.5266 1.97687C19.5099 1.93736 19.4854 1.90163 19.4545 1.8718C19.3026 1.66919 19.139 1.47556 18.9646 1.2919C18.8659 1.18689 18.7589 1.08993 18.6446 1.00195C18.3412 0.783679 18.0033 0.618059 17.6449 0.512033C17.3894 0.43342 17.1216 0.402909 16.855 0.422049C16.755 0.424539 16.6584 0.458846 16.5793 0.519982C16.5001 0.581118 16.4427 0.665896 16.4151 0.761989V1.15192L16.285 2.15175V3.53151C16.0545 3.48461 15.8204 3.45785 15.5852 3.45152C15.3467 3.45085 15.1123 3.51291 14.9053 3.63149C14.617 3.80255 14.398 4.06949 14.2865 4.38566C14.175 4.70183 14.1782 5.04712 14.2954 5.36119C14.4365 5.68731 14.6997 5.94524 15.0286 6.07978C15.3574 6.21433 15.7259 6.21478 16.0551 6.08106ZM15.2653 4.1614C15.3589 4.09428 15.4701 4.05605 15.5852 4.05141C15.788 4.03143 15.9922 4.03143 16.195 4.05141C16.191 4.12802 16.191 4.20477 16.195 4.28137C16.125 4.64131 16.0351 4.98125 15.7252 5.10123C15.6788 5.14416 15.6233 5.17607 15.5629 5.19457C15.5024 5.21307 15.4386 5.21768 15.3761 5.20807C15.3136 5.19846 15.2541 5.17487 15.2021 5.13906C15.15 5.10325 15.1066 5.05614 15.0753 5.00125C14.992 4.86392 14.9652 4.69962 15.0007 4.54296C15.0361 4.38629 15.131 4.2495 15.2653 4.1614Z" fill="black"/>
</g>
<defs>
<clipPath id="clip0_3104_20268">
<rect width="24" height="24" fill="white"/>
</clipPath>
</defs>
</svg>
