<svg width="60" height="60" viewBox="0 0 60 60" fill="none" xmlns="http://www.w3.org/2000/svg">
<g clip-path="url(#clip0_165_7147)">
<path fill-rule="evenodd" clip-rule="evenodd" d="M57.025 11.8499C56.8559 11.7074 56.6371 11.6378 56.4168 11.6566C56.1964 11.6753 55.9926 11.7808 55.85 11.9499C55.7075 12.119 55.6379 12.3378 55.6567 12.5581C55.6754 12.7785 55.7809 12.9824 55.95 13.1249C56.4968 13.8523 56.8822 14.6878 57.0805 15.5759C57.2788 16.4639 57.2854 17.3841 57.1 18.2749C56.375 21.3499 48.175 28.0749 45.5 31.0999C45.3243 31.2756 45.2256 31.5139 45.2256 31.7624C45.2256 32.0109 45.3243 32.2492 45.5 32.4249C45.6757 32.6006 45.914 32.6993 46.1625 32.6993C46.411 32.6993 46.6493 32.6006 46.825 32.4249C51.35 28.4499 62.35 23.2249 59.15 14.9249C58.7258 13.7302 57.9926 12.6692 57.025 11.8499Z" fill="black"/>
<path fill-rule="evenodd" clip-rule="evenodd" d="M44.5504 7.94983C43.9882 7.79031 43.3996 7.74573 42.8197 7.81875C42.2398 7.89177 41.6806 8.0809 41.1754 8.37483C35.8652 12.0698 30.9626 16.3186 26.5505 21.0498C16.7755 30.9248 10.4005 39.2748 8.50045 41.4248C7.12545 42.9998 5.60045 51.4248 5.22545 53.5498C2.15045 55.2748 -0.549549 59.5498 0.350451 59.9998C0.825451 60.5498 5.22545 58.2748 7.15045 54.9998C10.8771 54.202 14.5066 53.0033 17.9755 51.4248C18.1644 51.2989 18.2956 51.103 18.3401 50.8803C18.3847 50.6576 18.3389 50.4263 18.2129 50.2373C18.087 50.0484 17.8911 49.9172 17.6684 49.8726C17.4457 49.8281 17.2144 49.8739 17.0255 49.9998C14.0017 51.3714 10.7921 52.2896 7.50045 52.7248C8.11959 49.4497 9.03158 46.2368 10.2255 43.1248C12.3755 46.6998 12.7255 46.0748 15.2255 48.2498C15.391 48.4122 15.6102 48.5084 15.8418 48.5204C16.0733 48.5324 16.3013 48.4592 16.4826 48.3147C16.664 48.1702 16.7863 47.9644 16.8264 47.736C16.8665 47.5076 16.8217 47.2725 16.7004 47.0748C16.2536 45.8654 15.564 44.7601 14.674 43.8272C13.784 42.8942 12.7125 42.1532 11.5255 41.6498C12.4255 40.6498 13.6505 39.1498 15.1755 37.5998C17.5005 41.9748 19.3755 42.4998 21.9505 44.3998C22.0764 44.5317 22.2385 44.6235 22.4164 44.6635C22.5944 44.7035 22.7802 44.6901 22.9505 44.6248L19.3004 48.0498C19.2102 48.1319 19.1369 48.231 19.0849 48.3413C19.0329 48.4517 19.0032 48.5713 18.9974 48.6931C18.9916 48.815 19.0098 48.9368 19.0511 49.0517C19.0924 49.1665 19.1559 49.272 19.238 49.3623C19.32 49.4526 19.4191 49.5258 19.5295 49.5778C19.6398 49.6298 19.7594 49.6596 19.8813 49.6654C20.0031 49.6712 20.125 49.653 20.2398 49.6117C20.3546 49.5704 20.4602 49.5069 20.5505 49.4248C28.7505 42.0748 47.9004 23.9498 51.8004 18.9248C52.1342 18.4512 52.3512 17.9053 52.4337 17.3318C52.5163 16.7583 52.462 16.1734 52.2754 15.6248C51.6268 13.8588 50.599 12.2564 49.2643 10.9304C47.9297 9.60441 46.3206 8.58702 44.5504 7.94983ZM23.4755 44.1498C23.5612 43.9806 23.5927 43.789 23.5659 43.6012C23.5391 43.4134 23.4551 43.2383 23.3255 43.0998C21.5493 40.3127 19.1753 37.9558 16.3755 36.1998C23.0005 28.9498 29.5255 22.2498 36.8255 15.5248C38.7261 18.5599 41.2904 21.1242 44.3254 23.0248C43.0504 24.1248 25.2005 42.4998 23.4755 44.1498ZM49.4255 17.1248C48.283 18.6098 47.0384 20.0132 45.7005 21.3248C43.7081 18.4999 41.2275 16.0532 38.3755 14.0998C39.6896 12.8626 41.1916 11.8416 42.8254 11.0748C44.1754 10.2498 48.0254 13.1998 49.1754 15.9248C49.3754 16.3998 49.6255 16.8248 49.4255 17.1248Z" fill="black"/>
<path fill-rule="evenodd" clip-rule="evenodd" d="M59.7005 0.199922C58.9255 -0.600078 55.9255 1.17492 55.2755 1.94992L55.0005 2.49992C52.2755 0.324922 50.1505 0.874922 48.0005 3.67492L46.9005 4.99992C45.4755 7.04992 45.6505 7.84992 48.4255 6.64992C50.3505 4.94992 51.5505 3.97492 52.4755 4.69992C53.7755 5.59992 55.5755 7.47492 55.3505 8.97492C55.3505 9.42492 54.2755 10.2249 53.7505 10.7499L52.9505 11.5249C51.8005 13.1749 52.4255 13.5749 54.3755 13.0499L55.0005 12.1999C55.6859 11.7754 56.3379 11.299 56.9505 10.7749C57.6919 9.86395 58.0756 8.71384 58.0296 7.54021C57.9835 6.36658 57.511 5.25003 56.7005 4.39992C58.8005 3.79992 60.3255 0.849922 59.7005 0.199922Z" fill="black"/>
</g>
<defs>
<clipPath id="clip0_165_7147">
<rect width="60" height="60" fill="white"/>
</clipPath>
</defs>
</svg>
