<svg width="60" height="60" viewBox="0 0 60 60" fill="none" xmlns="http://www.w3.org/2000/svg">
<path d="M54.7762 34.6672C52.9579 31.2888 50.8669 28.1017 48.529 25.1452C47.821 24.2494 47.0922 23.369 46.3425 22.5041C46.3425 21.6237 46.3425 20.7665 46.4883 19.8861C46.6341 18.0559 46.8423 16.2256 47.0297 14.4417C47.0796 13.4224 47.0657 12.4006 46.9881 11.3835C46.9908 10.5058 46.8052 9.64004 46.4466 8.85822C46.1847 8.35789 45.7823 7.96716 45.3013 7.74616C44.8328 7.58693 44.3517 7.47831 43.8645 7.42181C43.0767 7.31777 42.2837 7.27134 41.4905 7.28281C40.6864 7.29503 39.8849 7.38808 39.0958 7.56082C38.684 7.64407 38.2798 7.76813 37.888 7.93151C37.5418 8.08854 37.2296 8.32542 36.9717 8.62654C36.6282 9.14095 36.4519 9.76998 36.472 10.4105V11.2213L32.8694 6.74995C32.4211 6.19951 31.9101 5.71662 31.3493 5.31354C30.8342 4.94927 30.2305 4.77123 29.6209 4.80385C29.1092 4.81737 28.62 5.04005 28.2465 5.42938C27.7961 5.93198 27.3915 6.48298 27.0387 7.0743L22.624 12.6346C20.854 14.9514 19.0423 17.2681 17.2098 19.5849C15.3773 21.9017 13.5031 24.2185 11.5665 26.3268C9.98386 28.157 8.25547 29.6861 6.75615 31.5164C6.07658 32.3326 5.45682 33.2081 4.90281 34.1343C4.813 34.2893 4.7802 34.4768 4.81121 34.6579C4.84222 34.8391 4.93467 35 5.06941 35.1074C5.21117 35.205 5.3814 35.2378 5.54443 35.199C5.70746 35.1601 5.85065 35.0526 5.94401 34.8989C6.66893 33.7976 7.49221 32.7807 8.40124 31.8639C9.79645 30.4043 11.2958 29.1301 12.7326 27.6242C14.815 25.4927 16.7308 23.3381 18.6883 21.114C20.6457 18.8899 22.5199 16.6426 24.3732 14.3258C24.3732 14.3258 29.7666 7.49132 29.725 7.49132C29.6833 7.49132 35.7639 14.2332 35.7639 14.2332C38.7834 17.523 41.8862 20.6507 44.8432 23.9868L44.9681 24.149C45.6761 24.9135 46.3633 25.6781 47.0505 26.4658C49.4381 29.2535 51.5919 32.2779 53.4851 35.5012C53.5846 35.6794 53.7435 35.8064 53.9271 35.8542C54.1106 35.902 54.3037 35.8667 54.4639 35.7561C54.624 35.6455 54.7381 35.4686 54.7811 35.2644C54.8241 35.0602 54.7923 34.8454 54.6929 34.6672H54.7762ZM38.117 13.0284V10.9202C38.117 10.1788 38.117 10.1093 38.3253 9.94711L39.5123 9.69226C40.0532 9.65753 40.5956 9.65753 41.1365 9.69226C41.9753 9.74812 42.81 9.8642 43.6354 10.0398L44.3642 10.2251C44.5605 10.6234 44.6677 11.0684 44.6766 11.5225C44.7288 12.4406 44.7288 13.3614 44.6766 14.2795V19.8166V20.6275C42.2818 18.079 40.1994 15.5769 37.9296 13.0284H38.117Z" fill="black"/>
<path d="M28.6209 26.6512C29.1669 26.8163 29.7374 26.8559 30.2976 26.7676C30.8578 26.6793 31.396 26.4649 31.8792 26.1375C32.3625 25.8101 32.7808 25.3766 33.1085 24.8635C33.4362 24.3503 33.6664 23.7683 33.7853 23.1528C34.7015 19.3996 31.8694 16.2025 27.5381 18.0559C26.6697 18.4656 25.9406 19.1714 25.4557 20.0715C25.1287 20.7263 24.9711 21.4691 25.0005 22.2175C25.03 22.9659 25.2452 23.6906 25.6223 24.3112C26.3226 25.482 27.3929 26.3172 28.6209 26.6512ZM27.2882 21.0677C27.5896 20.3547 28.1267 19.7987 28.7875 19.5155C30.8699 18.4729 32.7024 20.0947 31.8903 22.4809C31.8147 22.7862 31.6838 23.071 31.5055 23.3177C31.3272 23.5644 31.1053 23.7679 30.8536 23.9155C30.6019 24.0631 30.3256 24.1518 30.0419 24.176C29.7582 24.2003 29.473 24.1595 29.204 24.0564C28.591 23.8536 28.0608 23.4193 27.7047 22.8285C27.4976 22.6051 27.3494 22.3229 27.276 22.0126C27.2026 21.7023 27.2068 21.3756 27.2882 21.0677Z" fill="black"/>
<path d="M47.7586 34.8756V30.2421C47.7586 30.0331 47.684 29.8328 47.5513 29.6851C47.4185 29.5373 47.2384 29.4543 47.0506 29.4543C46.8628 29.4543 46.6828 29.5373 46.55 29.6851C46.4172 29.8328 46.3426 30.0331 46.3426 30.2421V34.8756C46.1968 38.513 45.8845 42.1503 45.822 45.7645C45.903 47.2227 45.903 48.685 45.822 50.1432C45.7717 50.9319 45.5187 51.6878 45.0932 52.321C44.9058 52.5527 44.5101 52.321 44.1353 52.321C43.4272 52.321 42.6984 52.1588 42.2819 52.1357C40.8243 52.1357 32.9111 51.5101 31.7242 51.5101H28.4756H28.309H25.6019H24.1443C22.7699 51.5101 21.3747 51.6723 19.9795 51.8576C18.9591 51.9967 17.7305 52.321 16.5643 52.3905C15.9544 52.449 15.3406 52.3458 14.7735 52.0893C14.4611 51.9272 14.357 51.4638 14.2529 51.0004C14.0818 49.9291 13.9844 48.8448 13.9613 47.7569C13.7739 45.4402 13.649 43.2855 13.5657 41.0614C13.5657 37.6789 13.4407 34.3196 13.4199 30.9371C13.4227 30.8458 13.4093 30.7548 13.3804 30.6693C13.3516 30.5838 13.3078 30.5054 13.2518 30.4387C13.1957 30.372 13.1283 30.3183 13.0536 30.2806C12.9788 30.2428 12.8981 30.2219 12.816 30.2189C12.7322 30.2158 12.6488 30.2315 12.5705 30.265C12.4923 30.2985 12.421 30.3492 12.3607 30.4141C12.3005 30.4789 12.2526 30.5566 12.2199 30.6425C12.1872 30.7284 12.1704 30.8207 12.1705 30.9139C12.0664 34.3196 11.9622 37.7021 11.9414 41.0846C11.9414 43.4014 11.9414 45.7182 12.0872 47.9191C12.0578 49.3351 12.1766 50.7502 12.4412 52.1357C12.6388 52.9908 13.133 53.724 13.8156 54.1744C14.4661 54.5327 15.1737 54.7453 15.898 54.8C17.3348 54.7897 18.7688 54.658 20.1877 54.4061C21.687 54.2439 23.2072 54.1744 24.7481 54.1281H31.6825L42.0945 54.5451C43.0435 54.6414 43.9984 54.6414 44.9474 54.5451C45.5922 54.4746 46.1918 54.1451 46.6341 53.6184C47.1568 52.8686 47.5006 51.984 47.6337 51.0468C47.788 49.2205 47.788 47.3822 47.6337 45.556C47.5504 42.1272 47.717 38.4898 47.7586 34.8756Z" fill="black"/>
<path d="M25.102 50.4675C25.102 49.2627 24.8105 47.9885 24.8938 46.7143C25.0219 44.6954 25.6018 42.7442 26.5805 41.0382C26.924 40.4457 27.4005 39.9631 27.9629 39.638C28.5253 39.313 29.1541 39.1568 29.7874 39.1847C30.4477 39.1687 31.1031 39.3139 31.7076 39.6101C32.312 39.9063 32.8507 40.3463 33.2858 40.8992C34.2214 42.0938 34.7967 43.5846 34.9309 45.162C35.0633 46.9187 35.112 48.6819 35.0767 50.4443C35.0767 51.1162 36.3678 51.4869 36.6385 50.4443C36.8877 48.0971 36.8877 45.7254 36.6385 43.3781C36.4076 41.8471 35.8348 40.4052 34.9726 39.1847C34.341 38.3343 33.5493 37.6486 32.6533 37.1762C31.7573 36.7038 30.7789 36.4562 29.7874 36.4509C28.7567 36.4501 27.7437 36.7489 26.8488 37.3178C25.9538 37.8868 25.2081 38.706 24.6855 39.6944C23.6798 41.8389 23.1648 44.2261 23.1862 46.6448C23.1986 47.9702 23.3738 49.2875 23.7068 50.5601C23.9567 51.232 25.0395 51.232 25.102 50.4675Z" fill="black"/>
</svg>
