<svg width="60" height="60" viewBox="0 0 60 60" fill="none" xmlns="http://www.w3.org/2000/svg">
<g clip-path="url(#clip0_118_3390)">
<path fill-rule="evenodd" clip-rule="evenodd" d="M35.8004 25.3501C36.7022 23.9702 37.2394 22.3842 37.3618 20.7403C37.4842 19.0964 37.1879 17.4483 36.5004 15.9501C35.8469 14.4567 34.884 13.1189 33.6754 12.0251C32.4727 10.9485 31.0832 10.1012 29.5754 9.52508C29.3858 9.45702 29.1775 9.46298 28.9922 9.54176C28.8068 9.62055 28.658 9.76636 28.5754 9.95008C28.5392 10.0453 28.5222 10.1467 28.5252 10.2485C28.5283 10.3503 28.5513 10.4505 28.5931 10.5433C28.6349 10.6362 28.6946 10.7199 28.7688 10.7897C28.843 10.8595 28.9301 10.914 29.0254 10.9501C30.3171 11.4931 31.4958 12.2732 32.5004 13.2501C33.5661 14.1927 34.4184 15.3518 35.0004 16.6501C35.5007 17.8682 35.6895 19.1919 35.5498 20.5014C35.4102 21.8108 34.9464 23.0648 34.2004 24.1501C33.4351 25.2711 32.4435 26.2195 31.2896 26.9342C30.1357 27.6489 28.8449 28.1142 27.5004 28.3001H27.1004C26.8725 28.3308 26.6587 28.4278 26.4854 28.5788C26.3121 28.7299 26.1869 28.9285 26.1254 29.1501C24.6254 34.1501 22.3504 42.6251 20.8254 47.8501C20.4757 49.2472 20.05 50.6243 19.5504 51.9751C19.3004 52.3001 16.9004 54.6501 15.3004 56.1501C14.7639 54.16 14.3465 52.1398 14.0504 50.1001C14.0083 49.8093 13.8773 49.5386 13.6754 49.3251C13.6754 49.3251 11.9254 47.5251 10.6004 46.1001C11.8504 45.6751 13.5254 44.5501 14.2754 44.2501C14.5577 44.1605 14.8175 44.0115 15.0374 43.8131C15.2573 43.6148 15.4322 43.3716 15.5504 43.1001C15.6505 42.6409 15.6192 42.1628 15.46 41.7206C15.3008 41.2784 15.0202 40.8901 14.6504 40.6001C13.9504 39.9251 12.1504 39.0251 11.3754 38.3501L12.0754 38.0001C13.3754 37.4501 15.2004 36.9001 16.1754 36.6001C16.4245 36.5294 16.6671 36.4374 16.9004 36.3251C17.1134 36.213 17.2859 36.0369 17.3935 35.8216C17.5012 35.6064 17.5385 35.3627 17.5004 35.1251L19.5254 28.1251C19.5874 27.9069 19.577 27.6745 19.4959 27.4627C19.4148 27.2509 19.2672 27.0711 19.0754 26.9501C18.4347 26.5571 17.8321 26.1051 17.2754 25.6001C16.7028 25.0903 16.1602 24.5477 15.6504 23.9751L14.7004 22.6751C14.4224 22.104 14.2207 21.4988 14.1004 20.8751C13.9659 20.208 13.8906 19.5304 13.8754 18.8501V17.5501C13.8754 17.1251 14.0504 16.7001 14.1504 16.3001C14.2218 16.0812 14.2042 15.8431 14.1012 15.6372C13.9983 15.4312 13.8183 15.2742 13.6004 15.2001C13.3784 15.1425 13.1429 15.1694 12.9396 15.2757C12.7364 15.3819 12.5798 15.5599 12.5004 15.7751C12.3428 16.2646 12.2257 16.7663 12.1504 17.2751C12.0486 17.7854 11.9984 18.3047 12.0004 18.8251C11.976 19.6621 12.0346 20.4996 12.1754 21.3251C12.312 22.1514 12.5734 22.9522 12.9504 23.7001C12.9504 23.7001 12.9504 23.7001 12.9504 23.8251L13.9504 25.2751C14.4899 25.9396 15.0746 26.5661 15.7004 27.1501C16.2688 27.566 16.8709 27.934 17.5004 28.2501C16.8504 30.4001 15.9754 33.0501 15.6254 34.3501V34.5501C13.9266 34.9976 12.2569 35.5486 10.6254 36.2001C10.2582 36.3392 9.92406 36.5533 9.64427 36.8288C9.36448 37.1043 9.14518 37.4351 9.00039 37.8001C8.97455 38.2242 9.05205 38.6482 9.22624 39.0358C9.40042 39.4234 9.66608 39.7628 10.0004 40.0251C10.6004 40.6001 12.0504 41.4251 12.8254 42.0501C11.6754 42.4251 9.85039 42.8251 8.70039 43.2751C7.55039 43.7251 6.77539 44.7501 6.77539 45.3501C6.8853 45.8939 7.14508 46.3961 7.52539 46.8001C8.45039 47.8501 10.6004 50.1501 11.4004 51.0251C11.6818 53.2073 12.0993 55.3699 12.6504 57.5001C12.7591 58.0227 12.9782 58.516 13.2929 58.9472C13.6076 59.3783 14.0108 59.7373 14.4754 60.0001C14.7064 60.0614 14.9484 60.0685 15.1826 60.0208C15.4168 59.9731 15.6368 59.8719 15.8254 59.7251L16.4754 59.1501C17.9754 57.7751 21.4754 54.1501 21.8754 53.8001C22.5987 52.1909 23.1679 50.5167 23.5754 48.8001C24.9254 43.8001 26.8254 35.8501 28.2004 30.7001C29.7588 30.3572 31.2334 29.7075 32.5382 28.789C33.843 27.8705 34.9519 26.7015 35.8004 25.3501Z" fill="black"/>
<path fill-rule="evenodd" clip-rule="evenodd" d="M51.7253 44.5751C49.8253 39.7251 46.5753 32.2251 44.5753 27.2501C45.6115 26.0688 46.4034 24.6941 46.9054 23.2051C47.4075 21.7162 47.6097 20.1426 47.5003 18.5751C47.4028 16.9463 46.8927 15.369 46.0181 13.9914C45.1435 12.6139 43.933 11.4813 42.5003 10.7001C42.414 10.6468 42.3177 10.6116 42.2174 10.5966C42.117 10.5816 42.0146 10.5871 41.9165 10.6128C41.8183 10.6386 41.7264 10.6839 41.6463 10.7462C41.5661 10.8085 41.4995 10.8863 41.4503 10.9751C41.3558 11.1527 41.3316 11.3593 41.3825 11.5539C41.4335 11.7485 41.5559 11.9167 41.7253 12.0251C42.8845 12.7135 43.8502 13.6846 44.5323 14.8476C45.2143 16.0105 45.5904 17.3274 45.6253 18.6751C45.6619 20.0234 45.4211 21.3648 44.9179 22.6162C44.4148 23.8676 43.66 25.0024 42.7003 25.9501L42.4253 26.2251C42.27 26.3729 42.1612 26.5628 42.1123 26.7715C42.0635 26.9803 42.0767 27.1988 42.1503 27.4001C43.9503 32.4001 47.1503 40.5001 48.9503 45.6001C49.5128 46.9348 49.9887 48.3043 50.3753 49.7001C50.3753 50.1001 49.8253 53.4251 49.4503 55.5751C47.8898 54.2947 46.404 52.9258 45.0003 51.4751C44.8061 51.2565 44.5401 51.1147 44.2503 51.0751C44.2503 51.0751 40.4003 50.4751 38.5753 50.1001C39.2253 49.0251 41.2003 47.3251 41.6503 46.5501C41.8106 46.3244 41.9222 46.0678 41.9781 45.7967C42.0341 45.5256 42.0331 45.2458 41.9753 44.9751C41.7764 44.5893 41.4805 44.262 41.1167 44.0252C40.7528 43.7885 40.3337 43.6506 39.9003 43.6251C38.8503 43.5001 37.4003 43.6251 36.1753 43.4501H35.8253L36.1753 42.9251C36.9003 41.6751 38.0503 40.1501 38.6753 39.3501L39.1003 38.7001C39.187 38.4901 39.1996 38.2568 39.1359 38.0387C39.0723 37.8206 38.9363 37.6306 38.7503 37.5001L35.9003 30.4501C35.8165 30.2354 35.6513 30.0624 35.4407 29.9688C35.23 29.8752 34.9909 29.8685 34.7753 29.9501C34.6699 29.989 34.5733 30.0484 34.491 30.1249C34.4087 30.2014 34.3424 30.2935 34.2959 30.3958C34.2494 30.4981 34.2236 30.6086 34.2201 30.7209C34.2166 30.8332 34.2353 30.9451 34.2753 31.0501C34.9503 32.9251 35.9003 35.5251 36.5503 37.1501C36.7003 37.5501 36.8503 37.9001 36.9753 38.1751C36.5003 38.8251 35.5503 40.0001 34.7753 41.1001C34.2717 41.7852 33.8599 42.5332 33.5503 43.3251C33.3725 43.7575 33.3725 44.2427 33.5503 44.6751C33.7749 45.0075 34.0761 45.2809 34.4285 45.4724C34.781 45.6638 35.1743 45.7676 35.5753 45.7751C36.4003 45.7751 37.7253 46.3501 38.6753 46.5001C37.9094 47.4119 37.1917 48.3632 36.5253 49.3501C36.2235 49.729 36.0313 50.1833 35.9696 50.6637C35.9079 51.1441 35.9791 51.6323 36.1753 52.0751C36.5848 52.4182 37.0755 52.6506 37.6003 52.7501C38.9753 53.0751 42.0753 53.6751 43.2253 53.8751C44.7946 55.4644 46.4648 56.9508 48.2253 58.3251C48.6233 58.6602 49.0867 58.9088 49.5859 59.0552C50.0852 59.2015 50.6094 59.2423 51.1253 59.1751C51.3479 59.0912 51.5465 58.9538 51.7034 58.775C51.8604 58.5963 51.9709 58.3817 52.0253 58.1501C52.1118 57.8718 52.1787 57.5878 52.2253 57.3001C52.6253 55.3001 53.3753 50.3001 53.3753 49.8001C53.0079 48.006 52.4549 46.2549 51.7253 44.5751Z" fill="black"/>
<path fill-rule="evenodd" clip-rule="evenodd" d="M23.0508 18.4251C23.23 18.5238 23.4409 18.5476 23.6376 18.4914C23.8343 18.4352 24.0008 18.3035 24.1008 18.1251C24.1482 18.0367 24.1774 17.9398 24.1866 17.84C24.1959 17.7402 24.1851 17.6395 24.1548 17.5439C24.1245 17.4484 24.0753 17.3599 24.0102 17.2836C23.9451 17.2074 23.8654 17.145 23.7758 17.1001C22.8741 16.6775 22.0718 16.0694 21.4213 15.3155C20.7708 14.5616 20.2867 13.6789 20.0008 12.7251C19.8234 10.7784 20.3367 8.83131 21.4508 7.22507C22.6379 5.2861 24.5275 3.88008 26.7258 3.30007C28.8978 2.46197 31.3039 2.46197 33.4758 3.30007C34.634 3.78409 35.6869 4.48886 36.5758 5.37507C37.4017 6.23085 37.8825 7.36152 37.9258 8.55007C37.9044 8.67563 37.9106 8.80436 37.944 8.92727C37.9775 9.05017 38.0374 9.16429 38.1195 9.26165C38.2017 9.35902 38.3041 9.43727 38.4196 9.49095C38.5351 9.54463 38.6609 9.57244 38.7883 9.57244C38.9157 9.57244 39.0415 9.54463 39.157 9.49095C39.2726 9.43727 39.375 9.35902 39.4571 9.26165C39.5392 9.16429 39.5991 9.05017 39.6326 8.92727C39.666 8.80436 39.6723 8.67563 39.6508 8.55007C39.6912 7.30231 39.3699 6.06949 38.7258 5.00007C37.6953 3.40406 36.2758 2.09639 34.6008 1.20007C31.9041 -0.134341 28.7964 -0.376152 25.9258 0.525069C24.4608 0.920914 23.0916 1.61034 21.9011 2.55151C20.7107 3.49267 19.724 4.66593 19.0008 6.00007C17.7881 8.22956 17.424 10.8228 17.9758 13.3001C18.4017 14.47 19.0758 15.5338 19.9519 16.4185C20.8279 17.3032 21.8851 17.9877 23.0508 18.4251Z" fill="black"/>
<path fill-rule="evenodd" clip-rule="evenodd" d="M27.5 19.7C27.0547 20.2264 26.4762 20.6236 25.825 20.85C25.1595 21.1887 24.4216 21.3603 23.675 21.35C23.1723 21.3274 22.6825 21.1838 22.2473 20.9314C21.812 20.6789 21.4442 20.3251 21.175 19.9C21.0745 19.7219 20.9114 19.5875 20.7174 19.5228C20.5234 19.4581 20.3123 19.4678 20.125 19.55C20.0354 19.5949 19.9556 19.6573 19.8906 19.7336C19.8255 19.8098 19.7763 19.8983 19.746 19.9939C19.7157 20.0894 19.7049 20.1901 19.7142 20.2899C19.7234 20.3897 19.7526 20.4867 19.8 20.575C20.1626 21.5147 20.8005 22.3229 21.6302 22.8939C22.46 23.4649 23.4428 23.772 24.45 23.775C25.6327 23.8384 26.812 23.5974 27.875 23.075C28.6299 22.6951 29.2947 22.1581 29.825 21.5C30.5197 20.5568 30.9433 19.4416 31.05 18.275C31.1212 17.1275 30.8422 15.9854 30.25 15C29.87 14.3326 29.3173 13.7799 28.65 13.4C28.043 13.0177 27.3609 12.7704 26.65 12.675C26.5382 12.6535 26.4232 12.6546 26.3119 12.6784C26.2005 12.7021 26.0951 12.748 26.0018 12.8133C25.9085 12.8786 25.8293 12.962 25.7689 13.0585C25.7085 13.1549 25.668 13.2626 25.65 13.375C25.614 13.6037 25.67 13.8373 25.8059 14.0248C25.9418 14.2122 26.1464 14.3381 26.375 14.375C26.7876 14.5069 27.17 14.7193 27.5 15C27.812 15.2504 28.0532 15.5778 28.2 15.95C28.4509 16.5856 28.5117 17.2805 28.375 17.95C28.2422 18.6001 27.9404 19.2037 27.5 19.7Z" fill="black"/>
</g>
<defs>
<clipPath id="clip0_118_3390">
<rect width="60" height="60" fill="white"/>
</clipPath>
</defs>
</svg>
