<svg width="60" height="60" viewBox="0 0 60 60" fill="none" xmlns="http://www.w3.org/2000/svg">
<g clip-path="url(#clip0_165_7345)">
<path fill-rule="evenodd" clip-rule="evenodd" d="M27.9122 48.9287C29.0975 49.7064 30.4427 50.2077 31.848 50.3954C33.3032 50.6489 34.8002 50.4967 36.1747 49.9554C37.6122 49.2549 38.799 48.1282 39.5727 46.7287C40.6085 44.8324 41.2017 42.7264 41.3082 40.5684C41.3967 39.5984 41.3055 38.6207 41.0395 37.6837C40.843 37.1077 40.4765 36.6049 39.9882 36.2414C39.7192 36.0554 39.4087 35.9379 39.0837 35.8992C38.5467 35.8604 38.0075 35.8604 37.4705 35.8992L31.9702 36.0214C30.6257 36.0214 29.3055 36.0214 27.9855 36.1927C27.0845 36.2407 26.1867 36.3387 25.2965 36.4859C25.0757 36.5154 24.879 36.6407 24.7587 36.8282H24.5387C24.0757 36.8672 23.7282 37.2687 23.7565 37.7327C23.8185 40.0887 24.2052 42.4249 24.9055 44.6752C25.45 46.3667 26.4992 47.8512 27.9122 48.9287ZM25.4677 37.9772H27.9122C29.2322 37.9772 30.5277 37.9772 31.848 38.1239L37.226 38.4417C37.645 38.4547 38.062 38.5039 38.4727 38.5882C38.4847 38.7347 38.4847 38.8819 38.4727 39.0284C38.5232 39.5242 38.5232 40.0237 38.4727 40.5194C38.3662 41.9552 38.0105 43.3614 37.4215 44.6752C36.9555 45.8849 36.094 46.9017 34.977 47.5597C34.0895 47.9314 33.1165 48.0499 32.1657 47.9019C31.1452 47.8504 30.1502 47.5662 29.2567 47.0709C28.1555 46.3614 27.3015 45.3282 26.8122 44.1129C26.069 42.1437 25.616 40.0767 25.4677 37.9772Z" fill="black"/>
<path fill-rule="evenodd" clip-rule="evenodd" d="M39.5731 17.2962C39.5731 17.2962 39.8419 17.6874 39.9886 17.8829C41.1476 19.5152 42.1696 21.2404 43.0444 23.0409C44.2406 25.1767 45.2154 27.4292 45.9534 29.7634C46.1949 31.4632 46.2686 33.1827 46.1734 34.8969C46.0021 37.5617 45.5376 40.1772 45.2444 42.9397C45.0149 44.6692 44.5884 46.3669 43.9731 47.9997C43.4129 49.6167 42.5866 51.1284 41.5286 52.4734C40.2729 53.8634 38.6569 54.8787 36.8596 55.4067C34.9616 56.0334 32.9886 56.4034 30.9926 56.5069C28.2036 56.5487 25.5094 55.4954 23.4879 53.5734C21.3131 51.6287 19.5864 49.2349 18.4276 46.5574C18.0821 45.7064 17.7961 44.8324 17.5721 43.9419C17.2054 42.5239 16.9121 41.0817 16.6189 39.6639C16.2031 37.8304 15.8121 35.7527 15.5431 33.8704C15.3006 32.5962 15.1616 31.3044 15.1276 30.0079C15.6951 28.2187 16.4574 26.4972 17.4011 24.8744C18.2414 23.0964 19.2744 21.4159 20.4811 19.8629C20.9139 19.3832 20.6649 18.6147 20.0331 18.4799C19.7396 18.4172 19.4354 18.5159 19.2344 18.7384C17.9026 20.3722 16.7474 22.1422 15.7876 24.0187C14.7249 25.9047 13.9036 27.9169 13.3431 30.0079C13.3074 30.6184 13.3074 31.2307 13.3431 31.8414C11.4119 32.5257 9.92061 34.4814 8.03836 35.3369C7.38886 35.6454 6.64686 35.6977 5.96061 35.4837C5.56611 35.3227 5.22061 35.0614 4.95811 34.7259C4.59361 34.3234 4.28911 33.8707 4.05386 33.3814C3.26561 32.0212 3.13086 30.3784 3.68711 28.9079C4.79536 26.4287 6.31636 24.1557 8.18511 22.1854C8.73811 21.5594 9.26011 20.9067 9.74961 20.2297C10.0966 19.7314 10.4071 19.2084 10.6786 18.6652C11.4129 17.1032 11.3491 15.2829 10.5074 13.7762C9.57511 12.1279 7.54136 11.4604 5.81386 12.2362C5.49461 12.3824 5.30686 12.7187 5.34936 13.0672C5.48936 13.5074 5.96161 13.7489 6.40061 13.6049C7.33311 13.2442 8.38761 13.6449 8.84511 14.5339C9.33186 15.4599 9.33186 16.5659 8.84511 17.4919C8.59661 17.9237 8.31011 18.3327 7.98936 18.7142C7.50061 19.3497 6.93836 19.9364 6.40061 20.5474C4.18686 22.6479 2.37286 25.1327 1.04686 27.8812C0.249109 30.1189 0.528609 32.5997 1.80486 34.6037C2.28836 35.3844 2.89061 36.0854 3.58936 36.6814C4.13111 37.1457 4.77686 37.4727 5.47161 37.6349C6.68161 37.9037 7.94861 37.7027 9.01611 37.0727C10.6541 36.1437 11.8764 34.2369 13.5141 33.3324V34.0414C13.7341 35.9727 14.1009 38.1239 14.4676 40.0307C14.7609 41.4729 15.0054 42.9639 15.3721 44.4064C15.6039 45.4229 15.9144 46.4202 16.3009 47.3887C17.7141 51.1469 20.1429 54.4389 23.3169 56.8979C25.5754 58.5324 28.3029 59.3902 31.0904 59.3424C33.8071 59.2329 36.4851 58.6624 39.0109 57.6557C40.7964 56.9684 42.3956 55.8717 43.6799 54.4534C44.9361 52.8582 45.9191 51.0657 46.5889 49.1487C47.2829 47.2869 47.7586 45.3509 48.0066 43.3797C48.2511 40.5684 48.6911 37.8794 48.7889 35.1904C48.8536 33.7377 48.7964 32.2822 48.6179 30.8392C49.2054 30.5404 49.7694 30.1972 50.3046 29.8124C50.9311 29.3402 51.4689 28.7609 51.8936 28.1012C52.5046 27.1722 53.0181 26.1944 53.6291 25.2654C53.9816 24.7109 54.3914 24.1947 54.8514 23.7254L55.8291 22.9432C55.9174 22.9204 56.0099 22.9204 56.0981 22.9432C56.1864 22.9659 56.0981 23.0899 56.0981 23.1877C56.1751 23.4339 56.2241 23.6882 56.2449 23.9454C56.3489 24.6177 56.3489 25.3022 56.2449 25.9744L53.8004 36.3637C53.4814 37.6139 53.6384 38.9382 54.2404 40.0794C54.7936 40.9107 55.6911 41.4492 56.6849 41.5462C57.1459 41.6514 57.6016 41.3512 57.6871 40.8862C57.7766 40.4334 57.4804 39.9944 57.0271 39.9084C56.4349 39.8112 55.9506 39.3837 55.7804 38.8082C55.6281 38.1094 55.6704 37.3824 55.9026 36.7059C56.5871 34.2614 57.5404 31.9879 58.3471 29.6167C58.6893 28.5737 58.9826 27.4981 59.2271 26.3899C59.6214 24.5589 59.3344 22.6469 58.4204 21.0119C57.6414 19.9072 56.1534 19.5694 54.9736 20.2297C54.5769 20.3689 54.2114 20.5849 53.8981 20.8654C53.5631 21.1749 53.2526 21.5099 52.9691 21.8677C52.5606 22.3529 52.2006 22.8769 51.8936 23.4322C51.2581 24.5567 50.8179 25.8767 50.2069 26.9767C49.9429 27.4794 49.5959 27.9342 49.1801 28.3212C48.9356 28.5412 48.6424 28.7367 48.3734 28.9567C47.0679 25.5452 45.4304 22.2699 43.4844 19.1787C42.7319 17.8537 41.7934 16.6437 40.6976 15.5852C40.3664 15.3659 39.9654 15.2787 39.5731 15.3407H38.7664C38.8971 12.8602 38.5824 10.3764 37.8374 8.00691C37.2806 6.16441 36.2821 4.48616 34.9284 3.11791C34.5546 2.74466 34.1454 2.40891 33.7061 2.11566C33.2539 1.77841 32.7611 1.49916 32.2394 1.28441C31.8319 1.13641 31.4156 1.01391 30.9926 0.917662C30.5521 0.798412 30.1024 0.716662 29.6481 0.673412C27.5689 0.513162 25.5541 1.43741 24.3191 3.11791C22.8669 5.37966 22.1496 8.03516 22.2656 10.7204C22.2656 11.8939 22.2656 13.1649 22.4614 14.3139C22.5261 15.1397 22.6654 15.9577 22.8769 16.7584C22.1434 16.7584 21.4591 16.9784 20.8969 17.1007C20.5001 17.1739 20.2444 17.5632 20.3346 17.9562C20.4086 18.3547 20.7919 18.6174 21.1901 18.5429C22.8769 18.2497 25.6146 17.9562 28.5239 17.7362C33.8529 17.4674 39.0599 17.2962 39.5731 17.2962ZM28.3526 16.1962C26.8859 16.3429 25.4924 16.5139 24.2214 16.6852C24.1066 15.9489 24.0414 15.2057 24.0256 14.4607C24.0256 13.3117 24.0256 12.0162 24.2214 10.9894C24.3419 9.18066 24.8771 7.42416 25.7859 5.85591C26.4401 4.47666 27.8539 3.62091 29.3794 3.68016L31.2616 4.04691C31.5916 4.15691 31.9044 4.31316 32.1906 4.51141C32.5276 4.71141 32.8466 4.94041 33.1439 5.19566C34.5934 6.49991 35.6301 8.19916 36.1261 10.0849C36.6886 11.7854 37.0256 13.5524 37.1286 15.3407C34.6839 15.6094 31.4571 15.8784 28.4259 16.1962H28.3526Z" fill="black"/>
</g>
<defs>
<clipPath id="clip0_165_7345">
<rect width="60" height="60" fill="white"/>
</clipPath>
</defs>
</svg>
