<svg width="60" height="60" viewBox="0 0 60 60" fill="none" xmlns="http://www.w3.org/2000/svg">
<g clip-path="url(#clip0_166_4900)">
<path fill-rule="evenodd" clip-rule="evenodd" d="M29.1 35.775C28.9407 35.6162 28.7249 35.5271 28.5 35.5271C28.2751 35.5271 28.0593 35.6162 27.9 35.775C27.225 36.4 28.2 38.275 27.525 39.6C26.45 41.7 24.35 46.8 22 51.1C18.2 58.025 16.85 58.175 11.725 56.1C8.62344 54.8776 5.67785 53.2915 2.95 51.375C2.1 50.65 2.5 48.6 2.625 47.5C5 50.25 14.85 55 17.5 53.275C18.775 52.475 25.95 37.075 26.475 35.9C26.5504 35.7225 26.5545 35.5229 26.4865 35.3425C26.4186 35.1621 26.2837 35.0147 26.11 34.9311C25.9363 34.8475 25.7371 34.8339 25.5537 34.8933C25.3702 34.9527 25.2167 35.0804 25.125 35.25C23.3 38.825 18.425 47.75 16.425 50.825C15.875 51.65 16.425 51.275 15.25 51.025C11.8877 50.0629 8.70438 48.5599 5.825 46.575C4.45 45.55 3.325 47.15 9.875 34.85C11.0239 32.5011 12.3793 30.259 13.925 28.15C14.1913 28.1698 14.4587 28.1698 14.725 28.15C13.725 30.975 13.975 31.55 16.525 33.3C18.0297 34.3897 19.7258 35.1869 21.525 35.65C23.2 35.425 24.025 34.05 25.2 33.325C25.401 33.4627 25.593 33.613 25.775 33.775C25.9399 33.9166 26.1528 33.9896 26.3698 33.9791C26.5869 33.9686 26.7917 33.8754 26.9422 33.7185C27.0926 33.5617 27.1773 33.3531 27.1787 33.1358C27.1802 32.9185 27.0983 32.7088 26.95 32.55C24.65 30.25 15.175 24.275 12.575 26.175C10.1901 28.9844 8.14279 32.0638 6.475 35.35C4.34148 39.176 2.51089 43.1632 1 47.275C0.633396 48.1751 0.491878 49.151 0.58772 50.1181C0.683562 51.0852 1.01387 52.0144 1.55 52.825C4.31987 55.1819 7.39824 57.15 10.7 58.675C13.1031 59.9773 15.9192 60.2912 18.55 59.55C23.725 57.05 27.375 44.55 29.225 40.375C29.7855 38.8841 29.7406 37.2332 29.1 35.775ZM23.725 32.275C20.375 34.125 21.95 33.55 16.225 30.625C16.5505 30.0563 16.7547 29.4264 16.825 28.775C19.2506 29.6755 21.5656 30.8498 23.725 32.275Z" fill="black"/>
<path fill-rule="evenodd" clip-rule="evenodd" d="M34.775 17.4998C33.275 16.6248 31.425 18.3248 32.75 19.7998C32.897 19.9917 33.0863 20.1471 33.303 20.254C33.5198 20.361 33.7583 20.4166 34 20.4166C34.2417 20.4166 34.4802 20.361 34.6969 20.254C34.9137 20.1471 35.1029 19.9917 35.25 19.7998C35.3947 19.6265 35.4983 19.4228 35.5533 19.2038C35.6083 18.9849 35.6131 18.7563 35.5675 18.5352C35.5218 18.3141 35.4268 18.1062 35.2896 17.9269C35.1524 17.7476 34.9765 17.6016 34.775 17.4998Z" fill="black"/>
<path fill-rule="evenodd" clip-rule="evenodd" d="M39.9997 17.3C38.4747 16.425 36.6247 18.125 37.9747 19.625C38.1246 19.8125 38.3148 19.964 38.5312 20.0681C38.7475 20.1722 38.9846 20.2262 39.2247 20.2262C39.4648 20.2262 39.7019 20.1722 39.9182 20.0681C40.1346 19.964 40.3248 19.8125 40.4747 19.625C40.6195 19.4495 40.7233 19.2438 40.7783 19.023C40.8333 18.8022 40.8382 18.5719 40.7927 18.349C40.7472 18.126 40.6523 17.9161 40.5151 17.7346C40.3779 17.5531 40.2018 17.4046 39.9997 17.3Z" fill="black"/>
<path fill-rule="evenodd" clip-rule="evenodd" d="M32.0253 8.37499C32.1817 8.55983 32.3787 8.70612 32.6008 8.80247C32.823 8.89883 33.0643 8.94266 33.3062 8.93057C33.548 8.91848 33.7838 8.85079 33.9953 8.73275C34.2067 8.61471 34.3881 8.44952 34.5253 8.24999C34.6549 8.08343 34.7479 7.89139 34.7982 7.68642C34.8485 7.48146 34.855 7.26819 34.8172 7.06055C34.7795 6.85291 34.6983 6.65557 34.5791 6.48143C34.4599 6.3073 34.3052 6.16028 34.1253 6.04999C33.817 5.77152 33.4107 5.62692 32.9957 5.64802C32.5808 5.66912 32.1913 5.85418 31.9128 6.16249C31.6343 6.47081 31.4897 6.87712 31.5108 7.29204C31.5319 7.70697 31.717 8.09652 32.0253 8.37499Z" fill="black"/>
<path fill-rule="evenodd" clip-rule="evenodd" d="M39.5501 8.07498C39.6765 7.90497 39.7667 7.71085 39.8152 7.50461C39.8636 7.29837 39.8693 7.08439 39.8318 6.87588C39.7943 6.66737 39.7145 6.46876 39.5972 6.29231C39.48 6.11586 39.3278 5.96531 39.1501 5.84998C37.6251 4.99998 35.7751 6.67498 37.1251 8.17498C37.2824 8.34344 37.4742 8.47595 37.6874 8.56341C37.9007 8.65088 38.1303 8.69124 38.3605 8.68175C38.5908 8.67225 38.8163 8.61312 39.0216 8.50839C39.227 8.40367 39.4072 8.25582 39.5501 8.07498Z" fill="black"/>
<path fill-rule="evenodd" clip-rule="evenodd" d="M56.7248 13.0499C60.3248 10.8749 60.3998 3.04988 56.2998 1.02488C52.1998 -1.00012 37.8998 0.274882 33.7998 0.449882C33.5743 0.449882 33.3581 0.539435 33.1987 0.698841C33.0393 0.858247 32.9498 1.07445 32.9498 1.29988C32.9498 1.52532 33.0393 1.74152 33.1987 1.90092C33.3581 2.06033 33.5743 2.14988 33.7998 2.14988C36.9998 2.14988 52.0998 1.72488 55.1998 3.32488C57.0498 4.24988 56.9498 7.94988 56.0498 9.74988C55.5498 10.7749 55.7498 10.7999 50.3748 11.1249C47.6998 11.2999 33.8998 11.9499 33.1998 11.9499C32.2772 12.0164 31.3506 11.8974 30.4748 11.5999C26.8498 9.84988 27.9748 2.42488 31.3498 2.54988C31.447 2.55666 31.5447 2.54374 31.6368 2.51192C31.729 2.48009 31.8138 2.43001 31.8861 2.36466C31.9585 2.29931 32.0169 2.22004 32.0579 2.13159C32.0989 2.04314 32.1216 1.94733 32.1248 1.84988C32.2498 0.149882 27.1248 0.799881 26.4748 6.52488C26.2396 7.76349 26.3483 9.04285 26.7891 10.224C27.2298 11.4052 27.9857 12.4431 28.9748 13.2249C25.3998 15.3499 24.7748 22.7499 29.1748 25.1499C30.0411 25.5489 30.9731 25.7861 31.9248 25.8499C33.9248 26.0499 53.0248 25.9749 55.8998 24.9499C59.6998 23.6249 60.4498 15.6749 56.7248 13.0499ZM55.7998 21.3999C55.2998 22.3999 55.4998 22.4249 50.1248 22.7749C46.9498 22.9749 33.4998 23.5999 32.9248 23.5999C32.0113 23.6393 31.098 23.5209 30.2248 23.2499C26.5748 21.4749 27.7248 14.0499 31.0748 14.1999C34.7748 14.4249 46.0748 14.1999 49.7748 14.0249C51.5574 14.0684 53.3214 14.3976 54.9998 14.9999C56.7998 15.8749 56.6998 19.5999 55.7998 21.3999Z" fill="black"/>
<path fill-rule="evenodd" clip-rule="evenodd" d="M7.84986 22.8748C8.12486 19.4748 11.8249 15.1248 14.2499 13.0498C15.7547 11.803 17.5852 11.0135 19.5249 10.7748C18.5999 12.4498 16.7249 15.7748 18.6499 15.7748C19.4999 15.7748 19.4249 15.4498 22.8999 10.7748C23.0929 10.5345 23.2605 10.2748 23.3999 9.99985C23.7749 8.84985 22.8249 7.89985 21.7749 7.49985C20.7249 7.09985 19.6249 6.79985 19.0999 6.52485C16.7749 5.49985 16.9249 5.47485 16.4499 5.42485C16.2616 5.39291 16.0681 5.42936 15.9044 5.52761C15.7407 5.62587 15.6175 5.77944 15.5571 5.96059C15.4967 6.14174 15.5031 6.33852 15.5751 6.51536C15.6472 6.6922 15.7801 6.83744 15.9499 6.92485C16.8698 7.72104 17.8475 8.44803 18.8749 9.09985C13.3999 8.59985 5.74986 15.5998 6.37486 22.9248C6.3589 23.0335 6.367 23.1444 6.3986 23.2496C6.4302 23.3548 6.48453 23.4518 6.55773 23.5337C6.63094 23.6155 6.72124 23.6804 6.82225 23.7235C6.92327 23.7667 7.03252 23.7871 7.14231 23.7834C7.25209 23.7797 7.35971 23.7519 7.45757 23.702C7.55543 23.6521 7.64113 23.5813 7.70862 23.4946C7.77612 23.408 7.82375 23.3075 7.84815 23.2004C7.87256 23.0933 7.87314 22.9822 7.84986 22.8748Z" fill="black"/>
<path fill-rule="evenodd" clip-rule="evenodd" d="M52.8747 29.3999C51.1497 29.3999 53.4747 32.3749 49.5247 38.3499C45.5747 44.3249 42.7747 43.6999 39.7247 43.8999C39.6026 43.8787 39.4774 43.8845 39.3578 43.9168C39.2381 43.9492 39.127 44.0073 39.0322 44.087C38.9374 44.1668 38.8612 44.2664 38.8089 44.3787C38.7566 44.4911 38.7295 44.6135 38.7295 44.7374C38.7295 44.8613 38.7566 44.9837 38.8089 45.0961C38.8612 45.2084 38.9374 45.308 39.0322 45.3878C39.127 45.4676 39.2381 45.5257 39.3578 45.558C39.4774 45.5903 39.6026 45.5961 39.7247 45.5749C41.2925 45.7885 42.882 45.7885 44.4497 45.5749C46.513 45.027 48.399 43.9537 49.9238 42.4596C51.4486 40.9655 52.5601 39.1016 53.1497 37.0499C53.7896 34.7829 53.9513 32.4077 53.6247 30.0749C53.6061 29.8893 53.5189 29.7172 53.3802 29.5924C53.2415 29.4676 53.0613 29.399 52.8747 29.3999Z" fill="black"/>
<path fill-rule="evenodd" clip-rule="evenodd" d="M38.3001 44.9998C38.3987 44.9154 38.4907 44.8235 38.5751 44.7248C40.0501 41.3498 41.2001 40.5498 41.0751 40.0248C41.0734 39.8915 41.0362 39.761 40.9674 39.6468C40.8985 39.5326 40.8004 39.4389 40.6833 39.3752C40.5661 39.3115 40.4341 39.2803 40.3008 39.2846C40.1676 39.2889 40.0379 39.3287 39.9251 39.3998C38.5725 40.6132 37.303 41.9162 36.1251 43.2998C35.4751 44.3498 34.5501 45.3998 35.5751 46.4498C36.1491 47.0135 36.7867 47.5084 37.4751 47.9248C38.0501 48.2748 42.4751 50.4248 42.8251 50.4248C42.9985 50.3817 43.1562 50.2905 43.2802 50.1618C43.4041 50.0331 43.4893 49.8721 43.5258 49.6971C43.5624 49.5222 43.5489 49.3406 43.4868 49.173C43.4248 49.0054 43.3167 48.8587 43.1751 48.7498C41.9501 47.4998 40.0001 46.3498 38.3001 44.9998Z" fill="black"/>
</g>
<defs>
<clipPath id="clip0_166_4900">
<rect width="60" height="60" fill="white"/>
</clipPath>
</defs>
</svg>
