<svg width="60" height="60" viewBox="0 0 60 60" fill="none" xmlns="http://www.w3.org/2000/svg">
<path fill-rule="evenodd" clip-rule="evenodd" d="M49.3431 30.9603C45.3583 30.3735 25.8261 31.2535 24.1638 31.2535C21.9638 31.2535 22.2081 31.938 21.7193 30.0068C21.6198 28.255 21.1001 26.5528 20.2036 25.0443C18.2236 23.0643 5.09607 25.0443 3.48257 28.5155C2.67607 30.2023 4.43607 34.3338 4.97382 36.0938C6.38807 41.9213 8.21807 47.64 10.4498 53.2058C10.6851 53.7233 11.3923 53.7923 11.7228 53.3298C11.8763 53.115 11.9036 52.835 11.7943 52.5948C9.76782 47.0783 8.13407 41.4253 6.90507 35.6783C6.16807 33.7033 5.69157 31.6405 5.48732 29.5423C6.26957 27.9778 13.2611 26.8288 15.2656 26.8533L18.6636 27C19.2503 27.8555 19.1036 31.889 20.5703 33.3803C22.0371 34.8715 30.9843 33.527 42.2293 33.8203C42.7183 33.8203 50.1498 33.307 51.1031 34.456C52.0563 35.605 50.4186 41.643 50.0521 42.9875C49.2208 46.1165 48.2431 53.0348 46.7273 55.6505C46.3363 56.335 46.4096 56.775 42.2538 57.1173C36.8513 57.5818 33.1843 56.9705 22.1838 57.1173L16.9278 56.8238C15.5833 56.8238 14.2633 56.1883 14.0433 57.3373C13.7256 59.1218 16.8791 58.315 35.8246 59.2928C39.4521 59.568 43.1003 59.3125 46.6541 58.535C49.9786 57.3128 50.9808 48.4145 52.3498 43.623C53.1811 40.7873 54.7946 34.896 53.0098 32.6225C52.0138 31.6653 50.7196 31.0785 49.3431 30.9603Z" fill="black"/>
<path fill-rule="evenodd" clip-rule="evenodd" d="M14.312 21.0596C14.63 22.1108 15.5588 22.0376 15.8278 21.4263C16.341 20.3018 15.4855 18.0528 15.4855 18.0038C15.4855 17.9548 14.6543 7.93232 15.51 5.26757C16.1455 3.33657 22.3548 3.38532 24.3838 3.36082C27.415 3.36082 44.625 3.99657 45.994 5.95207C46.385 6.53882 46.1895 7.44332 45.994 8.39682C45.483 14.2803 44.5188 20.1158 43.1093 25.8511C42.908 26.4583 43.4398 27.0558 44.0663 26.9266C44.414 26.8546 44.6778 26.5698 44.7228 26.2178C46.3605 20.4561 47.57 14.5813 48.3408 8.64107C48.7668 7.25882 48.6263 5.76382 47.9495 4.48532C46.605 2.30982 42.6205 2.08982 40.1513 1.69857C33.82 0.794073 21.768 -0.379177 15.8033 2.01632C13.212 3.04307 13.1633 4.94982 13.1143 7.54107C13.1843 12.0703 13.5845 16.5886 14.312 21.0596Z" fill="black"/>
<path fill-rule="evenodd" clip-rule="evenodd" d="M56.4323 13.628C55.346 12.1368 53.772 11.073 51.9833 10.6213C51.4448 10.4515 50.9245 10.9285 51.0468 11.4795C51.0893 11.6708 51.2063 11.837 51.372 11.9413C55.4055 14.2393 54.2565 15.046 53.621 16.4393C52.4313 19.915 50.968 23.2908 49.2453 26.5355C48.9253 27.0905 49.3263 27.784 49.967 27.7833C50.2645 27.783 50.539 27.6243 50.6875 27.3665C51.6898 25.5088 58.168 16.9773 56.4323 13.628Z" fill="black"/>
<path fill-rule="evenodd" clip-rule="evenodd" d="M41.0808 13.4816C41.7781 13.1979 41.9068 12.2659 41.3125 11.8039C41.3088 11.8009 41.3048 11.7979 41.3008 11.7949C40.8608 11.3791 39.7853 11.2569 36.6318 10.8169C33.2283 10.3459 29.7798 10.2966 26.3645 10.6704C22.3553 10.6704 22.1598 10.6704 21.4753 11.0126C21.0943 11.4034 21.279 12.0599 21.808 12.1944C21.8353 12.2014 21.863 12.2066 21.8908 12.2104L23.2843 12.4059C27.6318 13.2401 32.0718 13.4869 36.485 13.1394C36.656 13.1639 40.8853 13.5794 41.0808 13.4816Z" fill="black"/>
<path fill-rule="evenodd" clip-rule="evenodd" d="M39.9315 19.7397C38.4725 19.0414 36.8797 18.6662 35.2625 18.6397C32.7917 18.2262 30.2847 18.0704 27.782 18.1752C25.093 18.3707 20.6682 17.7107 21.2305 19.4709C21.3582 19.8559 21.7747 20.0642 22.1595 19.9352C23.4795 19.6174 23.9685 20.8642 35.0912 21.0109C36.4082 20.8154 37.7492 20.8567 39.0515 21.1332C39.5432 21.5427 40.2937 21.2662 40.4025 20.6357C40.4665 20.2649 40.2732 19.8974 39.9315 19.7397Z" fill="black"/>
<path fill-rule="evenodd" clip-rule="evenodd" d="M5.36466 15.3882C6.07091 17.0832 6.69116 18.813 7.22241 20.5707C7.27891 21.1352 7.92541 21.427 8.38616 21.0957C8.59991 20.9422 8.71541 20.686 8.68916 20.424C8.51291 17.8597 8.11191 15.3157 7.49141 12.8212C7.17366 11.3302 6.19566 10.3767 11.2317 8.64123C11.8449 8.45898 12.0312 7.68123 11.5667 7.24098C11.3729 7.05748 11.1029 6.97798 10.8404 7.02773C4.26466 7.93223 3.55566 10.3767 5.36466 15.3882Z" fill="black"/>
</svg>
