<svg width="60" height="60" viewBox="0 0 60 60" fill="none" xmlns="http://www.w3.org/2000/svg">
<g clip-path="url(#clip0_166_4901)">
<path fill-rule="evenodd" clip-rule="evenodd" d="M18.1249 10.0001C17.4112 9.4298 16.566 9.04721 15.6666 8.88716C14.7671 8.72711 13.8419 8.79469 12.9752 9.08373C12.1086 9.37277 11.328 9.87409 10.7047 10.542C10.0814 11.2099 9.63509 12.0232 9.40653 12.9078C9.17797 13.7923 9.17439 14.72 9.39611 15.6062C9.61783 16.4925 10.0578 17.3092 10.676 17.9819C11.2941 18.6547 12.0708 19.162 12.9352 19.4577C13.7996 19.7534 14.7242 19.8282 15.6249 19.6751C16.5406 19.5735 17.4103 19.2209 18.1382 18.6562C18.8661 18.0915 19.4239 17.3367 19.7499 16.4751C20.1016 15.715 20.2837 14.8875 20.2837 14.0501C20.2837 13.2126 20.1016 12.3851 19.7499 11.6251C19.3494 10.9586 18.7914 10.4006 18.1249 10.0001ZM17.0999 15.1501C16.9504 15.4821 16.713 15.7671 16.4134 15.9741C16.1138 16.1812 15.7634 16.3026 15.3999 16.3251C13.3999 16.5001 12.1999 15.6001 11.9999 14.3001C11.9999 13.8501 12.1749 8.57507 16.5499 11.5001C16.9762 11.7778 17.3077 12.179 17.4999 12.6501C17.6195 13.0707 17.6457 13.5125 17.5766 13.9443C17.5075 14.3762 17.3448 14.7877 17.0999 15.1501Z" fill="black"/>
<path fill-rule="evenodd" clip-rule="evenodd" d="M47.8749 10.0001C47.1612 9.4298 46.316 9.04721 45.4166 8.88716C44.5171 8.72711 43.5919 8.79469 42.7252 9.08373C41.8586 9.37277 41.078 9.87409 40.4547 10.542C39.8314 11.2099 39.3851 12.0232 39.1565 12.9078C38.928 13.7923 38.9244 14.72 39.1461 15.6062C39.3678 16.4925 39.8078 17.3092 40.426 17.9819C41.0441 18.6547 41.8208 19.162 42.6852 19.4577C43.5496 19.7534 44.4742 19.8282 45.3749 19.6751C46.2854 19.5932 47.1561 19.2632 47.8922 18.7211C48.6283 18.1789 49.2016 17.4453 49.5499 16.6001C49.9083 15.8419 50.0941 15.0137 50.0941 14.1751C50.0941 13.3365 49.9083 12.5083 49.5499 11.7501C49.162 11.0246 48.5827 10.4193 47.8749 10.0001ZM46.8499 15.2751C46.6918 15.6059 46.4489 15.8888 46.1459 16.0952C45.8429 16.3016 45.4906 16.4241 45.1249 16.4501C43.1249 16.6251 41.9499 15.7251 41.7499 14.4251C41.7499 13.9751 41.9249 8.70007 46.2999 11.6251C46.7237 11.8991 47.0481 12.3023 47.2249 12.7751C47.3237 13.176 47.3415 13.5926 47.2771 14.0004C47.2127 14.4082 47.0674 14.7991 46.8499 15.1501V15.2751Z" fill="black"/>
<path fill-rule="evenodd" clip-rule="evenodd" d="M18.1249 26.275C17.4112 25.7047 16.566 25.3221 15.6666 25.1621C14.7671 25.002 13.8419 25.0696 12.9752 25.3586C12.1086 25.6477 11.328 26.149 10.7047 26.8169C10.0814 27.4848 9.63509 28.2981 9.40653 29.1827C9.17797 30.0672 9.17439 30.9949 9.39611 31.8811C9.61783 32.7674 10.0578 33.5841 10.676 34.2568C11.2941 34.9296 12.0708 35.4369 12.9352 35.7326C13.7996 36.0283 14.7242 36.1031 15.6249 35.95C16.5266 35.8594 17.3867 35.5254 18.1133 34.9838C18.8399 34.4421 19.4056 33.7132 19.7499 32.875C20.1016 32.1149 20.2837 31.2874 20.2837 30.45C20.2837 29.6125 20.1016 28.785 19.7499 28.025C19.3661 27.3128 18.8068 26.7104 18.1249 26.275ZM17.0999 31.55C16.946 31.8788 16.7075 32.1609 16.4088 32.3674C16.1101 32.5738 15.7619 32.6972 15.3999 32.725C13.3999 32.9 12.1999 31.975 11.9999 30.7C11.2749 25.7 16.5749 26.625 17.4999 29.05C17.6195 29.4706 17.6457 29.9124 17.5766 30.3442C17.5075 30.7761 17.3448 31.1876 17.0999 31.55Z" fill="black"/>
<path fill-rule="evenodd" clip-rule="evenodd" d="M47.8749 26.275C47.1612 25.7047 46.316 25.3221 45.4166 25.1621C44.5171 25.002 43.5919 25.0696 42.7252 25.3586C41.8586 25.6477 41.078 26.149 40.4547 26.8169C39.8314 27.4848 39.3851 28.2981 39.1565 29.1827C38.928 30.0672 38.9244 30.9949 39.1461 31.8811C39.3678 32.7674 39.8078 33.5841 40.426 34.2568C41.0441 34.9296 41.8208 35.4369 42.6852 35.7326C43.5496 36.0283 44.4742 36.1031 45.3749 35.95C46.2854 35.8681 47.1561 35.5381 47.8922 34.996C48.6283 34.4538 49.2016 33.7202 49.5499 32.875C49.9083 32.1168 50.0941 31.2886 50.0941 30.45C50.0941 29.6114 49.9083 28.7832 49.5499 28.025C49.162 27.2995 48.5827 26.6942 47.8749 26.275ZM46.8499 31.55C46.6878 31.8777 46.4438 32.158 46.1416 32.3638C45.8394 32.5697 45.4892 32.6941 45.1249 32.725C43.1249 32.9 41.9499 31.975 41.7499 30.7C41.7499 30.25 41.9249 24.975 46.2999 27.9C46.7237 28.174 47.0481 28.5773 47.2249 29.05C47.3416 29.4696 47.3684 29.9092 47.3038 30.3399C47.2392 30.7707 47.0845 31.183 46.8499 31.55Z" fill="black"/>
<path fill-rule="evenodd" clip-rule="evenodd" d="M25.8748 2.12495C24.3198 0.724548 22.2921 -0.0347445 20.1998 -4.65643e-05C15.9748 -0.275047 10.3998 0.499953 8.52477 0.499953C1.74977 0.524953 3.99977 -2.07505 3.67477 13.3C3.67477 16.65 3.54977 19.975 3.49977 23.3V29.95C3.49977 31 2.89977 34.575 2.97477 37.275C2.86454 38.7077 3.24351 40.1355 4.04977 41.325C6.50926 43.1919 9.57272 44.0824 12.6498 43.825H13.3748C13.1998 45.1 13.0248 46.325 12.8998 47.675C12.8998 48.4583 12.8498 49.2333 12.7498 50V52.35C12.7498 53.8 12.9248 55.225 13.0248 56.65C12.1498 56.65 11.2748 56.65 10.5248 56.775C8.37477 56.975 6.24977 57.325 4.09977 57.55C3.87434 57.55 3.65814 57.6395 3.49873 57.7989C3.33933 57.9583 3.24977 58.1745 3.24977 58.4C3.24977 58.6254 3.33933 58.8416 3.49873 59.001C3.65814 59.1604 3.87434 59.25 4.09977 59.25C6.27477 59.475 8.42477 59.75 10.5998 59.875H13.3498C14.2498 59.875 14.9998 60 15.9998 59.825C18.1498 59.65 20.2998 59.375 22.4498 59.2C22.7017 59.2 22.9434 59.0999 23.1215 58.9217C23.2997 58.7435 23.3998 58.5019 23.3998 58.25C23.3949 58.0055 23.3006 57.7713 23.1348 57.5917C22.9689 57.412 22.743 57.2994 22.4998 57.275C20.3498 57.1 18.1748 56.875 15.9998 56.8H15.2498C15.4498 55.4 15.6748 54 15.8248 52.575C15.8248 51.8 15.9748 51 15.9998 50.225C16.0248 49.45 15.9998 48.65 15.9998 47.85C15.9998 46.5 15.6998 45.2 15.4998 43.875C18.7049 43.7405 21.888 43.2798 24.9998 42.5C25.1868 42.4339 25.3492 42.3123 25.4654 42.1515C25.5815 41.9907 25.6458 41.7983 25.6498 41.6C25.8999 41.6003 26.1406 41.5045 26.3221 41.3323C26.5036 41.1601 26.6119 40.9248 26.6248 40.675C26.8748 37.125 26.9748 33.55 27.0248 30C27.0248 24.675 27.0248 19.35 27.1498 14.05C27.3614 11.4221 27.4032 8.78323 27.2748 6.14995C27.1844 4.70563 26.7002 3.31363 25.8748 2.12495ZM12.7248 41.35C10.3734 41.4476 8.06284 40.7129 6.19977 39.275V38.55C6.14957 37.8008 6.14957 37.0491 6.19977 36.3C6.32477 33.8 6.77477 30.9 6.77477 29.975V21.6C6.52477 15.175 6.07477 8.77495 5.92477 2.32495L8.42477 2.49995C10.0748 2.62495 14.4998 2.34995 18.4248 2.64995C20.6748 2.82495 22.7998 3.02495 23.4248 3.99995C23.9947 5.07288 24.2298 6.29204 24.0998 7.49995C24.0998 9.87495 23.8998 12.5 23.8998 14.05C24.0498 20.25 24.3998 26.55 24.5748 32.675V40.6H24.3498C20.526 41.3709 16.6159 41.6232 12.7248 41.35Z" fill="black"/>
<path fill-rule="evenodd" clip-rule="evenodd" d="M56.9751 6.02495C56.881 4.6239 56.4055 3.27526 55.6001 2.12495C54.0669 0.737965 52.0675 -0.0207199 50.0001 -4.65643e-05C45.8001 -0.275047 40.2251 0.499953 38.3251 0.499953C31.5751 0.499953 33.8251 -2.00005 33.5001 13.25C33.5001 16.6 33.3501 19.925 33.3001 23.25V29.9C33.3001 30.95 32.7251 34.525 32.7751 37.225C32.6766 38.6566 33.0545 40.0806 33.8501 41.275C36.3171 43.127 39.3747 44.0159 42.4501 43.775H43.1751C43.0251 45.05 42.8251 46.275 42.7001 47.625C42.7001 48.4 42.7001 49.175 42.5751 49.95C42.4501 50.725 42.5751 51.525 42.5751 52.3C42.5751 53.75 42.7501 55.175 42.8751 56.6C42.0001 56.6 41.1001 56.6 40.2501 56.725C38.0751 56.925 35.9501 57.275 33.8001 57.5C33.5747 57.5 33.3585 57.5895 33.1991 57.7489C33.0397 57.9083 32.9501 58.1245 32.9501 58.35C32.9501 58.5754 33.0397 58.7916 33.1991 58.951C33.3585 59.1104 33.5747 59.2 33.8001 59.2C35.9751 59.425 38.1251 59.7 40.3001 59.825H43.0751C44.0085 59.825 44.9335 59.775 45.8501 59.675C48.0001 59.5 50.1251 59.225 52.2751 59.05C52.5294 59.05 52.7737 58.9508 52.9559 58.7733C53.138 58.5958 53.2436 58.3542 53.2501 58.1C53.2438 57.8434 53.139 57.599 52.9575 57.4175C52.776 57.2361 52.5317 57.1313 52.2751 57.125C50.1251 56.95 47.9751 56.725 45.7751 56.65H45.0001C45.2251 55.25 45.4501 53.85 45.5751 52.425C45.5751 51.65 45.7251 50.85 45.7501 50.075C45.8129 49.2845 45.8129 48.4904 45.7501 47.7C45.7501 46.35 45.4501 45.05 45.2501 43.725C48.4332 43.6344 51.5991 43.224 54.7001 42.5C54.8845 42.4328 55.0435 42.3103 55.1555 42.1491C55.2674 41.988 55.3266 41.7961 55.3251 41.6C55.5778 41.6007 55.8215 41.5057 56.007 41.3341C56.1925 41.1625 56.3062 40.927 56.3251 40.675C56.5501 37.125 56.6501 33.55 56.7251 30V14.05C56.9839 11.3833 57.0674 8.70254 56.9751 6.02495ZM42.5001 41.35C40.1572 41.4417 37.8565 40.7073 36.0001 39.275C35.8751 39.15 36.0001 38.875 35.8751 38.55C35.8249 37.8008 35.8249 37.0491 35.8751 36.3C36.0251 33.8 36.4751 30.9 36.4751 29.975C36.4751 27.175 36.4751 24.4 36.3251 21.6C36.1001 15.175 35.6251 8.77495 35.5001 2.32495L38.1751 2.49995C39.8001 2.62495 44.2501 2.34995 48.1751 2.64995C50.4251 2.82495 52.5251 3.02495 53.1751 3.99995C53.745 5.07288 53.9802 6.29204 53.8501 7.49995C53.8501 9.87495 53.6501 12.5 53.6501 14.05C53.8001 20.25 54.1251 26.55 54.3251 32.675V40.6H54.1001C50.2844 41.3675 46.3829 41.6197 42.5001 41.35Z" fill="black"/>
</g>
<defs>
<clipPath id="clip0_166_4901">
<rect width="60" height="60" fill="white"/>
</clipPath>
</defs>
</svg>
