<svg width="60" height="60" viewBox="0 0 60 60" fill="none" xmlns="http://www.w3.org/2000/svg">
<g clip-path="url(#clip0_168_5008)">
<path fill-rule="evenodd" clip-rule="evenodd" d="M40.7504 38.65V36.15V30.725C40.7504 27.925 40.7504 25.1 40.6004 22.3L46.9254 22.05L55.8004 21.5C55.971 21.4397 56.1187 21.328 56.2232 21.1802C56.3277 21.0325 56.3838 20.8559 56.3838 20.675C56.3838 20.494 56.3277 20.3175 56.2232 20.1697C56.1187 20.022 55.971 19.9103 55.8004 19.85H46.9004L40.5254 19.675L40.2254 12.5L39.6754 3.64997C39.5714 3.51663 39.429 3.41844 39.2674 3.36871C39.1058 3.31898 38.9328 3.32011 38.7719 3.37194C38.6109 3.42377 38.4698 3.5238 38.3676 3.65849C38.2654 3.79317 38.207 3.95602 38.2004 4.12497L38.0254 12.5C38.0254 14.825 37.9004 17.15 37.8504 19.475H28.7754H23.3504H21.5004C21.5004 17.175 21.3004 14.9 21.2254 12.6L20.6254 3.34997C20.1004 2.84997 19.0754 2.72497 19.0004 4.04997V12.9C19.0004 15.2 19.0004 17.525 18.8254 19.825C13.4004 20.025 8.82539 20.35 3.50039 20.6C2.52539 20.8 2.45039 21.975 3.20039 22.125C8.60039 22.125 13.3754 22.45 18.7754 22.5V31.025V36.45V38.95C13.3254 39.15 8.52539 39.3 3.07539 39.525C2.05039 39.925 2.05039 40.925 3.07539 41.275C8.60039 41.275 13.2754 41.55 18.8004 41.6C18.9754 46.45 19.2004 50.15 19.4254 54.975C19.6254 56.175 20.6754 56.5 21.1504 55.325C21.1504 50.525 21.3754 46.425 21.4254 41.625H28.9254L37.9004 41.475C38.0754 46.25 38.4004 49.9 38.6254 54.675C38.9754 55.8 40.2254 55.85 40.3504 54.825C40.3504 50.075 40.4754 46.125 40.5254 41.35L47.0504 41.1L55.8004 40.55C56.9754 40.275 56.9754 39.3 56.0004 38.9H47.2254L40.7504 38.65ZM29.1004 38.65H23.6754H21.7254V36.325V30.9V22.425H28.9254C31.9254 22.425 34.9254 22.425 37.9004 22.275V30.6V36.025V38.525L29.1004 38.65Z" fill="black"/>
<path fill-rule="evenodd" clip-rule="evenodd" d="M60 35.675C60 29.7 59.425 23.725 59.425 17.725L59.3 7.10004C59.2227 5.69572 58.7646 4.33891 57.975 3.17504C57.4037 2.25579 56.5137 1.57935 55.475 1.27504C53.7355 0.926032 51.9722 0.708749 50.2 0.625044C47.6341 0.498961 45.063 0.524005 42.5 0.700044C40 0.700044 37.5 0.900044 35.15 0.950044H17.875H14.1L11.25 1.12504C8.99351 1.18643 6.75606 1.55653 4.6 2.22504C2.96536 2.70988 1.58419 3.81302 0.75 5.30004C0.39285 6.08764 0.189211 6.93614 0.15 7.80004C0.15 10.1 0.625 9.80005 0.45 22.95C0.35 29.5 0.125 35.975 0 42.5V48.725C0 50.125 0 51.55 0.275 52.95C0.306588 53.7889 0.398492 54.6244 0.55 55.45C0.660905 55.9106 0.846713 56.3498 1.1 56.75C1.8077 57.7358 2.83084 58.4502 4 58.775C5.45353 59.158 6.94722 59.3678 8.45 59.4C10.2 59.4 11.925 59.525 13.675 59.4C17.625 59.4 21.6 59.05 25.55 59.05H38.325C41.175 59.05 44.025 58.9 46.875 58.725C49.095 58.7527 51.3149 58.6609 53.525 58.45C54.6444 58.2637 55.7153 57.8557 56.675 57.25C57.4994 56.7047 58.1365 55.9193 58.5 55C58.9061 53.8995 59.1503 52.7458 59.225 51.575L60 43.475V35.675ZM56.975 43.325L56.3 51.35C56.2588 52.0934 56.1415 52.8306 55.95 53.55C55.8071 54.0535 55.5098 54.4995 55.1 54.825C54.2322 55.3336 53.2546 55.6252 52.25 55.675C50.35 55.875 48.325 55.675 46.725 55.825C46.525 55.825 44.225 56.125 25.6 56.375C24.25 56.375 15.6 56.85 13.65 56.925C11.7 57 10.325 56.925 8.65 56.925C7.33714 56.9516 6.02633 56.8088 4.75 56.5C4.08317 56.3485 3.49051 55.9682 3.075 55.425C2.91311 55.1859 2.81029 54.9117 2.775 54.625C2.6491 53.9803 2.55731 53.3294 2.5 52.675C2.5 51.35 2.275 50 2.225 48.65C2 43.9 2.25 27.75 2.175 19.75C2.025 7.12504 1.9 9.17504 1.975 7.95004C2.01665 7.31102 2.19573 6.68852 2.5 6.12504C3.10932 5.09971 4.08209 4.34113 5.225 4.00004C7.23667 3.4386 9.31176 3.13616 11.4 3.10004H14.15C23.725 3.10004 28.95 3.35004 35.2 3.35004C37.7008 3.44413 40.205 3.39405 42.7 3.20004C45.198 3.05985 47.702 3.05985 50.2 3.20004C51.807 3.29866 53.4036 3.52437 54.975 3.87504C55.5 3.87504 55.85 4.50004 56.175 5.10004C56.5222 5.75686 56.7186 6.48279 56.75 7.22504V17.725C56.75 23.1 57.1 30.225 57.175 35.725C57.025 35.8 57.075 40.6 56.95 43.325H56.975Z" fill="black"/>
<path fill-rule="evenodd" clip-rule="evenodd" d="M25.2498 12.6501L27.7498 10.1501C27.739 10.3583 27.739 10.5669 27.7498 10.7751C27.7122 11.2076 27.7122 11.6425 27.7498 12.0751C27.7817 12.495 27.8402 12.9125 27.9248 13.3251C28.0998 14.3251 28.3748 15.2501 28.5748 16.2501C28.5876 16.48 28.688 16.6963 28.8554 16.8544C29.0229 17.0125 29.2445 17.1004 29.4748 17.1001C29.7091 17.0871 29.9291 16.9832 30.0879 16.8104C30.2467 16.6376 30.3317 16.4096 30.3248 16.1751C30.4921 15.1816 30.609 14.1803 30.6748 13.1751C30.6998 12.7504 30.6998 12.3247 30.6748 11.9001C30.6495 11.4725 30.5994 11.0468 30.5248 10.6251C30.5248 10.3251 30.5248 10.0501 30.3248 9.75007L33.1498 11.4251C33.3388 11.5743 33.5792 11.6423 33.8184 11.6141C34.0575 11.586 34.2756 11.464 34.4248 11.2751C34.574 11.0861 34.642 10.8456 34.6139 10.6065C34.5857 10.3674 34.4638 10.1493 34.2748 10.0001L30.6998 6.65007C30.6998 6.65007 29.9748 6.05007 29.6748 5.85007C29.3766 5.64968 29.0196 5.55551 28.6613 5.58272C28.303 5.60993 27.9643 5.75694 27.6998 6.00007C27.2101 6.49858 26.7588 7.03344 26.3498 7.60007C25.461 8.92095 24.6753 10.3084 23.9998 11.7501C23.9064 11.9162 23.8775 12.1109 23.9186 12.2969C23.9597 12.483 24.0679 12.6474 24.2226 12.7587C24.3772 12.8701 24.5674 12.9205 24.7569 12.9005C24.9464 12.8804 25.1219 12.7913 25.2498 12.6501Z" fill="black"/>
<path fill-rule="evenodd" clip-rule="evenodd" d="M33.6248 47.95C33.0498 48.625 32.3498 49.45 31.6248 50.225L31.0748 50.725C31.0748 50.2 31.2248 49.675 31.2748 49.125C31.2998 48.6754 31.2998 48.2247 31.2748 47.775C31.3004 47.3171 31.3004 46.858 31.2748 46.4C31.0998 45.3 30.7998 44.3 30.5498 43.225C30.5466 43.1232 30.5233 43.0231 30.4813 42.9303C30.4394 42.8375 30.3795 42.7539 30.3052 42.6842C30.2309 42.6146 30.1436 42.5602 30.0483 42.5243C29.953 42.4884 29.8516 42.4717 29.7498 42.475C29.5464 42.4878 29.3555 42.5776 29.2162 42.7263C29.0768 42.875 28.9994 43.0712 28.9998 43.275C28.8248 44.35 28.5748 45.375 28.4498 46.45C28.4249 46.908 28.4249 47.367 28.4498 47.825C28.4667 48.277 28.5084 48.7277 28.5748 49.175V49.55L25.7248 47.5C25.6568 47.4249 25.5739 47.3649 25.4813 47.3239C25.3887 47.2828 25.2886 47.2616 25.1873 47.2616C25.086 47.2616 24.9859 47.2828 24.8933 47.3239C24.8007 47.3649 24.7178 47.4249 24.6498 47.5C24.578 47.5699 24.5209 47.6535 24.4819 47.7458C24.4429 47.8381 24.4229 47.9373 24.4229 48.0375C24.4229 48.1377 24.4429 48.2369 24.4819 48.3292C24.5209 48.4216 24.578 48.5051 24.6498 48.575C25.0821 49.225 25.5494 49.8509 26.0498 50.45C26.7498 51.325 27.4998 52.15 28.2248 52.95C28.9498 53.75 28.8498 54.475 30.1748 54.6C30.4941 54.6502 30.8209 54.5884 31.0998 54.425C31.94 53.8741 32.6693 53.1702 33.2498 52.35C33.9174 51.2448 34.5024 50.0916 34.9998 48.9C35.0644 48.8055 35.1093 48.699 35.1317 48.5867C35.1542 48.4745 35.1537 48.3589 35.1303 48.2468C35.107 48.1347 35.0613 48.0285 34.9959 47.9346C34.9305 47.8406 34.8468 47.7608 34.7498 47.7C34.5667 47.5866 34.3466 47.5493 34.1364 47.596C33.9262 47.6427 33.7426 47.7698 33.6248 47.95Z" fill="black"/>
<path fill-rule="evenodd" clip-rule="evenodd" d="M42.5 30.9749C43.575 30.9749 44.575 31.1999 45.65 31.2249H46.975L48.3 31.0499L50 30.7249L48 33.6499C47.9192 33.739 47.8576 33.8439 47.8192 33.9578C47.7807 34.0718 47.7661 34.1924 47.7764 34.3123C47.7867 34.4321 47.8215 34.5486 47.8788 34.6543C47.9361 34.7601 48.0145 34.8529 48.1093 34.927C48.204 35.0011 48.3131 35.0548 48.4295 35.0849C48.546 35.1149 48.6674 35.1207 48.7861 35.1017C48.9049 35.0828 49.0185 35.0395 49.1198 34.9747C49.2211 34.9099 49.308 34.8248 49.375 34.7249L52.75 31.6249C53.1113 31.2491 53.4455 30.8481 53.75 30.4249C53.9127 30.1316 54.0147 29.8085 54.05 29.4749C54.0529 29.0285 53.8826 28.5984 53.575 28.2749C53.1565 27.9119 52.7138 27.5778 52.25 27.2749L48.175 24.5749C48.1029 24.5024 48.0173 24.4448 47.9229 24.4055C47.8285 24.3662 47.7272 24.3459 47.625 24.3459C47.5227 24.3459 47.4215 24.3662 47.3271 24.4055C47.2327 24.4448 47.147 24.5024 47.075 24.5749C47.0032 24.6448 46.9461 24.7284 46.9071 24.8207C46.8681 24.913 46.848 25.0122 46.848 25.1124C46.848 25.2126 46.8681 25.3118 46.9071 25.4042C46.9461 25.4965 47.0032 25.5801 47.075 25.6499C47.8 26.5249 48.425 27.4249 49.175 28.2749L47.95 28.1499H46.55C46.0868 28.1779 45.6269 28.2448 45.175 28.3499C44.1226 28.6312 43.0876 28.9735 42.075 29.3749C41.8712 29.4117 41.6897 29.526 41.5685 29.6938C41.4472 29.8617 41.3958 30.07 41.425 30.2749C41.4208 30.4038 41.4499 30.5316 41.5096 30.646C41.5692 30.7603 41.6573 30.8573 41.7653 30.9277C41.8734 30.9981 41.9978 31.0394 42.1265 31.0477C42.2551 31.0559 42.3838 31.0309 42.5 30.9749Z" fill="black"/>
<path fill-rule="evenodd" clip-rule="evenodd" d="M13.7996 28.8002C12.8496 28.8002 11.8996 28.6252 10.8996 28.5752H9.69959C9.30835 28.5493 8.91583 28.5493 8.52459 28.5752L10.6746 25.5752C10.7472 25.5031 10.8047 25.4174 10.844 25.323C10.8833 25.2286 10.9036 25.1274 10.9036 25.0252C10.9036 24.9229 10.8833 24.8217 10.844 24.7273C10.8047 24.6329 10.7472 24.5472 10.6746 24.4752C10.526 24.3345 10.3292 24.2561 10.1246 24.2561C9.91999 24.2561 9.72316 24.3345 9.57459 24.4752L5.49959 27.8752C5.09637 28.2477 4.7204 28.6488 4.37459 29.0752C4.21167 29.2798 4.10141 29.5213 4.05347 29.7784C4.00553 30.0356 4.02136 30.3005 4.09959 30.5502C4.4011 31.2864 4.84259 31.9571 5.39959 32.5252C6.39959 33.5752 7.89959 34.4252 8.72459 35.3502C8.77279 35.4813 8.85172 35.5991 8.95476 35.6935C9.0578 35.7879 9.18196 35.8562 9.31684 35.8928C9.45172 35.9294 9.59341 35.9332 9.73003 35.9037C9.86666 35.8743 9.99425 35.8126 10.1021 35.7238C10.21 35.6349 10.295 35.5215 10.3501 35.3931C10.4052 35.2646 10.4287 35.1249 10.4186 34.9855C10.4086 34.8461 10.3653 34.7111 10.2924 34.5919C10.2195 34.4727 10.1191 34.3726 9.99959 34.3002C9.31868 33.2868 8.58431 32.3104 7.79959 31.3752H8.47459C8.9071 31.4128 9.34207 31.4128 9.77459 31.3752C10.1965 31.3472 10.615 31.2803 11.0246 31.1752C12.0246 30.9752 12.9496 30.6752 13.8746 30.4002C13.9895 30.3887 14.101 30.3547 14.2028 30.3001C14.3045 30.2455 14.3946 30.1714 14.4677 30.082C14.5408 29.9926 14.5956 29.8897 14.629 29.7792C14.6623 29.6686 14.6736 29.5526 14.6621 29.4377C14.6506 29.3227 14.6166 29.2112 14.562 29.1095C14.5074 29.0077 14.4333 28.9177 14.3439 28.8446C14.2546 28.7714 14.1517 28.7166 14.0411 28.6833C13.9305 28.6499 13.8145 28.6387 13.6996 28.6502L13.7996 28.8002Z" fill="black"/>
<path fill-rule="evenodd" clip-rule="evenodd" d="M30.8003 35C31.3371 34.8386 31.8378 34.5755 32.2753 34.225C32.6903 33.9101 33.0604 33.5401 33.3753 33.125C33.9275 32.3803 34.3191 31.529 34.5253 30.625C34.7331 29.6322 34.6192 28.5989 34.2003 27.675C33.8714 27.0577 33.4167 26.5162 32.8655 26.0856C32.3143 25.6549 31.6789 25.3447 31.0003 25.175C30.1814 24.8173 29.2622 24.7617 28.4062 25.0181C27.5501 25.2744 26.8128 25.8261 26.3253 26.575C25.3687 27.3357 24.706 28.405 24.4503 29.6C24.3025 30.4255 24.3648 31.2749 24.6313 32.07C24.8978 32.8651 25.3599 33.5804 25.9753 34.15C26.6317 34.7073 27.4246 35.0797 28.2726 35.2291C29.1205 35.3785 29.993 35.2994 30.8003 35ZM27.6253 27.75C28.0695 27.2802 28.6174 26.9206 29.2253 26.7C29.6131 26.7086 29.9954 26.7936 30.3503 26.95C30.7068 27.0711 31.0314 27.2711 31.2998 27.5352C31.5682 27.7993 31.7734 28.1205 31.9003 28.475C32.0435 28.9478 32.0435 29.4523 31.9003 29.925C31.7476 30.4354 31.4828 30.9052 31.1253 31.3C30.9588 31.5238 30.756 31.7182 30.5253 31.875C30.3428 32.0271 30.1296 32.138 29.9003 32.2C29.5504 32.3074 29.1791 32.3247 28.8208 32.2504C28.4624 32.1761 28.1286 32.0126 27.8503 31.775C27.5237 31.5426 27.2579 31.2349 27.0751 30.8782C26.8924 30.5214 26.7981 30.1259 26.8003 29.725C26.8493 29.0159 27.1406 28.3451 27.6253 27.825V27.75Z" fill="black"/>
</g>
<defs>
<clipPath id="clip0_168_5008">
<rect width="60" height="60" fill="white"/>
</clipPath>
</defs>
</svg>
