<svg width="60" height="60" viewBox="0 0 60 60" fill="none" xmlns="http://www.w3.org/2000/svg">
<g clip-path="url(#clip0_118_3407)">
<path fill-rule="evenodd" clip-rule="evenodd" d="M41.3004 32.85C40.8635 30.0016 39.7299 27.3051 38.0004 25C37.0206 23.834 35.7007 23.0035 34.2254 22.625C32.3058 22.1844 30.3447 21.9497 28.3754 21.925H25.6254C22.3754 22.05 22.8254 22.725 17.8504 22.925C14.8174 22.8479 11.7884 23.1928 8.85038 23.9501C6.70711 24.5995 4.83074 25.9235 3.50038 27.725C1.74207 30.3446 0.62841 33.3429 0.250377 36.475C-0.177103 39.53 -0.058596 42.6366 0.600377 45.6501C0.753534 46.7957 1.16943 47.8905 1.8156 48.8489C2.46177 49.8074 3.32071 50.6034 4.32538 51.175C5.11217 51.4685 5.96456 51.5398 6.78917 51.3811C7.61377 51.2223 8.37878 50.8397 9.00038 50.2751L10.8504 48.6C11.319 48.0612 11.7532 47.4935 12.1504 46.9001L12.8254 45.875C13.4084 45.8864 13.9898 45.8106 14.5504 45.6501C15.2082 45.4336 15.819 45.0942 16.3504 44.6501C17.527 45.0506 18.7578 45.2698 20.0004 45.3C20.7424 45.2794 21.48 45.1788 22.2004 45C23.1754 44.8 24.0754 44.4751 25.0254 44.2751C26.1083 44.9182 27.3779 45.1739 28.6254 45C28.6254 45 28.6254 45.0001 28.6254 45.1501C29.2004 46.0251 29.6504 46.9001 30.2254 47.6501C30.5139 48.0401 30.8315 48.4078 31.1754 48.75C31.5845 49.2 32.0274 49.6178 32.5004 50C32.9176 50.3227 33.3515 50.6231 33.8004 50.9001C34.0987 51.0625 34.4078 51.2045 34.7254 51.3251C35.0509 51.443 35.3853 51.535 35.7254 51.6C36.4457 51.7305 37.1884 51.6487 37.8631 51.3647C38.5378 51.0806 39.1153 50.6065 39.5254 50C40.4922 48.4954 41.0838 46.7807 41.2504 45C41.8888 40.9765 41.9056 36.8787 41.3004 32.85ZM15.6754 40.625C15.6002 41.1497 15.3695 41.6398 15.013 42.032C14.6565 42.4241 14.1905 42.7004 13.6754 42.8251C13.2603 42.9572 12.8212 42.9966 12.3892 42.9405C11.9573 42.8843 11.5429 42.734 11.1754 42.5C10.7842 42.2991 10.4382 42.0202 10.1587 41.6805C9.87927 41.3409 9.67224 40.9477 9.55038 40.5251C9.36707 39.671 9.50975 38.7793 9.95038 38.0251C10.2159 37.6091 10.5547 37.2449 10.9504 36.9501C11.5788 36.8383 12.222 36.8383 12.8504 36.9501C13.4017 37.0371 13.9196 37.2701 14.3504 37.625C14.8117 37.9679 15.1763 38.4245 15.4085 38.9503C15.6407 39.4761 15.7327 40.0531 15.6754 40.625ZM28.6504 42.0251C28.2353 42.1572 27.7962 42.1966 27.3643 42.1405C26.9323 42.0843 26.5179 41.934 26.1504 41.7001C25.7592 41.4991 25.4132 41.2202 25.1337 40.8805C24.8543 40.5409 24.6472 40.1477 24.5254 39.725C24.3421 38.871 24.4848 37.9793 24.9254 37.225C25.4504 36.4 25.9254 35.7751 27.9254 36.0751C28.4819 36.1604 29.0024 36.4033 29.4254 36.7751C29.8745 37.1483 30.2156 37.6349 30.4134 38.1844C30.6112 38.7338 30.6585 39.3262 30.5504 39.9001C30.4691 40.3985 30.2471 40.8633 29.9104 41.2398C29.5738 41.6163 29.1366 41.8887 28.6504 42.0251ZM38.6504 44.7001C38.6071 46.077 38.2111 47.4199 37.5004 48.6C37.3224 48.8615 37.0699 49.0634 36.7756 49.1793C36.4813 49.2953 36.1589 49.3199 35.8504 49.25L34.6004 48.875C34.2148 48.6921 33.8466 48.4746 33.5004 48.225C33.1499 48.008 32.8156 47.7657 32.5004 47.5C32.1276 47.1713 31.7922 46.8024 31.5004 46.4001C31.0504 45.8001 30.6754 45.1751 30.2504 44.5751C31.0917 44.1826 31.8157 43.5769 32.3507 42.8183C32.8857 42.0596 33.2131 41.1743 33.3004 40.25C33.3959 39.2308 33.214 38.2048 32.7739 37.2805C32.3338 36.3563 31.6519 35.5683 30.8004 35C29.6437 34.1983 28.2257 33.866 26.8333 34.0702C25.4409 34.2744 24.1781 35 23.3004 36.1C22.4684 37.2214 22.077 38.6092 22.2004 40C22.2638 40.8114 22.5303 41.5937 22.9754 42.2751H21.9754C21.5341 42.2505 21.0917 42.2505 20.6504 42.2751C20.2304 42.307 19.8129 42.3655 19.4004 42.4501C18.8504 42.4501 18.3254 42.7001 17.8004 42.8251C18.1171 42.2365 18.3126 41.5904 18.3754 40.925C18.4675 39.9027 18.2842 38.8743 17.8445 37.9467C17.4049 37.0191 16.725 36.2261 15.8754 35.6501C14.7102 34.8684 13.2949 34.5504 11.9073 34.7585C10.5197 34.9667 9.25997 35.6859 8.37538 36.7751C7.86738 37.3817 7.49625 38.0907 7.28732 38.8539C7.07838 39.617 7.03657 40.4163 7.16472 41.197C7.29287 41.9778 7.58798 42.7218 8.02989 43.3781C8.47181 44.0344 9.05013 44.5876 9.72538 45C10.0702 45.2308 10.439 45.4236 10.8254 45.5751L10.6004 45.85C10.2193 46.3558 9.81032 46.8398 9.37538 47.3L7.75038 48.6C6.50038 49.45 5.52538 49.4 4.77538 48.725C3.89152 47.7457 3.3402 46.5118 3.20038 45.2001C2.76227 42.4759 2.76227 39.6992 3.20038 36.975C3.52261 34.3071 4.43651 31.7447 5.87538 29.475C6.79942 28.0727 8.14883 27.0037 9.72538 26.425C12.3847 25.4784 15.1783 24.9636 18.0004 24.9C21.1254 24.6 28.4254 23.225 33.5004 25.1C34.4924 25.4019 35.3661 26.0047 36.0004 26.8251C37.3341 28.8199 38.1896 31.0956 38.5004 33.475C39.0352 37.1959 39.0604 40.9724 38.5754 44.7001H38.6504Z" fill="black"/>
<path fill-rule="evenodd" clip-rule="evenodd" d="M14.4508 31.2751C15.2072 31.7611 16.0602 32.0767 16.9508 32.2001C18.1237 32.2987 19.3028 32.2987 20.4758 32.2001C21.463 32.1899 22.4484 32.1148 23.4258 31.9751C24.0438 31.878 24.6279 31.6289 25.1258 31.2501C25.9485 30.5051 26.5607 29.5566 26.9008 28.5001C27.2668 27.5406 27.4696 26.5266 27.5008 25.5001C27.5008 24.4001 25.7508 24.3251 25.7758 25.2751C25.6172 26.0478 25.3566 26.7961 25.0008 27.5001C24.7176 28.1119 24.2777 28.638 23.7258 29.0251H20.4508C19.4299 29.1382 18.4024 29.18 17.3758 29.1501C16.8393 29.1733 16.3037 29.0883 15.8008 28.9001C15.3963 28.6923 15.0443 28.3953 14.7714 28.0315C14.4985 27.6677 14.312 27.2466 14.2258 26.8001C13.9258 24.8251 12.4008 25.2251 12.3008 26.6251C12.3225 27.5059 12.5245 28.373 12.8943 29.1727C13.2641 29.9725 13.7938 30.688 14.4508 31.2751Z" fill="black"/>
<path fill-rule="evenodd" clip-rule="evenodd" d="M60.0001 28.1501V25.6501L59.7001 21.8251C59.4511 19.4226 58.9569 17.0519 58.2251 14.7501C57.6003 12.9876 56.4806 11.4425 55.0001 10.3001C53.509 9.30585 51.7871 8.71182 50.0001 8.5751C47.5001 8.3001 45.0001 8.5751 43.0251 8.5751L33.4251 9.0001C31.2962 8.9602 29.1686 9.1361 27.0751 9.5251C25.5461 9.82737 24.1336 10.5553 23.0001 11.6251C22.2516 12.4026 21.6951 13.3443 21.3751 14.3751C20.935 15.756 20.6007 17.1684 20.3751 18.6001C20.3493 18.6987 20.3438 18.8015 20.359 18.9023C20.3742 19.0031 20.4098 19.0997 20.4636 19.1863C20.5174 19.2729 20.5883 19.3476 20.672 19.4058C20.7556 19.4641 20.8503 19.5047 20.9501 19.5251C21.1489 19.5702 21.3575 19.5351 21.5307 19.4275C21.7038 19.3199 21.8276 19.1483 21.8751 18.9501C22.1557 17.6084 22.5317 16.2883 23.0001 15.0001C23.2794 14.2378 23.7233 13.5464 24.3001 12.9751C25.1942 12.1595 26.3059 11.6211 27.5001 11.4251C29.4566 11.0871 31.4503 11.0198 33.4251 11.2251H42.9251C43.7751 11.2251 49.0001 11.4001 49.6251 11.5001C50.8887 11.5858 52.11 11.99 53.1751 12.6751C54.157 13.4815 54.8789 14.5599 55.2501 15.7751C55.9328 17.8639 56.4019 20.0166 56.6501 22.2001L57.0251 25.8001L57.2251 28.3001C57.5468 30.5302 57.5468 32.795 57.2251 35.0251C56.9251 36.2501 56.4251 37.3501 55.2251 37.6501C54.7259 37.7903 54.1954 37.7717 53.7072 37.597C53.219 37.4223 52.7971 37.1002 52.5001 36.6751C51.4066 35.1649 50.3968 33.5959 49.4751 31.9751C50.2332 31.6655 50.9146 31.1942 51.4716 30.594C52.0286 29.9937 52.4479 29.2792 52.7001 28.5001C52.9718 27.6954 53.0341 26.8347 52.881 25.9993C52.7279 25.1638 52.3645 24.3812 51.8251 23.7251C51.2694 23.1335 50.5594 22.7092 49.7751 22.5001C43.8251 20.7251 42.4001 26.8001 43.7501 29.8251C43.9216 30.2068 44.1491 30.5607 44.4251 30.8751C44.3373 30.9536 44.2674 31.05 44.2199 31.1578C44.1725 31.2656 44.1487 31.3823 44.1501 31.5001C44.1468 31.615 44.1661 31.7295 44.2071 31.8369C44.248 31.9443 44.3097 32.0427 44.3886 32.1262C44.4676 32.2098 44.5622 32.277 44.6671 32.324C44.772 32.371 44.8852 32.3969 45.0001 32.4001C45.558 32.3684 46.1172 32.3684 46.6751 32.4001C47.0751 32.4001 47.5001 32.4001 47.6751 32.6751C48.9751 34.2751 49.9501 37.4501 51.7751 38.9501C52.3017 39.4 52.9276 39.7185 53.6012 39.8793C54.2749 40.0401 54.9771 40.0386 55.6501 39.8751C56.4076 39.6976 57.1106 39.3386 57.6985 38.829C58.2865 38.3195 58.7417 37.6747 59.0251 36.9501C59.9659 34.1181 60.2981 31.1194 60.0001 28.1501ZM48.4501 29.2251C48.1826 29.3387 47.8928 29.3902 47.6025 29.3757C47.3122 29.3613 47.0289 29.2814 46.774 29.1418C46.519 29.0023 46.2989 28.8069 46.1303 28.5702C45.9616 28.3335 45.8487 28.0617 45.8001 27.7751C45.6751 27.4001 44.6751 22.9251 48.7751 24.2251C49.3068 24.3788 49.7672 24.7152 50.0751 25.1751C50.252 25.5397 50.3376 25.9418 50.3245 26.3469C50.3114 26.7519 50.2001 27.1477 50.0001 27.5001C49.8766 27.8914 49.6663 28.2498 49.385 28.5485C49.1036 28.8472 48.7584 29.0785 48.3751 29.2251H48.4501Z" fill="black"/>
<path fill-rule="evenodd" clip-rule="evenodd" d="M44.7751 14.5252C44.4509 15.2658 43.9638 15.9238 43.3501 16.4502C43.0461 16.5949 42.7115 16.6636 42.3751 16.6502H39.8751H36.8251C36.2013 16.6764 35.5816 16.5377 35.0286 16.248C34.4755 15.9583 34.0086 15.5279 33.6751 15.0002C33.0384 13.9412 32.5822 12.7837 32.3251 11.5752C31.5751 11.0502 30.5251 11.2002 30.7251 12.2752C30.7681 14.0259 31.3341 15.7237 32.3501 17.1502C32.8685 17.7861 33.5098 18.3109 34.2358 18.6933C34.9618 19.0756 35.7574 19.3075 36.5751 19.3752H39.8251C40.9697 19.4374 42.1177 19.3788 43.2501 19.2002C43.8836 19.104 44.4842 18.8552 45.0001 18.4752C45.8729 17.5983 46.5093 16.5146 46.8501 15.3252C47.1643 14.3574 47.382 13.3608 47.5001 12.3502C47.5001 11.3752 45.9001 11.1252 45.7501 12.3502C45.4847 13.1004 45.1586 13.8279 44.7751 14.5252Z" fill="black"/>
</g>
<defs>
<clipPath id="clip0_118_3407">
<rect width="60" height="60" fill="white"/>
</clipPath>
</defs>
</svg>
