<svg width="60" height="60" viewBox="0 0 60 60" fill="none" xmlns="http://www.w3.org/2000/svg">
<g clip-path="url(#clip0_168_5009)">
<path fill-rule="evenodd" clip-rule="evenodd" d="M59.0746 46.3998C51.1246 46.3998 19.8496 46.8998 6.34961 46.9998H2.62461C2.41907 46.9998 2.22194 47.0815 2.0766 47.2268C1.93126 47.3721 1.84961 47.5693 1.84961 47.7748C1.84961 47.9803 1.93126 48.1775 2.0766 48.3228C2.22194 48.4681 2.41907 48.5498 2.62461 48.5498C4.89961 48.7748 7.17461 48.8748 9.44961 48.8998C14.6996 48.8998 19.9746 48.6998 25.2246 48.8998H33.6996H42.1996C47.8746 48.8998 53.5746 48.6748 59.2496 48.3248C59.3744 48.3146 59.4955 48.277 59.6041 48.2147C59.7127 48.1523 59.8062 48.0667 59.8778 47.964C59.9495 47.8612 59.9975 47.744 60.0186 47.6205C60.0397 47.497 60.0332 47.3705 59.9996 47.2498C59.9867 47.0155 59.8827 46.7955 59.7099 46.6367C59.5371 46.4779 59.3092 46.3929 59.0746 46.3998Z" fill="black"/>
<path fill-rule="evenodd" clip-rule="evenodd" d="M10.4996 45.4499C10.7962 44.8756 11.1479 44.3314 11.5496 43.8249C11.8246 43.4249 12.2996 42.9749 12.5996 42.5249C12.7822 42.2282 12.9251 41.9088 13.0246 41.5749C13.4746 41.4499 13.9496 41.3499 14.4246 41.1749C15.4996 40.7999 16.5746 40.3499 17.6246 39.9499L20.9746 38.7249L26.9746 36.5249L28.3496 36.0499C27.8996 36.9499 27.4496 37.8249 27.0496 38.7249C26.6496 39.6249 26.1996 40.6999 25.8496 41.6999L24.5996 45.5999C24.0496 46.6999 26.2746 47.0749 26.6246 45.5999L28.0746 42.4999L31.1246 37.1749L31.4496 36.6499L32.6496 38.4999L37.4996 45.8749C38.1496 46.7249 39.8246 46.3749 39.6246 45.8749L34.9996 37.1249C34.5496 36.3499 34.1496 35.4749 33.6496 34.6249C33.5665 34.4859 33.4746 34.3523 33.3746 34.2249L34.5496 33.7999L43.1746 29.9999C44.2746 29.5499 45.3746 29.1249 46.4996 28.7499C47.6246 28.3749 48.9996 27.8999 50.3496 27.4749C50.4632 27.5883 50.589 27.6889 50.7246 27.7749C51.3246 28.0999 52.0746 28.2999 52.5996 28.5499C53.3136 28.8153 54.0071 29.1328 54.6746 29.4999C55.3425 29.852 55.9782 30.2619 56.5746 30.7249C56.7516 30.8545 56.97 30.915 57.1885 30.8949C57.407 30.8749 57.6107 30.7756 57.7612 30.6159C57.9117 30.4562 57.9987 30.247 58.0057 30.0277C58.0128 29.8083 57.9395 29.594 57.7996 29.4249C57.2333 28.7752 56.6145 28.1732 55.9496 27.6249C55.2899 27.0667 54.597 26.5491 53.8746 26.0749L52.3496 25.2499V24.4749L52.2496 20.3999C52.6222 20.1565 52.9589 19.862 53.2496 19.5249L54.4246 18.7999L55.7746 17.8999C56.2496 17.5749 56.6496 17.2249 57.1496 16.9499C57.6512 16.67 58.1688 16.4196 58.6996 16.1999C58.8123 16.1792 58.9197 16.1358 59.0153 16.0725C59.1109 16.0092 59.1927 15.9272 59.2557 15.8314C59.3188 15.7357 59.3618 15.6281 59.3822 15.5153C59.4027 15.4025 59.4001 15.2867 59.3746 15.1749C59.3263 14.9438 59.1892 14.741 58.9928 14.61C58.7964 14.4791 58.5564 14.4306 58.3246 14.4749C57.1397 14.5305 55.9691 14.7578 54.8496 15.1499L54.4246 15.3749C54.35 14.3805 53.9455 13.4395 53.2752 12.7013C52.6048 11.963 51.7071 11.4698 50.7246 11.2999C50.2981 11.2021 49.8621 11.1517 49.4246 11.1499C49.0113 11.1819 48.6015 11.2488 48.1996 11.3499C48.0049 11.3934 47.8295 11.4986 47.6996 11.6499C46.6624 11.9674 45.7738 12.6469 45.1956 13.5647C44.6175 14.4824 44.3882 15.5773 44.5496 16.6499C44.5858 17.0726 44.6611 17.4911 44.7746 17.8999C44.5831 17.8861 44.391 17.8861 44.1996 17.8999C43.3465 17.9268 42.503 18.087 41.6996 18.3749C41.4675 18.4014 41.2555 18.519 41.1101 18.7019C40.9648 18.8847 40.898 19.1178 40.9246 19.3499C40.9511 19.582 41.0687 19.794 41.2515 19.9393C41.4344 20.0847 41.6675 20.1514 41.8996 20.1249C42.5936 20.2416 43.2727 20.4344 43.9246 20.6999C44.3597 20.8399 44.802 20.9567 45.2496 21.0499C46.0996 21.2249 46.8996 21.1749 47.7496 21.2999C48.4645 21.5047 49.2161 21.5474 49.9496 21.4249C50.0071 21.4387 50.067 21.4387 50.1246 21.4249L49.4996 24.2749L49.2746 25.3999C49.2653 25.5331 49.2653 25.6667 49.2746 25.7999L46.1246 26.5999C46.6996 22.7249 43.7996 22.2499 43.6246 22.3749C43.4496 22.4999 41.8496 23.6499 44.7996 27.0249C43.9746 27.2499 43.1746 27.4749 42.2996 27.7499L33.3996 31.0999L25.8996 33.8249L21.9746 35.6249C21.9746 34.7249 20.9496 32.5999 20.2746 32.6499C19.6786 33.1498 19.2647 33.8328 19.0973 34.5925C18.93 35.3522 19.0187 36.1459 19.3496 36.8499L16.8496 38.0749C15.8496 38.5499 14.8496 39.0999 13.7996 39.5749C13.5246 39.6999 13.2246 39.7749 12.9496 39.8749C12.7996 39.4999 12.5746 39.1249 12.4996 38.8999L12.1496 37.9249C13.1368 37.4277 14.0395 36.7781 14.8246 35.9999C16.4067 33.9905 18.1365 32.1019 19.9996 30.3499C20.1914 30.2272 20.3279 30.0345 20.3799 29.8128C20.432 29.5911 20.3956 29.3579 20.2784 29.1626C20.1613 28.9673 19.9726 28.8254 19.7524 28.767C19.5323 28.7086 19.2981 28.7384 19.0996 28.8499C17.6011 29.7063 16.2225 30.757 14.9996 31.9749C14.861 30.7881 14.3639 29.6719 13.5746 28.7749C12.7342 27.7664 11.5309 27.1289 10.2246 26.9999C9.73966 26.985 9.25628 27.0614 8.79956 27.2249C8.25512 27.4162 7.74141 27.6857 7.27456 28.0249C6.34451 28.3957 5.56566 29.0676 5.06258 29.9333C4.5595 30.7989 4.36126 31.8083 4.49956 32.7999C4.53785 34.0106 4.90987 35.1872 5.57456 36.1999L3.47456 36.5999C2.49956 36.7999 1.54956 37.0249 0.599557 37.2999C0.404626 37.353 0.236998 37.4779 0.13034 37.6494C0.0236811 37.821 -0.0141098 38.0266 0.0245567 38.2249C0.0420456 38.327 0.0804934 38.4244 0.137477 38.5109C0.19446 38.5974 0.268744 38.6711 0.355646 38.7275C0.442548 38.7839 0.540185 38.8216 0.642402 38.8384C0.744619 38.8551 0.849201 38.8506 0.949557 38.8249C1.87456 38.8249 2.79956 38.6499 3.72456 38.5999H7.99956H9.99956V39.5499C10.2246 41.2249 11.1746 39.5499 9.29956 42.4499C9.01474 43.0372 8.78056 43.6478 8.59956 44.2749C8.42784 44.9923 8.29432 45.7183 8.19956 46.4499C8.19956 46.9499 9.39956 46.9999 10.1746 46.4499C10.2621 46.1102 10.3706 45.7762 10.4996 45.4499ZM49.5246 18.5249C48.0496 18.8749 47.2246 17.6749 47.0246 16.4499C46.8246 15.2249 47.1746 13.2999 48.8746 13.1249C48.9884 13.1613 49.1107 13.1613 49.2246 13.1249H49.4496C49.7228 13.1473 49.9919 13.2062 50.2496 13.2999C50.8433 13.4907 51.3442 13.8965 51.6541 14.4377C51.964 14.9788 52.0605 15.6163 51.9246 16.2249C51.8086 16.8081 51.5161 17.3415 51.0868 17.7529C50.6575 18.1643 50.1121 18.4338 49.5246 18.5249ZM8.79956 35.4249C8.21029 35.1867 7.70166 34.7845 7.33391 34.2661C6.96615 33.7477 6.75468 33.1348 6.72456 32.4999C6.61259 32.0133 6.62489 31.5064 6.76032 31.0258C6.89576 30.5452 7.14998 30.1064 7.49956 29.7499C7.71115 29.7746 7.92448 29.7213 8.09956 29.5999C8.42708 29.396 8.78014 29.2362 9.14956 29.1249C9.45331 29.0497 9.77081 29.0497 10.0746 29.1249C10.7645 29.2998 11.3575 29.74 11.7246 30.3499C12.143 30.9318 12.3622 31.6333 12.3496 32.3499C12.3192 32.9442 12.1003 33.5134 11.7246 33.9749C11.3246 34.5249 9.52456 35.6749 8.79956 35.4249Z" fill="black"/>
</g>
<defs>
<clipPath id="clip0_168_5009">
<rect width="60" height="60" fill="white"/>
</clipPath>
</defs>
</svg>
