<svg width="60" height="60" viewBox="0 0 60 60" fill="none" xmlns="http://www.w3.org/2000/svg">
<mask id="mask0_165_7405" style="mask-type:luminance" maskUnits="userSpaceOnUse" x="2" y="0" width="56" height="60">
<path d="M2.47461 0H57.4996V60H2.47461V0Z" fill="white"/>
</mask>
<g mask="url(#mask0_165_7405)">
<path fill-rule="evenodd" clip-rule="evenodd" d="M36.8003 10.95C36.8003 10.5 37.0253 10.275 37.2003 10.8H37.0503L36.8003 10.95ZM36.4753 15.95C36.6753 15.95 36.8753 15.775 36.8253 15.65C36.5753 15 36.5003 15.325 36.4753 15.825V15.95ZM35.0003 12L34.6003 12.5C34.2396 12.9809 33.9686 13.5229 33.8003 14.1C33.6689 14.5128 33.6255 14.9485 33.6729 15.3791C33.7202 15.8097 33.8573 16.2256 34.0753 16.6C34.3141 16.9641 34.6298 17.2713 35.0003 17.5C34.5942 18.3291 34.4545 19.2634 34.6003 20.175C34.7482 20.999 35.1007 21.7726 35.6253 22.425C36.1134 23.0355 36.7906 23.4664 37.5503 23.65C38.9015 23.8477 40.2742 23.8477 41.6253 23.65L43.4753 23.45C43.8466 23.4291 44.2071 23.3175 44.5253 23.125C44.6626 22.9654 44.7501 22.7689 44.7767 22.56C44.8034 22.3511 44.7681 22.139 44.6753 21.95C44.641 21.8543 44.5863 21.7673 44.5149 21.6949C44.4436 21.6225 44.3573 21.5665 44.2622 21.5309C44.167 21.4952 44.0652 21.4806 43.9639 21.4883C43.8625 21.4959 43.7641 21.5255 43.6753 21.575H43.4253H41.7253C40.679 21.5936 39.6332 21.5183 38.6003 21.35C38.0886 21.271 37.6249 21.0034 37.3003 20.6C37.0664 20.2854 36.9198 19.9145 36.8753 19.525C36.8686 19.1864 36.9459 18.8514 37.1003 18.55L37.5003 18.3L38.0003 18.025C38.0911 17.9785 38.1685 17.9097 38.2253 17.825C38.3583 17.6946 38.464 17.5391 38.5362 17.3674C38.6083 17.1956 38.6455 17.0113 38.6455 16.825C38.6455 16.6387 38.6083 16.4544 38.5362 16.2827C38.464 16.1109 38.3583 15.9554 38.2253 15.825C38.0807 15.6452 37.8909 15.5072 37.6753 15.425C37.4253 15.425 36.6753 14.975 36.6503 15.275C36.4003 15.275 36.0253 15.125 36.1503 14.975C36.2372 14.7436 36.355 14.525 36.5003 14.325C36.6004 14.1554 36.737 14.0102 36.9003 13.9L37.5753 13.575C37.8503 13.4768 38.111 13.3423 38.3503 13.175C38.6289 12.9382 38.8149 12.6106 38.8753 12.25C38.9167 12.0209 38.9067 11.7855 38.8462 11.5607C38.7857 11.3359 38.6761 11.1274 38.5253 10.95C38.277 10.691 37.9903 10.4718 37.6753 10.3L36.8503 10C36.7003 10 36.5003 10 36.4253 9.775C36.3293 9.43158 36.3293 9.06842 36.4253 8.725C36.5503 8.3 36.7003 7.825 36.9503 7.675C37.2722 7.47202 37.6278 7.3281 38.0003 7.25C38.6582 7.10752 39.3275 7.02386 40.0003 7L43.8503 6.85C43.9443 6.85678 44.0387 6.84452 44.1278 6.81396C44.2169 6.78339 44.2989 6.73515 44.369 6.67212C44.439 6.60909 44.4956 6.53258 44.5353 6.44715C44.5751 6.36173 44.5972 6.26917 44.6003 6.175C44.6236 5.98413 44.575 5.79144 44.4641 5.63435C44.3533 5.47726 44.1879 5.36701 44.0003 5.325L40.0003 5C39.2433 4.9375 38.4824 4.9375 37.7253 5C37.1325 5.04256 36.5543 5.20411 36.0253 5.475C35.2531 6.01192 34.6745 6.78338 34.3753 7.675C33.9883 8.63719 33.9268 9.6996 34.2003 10.7C34.339 11.2001 34.6163 11.6508 35.0003 12Z" fill="black"/>
<path fill-rule="evenodd" clip-rule="evenodd" d="M48.7503 55.175C48.3114 54.7727 47.9988 54.2516 47.8503 53.675C47.5799 52.6904 47.4619 51.6703 47.5003 50.65V41.175V37.175C47.7503 33.625 47.8753 30.075 47.9003 26.5V10.575C47.8573 9.14848 47.9832 7.72191 48.2753 6.32498C48.5253 5.39998 48.8253 4.44998 49.8003 4.57498C50.7753 4.69998 51.2003 5.37498 51.5003 6.19998C51.9982 8.05764 52.2255 9.97741 52.1753 11.9V14.05C52.4503 18.65 52.8253 23.325 53.0253 28C53.1503 31.075 53.2003 34.175 53.0253 37.225C53.0253 39.55 53.3503 44.425 53.2753 48.375C53.3021 49.8603 53.1169 51.3419 52.7253 52.775C52.4962 53.3932 52.1383 53.9556 51.6753 54.425C51.2285 54.8711 50.6655 55.1829 50.0503 55.325C49.8285 55.3841 49.6376 55.5257 49.5168 55.7209C49.396 55.9161 49.3543 56.1501 49.4003 56.375C49.4539 56.5948 49.5907 56.7854 49.7818 56.9066C49.9729 57.0278 50.2036 57.0702 50.4253 57.025C51.3651 56.8229 52.2305 56.3642 52.9253 55.7C53.5991 55.0615 54.1277 54.2856 54.4753 53.425C54.9745 51.8047 55.2355 50.1204 55.2503 48.425C55.4503 44.5 55.2503 39.675 55.2503 37.35C55.4503 34.225 55.5003 31.075 55.4253 27.925C55.4253 23.225 55.0753 18.525 54.9003 13.9V11.75C55.0114 9.10784 54.5509 6.47284 53.5503 4.02498C53.2069 3.38954 52.7172 2.84499 52.1216 2.43634C51.526 2.0277 50.8417 1.76672 50.1253 1.67498C49.3939 1.55516 48.6434 1.6608 47.9736 1.97787C47.3037 2.29493 46.7463 2.8084 46.3753 3.44998C45.3308 5.67342 44.8582 8.12254 45.0003 10.575C45.0003 16.775 45.3503 23.075 45.4003 29.15V37.075V41.2C45.5503 44.575 45.8003 48.7 45.8253 50.65C45.8048 51.8459 45.9822 53.0369 46.3503 54.175C46.6157 55.0237 47.1189 55.7785 47.8003 56.35C47.8783 56.4143 47.9684 56.4623 48.0654 56.4909C48.1623 56.5196 48.264 56.5283 48.3644 56.5166C48.4649 56.5049 48.5619 56.4731 48.6497 56.423C48.7374 56.3729 48.8142 56.3055 48.8753 56.225C48.9427 56.1508 48.9934 56.063 49.024 55.9675C49.0545 55.872 49.0642 55.771 49.0523 55.6715C49.0405 55.5719 49.0074 55.4761 48.9553 55.3904C48.9032 55.3047 48.8333 55.2313 48.7503 55.175Z" fill="black"/>
<path fill-rule="evenodd" clip-rule="evenodd" d="M9.32452 47.4999C8.94952 47.4999 8.57452 48.1999 8.62452 49.2999V49.4249C8.50756 50.0441 8.43239 50.6705 8.39952 51.2999C8.23124 52.5256 8.16435 53.7631 8.19952 54.9999C8.2263 55.4587 8.3687 55.9033 8.61348 56.2923C8.85826 56.6814 9.19746 57.0022 9.59952 57.2249C11.1725 57.9326 12.8748 58.3071 14.5995 58.3249C16.287 58.3478 17.9696 58.1374 19.5995 57.6999C20.4204 57.5096 21.2053 57.1889 21.9245 56.7499C22.5792 56.3577 23.0614 55.7326 23.2745 54.9999C23.3743 54.488 23.3743 53.9617 23.2745 53.4499C23.0135 52.6306 22.8047 51.7956 22.6495 50.9499C22.6495 50.7178 22.5573 50.4952 22.3932 50.3312C22.2291 50.1671 22.0066 50.0749 21.7745 50.0749C21.5425 50.0749 21.3199 50.1671 21.1558 50.3312C20.9917 50.4952 20.8995 50.7178 20.8995 50.9499C20.8995 51.8249 21.1995 52.7749 21.2495 53.7249C21.2987 53.9724 21.2987 54.2273 21.2495 54.4749C21.2495 54.7249 20.8495 54.7749 20.5995 54.8749C20.1318 55.0439 19.6446 55.1531 19.1495 55.1999C17.7139 55.4497 16.2552 55.542 14.7995 55.4749C13.391 55.5533 11.9794 55.3927 10.6245 54.9999C9.82452 55.6999 10.1745 52.0249 10.0495 51.2249V49.6999C10.0617 49.6422 10.0617 49.5826 10.0495 49.5249C10.2495 47.8499 9.79952 47.0749 9.32452 47.4999Z" fill="black"/>
<path fill-rule="evenodd" clip-rule="evenodd" d="M21.5998 48.775C21.5998 48.375 21.8748 47.35 21.9248 47.025L22.7998 42.8C23.1498 41.2 23.4748 39.6 23.7498 37.975C24.1748 35.475 24.5248 33.125 24.8498 30.675C25.2998 27.65 25.6748 24.625 25.9748 21.575C26.2748 18.525 26.5248 15.525 26.6498 12.475C26.8098 11.1472 26.9016 9.81213 26.9248 8.47497C26.9821 7.90344 26.8409 7.3296 26.5248 6.84997C26.2021 6.60481 25.8246 6.4418 25.4248 6.37497C24.832 6.22409 24.231 6.10724 23.6248 6.02497C21.804 5.64902 19.9568 5.41499 18.0998 5.32497C16.2824 5.26256 14.4635 5.39667 12.6748 5.72497C11.76 5.89534 10.864 6.15491 9.99981 6.49997C9.08718 6.80826 8.23955 7.28293 7.49981 7.89997C7.29466 8.17663 7.17319 8.50634 7.14981 8.84997C6.99981 9.77497 7.14981 10.825 6.99981 11.55C6.91241 12.9653 6.91241 14.3847 6.99981 15.8C6.99981 19.25 7.59981 22.65 7.74981 26.1C7.74981 28.6 7.99981 30.9 8.19981 33.275C8.52481 36.875 8.92481 40.475 9.29981 44.1L9.99981 48.5V49.225H10.5248C11.1841 49.2495 11.8443 49.2244 12.4998 49.15C14.5998 48.95 17.0248 49.275 19.2748 49.275C20.1128 49.2938 20.9505 49.2268 21.7748 49.075C21.7262 49.0401 21.6854 48.9954 21.6553 48.9437C21.6251 48.892 21.6062 48.8345 21.5998 48.775ZM22.7748 49.625C22.9094 49.5919 23.0312 49.5196 23.1246 49.4172C23.2181 49.3148 23.2791 49.187 23.2998 49.05C23.2998 48.6 23.5998 47.6 23.6498 47.275L24.6248 43.125C25.0248 41.5 25.3748 39.875 25.6998 38.25C26.1748 35.75 26.5998 33.25 26.9998 30.9C27.5165 27.85 27.9665 24.8 28.3498 21.75C28.7498 18.675 29.0498 15.625 29.2748 12.5C29.5182 10.845 29.6186 9.17216 29.5748 7.49997C29.5338 6.49933 29.1447 5.54441 28.4748 4.79997C28.0736 4.39067 27.587 4.07484 27.0498 3.87497C26.1136 3.54692 25.152 3.29609 24.1748 3.12497C22.215 2.70562 20.2258 2.43816 18.2248 2.32497C16.181 2.24278 14.1345 2.39375 12.1248 2.77497C10.7197 3.03877 9.35717 3.49296 8.07481 4.12497C7.15479 4.56292 6.31079 5.14528 5.57481 5.84997C5.0559 6.38027 4.70014 7.04841 4.54981 7.77497C4.33407 8.95408 4.2336 10.1514 4.24981 11.35C4.1498 12.8817 4.1498 14.4183 4.24981 15.95C4.44981 19.375 5.02481 22.775 5.22481 26.225C5.39981 28.725 5.62481 31.225 5.89981 33.525C6.32481 37.125 6.84981 40.7 7.34981 44.35C7.34981 45.225 7.54981 46.15 7.69981 47.075C7.79462 47.7158 7.9282 48.3503 8.09981 48.975C8.11805 49.3288 8.16826 49.6802 8.24981 50.025C8.35339 50.2905 8.526 50.5235 8.74981 50.7C9.17303 50.9331 9.64259 51.0697 10.1248 51.1C10.962 51.1292 11.7999 51.0706 12.6248 50.925C14.6748 50.675 17.0498 50.925 19.2498 50.925C20.2776 50.9189 21.3012 50.7931 22.2998 50.55C22.4832 50.4871 22.6351 50.3556 22.7236 50.1832C22.8122 50.0107 22.8305 49.8107 22.7748 49.625Z" fill="black"/>
<path fill-rule="evenodd" clip-rule="evenodd" d="M26.1248 12.4999C26.1112 12.6027 26.1198 12.7072 26.1499 12.8064C26.1801 12.9056 26.2312 12.9972 26.2998 13.0749C26.1713 12.9121 26.1088 12.7068 26.1248 12.4999ZM6.12484 13.8749H5.94984H5.99984H6.12484ZM5.77484 12.4999H5.57484C1.54984 12.9249 -0.125163 14.1499 5.79984 14.0249C11.7248 13.8999 5.79984 14.0249 5.97484 14.0249H6.39984H7.29984L10.5248 14.4249C11.9998 14.4249 13.4748 14.6249 14.9748 14.5999C16.4748 14.5749 17.4748 14.5999 18.8998 14.3999C19.7748 14.3999 20.6248 14.2249 21.3998 14.1749L25.0748 13.7749C25.6893 13.7164 26.299 13.6162 26.8998 13.4749C27.067 13.4329 27.222 13.3522 27.3523 13.2393C27.4826 13.1264 27.5845 12.9845 27.6498 12.8249C27.7079 12.6794 27.7246 12.5207 27.6981 12.3663C27.6717 12.2119 27.603 12.0678 27.4998 11.9499C27.3723 11.8286 27.2119 11.7473 27.0386 11.7162C26.8653 11.6851 26.6867 11.7055 26.5248 11.7749C26.5248 11.4749 25.2748 11.7749 25.1248 11.7749H21.4498C19.9748 11.7749 18.4748 11.6249 16.9998 11.7749C15.8998 11.7749 14.7998 11.7749 13.6998 11.9499C12.5998 12.1249 11.5498 12.1749 10.4748 12.2749L7.24984 12.4249L5.79984 12.4999H5.77484Z" fill="black"/>
<path fill-rule="evenodd" clip-rule="evenodd" d="M18.2252 27.7249H17.8502C17.4969 27.5951 17.126 27.5192 16.7502 27.4999C16.3945 27.495 16.0403 27.5456 15.7002 27.6499C15.1868 27.8824 14.7486 28.2537 14.435 28.7219C14.1214 29.1901 13.9448 29.7367 13.9252 30.2999C13.7869 30.7631 13.805 31.2589 13.9767 31.7108C14.1484 32.1627 14.4642 32.5454 14.8752 32.7999C15.5706 33.1548 16.3449 33.3268 17.1252 33.2999C17.8295 33.3366 18.5256 33.1339 19.1002 32.7249C19.4351 32.4055 19.6942 32.0152 19.8586 31.5826C20.023 31.15 20.0885 30.6861 20.0502 30.2249C20.0461 29.4604 19.8203 28.7135 19.4002 28.0749C19.2073 28.1502 18.9931 28.1502 18.8002 28.0749C18.6403 28.041 18.493 27.9631 18.3752 27.8499C18.3752 27.8499 18.3752 27.8499 18.3752 27.7249C18.3611 27.6337 18.3611 27.541 18.3752 27.4499C18.3628 27.5327 18.3628 27.617 18.3752 27.6999C18.3752 27.6999 18.2502 27.8999 18.2252 27.7249ZM17.5002 25.7499H16.9752C16.4119 25.6622 15.8384 25.6622 15.2752 25.7499C14.3153 25.9986 13.445 26.5128 12.764 27.2336C12.0831 27.9543 11.619 28.8524 11.4252 29.8249C11.1367 30.853 11.1849 31.9464 11.5628 32.9451C11.9407 33.9438 12.6284 34.7952 13.5252 35.3749C14.6847 35.962 15.977 36.2376 17.2752 36.1749C18.6495 36.1395 19.9642 35.6065 20.9752 34.6749C21.5393 34.0491 21.9522 33.3022 22.1819 32.4916C22.4117 31.6811 22.4521 30.8285 22.3002 29.9999C22.2245 29.2076 21.9801 28.4407 21.5834 27.7508C21.1867 27.0608 20.6468 26.4638 20.0002 25.9999C19.7935 25.8795 19.5758 25.779 19.3502 25.6999C19.0002 25.6999 18.6252 25.6999 18.2502 25.5249C18.1163 25.4995 17.9782 25.5067 17.8477 25.5459C17.7172 25.585 17.598 25.655 17.5002 25.7499Z" fill="black"/>
</g>
</svg>
