<svg width="60" height="60" viewBox="0 0 60 60" fill="none" xmlns="http://www.w3.org/2000/svg">
<path fill-rule="evenodd" clip-rule="evenodd" d="M54.8445 41.6535C54.2957 39.4923 53.5302 37.3915 52.56 35.3838C51.9497 34.0395 51.1295 32.8008 50.13 31.7143C48.825 30.3338 47.4285 29.0428 45.95 27.8503C45.2297 27.3298 44.6325 26.658 44.2002 25.8818V25.7115C44.492 24.3993 45.4152 21.5318 45.8527 20.1223C46.7387 17.4465 47.0045 14.6045 46.6305 11.811C46.208 8.92854 44.8097 6.27804 42.6692 4.30179C42.0005 3.70354 41.2852 3.15904 40.5307 2.67354C39.7637 2.20054 38.9492 1.80954 38.1005 1.50704C34.2812 0.297785 30.182 0.297785 26.3627 1.50704C22.4997 2.56604 19.066 4.81004 16.5447 7.92279C14.3327 11.08 13.3242 14.9248 13.7015 18.7613C13.8487 22.611 15.5287 26.242 18.3675 28.8465C18.7977 29.2113 19.4615 28.9735 19.5622 28.4185C19.609 28.161 19.515 27.898 19.3152 27.7288C16.8305 25.352 15.4032 22.0778 15.354 18.6398C15.058 15.2408 15.9795 11.8473 17.9542 9.06479C20.2797 6.37003 23.3755 4.45304 26.8245 3.57279C30.2747 2.51104 33.9707 2.55354 37.3957 3.69429C38.0845 3.95729 38.7442 4.29128 39.3642 4.69053C39.992 5.10378 40.5852 5.56704 41.1382 6.07579C42.8312 7.70829 43.9195 9.86779 44.2245 12.1998C44.522 14.5945 44.2897 17.0253 43.5442 19.3203C43.1552 20.5595 42.3532 22.917 41.9645 24.3993C41.7485 25.0403 41.6577 25.7168 41.6972 26.392C41.86 26.9803 42.132 27.5328 42.4992 28.0203C44.103 30.2318 48.3072 32.2245 50.1055 36.453C50.9275 38.3028 51.5547 40.233 51.9767 42.2125C52.3662 44.129 52.3662 46.1043 51.9767 48.0208C51.7157 49.569 51.2412 51.0738 50.5672 52.4923C50.1837 53.3138 49.5882 54.0185 48.842 54.5335C47.0057 55.3063 45.048 55.7505 43.058 55.8458C43.1752 55.2198 43.2485 54.5865 43.2767 53.9503C43.2767 53.3428 43.2767 52.7108 43.1552 52.1033C43.1552 51.107 42.9122 50.1593 42.9122 49.3573C42.9295 48.962 42.647 48.6168 42.2562 48.5553C41.8485 48.4978 41.4785 48.8005 41.4542 49.2115C41.038 50.7993 40.8095 52.4305 40.7737 54.0718C40.7982 54.782 40.8795 55.489 41.0167 56.186C37.841 56.4593 34.653 56.5648 31.4662 56.502H26.9947C24.3457 56.502 21.6967 56.6478 19.048 56.745C19.1667 55.9403 19.2317 55.1283 19.2422 54.3148C19.12 52.5985 18.8765 50.8933 18.5132 49.2115C18.5005 48.812 18.1585 48.5033 17.76 48.531C17.3572 48.5443 17.0415 48.8815 17.0552 49.2843C17.0552 50.9613 16.6907 52.7353 16.7392 54.3878C16.7947 55.2048 16.9085 56.017 17.0795 56.818H16.6907C15.1782 56.9383 13.6587 56.9383 12.1462 56.818C11.2745 56.758 10.435 56.4643 9.71596 55.9673C8.45646 55.0028 7.59221 53.6113 7.28596 52.0548C6.92871 50.4543 6.92871 48.7948 7.28596 47.1943C7.70196 43.8158 8.67921 40.5303 10.1777 37.4735C11.8787 34.5678 14.4207 32.246 17.4682 30.815C18.0482 30.5343 18.107 29.731 17.574 29.3693C17.3267 29.2013 17.0085 29.178 16.7392 29.3083C13.33 30.8468 10.4725 33.3905 8.54946 36.5988C6.90146 39.8315 5.79321 43.312 5.26871 46.9028C4.83046 48.8183 4.78921 50.803 5.14721 52.7353C5.55021 54.7633 6.65071 56.586 8.25796 57.887C9.26721 58.6183 10.447 59.0783 11.6845 59.2238C13.299 59.3898 14.9235 59.4385 16.545 59.3695C19.9957 59.3695 23.4467 59.2238 26.8732 59.2238H31.2717C35.0005 59.3578 38.734 59.2605 42.4507 58.932C45.102 58.829 47.7122 58.2443 50.1542 57.2068C51.3305 56.4505 52.2727 55.3818 52.876 54.1203C53.693 52.468 54.2737 50.7093 54.6015 48.8955C55.1632 46.5215 55.2457 44.0595 54.8445 41.6535Z" fill="black"/>
<path fill-rule="evenodd" clip-rule="evenodd" d="M37.2496 21.2159C38.4149 19.4679 39.0789 17.4339 39.1694 15.3349C39.1969 13.3461 38.4266 11.4294 37.0309 10.0129C35.5994 8.58712 33.5929 7.89737 31.5874 8.14162C29.3049 8.25612 27.1034 9.02362 25.2444 10.3529C23.2854 11.8371 22.0911 14.1186 21.9881 16.5744C21.9154 18.1114 22.3049 19.6349 23.1059 20.9486C24.9046 23.4756 26.9656 25.8054 29.2544 27.8989C29.7121 28.3279 30.4246 28.3279 30.8824 27.8989C33.2346 25.9021 35.3689 23.6619 37.2496 21.2159ZM25.2444 19.7579C24.7249 18.8506 24.4801 17.8124 24.5396 16.7686C24.6591 15.1101 25.4926 13.5849 26.8241 12.5886C28.2561 11.5909 29.9409 11.0179 31.6844 10.9361C32.8841 10.7726 34.0926 11.1664 34.9651 12.0054C35.8539 12.8394 36.3706 13.9951 36.3991 15.2134C36.3464 16.8611 35.8511 18.4644 34.9651 19.8549C33.5274 22.1029 31.9014 24.2246 30.1049 26.1979C28.3639 24.1451 26.7411 21.9949 25.2444 19.7579Z" fill="black"/>
<path fill-rule="evenodd" clip-rule="evenodd" d="M27.3108 31.6655C25.7463 34.5208 24.8568 37.6965 24.7106 40.9488C24.5721 44.1145 24.8996 47.2833 25.6826 50.3538C25.7673 50.7513 26.1611 51.0028 26.5576 50.9125C26.9453 50.8168 27.1838 50.4265 27.0921 50.0378C26.4496 47.0948 26.2528 44.0718 26.5088 41.0703C26.7403 38.1373 27.6558 35.299 29.1821 32.7835C29.4493 32.346 29.7411 31.9328 30.0326 31.4955C31.6871 33.994 33.0258 36.6875 34.0181 39.515C34.7803 41.8663 35.1016 44.3378 34.9658 46.8055C34.9383 47.2623 35.2868 47.6545 35.7436 47.6805C36.2003 47.696 36.5923 47.357 36.6428 46.9028C36.8353 44.2228 36.5388 41.53 35.7678 38.956C34.7748 35.886 33.4121 32.9483 31.7096 30.2075C30.5431 28.5063 29.4251 28.555 28.3801 30.0618C27.9933 30.5753 27.6361 31.1108 27.3108 31.6655Z" fill="black"/>
</svg>
