<svg width="60" height="60" viewBox="0 0 60 60" fill="none" xmlns="http://www.w3.org/2000/svg">
<g clip-path="url(#clip0_165_7456)">
<path fill-rule="evenodd" clip-rule="evenodd" d="M0.600103 15.7002C0.586671 15.8164 0.586671 15.9339 0.600103 16.0502C0.660154 16.2012 0.769203 16.3276 0.909747 16.4093C1.05029 16.4909 1.21418 16.5229 1.3751 16.5002C2.7001 16.3002 1.3751 15.6752 2.7251 6.75017C2.8069 5.77907 3.00843 4.82181 3.3251 3.90017C3.3874 3.7334 3.48757 3.58337 3.61772 3.4619C3.74787 3.34043 3.90444 3.25083 4.0751 3.20017C5.10594 2.99274 6.15026 2.85907 7.2001 2.80017C8.00944 2.64738 8.82782 2.54717 9.6501 2.50017H15.5501C15.7738 2.50053 15.9891 2.41524 16.1518 2.26181C16.3145 2.10838 16.4123 1.89846 16.4251 1.67517C16.4251 1.4431 16.3329 1.22054 16.1688 1.05645C16.0047 0.892354 15.7822 0.800167 15.5501 0.800167C13.5751 0.700167 11.6501 0.325167 9.6751 0.200167C8.78572 0.116705 7.89089 0.108342 7.0001 0.175167C5.75306 0.124278 4.50416 0.208096 3.2751 0.425167C2.70939 0.590067 2.18942 0.883443 1.75576 1.28241C1.32211 1.68137 0.986494 2.17513 0.775103 2.72517C0.31381 3.93316 0.0520592 5.20814 0.000103257 6.50017C-0.0386711 9.18242 0.111702 11.8641 0.450103 14.5252C0.475151 14.9196 0.525252 15.3121 0.600103 15.7002Z" fill="black"/>
<path fill-rule="evenodd" clip-rule="evenodd" d="M15.7255 57.5002H9.80045C9.02831 57.448 8.26016 57.3478 7.50045 57.2002C6.44234 57.1412 5.38972 57.0076 4.35045 56.8002C4.18525 56.7446 4.03449 56.6529 3.9091 56.5319C3.7837 56.4108 3.68681 56.2634 3.62545 56.1002C3.29877 55.1801 3.08879 54.2226 3.00045 53.2502C2.64678 50.6969 2.4298 48.1266 2.35045 45.5502C2.4228 45.0193 2.4228 44.4811 2.35045 43.9502C2.35045 43.7252 1.07545 43.1252 0.850454 44.3002L0.700454 45.4752C0.33422 48.134 0.167088 50.8165 0.200454 53.5002C0.228361 54.7881 0.464758 56.0629 0.900454 57.2752C1.11017 57.8262 1.44523 58.3209 1.87913 58.7201C2.31304 59.1193 2.83388 59.4121 3.40045 59.5752C4.62965 59.7911 5.87843 59.8749 7.12545 59.8252C8.02389 59.9002 8.92702 59.9002 9.82545 59.8252C11.8005 59.7002 13.7255 59.3252 15.7005 59.2252C15.9325 59.2252 16.1551 59.133 16.3192 58.9689C16.4833 58.8048 16.5755 58.5823 16.5755 58.3502C16.5755 58.1181 16.4833 57.8956 16.3192 57.7315C16.1551 57.5674 15.9325 57.4752 15.7005 57.4752L15.7255 57.5002Z" fill="black"/>
<path fill-rule="evenodd" clip-rule="evenodd" d="M44.2753 2.50009C46.2503 2.62509 48.2253 2.50009 50.2003 2.50009C50.9876 2.52545 51.7725 2.6006 52.5503 2.72509C53.6095 2.77179 54.663 2.90557 55.7003 3.12509C55.8655 3.18069 56.0162 3.27234 56.1416 3.39341C56.267 3.51449 56.3639 3.66194 56.4253 3.82509C56.7548 4.7444 56.9649 5.70224 57.0503 6.67509C57.4745 9.75775 57.7083 12.8636 57.7503 15.9751C57.7503 16.2001 59.0253 16.7751 59.2503 15.6251L59.4003 14.4501C59.733 11.7804 59.8667 9.08963 59.8003 6.40009C59.7728 5.1203 59.5363 3.85361 59.1003 2.65009C58.8921 2.09541 58.5579 1.59667 58.1241 1.19319C57.6902 0.789718 57.1686 0.49254 56.6003 0.325088C55.3682 0.133778 54.1218 0.0501282 52.8753 0.075088C51.976 0.0251009 51.0746 0.0251009 50.1753 0.075088C48.2003 0.225088 46.2753 0.575088 44.3003 0.700088C44.0748 0.700088 43.8586 0.789641 43.6992 0.949047C43.5398 1.10845 43.4503 1.32465 43.4503 1.55009C43.4363 1.66774 43.4471 1.78701 43.4819 1.90024C43.5168 2.01348 43.5749 2.11818 43.6526 2.20764C43.7302 2.29709 43.8258 2.36931 43.933 2.41968C44.0402 2.47004 44.1568 2.49743 44.2753 2.50009Z" fill="black"/>
<path fill-rule="evenodd" clip-rule="evenodd" d="M59.5501 45.425C59.5501 44.4 59.4251 43.325 58.5501 43.475C57.6751 43.625 57.9001 44.475 57.8751 45.5C57.7879 48.0769 57.5626 50.6473 57.2001 53.2C57.1209 54.1715 56.9193 55.1291 56.6001 56.05C56.5378 56.2168 56.4376 56.3668 56.3075 56.4883C56.1773 56.6098 56.0208 56.6994 55.8501 56.75C54.8213 56.9696 53.776 57.1034 52.7251 57.15C51.9389 57.2745 51.1457 57.3497 50.3501 57.375H44.4501C44.3245 57.3536 44.1958 57.3598 44.0729 57.3932C43.95 57.4267 43.8359 57.4866 43.7385 57.5687C43.6412 57.6509 43.5629 57.7533 43.5092 57.8688C43.4555 57.9843 43.4277 58.1101 43.4277 58.2375C43.4277 58.3649 43.4555 58.4907 43.5092 58.6063C43.5629 58.7218 43.6412 58.8242 43.7385 58.9063C43.8359 58.9885 43.95 59.0483 44.0729 59.0818C44.1958 59.1153 44.3245 59.1215 44.4501 59.1C46.4251 59.225 48.3501 59.575 50.3251 59.725C51.2161 59.7751 52.1091 59.7751 53.0001 59.725C54.2467 59.7509 55.4932 59.6672 56.7251 59.475C57.2917 59.3041 57.8116 59.0057 58.245 58.6027C58.6783 58.1997 59.0136 57.7027 59.2251 57.15C59.6611 55.9465 59.8976 54.6798 59.9251 53.4C59.985 50.7362 59.8597 48.0715 59.5501 45.425Z" fill="black"/>
<path fill-rule="evenodd" clip-rule="evenodd" d="M45.0006 36.6751V35.0001C45.0533 34.9388 45.1185 34.8892 45.1917 34.8547C45.2649 34.8203 45.3446 34.8017 45.4256 34.8001C45.8418 34.7734 46.2593 34.7734 46.6756 34.8001C47.5369 34.8364 48.3944 34.6649 49.1756 34.3001C49.9506 33.8001 50.5256 32.9251 50.1006 31.0751C49.9027 30.2731 49.6436 29.4875 49.3256 28.7251C48.6756 27.0501 47.8256 25.4751 47.3256 23.8501L47.2006 20.6751C47.0083 19.2401 46.5595 17.8513 45.8756 16.5751C45.2047 15.3233 44.3633 14.1706 43.3756 13.1501C42.5288 12.3129 41.5696 11.5977 40.5256 11.0251C39.5584 10.4388 38.547 9.92895 37.5006 9.50013C35.8291 9.01422 34.1114 8.7042 32.3756 8.57513C30.585 8.433 28.7834 8.60216 27.0506 9.07513C22.6494 10.332 18.8005 13.036 16.1256 16.7501C14.799 18.5952 13.8546 20.6869 13.348 22.9023C12.8414 25.1176 12.7828 27.4118 13.1756 29.6501C13.467 31.2983 13.9887 32.8973 14.7256 34.4001C15.4201 35.9595 16.4335 37.3562 17.7006 38.5001C18.5006 39.1501 19.8506 40.1751 20.8756 41.0001C21.2522 41.2954 21.6112 41.6126 21.9506 41.9501C21.9506 41.9501 22.0756 42.4501 22.1006 42.8251C22.2256 44.3251 22.2256 46.7251 22.2756 47.8251C22.262 48.0916 22.262 48.3586 22.2756 48.6251C22.3101 48.8062 22.4061 48.9697 22.5473 49.0882C22.6885 49.2066 22.8663 49.2726 23.0506 49.2751C24.3006 49.2751 23.7006 42.2001 23.6756 41.9751C23.6465 41.6054 23.5354 41.2467 23.3506 40.9251C22.9332 40.4437 22.482 39.9925 22.0006 39.5751L18.9756 37.0251C17.9581 36.0243 17.1581 34.8243 16.6256 33.5001C16.0474 32.166 15.644 30.7627 15.4256 29.3251C14.9033 25.4233 15.9359 21.4725 18.3006 18.3251C20.6664 15.1833 24.0075 12.9149 27.8006 11.8751C29.204 11.5173 30.6564 11.3906 32.1006 11.5001C33.5924 11.6027 35.0681 11.871 36.5006 12.3001C37.4159 12.5843 38.303 12.9526 39.1506 13.4001C39.9607 13.8189 40.7025 14.3584 41.3506 15.0001C42.1498 15.7939 42.8241 16.7043 43.3506 17.7001C43.8995 18.6594 44.272 19.7094 44.4506 20.8001V23.1251C44.4664 23.5932 44.5506 24.0564 44.7006 24.5001C45.2756 26.1501 46.1756 27.7751 46.9256 29.5001C47.207 30.149 47.441 30.8174 47.6256 31.5001C47.6361 31.7 47.6361 31.9003 47.6256 32.1001C47.6256 32.1001 47.4256 32.2251 47.3256 32.2251C46.9844 32.2508 46.6417 32.2508 46.3006 32.2251C45.6368 32.1673 44.9696 32.2874 44.3676 32.573C43.7656 32.8586 43.2506 33.2994 42.8756 33.8501C42.714 34.2045 42.6207 34.5862 42.6006 34.9751C42.6006 35.5251 42.7756 36.1001 42.8006 36.6251C42.8378 37.3053 42.7357 37.9859 42.5006 38.6251C42.202 39.2133 41.7643 39.7196 41.2256 40.1001C40.7217 40.3358 40.1799 40.4798 39.6256 40.5251C38.5981 40.6697 37.5629 40.7532 36.5256 40.7751C36.2732 40.7963 36.0354 40.902 35.8506 41.0751C35.7614 41.1673 35.693 41.2774 35.6499 41.3981C35.6068 41.5188 35.59 41.6474 35.6006 41.7751C35.9006 49.1501 35.6006 48.7501 36.8006 48.7501C38.0006 48.7501 37.6006 48.5501 37.5006 42.6751C38.528 42.6733 39.5545 42.6148 40.5756 42.5001C41.2636 42.4208 41.9276 42.1995 42.5256 41.8501C43.3802 41.291 44.0705 40.5144 44.5256 39.6001C44.8978 38.6721 45.06 37.6732 45.0006 36.6751Z" fill="black"/>
<path fill-rule="evenodd" clip-rule="evenodd" d="M37.3002 23.5501C38.0852 23.5502 38.855 23.7664 39.5252 24.1751C39.6572 24.3674 39.8587 24.5009 40.0872 24.5475C40.3157 24.5942 40.5534 24.5503 40.7502 24.4251C40.846 24.3599 40.9279 24.2764 40.9912 24.1793C41.0545 24.0823 41.0978 23.9736 41.1187 23.8596C41.1397 23.7457 41.1378 23.6287 41.1131 23.5155C41.0885 23.4022 41.0416 23.2951 40.9752 23.2001C40.4638 22.1326 39.5722 21.2946 38.4752 20.8501C37.66 20.604 36.7904 20.604 35.9752 20.8501C35.1789 21.2054 34.5205 21.8111 34.1002 22.5751C33.9061 22.9167 33.7708 23.2886 33.7002 23.6751C33.7002 24.1001 33.7002 24.3751 34.0252 24.5001C34.3502 24.6251 34.5252 24.8751 34.9502 24.5001C35.3752 24.1251 35.1502 23.3251 37.3002 23.5501Z" fill="black"/>
</g>
<defs>
<clipPath id="clip0_165_7456">
<rect width="60" height="60" fill="white"/>
</clipPath>
</defs>
</svg>
