<svg width="60" height="60" viewBox="0 0 60 60" fill="none" xmlns="http://www.w3.org/2000/svg">
<g clip-path="url(#clip0_165_7148)">
<path d="M53.85 36.8C53.1993 35.4278 52.0342 34.3671 50.607 33.8477C49.1799 33.3283 47.6056 33.392 46.225 34.025C45.7827 34.1757 45.3558 34.3683 44.95 34.6C44.5504 34.8207 44.1736 35.0803 43.825 35.375C43.7495 35.4275 43.685 35.4944 43.6353 35.5718C43.5856 35.6492 43.5517 35.7357 43.5354 35.8263C43.5192 35.9168 43.5209 36.0097 43.5406 36.0996C43.5603 36.1894 43.5974 36.2745 43.65 36.35C43.7643 36.5004 43.9328 36.6001 44.1196 36.6281C44.3063 36.6562 44.4966 36.6102 44.65 36.5C44.9697 36.3002 45.304 36.1247 45.65 35.975C45.9865 35.8212 46.3385 35.7038 46.7 35.625C47.6755 35.292 48.7422 35.351 49.675 35.7894C50.6079 36.2279 51.3339 37.0115 51.7 37.975C52.3458 39.4612 52.6039 41.0869 52.45 42.7C52.3917 44.2865 51.8413 45.8154 50.875 47.075C50.0727 47.9352 49.0793 48.5947 47.975 49C46.802 49.4553 45.5753 49.7578 44.325 49.9C44.1129 49.9 43.9094 49.9843 43.7593 50.1344C43.6093 50.2844 43.525 50.4879 43.525 50.7C43.525 50.9122 43.6093 51.1157 43.7593 51.2657C43.9094 51.4157 44.1129 51.5 44.325 51.5C46.0304 51.4602 47.7183 51.1479 49.325 50.575C50.4962 50.1646 51.5751 49.5275 52.5 48.7C53.9791 47.134 54.8636 45.0998 55 42.95C55.2334 40.8314 54.8332 38.6912 53.85 36.8Z" fill="black"/>
<path d="M49.425 4.27501C49.3405 3.59273 49.0011 2.96762 48.475 2.52501C47.6216 2.00919 46.6812 1.65336 45.7 1.47501C43.9146 0.79268 42.063 0.298342 40.175 1.43107e-05C38.7199 -0.206766 37.237 0.0652447 35.95 0.775014C35.4928 1.26059 35.166 1.85403 35 2.50001C34.1 5.50001 32.35 13.2 32.275 13.625C32.244 13.8098 32.2832 13.9995 32.385 14.1568C32.4868 14.3141 32.6438 14.4276 32.825 14.475C32.9153 14.4932 33.0083 14.4934 33.0987 14.4756C33.1891 14.4578 33.2751 14.4224 33.3517 14.3713C33.4283 14.3202 33.4941 14.2544 33.5453 14.1779C33.5965 14.1013 33.6321 14.0154 33.65 13.925C33.65 13.5 35.925 6.05001 37 3.17501C37.1006 2.94203 37.2176 2.71647 37.35 2.50001C38.2173 2.26167 39.1328 2.26167 40 2.50001C41.7159 2.84188 43.3916 3.36134 45 4.05001C45.525 4.22501 46.15 4.30001 46.675 4.50001C46.675 4.50001 46.9 4.50001 46.925 4.72501C46.9549 5.67254 46.7933 6.61636 46.45 7.50001C46.25 8.27501 45.975 9.05001 45.7 9.80001C45.25 9.47501 44.8 9.15001 44.325 8.85001C43.85 8.55001 43.8 8.52501 43.525 8.40001C43.2419 8.26985 42.9495 8.16121 42.65 8.07501C41.925 7.85001 41.225 7.77501 40.475 7.60001C40.3931 7.55673 40.3034 7.53016 40.2111 7.52183C40.1188 7.5135 40.0257 7.52358 39.9373 7.55149C39.849 7.57939 39.767 7.62457 39.6962 7.6844C39.6255 7.74423 39.5673 7.81752 39.525 7.90001C39.4773 7.97961 39.4465 8.06819 39.4345 8.16023C39.4225 8.25227 39.4297 8.34579 39.4555 8.43495C39.4813 8.52411 39.5252 8.60698 39.5845 8.6784C39.6438 8.74981 39.7172 8.80824 39.8 8.85001C40.3358 9.4105 40.9215 9.92095 41.55 10.375C41.8047 10.5662 42.0818 10.7257 42.375 10.85C42.6708 10.9913 42.9809 11.1003 43.3 11.175C43.9 11.325 44.475 11.425 45.075 11.525C44.95 11.825 44.85 12.15 44.75 12.45C44.3 14 43.875 15.625 43.475 17.275H43.3C42.7 16.9 42.175 16.525 41.525 16.2C41.2795 16.0501 41.0199 15.9245 40.75 15.825C40.5076 15.7328 40.2562 15.6657 40 15.625C39.2926 15.5748 38.5825 15.5748 37.875 15.625C37.7865 15.5939 37.6926 15.5808 37.5989 15.5867C37.5052 15.5926 37.4136 15.6172 37.3296 15.6592C37.2457 15.7012 37.171 15.7597 37.1101 15.8311C37.0492 15.9025 37.0032 15.9855 36.975 16.075C36.919 16.2541 36.9346 16.4479 37.0185 16.6158C37.1024 16.7836 37.2481 16.9124 37.425 16.975C38.05 17.375 38.525 17.8 39.175 18.15C39.4299 18.2919 39.6978 18.4091 39.975 18.5L40.825 18.7C41.525 18.7 42.2 18.7 42.9 18.9C43.0071 18.9238 43.118 18.9238 43.225 18.9L41.65 25.7C40.95 25.275 40.3 24.8 39.6 24.375L38.65 23.825C38.2806 23.6139 37.8963 23.4301 37.5 23.275C36.7 22.925 35.9 22.675 35 22.25C34.8575 22.1273 34.672 22.0663 34.4845 22.0804C34.297 22.0945 34.1227 22.1825 34 22.325C33.8774 22.4676 33.8164 22.653 33.8304 22.8405C33.8445 23.0281 33.9325 23.2024 34.075 23.325C34.6549 24.1178 35.3262 24.8394 36.075 25.475C36.7376 25.9601 37.4713 26.3396 38.25 26.6C39.1462 26.8584 40.0559 27.0671 40.975 27.225C40.975 27.5 40.85 27.775 40.775 28.05C40.575 28.825 40.35 29.575 40.125 30.325C39.95 31.675 40.375 31.95 41.875 30.325C42.075 29.75 42.3 29.15 42.475 28.55C44.05 23.55 45.325 18.175 47.025 13.325C47.8991 11.4336 48.6506 9.48788 49.275 7.50001C49.5383 6.44558 49.5892 5.34933 49.425 4.27501Z" fill="black"/>
<path d="M41.5748 31.8C40.4748 32.425 41.6998 34.3 40.8498 46.4C40.7014 48.5077 40.4175 50.6037 39.9998 52.675C39.9245 53.3675 39.6938 54.0341 39.3248 54.625C37.398 56.0684 35.0801 56.8963 32.6748 57C28.8673 57.5085 25.0035 57.4157 21.2248 56.725C20.1651 56.5246 19.1271 56.2232 18.1248 55.825C17.6263 55.654 17.1732 55.3719 16.7998 55C16.1981 54.1842 15.7414 53.2708 15.4498 52.3C14.9831 50.66 14.6322 48.9892 14.3998 47.3C13.8748 44.325 13.4248 41.375 13.1248 38.4C12.9748 36.8 12.8748 35.175 12.8248 33.55C12.8248 33.55 19.4998 33.275 22.4998 33.2H27.4998C29.1248 33.2 30.7498 33.05 32.4998 33.05C34.2498 33.05 35.7498 33.05 37.4998 33.2C37.6107 33.2282 37.7263 33.2323 37.8389 33.212C37.9514 33.1917 38.0584 33.1475 38.1524 33.0824C38.2464 33.0173 38.3254 32.9328 38.384 32.8346C38.4427 32.7363 38.4795 32.6267 38.4922 32.513C38.5048 32.3993 38.4929 32.2842 38.4573 32.1755C38.4217 32.0668 38.3631 31.9671 38.2857 31.8829C38.2082 31.7987 38.1136 31.7322 38.0082 31.6877C37.9029 31.6432 37.7892 31.6218 37.6748 31.625C35.1748 31.2 32.8498 30.925 30.4748 30.75C30.6153 30.6875 30.7348 30.5859 30.819 30.4574C30.9033 30.3288 30.9487 30.1787 30.9498 30.025C30.9498 28.825 31.1248 27.525 31.2498 26.4C31.3748 25.275 31.5248 23.9 31.6998 22.8C31.9331 21.7532 32.1001 20.6928 32.1998 19.625C31.9966 16.5354 31.5027 13.4719 30.7248 10.475C30.3464 9.33687 29.6736 8.31912 28.7748 7.52497C28.6137 7.39112 28.4237 7.2966 28.2198 7.24887C28.0158 7.20114 27.8036 7.20152 27.5998 7.24997C26.6748 7.42497 24.7248 11.825 24.2748 13C23.8261 14.0794 23.4584 15.1908 23.1748 16.325C22.8941 16.4132 22.6545 16.5996 22.4998 16.85C22.2748 18.575 22.0748 20.275 21.8748 22C21.6748 23.725 21.5248 25.45 21.4248 27.175C21.4133 27.2669 21.4201 27.3602 21.4446 27.4495C21.4692 27.5388 21.5111 27.6224 21.568 27.6956C21.6249 27.7687 21.6956 27.8299 21.7761 27.8757C21.8566 27.9215 21.9454 27.951 22.0373 27.9625C22.1292 27.974 22.2225 27.9672 22.3119 27.9427C22.4012 27.9181 22.4848 27.8762 22.5579 27.8193C22.6311 27.7624 22.6923 27.6917 22.7381 27.6112C22.7838 27.5307 22.8133 27.4419 22.8248 27.35C23.0498 26 23.3248 24.675 23.6248 23.325C23.9998 21.55 24.4248 19.8 24.8498 18.025H28.0498C28.3498 18.025 29.2498 18.025 29.1998 18.2C29.1498 18.375 29.1998 21.475 29.1998 22.4C29.1998 23.325 29.1998 24.4 29.0748 25.4V29.85C29.0753 29.985 29.1099 30.1177 29.1755 30.2357C29.2411 30.3537 29.3354 30.4532 29.4498 30.525H28.6498H24.8748C23.5998 30.525 22.7498 30.525 21.6998 30.725C21.2998 29.825 20.9248 28.925 20.4998 28.05C20.2747 27.5704 20.0244 27.1031 19.7498 26.65C19.4986 26.2044 19.2145 25.7782 18.8998 25.375C18.2498 24.5 17.5498 23.7 16.8748 22.875C17.5609 22.408 18.1901 21.8627 18.7498 21.25C18.9156 21.1174 19.0219 20.9243 19.0453 20.7134C19.0688 20.5024 19.0074 20.2907 18.8748 20.125C18.7422 19.9592 18.5492 19.8529 18.3382 19.8295C18.1272 19.806 17.9156 19.8674 17.7498 20C16.0774 21.6949 13.8057 22.6646 11.4248 22.7C9.54982 22.5 8.04982 21.325 7.62482 18.45C7.47904 17.623 7.47904 16.7769 7.62482 15.95C7.90217 14.6238 8.27821 13.3201 8.74982 12.05C8.99982 11.3 9.24982 10.575 9.47482 9.79997C9.69982 9.02497 9.67482 8.94997 9.74982 8.49997C10.6748 9.19997 11.5998 9.87497 12.4748 10.6C13.1373 11.1244 13.7715 11.6835 14.3748 12.275C15.2436 13.0783 16.0004 13.9949 16.6248 15C17.1977 15.9964 17.4994 17.1256 17.4998 18.275C17.4997 18.4895 17.5832 18.6956 17.7326 18.8497C17.8819 19.0037 18.0854 19.0935 18.2998 19.1C18.4049 19.1 18.5089 19.0793 18.606 19.0391C18.703 18.9989 18.7912 18.9399 18.8655 18.8657C18.9398 18.7914 18.9987 18.7032 19.0389 18.6061C19.0791 18.5091 19.0998 18.405 19.0998 18.3C19.1525 17.1756 18.9738 16.0525 18.5748 15C17.9182 13.4668 16.9956 12.0619 15.8498 10.85C15.2498 10.175 14.5998 9.54997 13.9498 8.92497C13.2998 8.29997 11.9498 7.17497 10.9248 6.42497C10.4651 5.90933 9.96334 5.4327 9.42482 4.99997C9.24987 4.88466 9.05269 4.8073 8.84601 4.77285C8.63933 4.7384 8.42772 4.74764 8.22482 4.79997C7.96693 4.91886 7.74532 5.10426 7.58276 5.33711C7.4202 5.56997 7.32255 5.84189 7.29982 6.12497V7.74997C7.2264 8.18901 7.12621 8.62315 6.99982 9.04997C6.77482 9.77497 6.52482 10.475 6.27482 11.2C5.7215 12.6349 5.29487 14.1156 4.99982 15.625C4.79954 16.7243 4.79954 17.8507 4.99982 18.95C5.16144 20.1999 5.67495 21.3782 6.48052 22.3476C7.28608 23.3169 8.35053 24.0374 9.54982 24.425C9.76349 24.4809 9.98063 24.5227 10.1998 24.55C10.2121 25.3859 10.2705 26.2205 10.3748 27.05C10.4303 27.5066 10.5223 27.958 10.6498 28.4C10.7602 28.8483 10.8937 29.2905 11.0498 29.725C11.2748 30.375 11.4998 31.025 11.7498 31.675C11.6459 31.7377 11.5594 31.8255 11.4983 31.9303C11.4371 32.0352 11.4033 32.1537 11.3998 32.275V38.375C11.5498 41.4 11.8748 44.425 12.2498 47.45C12.4252 49.2339 12.7175 51.0043 13.1248 52.75C13.4393 54.0169 13.9907 55.213 14.7498 56.275C15.3543 57.0575 16.145 57.6763 17.0498 58.075C18.1983 58.5814 19.3965 58.9668 20.6248 59.225C24.7453 60.0196 28.9686 60.1294 33.1248 59.55C36.089 59.3073 38.9034 58.1448 41.1748 56.225C42.3322 53.8975 42.9071 51.3237 42.8498 48.725C43.1027 43.3181 43.0526 37.9013 42.6998 32.5C42.6498 31.575 41.5748 31.8 41.5748 31.8ZM29.0748 15.4C27.7546 15.2415 26.4201 15.2415 25.0998 15.4H24.6998C24.8998 15 25.1248 14.6 25.3498 14.225C26.0748 12.975 26.8998 11.725 27.6998 10.625C27.9463 11.0686 28.1635 11.5279 28.3498 12C28.7748 13.125 29.0998 14.3 29.3998 15.4C29.3249 15.3951 29.2497 15.3951 29.1748 15.4H29.0748ZM12.0498 24.6C13.2745 24.4689 14.4627 24.1039 15.5498 23.525C15.881 24.5442 16.2648 25.5455 16.6998 26.525C16.9251 26.9963 17.1755 27.4553 17.4498 27.9C17.7248 28.35 18.0248 28.775 18.3248 29.2L19.5998 30.825C17.6498 31.075 15.6748 31.4 13.6748 31.75C13.6748 30.925 13.6748 30.1 13.4998 29.25C13.4493 28.7797 13.3742 28.3124 13.2748 27.85C13.2748 27.4 13.0248 26.95 12.8748 26.525C12.7248 26.1 12.3248 25.225 12.0498 24.6Z" fill="black"/>
</g>
<defs>
<clipPath id="clip0_165_7148">
<rect width="60" height="60" fill="white"/>
</clipPath>
</defs>
</svg>
