<svg width="60" height="60" viewBox="0 0 60 60" fill="none" xmlns="http://www.w3.org/2000/svg">
<g clip-path="url(#clip0_166_4902)">
<path fill-rule="evenodd" clip-rule="evenodd" d="M9.67516 24.7251C12.1148 24.8128 14.5574 24.6873 16.9752 24.3501C20.5752 23.6251 20.6252 21.2501 21.2252 17.6251C21.5002 15.9251 20.9002 10.6251 20.9502 8.97505C20.9148 8.76523 20.8063 8.57471 20.6438 8.43732C20.4813 8.29992 20.2754 8.22453 20.0627 8.22453C19.8499 8.22453 19.644 8.29992 19.4815 8.43732C19.319 8.57471 19.2105 8.76523 19.1752 8.97505C19.1752 10.4001 19.3752 15.9251 19.1752 17.3001C17.9752 22.8751 19.3502 22.1001 6.90016 21.8501C3.97516 21.7501 3.25016 22.5001 2.92516 15.0001C2.65471 13.0403 2.75649 11.0471 3.22516 9.12505C8.82516 7.97505 15.3002 8.00005 18.2252 7.50005C18.4307 7.47353 18.6173 7.36644 18.7439 7.20235C18.8705 7.03825 18.9267 6.8306 18.9002 6.62505C18.8736 6.41951 18.7666 6.23292 18.6025 6.10633C18.4384 5.97975 18.2307 5.92353 18.0252 5.95005H17.5002C17.5466 4.54236 17.4376 3.13384 17.1752 1.75005C16.8252 0.675053 15.7252 0.350053 14.6752 0.250053C11.5438 0.0010447 8.39479 0.401057 5.42516 1.42505C4.12516 2.35005 4.42516 3.17505 4.70016 6.42505C1.40016 6.67505 0.325161 6.27505 0.00016148 11.8751C-0.0771975 14.3784 0.0146784 16.8841 0.275161 19.3751C1.00016 24.9001 3.27516 24.7751 8.07516 24.8001L9.67516 24.7251ZM45.0002 35.2501C35.5752 38.8501 36.2502 39.9501 37.5002 45.7751C37.8502 47.5001 40.3002 52.1751 40.8752 53.7501C40.9514 53.9722 41.1128 54.1549 41.3237 54.258C41.5347 54.3612 41.778 54.3763 42.0002 54.3001C42.2223 54.2238 42.405 54.0624 42.5082 53.8515C42.6113 53.6405 42.6264 53.3972 42.5502 53.1751C42.1252 51.7751 39.8502 46.7501 39.6502 45.3751C38.7502 39.7001 37.7752 40.9501 49.4502 36.7001C52.1252 35.7001 52.5002 34.7251 55.5252 41.7001C58.0252 47.4751 57.0252 46.5751 57.3752 47.3001C52.6252 50.3501 46.4752 52.7251 44.0752 54.1751C43.8928 54.2745 43.7575 54.4423 43.6989 54.6416C43.6403 54.8408 43.6632 55.0552 43.7627 55.2376C43.8621 55.4199 44.0299 55.5552 44.2292 55.6139C44.4284 55.6725 44.6428 55.6495 44.8252 55.5501L45.1752 55.3751C45.6425 56.6968 46.2546 57.9628 47.0002 59.1501C47.3734 59.5308 47.8585 59.7822 48.3847 59.8676C48.9109 59.9531 49.4507 59.8681 49.9252 59.6251C52.9069 58.7195 55.6719 57.2137 58.0502 55.2001C58.9252 53.9251 58.4502 53.3751 56.9752 50.3501C59.9502 48.8251 60.4752 48.9251 59.9002 45.6751C59.4502 43.1751 56.7002 36.0001 54.4752 34.0501C52.2502 32.1001 49.8752 33.4251 46.7002 34.6251L45.0002 35.2501ZM6.62516 4.00005C6.62516 3.17505 5.82516 3.82505 14.8752 2.92505C14.9705 3.15257 15.0877 3.37026 15.2252 3.57505C15.4619 4.39157 15.6209 5.22862 15.7002 6.07505L6.40016 6.30005C6.41025 5.52842 6.48552 4.75901 6.62516 4.00005ZM55.5002 54.0001C50.5002 56.2251 52.1502 55.5001 48.6252 57.3001C48.4752 57.1001 48.1502 56.9251 48.0502 56.8001C47.5506 56.1521 47.1152 55.4572 46.7502 54.7251C48.9752 53.8001 55.1502 51.2501 55.3252 51.1501C56.3002 54.4501 56.1252 53.6251 55.5002 53.9001V54.0001Z" fill="black"/>
<path fill-rule="evenodd" clip-rule="evenodd" d="M12.9 15.7501C13.0021 15.1292 13.0021 14.4959 12.9 13.8751C12.9 13.6501 12.375 11.0501 11.85 10.9001C11.325 10.7501 11.025 10.9001 10.625 11.9251C10.1657 12.8827 9.951 13.9392 10 15.0001C10.1486 16.1629 10.4599 17.299 10.925 18.3751C11.3 18.6001 11.6 18.7751 11.9 18.5751C12.95 17.9501 12.825 16.0001 12.9 15.7501Z" fill="black"/>
<path fill-rule="evenodd" clip-rule="evenodd" d="M49.2748 44.8001C49.1531 44.182 48.9247 43.5898 48.5998 43.0501C48.4748 42.8751 47.0248 40.5501 46.4748 40.7001C45.9248 40.8501 45.7498 41.0751 45.7498 42.1001C45.662 43.1742 45.8604 44.2525 46.3248 45.2251C46.9054 46.2554 47.6292 47.1981 48.4748 48.0251C48.8748 48.0251 49.2248 48.0251 49.4248 47.8501C50.1498 46.8001 49.2998 45.0001 49.2748 44.8001Z" fill="black"/>
<path fill-rule="evenodd" clip-rule="evenodd" d="M45.5251 32.05C45.3821 31.7152 45.2569 31.373 45.1502 31.025C44.1002 24.275 49.1502 21.025 50.4502 16.025C52.0002 9.99997 47.1252 4.52498 41.2502 2.74998C34.0252 0.599975 25.0002 4.99998 23.5002 12.5C22.7002 16.875 24.6752 21.275 25.5252 25.25C27.1502 32.75 25.2252 41.55 18.5252 45.25L16.0252 46.2C10.5502 47.75 8.32515 40.65 8.65015 35.2C8.65015 35.05 9.15015 30.05 9.42515 27.325C9.42515 25.625 7.82515 25.25 7.72515 27.525C7.32515 30.575 6.80015 35.025 6.77515 35.025C6.40504 38.8174 7.28282 42.6269 9.27515 45.875C11.6252 49.125 14.7502 49.325 18.5252 47.95C20.7745 47.0275 22.7861 45.6084 24.4096 43.7988C26.0331 41.9892 27.2263 39.8359 27.9002 37.5C31.5252 26.35 25.4002 19.25 26.4252 13.125C27.8002 5.39998 40.1252 1.42498 46.5502 9.09998C47.6167 10.3042 48.2678 11.8194 48.4074 13.422C48.5469 15.0246 48.1675 16.6295 47.3252 18C45.8252 20.925 43.7002 23.35 43.2252 27.675C42.9547 29.3608 43.1447 31.0883 43.7752 32.675C44.4002 34.175 45.8751 33.925 45.5251 32.05Z" fill="black"/>
</g>
<defs>
<clipPath id="clip0_166_4902">
<rect width="60" height="60" fill="white"/>
</clipPath>
</defs>
</svg>
