<svg width="60" height="60" viewBox="0 0 60 60" fill="none" xmlns="http://www.w3.org/2000/svg">
<g clip-path="url(#clip0_166_4903)">
<path d="M48.1253 26.4001C45.3003 22.0751 43.7253 24.9751 45.0003 25.6501C46.2876 26.7479 47.2145 28.2078 47.6604 29.8398C48.1063 31.4718 48.0505 33.2002 47.5003 34.8001C46.8053 37.2781 45.4686 39.5289 43.6253 41.3251C40.1503 44.3501 31.8253 41.3251 30.5753 39.8251C29.5042 38.3696 28.8867 36.6302 28.8003 34.8251C28.2753 28.2501 30.9503 25.1251 35.2003 24.2001C40.0003 23.0501 42.2003 24.7501 42.5003 23.2751C42.5072 23.1757 42.4935 23.0761 42.4602 22.9822C42.4268 22.8884 42.3745 22.8025 42.3065 22.7298C42.2385 22.6571 42.1562 22.5991 42.0648 22.5596C41.9735 22.5201 41.8749 22.4998 41.7753 22.5001C39.4794 22.0962 37.1343 22.054 34.8253 22.3751C33.4909 22.5342 32.2056 22.9754 31.0548 23.6694C29.9039 24.3633 28.9139 25.2942 28.1503 26.4001C26.7798 28.7041 26.069 31.3404 26.0954 34.0211C26.1219 36.7017 26.8846 39.3236 28.3003 41.6001C30.5503 44.5251 37.7003 45.8751 40.9253 45.3751C42.4851 45.0765 43.9462 44.3946 45.1769 43.3908C46.4075 42.3871 47.3692 41.093 47.9753 39.6251C49.2021 37.6432 49.8643 35.3641 49.8908 33.0334C49.9172 30.7028 49.3068 28.4092 48.1253 26.4001Z" fill="black"/>
<path d="M38.3004 25.5501C38.0936 25.5996 37.9129 25.7249 37.794 25.9011C37.675 26.0774 37.6265 26.2918 37.6579 26.5021C37.6892 26.7124 37.7983 26.9033 37.9635 27.0371C38.1288 27.171 38.3382 27.238 38.5504 27.2251C39.4259 27.2641 40.2835 27.4868 41.0673 27.8787C41.8512 28.2706 42.5439 28.823 43.1004 29.5C43.6855 30.7706 43.774 32.2141 43.3483 33.5466C42.9227 34.8791 42.0137 36.004 40.8004 36.7001C39.4368 37.1118 37.9899 37.1635 36.6004 36.85C35.9146 36.7717 35.2597 36.5216 34.6964 36.1227C34.1331 35.7239 33.6796 35.1893 33.3779 34.5685C33.0762 33.9477 32.9362 33.2608 32.9707 32.5714C33.0052 31.8821 33.2132 31.2126 33.5754 30.625C35.0004 27.6 36.8254 28 36.2504 26.875C35.1504 24.75 27.2504 32.5751 32.7254 37.7501C33.9689 38.791 35.4641 39.4868 37.0613 39.7676C38.6585 40.0485 40.3014 39.9044 41.8254 39.35C46.5254 37.4 48.0754 28.975 42.5254 26.425C41.2076 25.7989 39.7585 25.4988 38.3004 25.5501Z" fill="black"/>
<path d="M60 20.4751C59.9608 19.8799 59.7848 19.3017 59.4856 18.7857C59.1864 18.2697 58.7721 17.8297 58.275 17.5001C54.4947 15.9742 50.4746 15.1278 46.4 15.0001C44.75 13.3501 43.9 10.2001 41.625 8.50007C39.35 6.80007 35.35 6.95007 32.275 7.00007C31 7.00007 27.7 6.45007 26.5 7.67507C24.3 10.0001 23.425 12.9001 21.325 15.0001C19.1586 15.5092 16.9486 15.8106 14.725 15.9001C14.5052 15.1618 14.048 14.5166 13.4242 14.0646C12.8005 13.6126 12.045 13.379 11.275 13.4001C6.95 13.2501 2.625 13.4001 2.275 18.8251C1.08476 24.4845 0.32426 30.2259 0 36.0001C0 43.1251 1.05 53.7501 8.125 53.1001C9.62091 53.0266 11.0966 52.7231 12.5 52.2001C13.5853 51.8157 14.4807 51.0277 15 50.0001C50.875 51.5751 -0.150001 49.0001 31 50.8501C38.9048 51.3069 46.8316 51.2233 54.725 50.6001C55.2091 50.5944 55.6857 50.479 56.1187 50.2624C56.5517 50.0459 56.93 49.734 57.225 49.3501C58.725 46.5251 60.475 25.0001 60 20.4751ZM12.95 46.8751C11.2 48.5751 14 49.6751 7.95 50.3251C5.45 50.5751 4.3 47.8251 3.625 45.4751C1.125 36.0751 2.925 26.3501 4.5 16.5751C4.5 16.2501 11.425 13.9251 12.875 15.9251C13.55 16.8251 12.725 18.0501 13.85 19.2001C14.975 20.3501 17.075 19.9501 17.775 20.8751C18.2101 24.1235 18.2855 27.4101 18 30.6751C18 34.3001 18.25 38.4751 17.85 41.8751C17.85 42.5751 17.85 44.3751 17.55 44.7751C16.375 45.8751 14.475 45.3751 12.95 46.8751ZM56.375 36.6501C55.275 48.5751 54.525 47.4251 54.65 47.9001C54.45 47.9001 46.775 48.8501 39.275 48.9501C23.725 49.2001 23.6 47.8251 15.725 48.4751C17.825 47.8001 19.8 47.5001 20.35 45.0001C20.612 42.509 20.7288 40.0047 20.7 37.5001C20.7 35.2251 20.45 32.9251 20.4 30.7001C20.5662 27.3781 20.4323 24.048 20 20.7501C19.8843 20.2238 19.6278 19.7388 19.2579 19.3469C18.8881 18.955 18.4187 18.671 17.9 18.5251C16.675 18.1001 15.4 18.3001 15.125 17.6251C15.45 17.5001 18.8 17.5001 20.825 17.0751C22.275 16.8001 22.675 16.5001 23.875 14.9001C25.0941 12.8805 26.4559 10.9506 27.95 9.12507C31.1184 9.03211 34.2895 9.10722 37.45 9.35007C38.2796 9.3974 39.0844 9.65077 39.7915 10.0873C40.4987 10.5238 41.0859 11.1296 41.5 11.8501C43.45 14.8501 43.825 16.9751 45.95 17.5001C49.6689 17.6878 53.3369 18.4467 56.825 19.7501C57.775 21.7251 56.6 34.0501 56.375 36.6501Z" fill="black"/>
<path d="M40.1752 33.1252C39.6252 34.4252 40.5502 35.0752 41.7252 33.5502C42.0852 33.2295 42.3447 32.8115 42.4726 32.3466C42.6005 31.8817 42.5912 31.3898 42.4459 30.93C42.3006 30.4703 42.0254 30.0624 41.6536 29.7555C41.2817 29.4486 40.8291 29.2557 40.3502 29.2002C40.2782 29.1171 40.189 29.0509 40.0887 29.0062C39.9883 28.9614 39.8794 28.9393 39.7696 28.9413C39.6598 28.9433 39.5517 28.9694 39.4531 29.0177C39.3544 29.0661 39.2676 29.1355 39.1988 29.2211C39.1299 29.3067 39.0807 29.4064 39.0547 29.5131C39.0286 29.6198 39.0262 29.7309 39.0478 29.8386C39.0694 29.9463 39.1144 30.0479 39.1796 30.1363C39.2448 30.2247 39.3286 30.2977 39.4252 30.3502C39.7668 30.7166 40.0137 31.161 40.1444 31.6446C40.2751 32.1283 40.2857 32.6365 40.1752 33.1252Z" fill="black"/>
<path d="M13.2505 23.8251C12.9755 23.5501 12.1255 23.5501 11.8505 24.6001C11.5983 25.8642 11.4147 27.1411 11.3005 28.4251C10.8196 31.2742 10.7187 34.1745 11.0005 37.0501C11.0005 37.2501 11.1755 41.2751 11.2005 41.4751C11.225 41.6285 11.2923 41.7719 11.3947 41.8888C11.4971 42.0056 11.6305 42.0912 11.7794 42.1356C11.9283 42.18 12.0867 42.1814 12.2364 42.1398C12.3861 42.0981 12.5209 42.015 12.6255 41.9001C13.1811 39.4348 13.5158 36.9248 13.6255 34.4001C13.7996 30.8708 13.6742 27.3331 13.2505 23.8251Z" fill="black"/>
<path d="M27.5 17.2001C28.5126 17.7751 29.6607 18.0686 30.825 18.0501C32.5324 18.4172 34.2816 18.5517 36.025 18.4501C37.5 18.2501 39.075 17.5001 39.25 16.0001C39.2948 15.4343 39.2948 14.8659 39.25 14.3001C39.25 12.5001 39.675 10.0751 36.4 10.1751C27.725 10.4501 30.675 10.1751 30.075 10.1751C29.475 10.1751 29.425 10.4251 28.8 11.5251C27.9948 12.7378 27.4108 14.0836 27.075 15.5001C26.9728 15.7941 26.9586 16.1115 27.0341 16.4135C27.1096 16.7154 27.2715 16.9888 27.5 17.2001ZM30.95 12.2001C37.875 12.9251 36.525 12.2001 36.45 13.0501C36.375 13.9001 36.45 13.9251 36.45 14.4251C36.45 16.7251 29.1 15.6501 28.95 15.5751C28.975 14.8001 30 11.8501 31.025 12.0751L30.95 12.2001Z" fill="black"/>
</g>
<defs>
<clipPath id="clip0_166_4903">
<rect width="60" height="60" fill="white"/>
</clipPath>
</defs>
</svg>
