<svg width="60" height="60" viewBox="0 0 60 60" fill="none" xmlns="http://www.w3.org/2000/svg">
<g clip-path="url(#clip0_169_5080)">
<path fill-rule="evenodd" clip-rule="evenodd" d="M22.9255 45.325C22.1005 45.65 21.9505 47.125 22.6505 47.225C24.0187 47.5376 25.4254 47.6471 26.8255 47.55C27.9755 47.55 27.8255 45.475 27.1755 45.2C25.7576 45.1673 24.339 45.209 22.9255 45.325Z" fill="black"/>
<path fill-rule="evenodd" clip-rule="evenodd" d="M35.6001 47.3249C36.6501 47.1249 36.4751 45.5499 35.4001 45.3499C34.2594 45.2831 33.1158 45.2831 31.9751 45.3499C30.9251 45.6249 31.0251 47.6499 31.9751 47.5999L35.6001 47.3249Z" fill="black"/>
<path fill-rule="evenodd" clip-rule="evenodd" d="M49.6505 43.725C49.662 41.2201 49.5368 38.7164 49.2755 36.225C49.1464 35.0829 48.8603 33.964 48.4255 32.9C48.3233 32.6971 48.1461 32.5419 47.9315 32.4672C47.7168 32.3926 47.4816 32.4043 47.2755 32.5C47.0769 32.6068 46.9256 32.7842 46.8515 32.9971C46.7774 33.2101 46.786 33.4431 46.8755 33.65C47.3179 34.8842 47.5298 36.1893 47.5005 37.5V43.7C47.453 44.6024 47.3191 45.4982 47.1005 46.375C46.9102 47.1852 46.5618 47.9498 46.0755 48.625C45.6005 49.275 44.4005 49.425 43.2255 49.475C42.5208 49.5093 41.8148 49.4504 41.1255 49.3C40.8255 49.3 40.5505 49.175 40.4505 49.025C40.0251 48.3939 39.7435 47.677 39.6255 46.925C39.3514 45.5827 39.1925 44.2194 39.1505 42.85C39.1505 40.05 38.6755 37.625 38.7505 35.775C38.6835 34.9646 38.8668 34.1531 39.2755 33.45C40.1233 32.5723 41.2807 32.0609 42.5005 32.025C43.8397 31.8321 45.205 31.9345 46.5005 32.325C46.5904 32.3657 46.6876 32.3875 46.7863 32.3892C46.8849 32.391 46.9829 32.3725 47.0742 32.3351C47.1654 32.2976 47.2481 32.242 47.3171 32.1715C47.3861 32.1009 47.44 32.0171 47.4755 31.925C47.5161 31.8351 47.5379 31.7379 47.5397 31.6392C47.5414 31.5406 47.523 31.4426 47.4855 31.3514C47.4481 31.2601 47.3924 31.1774 47.3219 31.1084C47.2514 31.0394 47.1675 30.9855 47.0755 30.95C45.2675 30.2637 43.3145 30.0486 41.4005 30.325C39.9698 30.444 38.6297 31.0741 37.6255 32.1C35.8255 34.125 36.4505 38.2 36.3505 42.875C36.3505 43.55 36.8005 47.425 36.8005 47.5C37.0284 48.6706 37.4874 49.7839 38.1505 50.775C38.876 51.3717 39.7164 51.8127 40.6196 52.0707C41.5227 52.3288 42.4693 52.3983 43.4005 52.275C44.3003 52.2316 45.1822 52.0079 45.9939 51.6171C46.8056 51.2263 47.5304 50.6764 48.1255 50C48.6094 49.2234 48.9798 48.3815 49.2255 47.5C49.7298 46.3094 49.8774 44.998 49.6505 43.725Z" fill="black"/>
<path fill-rule="evenodd" clip-rule="evenodd" d="M54.6 44.625L53.625 44.425H52.675C52.1759 44.4839 51.6825 44.5843 51.2 44.725C50.375 45.125 50.225 46.4 51.025 46.675C51.825 46.95 52 47.025 52.55 47.175C52.8624 47.2494 53.18 47.2995 53.5 47.325H54.45C54.775 47.325 55.375 47.325 55.85 47.175C56.325 47.025 56.625 45.45 55.85 45.1C55.075 44.75 55 44.75 54.6 44.625Z" fill="black"/>
<path fill-rule="evenodd" clip-rule="evenodd" d="M12.3003 16.0249C12.8835 16.4748 13.5796 16.7548 14.3119 16.8342C15.0442 16.9136 15.7841 16.7893 16.4503 16.4749C17.0759 16.2031 17.6129 15.7614 18.0003 15.1999C18.8253 14.1249 18.3503 11.7999 17.5003 12.4999C17.2303 12.776 16.9875 13.0774 16.7753 13.3999C16.641 13.6062 16.4647 13.7819 16.2579 13.9155C16.0512 14.049 15.8185 14.1374 15.5753 14.1749C15.0335 14.3675 14.442 14.3675 13.9003 14.1749C13.487 14.0529 13.0919 13.8764 12.7253 13.6499C12.0503 13.1999 11.5253 12.8249 10.9753 12.4999C10.4253 12.1749 10.3503 13.9999 10.9753 14.9999C11.3738 15.394 11.8187 15.7381 12.3003 16.0249Z" fill="black"/>
<path fill-rule="evenodd" clip-rule="evenodd" d="M40.9501 15.5001C41.4807 15.8993 42.1095 16.1473 42.7698 16.2178C43.4301 16.2882 44.0972 16.1784 44.7001 15.9001C45.2585 15.6563 45.7418 15.2679 46.1001 14.7751C46.8501 13.8001 46.4251 11.7001 45.7251 12.2751C45.4876 12.5241 45.2702 12.7916 45.0751 13.0751C44.8148 13.4325 44.4322 13.6817 44.0001 13.7751C43.5069 13.9505 42.9682 13.9505 42.4751 13.7751C42.1044 13.6788 41.7504 13.5271 41.4251 13.3251C40.8001 12.9251 40.3501 12.5751 39.8251 12.3001C39.3001 12.0251 39.2751 13.6251 39.8251 14.4251C40.1534 14.8292 40.5314 15.1904 40.9501 15.5001Z" fill="black"/>
<path fill-rule="evenodd" clip-rule="evenodd" d="M59.7252 30.575C59.7319 28.9729 59.4262 27.385 58.8252 25.9C58.2716 25.2351 57.5808 24.6978 56.8002 24.325C55.5113 23.7537 54.2945 23.0321 53.1752 22.175C52.1704 21.3606 51.3231 20.3693 50.6752 19.25C49.9748 17.7353 49.5919 16.0932 49.5502 14.425C49.3453 10.5693 49.3453 6.70557 49.5502 2.84995C49.5906 2.36747 49.5906 1.88244 49.5502 1.39995C49.4945 1.07034 49.3267 0.770065 49.0752 0.549954C48.5831 0.316451 48.0448 0.196822 47.5002 0.199954C45.7252 0.199954 41.6002 0.199954 39.7252 0.349954C39.3677 0.315787 39.0077 0.315787 38.6502 0.349954C38.3951 0.407883 38.1653 0.545911 37.9944 0.743839C37.8235 0.941768 37.7204 1.18921 37.7002 1.44995C37.3752 5.34995 38.0002 11.275 36.2502 15.425C35.7228 16.7502 34.7921 17.876 33.5897 18.6432C32.3874 19.4104 30.9742 19.7801 29.5502 19.7C28.2166 19.8667 26.8625 19.7031 25.6069 19.2236C24.3514 18.7441 23.233 17.9633 22.3502 16.95C20.8685 14.6044 20.0559 11.8987 20.0002 9.12495C20.0002 8.19995 19.7752 3.59995 19.6002 1.62495C19.5584 1.22271 19.4396 0.832266 19.2502 0.474954C19.1419 0.33709 19.0058 0.223553 18.8507 0.141719C18.6956 0.0598854 18.5251 0.0115843 18.3502 -4.62495e-05C17.2346 -0.0699716 16.1157 -0.0699716 15.0002 -4.62495e-05C13.1055 0.0298424 11.2229 0.307191 9.40017 0.824954C9.27035 0.862819 9.15631 0.941769 9.07517 1.04995H8.92517C8.81133 1.0531 8.69929 1.0791 8.59569 1.12639C8.49209 1.17368 8.39905 1.24131 8.3221 1.32526C8.24515 1.40921 8.18585 1.50777 8.14773 1.61508C8.1096 1.72239 8.09343 1.83627 8.10017 1.94995L8.50017 8.67495C8.6937 11.3882 8.6937 14.1117 8.50017 16.825C8.46211 18.5422 8.1061 20.2375 7.45017 21.825C6.9973 22.7248 6.37805 23.5307 5.62517 24.2C3.92517 25.625 2.20017 25.9 1.22517 26.975C0.545602 28.0269 0.173288 29.2478 0.150174 30.5C-0.0998264 33.125 0.150174 36.6 0.150174 37.725V49.825C0.0234908 51.6138 0.124296 53.4115 0.450174 55.175C0.756528 56.4915 1.41301 57.7008 2.35017 58.675C3.31939 59.371 4.48189 59.7469 5.67517 59.75C9.33441 59.8839 12.9982 59.8172 16.6502 59.55H21.5252C28.0252 59.55 37.7752 59.95 41.3502 59.925C44.1002 59.925 47.3252 60.25 50.4252 59.925C52.6455 59.7684 54.7887 59.0454 56.6502 57.825C57.4068 57.3298 58.0558 56.6872 58.5584 55.9355C59.061 55.1837 59.4068 54.3384 59.5752 53.45C59.8729 51.213 59.9566 48.9528 59.8252 46.7C60.0002 44.125 60.0002 35.675 59.7252 30.575ZM28.9252 25.575C28.0752 41.175 28.3002 42.175 28.2752 50.575L28.4752 56.95H21.5002H16.5002C13.6252 57.125 10.7752 57.3 8.45017 57.325C7.29801 57.3678 6.14427 57.3176 5.00017 57.175C4.62517 57.175 4.30017 57.175 4.17517 56.95C3.51113 56.2585 3.05987 55.3907 2.87517 54.45C2.5602 52.9381 2.43423 51.3929 2.50017 49.85C2.50017 45.275 2.20017 32.65 2.25017 31.625C2.16105 30.4965 2.34989 29.3635 2.80017 28.325C3.72517 27.3 5.30017 27.05 6.97517 25.675C7.9296 24.84 8.70371 23.8192 9.25017 22.675C10.0013 20.8574 10.4082 18.9161 10.4502 16.95C10.4502 16.25 10.4502 9.22495 10.2752 8.52495L9.85017 2.24995H10.0002C10.8142 2.00309 11.6523 1.84385 12.5002 1.77495C14.1618 1.61569 15.832 1.56559 17.5002 1.62495H18.1002L18.3752 9.27495C18.1023 12.4543 18.9904 15.6249 20.8752 18.2C21.8834 19.4172 23.1659 20.3781 24.6173 21.0039C26.0688 21.6297 27.6479 21.9025 29.2252 21.8C29.1252 22.875 29.0002 24.225 28.9252 25.65V25.575ZM56.7502 52.725C56.648 53.2604 56.4408 53.7703 56.1404 54.2251C55.84 54.68 55.4525 55.0708 55.0002 55.375C53.5021 56.34 51.7793 56.8999 50.0002 57C47.0771 57.149 44.1483 57.149 41.2252 57H30.2002L30.5002 50.6C31.0252 35.95 30.8002 26 30.8002 25.75C30.8002 24.3 30.8002 22.9 30.6502 21.8C32.2945 21.7847 33.8948 21.2661 35.2356 20.3141C36.5765 19.3621 37.5936 18.0223 38.1502 16.475C39.3252 12.975 39.2502 11.25 39.9252 2.77495H47.0752C46.9252 7.27495 46.0252 16.725 48.3252 20.7C49.1197 22.0935 50.1519 23.3372 51.3752 24.375C52.4574 25.2669 53.6506 26.0148 54.9252 26.6C55.4991 26.8236 56.0251 27.1545 56.4752 27.575C56.4752 27.575 56.6002 28.125 56.6502 28.525C57.3502 33.325 56.8502 52.35 56.7502 52.725Z" fill="black"/>
<path fill-rule="evenodd" clip-rule="evenodd" d="M53.4256 33.1499C53.0506 33.1499 52.6756 33.1499 52.3006 33.3249C51.6511 33.4803 51.0156 33.6894 50.4006 33.9499C49.3006 34.5749 49.8006 35.3499 50.6256 35.8499C51.2006 35.8499 51.7756 36.0249 52.4006 36.0499C52.7919 36.0749 53.1843 36.0749 53.5756 36.0499C54.2904 35.8769 55.0176 35.7599 55.7506 35.6999C55.9474 35.5823 56.1103 35.4157 56.2235 35.2163C56.3366 35.017 56.3961 34.7916 56.3961 34.5624C56.3961 34.3332 56.3366 34.1078 56.2235 33.9085C56.1103 33.7091 55.9474 33.5425 55.7506 33.4249L55.0006 33.2499C54.4781 33.1843 53.9522 33.1509 53.4256 33.1499Z" fill="black"/>
<path fill-rule="evenodd" clip-rule="evenodd" d="M35.4751 35C33.2501 34.8 33.5751 34.675 32.0751 34.575C31.0001 34.825 30.9001 36.875 31.8251 37.075C33.2501 37.075 33.2251 37.075 35.2751 36.9C36.5001 36.775 36.3501 35 35.4751 35Z" fill="black"/>
<path fill-rule="evenodd" clip-rule="evenodd" d="M22.5 35.2498C21.85 35.5248 21.95 36.9748 22.65 37.0248H23.425C25.075 37.0248 26.5 37.1748 27.375 37.2498C28.25 37.3248 27.85 34.7498 27.175 34.7498C26.5773 34.6758 25.9727 34.6758 25.375 34.7498C24.407 34.8548 23.4467 35.0218 22.5 35.2498Z" fill="black"/>
<path fill-rule="evenodd" clip-rule="evenodd" d="M19.7002 31.375C19.2533 31.0349 18.7115 30.8426 18.1502 30.825C16.9252 30.825 14.9502 31.15 14.2752 31C14.063 30.947 13.8385 30.9805 13.651 31.093C13.4635 31.2055 13.3283 31.3878 13.2752 31.6L13.0502 31.375C12.8756 31.278 12.671 31.2499 12.4767 31.2962C12.2824 31.3425 12.1124 31.4597 12.0002 31.625C10.542 34.179 9.75094 37.0594 9.7002 40V48.6749C9.76189 49.7842 10.2555 50.8251 11.0752 51.5749C12.7951 52.273 14.6462 52.5886 16.5002 52.5C17.8696 52.5608 19.2239 52.1938 20.3752 51.45C21.0922 50.6093 21.5675 49.5897 21.7502 48.5C21.7502 48.05 22.3502 43.4999 22.3502 42.6249C22.3252 40.8499 22.5002 33.9 19.7002 31.375ZM19.7002 42.675C19.6469 43.9429 19.4965 45.205 19.2502 46.45C19.1346 47.1672 18.976 47.8768 18.7752 48.575C18.7752 48.9 18.6252 49.1999 18.4752 49.2999C17.6232 49.7184 16.6611 49.8584 15.7252 49.6999C11.3502 49.5249 12.3752 49.175 12.0252 45.225C11.8502 43.125 11.8002 40.95 11.7502 40C11.6745 38.678 11.7584 37.3518 12.0002 36.05C12.2132 34.8009 12.6448 33.5991 13.2752 32.5V32.35C13.3951 32.5433 13.582 32.6857 13.8002 32.75H18.2502C19.0109 33.756 19.4547 34.9657 19.5252 36.225C19.8021 38.3633 19.8691 40.5236 19.7252 42.675H19.7002Z" fill="black"/>
<path fill-rule="evenodd" clip-rule="evenodd" d="M5.29978 45L4.07478 45.2L2.97478 45.425C2.47478 46.125 2.39978 47.35 3.14978 47.55L5.34978 47.875H7.49978C8.04096 47.7863 8.57552 47.661 9.09978 47.5C9.74978 47.3 9.72478 45.4 8.82478 45.2C7.92478 45 7.79978 45 6.94978 45H5.29978Z" fill="black"/>
<path fill-rule="evenodd" clip-rule="evenodd" d="M6.39985 34.2C5.93352 34.1749 5.46617 34.1749 4.99985 34.2C4.02485 34.2 3.62485 34.4 2.92485 34.525C2.22485 34.65 2.24985 36.25 2.92485 36.575C3.58449 36.7349 4.25208 36.8601 4.92485 36.95C5.39073 36.9882 5.85896 36.9882 6.32485 36.95C6.79116 36.9756 7.25853 36.9756 7.72485 36.95C8.52485 36.95 8.77485 36.95 9.39985 36.75C10.0248 36.55 10.2998 34.7 9.54985 34.525C8.79985 34.35 8.77485 34.375 7.77485 34.25C7.31765 34.2103 6.85873 34.1936 6.39985 34.2Z" fill="black"/>
</g>
<defs>
<clipPath id="clip0_169_5080">
<rect width="60" height="60" fill="white"/>
</clipPath>
</defs>
</svg>
