<svg width="60" height="60" viewBox="0 0 60 60" fill="none" xmlns="http://www.w3.org/2000/svg">
<path d="M52.571 34.0699C51.9478 31.0306 50.665 28.1651 48.8133 25.6756C48.014 24.6756 47.1145 23.7599 46.129 22.9426C45.1495 22.1014 44.0673 21.3881 42.908 20.8196C41.517 20.1609 39.7845 19.8923 38.4913 19.2578C38.055 19.0981 37.691 18.7863 37.4665 18.3793C37.1013 16.8176 36.8888 15.2241 36.832 13.6211C36.832 12.1813 36.661 10.6928 36.6855 9.3996H37.2713C38.3095 9.36635 39.2463 8.76685 39.7113 7.83785C40.0088 6.7131 40.034 5.5336 39.7845 4.39735C39.701 3.52685 39.408 2.6896 38.9305 1.9571C38.4343 1.39885 37.7783 1.00685 37.0515 0.8346C35.894 0.6146 34.7125 0.5491 33.5378 0.63935C31.6343 0.63935 29.6823 0.8591 27.73 0.90785H25.29C23.669 0.7121 22.0305 0.7121 20.4095 0.90785C19.481 1.00285 18.6548 1.5386 18.189 2.3476C17.9073 2.9581 18.392 3.6446 19.0615 3.58335C19.3723 3.55485 19.6443 3.36285 19.775 3.0796C19.9948 2.64035 20.678 2.64035 21.41 2.61585C22.6615 2.6101 23.911 2.71635 25.1435 2.9331C25.9975 2.9331 26.8515 3.0796 27.7058 3.12835H33.5378C34.2633 3.1276 34.9885 3.16835 35.7095 3.25035C36.222 3.25035 36.6368 3.25035 36.8808 3.6651C37.1763 4.52135 37.3328 5.41935 37.3445 6.3251C35.32 6.88485 33.2203 7.1236 31.122 7.0326L22.4593 7.34985C21.9468 7.34985 21.2393 7.5206 20.5803 7.5206C20.3413 7.58985 20.0875 7.58985 19.8483 7.5206C19.653 7.37435 19.653 6.9351 19.6043 6.49585C19.5555 6.0566 19.4578 5.1536 19.4335 4.8366C19.3865 4.27285 18.747 3.9716 18.2825 4.2941C18.067 4.4436 17.9475 4.69685 17.9693 4.9586C17.9698 5.7741 18.0185 6.58885 18.1158 7.3986C18.1813 7.93285 18.4215 8.43035 18.799 8.81385C19.1843 9.1041 19.6383 9.2891 20.1168 9.35085H20.7268C20.7268 10.2781 20.9463 12.8646 20.922 15.2073C20.9643 16.4368 20.8493 17.6668 20.5803 18.8676C20.3313 19.3161 19.947 19.6746 19.4823 19.8923C18.5063 20.4293 17.335 20.7709 16.5785 21.2101C15.663 21.7414 14.7975 22.3538 13.9918 23.0401C13.1845 23.7093 12.4335 24.4438 11.7468 25.2363C10.8383 26.3373 10.1205 27.5829 9.62403 28.9211C8.92378 30.8291 8.40103 32.7979 8.06228 34.8019C7.32378 38.1744 6.86678 41.6024 6.69578 45.0506C6.63803 47.4564 6.97603 49.8553 7.69628 52.1516C8.32178 54.0578 9.58953 55.6881 11.2833 56.7636C13.6285 58.2446 16.3205 59.0861 19.0918 59.2036L41.8343 59.3988C43.7265 59.4243 45.601 59.0328 47.3248 58.2521C49.156 57.4138 50.6213 55.9401 51.4485 54.1038C52.033 52.6983 52.427 51.2211 52.62 49.7113C52.9128 47.5396 52.986 45.2703 53.1813 43.3668C53.4753 40.2553 53.2693 37.1164 52.571 34.0699ZM50.741 42.9276C50.5213 44.7823 50.4238 47.0271 50.0823 49.1258C49.8985 50.3953 49.5455 51.6346 49.0328 52.8103C48.4433 54.0626 47.4205 55.0593 46.1535 55.6166C44.7895 56.1981 43.3168 56.4809 41.8343 56.4464L19.165 56.2511C17.2715 56.1948 15.4103 55.7461 13.699 54.9334C12.0845 54.2336 10.8185 52.9148 10.1853 51.2731C9.51128 49.2521 9.18128 47.1321 9.20903 45.0018C9.29203 41.7238 9.65128 38.4586 10.2828 35.2411C10.5253 33.3579 10.9503 31.5029 11.5518 29.7019C11.935 28.5741 12.504 27.5186 13.2355 26.5784C13.8435 25.8481 14.504 25.1629 15.212 24.5286C15.9145 23.8981 16.6743 23.3344 17.4813 22.8449C18.3843 22.2836 19.9215 21.8689 20.8245 21.1369C21.4173 20.7466 21.877 20.1846 22.142 19.5263C22.4068 18.4736 22.53 17.3903 22.508 16.3053C22.508 13.8651 22.313 10.5953 22.191 9.3996H31.0243C32.0493 9.3996 33.5865 9.5216 35.0018 9.54585C35.0018 11.1808 35.0018 13.1331 35.1728 14.8656C35.2243 16.3386 35.4288 17.8026 35.7828 19.2333C36.164 20.0386 36.8223 20.6796 37.6373 21.0391C38.9063 21.6981 40.6875 21.9909 42.0785 22.6741C43.0628 23.2059 43.9803 23.8531 44.8115 24.6019C45.7008 25.3356 46.518 26.1526 47.2515 27.0421C48.8533 29.3199 49.9435 31.9168 50.4483 34.6553C50.9705 37.3813 51.0695 40.1716 50.741 42.9276Z" fill="black"/>
<path d="M39.4671 28.1891C36.4099 27.1758 33.0471 27.7821 30.5361 29.7996C29.8966 30.3046 29.3299 30.8958 28.8524 31.5563C28.7579 31.6513 28.6759 31.7578 28.6084 31.8736L28.4864 31.6783C28.1461 31.2408 27.7529 30.8473 27.3151 30.5071C25.7189 29.2131 23.6731 28.6071 21.6294 28.8233C19.2724 29.3151 17.5226 31.3033 17.3349 33.7038C17.2881 34.9028 17.4534 36.1006 17.8229 37.2421C18.3879 39.2983 19.5011 41.1626 21.0439 42.6348C23.2976 44.6668 25.9249 46.2413 28.7791 47.2713C28.9216 47.3196 29.0761 47.3196 29.2184 47.2713C28.8571 47.7978 29.2016 48.5181 29.8384 48.5676C30.0454 48.5838 30.2506 48.5216 30.4141 48.3936L34.0256 45.7338C36.4391 44.0026 38.6206 41.9688 40.5164 39.6823C41.9434 38.0111 42.7531 35.9006 42.8104 33.7038C42.9541 31.3483 41.6221 29.1508 39.4671 28.1891ZM38.7839 38.3158C37.0761 40.5276 35.1006 42.5191 32.9031 44.2453L29.7309 46.6856C29.8814 46.3216 29.7059 45.9048 29.3404 45.7583C26.7449 44.6983 24.3821 43.1398 22.3859 41.1708C21.1691 39.8833 20.3256 38.2891 19.9459 36.5588C19.7541 35.8258 19.6556 35.0716 19.6529 34.3138C19.6871 33.6976 19.8991 33.1043 20.2631 32.6056C20.7801 31.7676 21.7211 31.2876 22.7031 31.3611C23.8324 31.4893 24.8961 31.9573 25.7534 32.7033C26.0486 32.9371 26.3041 33.2173 26.5099 33.5328C26.7404 33.8923 26.9286 34.2773 27.0711 34.6798L27.3396 35.6558C27.3276 35.8753 27.3276 36.0953 27.3396 36.3148C27.4071 36.6041 27.5706 36.8621 27.8031 37.0468C28.0901 37.3188 28.4856 37.4446 28.8769 37.3883C29.2614 37.3683 29.6181 37.1813 29.8529 36.8761C30.0576 36.6101 30.1994 36.3016 30.2676 35.9731C30.2676 35.5338 30.2676 34.8993 30.4141 34.6066C30.5654 34.0971 30.8049 33.6181 31.1219 33.1913C31.4699 32.7308 31.8714 32.3131 32.3174 31.9468C33.7786 30.7621 35.6399 30.1853 37.5151 30.3363C39.2441 30.5156 40.5304 32.0166 40.4434 33.7526C40.4254 35.4181 39.8401 37.0278 38.7839 38.3158Z" fill="black"/>
</svg>
