<svg width="60" height="60" viewBox="0 0 60 60" fill="none" xmlns="http://www.w3.org/2000/svg">
<g clip-path="url(#clip0_169_5124)">
<path fill-rule="evenodd" clip-rule="evenodd" d="M57.4995 1.70003C56.1669 0.694217 54.5148 0.205695 52.8495 0.325031C52.2451 0.391845 51.6547 0.552086 51.0995 0.800031C50.3629 1.21103 49.6823 1.71518 49.0745 2.30003C48.992 2.37934 48.9265 2.47446 48.8817 2.57971C48.8369 2.68495 48.8138 2.79815 48.8138 2.91253C48.8138 3.02691 48.8369 3.14011 48.8817 3.24536C48.9265 3.3506 48.992 3.44573 49.0745 3.52503C49.1516 3.60675 49.2446 3.67185 49.3478 3.71635C49.4509 3.76084 49.5621 3.78379 49.6745 3.78379C49.7868 3.78379 49.898 3.76084 50.0012 3.71635C50.1044 3.67185 50.1974 3.60675 50.2745 3.52503C50.6862 3.14636 51.1295 2.80345 51.5995 2.50003C52.0467 2.25595 52.5412 2.111 53.0495 2.07503C54.2177 2.07275 55.3499 2.47963 56.2495 3.22503C56.7049 3.51314 57.0882 3.90184 57.3699 4.36123C57.6516 4.82063 57.8242 5.33849 57.8745 5.87503C57.8835 6.74214 57.6864 7.59899 57.2995 8.37503C56.8961 9.16822 56.3827 9.90045 55.7745 10.55L52.7495 13.95C51.9995 13.15 51.2245 12.35 50.3995 11.6C49.9995 11.225 49.5745 10.9 49.1745 10.55L48.3495 10L46.2495 8.77503L45.8495 8.47503L46.5245 7.50003L48.2245 5.37503C48.2843 5.29325 48.3264 5.19982 48.3479 5.10078C48.3695 5.00174 48.37 4.89929 48.3495 4.80003C48.3495 4.42503 47.9745 3.85003 47.2245 4.30003C46.4995 3.75003 45.8745 3.10003 45.1745 2.55003C44.7489 2.23068 44.2874 1.96219 43.7995 1.75003C43.4034 1.585 42.9786 1.50003 42.5495 1.50003C42.1204 1.50003 41.6955 1.585 41.2995 1.75003C40.5318 2.1272 39.8242 2.61582 39.1995 3.20003C38.3749 3.93276 37.5983 4.71771 36.8745 5.55003C35.874 6.81204 34.9475 8.13091 34.0995 9.50003C33.9391 9.66359 33.8493 9.8835 33.8493 10.1125C33.8493 10.3416 33.9391 10.5615 34.0995 10.725C34.2588 10.8838 34.4745 10.973 34.6995 10.973C34.9244 10.973 35.1401 10.8838 35.2995 10.725C36.0495 9.95003 36.8245 9.25003 37.5745 8.55003C38.6927 7.49296 39.8695 6.49972 41.0995 5.57503C41.4495 5.27503 41.8745 4.90003 42.3245 4.57503C42.7745 4.25003 42.7245 4.17503 42.9995 4.22503C43.3244 4.27305 43.643 4.35689 43.9495 4.47503C44.6495 4.80003 45.3245 5.22503 46.0245 5.57503L45.1495 6.60003C41.6745 10.675 34.0495 19.6 30.9245 23.65C30.216 24.4667 29.665 25.4076 29.2995 26.425C29.2995 27.125 28.9745 32.15 29.0245 34.2C28.9951 34.4492 28.9951 34.7009 29.0245 34.95C28.6411 35.1838 28.2736 35.4427 27.9245 35.725C27.7058 35.9147 27.505 36.1239 27.3245 36.35C27.1519 36.5734 26.9933 36.8072 26.8495 37.05C25.4745 39.3 25.7745 39.55 25.7995 39.55C25.8342 39.7413 25.9417 39.9115 26.0995 40.025C26.2433 40.1583 26.4288 40.2378 26.6245 40.25C26.6245 40.25 26.9995 40.475 28.9745 38.725C29.1987 38.5509 29.4003 38.3493 29.5745 38.125C29.765 37.9187 29.9326 37.6924 30.0745 37.45C30.2669 37.1215 30.4341 36.7789 30.5745 36.425C31.1281 36.527 31.6958 36.527 32.2495 36.425C34.4092 35.9245 36.5311 35.2729 38.5995 34.475C39.0119 34.3142 39.3743 34.0468 39.6495 33.7C40.2745 33.025 41.4995 31.6 43.0245 29.725C47.4245 24.325 54.4495 15.3 57.2745 12.025C58.0019 11.1984 58.608 10.2725 59.0745 9.27503C59.6269 8.24056 59.9428 7.09638 59.9995 5.92503C59.9204 5.07993 59.6553 4.2628 59.223 3.53232C58.7908 2.80183 58.2022 2.17609 57.4995 1.70003ZM38.0995 31.325L37.6245 31.825C35.7971 32.5821 33.9064 33.1761 31.9745 33.6V26.775C32.1995 26.775 30.4245 28 44.6995 9.80003L45.0245 10.125L46.3745 11.75C47.0284 12.5449 47.7754 13.2584 48.5995 13.875C49.4956 14.471 50.4311 15.0055 51.3995 15.475C49.2745 17.975 46.8245 20.825 44.5745 23.525C41.8245 26.9 39.3245 30 38.0995 31.325Z" fill="black"/>
<path fill-rule="evenodd" clip-rule="evenodd" d="M46.5747 43.8251L44.8247 39.8251C44.804 39.7159 44.76 39.6123 44.6957 39.5216C44.6315 39.4308 44.5484 39.3549 44.4522 39.2991C44.356 39.2433 44.2489 39.2088 44.1382 39.1981C44.0275 39.1873 43.9158 39.2005 43.8106 39.2368C43.7055 39.273 43.6094 39.3315 43.5288 39.4082C43.4483 39.4849 43.3852 39.5781 43.3438 39.6813C43.3025 39.7846 43.2838 39.8955 43.2892 40.0066C43.2945 40.1177 43.3237 40.2263 43.3747 40.3251L45.0997 44.5751C46.4497 47.2751 47.5997 48.6501 48.1497 49.7501C48.503 50.2976 48.6286 50.9614 48.4997 51.6001C48.4997 51.7251 48.2497 51.7501 47.9997 51.9001C47.1275 52.3632 46.2047 52.7239 45.2497 52.9751C39.4302 54.5034 33.4927 55.5404 27.4997 56.0751C21.5725 56.8249 15.5888 57.0258 9.62471 56.6751C8.78088 56.6043 7.94455 56.4621 7.12471 56.2501C6.88335 56.16 6.64932 56.0514 6.42471 55.9251C6.13172 55.4007 5.87285 54.8579 5.64971 54.3001C5.40719 53.7803 5.22274 53.2354 5.09971 52.6751C3.88899 45.7729 3.12076 38.8004 2.79971 31.8001C2.28169 25.0768 2.28169 18.3235 2.79971 11.6001C5.12471 11.0501 8.27471 10.5251 11.7997 10.0751C16.5247 9.47515 21.7997 9.05015 26.7997 8.87515C26.9135 8.8752 27.0261 8.85241 27.1309 8.80814C27.2357 8.76387 27.3305 8.69901 27.4098 8.61741C27.489 8.53582 27.5511 8.43914 27.5923 8.33311C27.6335 8.22708 27.6531 8.11386 27.6497 8.00015C27.6432 7.77244 27.5481 7.55625 27.3848 7.39753C27.2214 7.2388 27.0025 7.15005 26.7747 7.15015C21.7747 7.15015 16.4497 7.55015 11.6497 8.02515C8.2897 8.33972 4.95076 8.8489 1.64971 9.55015C1.43359 9.60529 1.23817 9.72209 1.08725 9.88633C0.936329 10.0506 0.836427 10.2551 0.799712 10.4751C-0.0427245 17.6012 -0.235184 24.7892 0.224712 31.9501C0.495674 39.0938 1.25579 46.2104 2.49971 53.2501C2.64757 53.8604 2.83122 54.4615 3.04971 55.0501C3.38765 55.8549 3.77162 56.6395 4.19971 57.4001C4.74322 58.0245 5.41055 58.5292 6.15937 58.8821C6.9082 59.235 7.72218 59.4284 8.54971 59.4501C13.4971 59.873 18.4756 59.764 23.3997 59.1251C31.6939 58.4286 39.8761 56.7502 47.7747 54.1251C49.4747 53.4001 50.2747 52.5251 50.4497 51.8501C50.6003 51.1316 50.5395 50.3849 50.2747 49.7001C49.6747 48.4751 48.3497 47.2001 46.5747 43.8251Z" fill="black"/>
<path fill-rule="evenodd" clip-rule="evenodd" d="M24.1749 29.0749C24.0996 28.8355 23.9369 28.6331 23.7192 28.5081C23.5015 28.383 23.2448 28.3444 22.9999 28.3999C22.7999 28.3999 22.9999 28.1999 22.1249 28.3999C20.1999 28.6249 17.1249 29.1499 14.4749 29.5249C13.6749 29.6499 12.8999 29.7499 12.1999 29.8999C10.5749 30.1999 9.34994 30.5499 8.87494 30.5999C8.71505 30.6306 8.57083 30.716 8.46711 30.8414C8.36338 30.9669 8.30664 31.1246 8.30664 31.2874C8.30664 31.4502 8.36338 31.6079 8.46711 31.7334C8.57083 31.8589 8.71505 31.9443 8.87494 31.9749C10.1231 32.1729 11.3866 32.2566 12.6499 32.2249C13.7749 32.2249 15.1499 32.0749 16.3249 31.9499C18.2935 31.7609 20.2477 31.4435 22.1749 30.9999C23.9999 30.3999 24.3249 29.6249 24.1749 29.0749Z" fill="black"/>
<path fill-rule="evenodd" clip-rule="evenodd" d="M13.6244 19.425C11.9305 19.7987 10.2608 20.2745 8.62444 20.85C8.44462 20.8973 8.28987 21.0119 8.19216 21.1701C8.09445 21.3283 8.06125 21.518 8.09944 21.7C8.14648 21.8786 8.26222 22.0314 8.42144 22.1251C8.58066 22.2187 8.77045 22.2457 8.94944 22.2C11.1744 21.85 13.3244 21.775 15.5744 21.6C18.6744 21.325 21.8994 21 25.5744 20.525C26.5244 20.4 27.5244 20.325 28.5244 20.1C28.8442 20.1106 29.1639 20.0769 29.4744 20C29.6244 20 29.6744 19.825 29.8244 19.725C30.0682 19.6821 30.2856 19.5457 30.4303 19.345C30.5751 19.1442 30.6358 18.8948 30.5994 18.65C30.4494 17.5 28.4494 17.5 28.2494 17.5C23.9744 17.8 20.3494 18.325 16.9744 18.775C15.8244 19.025 14.7244 19.175 13.6244 19.425Z" fill="black"/>
<path fill-rule="evenodd" clip-rule="evenodd" d="M22.0243 39.6001C21.6993 39.6001 21.2993 39.6001 20.8493 39.7251L17.5993 40.2251C15.8993 40.5001 14.0993 40.7751 12.7243 41.1251C11.9622 41.3176 11.2111 41.5513 10.4743 41.8251H10.3243C10.202 41.7883 10.0716 41.7883 9.94933 41.8251C9.94933 41.8251 9.62433 43.0501 10.6493 43.1501C11.0743 43.1501 11.8993 43.3001 13.1493 43.3001C14.8223 43.2462 16.4913 43.1043 18.1493 42.8751C19.3743 42.7251 20.6493 42.5501 21.4743 42.3751C21.8301 42.318 22.181 42.2344 22.5243 42.1251C22.9519 41.9471 23.3485 41.7024 23.6993 41.4001C23.9284 41.2777 24.1008 41.0709 24.1801 40.8236C24.2594 40.5764 24.2394 40.3079 24.1243 40.0751C23.8993 40.0001 23.7993 39.6501 22.0243 39.6001Z" fill="black"/>
</g>
<defs>
<clipPath id="clip0_169_5124">
<rect width="60" height="60" fill="white"/>
</clipPath>
</defs>
</svg>
