<svg width="60" height="60" viewBox="0 0 60 60" fill="none" xmlns="http://www.w3.org/2000/svg">
<g clip-path="url(#clip0_165_7346)">
<path fill-rule="evenodd" clip-rule="evenodd" d="M25.2501 8.72498C23.579 9.12787 21.9474 9.68009 20.3751 10.375C18.7053 11.0326 17.1125 11.8709 15.6251 12.875C15.4445 13.0167 15.3214 13.2191 15.2785 13.4446C15.2356 13.6701 15.2757 13.9035 15.3916 14.1017C15.5074 14.2999 15.6911 14.4494 15.9087 14.5226C16.1263 14.5958 16.363 14.5878 16.5751 14.5C18.1059 13.8173 19.6752 13.2246 21.2751 12.725C22.7733 12.2421 24.3016 11.8579 25.8501 11.575C28.1361 11.1108 30.4689 10.9178 32.8001 11C36.1446 11.0049 39.4322 11.8655 42.3501 13.5C43.0751 13.95 44.3251 13.025 43.7501 12.3C40.6286 9.94582 36.8786 8.57111 32.9751 8.34998C30.3961 8.07674 27.7905 8.20323 25.2501 8.72498Z" fill="black"/>
<path fill-rule="evenodd" clip-rule="evenodd" d="M53.925 20.475C53.3485 16.9761 52.4015 13.5485 51.1 10.25C51.0658 10.1398 51.0102 10.0375 50.9363 9.94886C50.8624 9.86025 50.7718 9.78712 50.6696 9.73368C50.5673 9.68024 50.4555 9.64754 50.3406 9.63747C50.2257 9.6274 50.1099 9.64015 50 9.67499C50 9.67499 49.85 9.67499 49.775 9.84999C49.9003 9.30401 49.8387 8.73175 49.6 8.22499C49.4844 8.03235 49.3087 7.88303 49.1 7.79999C49.0735 7.61047 48.9857 7.43483 48.85 7.29999C45.0547 3.8157 40.3464 1.48322 35.275 0.574987C30.1926 -0.427608 24.9397 -0.135302 20 1.42499L17.325 2.49999L14.825 3.99999C12.5159 5.32873 10.5407 7.16711 9.04996 9.37499C8.66144 10.1488 8.48054 11.0103 8.52496 11.875C7.47341 14.4984 6.68617 17.2203 6.17496 20C5.85054 22.188 5.85054 24.4119 6.17496 26.6C6.49795 28.2364 7.07135 29.8133 7.87496 31.275C8.5903 32.7531 9.47093 34.1453 10.5 35.425C12.3393 37.6408 14.6438 39.4247 17.25 40.65C19.8328 41.8309 22.5968 42.5663 25.425 42.825C26.425 42.825 27.775 43.025 29.175 43.025C28.975 43.85 28.8 44.675 28.675 45.525C28.6376 46.1578 28.6376 46.7922 28.675 47.425V47.825C27.8388 47.7962 27.0017 47.8465 26.175 47.975C24.0305 48.3517 21.951 49.0336 20 50C19.3471 50.2839 18.7595 50.699 18.2735 51.2193C17.7876 51.7396 17.4137 52.3542 17.175 53.025C17.0285 53.5545 17.0088 54.111 17.1174 54.6496C17.226 55.1881 17.4598 55.6936 17.8 56.125C18.7762 57.4817 20.2027 58.4475 21.825 58.85C23.9026 59.3238 26.0203 59.6 28.15 59.675C29.175 59.675 30.175 59.9 31.175 59.95C31.8908 59.9998 32.6092 59.9998 33.325 59.95C34.2218 59.8895 35.1147 59.781 36 59.625C36.875 59.475 37.725 59.275 38.5 59.075C41.0571 58.4715 43.3426 57.0386 45 55C45.3819 54.3473 45.5163 53.579 45.3786 52.8354C45.2409 52.0918 44.8403 51.4226 44.25 50.95L42.825 49.825C41.6248 49.1498 40.3254 48.6689 38.975 48.4C37.0475 48.0374 35.083 47.9115 33.125 48.025H31.4C31.413 47.8335 31.413 47.6414 31.4 47.45V45.65C31.4 45.05 31.275 43.85 31.225 42.95C32.2436 42.8799 33.2551 42.7295 34.25 42.5C39.2049 41.5369 43.8638 39.4216 47.85 36.325C50.4779 34.045 52.3667 31.0335 53.275 27.675C53.9474 25.3381 54.168 22.8945 53.925 20.475ZM11.65 10.65C12.8782 8.86581 14.4825 7.37245 16.35 6.27499L18.525 4.99999L20.875 3.99999C25.3951 2.37061 30.253 1.90632 35 2.64999C39.7712 3.3018 44.2562 5.30573 47.925 8.42499H48.075C48.027 8.59669 48.027 8.77828 48.075 8.94999C48.225 9.19999 48.075 9.49999 48.075 9.79999C47.8754 10.235 47.6144 10.6391 47.3 11C45.2898 12.7785 42.9672 14.1687 40.45 15.1C37.4108 16.073 34.2763 16.7183 31.1 17.025C27.9316 17.2946 24.7424 17.1855 21.6 16.7C21.025 16.7 14.975 15.95 12.375 13.275C11.9838 12.9768 11.7012 12.5587 11.5702 12.0846C11.4393 11.6106 11.4673 11.1066 11.65 10.65ZM31.375 49.8H33.2C34.709 49.7956 36.2153 49.9295 37.7 50.2C39.1054 50.4388 40.4486 50.9574 41.65 51.725L42.575 52.525C43.125 53.125 42.875 53.65 42.425 54.1C41.1371 55.1507 39.6077 55.8639 37.975 56.175C37.025 56.4 36.05 56.575 35.075 56.725C34.1 56.875 33.8 56.9 33.175 56.95C32.55 57 31.975 56.95 31.375 56.95C30.4 56.95 29.45 56.775 28.475 56.7C26.4748 56.7306 24.4757 56.5884 22.5 56.275C21.4278 56.0671 20.4531 55.514 19.725 54.7C19.5588 54.5223 19.447 54.3007 19.4027 54.0615C19.3584 53.8223 19.3835 53.5754 19.475 53.35C19.8054 52.7411 20.3104 52.2448 20.925 51.925C22.6282 50.9254 24.4626 50.1681 26.375 49.675C27.1153 49.5234 27.8692 49.448 28.625 49.45C28.7934 50.8798 29.0438 52.2988 29.375 53.7C29.3873 53.8119 29.4218 53.9203 29.4765 54.0188C29.5311 54.1172 29.6047 54.2039 29.6931 54.2737C29.7815 54.3434 29.8829 54.395 29.9913 54.4252C30.0998 54.4555 30.2132 54.4639 30.325 54.45C30.5482 54.4248 30.7532 54.3147 30.8974 54.1425C31.0417 53.9703 31.1142 53.7492 31.1 53.525C31.2 52.3 31.3 51.075 31.375 49.8ZM51.1 27.1C50.1806 29.9687 48.4427 32.5061 46.1 34.4C42.398 37.1123 38.1206 38.9345 33.6 39.725C32.3354 40.0034 31.0448 40.1459 29.75 40.15C28.4149 40.1763 27.0793 40.1263 25.75 40C23.2263 39.8045 20.7518 39.1964 18.425 38.2C16.1535 37.1255 14.1344 35.5835 12.5 33.675C11.5413 32.585 10.7032 31.3948 9.99996 30.125C9.25838 28.8997 8.71027 27.5674 8.37496 26.175C7.96458 24.1945 7.84666 22.1646 8.02496 20.15C8.29287 18.174 8.76198 16.2306 9.42496 14.35C9.66563 14.719 9.93302 15.07 10.225 15.4C11.4338 16.5191 12.8649 17.371 14.425 17.9C16.6069 18.6633 18.8735 19.1586 21.175 19.375C24.4968 19.7664 27.8531 19.7664 31.175 19.375C34.4975 18.9312 37.7651 18.1437 40.925 17.025C42.3624 16.537 43.7449 15.9002 45.05 15.125C46.4049 14.3266 47.6001 13.284 48.575 12.05C48.8832 11.6171 49.151 11.1569 49.375 10.675C50.5715 13.8381 51.41 17.1252 51.875 20.475C52.0358 22.7124 51.7729 24.9601 51.1 27.1Z" fill="black"/>
<path fill-rule="evenodd" clip-rule="evenodd" d="M45.5753 18.3749C45.4038 18.6618 45.2027 18.93 44.9753 19.1749C44.5753 19.5749 44.1503 19.9249 43.6753 20.3499C42.1449 21.746 40.2879 22.7346 38.2753 23.2249C35.1188 23.9378 31.8848 24.2486 28.6503 24.1499C26.8753 24.1499 25.0003 24.2749 23.1503 24.1499C21.3924 24.1281 19.6478 23.8416 17.9753 23.2999C16.8879 22.9422 15.8843 22.3679 15.0249 21.6117C14.1656 20.8554 13.4684 19.933 12.9753 18.8999C12.9372 18.807 12.8807 18.7226 12.8094 18.6519C12.738 18.5812 12.6532 18.5255 12.56 18.4882C12.4667 18.4509 12.3669 18.4327 12.2664 18.4347C12.166 18.4367 12.067 18.4589 11.9753 18.4999C11.88 18.535 11.7932 18.5897 11.7204 18.6605C11.6476 18.7314 11.5905 18.8167 11.5528 18.9109C11.5151 19.0052 11.4976 19.1063 11.5015 19.2078C11.5054 19.3093 11.5305 19.4088 11.5753 19.4999C12.0552 20.7966 12.792 21.983 13.7413 22.9882C14.6907 23.9934 15.8331 24.7967 17.1003 25.3499C19.3147 26.3184 21.6864 26.8774 24.1003 26.9999H28.7253C32.1927 26.9709 35.6404 26.4747 38.9753 25.5249C41.272 24.7867 43.3446 23.4795 45.0003 21.7249C45.4503 21.2499 45.9003 20.8249 46.2753 20.3749C46.5818 20.0172 46.8422 19.6225 47.0503 19.1999C47.1241 19.0991 47.1754 18.9837 47.2009 18.8614C47.2263 18.7391 47.2253 18.6127 47.1978 18.4908C47.1704 18.369 47.1171 18.2544 47.0417 18.1548C46.9663 18.0552 46.8704 17.9729 46.7606 17.9135C46.6507 17.8541 46.5293 17.8188 46.4047 17.8102C46.2801 17.8016 46.1551 17.8197 46.038 17.8634C45.921 17.9071 45.8147 17.9754 45.7263 18.0636C45.6378 18.1518 45.5693 18.258 45.5253 18.3749H45.5753Z" fill="black"/>
</g>
<defs>
<clipPath id="clip0_165_7346">
<rect width="60" height="60" fill="white"/>
</clipPath>
</defs>
</svg>
