<svg width="60" height="60" viewBox="0 0 60 60" fill="none" xmlns="http://www.w3.org/2000/svg">
<g clip-path="url(#clip0_165_7347)">
<path fill-rule="evenodd" clip-rule="evenodd" d="M23.6494 11.4999C23.9452 11.2469 24.2632 11.021 24.5994 10.8249C25.1244 10.4999 25.6744 10.2249 26.2244 9.9499C26.7744 9.6749 27.5994 9.3249 28.4744 8.9249L30.6744 7.9249C31.5887 7.41478 32.5884 7.07589 33.6244 6.9249C36.7994 8.1499 38.6244 7.1749 36.3494 5.6499L35.6244 5.2499C34.9018 4.83974 34.1161 4.5525 33.2994 4.3999C31.9997 4.44978 30.7201 4.73789 29.5244 5.2499C28.6596 5.6004 27.8237 6.01835 27.0244 6.4999C26.2786 6.99286 25.5608 7.52702 24.8744 8.0999L23.3744 9.4249C23.0645 9.75059 22.7724 10.0927 22.4994 10.4499C22.3602 10.5958 22.2846 10.791 22.2893 10.9926C22.294 11.1942 22.3785 11.3857 22.5244 11.5249C22.6703 11.6641 22.8655 11.7397 23.0671 11.735C23.2687 11.7304 23.4602 11.6458 23.5994 11.4999H23.6494Z" fill="black"/>
<path fill-rule="evenodd" clip-rule="evenodd" d="M40.1495 7.79994C40.0867 8.01871 40.1117 8.25335 40.219 8.45406C40.3264 8.65476 40.5077 8.80573 40.7245 8.87494C42.147 9.38655 43.4993 10.0753 44.7495 10.9249C46.0014 11.6734 47.1312 12.6092 48.0995 13.6999C48.3855 14.0668 48.6209 14.4704 48.7995 14.8999C48.9385 15.1871 48.9823 15.5112 48.9245 15.8249C48.7745 16.4249 48.0745 16.9499 47.3495 17.4749C46.1674 18.329 44.8603 18.9952 43.4745 19.4499C42.9518 19.6 42.3973 19.6 41.8745 19.4499C41.1798 19.1859 40.5104 18.8596 39.8745 18.4749L34.5245 15.1999C34.0582 14.9034 33.63 14.5508 33.2495 14.1499C33.0245 13.8999 32.7745 13.6499 32.8245 13.3249C32.8783 13.1014 33.0007 12.9003 33.1745 12.7499C33.44 12.4559 33.733 12.188 34.0495 11.9499C34.6784 11.4463 35.3473 10.9948 36.0495 10.5999C37.0745 10.0499 38.1245 9.62494 39.4745 9.02494C39.6578 8.94262 39.802 8.79234 39.8766 8.60577C39.9513 8.41921 39.9505 8.21096 39.8745 8.02494C39.8364 7.932 39.78 7.84767 39.7087 7.77695C39.6373 7.70623 39.5525 7.65057 39.4592 7.61326C39.3659 7.57595 39.2661 7.55776 39.1657 7.55976C39.0653 7.56177 38.9662 7.58393 38.8745 7.62494C37.6666 7.94878 36.4941 8.39265 35.3745 8.94994L34.9995 9.14994C34.2726 9.49136 33.5708 9.88401 32.8995 10.3249C32.3794 10.6688 31.8938 11.0623 31.4495 11.4999C31.0612 11.9054 30.7854 12.4052 30.6495 12.9499C30.5778 13.3474 30.585 13.755 30.6708 14.1497C30.7566 14.5443 30.9192 14.9182 31.1495 15.2499C31.6626 16.0062 32.296 16.6733 33.0245 17.2249C33.8793 17.9354 34.7814 18.5869 35.7245 19.1749C36.5995 19.7749 37.5245 20.2999 38.4745 20.8499C39.439 21.4726 40.4928 21.9447 41.5995 22.2499C42.484 22.4865 43.4151 22.4865 44.2995 22.2499C46.0021 21.684 47.5988 20.8392 49.0245 19.7499C50.2486 18.9864 51.141 17.7907 51.5245 16.3999C51.6443 15.7359 51.575 15.0515 51.3245 14.4249C51.0137 13.6279 50.5652 12.8917 49.9995 12.2499C48.7891 11.0278 47.3978 9.9991 45.8745 9.19994C44.4311 8.36671 42.8959 7.70393 41.2995 7.22494C41.1874 7.17353 41.0652 7.14793 40.9418 7.15002C40.8185 7.15211 40.6972 7.18183 40.5868 7.237C40.4765 7.29217 40.3799 7.37138 40.3042 7.4688C40.2286 7.56623 40.1757 7.67938 40.1495 7.79994Z" fill="black"/>
<path fill-rule="evenodd" clip-rule="evenodd" d="M59.9996 24.9998C59.9947 24.362 59.8565 23.7323 59.5938 23.1511C59.3312 22.5699 58.95 22.05 58.4746 21.6248C58.1739 21.4684 57.8384 21.391 57.4996 21.3998C57.1246 20.9248 56.6246 20.3248 56.0246 19.6998C55.4246 19.0748 55.4246 19.1248 55.0996 18.8748C54.7739 18.6189 54.4315 18.385 54.0746 18.1748H53.8996C51.7746 16.8498 50.4746 18.4998 52.1996 20.2248C52.3529 20.412 52.52 20.5875 52.6996 20.7498C53.1928 21.1748 53.7195 21.5594 54.2746 21.8998L54.8996 22.2748C53.9496 22.7998 53.0496 23.4248 52.6996 23.5998L50.1996 25.0248C48.9746 25.7498 47.6996 26.5748 46.5496 27.3998C45.5429 28.1057 44.5748 28.8651 43.6496 29.6748C42.8796 28.5789 41.9531 27.6019 40.8996 26.7748C38.5746 24.7248 35.3746 22.3248 34.2996 21.4498C33.2246 20.5748 31.7996 19.3498 30.3246 18.3248C29.3996 17.6248 28.4496 16.9248 27.5746 16.3498L21.6246 11.6998C21.4654 11.5805 21.2654 11.5292 21.0685 11.5573C20.8716 11.5855 20.6939 11.6907 20.5746 11.8498C20.5121 11.9273 20.4663 12.0167 20.4399 12.1127C20.4135 12.2086 20.4072 12.3089 20.4212 12.4074C20.4353 12.5059 20.4695 12.6005 20.5217 12.6852C20.5739 12.7699 20.6429 12.8429 20.7246 12.8998L26.6996 17.4998C27.5496 18.0998 28.4246 18.7748 29.3246 19.4998C30.6496 20.5498 31.9746 21.6748 33.1496 22.6998C34.3246 23.7248 37.2746 26.0498 39.5246 28.1498C40.3689 28.8784 41.1092 29.7196 41.7246 30.6498C41.9954 31.2002 42.205 31.7787 42.3496 32.3748C42.5996 33.3748 42.6996 34.3998 42.8496 35.3748C43.0389 36.5737 43.1308 37.786 43.1246 38.9998C43.1662 39.6069 43.0634 40.2152 42.8246 40.7748L42.2996 41.5248C42.1746 41.5248 41.8496 41.7998 41.0996 42.2248L37.9496 44.1498C38.0747 43.0952 38.0747 42.0294 37.9496 40.9748C37.7709 39.652 37.4781 38.3472 37.0746 37.0748C37.9246 36.4498 38.8996 35.7248 40.0746 34.7498C40.1686 34.6854 40.2482 34.6023 40.3085 34.5056C40.3688 34.409 40.4084 34.3009 40.4248 34.1881C40.4413 34.0754 40.4342 33.9605 40.404 33.8506C40.3739 33.7408 40.3213 33.6383 40.2496 33.5498C40.181 33.4606 40.0955 33.3859 39.9979 33.33C39.9003 33.2741 39.7925 33.2381 39.6809 33.2241C39.5693 33.2102 39.456 33.2185 39.3476 33.2487C39.2392 33.2788 39.1379 33.3302 39.0496 33.3998C38.0246 34.1248 37.1746 34.6748 36.4246 35.1748C35.3555 33.6831 34.1503 32.2938 32.8246 31.0248C31.6746 29.8748 30.3246 28.5248 28.8496 27.2498L26.3496 25.0748C22.0996 21.4748 17.7746 18.1748 16.0996 16.8248C17.1496 16.0748 18.2996 15.2748 19.8996 14.0998C19.9851 14.0277 20.0555 13.9394 20.1069 13.84C20.1582 13.7406 20.1894 13.6321 20.1987 13.5206C20.208 13.4091 20.1952 13.2969 20.161 13.1903C20.1268 13.0838 20.072 12.9851 19.9996 12.8998C19.8645 12.7173 19.6639 12.5945 19.44 12.5571C19.2161 12.5198 18.9865 12.571 18.7996 12.6998C16.4246 14.3748 15.0246 15.1998 13.4996 16.3998C12.4996 17.0998 11.4746 17.9248 10.0746 19.0748C8.22456 20.5998 6.02456 22.1248 4.09956 23.8248C3.24276 24.5937 2.44858 25.4297 1.72456 26.3248C0.701961 28.3165 0.138176 30.5118 0.0745601 32.7498C-0.140739 34.6604 -0.140739 36.5892 0.0745601 38.4998C0.108517 38.8953 0.24652 39.2748 0.47456 39.5998C2.12462 41.5107 3.89488 43.3143 5.77456 44.9998C7.69956 46.8248 9.77456 48.6748 11.3496 49.8748C12.2746 50.5498 14.6746 52.0998 16.8746 53.3748C18.1795 54.1823 19.5512 54.8765 20.9746 55.4498C21.947 55.7495 22.9805 55.7926 23.9746 55.5748C25.22 55.1898 26.4062 54.6345 27.4996 53.9248C28.6746 53.2998 29.7996 52.6248 30.9246 51.9248C32.5496 50.8998 34.1246 49.8248 35.7746 48.7748L42.4996 44.4998C43.1499 44.1708 43.7549 43.7591 44.2996 43.2748C44.4496 43.0998 44.5746 42.8498 44.9996 42.1998C46.3496 41.4748 47.8746 40.7498 49.4496 39.8748C50.2246 39.4498 50.9746 38.9998 51.7496 38.4998C52.5246 37.9998 53.2246 37.4998 53.9496 36.9748C55.6833 35.7187 57.3521 34.3753 58.9496 32.9498C59.145 32.7677 59.2616 32.5166 59.2746 32.2498C59.3916 32.1852 59.49 32.0914 59.5601 31.9775C59.6302 31.8636 59.6696 31.7335 59.6746 31.5998C59.9869 29.4146 60.0956 27.2051 59.9996 24.9998ZM3.59956 27.4998C4.44585 26.4749 5.39219 25.537 6.42456 24.6998C8.07456 23.2498 9.87456 21.8998 11.4246 20.5748C12.9746 19.2498 13.7746 18.5998 14.6996 17.8748L14.9996 17.7248C14.9884 17.791 14.9884 17.8586 14.9996 17.9248C16.5496 19.4248 20.6246 23.5248 24.7746 27.4498C26.8996 29.4498 29.0246 31.3748 30.7496 32.9998C32.0243 34.0163 33.1966 35.1551 34.2496 36.3998C33.4996 36.8498 32.7746 37.3248 31.9496 37.8748C31.1246 38.4248 30.1746 39.1248 28.9996 39.9998C27.9222 40.778 26.7757 41.4559 25.5746 42.0248C24.5335 42.6254 23.3885 43.024 22.1996 43.1998C21.0492 42.8018 19.9754 42.2099 19.0246 41.4498C16.7746 39.9748 14.3246 38.1748 13.5496 37.6248L2.87456 29.3748C2.96502 28.7558 3.19591 28.1658 3.54956 27.6498L3.59956 27.4998ZM34.2496 46.1998C32.3246 47.3998 30.4996 48.6998 28.5746 49.8248C27.7746 50.3248 26.9746 50.7748 26.0746 51.2248C25.3402 51.72 24.5619 52.1468 23.7496 52.4998C23.1256 52.7131 22.4485 52.7131 21.8246 52.4998C20.6065 52.0156 19.435 51.4215 18.3246 50.7248C16.2246 49.5248 13.8996 48.0748 13.0246 47.4498C11.4996 46.3998 9.44956 44.6498 7.49956 42.9498C5.54956 41.2498 3.22456 38.9248 2.49956 38.1248C2.49956 37.9748 2.49956 37.5998 2.37456 37.2748C2.21671 35.4198 2.21671 33.5548 2.37456 31.6998V31.1248L3.52456 32.1498C6.17456 34.6498 9.44956 37.7748 11.7246 39.6498C13.7922 41.3576 15.945 42.9596 18.1746 44.4498C19.3097 45.2864 20.6308 45.8354 22.0246 46.0498C23.442 45.9928 24.8311 45.6349 26.0996 44.9998C27.7047 44.187 29.214 43.1975 30.5996 42.0498C31.6746 41.1248 32.5246 40.4248 33.3246 39.7998L35.0746 38.4998C35.4332 39.4257 35.7174 40.3787 35.9246 41.3498C36.1628 42.4328 36.2636 43.5416 36.2246 44.6498C36.2155 44.8365 36.2682 45.0211 36.3746 45.1748L34.2496 46.1998ZM57.8996 31.3498C56.2996 32.3998 54.3746 33.3998 52.3996 34.5498C51.1996 35.2748 49.8996 35.9998 48.7996 36.8248C47.6996 37.6498 46.6746 38.3748 45.7246 39.1498C45.7107 37.7564 45.5685 36.3671 45.2996 34.9998C45.1407 33.9222 44.9237 32.854 44.6496 31.7998L44.4496 31.2248C45.1992 30.7097 45.9753 30.234 46.7746 29.7998C48.1996 29.0248 49.7496 28.3498 51.2246 27.6498C52.2746 27.1498 53.2746 26.6248 54.2246 26.1248C54.5496 25.9498 55.4746 25.2998 56.3746 24.7498C56.6246 24.7498 56.9246 24.3498 57.1496 24.2248C57.3746 24.0998 57.2746 24.5498 57.3496 24.7498C57.5098 25.2557 57.6269 25.7742 57.6996 26.2998C57.8778 28.0355 57.9529 29.7802 57.9246 31.5248L57.8996 31.3498Z" fill="black"/>
</g>
<defs>
<clipPath id="clip0_165_7347">
<rect width="60" height="60" fill="white"/>
</clipPath>
</defs>
</svg>
