<svg width="60" height="60" viewBox="0 0 60 60" fill="none" xmlns="http://www.w3.org/2000/svg">
<g clip-path="url(#clip0_161_7064)">
<path fill-rule="evenodd" clip-rule="evenodd" d="M58.1745 38.9751C57.6931 36.687 57.4088 34.3618 57.3245 32.0251C57.2249 29.6751 57.3673 27.321 57.7495 25.0001C57.7851 24.8088 57.752 24.611 57.6559 24.4417C57.5599 24.2724 57.407 24.1426 57.2245 24.0751L57.9745 23.9251C58.1935 23.8825 58.3879 23.7578 58.518 23.5765C58.6481 23.3953 58.7041 23.1712 58.6745 22.9501C58.6592 22.838 58.6217 22.73 58.5642 22.6325C58.5067 22.5351 58.4302 22.4501 58.3394 22.3826C58.2486 22.315 58.1452 22.2663 58.0353 22.2393C57.9254 22.2123 57.8113 22.2074 57.6995 22.2251L47.0745 23.8251C44.3009 24.1175 41.5134 24.2594 38.7245 24.2501C34.4995 24.2501 30.2245 24.1001 26.2245 23.7251C24.8495 23.7251 23.4995 23.4501 22.1495 23.2751C16.4495 22.5001 11.0245 21.0251 5.37448 20.6501C5.2759 20.6397 5.17624 20.649 5.08127 20.6774C4.98631 20.7058 4.89791 20.7528 4.82119 20.8155C4.74447 20.8783 4.68096 20.9556 4.63432 21.0431C4.58768 21.1306 4.55885 21.2264 4.54948 21.3251C4.53912 21.4237 4.54841 21.5233 4.5768 21.6183C4.6052 21.7133 4.65214 21.8017 4.71491 21.8784C4.77767 21.9551 4.85503 22.0186 4.94249 22.0653C5.02996 22.1119 5.1258 22.1407 5.22448 22.1501C6.19948 22.2751 7.19948 22.4501 8.14948 22.6501C7.96189 22.6806 7.79204 22.7789 7.6722 22.9264C7.55236 23.0739 7.49089 23.2603 7.49948 23.4501C7.74614 26.1593 7.65376 28.8888 7.22448 31.5751C6.83726 34.2392 6.0887 36.8382 4.99948 39.3001C3.52927 41.9401 2.37147 44.7423 1.54948 47.6501C1.20409 49.1412 1.38975 50.7062 2.07448 52.0751C2.60425 53.0201 3.36015 53.819 4.27448 54.4001C5.46808 55.1597 6.75338 55.7645 8.09948 56.2001C10.9398 57.2373 13.8808 57.9746 16.8745 58.4001C19.8305 58.8261 22.8129 59.0433 25.7995 59.0501L39.5495 59.3001H43.7745C45.1981 59.2548 46.6174 59.1212 48.0245 58.9001C48.8495 58.7751 49.6745 58.6251 50.5245 58.4251C51.3723 58.2575 52.2076 58.032 53.0245 57.7501C53.5995 57.5501 54.1745 57.3251 54.7245 57.0751C55.3002 56.8248 55.8523 56.5236 56.3745 56.1751C57.4908 55.4326 58.406 54.4253 59.0385 53.2432C59.671 52.0611 60.0011 50.7408 59.9995 49.4001C59.8258 45.8629 59.2128 42.361 58.1745 38.9751ZM57.6745 49.2251C57.6378 50.1932 57.3603 51.1368 56.867 51.9705C56.3737 52.8043 55.6803 53.5019 54.8495 54.0001C54.427 54.2681 53.984 54.5022 53.5245 54.7001C53.051 54.9011 52.5669 55.0764 52.0745 55.2251C51.3495 55.4501 50.6245 55.6501 49.8995 55.8001C49.1745 55.9501 48.4245 56.0751 47.6745 56.1751C46.9245 56.2751 45.5495 56.3751 44.4745 56.4251H39.4745L25.7245 56.1251C22.8656 56.1271 20.0096 55.9433 17.1745 55.5751C14.3944 55.2471 11.6551 54.6356 8.99948 53.7501C7.83186 53.4051 6.70781 52.927 5.64948 52.3251C5.04197 51.9758 4.53415 51.4765 4.17448 50.8751C3.65348 49.6013 3.65348 48.1739 4.17448 46.9001C4.87235 44.5366 5.74991 42.2298 6.79948 40.0001C7.90649 37.3532 8.65478 34.5702 9.02448 31.7251C9.37462 28.8942 9.37462 26.031 9.02448 23.2001C9.00599 22.9956 8.90708 22.8068 8.74948 22.6751C13.0495 23.5751 17.2245 24.9251 21.5495 25.8001C22.9613 26.1021 24.3883 26.3274 25.8245 26.4751C29.3495 26.7751 32.9495 27.0251 36.5745 27.0001C40.2322 26.9892 43.8841 26.7051 47.4995 26.1501L56.4245 24.3001C56.3033 24.4257 56.2171 24.5809 56.1745 24.7501C55.7284 27.1572 55.519 29.6022 55.5495 32.0501C55.5819 34.4985 55.816 36.9401 56.2495 39.3501C57.1373 42.5689 57.6161 45.8867 57.6745 49.2251Z" fill="black"/>
<path fill-rule="evenodd" clip-rule="evenodd" d="M1.67476 30.2498C2.12476 29.3498 2.64976 28.5498 3.12476 27.7498C3.44189 27.1821 3.70954 26.5883 3.92476 25.9748C4.25539 24.8337 4.51423 23.6731 4.69976 22.4998C4.7747 22.3173 4.77474 22.1126 4.69987 21.9302C4.625 21.7477 4.48125 21.602 4.29976 21.5248C4.21141 21.4835 4.11563 21.4604 4.01816 21.457C3.92069 21.4536 3.82353 21.4699 3.7325 21.5049C3.64147 21.5399 3.55844 21.5929 3.48838 21.6607C3.41832 21.7286 3.36267 21.8099 3.32476 21.8998C2.72476 22.7498 2.07476 23.4748 1.54976 24.3998C1.33363 24.7704 1.14156 25.1545 0.974762 25.5498C0.81523 25.9491 0.68162 26.3582 0.574762 26.7748C0.307466 27.7588 0.115247 28.7616 -0.000237667 29.7748C-0.0619962 29.9968 -0.0336193 30.2343 0.0787273 30.4356C0.191074 30.6369 0.378313 30.7857 0.599762 30.8498C0.709716 30.8839 0.825452 30.8953 0.939949 30.8833C1.05445 30.8713 1.16532 30.8362 1.26584 30.7801C1.36637 30.724 1.45445 30.6481 1.52474 30.5569C1.59503 30.4657 1.64607 30.3612 1.67476 30.2498Z" fill="black"/>
<path fill-rule="evenodd" clip-rule="evenodd" d="M24.5248 43.9248C24.1326 41.93 23.6233 39.9599 22.9998 38.0248C22.2748 35.8748 21.3748 33.7498 20.4998 31.3748C20.4254 31.2089 20.2932 31.0756 20.1279 30.9998C19.9626 30.9241 19.7754 30.9109 19.6011 30.9629C19.4268 31.0149 19.2773 31.1284 19.1805 31.2824C19.0837 31.4363 19.0461 31.6202 19.0748 31.7998C19.5748 34.2998 19.9498 36.5498 20.4248 38.7498C20.6248 39.7498 20.8748 40.6998 21.1248 41.6748C21.3748 42.6498 21.6748 43.5998 21.9748 44.5748C22.6248 46.7248 23.3498 48.8748 24.0998 51.3248C24.1231 51.4348 24.1686 51.5389 24.2335 51.6307C24.2984 51.7224 24.3815 51.8 24.4774 51.8585C24.5734 51.917 24.6804 51.9553 24.7917 51.971C24.903 51.9867 25.0164 51.9795 25.1248 51.9498C25.2321 51.9263 25.3336 51.8816 25.4234 51.8183C25.5131 51.755 25.5894 51.6744 25.6476 51.5812C25.7058 51.4881 25.7448 51.3843 25.7624 51.2758C25.7799 51.1674 25.7757 51.0566 25.7498 50.9498C25.2998 48.3998 24.9998 46.1248 24.5248 43.9248Z" fill="black"/>
<path fill-rule="evenodd" clip-rule="evenodd" d="M2.32491 5.12488C3.37491 4.99988 4.49991 4.99988 5.72491 4.69988C6.18929 4.59822 6.64821 4.47306 7.09991 4.32488C7.56691 4.19284 8.02599 4.03425 8.47491 3.84988C9.54991 3.39988 10.5499 2.89988 11.5749 2.49988H11.8499C12.1249 4.14988 12.3499 5.82488 12.6499 7.49988V7.79988C12.4483 7.72522 12.2266 7.72522 12.0249 7.79988C10.9749 7.79988 9.94991 7.94988 8.92491 8.12488C8.4869 8.18173 8.05276 8.26522 7.62491 8.37488C7.19924 8.49859 6.78176 8.64889 6.37491 8.82488C5.46411 9.17147 4.57132 9.56363 3.69991 9.99988C3.51193 10.0577 3.35419 10.1871 3.26066 10.3601C3.16714 10.5331 3.14532 10.7359 3.19991 10.9249C3.22839 11.0208 3.27577 11.11 3.33925 11.1873C3.40273 11.2646 3.48104 11.3284 3.56956 11.375C3.65808 11.4216 3.75503 11.45 3.8547 11.4586C3.95437 11.4672 4.05474 11.4557 4.14991 11.4249C5.19991 11.4249 6.19991 11.4249 7.22491 11.1499L8.49991 10.8499L9.72491 10.4249C10.6749 9.99988 11.5499 9.64988 12.4999 9.24988C12.5986 9.22668 12.6916 9.18371 12.7733 9.12355C12.8549 9.06339 12.9235 8.9873 12.9749 8.89988C12.9749 9.19988 12.9749 9.49988 13.1749 9.79988C13.3749 10.6249 13.5999 11.4249 13.8249 12.2999C14.0499 13.1749 14.1249 13.2749 14.2999 13.7499H14.0249H10.9249C10.4795 13.8005 10.0371 13.8756 9.59991 13.9749C9.16546 14.0652 8.73906 14.1906 8.32491 14.3499C7.35445 14.756 6.41086 15.2236 5.49991 15.7499C5.4047 15.7794 5.31624 15.8274 5.23959 15.8912C5.16294 15.9549 5.09959 16.0331 5.05316 16.1213C4.95939 16.2995 4.94024 16.5076 4.99991 16.6999C5.05958 16.8922 5.1932 17.0529 5.37136 17.1466C5.54952 17.2404 5.75763 17.2596 5.94991 17.1999C6.94991 17.1999 7.92491 17.1999 8.99991 16.9999C9.42092 16.9514 9.83843 16.8763 10.2499 16.7749C10.6749 16.7749 11.0749 16.5249 11.4999 16.3999L14.3749 15.2999C14.5235 15.2336 14.6527 15.1303 14.7499 14.9999C15.0499 15.8999 15.3749 16.7999 15.6749 17.6749C15.7313 17.8937 15.8722 18.0811 16.0668 18.196C16.2614 18.3109 16.4936 18.3437 16.7124 18.2874C16.9312 18.231 17.1187 18.09 17.2335 17.8955C17.3484 17.7009 17.3813 17.4687 17.3249 17.2499C16.9999 15.3249 16.7999 13.3499 16.4249 11.3249C16.205 10.0345 15.9129 8.75751 15.5499 7.49988C14.848 5.35006 14.0131 3.246 13.0499 1.19988C12.9921 1.0119 12.8627 0.854154 12.6897 0.760632C12.5167 0.667109 12.3139 0.645291 12.1249 0.699876C12.0096 0.775343 11.9151 0.878481 11.8499 0.999876C11.7539 0.920434 11.6401 0.86532 11.5183 0.839208C11.3964 0.813095 11.2701 0.816755 11.1499 0.849876C9.99991 0.949876 8.89991 1.04988 7.72491 1.24988L6.29991 1.57488C5.85812 1.71868 5.42419 1.88558 4.99991 2.07488C3.87491 2.57488 2.89991 3.17488 1.94991 3.67488C1.78971 3.76103 1.66493 3.90079 1.59739 4.06968C1.52986 4.23857 1.52388 4.42584 1.5805 4.59869C1.63713 4.77155 1.75275 4.91898 1.90712 5.01517C2.0615 5.11137 2.24479 5.1502 2.42491 5.12488H2.32491Z" fill="black"/>
<path fill-rule="evenodd" clip-rule="evenodd" d="M32.7247 18.6251C32.8091 18.6779 32.9035 18.7128 33.0019 18.7275C33.1004 18.7422 33.2009 18.7365 33.297 18.7107C33.3932 18.6849 33.483 18.6396 33.5609 18.5775C33.6388 18.5155 33.703 18.4381 33.7497 18.3501C34.0747 17.8751 34.4747 17.3751 34.8747 16.8751C35.2747 16.3751 35.7247 15.9501 36.1747 15.5001C37.2253 14.3722 38.3993 13.3659 39.6747 12.5001C40.3188 12.0565 41.0945 11.845 41.8747 11.9001C42.6879 12.0251 43.4741 12.2872 44.1997 12.6751C45.5247 13.3251 46.8247 14.1751 47.9997 14.8501C48.7792 15.2884 49.5157 15.799 50.1997 16.3751C50.601 16.6663 50.9338 17.0417 51.1747 17.4751C51.1974 17.591 51.244 17.7009 51.3116 17.7978C51.3792 17.8947 51.4662 17.9764 51.5671 18.0378C51.668 18.0992 51.7806 18.1389 51.8977 18.1543C52.0149 18.1697 52.1339 18.1606 52.2473 18.1274C52.3606 18.0943 52.4659 18.0379 52.5562 17.9618C52.6466 17.8857 52.7201 17.7917 52.7721 17.6856C52.824 17.5795 52.8533 17.4638 52.8581 17.3458C52.8629 17.2277 52.843 17.11 52.7997 17.0001C52.8096 16.9171 52.8096 16.8332 52.7997 16.7501C53.0084 16.8039 53.23 16.7739 53.4169 16.6664C53.6038 16.559 53.7412 16.3826 53.7997 16.1751C54.4497 14.5251 55.7747 11.4751 56.2997 9.40012C56.5693 8.59515 56.6295 7.73479 56.4747 6.90012C55.7036 5.61327 54.5499 4.59939 53.1747 4.00012C52.2717 3.53372 51.3144 3.18103 50.3247 2.95012C49.8737 2.83368 49.4006 2.83368 48.9497 2.95012C48.5029 3.13576 48.0826 3.37953 47.6997 3.67512C47.2254 4.03801 46.7745 4.43045 46.3497 4.85012L42.4997 9.10012H42.1497C40.6949 8.95623 39.2395 9.36695 38.0747 10.2501C36.7261 11.4126 35.5479 12.7592 34.5747 14.2501C34.1747 14.8001 33.7747 15.3501 33.4247 15.9251C33.0747 16.5001 32.7497 17.0251 32.4997 17.5001C32.4315 17.5855 32.3828 17.6848 32.3571 17.791C32.3313 17.8972 32.3291 18.0078 32.3505 18.1149C32.3719 18.2221 32.4165 18.3233 32.4812 18.4114C32.5458 18.4995 32.6289 18.5725 32.7247 18.6251ZM47.8747 6.65012C48.2599 6.36956 48.6605 6.11082 49.0747 5.87512L49.4997 5.67512C49.4997 5.15012 50.9247 6.15012 51.8247 6.60012C52.7247 7.05012 54.3247 7.55012 53.8497 7.87512C53.8273 8.72246 53.6928 9.5631 53.4497 10.3751C53.0247 12.2001 52.3997 14.2501 52.0747 15.5001L51.5497 15.0001C50.8412 14.2617 50.0718 13.5844 49.2497 12.9751C48.056 11.9951 46.8127 11.0773 45.5247 10.2251C45.1344 10.0212 44.7339 9.83765 44.3247 9.67512L47.8747 6.65012Z" fill="black"/>
<path fill-rule="evenodd" clip-rule="evenodd" d="M46.7751 31.1999C46.5991 31.1121 46.3957 31.097 46.2087 31.1578C46.0216 31.2186 45.8659 31.3504 45.7751 31.5249C44.2751 33.8749 43.0501 35.6499 41.9751 37.6499C41.2751 38.9749 40.6501 40.3999 39.9501 42.0499L36.5501 51.2249C36.4655 51.4343 36.465 51.6682 36.5489 51.8779C36.6328 52.0876 36.7945 52.2567 37.0001 52.3499C37.105 52.3945 37.2177 52.4175 37.3316 52.4176C37.4455 52.4178 37.5583 52.395 37.6633 52.3507C37.7682 52.3064 37.8632 52.2414 37.9425 52.1597C38.0219 52.078 38.084 51.9811 38.1251 51.8749C39.3001 49.4999 40.6251 47.1999 41.7751 44.9499C42.0751 44.3249 42.3501 43.7249 42.6001 43.1249L47.1001 32.2249C47.1475 32.1366 47.1767 32.0396 47.186 31.9398C47.1952 31.84 47.1844 31.7393 47.1541 31.6438C47.1238 31.5482 47.0747 31.4597 47.0096 31.3835C46.9445 31.3072 46.8648 31.2448 46.7751 31.1999Z" fill="black"/>
</g>
<defs>
<clipPath id="clip0_161_7064">
<rect width="60" height="60" fill="white"/>
</clipPath>
</defs>
</svg>
