<svg width="60" height="60" viewBox="0 0 60 60" fill="none" xmlns="http://www.w3.org/2000/svg">
<g clip-path="url(#clip0_161_6826)">
<path fill-rule="evenodd" clip-rule="evenodd" d="M59.6749 17.975C59.2715 17.5232 58.809 17.128 58.2999 16.8L54.6499 13.6L43.0249 4.5C41.9135 3.15633 40.348 2.26685 38.6249 2H34.9999H29.9999C22.2499 2 21.9499 2 19.1749 3.35C18.0249 3.9 16.9249 4.55 15.7499 5.2C13.4499 6.5 11.1249 7.7 8.89986 9.175C7.40033 10.195 5.96434 11.3054 4.59986 12.5C3.43828 13.3694 2.32025 14.2955 1.24986 15.275C0.574036 15.9514 0.135483 16.8285 -0.000137329 17.775C-0.0401649 18.8997 0.173446 20.0191 0.624863 21.05C1.24 22.4493 2.01158 23.7744 2.92486 25L6.54986 29.75C6.89337 30.353 7.26891 30.9372 7.67486 31.5C7.9527 31.8404 8.34264 32.0708 8.77486 32.15C10.0018 32.1631 11.2041 31.8059 12.2249 31.125C13.9134 30.1069 15.5335 28.9795 17.0749 27.75V29.05C17.0749 31.925 17.1999 36.15 17.0749 37.575C16.8749 40.075 16.6249 41.725 16.4999 43.575C16.4228 44.9489 16.4228 46.3261 16.4999 47.7C16.4999 49.225 16.1249 52.375 16.0249 54.375C15.9407 55.1526 16.0347 55.9392 16.2999 56.675C16.4596 56.9822 16.6904 57.2468 16.9731 57.4468C17.2557 57.6469 17.582 57.7765 17.9249 57.825C19.1381 57.9539 20.3616 57.9539 21.5749 57.825L28.8999 58.05L38.4249 57.925C39.3484 57.9993 40.2764 57.9993 41.1999 57.925C41.9775 57.8477 42.7286 57.6002 43.3999 57.2C43.7531 56.9855 44.0255 56.6603 44.1749 56.275C44.3252 55.6535 44.3675 55.0108 44.2999 54.375L44.6749 49.8C44.6749 48.65 44.8499 47.55 44.8999 46.475V41.475C44.8999 39.65 44.8999 36.475 44.7749 33.55C44.7749 31.35 44.5749 29.15 44.4499 27.425C45.5749 28.3 47.0749 29.375 47.5499 29.75C48.0249 30.125 48.3499 30.575 48.7999 30.9C49.1693 31.1727 49.6157 31.3215 50.0749 31.325C51.1162 31.1599 52.0787 30.6699 52.8249 29.925C54.3225 28.6427 55.6574 27.1818 56.7999 25.575C57.4617 24.6618 58.055 23.7009 58.5749 22.7C59.1742 21.658 59.6524 20.5508 59.9999 19.4C60.0533 19.1532 60.0519 18.8976 59.9957 18.6514C59.9396 18.4051 59.83 18.1743 59.6749 17.975ZM41.5499 55.2C41.4249 55.2 41.5499 55.025 41.6999 54.9C41.8499 54.775 41.6999 55.225 41.5499 55.2ZM56.0999 21.425C55.6792 22.2882 55.2033 23.1233 54.6749 23.925C54.0304 25.0284 53.3033 26.0814 52.4999 27.075C51.9507 27.717 51.3394 28.3032 50.6749 28.825C50.4749 28.975 50.3249 29.125 50.1749 29.125C50.1749 29.575 49.2749 28.4 48.8999 28.125L44.4249 25C44.2655 24.8412 44.0498 24.7521 43.8249 24.7521C43.5999 24.7521 43.3842 24.8412 43.2249 25L43.0749 25.2C43.0011 25.2762 42.9433 25.3662 42.9047 25.4649C42.866 25.5636 42.8474 25.669 42.8499 25.775C42.9749 27.525 43.0249 30.525 43.0249 33.575C43.0249 36.625 43.0249 39.475 42.7999 41.325L42.1249 49.425L41.5499 54.175C41.5499 54.175 41.5499 54.625 41.6749 54.875C41.4014 54.9739 41.1151 55.0328 40.8249 55.05C40.0344 55.1128 39.2403 55.1128 38.4499 55.05H28.8999L21.3999 54.9C20.9999 54.9 20.2249 55.025 19.3999 55.1C19.1477 55.0857 18.897 55.0522 18.6499 55L18.8749 47.5C18.7812 46.21 18.7812 44.915 18.8749 43.625C18.8749 41.8 19.1249 40.175 19.2249 37.65C19.2249 36.2 18.9749 31.9 18.9249 29V26.975C18.9496 26.788 18.9115 26.5981 18.8164 26.4351C18.7214 26.2722 18.5748 26.1455 18.3999 26.075C18.4093 26.0003 18.4093 25.9247 18.3999 25.85C18.2729 25.6662 18.0805 25.538 17.862 25.4915C17.6436 25.445 17.4156 25.4838 17.2249 25.6C16.2749 26.175 14.2249 27.7 12.2249 28.8C11.4637 29.3127 10.6171 29.6852 9.72486 29.9C9.72486 29.475 8.94986 28.65 8.79986 28.375L5.39986 23.375C4.56887 22.3321 3.85617 21.2001 3.27486 20C2.99522 19.3447 2.85884 18.6373 2.87486 17.925C2.87486 17.575 3.34986 17.25 3.74986 16.85C4.67486 15.95 5.87486 15.05 6.44986 14.525C7.69119 13.3731 8.99304 12.2883 10.3499 11.275C11.3499 10.55 18.3999 5.775 19.9749 4.85C21.5499 3.925 22.8999 3.9 29.9749 4.125C32.9443 4.06179 35.915 4.15359 38.8749 4.4C39.9808 4.63083 41.0067 5.14808 41.8499 5.9C48.2499 11.375 46.1249 10 50.6249 13.875L52.8999 15.8L56.4249 19C56.5499 19 56.7499 19.35 56.9249 19.525C57.0999 19.7 56.4499 20.7 56.0999 21.425Z" fill="black"/>
<path fill-rule="evenodd" clip-rule="evenodd" d="M26.6501 18.3249C25.9772 18.781 25.2064 19.0722 24.4001 19.1749C24.4001 19.1749 24.4001 19.1749 24.2251 18.9749C23.9439 18.6776 23.6848 18.3601 23.4501 18.0249C22.9576 17.391 22.4987 16.7318 22.0751 16.0499L16.6751 8.04991C16.0001 7.17491 14.9751 8.39991 15.3751 9.14991C16.3501 11.3249 16.9501 12.8249 18.0501 14.8999C18.5501 15.8249 19.1001 16.7249 19.6751 17.6499C20.4032 18.7254 21.2411 19.7224 22.1751 20.6249C22.7232 21.2281 23.4671 21.6178 24.2751 21.7249C25.3788 21.5803 26.428 21.1589 27.3251 20.4999C28.3158 19.8763 29.2159 19.1192 30.0001 18.2499C30.3751 17.1999 29.6251 16.8499 28.7251 16.9749C28.1019 17.5223 27.403 17.977 26.6501 18.3249Z" fill="black"/>
<path fill-rule="evenodd" clip-rule="evenodd" d="M34.3752 13.7252C34.8902 13.1555 35.3584 12.5452 35.7752 11.9002C36.7502 10.5002 37.4752 9.25023 38.6252 7.72523C39.037 7.21355 39.3276 6.61526 39.4752 5.97523C39.6502 4.65023 38.3252 4.37523 37.2002 5.42523C36.9734 5.6797 36.7724 5.95605 36.6002 6.25023L32.6502 12.0502C32.0475 12.8009 31.4049 13.5186 30.7252 14.2002C30.4534 14.1178 30.205 13.9721 30.0002 13.7752C29.4762 13.2903 28.9836 12.7726 28.5252 12.2252C27.439 11.0848 26.4832 9.8271 25.6752 8.47523C24.9239 7.3025 24.2637 6.0739 23.7002 4.80023C23.4502 4.05023 21.8752 4.40023 22.2002 5.42523C22.6626 6.80435 23.2397 8.14235 23.9252 9.42523C24.7002 10.9904 25.6568 12.4588 26.7752 13.8002C27.3236 14.5726 27.9521 15.2849 28.6502 15.9252C30.5502 17.5002 31.3252 16.9502 34.3752 13.7252Z" fill="black"/>
<path fill-rule="evenodd" clip-rule="evenodd" d="M44.2498 9.47498L38.7248 15.75C38.5748 15.95 37.7498 16.95 36.8998 17.85C36.6498 18.125 36.3498 18.6 36.1248 18.825C35.2998 18.425 34.5748 18.025 33.8248 17.575L32.6498 16.775C31.5998 16.35 30.9248 17.025 31.2748 17.875C31.7248 18.325 32.1748 18.775 32.6498 19.175C33.448 19.9 34.2824 20.5842 35.1498 21.225C35.5529 21.4268 36.0078 21.5013 36.4542 21.4388C36.9007 21.3763 37.3176 21.1797 37.6498 20.875C38.8967 19.8872 40.0213 18.7542 40.9998 17.5C42.2998 15.625 43.4998 14.175 44.4498 12.625C44.9248 11.925 45.0498 11.675 45.5498 10.875C45.7355 10.7026 45.845 10.4635 45.8544 10.2103C45.8638 9.95716 45.7722 9.71063 45.5998 9.52498C45.4274 9.33932 45.1883 9.22976 44.9352 9.22038C44.682 9.211 44.4355 9.30259 44.2498 9.47498Z" fill="black"/>
</g>
<defs>
<clipPath id="clip0_161_6826">
<rect width="60" height="60" fill="white"/>
</clipPath>
</defs>
</svg>
