<svg width="60" height="60" viewBox="0 0 60 60" fill="none" xmlns="http://www.w3.org/2000/svg">
<g clip-path="url(#clip0_161_6823)">
<path d="M26.2249 46.9001C26.2249 46.7012 26.1459 46.5105 26.0053 46.3698C25.8646 46.2292 25.6738 46.1501 25.4749 46.1501C25.276 46.1501 25.0852 46.2292 24.9446 46.3698C24.8039 46.5105 24.7249 46.7012 24.7249 46.9001C24.4725 47.43 24.2472 47.9724 24.0499 48.5251C24.026 48.7579 24.026 48.9924 24.0499 49.2251C24.025 49.4745 24.025 49.7258 24.0499 49.9751C24.1395 50.5993 24.2988 51.2115 24.5249 51.8001C24.5597 52.0037 24.6654 52.1884 24.8232 52.3216C24.9811 52.4547 25.1809 52.5278 25.3874 52.5278C25.5939 52.5278 25.7938 52.4547 25.9516 52.3216C26.1095 52.1884 26.2151 52.0037 26.2499 51.8001C26.2499 51.3001 26.5999 50.8501 26.7499 50.2501C26.8262 50.0232 26.8765 49.7884 26.8999 49.5501V48.8001C26.75 48.1426 26.5234 47.5049 26.2249 46.9001Z" fill="black"/>
<path d="M24.5247 39.175C24.537 39.2869 24.5715 39.3952 24.6262 39.4937C24.6808 39.5922 24.7544 39.6789 24.8428 39.7486C24.9312 39.8184 25.0326 39.8699 25.141 39.9002C25.2495 39.9305 25.3629 39.9389 25.4747 39.925C25.5879 39.916 25.6982 39.8837 25.7984 39.8302C25.8986 39.7766 25.9867 39.7029 26.0571 39.6137C26.1275 39.5245 26.1788 39.4218 26.2076 39.3118C26.2364 39.2019 26.2422 39.0872 26.2247 38.975C26.2247 38.475 26.5247 38.025 26.6747 37.4C26.6885 37.1585 26.6885 36.9164 26.6747 36.675C26.6981 36.4339 26.6981 36.1911 26.6747 35.95C26.5205 35.3453 26.3026 34.7587 26.0247 34.2C26.0247 34.001 25.9456 33.8103 25.805 33.6696C25.6643 33.529 25.4736 33.45 25.2747 33.45C25.0757 33.45 24.885 33.529 24.7443 33.6696C24.6037 33.8103 24.5247 34.001 24.5247 34.2C24.3247 34.825 24.0497 35.275 23.9247 35.85C23.9001 36.091 23.9001 36.3339 23.9247 36.575C23.8988 36.8159 23.8988 37.059 23.9247 37.3C24.0553 37.9451 24.2565 38.5738 24.5247 39.175Z" fill="black"/>
<path d="M24.5752 27.8001C24.5874 27.9112 24.622 28.0186 24.6769 28.116C24.7319 28.2133 24.806 28.2984 24.8949 28.3662C24.9837 28.434 25.0854 28.483 25.1937 28.5104C25.3021 28.5377 25.4149 28.5427 25.5253 28.5251C25.6372 28.5127 25.7455 28.4782 25.844 28.4236C25.9425 28.369 26.0292 28.2953 26.0989 28.2069C26.1687 28.1185 26.2202 28.0172 26.2505 27.9087C26.2808 27.8002 26.2892 27.6868 26.2753 27.5751C26.2753 27.0751 26.5753 26.6251 26.7003 26.0001C26.7263 25.7675 26.7263 25.5327 26.7003 25.3001C26.738 25.0515 26.738 24.7987 26.7003 24.5501C26.5235 23.9608 26.3063 23.3844 26.0503 22.8251C26.0471 22.7244 26.0237 22.6253 25.9815 22.5338C25.9392 22.4423 25.8789 22.3603 25.8043 22.2926C25.7296 22.225 25.642 22.173 25.5469 22.14C25.4517 22.1069 25.3508 22.0933 25.2503 22.1001C25.0491 22.113 24.8609 22.2037 24.7255 22.3531C24.5902 22.5024 24.5183 22.6986 24.5253 22.9001C24.3503 23.5001 24.0752 23.9501 23.9502 24.5251C23.915 24.7655 23.915 25.0097 23.9502 25.2501C23.9242 25.491 23.9242 25.7341 23.9502 25.9751C24.0711 26.6099 24.2816 27.2244 24.5752 27.8001Z" fill="black"/>
<path d="M59.9998 42.5C59.9901 41.8217 59.9316 41.145 59.8248 40.475C59.7532 39.9795 59.6274 39.4932 59.4498 39.025C59.342 38.6991 59.148 38.4084 58.8883 38.1839C58.6286 37.9594 58.3129 37.8095 57.9748 37.75C57.6927 37.7131 57.4069 37.7131 57.1248 37.75C57.4777 34.8062 57.4188 31.8276 56.9498 28.9C56.7197 27.3336 56.4025 25.7812 55.9998 24.25C55.5998 22.675 55.1248 21.15 54.6998 19.7C54.2748 18.25 53.7498 16.55 53.0998 15C52.6955 14.1021 52.1744 13.2614 51.5498 12.5C51.6111 12.094 51.6111 11.6811 51.5498 11.275C51.5075 10.7973 51.3048 10.348 50.9748 10C50.4894 9.62198 49.9606 9.30307 49.3998 9.05005L43.5998 6.55005C43.4207 6.46408 43.2149 6.45265 43.0274 6.51826C42.8399 6.58388 42.6862 6.72118 42.5998 6.90005C42.5127 7.08277 42.5006 7.29229 42.566 7.48384C42.6314 7.67538 42.7692 7.83373 42.9498 7.92505L48.5498 10.425L49.6998 11.175C49.6887 11.8095 49.5349 12.4332 49.2498 13C48.7748 14.175 48.0748 15.5 47.7498 16.225C47.2032 17.6879 46.7768 19.1929 46.4748 20.725C46.1612 22.2498 45.9607 23.7957 45.8748 25.35C45.7248 28.875 45.6498 32.425 45.7498 35.95C45.7498 37.25 46.2498 44.85 46.4248 46.55L47.3498 53.425L47.7248 55.2L45.6498 56.025C41.1476 56.6952 36.5805 56.8128 32.0498 56.375H30.9498V51.2C30.9498 48.9 30.9498 46.65 31.1498 44.375C31.1498 41.7 31.4498 39.05 31.5998 36.4C31.7498 33.75 31.8248 31.075 31.9498 28.4L31.7998 21.725V19.475V19.3C32.7669 18.3696 33.481 17.208 33.8748 15.925C34.1254 15.2702 34.3097 14.5918 34.4248 13.9V12.85C34.5327 12.945 34.65 13.0288 34.7748 13.1L35.9998 13.825C36.6238 14.2961 37.2749 14.7302 37.9498 15.125C38.1976 15.2653 38.4775 15.339 38.7623 15.339C39.047 15.339 39.3269 15.2653 39.5748 15.125C39.938 14.8994 40.2119 14.5548 40.3498 14.15C40.5521 13.5063 40.6944 12.8451 40.7748 12.175C41.0505 10.9185 41.193 9.63644 41.1998 8.35005C41.1853 7.05642 41.0004 5.77035 40.6498 4.52504C40.5389 3.75552 40.3718 2.99516 40.1498 2.25005C40.0501 1.97458 39.8549 1.74398 39.5998 1.60005C39.4053 1.50564 39.1826 1.4866 38.9749 1.54662C38.7672 1.60663 38.589 1.74144 38.4748 1.92505C38.4888 1.8423 38.4888 1.75779 38.4748 1.67505C38.4156 1.57848 38.336 1.49606 38.2416 1.43357C38.1471 1.37109 38.0401 1.33006 37.9281 1.31338C37.8161 1.29669 37.7018 1.30476 37.5932 1.33701C37.4847 1.36926 37.3845 1.42491 37.2998 1.50005C37.0011 1.80176 36.7634 2.15827 36.5998 2.55005C36.1998 3.47505 35.6748 5.05005 35.3748 5.60005L34.4248 7.25005L33.6748 8.40005C33.1008 9.10179 32.8148 9.99542 32.8748 10.9C32.1055 12.8958 31.4462 14.9322 30.8998 17C30.8998 17 28.2498 11.275 28.1998 11.225L28.4748 11.05C28.6602 10.9058 28.8136 10.7247 28.9255 10.5181C29.0374 10.3116 29.1052 10.0841 29.1248 9.85005C29.0951 9.46525 28.9659 9.09479 28.7498 8.77505C28.4248 8.30005 27.7498 7.70005 27.5498 7.42505C26.7248 6.40005 23.5998 1.42505 23.5248 1.32505C23.4336 1.23454 23.3236 1.16523 23.2027 1.12202C23.0817 1.07881 22.9527 1.06278 22.8248 1.07505C22.6409 1.07461 22.4636 1.14409 22.329 1.26942C22.1944 1.39475 22.1125 1.56656 22.0998 1.75005C21.5029 2.71402 21.0244 3.74648 20.6748 4.82504C20.6748 4.82504 16.8748 6.30005 16.3498 6.52505L10.5248 9.02505C9.96132 9.29353 9.43246 9.62931 8.94979 10.025C8.59549 10.323 8.36397 10.7416 8.29979 11.2C8.21466 11.646 8.21466 12.1041 8.29979 12.55C7.70152 13.3157 7.20568 14.1561 6.82479 15.05C6.17479 16.575 5.69979 18.3 5.22479 19.725C4.74979 21.15 4.39979 22.625 3.99979 24.2C3.60273 25.7564 3.29391 27.3339 3.07479 28.925C2.60579 31.8526 2.54689 34.8312 2.89979 37.775C2.6177 37.7375 2.33188 37.7375 2.04979 37.775C1.71154 37.8244 1.39394 37.9677 1.13316 38.1887C0.87238 38.4097 0.678911 38.6995 0.574788 39.025C0.397166 39.4932 0.271415 39.9795 0.199788 40.475C0.0846963 41.1444 0.0178575 41.8211 -0.00021165 42.5C-0.0741482 43.4152 -0.0741482 44.3349 -0.000211645 45.25C0.0815875 46.046 0.33765 46.8142 0.749788 47.5C1.43552 48.5971 2.5198 49.3857 3.77479 49.7C6.0038 50.0369 8.27078 50.0369 10.4998 49.7L10.1248 53.25C10.1248 53.775 9.84979 54.475 9.74979 55.125C9.68707 55.5226 9.68707 55.9275 9.74979 56.325C9.79812 56.6502 9.96784 56.945 10.2248 57.15C10.5055 57.2992 10.7982 57.4247 11.0998 57.525L13.5998 58.45C17.3197 58.9736 21.0903 59.0324 24.8248 58.625C26.7248 58.475 28.3248 58.325 29.0748 58.225C29.3578 58.1889 29.6257 58.0766 29.8498 57.9C30.0795 58.1071 30.3677 58.2381 30.6748 58.275C31.4248 58.275 33.0248 58.525 34.9248 58.675C38.6676 59.0821 42.4464 59.0233 46.1748 58.5L48.9248 57.5C49.218 57.3889 49.5022 57.2551 49.7748 57.1C49.9086 57.0025 50.0217 56.8793 50.1076 56.7377C50.1934 56.5961 50.2503 56.4388 50.2748 56.275C50.3377 55.8691 50.3377 55.456 50.2748 55.05C50.2748 54.425 49.9748 53.7 49.8998 53.2L49.5248 49.6C51.7454 49.9367 54.0041 49.9367 56.2248 49.6C57.4711 49.3275 58.5587 48.5724 59.2498 47.5C59.6222 46.8473 59.8523 46.1231 59.9248 45.375C60.0308 44.4205 60.0559 43.4588 59.9998 42.5ZM35.4998 10.25C35.4998 10.25 35.7498 9.85005 35.8498 9.65005L36.4748 8.32505L37.2498 6.40005L38.1998 2.72505C38.2761 2.66592 38.3363 2.58854 38.3748 2.50005C38.3748 2.62505 38.7498 4.77505 38.7998 5.00005C38.9488 6.08662 38.9488 7.18847 38.7998 8.27505C38.7998 9.37505 38.4248 12.925 38.3498 12.875C38.2748 12.825 35.4498 10.3 35.4998 10.25ZM22.2998 7.17505C22.4544 6.10088 22.6884 5.03964 22.9998 4.00005C23.8248 5.62505 25.0248 7.87505 25.4998 8.80005C25.6776 9.02862 25.8787 9.23808 26.0998 9.42505L25.3248 9.67505L22.2248 11.875C22.0383 10.3121 22.0635 8.73121 22.2998 7.17505ZM6.37479 26.7C6.89979 24.5 7.34979 22.325 7.82479 20.275C8.04209 18.7019 8.34251 17.1414 8.72479 15.6C8.72479 15.3 8.92479 15 9.02479 14.675C9.42479 15.625 9.84979 16.55 10.0748 17.175C10.5025 18.5322 10.8284 19.9194 11.0498 21.325C11.2553 22.7414 11.3722 24.1692 11.3998 25.6V36.025C11.3998 37.35 11.3998 38.65 11.2248 39.975L9.32479 39.45L4.72479 38.175C4.64686 36.4535 4.73898 34.7285 4.99979 33.025C5.32479 30.9 5.87479 28.8 6.37479 26.7ZM5.27479 47.5C4.82962 47.4483 4.40292 47.2923 4.02935 47.0447C3.65579 46.7971 3.34588 46.4649 3.12479 46.075C2.99328 45.7309 2.91733 45.368 2.89979 45C2.84906 44.2092 2.84906 43.4159 2.89979 42.625C2.87489 42.1504 2.87489 41.6747 2.89979 41.2C2.88768 40.9752 2.88768 40.7499 2.89979 40.525H3.19979L8.74979 41.275L10.7748 41.575H10.9248C10.9248 43.2 10.7498 44.825 10.5998 46.45L10.4748 47.85C8.73458 47.8844 6.99469 47.7673 5.27479 47.5ZM27.9498 56.525C23.4201 56.9708 18.853 56.8616 14.3498 56.2L12.2248 55.375L12.6248 53.575L13.5498 46.7C13.7248 45.025 14.2248 37.4 14.2498 36.125V25.5C14.1806 23.9469 13.9967 22.4011 13.6998 20.875C13.4011 19.3339 12.9747 17.8204 12.4248 16.35C12.0998 15.5 11.3998 14.3 10.9248 13.1C10.639 12.5603 10.4848 11.9607 10.4748 11.35C10.4748 11.475 10.4748 11.35 10.4748 11.35C10.4748 11.225 11.2998 10.75 11.5998 10.575L17.1748 8.07505C17.5498 7.87505 19.0248 7.32505 20.1998 6.82505C19.7464 8.68074 19.5612 10.5918 19.6498 12.5C19.6938 13.2184 19.8111 13.9305 19.9998 14.625C20.0873 14.8594 20.2311 15.0687 20.4186 15.2343C20.6061 15.4 20.8314 15.517 21.0748 15.575C21.4958 15.6795 21.9404 15.6261 22.3248 15.425C22.7549 15.1932 23.1646 14.9256 23.5498 14.625L27.0998 12.125C27.0897 12.1745 27.0897 12.2256 27.0998 12.275C27.0998 12.675 27.5498 13.625 27.6248 13.825L29.5248 18.825C29.6535 19.1777 29.7212 19.5497 29.7248 19.925V22.025L29.4248 28.5C29.2498 32.325 28.9748 36.15 28.8998 39.975C28.8248 43.8 28.8998 47.65 29.1998 51.5L29.3998 56.5L27.9498 56.525ZM48.5498 25.625C48.5576 24.1942 48.6662 22.7656 48.8748 21.35C49.087 19.9344 49.4131 18.5382 49.8498 17.175C50.0748 16.475 50.5248 15.525 50.9248 14.525C51.0498 14.875 51.1748 15.225 51.2748 15.6C51.6595 17.1409 51.9599 18.7015 52.1748 20.275C52.6498 22.325 53.0998 24.5 53.6248 26.7C54.1498 28.9 54.6748 30.9 54.9748 33.025C55.2556 34.7433 55.3645 36.4852 55.2998 38.225L50.6998 39.475L48.7998 40.025C48.7998 38.7 48.6748 37.4 48.6248 36.075C48.5248 32.65 48.4498 29.15 48.5498 25.675V25.625ZM57.0998 45C57.0928 45.4017 57.0167 45.7992 56.8748 46.175C56.6523 46.5615 56.3416 46.8899 55.9679 47.1332C55.5942 47.3765 55.1682 47.5279 54.7248 47.575C52.9488 47.8694 51.1498 48.0033 49.3498 47.975V46.55C49.1998 44.95 49.0998 43.325 48.9998 41.7H49.1498L51.1748 41.4L56.7248 40.65H57.0248C57.0369 40.8749 57.0369 41.1002 57.0248 41.325C57.049 41.7914 57.049 42.2587 57.0248 42.725C57.096 43.4811 57.1211 44.2409 57.0998 45Z" fill="black"/>
<path d="M34.8002 25.2C34.8002 25.325 34.9752 25.575 35.4002 25.775C35.5161 25.7936 35.6343 25.7936 35.7502 25.775L36.3752 25.95L37.9002 26.425C38.5325 26.475 39.1678 26.475 39.8002 26.425C40.7161 26.2695 41.6188 26.0438 42.5002 25.75C42.7234 25.7247 42.9284 25.6146 43.0727 25.4424C43.2169 25.2702 43.2894 25.0491 43.2752 24.825C43.2658 24.7132 43.2343 24.6044 43.1826 24.5048C43.1309 24.4052 43.0601 24.3169 42.9741 24.2448C42.8881 24.1728 42.7887 24.1185 42.6816 24.085C42.5745 24.0516 42.4619 24.0397 42.3502 24.05C41.4654 23.8858 40.5724 23.769 39.6752 23.7H37.9752C36.9695 23.88 35.9759 24.1221 35.0002 24.425C34.7002 24.625 34.8002 25 34.8002 25.2Z" fill="black"/>
</g>
<defs>
<clipPath id="clip0_161_6823">
<rect width="60" height="60" fill="white"/>
</clipPath>
</defs>
</svg>
