<svg width="60" height="60" viewBox="0 0 60 60" fill="none" xmlns="http://www.w3.org/2000/svg">
<g clip-path="url(#clip0_161_6831)">
<path fill-rule="evenodd" clip-rule="evenodd" d="M59.2752 15.2498C56.6512 12.4662 53.6261 10.09 50.3002 8.19982C46.5502 6.02482 40.8002 3.59982 38.7002 4.14982C38.3897 4.21556 38.0988 4.35249 37.8502 4.54982C37.5971 4.74898 37.3849 4.99515 37.2252 5.27482C37.0717 5.54529 36.9699 5.84203 36.9252 6.14982C36.6344 7.56147 35.9087 8.84661 34.8502 9.82482C33.8082 10.8238 32.4792 11.4708 31.0502 11.6748C29.3105 11.8808 27.5516 11.5026 26.0502 10.5998C24.546 9.73408 23.3885 8.37343 22.7752 6.74982C22.5485 6.00197 22.0366 5.37336 21.3502 4.99982C20.6781 4.63303 19.8919 4.53476 19.1502 4.72482C16.3209 5.58214 13.6274 6.83628 11.1502 8.44982C7.56175 10.8375 4.21281 13.5669 1.15022 16.5998C0.565277 17.1496 0.208344 17.8992 0.150216 18.6998C0.0716327 19.4937 0.294762 20.288 0.775216 20.9248C1.37522 21.7748 2.02522 22.5748 2.67522 23.4248C3.65022 24.6248 4.65022 25.7748 5.65022 26.9248C6.20007 27.5712 6.97176 27.9886 7.81367 28.095C8.65558 28.2014 9.50685 27.9891 10.2002 27.4998L10.8752 26.9748L10.1502 52.2748C10.1252 52.7522 10.2019 53.2294 10.3752 53.6748C10.5463 54.1248 10.8104 54.5337 11.1502 54.8748C11.4764 55.2269 11.8781 55.5004 12.3252 55.6748C12.763 55.8777 13.2432 55.9721 13.7252 55.9498L46.2252 55.7498C46.6887 55.7453 47.1469 55.6519 47.5752 55.4748C47.9978 55.2935 48.3802 55.03 48.7002 54.6998C49.0183 54.356 49.2723 53.9581 49.4502 53.5248C49.6257 53.0974 49.7026 52.636 49.6752 52.1748C49.6752 47.9748 49.4002 41.1998 49.1252 34.8498C48.9752 31.4998 48.8002 28.2498 48.6002 25.5248L50.5252 26.7998C51.2139 27.2654 52.0567 27.4447 52.8752 27.2998C53.696 27.1514 54.4292 26.6954 54.9252 26.0248C55.7502 24.8748 56.5252 23.6748 57.3002 22.4748C58.0752 21.2748 58.7752 19.9748 59.4752 18.8498C59.8419 18.3044 60.0257 17.6565 60.0002 16.9998C59.9422 16.3563 59.6893 15.7458 59.2752 15.2498ZM57.8502 17.7498C57.1252 18.9498 56.4002 20.2498 55.6502 21.2998C54.9002 22.3498 54.1002 23.5998 53.3002 24.7248C53.1243 24.9401 52.875 25.0825 52.6002 25.1248C52.462 25.1522 52.3196 25.1508 52.182 25.1207C52.0443 25.0906 51.9144 25.0324 51.8002 24.9498L48.0002 22.4998C47.8244 22.3887 47.6207 22.3298 47.4127 22.3298C47.2047 22.3298 47.001 22.3887 46.8252 22.4998C46.6449 22.6063 46.4979 22.761 46.4007 22.9465C46.3035 23.132 46.2601 23.341 46.2752 23.5498C46.5252 26.5748 46.6752 30.6998 46.8252 35.0248C47.0002 41.3748 47.1002 48.1248 47.1502 52.3498L46.9002 52.9498L46.3002 53.1998H13.8002L13.2502 52.9748L12.9252 52.4998C12.9252 49.4998 13.1252 46.7248 13.2002 44.0248C13.2002 37.7248 13.3502 31.7748 13.5252 24.2498C13.5322 24.0077 13.4701 23.7686 13.3461 23.5605C13.2221 23.3524 13.0415 23.184 12.8252 23.0748C12.6074 22.9644 12.3629 22.9176 12.1197 22.9397C11.8766 22.9618 11.6445 23.052 11.4502 23.1998L8.60022 25.5498C8.43215 25.689 8.21816 25.7603 8.00022 25.7498C7.79242 25.6652 7.6172 25.5163 7.50022 25.3248L2.50022 19.5998C2.42518 19.5103 2.36883 19.4067 2.33448 19.295C2.30013 19.1834 2.28848 19.066 2.30022 18.9498C2.28439 18.7159 2.35562 18.4844 2.50022 18.2998C5.48803 15.3039 8.76198 12.6077 12.2752 10.2498C14.5867 8.68503 17.113 7.46397 19.7752 6.62482C20.0412 6.52511 20.3343 6.52511 20.6002 6.62482C20.7334 6.72832 20.841 6.86107 20.9147 7.01279C20.9884 7.16451 21.0262 7.33115 21.0252 7.49982C21.8098 9.50606 23.2682 11.1766 25.1502 12.2248C26.9981 13.2797 29.1404 13.7012 31.2502 13.4248C33.0263 13.1062 34.6549 12.2306 35.9002 10.9248C37.1991 9.70465 38.0749 8.10197 38.4002 6.34982L38.7502 5.69982C39.9002 5.37482 44.6002 6.87482 49.3752 9.72482C52.5144 11.5586 55.3624 13.8505 57.8252 16.5248C57.9552 16.709 58.033 16.925 58.0502 17.1498C58.0593 17.3907 57.989 17.6278 57.8502 17.8248V17.7498Z" fill="black"/>
<path fill-rule="evenodd" clip-rule="evenodd" d="M40.9504 24.8249C40.8295 24.4153 40.6617 24.0211 40.4504 23.6499C40.0501 22.7885 39.3995 22.0677 38.5833 21.5816C37.7672 21.0955 36.8235 20.8666 35.8754 20.9249C33.9716 21.161 32.2066 22.0435 30.8754 23.4249C29.3654 21.967 27.3934 21.0827 25.3004 20.9249C23.8685 20.8749 22.4691 21.3589 21.3742 22.2829C20.2792 23.2069 19.5668 24.505 19.3754 25.9249C19.1255 26.9295 19.0411 27.9682 19.1254 28.9999C19.4354 30.8806 20.3069 32.6235 21.6254 33.9999C22.5504 35.0999 30.6504 42.8999 31.6254 41.8249C34.1366 39.7638 36.4393 37.4611 38.5004 34.9499C39.9079 33.1415 40.8905 31.0396 41.3754 28.7999C41.4637 28.3129 41.5139 27.8198 41.5254 27.3249C41.5625 26.834 41.5625 26.3409 41.5254 25.8499C41.3648 25.4917 41.1724 25.1487 40.9504 24.8249ZM38.9254 28.5749C38.6024 30.5049 37.8413 32.3351 36.7004 33.9249C34.9636 36.2437 33.0134 38.3948 30.8754 40.3499C28.4848 38.4238 26.2295 36.3355 24.1254 34.0999C22.6757 32.7294 21.718 30.9194 21.4004 28.9499C21.3755 28.567 21.3755 28.1829 21.4004 27.7999C21.4452 27.4092 21.5289 27.024 21.6504 26.6499C21.7608 25.8461 22.1634 25.1112 22.7814 24.5855C23.3993 24.0597 24.1893 23.7801 25.0004 23.7999C25.9004 23.8818 26.7744 24.1457 27.5694 24.5754C28.3644 25.0051 29.0639 25.5918 29.6254 26.2999C29.7635 26.4639 29.9357 26.5959 30.13 26.6865C30.3243 26.7772 30.536 26.8244 30.7504 26.8249C30.9642 26.8131 31.1729 26.7557 31.3627 26.6565C31.5524 26.5574 31.7187 26.4187 31.8504 26.2499C32.693 25.0908 33.871 24.2182 35.2254 23.7499C35.7653 23.548 36.361 23.5538 36.8969 23.7663C37.4328 23.9788 37.8706 24.3828 38.1254 24.8999L38.7504 26.4749C38.8304 26.8108 38.8723 27.1547 38.8754 27.4999C38.9325 27.8552 38.9493 28.2159 38.9254 28.5749Z" fill="black"/>
</g>
<defs>
<clipPath id="clip0_161_6831">
<rect width="60" height="60" fill="white"/>
</clipPath>
</defs>
</svg>
