<svg width="60" height="60" viewBox="0 0 60 60" fill="none" xmlns="http://www.w3.org/2000/svg">
<g clip-path="url(#clip0_165_7228)">
<path fill-rule="evenodd" clip-rule="evenodd" d="M43.3248 42.7751C42.7812 43.3072 42.0598 43.6189 41.2998 43.6501C41.0545 43.6501 40.8192 43.7475 40.6457 43.921C40.4722 44.0945 40.3748 44.3298 40.3748 44.5751C40.3748 44.8204 40.4722 45.0557 40.6457 45.2292C40.8192 45.4026 41.0545 45.5001 41.2998 45.5001C42.2683 45.5572 43.2324 45.3314 44.0748 44.8501C45.2543 44.1229 46.2204 43.0965 46.8748 41.8751C48.1822 39.589 48.8876 37.0083 48.9248 34.3751C48.9139 32.4435 48.2436 30.5736 47.0248 29.0751C46.3538 28.2988 45.5252 27.6744 44.5941 27.2433C43.663 26.8123 42.6508 26.5845 41.6248 26.5751C40.6118 26.5631 39.6166 26.8416 38.757 27.3777C37.8975 27.9138 37.2096 28.6851 36.7748 29.6001C36.6966 29.6917 36.6393 29.7993 36.6072 29.9154C36.575 30.0314 36.5686 30.1532 36.5885 30.272C36.6083 30.3908 36.654 30.5038 36.7222 30.603C36.7904 30.7023 36.8795 30.7855 36.9833 30.8466C37.0871 30.9078 37.203 30.9455 37.3229 30.957C37.4428 30.9686 37.5638 30.9538 37.6773 30.9136C37.7909 30.8734 37.8942 30.8089 37.9802 30.7245C38.0661 30.6401 38.1326 30.5379 38.1748 30.4251C38.5353 29.8761 39.0429 29.4396 39.6397 29.1655C40.2366 28.8914 40.8985 28.7908 41.5498 28.8751C42.1871 28.9754 42.7973 29.2044 43.3432 29.5483C43.889 29.8921 44.3591 30.3436 44.7248 30.8751C45.628 32.2184 46.0102 33.8451 45.7998 35.4501C45.7335 37.2386 45.3439 39.0004 44.6498 40.6501C44.3579 41.4415 43.907 42.1647 43.3248 42.7751Z" fill="black"/>
<path fill-rule="evenodd" clip-rule="evenodd" d="M54.9997 27.9749C54.2489 26.2651 53.1103 24.7537 51.674 23.5604C50.2376 22.367 48.5431 21.5246 46.7247 21.0999C38.4997 19.4499 36.3247 26.7499 35.0997 27.3999C33.1377 28.3287 31.0333 28.9203 28.8747 29.1499C24.737 29.7725 20.5375 29.8733 16.3747 29.4499C13.7019 29.223 11.0927 28.5114 8.67473 27.3499C8.15112 27.138 7.68906 26.7981 7.3309 26.3613C6.97273 25.9245 6.72993 25.4048 6.62473 24.8499C6.62728 24.2601 6.77172 23.6797 7.04585 23.1575C7.31999 22.6354 7.71575 22.1869 8.19973 21.8499C9.02426 21.2108 9.94371 20.7047 10.9247 20.3499C12.542 19.7612 14.2185 19.3505 15.9247 19.1249C17.3732 18.8954 18.8342 18.7535 20.2997 18.6999C21.7563 18.5999 23.2181 18.5999 24.6747 18.6999C27.2166 18.8897 29.7308 19.3507 32.1747 20.0749C33.7692 20.5283 35.2862 21.2194 36.6747 22.1249C36.7634 22.1873 36.8634 22.2317 36.9692 22.2554C37.075 22.2791 37.1844 22.2818 37.2912 22.2632C37.398 22.2446 37.5001 22.2052 37.5916 22.1471C37.6832 22.0891 37.7624 22.0136 37.8247 21.9249C37.8865 21.8382 37.9304 21.7402 37.9538 21.6364C37.9772 21.5326 37.9796 21.4251 37.961 21.3204C37.9424 21.2156 37.9031 21.1156 37.8453 21.0262C37.7876 20.9369 37.7126 20.8599 37.6247 20.7999C36.1377 19.736 34.5039 18.8939 32.7747 18.2999C30.2564 17.408 27.6499 16.7878 24.9997 16.4499C23.4434 16.2215 21.8727 16.1045 20.2997 16.0999C18.7389 16.0791 17.1781 16.1459 15.6247 16.2999C13.7104 16.4863 11.8234 16.8888 9.99973 17.4999C8.68648 17.9325 7.45948 18.5925 6.37473 19.4499C5.502 20.0839 4.79594 20.92 4.31701 21.8866C3.83807 22.8532 3.60053 23.9214 3.62473 24.9999C3.76744 26.1027 4.20178 27.1474 4.88295 28.0263C5.56411 28.9052 6.46743 29.5865 7.49973 29.9999C10.2763 31.2832 13.2706 32.0297 16.3247 32.1999C20.7264 32.4761 25.1453 32.1905 29.4747 31.3499C31.8624 30.9706 34.1695 30.1931 36.2997 29.0499C39.4497 27.1749 39.2997 21.3499 46.2997 23.3249C47.6855 23.7552 48.9528 24.5005 50.0024 25.5024C51.052 26.5043 51.8554 27.7356 52.3497 29.0999C53.6701 32.1893 54.0189 35.6074 53.3497 38.8999C52.7353 42.1916 50.9614 45.1541 48.3497 47.2499C47.2444 48.1209 45.9788 48.7665 44.6247 49.1499C43.2229 49.536 41.7785 49.746 40.3247 49.7749C40.2035 49.7679 40.0822 49.7862 39.9685 49.8286C39.8548 49.871 39.7511 49.9366 39.6641 50.0213C39.5771 50.1059 39.5087 50.2078 39.4632 50.3203C39.4177 50.4328 39.3961 50.5536 39.3997 50.6749C39.3964 50.7952 39.4172 50.9149 39.4609 51.027C39.5047 51.1391 39.5704 51.2413 39.6543 51.3275C39.7382 51.4137 39.8386 51.4823 39.9494 51.5291C40.0603 51.5758 40.1794 51.5999 40.2997 51.5999C41.8728 51.7022 43.4525 51.6013 44.9997 51.2999C46.6544 50.9328 48.224 50.2541 49.6247 49.2999C52.9381 47.0107 55.2816 43.5711 56.1997 39.6499C57.063 35.7303 56.6423 31.6369 54.9997 27.9749Z" fill="black"/>
<path fill-rule="evenodd" clip-rule="evenodd" d="M20.4994 39.0499L23.7244 36.5499C23.9046 36.4321 24.0316 36.2485 24.0784 36.0383C24.1251 35.8281 24.0877 35.6079 23.9744 35.4249C23.9344 35.3183 23.8721 35.2215 23.7917 35.1409C23.7113 35.0603 23.6146 34.9979 23.5081 34.9576C23.4016 34.9174 23.2878 34.9004 23.1742 34.9076C23.0606 34.9149 22.9498 34.9464 22.8494 34.9999L19.1744 37.4999L16.6744 39.3499C15.8792 39.8928 15.1194 40.4857 14.3994 41.1249C14.0269 41.498 13.7819 41.9792 13.6994 42.4999C13.6776 42.8028 13.7439 43.1056 13.8903 43.3718C14.0366 43.6379 14.2569 43.856 14.5244 43.9999C15.1566 44.3138 15.8181 44.565 16.4994 44.7499C17.5566 45.0303 18.6353 45.2226 19.7244 45.3249H22.8994L23.8744 45.0999L23.4494 45.6249C22.6829 46.8299 21.8482 47.9901 20.9494 49.0999C19.9994 50.2249 19.0244 51.2749 17.9994 52.2999C17.8953 52.3761 17.8084 52.4731 17.7441 52.5849C17.6798 52.6966 17.6396 52.8206 17.626 52.9488C17.6124 53.077 17.6258 53.2066 17.6653 53.3294C17.7048 53.4521 17.7694 53.5652 17.8552 53.6615C17.941 53.7578 18.0459 53.835 18.1633 53.8884C18.2807 53.9417 18.4079 53.9699 18.5368 53.9711C18.6657 53.9724 18.7935 53.9467 18.9119 53.8957C19.0303 53.8447 19.1367 53.7694 19.2244 53.6749C20.4077 52.7082 21.5327 51.6832 22.5994 50.5999C23.6959 49.5246 24.723 48.3806 25.6744 47.1749C26.2794 46.4769 26.792 45.7039 27.1994 44.8749C27.3974 44.4097 27.4497 43.8954 27.3494 43.3999C27.2126 43.0779 26.9873 42.8013 26.6997 42.6022C26.4121 42.4031 26.0739 42.2896 25.7244 42.2749H22.9744C22.0244 42.2749 21.0494 42.2749 20.0744 42.1499C19.2084 42.0846 18.348 41.9593 17.4994 41.7749L18.4244 41.1499L20.4994 39.0499Z" fill="black"/>
<path fill-rule="evenodd" clip-rule="evenodd" d="M37.8246 33.2999C37.8455 33.1813 37.8402 33.0595 37.809 32.9432C37.7778 32.8268 37.7215 32.7187 37.644 32.6265C37.5666 32.5342 37.4699 32.46 37.3607 32.4091C37.2516 32.3582 37.1326 32.3318 37.0121 32.3318C36.8917 32.3318 36.7727 32.3582 36.6635 32.4091C36.5543 32.46 36.4576 32.5342 36.3802 32.6265C36.3027 32.7187 36.2465 32.8268 36.2153 32.9432C36.1841 33.0595 36.1787 33.1813 36.1996 33.2999C36.0746 36.0249 35.8996 38.7749 35.9496 41.5249C35.9496 43.1499 36.0996 44.7749 36.1996 46.3749C36.4073 48.7773 36.4908 51.1889 36.4496 53.5999C36.4096 53.7131 36.4096 53.8367 36.4496 53.9499C33.8847 55.193 31.1447 56.0361 28.3246 56.4499C26.1878 56.7508 24.0325 56.9011 21.8746 56.8999C19.6996 56.8999 17.5246 56.8999 15.3746 56.7499C13.5639 56.7181 11.7619 56.4918 9.99961 56.0749C8.94961 55.7999 7.49961 55.8499 6.67461 51.2249C6.37921 48.9542 6.29552 46.661 6.42461 44.3749C6.42461 43.0249 6.42461 41.6999 6.19961 40.3749C5.94961 37.2749 5.49961 34.2249 5.29961 31.0999C5.26597 30.9088 5.16608 30.7358 5.01748 30.611C4.86889 30.4863 4.6811 30.418 4.48711 30.418C4.29312 30.418 4.10533 30.4863 3.95674 30.611C3.80814 30.7358 3.70825 30.9088 3.67461 31.0999C3.44961 33.7999 3.24961 36.4749 3.22461 39.1749V44.4999C3.32743 46.9691 3.67072 49.4223 4.24961 51.8249C4.24961 51.8249 5.74961 55.7999 5.77461 55.8249C6.75727 56.8226 7.95419 57.5835 9.27461 58.0499C11.1254 58.7373 13.0448 59.2235 14.9996 59.4999C16.9445 59.798 18.9073 59.9651 20.8746 59.9999C22.8082 60.022 24.7401 59.8798 26.6496 59.5749C30.4903 58.9826 34.177 57.6405 37.4996 55.6249C37.6784 55.512 37.8132 55.3413 37.8814 55.1411C37.9497 54.941 37.9473 54.7235 37.8746 54.5249C37.9737 54.4513 38.0562 54.3576 38.1165 54.2499C38.1768 54.1421 38.2137 54.0229 38.2246 53.8999C38.7032 51.501 38.9957 49.0688 39.0996 46.6249V43.4999C39.0996 42.4749 38.9746 41.4249 38.8496 40.3999C38.6246 37.9999 38.1496 35.6749 37.8246 33.2999Z" fill="black"/>
<path fill-rule="evenodd" clip-rule="evenodd" d="M17.4996 8.84999C17.8723 9.07345 18.2024 9.36124 18.4746 9.69999C18.6746 9.99999 18.6246 10.375 18.2746 10.875L17.4996 11.575C17.388 11.6242 17.2872 11.695 17.2029 11.7832C17.1186 11.8714 17.0525 11.9754 17.0084 12.0891C16.9643 12.2029 16.943 12.3242 16.9458 12.4462C16.9486 12.5681 16.9754 12.6884 17.0246 12.8C17.1241 13.0254 17.309 13.2021 17.5387 13.2912C17.6525 13.3353 17.7738 13.3566 17.8958 13.3538C18.0178 13.351 18.138 13.3242 18.2496 13.275C18.5384 13.1722 18.815 13.038 19.0746 12.875C19.3615 12.7035 19.6297 12.5024 19.8746 12.275C20.4285 11.8568 20.8274 11.2662 21.0084 10.5963C21.1895 9.92636 21.1424 9.21521 20.8746 8.57499C20.2784 7.4475 19.4212 6.47891 18.3746 5.74999C16.8996 4.44999 16.5496 4.34999 18.1746 3.24999C19.0103 2.63415 19.8968 2.09052 20.8246 1.62499C21.0297 1.55147 21.1974 1.3998 21.2911 1.20308C21.3848 1.00636 21.3968 0.780568 21.3246 0.574994C21.2989 0.467627 21.2513 0.366732 21.1848 0.278656C21.1183 0.190581 21.0342 0.117232 20.9379 0.0632231C20.8416 0.00921458 20.7352 -0.0242844 20.6254 -0.0351661C20.5155 -0.0460479 20.4046 -0.0340769 20.2996 -6.38887e-06C18.6549 0.370781 17.0777 0.994893 15.6246 1.84999C15.1317 2.14332 14.7245 2.56097 14.4437 3.06113C14.1629 3.5613 14.0184 4.12643 14.0246 4.69999C14.2389 5.91134 14.9101 6.99418 15.8996 7.72499C16.3996 8.12499 16.9496 8.49999 17.4996 8.84999Z" fill="black"/>
<path fill-rule="evenodd" clip-rule="evenodd" d="M26.5998 8.82503C26.9785 9.03989 27.3169 9.31906 27.5998 9.65003C27.6921 9.84855 27.72 10.0709 27.6797 10.2861C27.6393 10.5013 27.5327 10.6984 27.3748 10.85L26.5748 11.55C26.3549 11.6487 26.1822 11.8294 26.0935 12.0535C26.0047 12.2776 26.007 12.5276 26.0998 12.75C26.1463 12.8642 26.2151 12.968 26.3022 13.0552C26.3893 13.1424 26.4929 13.2113 26.6071 13.2579C26.7212 13.3045 26.8435 13.3278 26.9667 13.3264C27.09 13.3251 27.2117 13.2991 27.3248 13.25C27.6195 13.1422 27.9039 13.0084 28.1748 12.85C28.4556 12.6712 28.7155 12.4615 28.9498 12.225C29.5123 11.8137 29.9212 11.2261 30.1114 10.5557C30.3017 9.8853 30.2624 9.17054 29.9998 8.52503C29.3929 7.40499 28.5377 6.43867 27.4998 5.70003C27.1583 5.42725 26.8328 5.13511 26.5248 4.82503C25.9248 4.15003 25.8498 4.17503 27.2748 3.15003C28.1423 2.55729 29.0532 2.03079 29.9998 1.57503C30.1004 1.54129 30.1934 1.48786 30.2731 1.41786C30.3529 1.34785 30.418 1.26267 30.4645 1.16727C30.5111 1.07187 30.5381 0.968167 30.5442 0.862197C30.5503 0.756228 30.5352 0.650113 30.4998 0.550033C30.4263 0.344927 30.2746 0.177235 30.0779 0.0835585C29.8812 -0.0101176 29.6554 -0.0221697 29.4498 0.0500328C27.8106 0.401498 26.2342 0.999995 24.7748 1.82503C24.2853 2.1221 23.8808 2.54056 23.6005 3.03987C23.3201 3.53918 23.1735 4.10242 23.1748 4.67503C23.3765 5.87871 24.029 6.96038 24.9998 7.70003C25.5498 8.10003 26.0998 8.45003 26.5998 8.82503Z" fill="black"/>
</g>
<defs>
<clipPath id="clip0_165_7228">
<rect width="60" height="60" fill="white"/>
</clipPath>
</defs>
</svg>
