<svg width="60" height="60" viewBox="0 0 60 60" fill="none" xmlns="http://www.w3.org/2000/svg">
<g clip-path="url(#clip0_165_7225)">
<path fill-rule="evenodd" clip-rule="evenodd" d="M19.8494 11.4501C20.8783 11.898 21.7865 12.5834 22.4994 13.4501C22.7158 13.814 22.8362 14.2269 22.8494 14.6501C22.9744 16.0001 22.4994 17.5001 22.6994 18.8001C22.8214 19.879 23.0819 20.9377 23.4744 21.9501C24.046 23.3939 24.7315 24.7899 25.5244 26.1251C25.5619 26.2142 25.6223 26.2918 25.6994 26.3501C25.7653 26.4532 25.8533 26.5403 25.9571 26.6052C26.0609 26.67 26.1778 26.711 26.2994 26.7251C26.4097 26.7427 26.5225 26.7377 26.6309 26.7104C26.7392 26.6831 26.8409 26.634 26.9298 26.5662C27.0186 26.4984 27.0927 26.4133 27.1477 26.316C27.2026 26.2186 27.2372 26.1112 27.2494 26.0001C27.9244 21.8501 31.8994 18.9251 33.4244 15.1751C33.8842 14.0479 34.1219 12.8425 34.1244 11.6251C34.037 9.37068 33.3743 7.17611 32.1994 5.25009C31.0197 3.25973 29.281 1.66008 27.1994 0.65009C24.7829 -0.263897 22.1158 -0.263897 19.6994 0.65009C18.8213 0.921481 18.0108 1.37598 17.3213 1.9836C16.6318 2.59122 16.079 3.33814 15.6994 4.17509C15.357 4.91778 15.2272 5.74081 15.3243 6.55282C15.4214 7.36483 15.7416 8.13405 16.2494 8.77509C17.2581 9.89884 18.4823 10.8085 19.8494 11.4501ZM18.3994 5.25009C18.7381 4.66496 19.2079 4.1663 19.7718 3.79327C20.3357 3.42023 20.9783 3.18296 21.6494 3.10009C23.1005 2.71685 24.6332 2.77781 26.0494 3.27509C27.6758 3.98888 29.0515 5.173 29.9994 6.67509C31.0014 8.16631 31.6118 9.88584 31.7744 11.6751C31.8229 12.5765 31.6868 13.4782 31.3744 14.3251C30.1994 17.6001 27.3244 20.4001 26.1244 23.7251C25.6914 22.9795 25.3153 22.2023 24.9994 21.4001C24.7156 20.5086 24.5476 19.5844 24.4994 18.6501C24.4994 17.3251 24.9244 15.9251 24.9244 14.5751C24.9381 13.8605 24.793 13.1517 24.4994 12.5001C23.8464 11.3782 22.9278 10.4338 21.8244 9.75009C20.5494 9.12878 19.3975 8.28179 18.4244 7.25009C18.2425 6.94913 18.1443 6.60508 18.14 6.25349C18.1356 5.90189 18.2251 5.5555 18.3994 5.25009Z" fill="black"/>
<path fill-rule="evenodd" clip-rule="evenodd" d="M52.2748 27.1501C51.349 25.8879 50.0003 25.0006 48.4748 24.6501C47.8423 24.4672 47.1793 24.415 46.526 24.4966C45.8726 24.5783 45.2428 24.7921 44.6748 25.1251C44.6051 24.3948 44.4966 23.6688 44.3498 22.9501C44.2204 22.2532 44.0107 21.5736 43.7248 20.9251C43.4914 20.4824 43.215 20.0637 42.8998 19.6751C42.2068 18.8628 41.3564 18.1994 40.3998 17.7251C39.1748 17.1251 37.8998 16.7501 36.3248 16.1501C36.1155 16.0654 35.8815 16.065 35.6718 16.1488C35.4622 16.2327 35.293 16.3944 35.1998 16.6001C35.1553 16.7049 35.1322 16.8176 35.1321 16.9315C35.132 17.0454 35.1547 17.1582 35.199 17.2632C35.2433 17.3681 35.3083 17.4631 35.39 17.5424C35.4718 17.6218 35.5686 17.6839 35.6748 17.7251C37.0998 18.3251 38.4248 18.7251 39.5748 19.3251C40.3226 19.694 40.9798 20.2232 41.4998 20.8751C41.7799 21.2003 42 21.5728 42.1498 21.9751C42.3074 22.4239 42.4327 22.8834 42.5248 23.3501C42.7678 24.6202 42.9099 25.9075 42.9498 27.2001C42.9498 29.2251 42.9498 31.2501 43.0748 33.2251C43.1337 35.4853 43.0669 37.7472 42.8748 40.0001C42.6998 42.2251 42.4248 44.4501 42.0248 46.7001C41.8498 47.7001 41.7498 48.9001 41.4748 50.0251C41.3656 50.6234 41.1542 51.1984 40.8498 51.7251C40.6165 52.0334 40.3283 52.2961 39.9998 52.5001C39.3998 52.9501 38.7248 53.3501 38.1998 53.7251C37.1433 54.3628 36.0199 54.8826 34.8498 55.2751C33.0037 55.9254 31.1162 56.4516 29.1998 56.8501C26.728 57.3804 24.1717 57.3804 21.6998 56.8501C19.1695 56.2524 16.7251 55.3368 14.4248 54.1251C13.464 53.647 12.5368 53.1041 11.6498 52.5001C11.1348 52.1503 10.6719 51.7295 10.2748 51.2501C10.1337 50.9236 10.0411 50.5783 9.99982 50.2251C9.79982 49.5501 9.67482 48.8251 9.52482 48.1751C9.12787 46.6045 8.83557 45.0093 8.64982 43.4001C8.47168 41.7811 8.37988 40.1538 8.37482 38.5251V31.9251L8.67482 28.2501L8.99982 25.9751C9.1462 24.7441 9.55544 23.559 10.1998 22.5001C10.9393 21.4813 11.8847 20.6296 12.9748 20.0001L15.4748 18.6001C15.904 18.3951 16.3467 18.2197 16.7998 18.0751C17.9248 17.6751 19.1248 17.3501 20.1748 16.9501C20.2744 16.9216 20.3669 16.8728 20.4467 16.8067C20.5265 16.7407 20.5917 16.6589 20.6383 16.5664C20.6848 16.4739 20.7118 16.3728 20.7174 16.2694C20.7229 16.166 20.7071 16.0626 20.6707 15.9657C20.6343 15.8687 20.5783 15.7803 20.5061 15.7061C20.4339 15.6319 20.3471 15.5734 20.2512 15.5344C20.1553 15.4953 20.0524 15.4766 19.9489 15.4793C19.8454 15.482 19.7436 15.5061 19.6498 15.5501C18.6248 15.9001 17.3998 16.1751 16.2748 16.5501C15.7616 16.7153 15.2604 16.9158 14.7748 17.1501L11.9998 18.5251C10.6933 19.2495 9.56565 20.2576 8.69982 21.4751C7.84456 22.7099 7.2726 24.1185 7.02482 25.6001L6.57482 28.1001L6.14982 31.9251L5.87482 38.5501C5.82547 40.2765 5.87555 42.0044 6.02482 43.7251C6.1673 45.4572 6.42622 47.1777 6.79982 48.8751C6.97837 49.7392 7.21218 50.5909 7.49982 51.4251C7.66444 51.8872 7.89155 52.3246 8.17482 52.7251C8.7258 53.484 9.40216 54.1435 10.1748 54.6751C11.2056 55.3584 12.2833 55.9682 13.3998 56.5001C15.9089 57.8203 18.5704 58.8278 21.3248 59.5001C24.1839 60.1143 27.1408 60.1143 29.9998 59.5001C32.0543 59.0669 34.0759 58.4905 36.0498 57.7751C37.4308 57.2829 38.7484 56.6283 39.9748 55.8251C40.6514 55.3965 41.3025 54.9291 41.9248 54.4251C42.4421 54.0241 42.8825 53.5328 43.2248 52.9751C43.5764 52.3721 43.8455 51.7246 44.0248 51.0501C44.3748 49.7001 44.4498 48.2001 44.6498 46.9501C44.7748 46.1251 44.7998 45.3251 44.8998 44.4501C44.967 44.542 45.0531 44.6186 45.1522 44.6747C45.2514 44.7307 45.3614 44.7649 45.4748 44.7751C46.4506 44.8878 47.4384 44.7231 48.3248 44.3001C49.5515 43.7061 50.6347 42.8531 51.4998 41.8001C53.1285 39.7182 54.0866 37.1908 54.2473 34.5525C54.408 31.9142 53.7638 29.2892 52.3998 27.0251L52.2748 27.1501ZM49.5248 40.5251C49.053 41.2616 48.4415 41.8985 47.7248 42.4001C47.1097 42.9025 46.3439 43.1842 45.5498 43.2001C45.4319 43.1917 45.3135 43.2073 45.2018 43.246C45.0901 43.2847 44.9873 43.3456 44.8998 43.4251C44.8998 42.3001 45.1748 41.1751 45.2248 40.0751C45.362 37.7354 45.362 35.3897 45.2248 33.0501C45.2248 31.0751 45.2248 29.0251 44.9748 27.0001C44.9609 26.8838 44.9609 26.7663 44.9748 26.6501H44.9998C45.4259 26.382 45.9125 26.2255 46.4149 26.195C46.9174 26.1644 47.4194 26.2607 47.8748 26.4751C48.8249 26.8395 49.6139 27.531 50.0998 28.4251C50.553 29.3657 50.8647 30.3682 51.0248 31.4001C51.2049 32.4398 51.272 33.4959 51.2248 34.5501C51.2183 36.6601 50.6301 38.7276 49.5248 40.5251Z" fill="black"/>
<path fill-rule="evenodd" clip-rule="evenodd" d="M18.1251 22.875C19.0231 22.5453 19.9532 22.3107 20.9001 22.175C20.999 22.1628 21.0944 22.1309 21.1808 22.0813C21.2672 22.0318 21.3429 21.9655 21.4034 21.8864C21.4639 21.8072 21.508 21.7168 21.5332 21.6205C21.5584 21.5241 21.5642 21.4237 21.5501 21.325C21.5192 21.1282 21.4136 20.9509 21.2553 20.8298C21.097 20.7088 20.8982 20.6533 20.7001 20.6751C19.4254 20.78 18.1671 21.0316 16.9501 21.425C16.0476 21.6979 15.201 22.1297 14.4501 22.7C13.8834 23.134 13.4161 23.6843 13.0798 24.3138C12.7434 24.9434 12.5458 25.6377 12.5001 26.35C12.467 27.1267 12.639 27.8984 12.9988 28.5874C13.3587 29.2765 13.8938 29.8585 14.5501 30.275C15.2306 30.7364 15.9823 31.0826 16.7751 31.3001C17.8345 31.5601 18.9129 31.7356 20.0001 31.825C21.7694 32.0059 23.5466 32.0977 25.3251 32.1C26.5296 32.1056 27.7329 32.022 28.9251 31.85C30.7912 31.5592 32.5979 30.9682 34.2751 30.1C35.4756 29.4983 36.5328 28.6458 37.3751 27.6C37.7622 27.1251 38.0897 26.6046 38.3501 26.05C38.5253 25.6015 38.6348 25.1299 38.6751 24.65C38.6901 24.1266 38.593 23.6059 38.3903 23.123C38.1877 22.6401 37.8842 22.2061 37.5001 21.85C36.4245 20.9362 35.0834 20.3928 33.6751 20.3C33.4716 20.3348 33.2869 20.4405 33.1537 20.5983C33.0205 20.7562 32.9475 20.956 32.9475 21.1625C32.9475 21.3691 33.0205 21.5689 33.1537 21.7268C33.2869 21.8846 33.4716 21.9903 33.6751 22.0251C34.4936 22.1124 35.2722 22.4238 35.9251 22.925C36.2073 23.1024 36.4386 23.3501 36.5964 23.6437C36.7541 23.9373 36.833 24.2668 36.8251 24.6C36.79 24.8673 36.6961 25.1234 36.5501 25.35C36.3599 25.6605 36.1424 25.9533 35.9001 26.225C34.9974 27.1065 33.9018 27.7655 32.7001 28.15C31.451 28.6152 30.1497 28.9258 28.8251 29.075C27.7377 29.1963 26.6442 29.2547 25.5501 29.25C23.8501 29.25 22.1501 29.25 20.5501 28.975C19.5268 28.9616 18.5065 28.8612 17.5001 28.675C16.9744 28.5713 16.4683 28.3857 16.0001 28.125C15.6692 27.9642 15.3851 27.7212 15.175 27.4191C14.9649 27.1171 14.8358 26.7662 14.8001 26.4001C14.8099 25.98 14.9085 25.5668 15.0894 25.1876C15.2704 24.8084 15.5297 24.4718 15.8501 24.2C16.5062 23.6025 17.2816 23.1509 18.1251 22.875Z" fill="black"/>
</g>
<defs>
<clipPath id="clip0_165_7225">
<rect width="60" height="60" fill="white"/>
</clipPath>
</defs>
</svg>
