<svg width="60" height="60" viewBox="0 0 60 60" fill="none" xmlns="http://www.w3.org/2000/svg">
<g clip-path="url(#clip0_165_7227)">
<path d="M51.3754 15.0001C51.231 14.6588 51.0126 14.3539 50.7358 14.1075C50.4591 13.861 50.1311 13.6792 49.7754 13.5751C48.9024 13.2901 47.9934 13.1301 47.0754 13.1001L37.8004 12.7251H31.5254C30.1254 12.7251 28.7254 12.7251 27.3004 12.9501C25.5004 13.1251 23.7004 13.2251 21.8754 13.3251C20.0504 13.4251 18.6004 13.3251 16.8754 13.3251L15.7254 10.0001C15.3864 9.04178 14.9856 8.10648 14.5254 7.20009C14.1504 6.57509 13.7754 5.97509 13.3504 5.35009C12.9254 4.72509 12.5504 4.27509 12.1004 3.62509C11.6504 2.97509 11.2254 2.50009 10.7254 1.80009C10.4579 1.40765 10.2157 0.998477 10.0004 0.575086C9.96628 0.464904 9.91067 0.362564 9.8368 0.273957C9.76294 0.185349 9.67228 0.112221 9.57005 0.0587813C9.46782 0.0053415 9.35603 -0.0273557 9.24111 -0.037429C9.12619 -0.0475023 9.01042 -0.0347529 8.90045 8.56742e-05C8.79595 0.0363176 8.6998 0.0931926 8.61772 0.167329C8.53564 0.241465 8.4693 0.331349 8.42266 0.431637C8.37601 0.531924 8.35001 0.640567 8.34619 0.751105C8.34238 0.861644 8.36083 0.971821 8.40045 1.07509C8.51231 1.49316 8.65435 1.90256 8.82545 2.30009C9.20045 3.25009 9.70045 4.20009 9.97545 4.80009C10.2504 5.40009 10.6254 6.20009 10.9504 6.80009C11.2754 7.40009 11.9254 8.45009 12.4754 9.30009C12.7754 9.80009 13.1254 10.3001 13.4754 10.9251L15.1004 13.4251C14.1523 13.4299 13.2067 13.5219 12.2754 13.7001C11.5739 13.803 10.9062 14.0683 10.3254 14.4751C10.1653 14.6173 10.0646 14.8147 10.0437 15.0279C10.0228 15.241 10.0832 15.4542 10.2127 15.6248C10.3422 15.7954 10.5314 15.9108 10.7423 15.9479C10.9533 15.9851 11.1705 15.9412 11.3504 15.8251C11.8857 15.525 12.4869 15.3619 13.1004 15.3501C14.1994 15.2809 15.3015 15.2809 16.4004 15.3501H21.9254C23.7754 15.3501 25.6504 15.3501 27.4754 15.1501H31.5504H37.7754L46.9254 15.8001C47.3004 15.8001 48.8754 15.8001 48.8504 16.2751C48.8504 17.2001 48.5504 19.0751 48.4254 19.7501C48.3004 20.4251 48.2754 21.1251 48.1254 22.0251C48.0299 22.4936 47.8961 22.9535 47.7254 23.4001C47.0561 23.6237 46.3561 23.7418 45.6504 23.7501C43.4754 23.7501 41.0754 23.4251 39.1754 23.4751L19.1754 24.1501L12.5004 24.3251C12.0676 24.3533 11.6333 24.3533 11.2004 24.3251H10.5254V22.9001L11.1754 17.1501C11.1823 17.0508 11.1686 16.9511 11.1353 16.8573C11.102 16.7634 11.0496 16.6775 10.9816 16.6048C10.9136 16.5321 10.8313 16.4742 10.7399 16.4346C10.6486 16.3951 10.55 16.3748 10.4504 16.3751C10.3511 16.3682 10.2514 16.3819 10.1576 16.4152C10.0638 16.4486 9.97787 16.5009 9.90516 16.5689C9.83245 16.6369 9.77453 16.7192 9.73501 16.8106C9.69548 16.902 9.67521 17.0005 9.67545 17.1001L8.77545 22.8251C8.71552 23.3818 8.71552 23.9434 8.77545 24.5001C8.82952 24.8736 8.99507 25.2222 9.25045 25.5001C9.57822 25.8201 9.99773 26.0299 10.4504 26.1001C10.7576 26.1383 11.0683 26.1383 11.3754 26.1001C11.3754 26.1001 11.3754 26.1001 11.3754 26.2501V29.1251C11.3754 30.5751 11.4504 32.0001 11.6004 33.4001L11.8254 40.1501V46.0001C11.7849 48.1989 11.9186 50.3974 12.2254 52.5751C12.4004 54.1699 12.8844 55.7154 13.6504 57.1251C14.1196 57.8864 14.7844 58.508 15.5754 58.9251C16.6296 59.4067 17.7674 59.6785 18.9254 59.7251C20.0004 60.0001 21.0254 60.0001 22.1004 60.0001H26.7754H33.3004C34.4004 60.0001 35.4004 60.0001 36.2004 59.8501C37.8896 59.7506 39.5646 59.4826 41.2004 59.0501C42.4396 58.6943 43.5559 58.002 44.4254 57.0501C45.1856 55.9859 45.6669 54.7482 45.8254 53.4501C46.2254 50.9501 46.2504 47.8001 46.4004 45.9501L46.6754 37.3251V33.7751V28.4751V26.5251C47.4526 26.4448 48.2167 26.2685 48.9504 26.0001C49.5899 25.72 50.093 25.199 50.3504 24.5501C50.7998 23.1717 51.0851 21.7452 51.2004 20.3001C51.4 19.3176 51.5419 18.3242 51.6254 17.3251C51.6954 16.5412 51.6105 15.7512 51.3754 15.0001ZM45.0004 26.6251V28.4501C45.0004 30.2501 45.0004 31.9751 44.8754 33.7001C44.8754 34.8168 44.8004 35.9668 44.6504 37.1501L44.1254 45.7001C43.9504 47.2501 43.8254 49.7751 43.5004 51.9751C43.451 53.1262 43.1067 54.2453 42.5004 55.2251C41.9293 55.7992 41.2116 56.2057 40.4254 56.4001C38.9965 56.7307 37.5406 56.9315 36.0754 57.0001C35.1254 57.0001 33.8504 57.1251 32.4754 57.1251H26.9254H22.2754C21.2754 57.1251 20.2754 57.1251 19.2754 57.0001C18.5888 56.985 17.9074 56.8756 17.2504 56.6751C16.7426 56.5009 16.3043 56.1678 16.0004 55.7251C15.4071 54.6361 15.0094 53.4515 14.8254 52.2251C14.465 50.185 14.2561 48.121 14.2004 46.0501L13.8254 40.0001L13.3254 33.2501C13.1754 31.8501 13.0254 30.4751 12.9504 29.0751V26.3001V26.1001H19.2504H39.2504C40.9504 26.1001 43.0254 26.3751 45.0004 26.4001V26.6251Z" fill="black"/>
<path d="M23.6753 35.0001C24.8742 35.2373 25.9777 35.8195 26.8503 36.6751C27.4371 37.1833 27.8665 37.8487 28.0879 38.5927C28.3094 39.3368 28.3137 40.1286 28.1003 40.8751C27.9208 41.694 27.5606 42.4625 27.0458 43.1243C26.5311 43.7861 25.8749 44.3245 25.1253 44.7001C24.0404 45.1805 22.8828 45.4762 21.7003 45.5751C19.7253 45.7751 17.6753 45.5751 15.8253 45.7251C15.5999 45.7251 15.3837 45.8146 15.2243 45.974C15.0649 46.1334 14.9753 46.3496 14.9753 46.5751C14.9753 46.8005 15.0649 47.0167 15.2243 47.1761C15.3837 47.3355 15.5999 47.4251 15.8253 47.4251C17.7253 47.4251 19.8003 47.7501 21.8253 47.7251C23.2813 47.7055 24.7247 47.4523 26.1003 46.9751C27.256 46.4998 28.2874 45.7659 29.1151 44.8298C29.9429 43.8937 30.5451 42.7802 30.8753 41.5751C31.2324 40.3071 31.2121 38.9626 30.8169 37.7061C30.4217 36.4495 29.6688 35.3354 28.6503 34.5001C27.5857 33.6468 26.3354 33.0559 25.0003 32.7751C23.1381 32.4659 21.2376 32.4659 19.3753 32.7751L14.7253 33.4001C13.9503 33.6751 14.2003 34.8751 14.7253 34.9251H19.4753C20.8743 34.8106 22.2813 34.8357 23.6753 35.0001Z" fill="black"/>
</g>
<defs>
<clipPath id="clip0_165_7227">
<rect width="60" height="60" fill="white"/>
</clipPath>
</defs>
</svg>
