<svg width="60" height="60" viewBox="0 0 60 60" fill="none" xmlns="http://www.w3.org/2000/svg">
<g clip-path="url(#clip0_165_7226)">
<path d="M23.7008 27.0249C21.8368 27.2824 20.0288 27.8485 18.3508 28.6999C17.177 29.3424 16.0568 30.0781 15.0008 30.8999C13.9451 31.7003 12.9883 32.6235 12.1508 33.6499C12.0789 33.7198 12.0219 33.8034 11.9829 33.8957C11.9439 33.988 11.9238 34.0872 11.9238 34.1874C11.9238 34.2876 11.9439 34.3868 11.9829 34.4792C12.0219 34.5715 12.0789 34.655 12.1508 34.7249C12.291 34.8624 12.4795 34.9393 12.6758 34.9393C12.8721 34.9393 13.0606 34.8624 13.2008 34.7249C14.0929 33.8588 15.0928 33.111 16.1758 32.4999C17.1729 31.8684 18.2276 31.3327 19.3258 30.8999C20.8267 30.3393 22.4019 30.0024 24.0008 29.8999C25.5372 29.7264 27.0928 29.8624 28.5758 30.2999C31.0758 31.0249 33.0258 32.2749 35.3258 32.9249C36.4245 33.2278 37.5612 33.371 38.7008 33.3499C39.4138 33.3337 40.121 33.2159 40.8008 32.9999C41.472 32.7999 42.118 32.5231 42.7258 32.1749C42.9247 32.0655 43.072 31.8816 43.1353 31.6636C43.1986 31.4456 43.1727 31.2113 43.0633 31.0124C42.9539 30.8135 42.7699 30.6662 42.5519 30.6029C42.3339 30.5396 42.0997 30.5655 41.9008 30.6749C41.395 30.8971 40.867 31.0647 40.3258 31.1749C39.8099 31.2957 39.2801 31.3462 38.7508 31.3249C37.8176 31.2452 36.9004 31.0348 36.0258 30.6999C33.7758 29.8749 31.9508 28.4999 29.4508 27.5749C27.5972 26.9742 25.6346 26.7865 23.7008 27.0249Z" fill="black"/>
<path d="M52.7255 7.95517e-08H47.9255C46.3255 7.95517e-08 44.7005 0.275 43.0755 0.5C42.0357 0.640011 41.0079 0.857279 40.0005 1.15C39.2261 1.37528 38.4921 1.72119 37.8255 2.175C37.1466 2.80039 36.6023 3.55743 36.2255 4.4C35.5047 6.01025 34.9356 7.68415 34.5255 9.4C34.1005 11.625 33.7005 13.825 33.3005 16C31.1755 15.775 29.0505 15.55 26.9255 15.45C24.7085 15.3131 22.484 15.3632 20.2755 15.6L12.2255 16.25L7.07546 16.825C6.97661 16.8373 6.88119 16.8691 6.79478 16.9187C6.70838 16.9683 6.63271 17.0346 6.5722 17.1137C6.51169 17.1928 6.46755 17.2832 6.44235 17.3796C6.41716 17.476 6.41142 17.5764 6.42546 17.675C6.44817 17.8207 6.51199 17.9569 6.60941 18.0676C6.70683 18.1783 6.83382 18.2589 6.97546 18.3C6.89405 18.3913 6.83211 18.4983 6.79342 18.6143C6.75474 18.7304 6.74012 18.8531 6.75046 18.975L7.62546 26.475L9.07546 40.25C9.22546 41.425 9.40046 42.75 9.60046 43.85C9.80046 44.95 10.0505 46.35 10.3005 47.4C10.7005 49.075 10.7505 50.95 11.0755 52.7C11.2175 53.5535 11.4436 54.391 11.7505 55.2C12.2138 56.1601 12.8925 57.0002 13.7337 57.655C14.575 58.3098 15.556 58.7615 16.6005 58.975C20.7129 59.8018 24.9089 60.1375 29.1005 59.975C31.7279 60.1963 34.3725 60.0956 36.9755 59.675C38.5459 59.4354 40.0218 58.774 41.2458 57.7614C42.4698 56.7487 43.396 55.4228 43.9255 53.925C44.4655 52.4494 44.8999 50.9372 45.2255 49.4C45.6505 47.625 45.9505 45.975 46.2255 44.4C46.6255 41.9 46.8755 39.4 47.1755 36.9L48.5755 24.4C48.7843 23.0748 48.7843 21.7252 48.5755 20.4C48.4678 19.5614 48.0905 18.7805 47.5005 18.175C47.0793 17.8049 46.5568 17.5697 46.0005 17.5C45.2755 17.35 44.4005 17.5 43.8505 17.325L36.8255 16.45H35.7505V16.3C36.3005 14.275 36.8005 12.25 37.3505 10.225C37.6832 8.90775 38.1007 7.61338 38.6005 6.35C38.8272 5.65599 39.1835 5.01126 39.6505 4.45C40.03 4.16833 40.4519 3.94891 40.9005 3.8C41.7182 3.4939 42.5529 3.23514 43.4005 3.025C44.9401 2.63514 46.5011 2.33464 48.0755 2.125C49.6255 1.925 51.1755 1.8 52.7255 1.75C52.9532 1.74349 53.1694 1.64844 53.3281 1.48504C53.4868 1.32165 53.5756 1.1028 53.5755 0.875C53.5788 0.76129 53.5593 0.648066 53.5181 0.542036C53.4769 0.436007 53.4148 0.339329 53.3355 0.257732C53.2563 0.176135 53.1614 0.11128 53.0566 0.0670084C52.9518 0.022737 52.8392 -4.9135e-05 52.7255 7.95517e-08ZM36.5505 18.65L43.3755 19.7L45.7255 20C46.0304 20.4471 46.1717 20.9858 46.1255 21.525C46.1547 22.2939 46.1128 23.0638 46.0005 23.825L44.4005 36.325C44.0755 39 43.8005 41.325 43.4255 43.825C43.1519 45.4617 42.8184 47.0878 42.4255 48.7C42.1478 50.1023 41.7633 51.4813 41.2755 52.825C40.993 53.6247 40.5603 54.3629 40.0005 55C39.001 56.0021 37.7184 56.674 36.3255 56.925C33.955 57.3165 31.5466 57.4256 29.1505 57.25C25.7048 57.3739 22.2548 57.257 18.8255 56.9C16.6005 56.55 14.6505 55.925 13.9505 54.4C13.6802 53.7671 13.4872 53.104 13.3755 52.425C13.0005 50.65 12.9005 48.75 12.4755 47.05C12.2005 45.925 11.9505 44.775 11.7255 43.625C11.5005 42.475 11.3005 41.275 11.1255 40.15L9.40046 26.375L8.40046 18.875C8.39306 18.7671 8.36242 18.6621 8.31064 18.5672C8.25886 18.4722 8.18716 18.3896 8.10046 18.325L12.5005 17.85L20.5505 17.5C22.664 17.3373 24.7869 17.3373 26.9005 17.5C28.9505 17.65 30.9505 17.9 32.9755 18.175C32.9755 18.875 32.7255 19.575 32.5755 20.25C32.2755 21.8 31.9505 23.325 31.6005 24.825C31.5461 25.0206 31.5707 25.2296 31.6689 25.4073C31.767 25.5849 31.931 25.7169 32.1255 25.775C32.2207 25.8016 32.3202 25.809 32.4183 25.797C32.5164 25.7849 32.6112 25.7536 32.6971 25.7048C32.7831 25.656 32.8585 25.5907 32.9192 25.5127C32.9798 25.4346 33.0244 25.3454 33.0505 25.25C33.8005 23 34.4755 20.75 35.1255 18.475L36.5505 18.65Z" fill="black"/>
<path d="M31.0759 33.825C30.8805 33.7791 30.6749 33.8107 30.5024 33.9133C30.3298 34.0159 30.2038 34.1814 30.1509 34.375L28.4259 39.65C28.0759 41.15 27.6759 42.625 27.4009 44.125C27.0009 46.425 26.8259 48.7 26.5259 51C26.5029 51.11 26.5018 51.2234 26.5227 51.3339C26.5435 51.4443 26.5859 51.5495 26.6475 51.6435C26.709 51.7375 26.7884 51.8185 26.8812 51.8818C26.974 51.9451 27.0784 51.9896 27.1884 52.0125C27.2984 52.0355 27.4118 52.0366 27.5222 52.0158C27.6326 51.9949 27.7378 51.9525 27.8319 51.891C27.9259 51.8295 28.0069 51.75 28.0702 51.6572C28.1335 51.5644 28.1779 51.46 28.2009 51.35C28.8759 49.15 29.6259 46.975 30.1759 44.725C30.5259 43.225 30.7509 41.7 31.0259 40.175L31.6259 34.75C31.6719 34.5546 31.6402 34.349 31.5376 34.1765C31.435 34.004 31.2695 33.878 31.0759 33.825Z" fill="black"/>
</g>
<defs>
<clipPath id="clip0_165_7226">
<rect width="60" height="60" fill="white"/>
</clipPath>
</defs>
</svg>
