<svg width="60" height="60" viewBox="0 0 60 60" fill="none" xmlns="http://www.w3.org/2000/svg">
<g clip-path="url(#clip0_161_6828)">
<path fill-rule="evenodd" clip-rule="evenodd" d="M57.9746 33.2499C57.8246 30.4749 57.7746 27.3499 57.7746 24.2499C57.7746 21.1499 57.7746 17.8749 57.9246 15.1999C57.9357 15.0968 57.9209 14.9925 57.8817 14.8965C57.8424 14.8005 57.7798 14.7157 57.6996 14.6499C57.5406 13.8945 57.1971 13.1902 56.6996 12.5999C55.6879 11.3988 54.519 10.3393 53.2246 9.44995C50.1496 7.49995 47.2496 5.47495 44.0996 3.54995C42.7746 2.74995 41.4246 1.94995 39.9996 1.22495C39.9054 1.18212 39.8031 1.15997 39.6996 1.15997C39.5961 1.15997 39.4938 1.18212 39.3996 1.22495L38.8996 0.974947C37.3847 0.668259 35.845 0.500894 34.2996 0.474947C32.9496 0.249947 31.5996 -5.31541e-05 30.2496 -5.31541e-05C29.3303 -0.0328252 28.4099 0.0173781 27.4996 0.149947L20.7496 1.67495C20.5858 1.69741 20.4353 1.77711 20.3246 1.89995H20.1246C19.9925 1.87492 19.8568 1.87492 19.7246 1.89995C18.5746 2.24995 17.3996 2.64995 16.2496 3.12495C15.0972 3.59924 13.978 4.15048 12.8996 4.77495L6.34961 8.82495C5.94961 9.09995 5.09961 9.54995 4.49961 10.0249C4.11635 10.3291 3.81551 10.7245 3.62461 11.1749C3.60119 11.324 3.60119 11.4759 3.62461 11.6249C3.5092 11.7482 3.43873 11.9067 3.42461 12.0749C2.84961 16.6499 2.49961 21.3749 2.17461 26.0499C1.99961 29.1999 1.97461 32.3499 1.97461 35.4499L2.17461 47.4999C2.15939 48.741 2.26826 49.9805 2.49961 51.1999C2.66082 51.9173 3.00537 52.5806 3.49961 53.1249C4.56441 54.0238 5.8219 54.6654 7.17461 54.9999C9.02087 55.4121 10.9079 55.6134 12.7996 55.5999H13.0246C13.1651 56.4961 13.5954 57.3215 14.2496 57.9499C15.3263 58.9435 16.6932 59.5656 18.1496 59.7249C20.0338 59.8694 21.928 59.8107 23.7996 59.5499C25.0469 59.4346 26.2837 59.2257 27.4996 58.9249C28.7096 58.6933 29.8913 58.3329 31.0246 57.8499C31.1968 57.7742 31.3379 57.6419 31.4246 57.4749C32.0563 57.9974 32.7539 58.4344 33.4996 58.7749C36.1165 59.8208 38.9417 60.2403 41.7496 59.9999C42.9654 60.004 44.1789 59.8952 45.3746 59.6749C46.0966 59.489 46.7538 59.1085 47.2746 58.5749C47.5565 58.2795 47.74 57.9039 47.7996 57.4999C47.8477 57.0679 47.8477 56.6319 47.7996 56.1999C47.8246 55.8254 47.8246 55.4495 47.7996 55.0749C49.8746 54.7999 52.6746 54.4749 54.5246 54.0749C55.434 53.9607 56.2967 53.607 57.0246 53.0499C57.3703 52.376 57.5584 51.6323 57.5746 50.8749C57.7246 49.0999 57.7746 46.2749 57.8496 44.7499C57.8496 42.4749 58.0246 40.1999 58.0746 37.9249C58.0496 36.3249 58.0246 34.7999 57.9746 33.2499ZM13.3996 50.2749C13.3996 51.4499 13.0746 52.7749 12.9746 53.8749C11.2322 53.7965 9.50435 53.5198 7.82461 53.0499C6.77025 52.7858 5.79896 52.2615 4.99961 51.5249C4.76267 51.1517 4.64094 50.717 4.64961 50.2749C4.57373 49.3098 4.57373 48.3401 4.64961 47.3749C4.64961 44.8749 4.77461 42.5749 4.82461 40.1999V35.3749V29.8249V21.4749V14.6249C5.09961 14.9999 5.37461 15.3999 5.67461 15.7749C6.32461 16.5999 7.04961 17.3999 7.72461 18.2749C8.39961 19.1499 9.09961 19.7249 9.74961 20.4749C10.1331 20.9184 10.4761 21.3953 10.7746 21.8999C11.4266 23.0842 11.9064 24.3553 12.1996 25.6749C12.6892 27.7853 13.0564 29.9222 13.2996 32.0749C13.5082 33.8591 13.6167 35.6536 13.6246 37.4499C13.6496 41.6499 13.3246 45.9749 13.3996 50.2749ZM27.0496 57.1499C25.9323 57.3317 24.8054 57.4486 23.6746 57.4999C21.938 57.6872 20.1862 57.6872 18.4496 57.4999C17.5058 57.3559 16.6312 56.9186 15.9496 56.2499C15.7324 56.0124 15.5686 55.7311 15.4694 55.4249C15.3703 55.1186 15.3379 54.7947 15.3746 54.4749C15.3746 53.0999 15.9746 51.6499 15.9996 50.2499C15.9996 45.9499 16.5246 41.5999 16.5246 37.2999C16.5334 35.386 16.4164 33.4736 16.1746 31.5749C15.9261 29.3601 15.5336 27.1638 14.9996 24.9999C14.6115 23.4315 14.0056 21.9252 13.1996 20.5249C12.9009 20.0283 12.5578 19.5597 12.1746 19.1249C11.3996 18.2249 10.4996 17.4249 9.67461 16.6249C8.84961 15.8249 8.17461 14.9999 7.49961 14.1999C6.82461 13.3999 6.64961 13.1999 6.27461 12.6999C5.89961 12.1999 6.09961 11.9499 5.84961 11.8499L7.49961 10.5749L13.8496 6.27495C15.9404 4.98291 18.1934 3.97411 20.5496 3.27495C20.7059 3.31123 20.8684 3.31123 21.0246 3.27495L27.6996 2.02495C28.5303 1.93186 29.3689 1.93186 30.1996 2.02495C31.4746 2.02495 32.6996 2.37495 33.9996 2.59995C35.2996 2.82495 36.4996 2.59995 37.6746 2.99995C37.8976 3.02952 38.11 3.11337 38.293 3.24413C38.4761 3.37489 38.6243 3.54858 38.7246 3.74995C38.7246 4.04995 38.7246 4.44995 38.5246 4.89995C38.1996 5.97495 37.6246 7.09995 37.4246 7.69995L35.2246 12.6999L30.9746 21.8999C30.5496 22.7749 30.1746 23.7249 29.7246 24.5999C29.5246 24.9499 29.3246 25.2999 29.0996 25.6249L27.4996 21.0249C26.7246 18.5249 26.0496 16.4249 25.3746 14.4249C24.2996 11.3249 23.2496 8.42495 21.9496 4.64995C21.9032 4.45103 21.7797 4.27871 21.6062 4.17087C21.4327 4.06304 21.2235 4.02853 21.0246 4.07495C20.8257 4.12136 20.6534 4.24489 20.5455 4.41836C20.4377 4.59183 20.4032 4.80103 20.4496 4.99995C21.5746 8.94995 22.4996 11.8749 23.3996 14.9999C23.9496 16.9999 24.5246 19.1249 25.1496 21.6249L26.7746 26.8749C26.7746 27.0749 26.9996 28.0249 27.1496 28.3999C27.2927 28.7211 27.5391 28.9851 27.8496 29.1499V30.4749C27.8496 42.9749 27.5746 44.6499 27.5496 44.7999C27.4678 46.7673 27.5096 48.7378 27.6746 50.6999C27.817 52.1503 28.2597 53.5551 28.9746 54.8249C29.3007 55.3598 29.6774 55.8622 30.0996 56.3249C29.1099 56.6914 28.0891 56.9675 27.0496 57.1499ZM45.0496 24.6499C44.657 26.0292 44.4057 27.4448 44.2996 28.8749C44.0746 30.8999 43.9496 33.2499 43.8746 34.8249C43.7996 36.3999 43.6746 38.6249 43.6496 40.5499C43.6155 41.8596 43.6572 43.1701 43.7746 44.4749L44.6746 51.8499L44.9996 56.0999V56.7999C44.6324 56.9789 44.2326 57.081 43.8246 57.0999C42.9996 57.2249 42.1246 57.2249 41.5246 57.2749C39.4903 57.4863 37.4347 57.3425 35.4496 56.8499C33.5892 56.382 31.9788 55.2189 30.9496 53.5999C30.4141 52.6198 30.0905 51.5381 29.9996 50.4249C29.8023 48.5568 29.7272 46.6778 29.7746 44.7999V30.4999V28.9999C30.2279 28.6584 30.6466 28.2732 31.0246 27.8499C31.5312 27.261 31.9675 26.6149 32.3246 25.9249C32.8496 24.9999 33.2496 24.0249 33.6996 23.0999L37.7496 13.7999C38.2246 12.5999 38.8246 11.4499 39.2996 10.2499C39.5246 9.69995 39.7246 9.12495 39.8996 8.54995C40.3531 7.39052 40.7372 6.20508 41.0496 4.99995C41.1225 4.51098 41.1225 4.01391 41.0496 3.52495C46.2246 6.87495 46.9996 7.54995 52.0246 11.0249C52.8053 11.5913 53.5258 12.2363 54.1746 12.9499C54.7996 13.6499 55.4746 14.3249 55.4496 14.8249C55.4246 15.3249 55.2246 15.2249 55.0496 15.4249C54.712 15.7566 54.3529 16.0656 53.9746 16.3499C52.6246 17.4749 51.0746 18.3499 49.6496 19.3999C48.9847 19.8937 48.3579 20.4369 47.7746 21.0249C47.0543 21.7142 46.37 22.4401 45.7246 23.1999C45.4281 23.645 45.1848 24.1233 44.9996 24.6249L45.0496 24.6499ZM55.4746 26.0249C55.3246 28.5249 55.2246 31.0249 55.1996 33.3499L54.9996 44.6499C54.9996 46.3749 55.1746 49.8499 54.9996 51.3749C54.8877 51.4698 54.761 51.5458 54.6246 51.5999C53.8035 51.868 52.969 52.0933 52.1246 52.2749C50.6746 52.5999 48.9996 52.8999 47.6496 53.1499C47.6496 52.5749 47.6496 51.9999 47.4496 51.3999L46.5746 44.0749C46.5114 42.8674 46.5114 41.6575 46.5746 40.4499C46.5746 38.5499 46.5746 36.6499 46.7746 34.8249C46.9746 32.9999 46.9746 30.2249 47.1746 28.0499C47.2316 27.2062 47.3655 26.3694 47.5746 25.5499C47.7305 25.179 47.9412 24.8335 48.1996 24.5249C48.6996 23.8999 49.3246 23.3249 49.7996 22.7999C50.2735 22.288 50.7922 21.8195 51.3496 21.3999C52.7496 20.2749 54.2996 19.3249 55.6496 18.1249L56.1746 17.4999C55.9246 20.2249 55.6746 23.1249 55.4746 25.9999V26.0249Z" fill="black"/>
<path fill-rule="evenodd" clip-rule="evenodd" d="M33.6746 34.35C35.2996 32.775 37.0746 31.3 38.6746 29.875C39.9499 28.8868 41.1608 27.818 42.2996 26.675C42.8638 26.0698 43.3128 25.3666 43.6246 24.6C43.8756 23.957 43.8756 23.2431 43.6246 22.6C43.1613 21.7631 42.5804 20.997 41.8996 20.325C41.8996 20.325 41.8996 20.325 41.8996 20.175C42.4746 19.825 43.5496 19.5 43.7746 19.325L45.5245 18.125L46.8746 17.15C47.3841 16.7997 47.7992 16.3287 48.0827 15.7791C48.3662 15.2296 48.5094 14.6184 48.4996 14C48.3041 12.6008 47.864 11.2468 47.1995 10L45.8246 7.50004C45.3746 6.77504 43.3246 6.57504 43.9246 7.90004L45.1495 10.925C45.5127 11.7979 45.7972 12.7015 45.9996 13.625C46.0467 13.9025 46.0042 14.1877 45.8784 14.4394C45.7525 14.6912 45.5498 14.8963 45.2996 15.025L43.9746 15.875L42.1995 17.025C41.3404 17.4808 40.506 17.9815 39.6996 18.525C39.3162 18.8232 39.0221 19.2211 38.8496 19.675C38.6888 20.1107 38.6888 20.5894 38.8496 21.025C39.031 21.4167 39.2575 21.7859 39.5246 22.125L40.8746 23.675C40.6338 24.3418 40.2498 24.9477 39.7496 25.45C38.8496 26.45 37.7496 27.325 36.9246 28.15C35.3496 29.725 33.6496 31.325 32.0996 33.15C31.5176 33.794 30.9829 34.4791 30.4996 35.2C29.8746 36 30.3496 37.425 31.1746 37.225C31.5246 37.025 32.4996 35.4 33.6746 34.35Z" fill="black"/>
<path fill-rule="evenodd" clip-rule="evenodd" d="M12.9248 10.8C12.9954 11.813 13.4203 12.7688 14.1248 13.5L15.1498 14.55L16.8998 16.075C17.2248 16.35 18.8998 17 18.4498 17.325C18.3426 17.5278 18.2171 17.7203 18.0748 17.9C17.5131 18.5818 17.0657 19.3501 16.7498 20.175C16.5269 20.8317 16.5269 21.5434 16.7498 22.2001C17.1847 23.1764 17.7033 24.1132 18.2998 25.0001C19.1832 26.2913 20.1346 27.5347 21.1498 28.7251C22.2998 30.0751 23.1248 31.2251 24.2498 32.9251C25.3748 34.6251 25.7748 34.9501 26.2748 35.5751C27.1748 36.3501 27.8498 34.6251 27.2748 33.6001C26.6998 32.5751 26.3248 32.2001 25.8748 31.4501C24.7998 29.7501 24.1748 28.6751 23.0748 27.2001C22.4998 26.4251 21.7248 25.3001 20.9998 24.1251C20.3523 23.1468 19.7839 22.1186 19.2998 21.0501C19.2998 21.0501 19.2998 20.8501 19.2998 20.7251C19.2998 20.6001 19.5998 20.2751 19.7498 20.0251C20.1782 19.4829 20.547 18.8962 20.8498 18.2751C21.0994 17.6145 21.0994 16.8856 20.8498 16.225C20.7291 15.8516 20.5138 15.5157 20.2248 15.25C19.6822 14.7753 19.1057 14.3408 18.4998 13.95L16.8498 12.5L16.0248 11.8C15.4748 11.225 15.1748 10.875 15.2748 10.45C15.5121 9.7021 15.8757 9.0003 16.3498 8.37505C16.6248 7.92505 18.0998 5.87505 18.3748 5.60005C18.6498 4.57505 17.4498 4.57505 16.0998 5.60005C15.2498 6.52505 14.8998 6.80005 14.6248 7.17505C13.6865 8.17147 13.0909 9.44149 12.9248 10.8Z" fill="black"/>
<path fill-rule="evenodd" clip-rule="evenodd" d="M37.3247 43.55H36.1747C35.7444 43.591 35.3181 43.6663 34.8997 43.775C34.7031 43.794 34.5211 43.8874 34.391 44.0361C34.2609 44.1848 34.1925 44.3776 34.1997 44.575C34.2061 44.6736 34.2319 44.77 34.2755 44.8585C34.3192 44.9471 34.38 45.0262 34.4543 45.0913C34.5286 45.1563 34.6151 45.206 34.7087 45.2376C34.8023 45.2691 34.9012 45.2818 34.9997 45.2751L36.1747 45.425C36.6036 45.4161 37.0306 45.3659 37.4497 45.2751C37.5721 45.2849 37.6951 45.2682 37.8103 45.226C37.9255 45.1838 38.0302 45.1171 38.1173 45.0306C38.2043 44.9441 38.2715 44.8398 38.3144 44.7248C38.3573 44.6098 38.3748 44.4869 38.3656 44.3645C38.3565 44.2422 38.321 44.1232 38.2615 44.0159C38.202 43.9085 38.12 43.8154 38.0211 43.7427C37.9222 43.6701 37.8088 43.6197 37.6886 43.5951C37.5684 43.5705 37.4442 43.5722 37.3247 43.6V43.55Z" fill="black"/>
</g>
<defs>
<clipPath id="clip0_161_6828">
<rect width="60" height="60" fill="white"/>
</clipPath>
</defs>
</svg>
