<svg width="60" height="60" viewBox="0 0 60 60" fill="none" xmlns="http://www.w3.org/2000/svg">
<g clip-path="url(#clip0_166_4904)">
<path fill-rule="evenodd" clip-rule="evenodd" d="M48.2004 27.8251C48.5591 25.258 48.6429 22.6599 48.4504 20.0751C48.1754 18.9751 46.5754 18.7751 45.5754 18.7251C45.5754 15.6001 45.5754 13.9001 45.3254 11.6751C45.1754 9.97506 44.3754 4.37506 44.2004 3.67506C43.7004 1.72506 42.6504 0.500064 39.3254 0.125064C36.6563 -0.0509958 33.9762 0.0411321 31.3254 0.400064C24.4254 1.20006 19.4254 1.07506 16.6754 3.10006C15.9228 3.59128 15.3862 4.35141 15.1754 5.22506C15.017 6.37618 14.9584 7.53885 15.0004 8.70006C15.0004 8.97506 15.5004 20.3251 15.5254 20.9501C14.0004 21.1001 13.0254 21.4251 12.4504 22.7751C11.0004 26.3251 11.4504 35.2751 12.0254 38.6751C13.3004 46.4251 17.3754 45.7001 24.5254 45.7501C24.5254 46.0001 24.0504 48.6501 24.0004 48.9251C23.5996 50.9242 23.5069 52.9729 23.7254 55.0001C23.7728 56.5569 24.2866 58.0637 25.2004 59.3251C25.3418 59.4942 25.5434 59.6018 25.7626 59.6251C25.9819 59.6484 26.2016 59.5857 26.3754 59.4501C27.1254 58.8501 26.3754 58.6251 26.2004 56.7501C26.1849 55.497 26.2517 54.2443 26.4004 53.0001C26.4752 50.6079 26.3245 48.214 25.9504 45.8501H32.9254C32.9254 46.5001 33.0504 49.9501 33.0504 50.1501C33.0504 51.3001 34.2754 59.2251 35.2504 59.8001C35.7004 60.0751 36.1754 60.2001 36.5254 59.5751C36.5254 59.4501 36.3754 57.7251 36.3004 55.3251C36.369 52.786 36.0227 50.2527 35.2754 47.8251C35.1102 47.1256 34.9932 46.4156 34.9254 45.7001C46.5254 45.3501 46.4254 43.5251 48.1504 36.0501C48.3876 33.3142 48.4044 30.5636 48.2004 27.8251ZM46.1504 27.7001C46.2482 30.3267 46.1814 32.9568 45.9504 35.5751C43.6754 44.1751 45.6754 43.0751 22.4754 42.9001C17.0004 42.9001 15.5254 43.0501 14.6504 38.2001C14.1677 34.8883 13.9171 31.5468 13.9004 28.2001C13.9421 26.6254 14.1857 25.0626 14.6254 23.5501C16.3254 22.9001 34.0504 21.4751 38.0004 21.0501C38.1752 21.0039 38.3275 20.8962 38.4292 20.7467C38.5309 20.5972 38.5751 20.4161 38.5538 20.2365C38.5325 20.057 38.4471 19.8912 38.3133 19.7696C38.1794 19.6481 38.0062 19.579 37.8254 19.5751C36.4754 19.5751 19.4254 20.6251 18.0004 20.8501H16.9504V16.4501C16.8408 12.8577 17.0247 9.26244 17.5004 5.70006C17.8754 4.00006 25.0004 3.92506 31.5754 3.20006C33.5004 2.95006 39.8754 2.05006 41.3754 3.37506C42.0504 3.97506 42.3254 7.05006 42.5754 8.15006C43.29 11.6244 43.6998 15.1545 43.8004 18.7001C42.5004 18.7001 41.3004 18.8501 40.9754 18.8751C40.7781 18.9093 40.5992 19.0121 40.4703 19.1653C40.3414 19.3185 40.2707 19.5123 40.2707 19.7126C40.2707 19.9128 40.3414 20.1066 40.4703 20.2599C40.5992 20.4131 40.7781 20.5158 40.9754 20.5501C42.8407 20.3576 44.7231 20.408 46.5754 20.7001C46.6119 23.0408 46.4698 25.3809 46.1504 27.7001Z" fill="black"/>
<path fill-rule="evenodd" clip-rule="evenodd" d="M24.3009 8.20003C22.6259 8.20003 23.2759 13.55 23.8509 15.7C23.8851 15.8973 23.9879 16.0762 24.1411 16.2052C24.2943 16.3341 24.4881 16.4048 24.6884 16.4048C24.8886 16.4048 25.0824 16.3341 25.2356 16.2052C25.3889 16.0762 25.4916 15.8973 25.5259 15.7C25.8009 13.85 26.0259 8.15003 24.3009 8.20003Z" fill="black"/>
<path fill-rule="evenodd" clip-rule="evenodd" d="M30.4757 7.5C28.8007 7.5 29.4507 12.85 30.0257 15C30.0045 15.1221 30.0103 15.2473 30.0426 15.367C30.0749 15.4866 30.133 15.5977 30.2128 15.6925C30.2926 15.7873 30.3921 15.8636 30.5045 15.9159C30.6168 15.9681 30.7392 15.9952 30.8632 15.9952C30.9871 15.9952 31.1095 15.9681 31.2218 15.9159C31.3342 15.8636 31.4337 15.7873 31.5135 15.6925C31.5933 15.5977 31.6514 15.4866 31.6837 15.367C31.7161 15.2473 31.7218 15.1221 31.7007 15C32.0007 13.175 32.2007 7.5 30.4757 7.5Z" fill="black"/>
<path fill-rule="evenodd" clip-rule="evenodd" d="M36.8251 7.22518C35.1501 7.22518 35.8251 12.5752 36.3751 14.7252C36.4094 14.9225 36.5121 15.1014 36.6654 15.2303C36.8186 15.3592 37.0124 15.4299 37.2126 15.4299C37.4129 15.4299 37.6067 15.3592 37.7599 15.2303C37.9131 15.1014 38.0159 14.9225 38.0501 14.7252C38.3501 12.8752 38.5501 7.17518 36.8251 7.22518Z" fill="black"/>
<path fill-rule="evenodd" clip-rule="evenodd" d="M29.5509 28.6751C30.138 27.4254 30.9326 26.2843 31.9009 25.3001C32.0733 25.2006 32.1991 25.0368 32.2506 24.8445C32.3022 24.6523 32.2753 24.4475 32.1759 24.2751C32.0764 24.1027 31.9125 23.9769 31.7203 23.9253C31.5281 23.8737 31.3233 23.9006 31.1509 24.0001C29.4978 25.3582 28.0422 26.9401 26.8259 28.7001C26.5947 29.1279 26.5154 29.6214 26.6009 30.1001C26.6539 30.3219 26.7586 30.528 26.9062 30.7018C27.0539 30.8755 27.2405 31.012 27.4509 31.1001C28.4293 31.3552 29.4472 31.423 30.4509 31.3001C31.3259 31.3001 32.2009 31.0251 32.9509 30.9251C32.0759 31.7501 32.9509 30.5751 27.2009 37.8501C27.045 38.0059 26.9575 38.2172 26.9575 38.4376C26.9575 38.6579 27.045 38.8693 27.2009 39.0251C27.3567 39.1809 27.568 39.2684 27.7884 39.2684C28.0087 39.2684 28.22 39.1809 28.3759 39.0251C35.8759 31.6751 36.7509 31.2001 36.4259 29.4001C36.1009 27.1251 32.7259 28.1251 29.5509 28.6751Z" fill="black"/>
</g>
<defs>
<clipPath id="clip0_166_4904">
<rect width="60" height="60" fill="white"/>
</clipPath>
</defs>
</svg>
