<svg width="60" height="60" viewBox="0 0 60 60" fill="none" xmlns="http://www.w3.org/2000/svg">
<g clip-path="url(#clip0_161_6933)">
<path fill-rule="evenodd" clip-rule="evenodd" d="M59.4509 18.8249C59.3066 17.9213 58.9738 17.0581 58.4742 16.2915C57.9746 15.5248 57.3193 14.8719 56.5509 14.3749C54.9259 13.4999 53.3759 13.6999 51.3009 15.5749C51.2722 15.4685 51.2219 15.3692 51.1531 15.2832C51.0843 15.1971 50.9984 15.1262 50.9009 15.0749C50.2889 14.5197 49.6372 14.0101 48.9509 13.5499C48.2509 13.1749 47.4509 13.0749 46.8009 12.7249H46.5759C46.129 10.5182 45.2324 8.42706 43.9421 6.58189C42.6517 4.73673 40.9953 3.17702 39.0759 1.99993C36.3143 0.452971 33.1569 -0.242868 30.0009 -6.81365e-05C25.4958 0.450426 21.1867 2.07064 17.5009 4.69993C16.2233 5.55453 15.0341 6.53437 13.9509 7.62493C13.1578 8.41418 12.5513 9.37088 12.1759 10.4249C12.1389 10.5726 12.1389 10.7272 12.1759 10.8749C11.1102 12.4217 10.6887 14.3227 11.0009 16.1749C11.5055 18.1019 12.3523 19.9225 13.5009 21.5499C15.1119 23.9396 17.0566 26.0864 19.2759 27.9249C23.7226 31.557 29.176 33.7383 34.9009 34.1749C35.8722 34.1882 36.8404 34.0619 37.7759 33.7999C37.8908 33.8288 38.0105 33.8325 38.127 33.811C38.2435 33.7894 38.354 33.743 38.4509 33.6749C38.6358 33.5644 38.8113 33.4389 38.9759 33.2999C39.416 33.0575 39.8199 32.7545 40.1759 32.3999C42.2278 30.5791 43.8968 28.3682 45.0857 25.896C46.2746 23.4237 46.9597 20.7396 47.1009 17.9999C47.1634 17.101 47.1634 16.1988 47.1009 15.2999C47.337 15.4866 47.5878 15.6538 47.8509 15.7999C48.6594 16.0869 49.4983 16.2799 50.3509 16.3749H50.5259C49.226 17.9238 48.5567 19.9051 48.6509 21.9249C48.7237 22.7935 49.0559 23.6202 49.6041 24.2977C50.1524 24.9753 50.8916 25.4725 51.7259 25.7249C51.1509 27.1499 50.5759 28.4499 49.9259 29.6999C49.2759 30.9499 48.6259 31.9499 47.9509 33.0999C47.2759 34.2499 46.6509 35.3249 45.9259 36.5499C45.5259 37.3499 45.1259 38.1749 44.7509 39.0499C44.6458 38.916 44.494 38.8267 44.3259 38.7999C41.3881 38.3239 38.3836 38.4601 35.5009 39.1999C32.5665 39.9122 29.8314 41.2798 27.5009 43.1999C25.4602 44.7988 23.9806 47.0051 23.2759 49.4999C22.8981 51.2973 23.1543 53.1701 24.0009 54.7999C24.7891 56.1092 25.9337 57.1671 27.3009 57.8499C29.0997 58.8617 31.0633 59.5472 33.1009 59.8749C36.6707 60.2522 40.2795 59.8075 43.6509 58.5749C46.984 57.3131 50.0036 55.3427 52.5009 52.7999C53.6095 51.7408 54.3579 50.3604 54.6404 48.8534C54.923 47.3464 54.7255 45.7888 54.0759 44.3999C53.4574 43.0935 52.5318 41.9563 51.378 41.0855C50.2243 40.2148 48.8769 39.6364 47.4509 39.3999L48.2759 38.1249C48.9009 37.1249 49.5009 36.1499 50.0009 35.1999C50.5009 34.2499 51.0509 33.1249 51.4759 32.0999C52.2852 30.2177 52.9292 28.2687 53.4009 26.2749C54.3824 26.3485 55.3655 26.155 56.2458 25.7148C57.1262 25.2747 57.8709 24.6043 58.4009 23.7749C59.3651 22.3174 59.7404 20.5484 59.4509 18.8249ZM32.6759 31.8249C28.199 31.1908 23.9574 29.4271 20.3509 26.6999C18.6788 25.2114 17.1854 23.5335 15.9009 21.6999C14.585 19.948 13.633 17.9504 13.1009 15.8249C13.0186 15.0415 13.1153 14.2496 13.3838 13.509C13.6523 12.7684 14.0856 12.0986 14.6509 11.5499C15.1791 10.9757 15.8206 10.517 16.5348 10.2029C17.2491 9.88884 18.0206 9.72609 18.8009 9.72493C20.3203 9.77686 21.815 10.125 23.2009 10.7499L23.5759 10.9499C22.7389 11.5689 22.0399 12.3553 21.5234 13.2592C21.0069 14.1631 20.6842 15.1646 20.5759 16.1999C20.3704 17.3851 20.4038 18.5994 20.6743 19.7715C20.9448 20.9435 21.4468 22.0497 22.1509 23.0249C23.0922 24.0741 24.2408 24.9168 25.5241 25.4998C26.8074 26.0828 28.1976 26.3935 29.6071 26.4123C31.0165 26.4311 32.4145 26.1576 33.7129 25.609C35.0113 25.0604 36.1819 24.2486 37.1509 23.2249C38.3887 25.0505 39.0186 27.2203 38.9509 29.4249C38.6009 31.9499 35.8259 32.2249 32.6759 31.8249ZM25.0009 11.8749H25.1509C25.8863 12.2808 26.596 12.7317 27.2759 13.2249C30.6532 15.647 33.6309 18.5825 36.1009 21.9249C34.3944 23.3558 32.1969 24.0644 29.9759 23.8999C28.8936 23.8523 27.8329 23.5811 26.8606 23.1035C25.8882 22.626 25.0252 21.9523 24.3259 21.1249C23.2504 19.8061 22.7303 18.1205 22.8759 16.4249C22.8414 15.552 23.0163 14.6835 23.386 13.8919C23.7556 13.1004 24.3094 12.4088 25.0009 11.8749ZM41.4009 28.1499C41.1884 25.3951 40.229 22.7503 38.6259 20.4999C35.985 16.7253 32.7118 13.4353 28.9509 10.7749C27.2038 9.49346 25.2739 8.48214 23.2259 7.77493C21.7971 7.31192 20.3027 7.08396 18.8009 7.09993C18.1345 7.13467 17.4771 7.26952 16.8509 7.49993L18.5759 6.37493C21.4855 4.5939 24.7256 3.42034 28.1009 2.92493C31.3108 2.33122 34.6271 2.85161 37.5009 4.39993C39.8079 5.7968 41.6846 7.8034 42.9241 10.1986C44.1637 12.5939 44.7179 15.2848 44.5259 17.9749C44.4532 21.5916 43.3708 25.1159 41.4009 28.1499ZM47.0509 41.0499C48.1915 41.2623 49.2623 41.7519 50.1691 42.4756C51.0759 43.1993 51.7908 44.1349 52.2509 45.1999C52.6833 46.2031 52.7856 47.3177 52.5429 48.3828C52.3003 49.4478 51.7252 50.4082 50.9009 51.1249C48.5648 53.315 45.7854 54.9775 42.7509 55.9999C39.7489 57.0315 36.5531 57.3733 33.4009 56.9999C32.0322 56.7572 30.7032 56.3283 29.4509 55.7249C28.2867 55.2844 27.272 54.5213 26.5259 53.5249C26.1487 52.8673 25.9178 52.136 25.8488 51.3811C25.7797 50.6261 25.8743 49.8651 26.1259 49.1499C26.7471 47.5611 27.7317 46.1398 29.0009 44.9999C30.9868 43.1827 33.3651 41.8481 35.9509 41.0999C38.549 40.2738 41.2949 40.0179 44.0009 40.3499C43.6509 41.0999 43.3259 41.8749 42.9509 42.6499C42.5759 43.4249 42.1259 44.2749 41.6509 45.1499C41.5382 45.3157 41.4959 45.5194 41.5334 45.7164C41.5709 45.9133 41.6851 46.0872 41.8509 46.1999C42.0167 46.3127 42.2204 46.3549 42.4173 46.3174C42.6142 46.2799 42.7882 46.1657 42.9009 45.9999C43.7057 44.9988 44.4568 43.9557 45.1509 42.8749C45.6259 42.1499 46.0509 41.4749 46.4759 40.7749C46.5468 40.8589 46.6347 40.9269 46.7338 40.9743C46.833 41.0217 46.941 41.0475 47.0509 41.0499ZM56.0759 22.2249C55.7999 22.6239 55.4232 22.9427 54.9841 23.1491C54.5451 23.3555 54.0592 23.442 53.5759 23.3999C51.5259 23.3999 50.7509 22.1249 50.8509 20.6749C50.9759 18.1749 53.3509 13.9249 55.8509 16.4249C56.5059 17.1982 56.892 18.1633 56.9509 19.1749C57.0416 20.2643 56.7303 21.3493 56.0759 22.2249Z" fill="black"/>
<path fill-rule="evenodd" clip-rule="evenodd" d="M36.5258 51.325C35.9258 51.025 35.3758 50.5 34.7508 50.125C34.3668 49.97 33.9913 49.7948 33.6258 49.6C33.4089 49.4547 33.2078 49.2871 33.0258 49.1C32.9899 49.0079 32.9362 48.9238 32.8677 48.8526C32.7992 48.7813 32.7173 48.7243 32.6267 48.6848C32.5361 48.6453 32.4385 48.6241 32.3397 48.6224C32.2409 48.6207 32.1427 48.6386 32.0508 48.675C31.8689 48.7526 31.7236 48.8968 31.6446 49.0781C31.5656 49.2594 31.5589 49.464 31.6258 49.65C31.7117 50.1853 31.9043 50.6979 32.192 51.1574C32.4797 51.6169 32.8568 52.0139 33.3008 52.325C33.5571 52.4817 33.8351 52.5996 34.1258 52.675C34.7597 52.8604 35.4154 52.9613 36.0758 52.975C36.2913 53.037 36.5225 53.0114 36.7192 52.9037C36.9159 52.796 37.062 52.615 37.1258 52.4C37.1599 52.2901 37.1713 52.1743 37.1593 52.0598C37.1474 51.9453 37.1123 51.8345 37.0562 51.7339C37.0001 51.6334 36.9241 51.5453 36.833 51.475C36.7418 51.4047 36.6373 51.3537 36.5258 51.325Z" fill="black"/>
<path fill-rule="evenodd" clip-rule="evenodd" d="M8.55045 25.1748C8.53897 25.0522 8.50172 24.9333 8.44114 24.826C8.38055 24.7188 8.298 24.6255 8.19888 24.5523C8.09976 24.4792 7.98631 24.4278 7.86595 24.4015C7.7456 24.3752 7.62105 24.3746 7.50045 24.3998C7.12997 24.3947 6.76035 24.4367 6.40045 24.5248C5.75045 24.6748 5.12545 24.9498 4.52545 25.0998C3.99127 25.2922 3.47301 25.5263 2.97545 25.7998C2.24445 26.3167 1.55104 26.8848 0.900452 27.4998C0.809707 27.5403 0.727913 27.5984 0.659821 27.6708C0.59173 27.7432 0.538698 27.8283 0.503808 27.9214C0.468917 28.0144 0.452864 28.1135 0.456579 28.2128C0.460295 28.3121 0.483706 28.4096 0.525452 28.4998C0.563359 28.5897 0.619009 28.671 0.689069 28.7388C0.759129 28.8067 0.842158 28.8597 0.933188 28.8947C1.02422 28.9297 1.12138 28.946 1.21885 28.9426C1.31632 28.9392 1.4121 28.9161 1.50045 28.8748C2.39993 28.7756 3.29303 28.6254 4.17545 28.4248C4.7449 28.2301 5.29687 27.9876 5.82545 27.6998L7.77545 26.1748C7.89599 26.1703 8.01407 26.1393 8.12136 26.0842C8.22865 26.0291 8.32255 25.9511 8.39645 25.8558C8.47034 25.7604 8.52242 25.65 8.54903 25.5324C8.57564 25.4147 8.57612 25.2927 8.55045 25.1748Z" fill="black"/>
<path fill-rule="evenodd" clip-rule="evenodd" d="M13.1257 32.6499C12.4757 33.1999 11.7757 33.5249 11.1007 34.0249C10.8179 34.23 10.5505 34.4556 10.3007 34.6999C10.0251 34.9505 9.77401 35.2267 9.55073 35.5249C8.9917 36.2217 8.48212 36.9569 8.02573 37.7249C7.8711 37.8914 7.78516 38.1102 7.78516 38.3374C7.78516 38.5646 7.8711 38.7834 8.02573 38.9499C8.18505 39.1086 8.40081 39.1978 8.62573 39.1978C8.85065 39.1978 9.06641 39.1086 9.22573 38.9499C9.92573 38.4249 10.6757 38.0499 11.4007 37.5499C11.883 37.1971 12.3271 36.7949 12.7257 36.3499C13.3847 35.5211 13.9079 34.5928 14.2757 33.5999C14.3332 33.5194 14.3742 33.4285 14.3965 33.3322C14.4188 33.2359 14.4219 33.1361 14.4057 33.0386C14.3894 32.9411 14.3541 32.8478 14.3018 32.7639C14.2495 32.6801 14.1812 32.6073 14.1007 32.5499C14.0203 32.4924 13.9293 32.4514 13.833 32.4291C13.7367 32.4068 13.637 32.4037 13.5395 32.4199C13.442 32.4362 13.3486 32.4715 13.2648 32.5238C13.1809 32.5761 13.1082 32.6444 13.0507 32.7249L13.1257 32.6499Z" fill="black"/>
<path fill-rule="evenodd" clip-rule="evenodd" d="M20.4255 38.4499C20.2364 38.3932 20.0328 38.4108 19.8563 38.4991C19.6798 38.5873 19.5436 38.7396 19.4755 38.9249C18.9509 39.729 18.4751 40.5638 18.0505 41.4249C17.8763 41.7841 17.7422 42.1614 17.6505 42.5499C17.5491 42.936 17.474 43.3286 17.4255 43.7249C17.3751 44.6742 17.3751 45.6256 17.4255 46.5749C17.3894 46.797 17.4428 47.0243 17.574 47.2071C17.7052 47.3898 17.9035 47.5131 18.1255 47.5499C18.234 47.5715 18.3457 47.571 18.454 47.5485C18.5624 47.5261 18.6651 47.482 18.756 47.4191C18.847 47.3561 18.9244 47.2754 18.9835 47.182C19.0427 47.0885 19.0825 46.984 19.1005 46.8749C19.4255 46.0249 19.8255 45.2499 20.1755 44.3749L20.5505 43.2999C20.6576 42.9306 20.7411 42.5548 20.8005 42.1749C20.9255 41.2499 20.9255 40.3749 21.0005 39.4249C21.0344 39.3231 21.0462 39.2152 21.0349 39.1085C21.0236 39.0018 20.9896 38.8988 20.9351 38.8064C20.8806 38.714 20.8069 38.6343 20.719 38.5728C20.6311 38.5113 20.531 38.4694 20.4255 38.4499Z" fill="black"/>
</g>
<defs>
<clipPath id="clip0_161_6933">
<rect width="60" height="60" fill="white"/>
</clipPath>
</defs>
</svg>
