<svg width="60" height="60" viewBox="0 0 60 60" fill="none" xmlns="http://www.w3.org/2000/svg">
<g clip-path="url(#clip0_161_7082)">
<path fill-rule="evenodd" clip-rule="evenodd" d="M45.3251 38.45C44.7751 38.45 44.2251 38.3 43.6501 38.25H40.0251C37.6751 38.25 35.3751 37.925 33.0751 37.975C31.4944 38.0129 29.917 38.1381 28.3501 38.35C26.0751 38.775 23.8251 39.325 21.5251 39.65C20.5718 39.7839 19.6121 39.8674 18.6501 39.9C18.5495 39.8932 18.4486 39.9068 18.3535 39.9398C18.2583 39.9729 18.1707 40.0249 18.0961 40.0925C18.0214 40.1602 17.9611 40.2422 17.9189 40.3337C17.8766 40.4252 17.8532 40.5242 17.8501 40.625C17.8432 40.8264 17.915 41.0226 18.0503 41.172C18.1857 41.3213 18.3739 41.4121 18.5751 41.425C19.2751 41.425 19.9751 41.425 20.6751 41.55C20.6751 41.85 20.4751 42.125 20.4001 42.45C20.3251 42.775 20.4001 42.95 20.2751 43.2C20.2503 43.4577 20.2503 43.7172 20.2751 43.975C20.2751 43.975 20.7751 46.475 21.5251 46.475C22.2751 46.475 23.0001 44.225 23.0501 43.975C23.0878 43.7264 23.0878 43.4735 23.0501 43.225C23.0634 42.9668 23.0634 42.7081 23.0501 42.45C22.9766 42.1037 22.8848 41.7615 22.7751 41.425C24.7251 41.425 26.6501 41.175 28.6001 41.05L40.0001 40.45C41.1751 40.45 42.5001 40.2 43.6501 40.15H45.0001C45.1118 40.1676 45.226 40.1628 45.3359 40.1358C45.4458 40.1087 45.5492 40.06 45.64 39.9925C45.7308 39.925 45.8073 39.84 45.8648 39.7425C45.9223 39.6451 45.9598 39.5371 45.9751 39.425C46.0125 39.2101 45.9659 38.989 45.8449 38.8075C45.7239 38.6261 45.5378 38.498 45.3251 38.45Z" fill="black"/>
<path fill-rule="evenodd" clip-rule="evenodd" d="M59.6001 34.6501C59.1873 32.7067 58.1515 30.9511 56.6501 29.6501C56.1796 29.2336 55.6687 28.8651 55.1251 28.5501C54.5501 28.2251 53.9501 27.9501 53.3501 27.6751C53.065 25.0096 52.6226 22.3633 52.0251 19.7501C51.5002 17.495 50.7026 15.3123 49.6501 13.2501C49.0715 12.1275 48.3487 11.0854 47.5001 10.1501C47.563 9.56006 47.563 8.96505 47.5001 8.37505C47.199 6.93446 46.4562 5.62361 45.3751 4.62505C44.5255 3.87285 43.5416 3.28763 42.4751 2.90005C40.9548 2.38174 39.3761 2.05424 37.7751 1.92505C35.4502 1.67423 33.1135 1.54905 30.7751 1.55005C28.4251 1.55005 26.0751 1.67505 23.8001 1.90005L23.4501 2.00005C23.2808 1.9368 23.0944 1.9368 22.9251 2.00005C21.2077 2.33243 19.5937 3.0678 18.216 4.14567C16.8382 5.22353 15.736 6.6131 15.0001 8.20006C14.6744 8.8986 14.4472 9.63901 14.3251 10.4001C12.5425 12.7235 11.0872 15.2808 10.0001 18.0001C8.76363 20.986 7.92317 24.121 7.50011 27.3251C7.50011 27.3251 7.50011 27.5501 7.50011 27.6751C5.41152 28.2173 3.61735 29.554 2.50011 31.4001C1.49665 32.9778 0.808934 34.7353 0.47511 36.5751C0.12332 38.3443 -0.0359412 40.1465 0.000110258 41.9501C0.00467366 43.5953 0.257521 45.2303 0.75011 46.8001C1.0835 47.941 1.68332 48.9864 2.50011 49.8501C3.4849 50.9026 4.75212 51.649 6.15011 52.0001C7.70417 52.3307 9.30574 52.373 10.8751 52.1251C12.2366 53.6943 13.9499 54.9193 15.8751 55.7001C20.2106 57.0612 24.709 57.8347 29.2501 58.0001C32.2987 58.4083 35.3793 58.5255 38.4501 58.3501C40.6314 58.2012 42.7587 57.6056 44.7001 56.6001C46.0814 55.8075 47.2888 54.7447 48.2501 53.4751C49.7553 53.6118 51.2699 53.6118 52.7751 53.4751C54.2207 53.3014 55.5845 52.7107 56.7001 51.7751C57.7077 50.8487 58.4426 49.6642 58.8251 48.3501C59.3206 46.6222 59.6225 44.8446 59.7251 43.0501C60.0928 40.2589 60.0507 37.429 59.6001 34.6501ZM16.8501 8.92505C17.4194 7.56721 18.2996 6.36207 19.42 5.40674C20.5403 4.45142 21.8694 3.77262 23.3001 3.42505C23.3851 3.49937 23.4844 3.55547 23.5919 3.58987C23.6994 3.62427 23.8128 3.63625 23.9251 3.62505C26.1501 3.47505 28.4501 3.42505 30.7251 3.50005C32.9931 3.56955 35.2552 3.76989 37.5001 4.10005C38.8646 4.2395 40.2074 4.54164 41.5001 5.00005C42.2667 5.29722 42.9643 5.74814 43.5501 6.32505C43.9974 6.74712 44.356 7.25416 44.605 7.8165C44.854 8.37883 44.9883 8.98518 45.0001 9.60005C45.0234 10.9414 44.7856 12.2745 44.3001 13.5251C43.349 16.24 41.7433 18.6786 39.6251 20.6251C37.5656 22.6055 34.9476 23.9058 32.1251 24.3501H31.7501C31.5001 23.6251 30.8501 21.8501 30.1251 21.8501C29.9001 21.8501 29.4501 21.8501 29.1501 24.1751C27.4046 23.9299 25.7137 23.3888 24.1501 22.5751C21.6065 21.3685 19.4315 19.5042 17.8501 17.1751C17.0515 15.9732 16.5451 14.6012 16.3715 13.1687C16.1978 11.7362 16.3617 10.2829 16.8501 8.92505ZM7.50011 50.1251C6.26419 49.8542 5.15495 49.1763 4.35011 48.2001C3.85202 47.5378 3.49469 46.7806 3.30011 45.9751C2.96544 44.635 2.81406 43.2558 2.85011 41.8751C2.80001 40.2626 2.88363 38.6487 3.10011 37.0501C3.27356 35.4709 3.7131 33.9325 4.40011 32.5001C5.05949 31.1565 6.15127 30.0735 7.50011 29.4251C7.1659 32.029 6.98226 34.65 6.95011 37.2751C6.92797 39.5454 7.11206 41.813 7.50011 44.0501C7.66678 45.0667 7.89178 46.0917 8.17511 47.1251C8.39214 47.8233 8.65094 48.5079 8.95011 49.1751C9.17511 49.6001 9.42511 49.9501 9.65011 50.3501C8.92777 50.3463 8.20758 50.2709 7.50011 50.1251ZM43.3501 54.1001C41.7403 54.8918 39.9903 55.359 38.2001 55.4751C35.3334 55.5677 32.4641 55.4088 29.6251 55.0001C25.3875 54.8585 21.186 54.1694 17.1251 52.9501C14.6491 52.0742 12.6012 50.2857 11.4001 47.9501C11.1451 47.4128 10.9197 46.862 10.7251 46.3001C10.4501 45.3751 10.2251 44.4501 10.0251 43.5251C9.57663 41.4613 9.31722 39.3609 9.25011 37.2501C9.19095 33.9931 9.34964 30.7358 9.72511 27.5001C10.0245 24.4684 10.7049 21.4865 11.7501 18.6251C12.4155 16.8079 13.2526 15.0583 14.2501 13.4001C14.4161 15.1558 14.9439 16.8582 15.8001 18.4001C17.5207 21.2063 19.9759 23.4886 22.9001 25.0001C24.9078 26.1202 27.1165 26.8338 29.4001 27.1001C29.9251 29.3251 30.2001 29.6001 30.7501 29.6001C31.3001 29.6001 31.6001 29.3751 31.9001 27.3001H32.5001C35.9156 26.7585 39.0782 25.1684 41.5501 22.7501C43.9857 20.4425 45.8073 17.564 46.8501 14.3751C47.0251 13.8251 47.1501 13.2751 47.2751 12.7001C47.5501 13.1251 47.8001 13.5501 48.0501 14.0001C48.9326 15.9169 49.587 17.9307 50.0001 20.0001C50.8698 24.1097 51.3055 28.2994 51.3001 32.5001C51.3901 36.7336 50.7993 40.954 49.5501 45.0001C48.8672 47.2246 47.8651 49.3383 46.5751 51.2751C45.7638 52.453 44.6841 53.4213 43.4251 54.1001H43.3501ZM56.8251 42.7001C56.7554 44.2986 56.5462 45.8879 56.2001 47.4501C56.0338 48.3766 55.619 49.2407 55.0001 49.9501C54.3008 50.6031 53.4363 51.0526 52.5001 51.2501C51.5629 51.4542 50.6089 51.5714 49.6501 51.6001C50.6764 49.7557 51.514 47.8126 52.1501 45.8001C53.4021 41.5418 53.9676 37.1113 53.8251 32.6751C53.8251 31.6251 53.8251 30.6001 53.6751 29.5751L54.3251 29.9501C54.7348 30.2516 55.1118 30.5951 55.4501 30.9751C56.4788 32.145 57.1244 33.6021 57.3001 35.1501C57.4804 37.6736 57.3461 40.2097 56.9001 42.7001H56.8251Z" fill="black"/>
</g>
<defs>
<clipPath id="clip0_161_7082">
<rect width="60" height="60" fill="white"/>
</clipPath>
</defs>
</svg>
