<svg width="60" height="60" viewBox="0 0 60 60" fill="none" xmlns="http://www.w3.org/2000/svg">
<g clip-path="url(#clip0_169_5081)">
<path d="M29.7751 9.62503C30.0029 9.62512 30.2217 9.53638 30.3851 9.37765C30.5485 9.21893 30.6436 9.00274 30.6501 8.77503C30.9185 7.71255 31.1272 6.63587 31.2751 5.55003C31.3126 4.83386 31.3126 4.11621 31.2751 3.40003C31.2338 2.40478 31.0224 1.42393 30.6501 0.500032C30.5976 0.324849 30.4808 0.175978 30.3232 0.0832539C30.1656 -0.00947024 29.9787 -0.0391967 29.8001 3.18491e-05C29.6001 3.18491e-05 29.2751 0.200032 29.0251 0.775032C28.8051 1.59828 28.6298 2.43283 28.5001 3.27503C28.4622 3.9912 28.4622 4.70887 28.5001 5.42503C28.5001 6.52503 28.8501 7.55003 29.0001 8.62503C28.9826 8.74197 28.9889 8.86125 29.0188 8.97566C29.0486 9.09007 29.1014 9.19725 29.1738 9.29071C29.2463 9.38417 29.3369 9.46198 29.4402 9.51944C29.5436 9.5769 29.6575 9.61282 29.7751 9.62503Z" fill="black"/>
<path d="M15.0003 15.625C15.1606 15.4615 15.2504 15.2416 15.2504 15.0125C15.2504 14.7835 15.1606 14.5636 15.0003 14.4C14.2712 13.2559 13.434 12.1844 12.5003 11.2C11.8503 10.6 11.0753 10.15 10.3753 9.60005L8.37532 8.60005C8.09922 8.42834 7.80597 8.2859 7.50032 8.17505C6.80032 8.17505 6.50032 8.37505 6.45032 8.67505C6.40218 8.76323 6.37695 8.86208 6.37695 8.96255C6.37695 9.06301 6.40218 9.16187 6.45032 9.25005C7.14955 10.1277 7.9009 10.9626 8.70032 11.75C9.35032 12.325 9.95032 12.95 10.6503 13.475C11.3503 14 12.8003 14.85 13.8253 15.65C13.9893 15.7925 14.2005 15.8688 14.4176 15.8642C14.6348 15.8596 14.8425 15.7743 15.0003 15.625Z" fill="black"/>
<path d="M9.49995 29.5001C8.29914 29.1965 7.06335 29.0536 5.82495 29.0751C5.13691 29.0785 4.45067 29.1455 3.77495 29.2751C2.85939 29.5294 1.92191 29.6968 0.974947 29.7751C0.876453 29.7487 0.773712 29.742 0.672612 29.7553C0.571512 29.7687 0.474041 29.8018 0.385787 29.8529C0.297532 29.904 0.220229 29.972 0.158309 30.0531C0.0963889 30.1341 0.0510689 30.2265 0.0249468 30.3251C-0.00120864 30.422 -0.0076559 30.5231 0.00598689 30.6226C0.0196297 30.722 0.0530851 30.8176 0.104372 30.9039C0.155658 30.9902 0.223733 31.0652 0.304563 31.1247C0.385394 31.1842 0.477337 31.2268 0.574947 31.2501C1.74537 31.8084 3.02829 32.0906 4.32495 32.0751C5.03029 32.0634 5.73314 31.9881 6.42495 31.8501C7.49995 31.6501 8.44995 31.3001 9.34995 31.2251C9.58075 31.2393 9.80817 31.1642 9.98505 31.0152C10.1619 30.8663 10.2747 30.655 10.2999 30.4251C10.3138 30.197 10.2379 29.9725 10.0884 29.7996C9.93888 29.6268 9.72768 29.5193 9.49995 29.5001Z" fill="black"/>
<path d="M52.8495 7.50013C52.7051 7.36111 52.5125 7.28345 52.312 7.28345C52.1116 7.28345 51.9189 7.36111 51.7745 7.50013C50.8245 8.02513 49.8745 8.45013 48.9495 9.07513C48.5748 9.32808 48.2158 9.60359 47.8745 9.90013L46.9245 10.8501C46.1995 11.6501 45.5495 12.4751 44.8495 13.3501C44.7671 13.4294 44.7015 13.5246 44.6567 13.6298C44.612 13.735 44.5889 13.8483 44.5889 13.9626C44.5889 14.077 44.612 14.1902 44.6567 14.2955C44.7015 14.4007 44.7671 14.4958 44.8495 14.5751C45.0119 14.7281 45.2265 14.8132 45.4495 14.8132C45.6725 14.8132 45.8872 14.7281 46.0495 14.5751C46.9995 14.0251 47.8995 13.5251 48.7995 12.9001L49.8995 12.1001C50.2487 11.8093 50.5747 11.4916 50.8745 11.1501C51.5995 10.3501 52.1745 9.47513 52.8495 8.65013C52.9336 8.57974 53.0012 8.49177 53.0476 8.39242C53.0939 8.29308 53.118 8.18477 53.118 8.07513C53.118 7.96549 53.0939 7.85718 53.0476 7.75784C53.0012 7.65849 52.9336 7.57052 52.8495 7.50013Z" fill="black"/>
<path d="M57.6247 29.5001C57.3247 29.5001 57.0497 29.3751 56.7497 29.3501C56.3339 29.3127 55.9155 29.3127 55.4997 29.3501C54.3997 29.5001 53.4247 29.8751 52.3497 30.1251C52.1461 30.1599 51.9614 30.2655 51.8283 30.4234C51.6951 30.5812 51.6221 30.7811 51.6221 30.9876C51.6221 31.1941 51.6951 31.3939 51.8283 31.5518C51.9614 31.7096 52.1461 31.8153 52.3497 31.8501C53.4282 32.0792 54.5234 32.2213 55.6247 32.2751C56.0552 32.2678 56.4832 32.209 56.8997 32.1001C57.1899 32.0312 57.4741 31.9392 57.7497 31.8251C58.3339 31.6705 58.8966 31.4438 59.4247 31.1501C59.7497 30.8501 59.9747 30.6251 59.9247 30.3501C59.9997 29.5751 58.9247 29.7251 57.6247 29.5001Z" fill="black"/>
<path d="M37.4996 14.9999C33.9126 13.1164 29.7633 12.6011 25.8246 13.5499C22.8098 14.3989 20.0782 16.0415 17.9147 18.3061C15.7512 20.5708 14.2351 23.3746 13.5246 26.4249C13.0621 28.5669 13.0621 30.7829 13.5246 32.9249C13.9548 35.039 14.8049 37.0453 16.0246 38.8249C16.3857 39.3385 16.796 39.8158 17.2496 40.2499C18.1046 41.0473 19.0735 41.713 20.1246 42.2249C20.2181 42.5843 20.2684 42.9536 20.2746 43.3249V45.8249V46.7249C19.5979 47.222 19.0984 47.923 18.8496 48.7249C18.6247 49.4444 18.5733 50.2068 18.6996 50.9499C18.7742 51.5577 19.0069 52.1353 19.3746 52.6249C19.6322 52.9357 19.9357 53.2055 20.2746 53.4249C19.7017 54.137 19.3692 55.0122 19.3246 55.9249C19.2628 56.4233 19.3138 56.9293 19.4739 57.4053C19.634 57.8813 19.8991 58.3152 20.2496 58.6749C20.9029 59.2665 21.7079 59.6647 22.5746 59.8249C23.706 60.0119 24.855 60.0706 25.9996 59.9999C26.9232 60.0028 27.8448 59.9106 28.7496 59.7249C28.8411 59.6398 28.9114 59.5344 28.9548 59.4171C28.9982 59.2999 29.0135 59.1741 28.9996 59.0499C28.9845 58.9256 28.9405 58.8065 28.871 58.7023C28.8015 58.5981 28.7086 58.5116 28.5996 58.4499C28.2336 58.4187 27.8656 58.4187 27.4996 58.4499H25.9996C25.0253 58.4466 24.0539 58.3461 23.0996 58.1499C22.5933 58.0226 22.1337 57.7538 21.7746 57.3749C21.6556 57.2209 21.5735 57.0417 21.5345 56.851C21.4955 56.6604 21.5006 56.4633 21.5496 56.2749C21.599 55.7526 21.8115 55.2591 22.157 54.8642C22.5025 54.4694 22.9634 54.1933 23.4746 54.0749C24.2246 54.0749 25.6746 54.4499 27.3996 54.5749C28.0407 54.6126 28.6835 54.6126 29.3246 54.5749H31.0246C32.3637 54.3514 33.6904 54.0593 34.9996 53.6999L35.6746 53.5249C35.7006 53.699 35.7006 53.8759 35.6746 54.0499C35.6828 54.6549 35.5811 55.2563 35.3746 55.8249C34.9348 56.6129 34.2503 57.236 33.4246 57.5999C33.0706 57.863 32.6638 58.0461 32.2322 58.1368C31.8006 58.2274 31.3545 58.2234 30.9246 58.1249C30.7148 58.028 30.4758 58.0155 30.2571 58.09C30.0384 58.1644 29.8566 58.3202 29.7496 58.5249C29.6539 58.731 29.6421 58.9663 29.7167 59.1809C29.7914 59.3955 29.9466 59.5727 30.1496 59.6749C30.8148 59.9149 31.5246 60.0056 32.2288 59.9408C32.933 59.876 33.6143 59.6572 34.2246 59.2999C35.5898 58.8086 36.7456 57.8646 37.4996 56.6249C37.9449 55.6374 38.1423 54.5561 38.0746 53.4749C38.0478 52.7792 37.793 52.1116 37.3496 51.5749C37.7098 51.2716 38.0144 50.9079 38.2496 50.4999C38.5058 50.0264 38.6022 49.4827 38.5246 48.9499C38.451 48.4014 38.2585 47.8756 37.9606 47.4092C37.6626 46.9429 37.2664 46.5472 36.7996 46.2499C36.7996 45.4249 36.6246 44.4999 36.6496 43.5999C36.6248 43.384 36.6248 43.1659 36.6496 42.9499C37.1946 42.7712 37.7089 42.5098 38.1746 42.1749C38.9996 41.5749 39.8496 40.9749 40.6746 40.2999C41.2264 39.8188 41.7365 39.2919 42.1996 38.7249C43.7598 36.6441 44.8437 34.2459 45.3746 31.6999C46.014 29.1308 46.014 26.4441 45.3746 23.8749C44.7345 21.9378 43.7059 20.1517 42.3519 18.6257C40.9979 17.0997 39.3468 15.866 37.4996 14.9999ZM30.9746 51.5499H29.2496H27.3496C25.5643 51.7647 23.7598 51.7647 21.9746 51.5499C21.7746 51.5499 21.6496 51.2999 21.5246 51.1499C21.4962 51.0013 21.4962 50.8486 21.5246 50.6999C21.4478 50.371 21.4478 50.0288 21.5246 49.6999C21.6163 49.4552 21.7824 49.2453 21.9996 49.0999C22.5392 48.766 23.1448 48.5528 23.7746 48.4749C24.9512 48.3024 26.1362 48.1939 27.3246 48.1499C29.4123 47.8597 31.527 47.8178 33.6246 48.0249C34.1496 48.0249 35.9496 48.8749 35.8246 49.7499C35.706 50.2662 35.4353 50.735 35.0476 51.096C34.6599 51.4569 34.173 51.6934 33.6496 51.7749C32.8746 51.7749 31.9746 51.5999 30.9746 51.5499ZM43.0246 31.2499C42.6514 33.4736 41.7983 35.5893 40.5246 37.4499C40.1585 37.929 39.7574 38.3802 39.3246 38.7999C38.6144 39.4481 37.8628 40.0493 37.0746 40.5999C36.8246 40.7999 35.7996 41.1249 35.4496 41.4249C35.2447 41.5717 35.095 41.783 35.0246 42.0249C34.8539 42.5401 34.786 43.0836 34.8246 43.6249C34.8384 44.2274 34.8885 44.8285 34.9746 45.4249C32.4102 44.948 29.7873 44.8721 27.1996 45.1999C25.8921 45.2466 24.5893 45.3803 23.2996 45.5999C22.8663 45.695 22.4403 45.8203 22.0246 45.9749V45.7499C22.0246 45.0499 22.1746 43.8499 22.1496 42.8499C22.1497 42.3083 22.0391 41.7723 21.8246 41.2749C21.6861 41.038 21.4986 40.8334 21.2746 40.6749C20.7746 40.3999 19.9996 39.9999 19.8496 39.9999C19.4377 39.701 19.0528 39.3664 18.6996 38.9999C18.3515 38.6322 18.0416 38.2301 17.7746 37.7999C16.7669 36.1839 16.0952 34.3813 15.7996 32.4999C15.4956 30.661 15.5808 28.7788 16.0496 26.9749C16.7568 24.427 18.1186 22.1085 19.9996 20.2499C21.8253 18.3756 24.1226 17.0284 26.6496 16.3499C29.9004 15.5687 33.3234 15.9766 36.2996 17.4999C37.7992 18.1831 39.1457 19.1618 40.2582 20.3774C41.3708 21.5931 42.2267 23.0207 42.7746 24.5749C43.3962 26.747 43.482 29.0374 43.0246 31.2499Z" fill="black"/>
<path d="M36.8247 24.775C36.4738 23.9894 36.0013 23.2638 35.4247 22.625C34.979 22.1897 34.474 21.8193 33.9247 21.525C33.3593 21.1881 32.7287 20.9751 32.0747 20.9C31.5792 20.8055 31.0703 20.8055 30.5747 20.9C29.9747 21.175 29.6997 21.55 29.9247 22.075C30.1497 22.6 31.1247 22.4 31.6497 22.625C32.0061 22.7754 32.3228 23.0065 32.5747 23.3C32.8538 23.6016 33.1048 23.928 33.3247 24.275C33.7237 24.8765 34.051 25.5225 34.2997 26.2C34.6084 26.8924 34.8511 27.6122 35.0247 28.35C35.2603 29.3277 35.2603 30.3474 35.0247 31.325C34.9431 31.5406 34.9498 31.7797 35.0434 31.9904C35.137 32.201 35.31 32.3662 35.5247 32.45C35.7407 32.5252 35.9772 32.5154 36.1861 32.4225C36.3951 32.3296 36.5608 32.1607 36.6497 31.95C37.3811 30.3918 37.625 28.6492 37.3497 26.95C37.2716 26.205 37.0951 25.4737 36.8247 24.775Z" fill="black"/>
</g>
<defs>
<clipPath id="clip0_169_5081">
<rect width="60" height="60" fill="white"/>
</clipPath>
</defs>
</svg>
