<svg width="60" height="60" viewBox="0 0 60 60" fill="none" xmlns="http://www.w3.org/2000/svg">
<g clip-path="url(#clip0_165_7149)">
<path fill-rule="evenodd" clip-rule="evenodd" d="M59.0746 47.8499C58.7746 46.1249 52.0746 37.0999 48.1746 30.3499C47.327 28.9518 46.5914 27.4889 45.9746 25.9749C45.6496 25.0249 44.6996 25.6749 44.2496 25.7249C44.0333 24.6282 43.7324 23.55 43.3496 22.4999C43.0452 21.8453 42.581 21.2778 41.9996 20.8499C41.1933 20.254 40.2264 19.9143 39.2246 19.8749L37.8746 14.4999C37.7993 13.7672 37.674 13.0405 37.4996 12.3249C37.4165 12.1087 37.2821 11.9161 37.1078 11.7637C36.9336 11.6112 36.7248 11.5035 36.4996 11.4499C36.2357 11.4012 35.9639 11.4167 35.7072 11.495C35.4505 11.5733 35.2164 11.7122 35.0246 11.8999C34.3996 12.4249 32.9996 13.9499 32.8496 14.0999C32.428 14.5542 32.0512 15.0481 31.7246 15.5749C31.415 16.1046 31.1636 16.6662 30.9746 17.2499C30.8037 17.9901 30.8037 18.7596 30.9746 19.4999C31.2632 20.5372 31.6569 21.5424 32.1496 22.4999C31.8917 22.6608 31.649 22.8449 31.4246 23.0499C30.9188 23.5059 30.569 24.1093 30.4246 24.7749C30.2061 25.5939 30.2061 26.4558 30.4246 27.2749C30.7723 28.3025 31.2423 29.2845 31.8246 30.1999C31.9093 30.332 32.031 30.4364 32.1746 30.4999L31.8246 30.7749C31.5894 31.0182 31.4096 31.3095 31.2974 31.6288C31.1852 31.9481 31.1433 32.2879 31.1746 32.6249C31.1746 33.4999 33.8996 43.5999 36.1746 50.9499C37.0996 54.0749 37.9746 56.6999 38.4496 57.9249C38.6145 58.4586 38.9264 58.9351 39.3496 59.2999C41.0141 59.967 42.8275 60.1742 44.5996 59.8999C47.0142 59.7275 49.3858 59.1705 51.6246 58.2499C54.0314 57.1104 56.1185 55.3926 57.6996 53.2499C58.2736 52.4849 58.6906 51.614 58.9266 50.6872C59.1626 49.7605 59.2129 48.7962 59.0746 47.8499ZM33.1746 18.0749C33.3642 17.6718 33.5901 17.2869 33.8496 16.9249C34.1214 16.575 34.4225 16.2488 34.7496 15.9499C34.7496 15.9499 35.1496 15.5499 35.5496 15.1249L37.4996 19.9999C36.1102 20.4244 34.776 21.0119 33.5246 21.7499C33.2771 21.0834 33.0848 20.3978 32.9496 19.6999C32.8397 19.1483 32.9189 18.5758 33.1746 18.0749ZM33.2996 29.4999C32.9389 28.6563 32.6707 27.7762 32.4996 26.8749C32.4265 26.3784 32.478 25.8715 32.6496 25.3999C32.7677 25.1116 32.9912 24.8792 33.2746 24.7499C33.7205 24.5153 34.1796 24.3066 34.6496 24.1249C35.8932 23.4386 37.2098 22.8935 38.5746 22.4999C39.3242 22.2931 40.1232 22.3641 40.8246 22.6999C41.2763 22.9651 41.6411 23.3559 41.8746 23.8249C42.2134 24.5673 42.5138 25.3266 42.7746 26.0999C42.0301 26.2667 41.2956 26.4754 40.5746 26.7249C38.6246 27.4499 36.8246 28.5249 34.7746 29.4249C34.4246 29.5749 33.8996 29.7499 33.3496 29.9999C33.3749 29.9174 33.3834 29.8307 33.3749 29.7448C33.3663 29.659 33.3407 29.5757 33.2996 29.4999ZM55.7996 51.9999C54.4792 53.7163 52.764 55.0885 50.7996 55.9999C49.1495 56.6637 47.4171 57.101 45.6496 57.2999C44.2333 57.5223 42.7909 57.5223 41.3746 57.2999C41.3746 56.9499 40.7746 56.1749 40.4996 55.3249C38.3496 49.1749 33.4746 33.6249 33.3746 32.5249C33.3746 32.1499 33.6246 31.9249 33.8996 31.7499C34.4933 31.451 35.1025 31.1839 35.7246 30.9499C37.7246 29.9749 39.4246 28.8499 41.3246 28.0749C42.4643 27.597 43.6695 27.2936 44.8996 27.1749C45.8147 29.369 46.8927 31.4916 48.1246 33.5249C51.7246 39.6749 56.7746 46.7999 56.9996 48.2749C57.0299 48.9309 56.9308 49.5865 56.7077 50.2042C56.4846 50.8219 56.1421 51.3896 55.6996 51.8749L55.7996 51.9999Z" fill="black"/>
<path fill-rule="evenodd" clip-rule="evenodd" d="M27.075 20.275C25.1468 22.4143 22.7149 24.0384 20 25C17.3834 25.994 14.5335 26.2026 11.8 25.6C10.0894 25.1656 8.51138 24.3186 7.2039 23.1332C5.89643 21.9477 4.89939 20.4599 4.30002 18.8C3.63692 17.1647 3.34028 15.404 3.43099 13.6417C3.52169 11.8795 3.99753 10.1585 4.82502 8.59995C5.19937 7.89824 5.69931 7.27119 6.30002 6.74995C7.29809 5.89083 8.38803 5.14464 9.55002 4.52495C14.0198 2.18703 19.208 1.62445 24.075 2.94995C25.6589 3.33554 27.1128 4.13286 28.2893 5.26114C29.4659 6.38943 30.3234 7.80861 30.775 9.37495C30.8865 9.85191 30.9617 10.3366 31 10.825V12.35C30.9931 12.5382 31.0597 12.7217 31.1856 12.8616C31.3116 13.0016 31.4871 13.0871 31.675 13.1C31.8638 13.1288 32.0564 13.0819 32.2109 12.9696C32.3654 12.8572 32.4693 12.6885 32.5 12.5C32.5498 11.8342 32.5498 11.1657 32.5 10.5C32.472 10.0286 32.4051 9.56032 32.3 9.09995C31.8628 7.23078 30.9386 5.51066 29.6213 4.11433C28.304 2.718 26.6406 1.69524 24.8 1.14995C19.3813 -0.593502 13.5031 -0.2183 8.35002 2.19995C6.98924 2.88059 5.71372 3.71975 4.55002 4.69995C3.72887 5.41004 3.03549 6.25561 2.50002 7.19995C1.48942 9.11308 0.915887 11.2266 0.820778 13.3882C0.72567 15.5497 1.11135 17.7055 1.95002 19.7C2.74406 21.6993 4.02003 23.4713 5.66438 24.8583C7.30874 26.2453 9.27048 27.2043 11.375 27.65C14.5197 28.2532 17.7725 27.914 20.725 26.675C23.6235 25.5054 26.1965 23.6528 28.225 21.275C28.3226 21.1127 28.3595 20.9211 28.3291 20.7342C28.2987 20.5473 28.203 20.3773 28.0591 20.2543C27.9151 20.1313 27.7322 20.0634 27.5428 20.0626C27.3535 20.0618 27.17 20.1282 27.025 20.25L27.075 20.275Z" fill="black"/>
<path fill-rule="evenodd" clip-rule="evenodd" d="M20.9251 20.625C21.1185 20.6417 21.3114 20.5875 21.4678 20.4725C21.6241 20.3575 21.7334 20.1896 21.7751 20C22.0001 18.35 22.3501 16.6 22.5251 15C22.6711 13.6952 22.6627 12.3778 22.5001 11.075C22.4413 9.87344 22.0241 8.717 21.3023 7.7546C20.5805 6.7922 19.5872 6.06791 18.4501 5.675C17.2331 5.40667 15.9619 5.53924 14.8264 6.05291C13.691 6.56657 12.7521 7.43378 12.1501 8.525C11.298 10.0604 10.8104 11.7711 10.7251 13.525C10.6277 15.9775 10.7953 18.4334 11.2251 20.85C11.2499 21.0289 11.3404 21.1921 11.4792 21.3077C11.6179 21.4233 11.7947 21.4829 11.9751 21.475C12.1291 21.4353 12.265 21.3444 12.3605 21.2171C12.4559 21.0899 12.5052 20.934 12.5001 20.775C12.4193 18.8477 12.4862 16.9171 12.7001 15C13.667 15.2979 14.6525 15.5317 15.6501 15.7H16.9251H18.2001C18.9751 15.7 19.7501 15.5 20.5001 15.4C20.5001 16.875 20.2751 18.35 20.2001 19.775C20.1923 19.9818 20.2626 20.184 20.3969 20.3414C20.5311 20.4988 20.7197 20.6001 20.9251 20.625ZM16.9501 13.125C16.5338 13.1001 16.1164 13.1001 15.7001 13.125C14.7501 13.125 13.8501 13.425 12.9001 13.525C13.1096 12.2635 13.587 11.0615 14.3001 10C14.6192 9.37775 15.1277 8.87294 15.7523 8.5584C16.3769 8.24387 17.0852 8.13588 17.7751 8.25C18.4619 8.47584 19.0661 8.90054 19.5112 9.47024C19.9563 10.0399 20.2222 10.729 20.2751 11.45C20.4144 12.1669 20.4897 12.8948 20.5001 13.625C19.7411 13.4511 18.9733 13.3176 18.2001 13.225C17.7857 13.1678 17.3684 13.1344 16.9501 13.125Z" fill="black"/>
</g>
<defs>
<clipPath id="clip0_165_7149">
<rect width="60" height="60" fill="white"/>
</clipPath>
</defs>
</svg>
