<svg width="60" height="60" viewBox="0 0 60 60" fill="none" xmlns="http://www.w3.org/2000/svg">
<g clip-path="url(#clip0_169_5125)">
<path fill-rule="evenodd" clip-rule="evenodd" d="M25.4006 27.25C25.6128 26.7063 25.7801 26.1461 25.9006 25.575H29.7006H32.0006C31.9758 25.8494 31.9758 26.1255 32.0006 26.4C32.0368 26.7653 32.1123 27.1257 32.2256 27.475C32.431 27.9998 32.6732 28.5094 32.9506 29C33.3506 29.55 34.9756 29.225 34.9506 28.225V26.725C34.9506 26.375 34.7006 26 34.5756 25.65L34.4506 25.475C37.6171 25.4027 40.7674 25.0005 43.8506 24.275C44.6788 24.095 45.4201 23.6361 45.9505 22.975C46.3933 22.2047 46.682 21.3556 46.8005 20.475C46.9382 19.3721 47.005 18.2615 47.0005 17.15C47.0005 15.125 47.1256 13.125 47.1506 11.1V7.04998C47.1989 5.75939 47.0982 4.46752 46.8506 3.19999C46.7426 2.78127 46.5462 2.39055 46.2745 2.05417C46.0028 1.71779 45.6622 1.44357 45.2756 1.24999C42.2279 0.83097 39.1501 0.672063 36.0756 0.774985C28.5756 0.774985 18.7006 0.924985 15.6756 1.09999C15.4845 1.13363 15.3114 1.23352 15.1867 1.38211C15.062 1.5307 14.9936 1.71849 14.9936 1.91249C14.9936 2.10648 15.062 2.29427 15.1867 2.44286C15.3114 2.59145 15.4845 2.69134 15.6756 2.72499C18.3256 2.72499 26.1756 2.72499 33.1756 2.89999C36.9007 2.85245 40.6251 3.04451 44.3256 3.47499C44.3256 3.47499 44.3256 3.64999 44.4506 3.74999C44.5309 4.04413 44.5812 4.34568 44.6006 4.64999V7.14998L44.3256 17.15C44.3043 18.1035 44.2292 19.055 44.1005 20C44.0321 20.4557 43.9061 20.901 43.7256 21.325C44.0006 21.675 42.6756 21.75 41.6756 21.925C38.6416 22.4446 35.5766 22.762 32.5006 22.875H32.3006H29.6756C25.6191 23.0976 21.5527 23.0642 17.5006 22.775C16.8453 22.7255 16.1939 22.6336 15.5506 22.5L15.2256 22.375C14.9494 21.893 14.787 21.3543 14.7506 20.8C14.6733 19.7017 14.6567 18.6001 14.7006 17.5V4.54999C14.7006 4.3577 14.6242 4.1733 14.4882 4.03733C14.3522 3.90137 14.1678 3.82499 13.9756 3.82499C13.7833 3.82499 13.5989 3.90137 13.4629 4.03733C13.3269 4.1733 13.2506 4.3577 13.2506 4.54999L12.8256 17.5C12.7001 18.8888 12.7001 20.2861 12.8256 21.675C12.9327 22.3985 13.1972 23.0898 13.6006 23.7C14.1331 24.243 14.8249 24.6021 15.5756 24.725C18.1355 25.2507 20.7378 25.5435 23.3506 25.6C23.2788 25.6635 23.2195 25.7398 23.1756 25.825C22.9359 26.1465 22.7423 26.4999 22.6006 26.875C22.3143 27.6753 22.2201 28.5316 22.3256 29.375C22.4207 29.5469 22.5601 29.6902 22.7294 29.79C22.8987 29.8898 23.0916 29.9425 23.2881 29.9425C23.4845 29.9425 23.6775 29.8898 23.8467 29.79C24.016 29.6902 24.1554 29.5469 24.2506 29.375C24.4756 28.8 25.1756 27.8 25.4006 27.25Z" fill="black"/>
<path fill-rule="evenodd" clip-rule="evenodd" d="M8.75019 46.05C8.47519 47.675 8.27519 49.325 8.10019 51.05C7.8871 53.4778 7.52811 55.8905 7.02518 58.275C6.98983 58.3751 6.97474 58.4812 6.9808 58.5872C6.98686 58.6932 7.01394 58.7969 7.06048 58.8923C7.10701 58.9877 7.17207 59.0729 7.25185 59.1429C7.33163 59.2129 7.42455 59.2663 7.52519 59.3C7.73736 59.3631 7.96578 59.341 8.16187 59.2383C8.35796 59.1356 8.50624 58.9604 8.57519 58.75C9.60765 56.1241 10.3781 53.4025 10.8752 50.625C11.1502 49 11.3752 47.35 11.5252 45.625C11.7002 43.525 11.5252 43.125 11.7752 40.925C11.7752 39.8 10.4752 39.8 10.1002 40.925C9.50848 42.5929 9.05691 44.3072 8.75019 46.05Z" fill="black"/>
<path fill-rule="evenodd" clip-rule="evenodd" d="M48.3007 46.2C48.5507 47.825 48.8757 49.475 49.2007 51.2C49.7007 53.7 50.2757 56.05 50.7507 58.525C50.763 58.6304 50.7962 58.7322 50.8483 58.8247C50.9004 58.9171 50.9704 58.9983 51.0541 59.0634C51.1379 59.1286 51.2338 59.1764 51.3362 59.2041C51.4386 59.2319 51.5455 59.239 51.6507 59.225C51.8654 59.1998 52.0616 59.0914 52.1971 58.9231C52.3327 58.7548 52.3968 58.5401 52.3757 58.325C52.2507 55.825 52.1007 53.325 51.8007 50.975C51.8007 49.925 51.5507 48.9 51.3757 47.85C51.2007 46.8 51.0007 45.8 50.7507 44.775C50.4007 43.325 50.4007 43.2 50.0007 41.775C49.9241 41.4939 49.7436 41.2524 49.4958 41.0993C49.248 40.9461 48.9513 40.8927 48.6657 40.9498C48.38 41.007 48.1267 41.1704 47.9569 41.4071C47.787 41.6437 47.7134 41.9361 47.7507 42.225C47.9507 44.075 48.0257 44.25 48.3007 46.2Z" fill="black"/>
<path fill-rule="evenodd" clip-rule="evenodd" d="M56.7754 31.575C53.9434 30.2745 50.8667 29.5927 47.7504 29.575H42.7504C40.2504 29.7 16.0004 30.625 13.0254 30.725C10.0504 30.825 7.77539 30.875 5.17539 31.075C4.98311 31.075 4.7987 31.1513 4.66274 31.2873C4.52678 31.4233 4.45039 31.6077 4.45039 31.8C4.45039 31.9922 4.52678 32.1766 4.66274 32.3126C4.7987 32.4486 4.98311 32.525 5.17539 32.525C7.67539 32.525 10.3754 32.35 12.9504 32.35C19.0504 32.35 25.1254 32.6 31.2254 32.55C35.1004 32.55 38.9254 32.175 42.7504 32.1H47.5754C50.267 32.1269 52.9234 32.7144 55.3754 33.825C55.9486 34.0986 56.4265 34.538 56.7474 35.0862C57.0683 35.6343 57.2174 36.2662 57.1754 36.9C56.5764 36.9497 55.9744 36.9497 55.3754 36.9H51.3004C49.2004 36.9 47.1504 36.725 45.0504 36.6C35.5004 36.075 25.9254 36.975 16.3504 36.95C14.0004 36.95 11.6254 36.95 9.25039 36.725H5.22539C4.46415 36.6933 3.72021 36.4881 3.05039 36.125C2.70168 35.9122 2.4014 35.6288 2.16888 35.2929C1.93637 34.9571 1.77678 34.5762 1.70039 34.175C1.67292 33.8297 1.75157 33.4842 1.92582 33.1849C2.10007 32.8856 2.36159 32.6466 2.67539 32.5C2.77089 32.4477 2.85511 32.3771 2.9232 32.2922C2.99128 32.2072 3.04189 32.1097 3.0721 32.0051C3.10231 31.9005 3.11153 31.791 3.09922 31.6829C3.08691 31.5747 3.05333 31.4701 3.00039 31.375C2.95062 31.2803 2.88237 31.1966 2.79969 31.1288C2.71702 31.061 2.62158 31.0104 2.51903 30.9801C2.41648 30.9498 2.3089 30.9404 2.20264 30.9524C2.09639 30.9644 1.99361 30.9976 1.90039 31.05C1.27321 31.3465 0.753565 31.8305 0.413225 32.435C0.072884 33.0396 -0.0713661 33.7349 0.000393344 34.425C0.0988607 35.0752 0.334876 35.697 0.692691 36.2488C1.05051 36.8006 1.52189 37.2698 2.07539 37.625C2.7525 38.0547 3.5092 38.3438 4.30039 38.475C5.90039 38.75 7.70039 38.625 9.10039 38.75C9.57539 38.75 14.9254 39.1 16.3254 39.15C25.8254 39.375 35.3754 38.675 44.8754 39.4L51.2254 39.75H55.5504C56.557 39.7479 57.5584 39.6049 58.5254 39.325C58.8691 39.2232 59.1787 39.0299 59.4209 38.7657C59.6632 38.5014 59.8289 38.1762 59.9004 37.825C60.1382 36.5846 59.961 35.3004 59.3962 34.1708C58.8314 33.0412 57.9104 32.1289 56.7754 31.575Z" fill="black"/>
</g>
<defs>
<clipPath id="clip0_169_5125">
<rect width="60" height="60" fill="white"/>
</clipPath>
</defs>
</svg>
