<svg width="60" height="60" viewBox="0 0 60 60" fill="none" xmlns="http://www.w3.org/2000/svg">
<g clip-path="url(#clip0_169_5077)">
<path fill-rule="evenodd" clip-rule="evenodd" d="M53.1999 2.09991C52.8149 1.49003 52.2702 0.997208 51.6249 0.674914C50.8332 0.321685 49.9884 0.102046 49.1249 0.0249144C47.98 -0.0213478 46.8406 0.206305 45.8014 0.688952C44.7622 1.1716 43.8532 1.8953 43.1499 2.79991C42.3702 3.80325 41.839 4.97692 41.5999 6.22491C41.4623 6.17729 41.3126 6.17729 41.1749 6.22491L38.9999 7.64991C37.7749 8.37491 36.1749 9.09992 34.8499 10.0249C34.2088 10.4531 33.6286 10.9661 33.1249 11.5499C31.7249 13.2499 32.2499 14.3749 33.1249 15.0249C33.711 15.3592 34.3587 15.5714 35.0289 15.6487C35.6992 15.726 36.3781 15.6669 37.0249 15.4749C37.4699 15.3505 37.9046 15.1917 38.3249 14.9999L39.6499 14.2999L44.0249 11.6499C44.2094 11.5493 44.347 11.3802 44.4078 11.179C44.4686 10.9779 44.4478 10.7609 44.3499 10.5749C44.3026 10.4844 44.2378 10.4042 44.1593 10.3388C44.0808 10.2735 43.9901 10.2243 43.8925 10.1941C43.7949 10.1639 43.6924 10.1533 43.5907 10.1628C43.489 10.1724 43.3902 10.202 43.2999 10.2499L38.6749 12.4999L36.1749 13.3249C35.8428 13.3643 35.5071 13.3643 35.1749 13.3249C35.6512 12.7449 36.1875 12.2169 36.7749 11.7499C37.8499 10.8749 39.0249 10.0499 39.9749 9.24991L41.4749 7.94991C41.4749 9.69991 45.8249 10.8499 48.2499 10.2999C49.9497 9.89047 51.4529 8.90008 52.4999 7.49991C53.1052 6.65002 53.515 5.67678 53.6999 4.64991C53.8517 3.76736 53.6738 2.8598 53.1999 2.09991ZM51.0999 4.59991C50.9947 5.14842 50.7914 5.67347 50.4999 6.14991C49.8836 7.21606 48.8955 8.01724 47.7249 8.39991C47.1999 8.57491 39.1999 9.72491 44.6749 4.22491C45.1815 3.63699 45.8179 3.17504 46.5339 2.87564C47.2498 2.57624 48.0257 2.4476 48.7999 2.49991C49.2805 2.55127 49.7517 2.66905 50.1999 2.84991C50.5087 2.94908 50.7794 3.14116 50.9749 3.39991C51.076 3.56721 51.1395 3.75444 51.161 3.94868C51.1826 4.14292 51.1618 4.33952 51.0999 4.52491V4.59991Z" fill="black"/>
<path fill-rule="evenodd" clip-rule="evenodd" d="M31.2256 30.95C32.1676 31.4319 33.2458 31.5781 34.2821 31.3645C35.3185 31.1508 36.2509 30.5901 36.9256 29.775C37.4131 29.1597 37.7542 28.4415 37.9231 27.6749C38.0921 26.9082 38.0843 26.1132 37.9006 25.35C37.3252 23.4962 36.483 21.7361 35.4006 20.125L34.2756 17.625C34.2198 17.538 34.1474 17.4628 34.0625 17.4038C33.9777 17.3448 33.882 17.3031 33.781 17.281C33.68 17.259 33.5757 17.257 33.474 17.2753C33.3722 17.2936 33.2751 17.3317 33.1881 17.3875C33.1011 17.4433 33.0259 17.5157 32.9669 17.6006C32.9079 17.6854 32.8662 17.7811 32.8441 17.8821C32.8221 17.983 32.8201 18.0874 32.8384 18.1891C32.8566 18.2909 32.8948 18.388 32.9506 18.475L33.8256 20.85C34.627 22.3706 35.2159 23.9941 35.5756 25.675C35.6641 26.1193 35.6444 26.5784 35.5182 27.0135C35.392 27.4486 35.163 27.847 34.8506 28.175C34.5201 28.532 34.0794 28.7679 33.599 28.845C33.1186 28.922 32.6262 28.8358 32.2006 28.6C31.6884 28.4099 31.2334 28.0918 30.8789 27.6761C30.5244 27.2604 30.2823 26.7608 30.1756 26.225C30.0581 25.1437 30.1863 24.0498 30.5506 23.025C31.1487 21.2721 31.8414 19.5529 32.6256 17.875C32.731 17.7265 32.7767 17.5437 32.7536 17.3631C32.7304 17.1824 32.6401 17.0171 32.5006 16.9C32.3315 16.8239 32.1391 16.8181 31.9657 16.8837C31.7923 16.9493 31.652 17.081 31.5756 17.25C30.7756 18.7 29.6506 20.475 28.8756 22.25C28.2854 23.5453 27.9786 24.9516 27.9756 26.375C28.0743 27.3539 28.4257 28.2903 28.9955 29.0923C29.5653 29.8944 30.3338 30.5345 31.2256 30.95Z" fill="black"/>
<path fill-rule="evenodd" clip-rule="evenodd" d="M18.9002 42.5H24.6752C26.6002 42.5 28.1002 42.275 29.8002 42.125L33.2002 41.85C35.3752 41.65 37.5752 41.65 39.7502 41.5C40.3252 41.5 40.5252 41.5 41.0752 41.325C41.6252 41.15 41.8502 39.825 41.0752 39.675H39.7002C37.5002 39.675 35.3002 39.45 33.1002 39.45C30.9002 39.45 29.2502 39.45 27.3502 39.675C25.9002 39.675 24.4752 39.9 23.0502 40.075L18.8002 40.575L14.3502 40.925C13.1752 41.325 13.3002 42.175 14.2002 42.45L18.9002 42.5Z" fill="black"/>
<path fill-rule="evenodd" clip-rule="evenodd" d="M47.2253 24.5249C46.1732 23.7583 44.9245 23.3073 43.6253 23.2249C43.5248 23.2109 43.4225 23.2175 43.3246 23.2442C43.2267 23.271 43.1353 23.3173 43.0558 23.3804C42.9764 23.4435 42.9105 23.5221 42.8623 23.6114C42.8141 23.7007 42.7845 23.7988 42.7753 23.8999C42.7613 24.0018 42.7677 24.1054 42.7942 24.2048C42.8206 24.3042 42.8666 24.3974 42.9295 24.4788C42.9923 24.5602 43.0707 24.6284 43.1601 24.6792C43.2495 24.73 43.3482 24.7625 43.4503 24.7749C44.2771 24.8594 45.0774 25.1148 45.8003 25.5249C46.0771 25.6609 46.3023 25.8831 46.4421 26.1581C46.5818 26.4331 46.6286 26.746 46.5753 27.0499C46.4898 27.4739 46.2708 27.8593 45.9503 28.1499C45.2903 28.6706 44.5575 29.0917 43.7753 29.3999C43.0755 29.6368 42.4174 29.9828 41.8253 30.4249C41.5328 30.6997 41.3544 31.0745 41.3253 31.4749C41.2755 32.0905 41.2755 32.7092 41.3253 33.3249C41.4503 34.6249 41.7253 35.9499 41.7753 37.1999C41.7753 39.9749 41.9503 45.4999 42.0003 48.2749C42.0878 49.5734 42.0878 50.8763 42.0003 52.1749C41.9589 52.8823 41.7256 53.5651 41.3253 54.1499C40.7886 54.9381 39.9924 55.5132 39.0753 55.7749C37.4437 56.1991 35.7607 56.3926 34.0753 56.3499L30.2003 56.7249L21.4253 57.4999C20.1128 57.5539 18.7981 57.4786 17.5003 57.2749C16.6866 57.1662 15.8991 56.9121 15.1753 56.5249C14.396 56.0577 13.8306 55.3039 13.6003 54.4249C13.3321 53.3547 13.2143 52.2525 13.2503 51.1499C14.2157 51.3461 15.1927 51.4797 16.1753 51.5499C16.6329 51.5873 17.0927 51.5873 17.5503 51.5499L18.9253 51.3749C19.9753 51.1749 21.0003 50.8999 22.0753 50.6499C22.2809 50.6499 22.478 50.5682 22.6233 50.4229C22.7687 50.2775 22.8503 50.0804 22.8503 49.8749C22.8503 49.6693 22.7687 49.4722 22.6233 49.3268C22.478 49.1815 22.2809 49.0999 22.0753 49.0999C20.9753 49.0999 19.9503 48.9249 18.8503 48.8999H17.2503C16.7979 48.9253 16.3473 48.9754 15.9003 49.0499C14.9753 49.1999 14.0753 49.4249 13.1503 49.6249V49.4249V40.0749C13.1503 38.5249 13.1503 36.9749 12.9503 35.4249C13.8571 35.642 14.7751 35.8089 15.7003 35.9249C16.1333 35.9499 16.5673 35.9499 17.0003 35.9249C17.4368 35.8928 17.8709 35.8344 18.3003 35.7499C19.2733 35.56 20.2336 35.3096 21.1753 34.9999C21.2792 34.9882 21.3795 34.9549 21.4697 34.9022C21.56 34.8494 21.6382 34.7784 21.6995 34.6937C21.7607 34.6089 21.8035 34.5123 21.8251 34.4101C21.8468 34.3078 21.8469 34.2021 21.8253 34.0999C21.7886 33.8961 21.6743 33.7145 21.5064 33.5933C21.3386 33.4721 21.1303 33.4207 20.9253 33.4499H18.0003H16.7503C16.334 33.4252 15.9166 33.4252 15.5003 33.4499C14.5753 33.5999 13.7003 33.8249 12.8003 33.9999V30.9749C12.8444 30.8366 12.8444 30.6881 12.8003 30.5499C12.794 30.448 12.7675 30.3484 12.7226 30.2568C12.6777 30.1652 12.6151 30.0833 12.5384 30.016C12.4618 29.9486 12.3726 29.8971 12.2759 29.8643C12.1793 29.8315 12.0771 29.8181 11.9753 29.8249C11.3978 29.8313 10.8208 29.7895 10.2503 29.6999C9.79068 29.6361 9.35786 29.4456 9.00031 29.1499C8.79806 28.9313 8.65154 28.6672 8.5732 28.38C8.49486 28.0927 8.48701 27.7908 8.55032 27.4999C8.57425 27.219 8.65803 26.9465 8.79601 26.7007C8.934 26.4549 9.123 26.2415 9.35031 26.0749C9.64846 25.8616 9.98985 25.7165 10.3503 25.6499C11.0595 25.4913 11.7774 25.3744 12.5003 25.2999L22.9753 24.2999C23.0644 24.2877 23.1501 24.2578 23.2275 24.212C23.3048 24.1662 23.3723 24.1055 23.4258 24.0333C23.4794 23.9611 23.518 23.8789 23.5394 23.7916C23.5607 23.7043 23.5645 23.6136 23.5503 23.5249C23.5381 23.4358 23.5083 23.3501 23.4625 23.2727C23.4167 23.1953 23.3559 23.1279 23.2838 23.0743C23.2116 23.0208 23.1294 22.9822 23.0421 22.9608C22.9548 22.9394 22.8641 22.9357 22.7753 22.9499C21.3753 22.9499 17.1753 22.6499 14.4003 22.5999H12.1753C11.3341 22.6783 10.499 22.8119 9.67531 22.9999C8.98361 23.1831 8.33692 23.5064 7.77531 23.9499C7.27346 24.3912 6.87621 24.9388 6.61243 25.5529C6.34864 26.1669 6.22494 26.832 6.25031 27.4999C6.22679 28.1214 6.35039 28.7398 6.61105 29.3045C6.87171 29.8693 7.26206 30.3645 7.75031 30.7499C8.29281 31.1323 8.91824 31.3808 9.57531 31.4749C10.1492 31.5245 10.7264 31.5245 11.3003 31.4749V40.1499C11.3003 43.0499 11.1503 46.3499 11.0253 49.4499C10.8732 51.3049 10.9741 53.172 11.3253 54.9999C11.4851 55.7247 11.7887 56.4102 12.2181 57.0157C12.6475 57.6212 13.1941 58.1343 13.8253 58.5249C14.7848 59.0837 15.8335 59.4727 16.9253 59.6749C18.4276 59.9324 19.9517 60.0412 21.4753 59.9999C22.7003 59.9999 23.9753 59.9999 25.1003 59.8249C26.8753 59.6999 28.6503 59.4999 30.4253 59.3499L34.1753 58.9999C36.1447 59.0319 38.1079 58.7708 40.0003 58.2249C41.4427 57.7691 42.6919 56.8453 43.5503 55.5999C44.1239 54.6618 44.4586 53.5974 44.5253 52.4999C44.6139 51.0846 44.6139 49.6651 44.5253 48.2499L43.9753 37.1499C43.9753 35.8499 43.6003 34.4999 43.4253 33.1499C43.4015 32.7335 43.4015 32.3162 43.4253 31.8999C43.8003 32.0749 44.5003 31.2249 44.7503 31.1249C45.6667 30.7124 46.5108 30.1553 47.2503 29.4749C47.8512 28.9216 48.2476 28.1816 48.3753 27.3749C48.464 26.84 48.4036 26.291 48.2008 25.7883C47.9979 25.2855 47.6604 24.8484 47.2253 24.5249Z" fill="black"/>
</g>
<defs>
<clipPath id="clip0_169_5077">
<rect width="60" height="60" fill="white"/>
</clipPath>
</defs>
</svg>
