<svg width="60" height="60" viewBox="0 0 60 60" fill="none" xmlns="http://www.w3.org/2000/svg">
<g clip-path="url(#clip0_118_3344)">
<path fill-rule="evenodd" clip-rule="evenodd" d="M52.7756 41.3C52.2183 40.3424 51.3871 39.5735 50.3891 39.0923C49.3911 38.6111 48.2719 38.4397 47.1756 38.6C46.2679 38.6649 45.3705 38.8327 44.5006 39.1L44.0756 39.275C44.0323 39.0194 43.9654 38.7683 43.8756 38.525C42.5006 35.2 32.0756 30.825 24.9006 31.275C21.8923 31.4453 18.9181 31.9998 16.0506 32.925L13.8756 33.825C11.1506 35.275 9.85058 37.075 12.6256 45.6C13.1989 47.4333 13.9265 49.2146 14.8006 50.925C15.6334 52.8284 16.5767 54.6816 17.6256 56.475C18.1829 57.4042 18.9653 58.178 19.9006 58.725C21.2453 59.3281 22.6821 59.7 24.1506 59.825C26.2256 60.05 28.4256 59.95 30.2506 60C31.0833 60.0442 31.9178 60.0442 32.7506 60C33.2717 59.9327 33.7784 59.7807 34.2506 59.55C35.1715 59.031 36.0134 58.3827 36.7506 57.625C37.7518 56.5669 38.6555 55.4206 39.4506 54.2C39.6756 53.85 39.9006 53.5 40.1006 53.125C40.1381 53.3001 40.2316 53.4582 40.3669 53.5754C40.5022 53.6927 40.672 53.7627 40.8506 53.775C43.2738 54.1246 45.7457 53.8757 48.0506 53.05C49.6943 52.4577 51.1108 51.3647 52.1006 49.925C52.9651 48.6752 53.483 47.2186 53.6016 45.7036C53.7202 44.1885 53.4351 42.6691 52.7756 41.3ZM15.1256 36.05L16.8756 35.2C19.5055 34.1918 22.2522 33.5199 25.0506 33.2C27.9306 33.5163 30.7811 34.0597 33.5756 34.825C34.2357 34.9274 34.8874 35.0778 35.5256 35.275C37.688 35.9329 39.666 37.0888 41.3006 38.65C41.5711 38.9175 41.7392 39.2714 41.7756 39.65C41.7756 40.1 41.3506 40.45 40.6256 40.9L38.7506 41.725C35.9955 42.662 33.1294 43.2336 30.2256 43.425C27.3425 43.6514 24.4418 43.4322 21.6256 42.775C20.9477 42.6046 20.2799 42.3959 19.6256 42.15C18.9585 41.9076 18.3072 41.6237 17.6756 41.3C16.1256 40.525 14.2756 39.3 13.8756 37.925C13.6756 37.25 14.0756 36.65 15.1256 36.05ZM40.3006 45C39.7506 46.625 39.2256 48.225 38.5256 49.775C38.0905 50.7225 37.5806 51.6337 37.0006 52.5C36.3174 53.5679 35.5392 54.572 34.6756 55.5C34.147 56.0659 33.541 56.5541 32.8756 56.95C32.556 57.0699 32.2169 57.1293 31.8756 57.125H30.2256C28.2769 57.2267 26.3243 57.2267 24.3756 57.125C23.1932 57.0975 22.0251 56.8605 20.9256 56.425C20.139 55.9092 19.4943 55.2044 19.0506 54.375C18.0256 52.75 17.1256 50.825 16.5506 49.875C15.6457 48.2755 14.8764 46.603 14.2506 44.875C13.8506 43.75 13.4756 42.6 13.1506 41.45C14.093 42.3472 15.1526 43.1125 16.3006 43.725C17.0261 44.1181 17.7779 44.4605 18.5506 44.75C19.3631 45.0583 20.1992 45.3007 21.0506 45.475C24.1608 46.2074 27.3696 46.4269 30.5506 46.125C33.6936 45.8361 36.7814 45.1125 39.7256 43.975L40.6756 43.5C40.6061 44.0123 40.4804 44.5153 40.3006 45ZM50.3006 48.825C49.388 50.2268 47.9755 51.2281 46.3506 51.625C44.6377 52.1134 42.8481 52.2745 41.0756 52.1C40.9449 52.0625 40.8063 52.0625 40.6756 52.1C40.8756 51.7 41.0506 51.3 41.2256 50.9C41.9256 49.275 42.4756 47.575 43.0506 45.9C43.6256 44.225 42.1006 42.875 45.3506 41.75C46.0181 41.5355 46.7045 41.3848 47.4006 41.3C48.1805 41.143 48.991 41.2845 49.6715 41.6966C50.3521 42.1086 50.8532 42.7612 51.0756 43.525C51.3045 44.395 51.3539 45.3026 51.2206 46.1923C51.0874 47.082 50.7744 47.9352 50.3006 48.7V48.825Z" fill="black"/>
<path fill-rule="evenodd" clip-rule="evenodd" d="M15.2004 12.85C16.4254 13.625 17.7004 14.325 18.9254 15.15C19.4103 15.4637 19.8701 15.8148 20.3004 16.2C21.6673 17.4207 22.729 18.9448 23.4004 20.65C24.0792 22.3501 24.2189 24.2179 23.8004 26C23.7696 26.0952 23.7581 26.1956 23.7667 26.2952C23.7752 26.3949 23.8036 26.4918 23.8502 26.5804C23.8968 26.6689 23.9606 26.7472 24.038 26.8107C24.1153 26.8742 24.2045 26.9215 24.3004 26.95C24.496 27.013 24.7086 26.9956 24.8914 26.9019C25.0742 26.8081 25.2124 26.6456 25.2754 26.45C25.9256 24.3577 25.9256 22.1173 25.2754 20.025C24.6209 17.9587 23.4906 16.0749 21.9754 14.525C21.339 13.8812 20.6536 13.2878 19.9254 12.75C18.9004 12.025 17.8254 11.35 16.8004 10.6C15.2544 9.73272 13.8118 8.69273 12.5004 7.50002C12.1934 7.16566 11.9611 6.76982 11.8189 6.33879C11.6767 5.90776 11.6277 5.4514 11.6754 5.00002C11.6722 4.6517 11.7828 4.31185 11.9904 4.0321C12.1979 3.75235 12.4911 3.54798 12.8254 3.45002C13.7634 3.1778 14.7649 3.22173 15.6754 3.57502C16.2004 3.85002 17.4004 4.77502 17.6254 4.87502C17.8958 5.03656 18.2142 5.09847 18.5254 5.05002C18.9019 4.99827 19.243 4.80077 19.4754 4.50002C19.8405 3.95925 20.2593 3.45671 20.7254 3.00002C21.0958 2.70154 21.5504 2.52668 22.0254 2.50002C22.2124 2.43947 22.41 2.41827 22.6056 2.43777C22.8012 2.45726 22.9907 2.51702 23.1621 2.61329C23.3335 2.70957 23.4832 2.84026 23.6016 2.99717C23.7201 3.15408 23.8048 3.33379 23.8504 3.52502C23.9689 4.03754 23.9789 4.56915 23.8799 5.08578C23.7809 5.6024 23.575 6.09263 23.2754 6.52502C22.9947 6.88325 22.6762 7.21014 22.3254 7.50002C21.3326 8.27377 20.3891 9.10873 19.5004 10C19.3385 10.1678 19.248 10.3919 19.248 10.625C19.248 10.8582 19.3385 11.0822 19.5004 11.25C19.664 11.4103 19.8839 11.5001 20.1129 11.5001C20.3419 11.5001 20.5618 11.4103 20.7254 11.25C21.6754 10.225 22.9004 9.55002 23.9254 8.75002C24.2254 8.45002 24.5004 8.17502 24.7754 7.85002C25.446 7.04047 25.884 6.06388 26.0425 5.02467C26.201 3.98545 26.0741 2.92269 25.6754 1.95002C25.3148 1.2371 24.7318 0.661084 24.0145 0.309222C23.2973 -0.042641 22.4849 -0.151188 21.7004 2.0884e-05C20.9222 0.073481 20.1747 0.339852 19.5254 0.775021C19.0419 1.08783 18.6044 1.46647 18.2254 1.90002L16.7254 1.05002C15.8083 0.659437 14.818 0.470682 13.8216 0.496563C12.8251 0.522445 11.8459 0.762357 10.9504 1.20002C10.2714 1.57406 9.70623 2.12467 9.31456 2.79359C8.92288 3.46252 8.71932 4.22489 8.72539 5.00002C8.70108 5.80973 8.83896 6.61612 9.13091 7.37175C9.42286 8.12739 9.86298 8.817 10.4254 9.40002C11.8717 10.7388 13.4751 11.8973 15.2004 12.85Z" fill="black"/>
<path fill-rule="evenodd" clip-rule="evenodd" d="M34.725 20.5249C34.9 21.0499 35.125 21.5249 35.275 22.0499C35.5017 22.7398 35.6526 23.4524 35.725 24.1749C35.7182 24.2755 35.7318 24.3764 35.7648 24.4716C35.7979 24.5667 35.8499 24.6543 35.9175 24.7289C35.9852 24.8036 36.0672 24.8639 36.1587 24.9062C36.2502 24.9484 36.3492 24.9718 36.45 24.9749C36.6516 24.9889 36.8507 24.9235 37.0048 24.7927C37.1589 24.662 37.2559 24.4762 37.275 24.2749C37.4853 23.239 37.5609 22.1803 37.5 21.1249C37.4225 20.0939 37.2467 19.0726 36.975 18.0749C36.825 17.6499 36.675 17.1749 36.5 16.7499C36.2131 16.1977 36.0028 15.609 35.875 14.9999C35.6882 14.4401 35.6882 13.8348 35.875 13.2749C35.9733 13.1784 36.0474 13.0599 36.0913 12.9293C36.1352 12.7986 36.1476 12.6595 36.1275 12.5231C36.1075 12.3868 36.0554 12.2571 35.9757 12.1446C35.896 12.0322 35.7909 11.9402 35.6689 11.876C35.5469 11.8119 35.4114 11.7776 35.2736 11.7757C35.1358 11.7739 34.9995 11.8046 34.8758 11.8654C34.7521 11.9262 34.6446 12.0154 34.5619 12.1257C34.4792 12.2359 34.4237 12.3642 34.4 12.4999C33.839 13.3066 33.5421 14.2674 33.55 15.2499C33.6123 16.5137 33.8306 17.7648 34.2 18.9749C34.4 19.4999 34.55 19.9999 34.725 20.5249Z" fill="black"/>
<path fill-rule="evenodd" clip-rule="evenodd" d="M11.9751 26.9501C12.0757 26.9569 12.1766 26.9433 12.2717 26.9102C12.3669 26.8771 12.4545 26.8252 12.5291 26.7575C12.6038 26.6899 12.6641 26.6078 12.7063 26.5164C12.7486 26.4249 12.772 26.3258 12.7751 26.2251C13.0252 25.1646 13.0252 24.0606 12.7751 23.0001C12.592 22.2592 12.2788 21.5566 11.8501 20.9251C11.4747 20.4619 11.0653 20.0273 10.6251 19.6251C10.0239 19.2007 9.44787 18.7416 8.90013 18.2501C8.56379 17.9493 8.29168 17.5837 8.10014 17.1751C8.03077 16.9772 7.89266 16.8109 7.71096 16.7063C7.52926 16.6017 7.31604 16.5658 7.11011 16.6052C6.90418 16.6445 6.71923 16.7565 6.58893 16.9208C6.45862 17.085 6.39163 17.2906 6.40013 17.5001C6.56297 18.4002 6.9214 19.2536 7.45013 20.0001C7.77768 20.5135 8.1367 21.0061 8.52513 21.4751C8.85013 21.8501 9.22513 22.2251 9.52513 22.6001C10.074 23.1215 10.5082 23.7516 10.8001 24.4501C11.014 24.9547 11.1651 25.4837 11.2501 26.0251C11.2238 26.135 11.2226 26.2494 11.2466 26.3598C11.2707 26.4703 11.3194 26.5738 11.3891 26.6628C11.4589 26.7517 11.5478 26.8238 11.6492 26.8735C11.7507 26.9233 11.8621 26.9495 11.9751 26.9501Z" fill="black"/>
</g>
<defs>
<clipPath id="clip0_118_3344">
<rect width="60" height="60" fill="white"/>
</clipPath>
</defs>
</svg>
