<svg width="60" height="60" viewBox="0 0 60 60" fill="none" xmlns="http://www.w3.org/2000/svg">
<g clip-path="url(#clip0_169_5082)">
<path d="M45.7505 36.9001C45.3503 37.2263 44.8405 37.3873 44.3255 37.3501C44.1141 37.3712 43.9008 37.3438 43.7015 37.2702C43.5023 37.1966 43.3224 37.0786 43.1755 36.9251C42.9145 36.6324 42.711 36.2931 42.5755 35.9251C42.3955 35.4645 42.2615 34.9871 42.1755 34.5001C42.1755 34.1501 42.1755 33.7751 42.0255 33.4001C42.0329 33.1516 41.9475 32.9093 41.7859 32.7204C41.6243 32.5315 41.3982 32.4095 41.1515 32.3783C40.9049 32.3471 40.6555 32.4088 40.4519 32.5515C40.2484 32.6942 40.1053 32.9076 40.0505 33.1501C40.0144 33.6578 40.0144 34.1674 40.0505 34.6751C40.0088 35.5162 40.0931 36.3589 40.3005 37.1751C40.4747 37.7653 40.745 38.3228 41.1005 38.8251C41.5048 39.3381 42.0279 39.7451 42.6246 40.0107C43.2213 40.2764 43.8737 40.3929 44.5255 40.3501C45.7594 40.2996 46.9251 39.7706 47.7755 38.8751C48.4109 38.0774 48.8325 37.131 49.0005 36.1251C49.0622 35.4599 49.0622 34.7903 49.0005 34.1251C49.0005 32.9251 47.4005 32.5501 47.0505 33.7751C47.0064 34.2116 46.9397 34.6455 46.8505 35.0751C46.6592 35.7732 46.2785 36.4049 45.7505 36.9001Z" fill="black"/>
<path d="M60.0005 16.4249C59.8885 15.825 59.6557 15.2541 59.3162 14.7469C58.9766 14.2398 58.5375 13.807 58.0255 13.4749C56.8755 12.6499 53.0255 11.2499 52.4255 12.0749L51.7505 13.1749C49.7631 10.9356 47.151 9.34224 44.2505 8.59993C40.9968 7.86775 37.5934 8.20984 34.5505 9.57493L32.5005 10.5499C30.5995 11.4954 28.9404 12.8637 27.6505 14.5499C27.1293 15.2793 26.849 16.1534 26.849 17.0499C26.849 17.9464 27.1293 18.8205 27.6505 19.5499C28.4826 20.6144 29.6899 21.3209 31.0255 21.5249C32.685 21.8011 34.3819 21.7586 36.0255 21.3999L37.5005 21.1749C37.1505 21.5749 36.7755 21.9499 36.4505 22.3749C36.0552 22.8825 35.6959 23.4171 35.3755 23.9749C35.0505 24.5249 34.7755 25.0999 34.5005 25.6749C33.9005 26.9999 33.4255 28.3249 32.9505 29.6249H28.5755H23.1505C22.3505 28.1499 21.1005 26.7999 20.2755 25.3249C19.9112 24.6992 19.6973 23.9974 19.6505 23.2749L21.3005 20.7749C21.8137 19.3488 22.0595 17.8402 22.0255 16.3249C22.011 14.7954 21.6967 13.2835 21.1005 11.8749C20.5952 10.6356 19.8076 9.53131 18.8005 8.64993C17.7284 7.70892 16.4102 7.09318 15.0005 6.87493C14.1668 6.72925 13.3107 6.78062 12.5005 7.02493C11.7962 7.25271 11.1831 7.6994 10.7505 8.29993C10.4963 8.65581 10.3727 9.08848 10.4005 9.52493C10.492 10.261 10.721 10.9734 11.0755 11.6249L12.8755 15.3499V15.5249C12.5005 15.5249 11.9505 16.1749 11.7005 16.2999C11.3146 16.5343 10.9137 16.7431 10.5005 16.9249C10.2492 17.0741 9.98053 17.1916 9.70047 17.2749C9.55047 16.9499 9.27547 16.3249 9.15047 16.1249C8.6715 15.1914 8.11979 14.2969 7.50047 13.4499C6.9926 12.8142 6.38465 12.2654 5.70047 11.8249C5.41125 11.6369 5.08226 11.5187 4.7395 11.4796C4.39673 11.4406 4.04958 11.4818 3.72547 11.5999C3.11062 11.8447 2.5562 12.22 2.10047 12.6999C1.35744 13.452 0.786024 14.3561 0.425474 15.3499C0.0179843 16.3466 -0.128301 17.4309 0.00047414 18.4999C0.319031 20.1154 1.09076 21.6068 2.22547 22.7999C3.35081 24.0495 4.90205 24.8341 6.57547 24.9999H9.35047C9.79232 24.9772 10.2323 25.0721 10.6255 25.2749C10.7901 25.3815 10.9341 25.517 11.0505 25.6749C11.3255 26.0499 11.5505 26.4749 11.7505 26.7749L13.8255 30.1999C8.00047 30.8249 4.37547 31.6499 4.27547 31.6499C4.17825 31.636 4.07921 31.6419 3.98434 31.6673C3.88948 31.6928 3.80078 31.7373 3.72363 31.7981C3.64648 31.8589 3.58248 31.9347 3.53553 32.021C3.48857 32.1072 3.45964 32.2021 3.45047 32.2999C3.10047 34.3499 2.70047 36.3499 2.42547 38.3749C2.20995 39.7413 2.06808 41.1183 2.00047 42.4999C1.96567 44.2792 2.05757 46.0587 2.27547 47.8249C2.51445 49.5751 2.84828 51.311 3.27547 53.0249C3.45047 53.6999 3.52547 54.8749 3.77547 55.7999C3.91993 56.3435 4.1848 56.8476 4.55047 57.2749C4.81043 57.5472 5.1259 57.7603 5.47547 57.8999C6.06837 58.0862 6.68073 58.2037 7.30047 58.2499L12.5005 58.6249H22.8505C26.3005 58.6249 29.7505 58.6249 33.2005 58.4499C37.1255 58.2999 41.0255 58.4499 44.9255 58.4499C46.6255 58.4499 48.3505 58.4499 50.0505 58.1749L54.0005 57.7499C54.4744 57.7303 54.9443 57.6548 55.4005 57.5249C55.7079 57.4346 55.9846 57.2617 56.2005 57.0249C56.5684 56.6183 56.8341 56.1298 56.9755 55.5999C57.1138 54.7743 57.1641 53.9362 57.1255 53.0999L57.9005 46.8749C58.0755 44.8249 58.2005 42.6499 58.2255 40.5249C58.2309 39.0712 58.1474 37.6185 57.9755 36.1749C57.9457 35.167 57.7861 34.167 57.5005 33.1999C57.2899 32.629 56.9371 32.1214 56.4755 31.7249C55.614 31.0507 54.6016 30.596 53.5255 30.3999C52.1369 30.1657 50.7333 30.032 49.3255 29.9999L45.4505 29.5249L42.5005 29.4499L43.6255 27.3249C43.8755 26.7999 44.1255 26.2749 44.3505 25.7499C44.5755 25.2249 44.8005 24.6749 44.9755 24.1249C45.3505 22.9499 45.6255 21.7999 46.0005 20.6499C46.4765 20.7853 46.9373 20.9697 47.3755 21.1999C47.1813 21.673 47.047 22.1685 46.9755 22.6749C46.9057 23.1449 46.9485 23.6247 47.1005 24.0749C47.6555 25.4914 48.7278 26.6441 50.1005 27.2999C50.781 27.6897 51.5379 27.9273 52.3191 27.9964C53.1003 28.0654 53.8871 27.9643 54.6255 27.6999C55.5061 27.2938 56.2584 26.654 56.8005 25.8499C57.4589 24.8644 58.0041 23.8077 58.4255 22.6999C58.8907 21.5652 59.2914 20.405 59.6255 19.2249C59.9161 18.3213 60.0431 17.3731 60.0005 16.4249ZM13.2255 25.8749C12.9511 25.3681 12.6507 24.8758 12.3255 24.3999C12.1304 24.1454 11.8937 23.9257 11.6255 23.7499C11.1368 23.4283 10.5809 23.223 10.0005 23.1499C8.95047 22.9999 7.72547 23.1499 6.82547 22.9749C5.68268 22.8008 4.64734 22.2028 3.92547 21.2999C3.14724 20.4056 2.65138 19.3008 2.50047 18.1249C2.43867 17.4821 2.55092 16.8345 2.82547 16.2499C3.06794 15.6252 3.43351 15.0556 3.90047 14.5749C3.90047 14.5749 4.25047 14.4249 4.37547 14.3499C4.69322 14.5884 4.9716 14.8752 5.20047 15.1999C5.72321 15.931 6.19116 16.6998 6.60047 17.4999C6.86187 18.0621 7.16261 18.6051 7.50047 19.1249C7.68604 19.4737 7.95163 19.7736 8.27547 19.9999C8.92659 20.2036 9.62436 20.2036 10.2755 19.9999C11.2573 19.7242 12.1987 19.3208 13.0755 18.7999C13.4255 18.5999 14.2755 18.3249 14.7755 17.9999C15.0907 17.7846 15.3552 17.503 15.5505 17.1749C15.7515 16.8163 15.855 16.4111 15.8505 15.9999C15.8282 15.3939 15.6836 14.7987 15.4255 14.2499L13.5755 10.4749C13.5755 10.3249 13.5755 9.87493 13.3505 9.62493C13.7229 9.56292 14.103 9.56292 14.4755 9.62493C15.3846 9.72339 16.2493 10.0693 16.9755 10.6249C17.7151 11.2431 18.3049 12.0209 18.7005 12.8999C19.208 14.0005 19.4966 15.1892 19.5505 16.3999C19.6618 17.6113 19.543 18.8327 19.2005 19.9999C18.9505 20.7249 18.1005 21.4999 17.7755 22.2749C17.6207 22.6053 17.5275 22.9611 17.5005 23.3249C17.5815 24.3687 17.9255 25.375 18.5005 26.2499C19.2005 27.4499 20.2505 28.5249 21.0005 29.6499C19.4255 29.6499 17.8255 29.7749 16.2505 29.9249L15.5005 29.9999L13.2255 25.8749ZM45.2255 32.0749C47.1255 32.3499 51.6255 32.7249 52.8505 32.9999C53.4918 33.1152 54.0937 33.3904 54.6005 33.7999C54.8404 34.0402 54.9828 34.3608 55.0005 34.6999C55.0005 35.3249 55.1255 35.9749 55.1755 36.4999C55.3222 37.8279 55.3806 39.1642 55.3505 40.4999C55.3505 42.5749 55.1755 44.6499 55.0005 46.6499C55.0005 46.6499 54.2255 53.9499 54.1755 54.4499C54.1888 54.5579 54.1888 54.667 54.1755 54.7749H53.6005L49.7505 55.1999C48.1255 55.3749 46.4755 55.4499 44.7505 55.4999C40.8505 55.4999 36.9255 55.4999 33.0005 55.6999C29.5755 55.8749 26.1505 55.9999 22.7005 56.0999C19.2505 56.1999 15.8255 56.2749 12.4005 56.2999L7.40047 56.1749C7.06748 56.1963 6.73346 56.1963 6.40047 56.1749C6.22737 56.1695 6.06069 56.1081 5.92547 55.9999C5.74909 55.697 5.66239 55.3502 5.67547 54.9999C5.45047 54.1749 5.35047 53.2249 5.20047 52.6499C4.74594 51.0054 4.387 49.3359 4.12547 47.6499C3.86672 45.9957 3.73301 44.3243 3.72547 42.6499C3.73247 41.3212 3.81594 39.994 3.97547 38.6749C4.17547 36.8999 4.47547 35.1499 4.75047 33.3749C9.50047 32.4499 16.3505 31.8999 16.4755 31.8999C16.6005 31.8999 23.6005 31.5749 28.4005 31.8999C32.5005 32.0249 41.1505 31.6999 45.2255 32.0749ZM42.5005 22.9999C42.207 23.5241 41.9481 24.0669 41.7255 24.6249C41.5005 25.1749 41.3255 25.7499 41.1505 26.3249C40.8255 27.3499 40.6005 28.3999 40.3505 29.4499H40.2255C38.4755 29.4499 36.7255 29.4499 34.9755 29.5749C35.5505 28.7249 36.1505 27.8999 36.7505 27.0749L37.7505 25.5249C38.0505 25.0249 38.3505 24.4749 38.6505 23.9499C39.2255 22.8499 39.7505 21.7499 40.3255 20.6999C41.4292 20.4874 42.5516 20.3869 43.6755 20.3999H44.2255C43.591 21.2256 43.0146 22.0944 42.5005 22.9999ZM48.1755 19.5749C46.8155 18.8474 45.3148 18.4211 43.7755 18.3249C40.9987 18.255 38.2228 18.4982 35.5005 19.0499C34.415 19.2149 33.3109 19.2149 32.2255 19.0499C31.806 19.0438 31.3922 18.952 31.0096 18.78C30.6269 18.608 30.2835 18.3596 30.0005 18.0499C29.3755 17.1249 30.0005 16.2749 30.5255 15.5499C31.5011 14.5427 32.6322 13.6986 33.8755 13.0499L35.6505 12.0999C38.1286 10.7712 40.9701 10.28 43.7505 10.6999C46.4314 11.2177 48.8858 12.554 50.7755 14.5249C50.743 14.5969 50.701 14.6642 50.6505 14.7249C50.1255 15.6249 49.6255 16.5499 49.1255 17.4749L48.1755 19.5749ZM57.5005 18.5499C57.1185 19.5996 56.6761 20.6263 56.1755 21.6249C55.8315 22.3667 55.439 23.0849 55.0005 23.7749C54.6849 24.3204 54.2268 24.7698 53.6755 25.0749C53.3238 25.1585 52.9589 25.1705 52.6025 25.1104C52.246 25.0503 51.9053 24.9192 51.6005 24.7249C50.8523 24.4576 50.2291 23.9234 49.8505 23.2249C49.8133 23.0688 49.8133 22.9061 49.8505 22.7499C49.8822 22.4618 49.9408 22.1772 50.0255 21.8999L51.2755 18.3249C51.6505 17.3999 52.0505 16.4749 52.4755 15.5749C52.9005 14.6749 53.1005 14.2749 53.4255 13.6499H53.5755C54.598 13.7898 55.5785 14.1479 56.4505 14.6999C56.8238 14.9006 57.1477 15.182 57.3985 15.5237C57.6494 15.8653 57.8209 16.2586 57.9005 16.6749C57.8712 17.3177 57.736 17.9512 57.5005 18.5499Z" fill="black"/>
<path d="M11.6755 37.225C11.946 37.9566 12.3898 38.6116 12.9689 39.1341C13.548 39.6566 14.2451 40.0309 15.0005 40.225C15.7653 40.375 16.5542 40.3494 17.3077 40.1502C18.0612 39.951 18.7597 39.5833 19.3505 39.075C19.6439 38.819 19.9195 38.5434 20.1755 38.25C20.4367 37.9459 20.6709 37.6197 20.8755 37.275C21.3216 36.5135 21.5788 35.6563 21.6255 34.775C21.663 34.1672 21.663 33.5578 21.6255 32.95C21.3255 31.875 19.7755 32.25 19.6755 32.95C19.6682 33.4464 19.6095 33.9407 19.5005 34.425C19.4043 34.9614 19.1814 35.467 18.8505 35.9L17.6755 36.925C17.3939 37.1492 17.0671 37.31 16.7176 37.3963C16.3681 37.4826 16.0041 37.4924 15.6505 37.425C15.3023 37.3636 14.9728 37.2236 14.6868 37.0156C14.4009 36.8077 14.1662 36.5373 14.0005 36.225C13.6044 35.5882 13.3566 34.8705 13.2755 34.125C13.263 33.9002 13.263 33.6748 13.2755 33.45C13.1875 33.2535 13.0385 33.0907 12.8505 32.9857C12.6626 32.8807 12.4458 32.8391 12.2324 32.8672C12.0189 32.8953 11.8203 32.9915 11.6659 33.1416C11.5115 33.2916 11.4097 33.4874 11.3755 33.7C11.3645 33.8581 11.3645 34.0169 11.3755 34.175C11.2645 35.2015 11.3666 36.2398 11.6755 37.225Z" fill="black"/>
<path d="M2.07539 9.35005C2.17456 9.36404 2.27555 9.35733 2.37199 9.33035C2.46844 9.30336 2.55825 9.25669 2.63576 9.19328C2.71327 9.12986 2.7768 9.05107 2.82235 8.96188C2.86789 8.87268 2.89447 8.77502 2.90039 8.67505C2.90039 8.12505 2.90039 7.42505 3.12539 6.77505C3.15625 6.45248 3.26803 6.14291 3.45039 5.87505C3.68832 5.55035 4.01979 5.30612 4.40039 5.17505C5.12178 4.94251 5.86908 4.79977 6.62539 4.75005L14.3004 4.15005L21.1004 3.65005C22.6004 3.65005 24.1004 3.50005 25.5754 3.52505C29.7004 3.52505 33.8254 3.85005 38.0754 3.95005H43.4504L46.0754 3.80005C47.9585 3.57465 49.8591 3.53279 51.7504 3.67505C52.2432 3.69481 52.7254 3.82396 53.1621 4.05313C53.5989 4.2823 53.9791 4.60575 54.2754 5.00005C54.4947 5.42889 54.6304 5.89551 54.6754 6.37505C54.7626 7.2061 54.7626 8.044 54.6754 8.87505C54.6615 9.10317 54.7375 9.32766 54.887 9.50051C55.0365 9.67337 55.2477 9.78088 55.4754 9.80005C55.5871 9.80681 55.699 9.79146 55.8047 9.75489C55.9104 9.71831 56.0079 9.66122 56.0915 9.5869C56.1751 9.51258 56.2432 9.42248 56.2919 9.32178C56.3407 9.22107 56.369 9.11174 56.3754 9.00005C56.4757 8.06105 56.4757 7.11405 56.3754 6.17505C56.3143 5.48065 56.1279 4.80306 55.8254 4.17505C55.5298 3.64743 55.1286 3.18642 54.6468 2.8208C54.165 2.45518 53.6131 2.1928 53.0254 2.05005C50.6769 1.60781 48.276 1.51514 45.9004 1.77505H43.4004H38.1254C33.9754 1.62505 29.8504 1.35005 25.6254 1.30005C24.1087 1.30005 22.5587 1.35005 20.9754 1.45005C18.6754 1.65005 16.4004 1.92505 14.1504 2.12505L6.37539 3.00005C5.51675 3.0894 4.67507 3.29982 3.87539 3.62505C3.16477 3.89293 2.55379 4.37298 2.12539 5.00005C1.88472 5.36503 1.71509 5.77216 1.62539 6.20005C1.50293 7.02843 1.42781 7.86312 1.40039 8.70005C1.42652 8.86722 1.50664 9.02126 1.62852 9.13862C1.7504 9.25599 1.90735 9.33025 2.07539 9.35005Z" fill="black"/>
</g>
<defs>
<clipPath id="clip0_169_5082">
<rect width="60" height="60" fill="white"/>
</clipPath>
</defs>
</svg>
