<svg width="60" height="60" viewBox="0 0 60 60" fill="none" xmlns="http://www.w3.org/2000/svg">
<path d="M9.59984 27.85H12.0998L15.7498 27.5C16.523 27.5244 17.2961 27.4488 18.0498 27.275C18.5321 27.1339 18.9764 26.8861 19.3498 26.55C20.0638 25.8429 20.4987 24.902 20.5748 23.9C20.6197 22.2702 20.5277 20.6394 20.2998 19.025L19.9998 11.9C19.9551 11.061 19.8549 10.2258 19.6998 9.39999C19.5091 8.70629 19.1772 8.05945 18.7248 7.49999C18.5109 7.20931 18.2271 6.97717 17.8998 6.82499C17.4453 6.61084 16.967 6.45139 16.4748 6.34999C16.2498 6.34999 16.0248 6.34999 15.8998 6.17499L15.2748 4.07499C14.9943 3.61016 14.5614 3.25681 14.0498 3.07499C11.9804 2.70132 9.87183 2.59211 7.77484 2.74999C7.3682 2.80325 6.98287 2.96312 6.65796 3.21339C6.33306 3.46365 6.08013 3.79541 5.92484 4.17499L5.72484 6.22499C5.29984 6.67499 4.62484 6.72499 4.07484 7.02499C3.66482 7.24791 3.31353 7.56492 3.04984 7.94999C2.63657 8.57778 2.33229 9.27086 2.14984 9.99999C1.96232 11.0151 1.85366 12.0431 1.82484 13.075L1.54984 18.475V23.475C1.52708 24.1243 1.60294 24.7734 1.77484 25.4C1.93176 25.8366 2.1886 26.2304 2.52484 26.55C2.89559 26.8766 3.3296 27.1234 3.79984 27.275C4.56688 27.4793 5.35614 27.5885 6.14984 27.6C7.29984 27.7 8.44984 27.8 9.59984 27.85ZM4.32484 10.5C4.41274 10.0088 4.58171 9.53571 4.82484 9.09999C5.22484 8.47499 5.97484 8.42499 6.52484 8.07499C6.7835 7.91642 7.01905 7.72293 7.22484 7.49999C7.38542 7.21648 7.47945 6.90018 7.49984 6.57499V4.74999C7.49984 4.32499 7.99984 4.42499 8.42484 4.37499C9.87219 4.31264 11.3221 4.40483 12.7498 4.64999C13.0248 4.64999 13.3248 4.64999 13.4248 4.97499C13.5811 5.4524 13.6736 5.94836 13.6998 6.44999C13.8001 6.8126 13.9699 7.15225 14.1998 7.44999C14.4284 7.74077 14.7305 7.96518 15.0748 8.09999C15.4314 8.24643 15.7993 8.36348 16.1748 8.44999C16.4283 8.48518 16.6643 8.59883 16.8498 8.77499C17.1509 9.06513 17.3744 9.42615 17.4998 9.82499C17.5719 10.5566 17.5719 11.2934 17.4998 12.025V13.75C16.0241 13.5547 14.5383 13.4462 13.0498 13.425H10.9248C10.2183 13.4723 9.51635 13.5726 8.82484 13.725C7.22484 14.025 5.69984 14.45 4.12484 14.75V13.175C4.11592 12.2793 4.18283 11.3844 4.32484 10.5ZM4.57484 24.4C4.57484 23.4 4.22484 18.475 4.22484 18.475V16.475C6.14464 16.6483 8.07308 16.7067 9.99984 16.65C11.1248 16.65 12.2248 16.425 13.3248 16.275C14.4248 16.125 16.2248 15.775 17.6998 15.65V19.15C17.6998 20.125 17.9498 21.65 17.8748 23.05C17.9372 23.5633 17.8032 24.0813 17.4998 24.5H15.7498L11.9998 24.75L6.47484 24.5C6.04184 24.5238 5.60785 24.5238 5.17484 24.5C4.96949 24.5211 4.76224 24.4866 4.57484 24.4Z" fill="black"/>
<path d="M46.8499 11.7249L47.7499 9.84995L49.0999 7.34995C49.1841 7.26881 49.2495 7.17019 49.2915 7.06105C49.3334 6.9519 49.351 6.83488 49.3429 6.71823C49.3347 6.60157 49.3011 6.48812 49.2444 6.38586C49.1877 6.28359 49.1092 6.19501 49.0146 6.12634C48.9199 6.05767 48.8114 6.01059 48.6965 5.9884C48.5817 5.96622 48.4635 5.96948 48.35 5.99795C48.2366 6.02641 48.1308 6.0794 48.0401 6.15318C47.9494 6.22695 47.8759 6.31972 47.8249 6.42495L45.9499 8.92495L44.6999 10.6749L43.8749 11.9249C43.5473 12.3299 43.3543 12.827 43.3229 13.3469C43.2915 13.8668 43.4233 14.3836 43.6999 14.8249C44.1341 15.4326 44.7894 15.8455 45.5249 15.9749C46.6135 16.0899 47.7113 16.0899 48.7999 15.9749C48.8337 16.512 48.7483 17.0498 48.5499 17.5499C48.0749 19.0249 47.1999 20.5749 46.7749 21.6249C46.6721 21.8404 46.6592 22.0879 46.7389 22.313C46.8186 22.538 46.9844 22.7222 47.1999 22.8249C47.4154 22.9277 47.6629 22.9407 47.8879 22.861C48.113 22.7813 48.2971 22.6154 48.3999 22.3999C49.4313 20.8381 50.3422 19.2001 51.1249 17.4999C51.5416 16.5377 51.6209 15.4629 51.3499 14.4499C51.2676 14.1678 51.1241 13.9073 50.9296 13.6869C50.7352 13.4666 50.4946 13.2918 50.2249 13.1749C49.6082 12.9974 48.9651 12.9297 48.3249 12.9749H46.2749L46.8499 11.7249Z" fill="black"/>
<path d="M14.6749 44.425C14.8106 44.6459 14.8694 44.9053 14.8423 45.1631C14.8152 45.4208 14.7036 45.6623 14.5249 45.85C13.5369 46.3621 12.4584 46.6763 11.3499 46.7751C10.0431 46.864 8.73176 46.864 7.42494 46.7751C6.87494 47.0751 6.74994 47.575 7.17494 48.3C8.99994 49.25 17.1749 50.375 17.7999 45.425C17.8857 44.7853 17.8015 44.1342 17.5557 43.5374C17.31 42.9405 16.9113 42.4189 16.3999 42.0251C15.4562 41.4816 14.3889 41.1889 13.2999 41.175C11.6749 41.175 10.4249 41.1751 8.99994 41.3251C8.09994 41.4751 7.82494 43.05 8.47494 43.175C10.5997 43.2183 12.6995 43.6416 14.6749 44.425Z" fill="black"/>
<path d="M47.5 46.1751C46.3911 46.0962 45.3103 45.7898 44.325 45.2751C44.075 45.1501 44.05 44.8251 44.025 44.5501C44 44.2751 44.025 44.0001 44.2 43.8501C44.6886 43.502 45.2551 43.2788 45.85 43.2001C47.325 42.9001 48.675 42.7251 50.05 42.5251C50.1748 42.3848 50.2588 42.2129 50.2926 42.0282C50.3264 41.8434 50.3088 41.6529 50.2418 41.4775C50.1747 41.3021 50.0607 41.1484 49.9122 41.0334C49.7638 40.9183 49.5866 40.8463 49.4 40.8251C48.1212 40.6857 46.8362 40.6106 45.55 40.6001C44.461 40.614 43.3937 40.9066 42.45 41.4501C41.9366 41.8422 41.5365 42.3636 41.2906 42.9609C41.0446 43.5583 40.9616 44.2102 41.05 44.8501C41.1053 45.4873 41.3228 46.0997 41.6816 46.6292C42.0404 47.1587 42.5286 47.5876 43.1 47.8751C44.2131 48.2871 45.3882 48.5069 46.575 48.5251C47.9935 48.5345 49.4067 48.3495 50.775 47.9751C51.25 47.6001 51.4 46.4751 50.5 46.2751C49.4989 46.2992 48.4972 46.2658 47.5 46.1751Z" fill="black"/>
<path d="M54.5996 48.0999C54.3996 46.6499 54.2246 45.2249 53.9246 43.7999C53.7449 42.8188 53.5027 41.8502 53.1996 40.8999C52.8496 39.7999 52.5996 38.1999 51.3996 37.3999C50.1996 36.5999 48.1246 36.4999 46.6996 35.7499C45.2746 34.9999 46.1246 34.8749 43.5246 26.8249C43.2685 25.9513 42.9075 25.1118 42.4496 24.3249C42.1697 23.8699 41.7725 23.4985 41.2996 23.2499C39.5746 22.2499 32.7496 22.4999 30.6996 22.4999C28.6496 22.4999 26.2746 22.4999 24.9996 22.6249C24.7918 22.6378 24.5972 22.7312 24.4572 22.8853C24.3171 23.0393 24.2427 23.2419 24.2496 23.4499C24.2527 23.5539 24.2768 23.6563 24.3203 23.7508C24.3638 23.8453 24.4259 23.93 24.5029 24C24.5799 24.07 24.6702 24.1238 24.7684 24.1581C24.8666 24.1925 24.9707 24.2067 25.0746 24.1999H30.5996C32.7746 24.1999 34.9746 24.1999 36.1246 24.3749C37.2746 24.5499 37.8996 24.3749 38.8246 24.5499C39.3126 24.6081 39.7866 24.752 40.2246 24.9749C40.4546 25.1345 40.6293 25.3617 40.7246 25.6249C40.9966 26.238 41.2141 26.8738 41.3746 27.5249L43.4746 35.7499L40.9746 35.4499C39.6746 35.4499 37.7246 35.1249 35.4246 35.0249H31.7246H27.5496C23.5996 35.1749 19.8746 35.4749 17.8246 35.6499C17.5925 35.6499 17.3699 35.7421 17.2059 35.9062C17.0418 36.0703 16.9496 36.2929 16.9496 36.5249C16.9496 36.757 17.0418 36.9796 17.2059 37.1437C17.3699 37.3078 17.5925 37.3999 17.8246 37.3999C19.8496 37.3999 23.5496 37.6749 27.4746 37.8249H31.6246H35.3246C37.5996 37.8249 39.5496 37.5999 40.8496 37.5499H44.8246C46.4842 38.1171 48.1044 38.7936 49.6746 39.5749C49.8379 39.7465 49.9429 39.9652 49.9746 40.1999C50.6988 43.1448 51.225 46.1348 51.5496 49.1499C51.5496 50.1999 51.5496 50.3999 50.4746 50.4999L47.9746 50.7249C45.9746 50.9499 43.9996 51.0749 41.9996 51.1499C39.4996 51.1499 39.3496 51.1499 22.4996 51.3749C18.487 51.454 14.473 51.3205 10.4746 50.9749C8.77457 50.7999 6.64957 51.1249 6.52457 49.7999C6.52457 49.1499 7.14957 44.2999 7.14957 44.2249C7.46566 42.5197 7.93421 40.8464 8.54957 39.2249C9.67457 38.4499 11.6496 38.3249 12.9996 37.5749C13.4437 37.4024 13.8493 37.1434 14.1926 36.813C14.5359 36.4825 14.8102 36.0872 14.9996 35.6499L16.2746 31.7249C16.3138 31.6151 16.3306 31.4984 16.3241 31.3819C16.3176 31.2654 16.2878 31.1514 16.2365 31.0466C16.1853 30.9418 16.1136 30.8483 16.0257 30.7715C15.9378 30.6948 15.8354 30.6365 15.7246 30.5999C15.5023 30.5276 15.2607 30.5446 15.0507 30.6472C14.8408 30.7499 14.679 30.9301 14.5996 31.1499L13.1496 34.9999C12.5996 36.5749 9.09957 36.5749 7.54957 37.6249C7.16041 37.9049 6.84336 38.2734 6.62457 38.6999C6.31147 39.4188 6.06055 40.1632 5.87457 40.9249C5.57457 41.8749 5.34957 42.8499 5.14957 43.7999C4.87457 45.2249 4.67457 46.6499 4.47457 48.0999C4.37306 48.8465 4.37306 49.6034 4.47457 50.3499C4.55988 51.0715 4.91759 51.7333 5.47457 52.1999C6.32588 52.8462 7.3564 53.213 8.42457 53.2499C7.37457 57.1999 9.12457 59.4499 13.0746 59.5999C14.569 59.6972 16.0561 59.321 17.3246 58.5249C17.8997 58.0622 18.3186 57.4338 18.5246 56.7249C18.7448 55.8344 18.8291 54.9157 18.7746 53.9999C20.0996 53.9999 21.2746 54.1249 22.7246 54.1249H36.1996H38.6996C38.6996 54.1249 38.5746 54.1249 38.5746 54.3499C38.3381 55.1019 38.3207 55.9057 38.5243 56.6672C38.728 57.4287 39.1443 58.1164 39.7246 58.6499C40.9386 59.5383 42.4223 59.9799 43.9246 59.8999C44.7022 59.8937 45.4756 59.7844 46.2246 59.5749C46.8415 59.3704 47.3992 59.0186 47.8496 58.5499C48.4663 57.8556 48.8356 56.9764 48.8996 56.0499C48.9553 55.21 48.8794 54.3665 48.6746 53.5499C49.7325 53.5213 50.7862 53.4043 51.8246 53.1999C52.4656 53.0417 53.0634 52.7428 53.5746 52.3249C54.0544 51.9294 54.4031 51.3977 54.5746 50.7999C54.7507 49.9093 54.7592 48.9937 54.5996 48.0999ZM14.8496 56.5499C9.77457 57.4999 9.99957 55.2999 9.99957 53.4499C11.0746 53.5749 12.4996 53.7749 15.1746 53.9499H16.7996C16.4496 56.3749 15.8746 56.3499 14.8496 56.5499ZM46.7746 55.3499C46.6706 55.8639 46.3758 56.3195 45.9496 56.6249C45.7064 56.7935 45.4202 56.8889 45.1246 56.8999C44.6749 56.9258 44.2242 56.9258 43.7746 56.8999C43.1045 57.0152 42.4197 57.0152 41.7496 56.8999C41.43 56.8388 41.1299 56.7016 40.8746 56.4999C40.6541 56.2393 40.4893 55.9362 40.3904 55.6095C40.2915 55.2827 40.2606 54.9391 40.2996 54.5999C40.3087 54.4324 40.265 54.2663 40.1746 54.1249H43.4996C44.5996 54.1249 45.7746 53.9499 46.8996 53.8499C46.8956 54.3524 46.8539 54.8538 46.7746 55.3499Z" fill="black"/>
<path d="M58.3247 4.025C58.2041 3.0366 57.8623 2.0881 57.3247 1.25C57.0331 0.816975 56.6 0.498807 56.0997 0.35C55.5284 0.20419 54.9385 0.145196 54.3497 0.175L48.6997 0H44.4997L41.9997 0.25L39.9997 0.55C39.371 0.683272 38.7912 0.987048 38.3237 1.42803C37.8563 1.86901 37.5193 2.43017 37.3496 3.05C37.0768 4.44913 36.9927 5.87853 37.0996 7.3V14.3C37.1327 14.4848 37.2297 14.6521 37.3737 14.7726C37.5176 14.8931 37.6994 14.9591 37.8872 14.9591C38.0749 14.9591 38.2567 14.8931 38.4006 14.7726C38.5446 14.6521 38.6416 14.4848 38.6746 14.3L38.8747 7.425C38.848 6.19459 38.991 4.96638 39.2996 3.775C39.401 3.53619 39.5625 3.32773 39.7684 3.16999C39.9744 3.01224 40.2177 2.91061 40.4746 2.875L42.0747 2.75H44.5747L48.5996 3.075L54.9997 3.125C55.1997 3.125 55.2997 4.325 55.3747 5.125C55.5247 6.7 55.3747 8.45 55.3747 9.575L55.6997 28.775C55.6779 28.904 55.6846 29.0362 55.7192 29.1624C55.7538 29.2886 55.8155 29.4057 55.8999 29.5056C55.9844 29.6055 56.0897 29.6858 56.2084 29.7409C56.327 29.796 56.4563 29.8245 56.5872 29.8245C56.718 29.8245 56.8473 29.796 56.9659 29.7409C57.0846 29.6858 57.1899 29.6055 57.2744 29.5056C57.3589 29.4057 57.4205 29.2886 57.4551 29.1624C57.4897 29.0362 57.4964 28.904 57.4747 28.775C57.5997 24.3 57.8997 19.825 58.0747 15.35C58.0747 13.4 58.2247 11.45 58.2247 9.525C58.3803 7.69593 58.4137 5.85852 58.3247 4.025Z" fill="black"/>
</svg>
