<svg width="60" height="60" viewBox="0 0 60 60" fill="none" xmlns="http://www.w3.org/2000/svg">
<g clip-path="url(#clip0_169_5127)">
<path fill-rule="evenodd" clip-rule="evenodd" d="M59.2003 20.1501C56.7003 12.0251 55.7253 10 53.8503 9.02505C50.1006 8.39287 46.3027 8.09171 42.5003 8.12505C42.3503 4.27505 49.2503 1.85005 49.5253 5.87505C49.5253 6.09385 49.6122 6.3037 49.7669 6.45841C49.9216 6.61313 50.1315 6.70005 50.3503 6.70005C50.5691 6.70005 50.7789 6.61313 50.9336 6.45841C51.0883 6.3037 51.1753 6.09385 51.1753 5.87505C51.6503 -1.24995 39.0503 0.87505 39.9753 8.07505H28.4003C28.5195 7.07144 28.9245 6.1232 29.5672 5.34317C30.2098 4.56313 31.063 3.98413 32.0253 3.67505C36.7253 2.05005 37.0253 7.22505 38.4753 5.65005C38.5531 5.57329 38.6149 5.48183 38.6571 5.38097C38.6993 5.28012 38.7211 5.17188 38.7211 5.06255C38.7211 4.95322 38.6993 4.84498 38.6571 4.74413C38.6149 4.64327 38.5531 4.5518 38.4753 4.47505C37.8888 3.12108 36.8297 2.02681 35.4956 1.39655C34.1615 0.766295 32.6435 0.643128 31.2253 1.05005C29.6886 1.40029 28.3158 2.26066 27.3306 3.49096C26.3455 4.72126 25.806 6.24894 25.8003 7.82505C25.8003 8.15005 26.9003 7.82505 12.8503 8.10005C12.8503 6.07505 15.3503 4.70005 17.2003 3.55005C17.7787 3.18008 18.4704 3.02932 19.1503 3.12505C21.4253 3.55005 23.7003 7.15005 23.7003 4.57505C23.7003 3.70005 21.7753 2.07505 20.5003 1.35005C19.8024 0.998378 19.0318 0.815193 18.2503 0.815193C17.4688 0.815193 16.6982 0.998378 16.0003 1.35005C12.9003 2.85005 10.0003 4.70005 10.2253 8.17505C6.52526 8.27505 7.12526 7.65005 5.00026 16.85C3.15026 24.725 2.50026 32.5001 1.25026 40.5001C0.800264 53.6501 -1.24974 42.2251 1.25026 58.0001C1.25026 58.2189 1.33718 58.4287 1.4919 58.5834C1.64662 58.7381 1.85646 58.8251 2.07526 58.8251C2.29407 58.8251 2.50391 58.7381 2.65863 58.5834C2.81334 58.4287 2.90026 58.2189 2.90026 58.0001C3.29031 55.6661 3.15365 53.2744 2.50026 51C6.1449 51.4087 9.82082 51.4589 13.4753 51.15C34.1753 48.65 35.0253 50.275 51.4253 35.3C53.4253 33.5 52.4253 34.6 53.0503 34.05C53.6753 33.5 53.5253 33.725 54.2503 26.725C54.9028 22.8427 55.3534 18.9291 55.6003 15C56.8649 17.9677 57.7065 21.0983 58.1003 24.3C57.5007 31.8192 56.0326 39.2436 53.7253 46.425C53.2459 49.5119 52.5185 52.5551 51.5503 55.525C51.2253 53.65 52.2253 55.2001 50.5003 50.7001C50.3503 49.7001 50.1253 52.525 52.6003 39.525C52.6282 39.42 52.6351 39.3105 52.6207 39.2027C52.6063 39.095 52.5708 38.9911 52.5162 38.8971C52.4617 38.8031 52.3891 38.7208 52.3027 38.6548C52.2164 38.5888 52.1178 38.5405 52.0128 38.5125C51.9077 38.4846 51.7982 38.4777 51.6904 38.4921C51.5827 38.5065 51.4789 38.542 51.3848 38.5966C51.2908 38.6512 51.2085 38.7237 51.1425 38.8101C51.0765 38.8965 51.0282 38.995 51.0003 39.1L48.5003 47.05C47.0003 51.675 34.7503 47.75 34.3503 50.525C34.3297 50.6243 34.3303 50.7268 34.3518 50.8258C34.3733 50.9248 34.4154 51.0183 34.4753 51.1C35.1753 52.0001 46.7753 52 46.9753 52C48.9003 52 48.6753 51.1001 48.5003 52.6001C48.5478 53.9112 48.8716 55.1976 49.4503 56.375C44.1753 57.125 5.15026 57.05 4.95026 57.05C4.73146 57.05 4.52162 57.137 4.3669 57.2917C4.21218 57.4464 4.12526 57.6562 4.12526 57.875C4.12526 58.0939 4.21218 58.3037 4.3669 58.4584C4.52162 58.6131 4.73146 58.7 4.95026 58.7C10.3503 58.7 15.9503 59.15 21.5503 59.225H49.5003C51.5503 59.05 52.8753 60.8501 54.6253 55.1001C55.4253 52.6001 55.7003 49.5501 56.3003 47.1501C57.9753 39.875 60.1003 31.9 59.9503 24.35C59.891 22.9226 59.6387 21.5098 59.2003 20.1501ZM37.5003 42.975C32.7285 46.0623 27.2057 47.7909 21.5253 47.975C25.6089 45.2484 29.145 41.7801 31.9503 37.75C34.0753 34.875 36.1503 32.6 36.2503 30.75C36.2503 31.55 38.6003 33.875 49.7503 34.5C45.9596 37.7263 41.8559 40.5654 37.5003 42.975ZM53.5253 13.8251C53.4228 18.066 53.0806 22.2978 52.5003 26.5C51.8503 33.325 52.7253 33.125 49.2253 32.675C45.8976 32.3725 42.6529 31.466 39.6503 30C37.8753 28.825 36.2003 27.275 34.6503 29.125C34.2253 29.675 33.9003 30.6 33.6003 31.05C29.0753 36.95 24.1503 43.9501 17.1753 47.5751C13.1503 49.7501 4.67526 49.625 1.42526 49.275C3.50026 40.9 3.17526 33.45 9.12526 11.0001C9.87526 10.8501 9.12526 10.8501 10.9753 10.8001C11.3185 11.7408 11.8535 12.6 12.5464 13.323C13.2393 14.0461 14.0749 14.6172 15.0003 15C15.176 15.0796 15.3761 15.0861 15.5566 15.0181C15.7371 14.9502 15.8832 14.8133 15.9628 14.6375C16.0423 14.4618 16.0488 14.2617 15.9809 14.0812C15.9129 13.9007 15.776 13.7546 15.6003 13.675C14.4814 13.0431 13.6488 12.0046 13.2753 10.775L26.3753 10.625C26.982 11.801 27.8346 12.8327 28.8753 13.65C29.3377 13.8044 29.8378 13.8044 30.3003 13.65C31.5003 13.1 30.6003 11.675 29.7503 12.225C29.3846 11.7224 29.0665 11.1868 28.8003 10.625H40.8253C41.3938 11.6008 42.0286 12.5363 42.7253 13.425C42.9287 13.601 43.1694 13.7284 43.4292 13.7977C43.6891 13.867 43.9613 13.8764 44.2253 13.8251C44.3893 13.7486 44.5226 13.6188 44.6033 13.4568C44.684 13.2948 44.7074 13.1102 44.6697 12.9332C44.632 12.7562 44.5354 12.5972 44.3956 12.4822C44.2559 12.3672 44.0812 12.303 43.9003 12.3001L43.1003 10.625C55.7753 10.725 53.4753 10.7501 53.5253 13.8251Z" fill="black"/>
<path fill-rule="evenodd" clip-rule="evenodd" d="M20.0004 39.6001C17.5004 40.2001 14.1254 39.2751 7.50038 41.5251C6.57538 41.5251 6.25038 42.5001 7.25038 42.8501C7.36462 42.9004 7.48807 42.9263 7.61288 42.9263C7.73769 42.9263 7.86114 42.9004 7.97538 42.8501C9.42538 42.8501 10.8504 43.0251 12.8004 42.8501C15.4241 42.6084 18.0001 41.9939 20.4504 41.0251C20.5658 40.9189 20.6486 40.782 20.689 40.6305C20.7294 40.479 20.7258 40.319 20.6785 40.1695C20.6313 40.0199 20.5424 39.8869 20.4223 39.7861C20.3022 39.6853 20.1559 39.6207 20.0004 39.6001Z" fill="black"/>
<path fill-rule="evenodd" clip-rule="evenodd" d="M23.9507 24.5C22.6007 24.7 19.1757 24.25 16.0757 24.5C14.6757 24.675 13.5757 24.95 12.6257 25.1C9.82574 25.575 10.1257 26.275 11.0257 26.6C15.4401 27.5079 20.0111 27.3017 24.3257 26C24.4644 25.9047 24.5707 25.7694 24.6303 25.6121C24.6899 25.4547 24.7 25.2829 24.6592 25.1197C24.6184 24.9565 24.5286 24.8097 24.402 24.6989C24.2754 24.5881 24.1179 24.5187 23.9507 24.5Z" fill="black"/>
<path fill-rule="evenodd" clip-rule="evenodd" d="M8.7248 32.9001C8.52102 32.8997 8.32476 32.977 8.17609 33.1164C8.02742 33.2558 7.93754 33.4467 7.9248 33.6501C7.9248 34.2751 8.0748 34.8501 12.9248 34.6751C17.7748 34.5001 28.3998 33.1751 28.3998 32.6251C28.3998 30.0001 8.2998 32.9751 8.7248 32.9001Z" fill="black"/>
<path fill-rule="evenodd" clip-rule="evenodd" d="M48.2998 20.5C43.7998 18.85 25.7998 18 27.5748 20.5C28.0498 21.2 27.3998 20.5 33.2998 21.3C36.7847 21.6991 40.2936 21.8494 43.7998 21.75C50.5498 22.775 49.5248 20.925 48.2998 20.5Z" fill="black"/>
</g>
<defs>
<clipPath id="clip0_169_5127">
<rect width="60" height="60" fill="white"/>
</clipPath>
</defs>
</svg>
