<svg width="60" height="60" viewBox="0 0 60 60" fill="none" xmlns="http://www.w3.org/2000/svg">
<g clip-path="url(#clip0_161_6932)">
<path fill-rule="evenodd" clip-rule="evenodd" d="M58.9747 18.2249C57.4997 12.6749 56.9247 10.3249 55.9497 9.84988C53.9497 8.87488 48.8747 12.7249 47.9497 13.9499C47.0247 15.1749 33.8997 49.8499 33.2997 52.4999C32.8654 53.9486 33.0245 55.5106 33.7418 56.8421C34.4591 58.1736 35.676 59.1656 37.1247 59.5999C38.5735 60.0342 40.1354 59.8752 41.4669 59.1578C42.7984 58.4405 43.7904 57.2236 44.2247 55.7749C44.3308 55.6058 44.3654 55.4015 44.3209 55.2069C44.2763 55.0124 44.1563 54.8435 43.9872 54.7374C43.8182 54.6313 43.6139 54.5967 43.4193 54.6413C43.2247 54.6858 43.0558 54.8058 42.9497 54.9749C41.9997 56.1749 41.8497 56.4249 40.6997 56.7749C39.8105 56.9276 38.8967 56.844 38.0499 56.5325C37.2031 56.221 36.453 55.6925 35.8747 54.9999C35.3381 53.6686 35.3381 52.1812 35.8747 50.8499C37.8497 51.6249 42.6497 53.2249 43.9247 53.7749C44.0265 53.8209 44.1363 53.8464 44.248 53.8499C44.3596 53.8535 44.4708 53.835 44.5753 53.7955C44.6798 53.756 44.7755 53.6964 44.8569 53.6199C44.9383 53.5434 45.0038 53.4517 45.0497 53.3499C45.6497 51.9749 43.4247 52.0749 36.6247 49.0499C36.3997 49.0499 36.3497 49.7249 48.7247 19.3499C50.4418 21.0942 52.7773 22.0913 55.2247 22.1249C52.4997 30.3749 45.8747 47.7999 44.9997 49.9999C44.6497 50.9999 46.1497 51.0999 46.1497 51.0999C46.1497 51.0999 58.1497 22.4999 58.9497 19.2249C59.0472 18.8998 59.0559 18.5545 58.9747 18.2249ZM49.4247 17.4999C49.6596 16.8781 49.9266 16.2689 50.2247 15.6749C51.4594 14.4392 52.897 13.4245 54.4747 12.6749C56.8247 19.5749 56.3997 18.9999 55.8497 20.1749C53.8116 19.0525 51.6572 18.1555 49.4247 17.4999Z" fill="black"/>
<path fill-rule="evenodd" clip-rule="evenodd" d="M27.4996 55.9499C23.2967 56.8087 19.0481 57.4264 14.7746 57.7999C14.7746 51.0499 14.0496 55.6999 11.4246 23.2499C10.8496 16.0749 9.94961 8.24992 9.52461 5.49992C15.4614 4.36749 21.4659 3.62424 27.4996 3.27492C31.7019 2.54992 35.9973 2.54992 40.1996 3.27492C42.9996 4.07492 42.8746 7.94992 43.4996 11.0749C43.5193 11.1734 43.5582 11.2671 43.6141 11.3505C43.67 11.434 43.7418 11.5056 43.8253 11.5613C43.9089 11.617 44.0026 11.6557 44.1012 11.6752C44.1997 11.6947 44.3011 11.6946 44.3996 11.6749C44.4981 11.6552 44.5917 11.6163 44.6752 11.5604C44.7587 11.5045 44.8303 11.4328 44.886 11.3492C44.9417 11.2656 44.9804 11.1719 44.9999 11.0734C45.0194 10.9748 45.0193 10.8734 44.9996 10.7749C44.4246 7.34992 44.9996 2.67492 40.9246 1.09992C36.2246 -0.625077 31.8246 0.149923 27.2746 0.399923C23.4799 0.619244 19.7092 1.14597 15.9996 1.97492C13.1244 2.49281 10.2852 3.19425 7.49961 4.07492C6.3959 4.26907 5.30281 4.51939 4.22461 4.82492C3.49961 5.29992 3.67461 5.82492 4.04961 6.17492C4.42461 6.52492 7.79961 5.92492 8.02461 5.87492C8.19961 8.57492 8.37461 16.3499 8.69961 23.3749C9.67461 44.7999 12.7246 48.3749 13.0996 57.6249C4.67461 56.2499 5.59961 53.2999 4.89961 44.1999C1.89961 6.14992 3.24961 4.54992 1.92461 4.22492C1.82076 4.19056 1.71047 4.18014 1.60202 4.19444C1.49357 4.20875 1.38976 4.24741 1.29837 4.30754C1.20698 4.36766 1.13038 4.44769 1.07431 4.54162C1.01825 4.63555 0.984159 4.74095 0.974609 4.84992C1.32461 5.19992 0.799609 22.0749 1.14961 31.1499C1.32461 35.4749 2.17461 51.8999 3.44961 54.7499C4.99961 58.3499 8.77461 59.4499 12.6996 59.9999C16.6246 60.5499 23.7746 58.3749 27.6996 57.6999C27.9317 57.6734 28.1437 57.5558 28.289 57.3729C28.4344 57.1901 28.5011 56.957 28.4746 56.7249C28.4481 56.4929 28.3305 56.2808 28.1476 56.1355C27.9648 55.9901 27.7317 55.9234 27.4996 55.9499Z" fill="black"/>
<path fill-rule="evenodd" clip-rule="evenodd" d="M36.1997 21.0249C36.2615 19.1379 36.051 17.2518 35.5747 15.4249C35.1747 14.1749 35.1997 10.6749 32.6247 10.4249C31.9882 10.4169 31.3522 10.4671 30.7247 10.5749C29.4997 10.5749 16.4997 11.1249 18.2247 13.7249V16.6249C18.2247 19.9749 17.2497 23.7249 20.7247 24.1249C23.0372 24.1852 25.3511 24.085 27.6497 23.8249C29.0997 23.6249 30.5497 23.2999 31.9497 22.9999C32.6497 22.8499 35.8747 23.0249 36.1997 21.0249ZM20.4997 21.8249C19.6747 21.2749 19.9997 17.4999 19.9997 16.6749C20.1458 15.7473 20.1458 14.8025 19.9997 13.8749C23.5955 13.105 27.2792 12.8274 30.9497 13.0499C33.4497 13.0499 31.8747 12.0499 32.9247 16.1749C33.221 17.4279 33.3637 18.7124 33.3497 19.9999C29.1229 20.9553 24.8254 21.5656 20.4997 21.8249Z" fill="black"/>
</g>
<defs>
<clipPath id="clip0_161_6932">
<rect width="60" height="60" fill="white"/>
</clipPath>
</defs>
</svg>
