<svg width="60" height="60" viewBox="0 0 60 60" fill="none" xmlns="http://www.w3.org/2000/svg">
<path d="M37.4998 15C34.7248 11.75 29.6498 10.9 25.7498 9.82495C21.8498 8.74995 18.5498 7.32495 14.7998 6.37495C12.2388 5.58449 9.63447 4.94176 6.99976 4.44995C5.94976 4.44995 5.79976 5.94995 6.99976 6.19995C13.1268 7.57767 19.1433 9.40768 24.9998 11.675C28.3748 12.675 33.2998 13.625 35.5248 16.35C36.6498 17.725 34.2748 41.4749 33.9248 48.6749C33.9248 50.9749 33.9248 53.2999 33.6248 55.5499C33.3998 56.9499 33.6248 57.6499 29.7498 56.8249C22.5891 54.8166 15.6136 52.1987 8.89976 49C7.69976 48.3 6.17476 47.2999 5.87476 45.9499C5.67476 44.9749 5.39976 40.625 5.34976 38.825C4.57476 14.625 6.04976 7.12495 4.99976 6.59995C3.94976 6.07495 3.92476 7.02495 3.89976 8.09995C3.64976 12.875 2.49976 41.1249 3.47476 46.4249C3.7675 47.4644 4.2777 48.4299 4.97158 49.2574C5.66547 50.0849 6.52721 50.7555 7.49976 51.2249C11.5428 53.2915 15.7186 55.0871 19.9998 56.5999C23.1998 57.8999 31.4498 61.0999 34.5248 59.5749C37.5998 58.0499 36.6748 53.475 36.8748 48.8C38.5248 19.825 38.8998 16.675 37.4998 15Z" fill="black"/>
<path d="M56.7995 19.5C56.9995 14.825 57.4995 2.19996 53.1245 0.399955C50.4995 -0.700045 11.4495 0.849955 6.99952 1.49996C6.7519 1.51918 6.52165 1.63461 6.3581 1.82153C6.19455 2.00844 6.1107 2.25197 6.12452 2.49996C6.34952 3.19996 13.0245 3.59996 16.9245 4.52496C17.1745 4.52496 29.7495 7.67496 32.9745 8.64996C44.9995 12.5 44.0995 11.825 44.3995 15.85C44.5495 17.925 44.3995 20.2 44.5495 21.775C44.7495 24.275 46.3495 48.5 45.1495 50.275C43.9495 52.05 39.5495 50.275 38.0745 51.075C37.0995 51.55 37.5745 52.65 38.4495 52.725C41.1245 52.975 45.1995 53.525 46.7495 51.375C47.4995 50.35 47.2495 48.875 47.6995 46.8C47.9782 44.3098 48.0284 41.7993 47.8495 39.3C47.8495 32.775 47.7245 27.775 47.3995 21.525C47.2245 18.65 47.6495 14.025 46.2495 11.2C45.9088 10.6633 45.4113 10.2444 44.8245 9.99996C44.4745 9.82496 36.9245 7.22496 33.6745 6.37496C29.5745 5.24996 16.5495 2.74996 15.6245 2.49996C15.8745 2.49996 52.0995 2.79996 52.2995 3.09996C55.8995 8.52496 53.1495 30.825 53.5245 36.65C53.9483 39.848 54.0905 43.077 53.9495 46.3C50.6495 46.675 50.6245 46.15 50.2245 46.15C50.0057 46.15 49.7959 46.2369 49.6412 46.3916C49.4864 46.5463 49.3995 46.7562 49.3995 46.975C49.3995 47.95 50.5245 48.075 51.4745 48.125C52.4817 48.1938 53.4924 48.1938 54.4995 48.125C56.7745 47.825 55.5995 45.25 56.7995 19.5Z" fill="black"/>
<path d="M28.6251 24.2999C28.6251 23.1249 29.2751 20.9749 27.6501 20.1999C24.2001 18.5749 20.6751 18.7749 17.5001 17.4999C15.9523 17.1952 14.4309 16.7689 12.9501 16.2249C12.7001 15.5749 11.7501 15.5999 11.3001 16.4499C10.8671 18.2588 10.6655 20.1153 10.7001 21.9749C9.82509 26.8499 9.72509 26.8499 10.2501 27.4249C10.7751 27.9999 11.7501 27.9999 12.2501 28.2499C16.6004 30.3245 21.0856 32.1035 25.6751 33.5749C26.9751 33.5749 27.8751 31.5999 28.1751 30.3749C28.5438 28.3721 28.6947 26.3352 28.6251 24.2999ZM25.9501 24.0999C25.9615 26.2037 25.6409 28.2961 25.0001 30.2999C20.5962 28.9751 16.2723 27.3975 12.0501 25.5749C12.3933 22.998 12.5437 20.3992 12.5001 17.7999C13.8297 18.3323 15.1906 18.7832 16.5751 19.1499C19.5501 20.6249 23.2251 20.8749 26.0751 22.2499C25.7001 22.4999 26.0001 23.7499 25.9501 24.0999Z" fill="black"/>
<path d="M19.9999 37.075C17.8999 36.55 14.4499 35.975 11.0749 35C11.3499 35 10.3749 34.65 10.1249 35.425C9.87488 36.2 10.4249 36.3 12.0749 37.175C14.1081 38.4324 16.3669 39.2815 18.7249 39.675C27.4999 41.275 24.7499 41.325 25.8999 41.225C26.1253 41.225 26.3415 41.1354 26.5009 40.976C26.6603 40.8166 26.7499 40.6004 26.7499 40.375C26.6499 39.1 21.8249 37.5 19.9999 37.075Z" fill="black"/>
</svg>
