<svg width="60" height="60" viewBox="0 0 60 60" fill="none" xmlns="http://www.w3.org/2000/svg">
<path fill-rule="evenodd" clip-rule="evenodd" d="M28.7999 45.9749C29.3749 45.9749 30.4999 45.5749 31.6499 45.2999C31.5249 45.7249 31.3749 46.1499 31.2499 46.5749C30.7499 48.3499 30.3999 50.1499 30.0749 51.9499C30.0131 52.172 30.0415 52.4095 30.1538 52.6108C30.2662 52.8121 30.4534 52.9609 30.6749 53.0249C30.7832 53.0552 30.8965 53.0636 31.0081 53.0498C31.1197 53.0359 31.2275 53.0001 31.3252 52.9442C31.4229 52.8884 31.5085 52.8138 31.5771 52.7246C31.6457 52.6355 31.6959 52.5336 31.7249 52.4249C32.4749 50.4499 33.4749 48.5999 34.2249 46.6249C34.5499 45.7749 34.7749 44.8749 35.0249 44.1249C35.0917 43.9047 35.1032 43.6715 35.0584 43.4458C35.0136 43.2201 34.9139 43.009 34.7681 42.831C34.6222 42.653 34.4348 42.5138 34.2223 42.4255C34.0098 42.3372 33.7789 42.3027 33.5499 42.3249C32.9291 42.4563 32.3253 42.6576 31.7499 42.9249C30.4749 43.5249 29.0749 44.3749 28.4249 44.6499C28.3286 44.6698 28.2376 44.7097 28.1578 44.767C28.0779 44.8244 28.0111 44.8979 27.9616 44.9828C27.912 45.0677 27.8809 45.1621 27.8703 45.2598C27.8597 45.3575 27.8698 45.4563 27.8999 45.5499C27.9673 45.7222 28.0981 45.8622 28.2654 45.9412C28.4327 46.0203 28.6239 46.0323 28.7999 45.9749Z" fill="black"/>
<path fill-rule="evenodd" clip-rule="evenodd" d="M58.2992 57.75C57.7492 56.05 57.2492 54.325 56.6992 52.6C56.1492 50.875 55.5492 49.15 54.9992 47.5C53.6721 44.0836 52.153 40.7449 50.4492 37.5C50.3895 37.3861 50.2996 37.2908 50.1894 37.2247C50.0791 37.1585 49.9528 37.124 49.8242 37.125H49.5742L23.4242 36.2C23.1711 36.2016 22.9241 36.2785 22.7149 36.421C22.5056 36.5635 22.3435 36.765 22.2492 37C20.3742 41.8 18.2492 46.5 16.3242 51.275C15.4992 53.325 14.6992 55.425 13.8242 57.525C13.749 57.7418 13.7263 57.9735 13.7581 58.2008C13.7899 58.4282 13.8752 58.6447 14.007 58.8326C14.1388 59.0206 14.3133 59.1745 14.5162 59.2819C14.7192 59.3892 14.9447 59.4468 15.1742 59.45C18.2742 59.45 26.5992 59.825 33.0492 59.95H40.8492C41.0934 59.914 41.3238 59.8142 41.517 59.6605C41.7101 59.5068 41.8593 59.3048 41.9492 59.075L42.7492 57.15C44.4242 53.075 48.0242 44.025 49.4742 39.9C50.4242 42.65 51.2242 45.425 51.9742 48.2C52.4242 49.675 52.8992 51.1 53.3992 52.55C53.8992 54 54.5242 55.575 55.1492 57.075L49.5992 57.275C49.3714 57.2749 49.1525 57.3636 48.9892 57.5223C48.8258 57.6811 48.7307 57.8972 48.7242 58.125C48.7209 58.2366 48.7396 58.3478 48.7792 58.4522C48.8189 58.5566 48.8787 58.6522 48.9554 58.7334C49.032 58.8147 49.1239 58.88 49.2258 58.9258C49.3277 58.9715 49.4376 58.9967 49.5492 59L56.8992 59.45C57.0975 59.4539 57.2938 59.4106 57.472 59.3237C57.6503 59.2367 57.8053 59.1086 57.9242 58.95C58.0851 58.7994 58.2042 58.6097 58.2699 58.3994C58.3356 58.1891 58.3457 57.9653 58.2992 57.75ZM40.7992 56.225C40.5242 56.775 40.3242 57.225 40.1742 57.575C39.1492 57.575 37.6742 57.575 35.8242 57.45C30.1992 57.225 21.9492 56.775 17.3992 56.6L24.2742 38.7H48.3742C46.9742 42.325 42.7242 51.975 40.7992 56.225Z" fill="black"/>
<path fill-rule="evenodd" clip-rule="evenodd" d="M4.62478 20.45C7.25054 23.0648 10.4656 25.0109 13.9998 26.125C17.5195 27.2438 21.2517 27.5263 24.8998 26.95C26.6069 26.6421 28.281 26.1733 29.8998 25.55C32.2692 24.6006 34.5669 23.481 36.7748 22.2C37.0325 22.0666 37.2271 21.8367 37.3161 21.5604C37.4051 21.2841 37.3812 20.9838 37.2498 20.725C36.5831 19.3584 35.9331 17.9584 35.2998 16.525C38.8248 15.325 42.4998 14.275 46.0498 12.925C47.7035 12.3044 49.3225 11.595 50.8998 10.8C52.4251 10.0869 53.774 9.04535 54.8498 7.75003C55.259 7.21008 55.5542 6.5926 55.7176 5.93508C55.8809 5.27755 55.9088 4.59369 55.7998 3.92503C55.6941 3.17247 55.3909 2.46137 54.921 1.86412C54.4511 1.26688 53.8313 0.804827 53.1248 0.525025C51.3842 -0.0607645 49.5159 -0.155909 47.7248 0.250025C46.7964 0.464446 45.8854 0.748585 44.9998 1.10003C43.6998 1.57503 42.4998 2.17503 41.1748 2.75003L30.7998 7.75003C30.6898 7.70033 30.5705 7.67462 30.4498 7.67462C30.3291 7.67462 30.2098 7.70033 30.0998 7.75003C29.9994 7.80359 29.9136 7.88082 29.8498 7.97503L4.99978 18.225C4.79998 18.3175 4.6253 18.4566 4.49043 18.6306C4.35557 18.8046 4.26446 19.0085 4.22478 19.225C4.19053 19.4463 4.2089 19.6725 4.2784 19.8853C4.34789 20.0982 4.46656 20.2916 4.62478 20.45ZM41.9748 5.00003C43.2248 4.55003 44.4748 4.05003 45.7998 3.65003C46.6198 3.39817 47.4548 3.19778 48.2998 3.05003C49.363 2.82536 50.4615 2.82536 51.5248 3.05003C51.8887 3.09323 52.2289 3.25287 52.4947 3.50515C52.7605 3.75744 52.9377 4.08886 52.9998 4.45003C53.0467 4.84021 53.001 5.23597 52.8663 5.60519C52.7317 5.9744 52.5119 6.30667 52.2248 6.57503C51.4963 7.34927 50.6531 8.00695 49.7248 8.52503C47.7818 9.62935 45.7693 10.6064 43.6998 11.45C40.6498 12.625 37.4998 13.725 34.5998 15C34.1498 13.95 33.6748 12.925 33.1998 11.9C32.7248 10.875 32.1998 9.95003 31.6748 9.00003C33.2248 8.35003 34.7998 7.70003 36.3748 7.10003C37.9498 6.50003 39.9998 5.60003 41.9748 5.00003ZM29.9998 9.47503C30.5248 10.5 31.0248 11.55 31.4748 12.6C31.7248 13.175 31.9498 13.75 32.1998 14.35C30.3677 14.9747 28.4859 15.443 26.5748 15.75C25.6498 15.9 24.7248 16 23.7998 16.075C22.8748 16.15 21.9748 16.075 21.0498 16.075C19.5573 16.1107 18.0653 15.9849 16.5998 15.7L29.9998 9.47503ZM14.3748 16.975C16.3976 18.072 18.6131 18.768 20.8998 19.025C21.9468 19.1375 23.0028 19.1375 24.0498 19.025C25.0871 18.9189 26.115 18.7351 27.1248 18.475C29.1312 17.9089 31.0682 17.1207 32.8998 16.125C33.5248 17.675 34.1498 19.25 34.7998 20.775C33.2952 21.5391 31.7514 22.2234 30.1748 22.825C28.3286 23.5376 26.4082 24.0408 24.4498 24.325C21.2684 24.7228 18.0383 24.3981 14.9998 23.375C12.5524 22.6126 10.2649 21.4095 8.24978 19.825L14.3748 16.975Z" fill="black"/>
<path fill-rule="evenodd" clip-rule="evenodd" d="M14.1245 32.975C15.129 33.1005 16.1451 33.1005 17.1495 32.975C17.2612 32.9686 17.3706 32.9402 17.4713 32.8915C17.572 32.8428 17.6621 32.7747 17.7364 32.6911C17.8107 32.6074 17.8678 32.51 17.9044 32.4043C17.941 32.2985 17.9563 32.1866 17.9495 32.075C17.9304 31.8472 17.8229 31.636 17.65 31.4865C17.4771 31.337 17.2527 31.2611 17.0245 31.275C16.1844 31.2865 15.3457 31.2026 14.5245 31.025C13.6645 30.8387 12.8265 30.5622 12.0245 30.2C11.8465 30.128 11.6521 30.1063 11.4626 30.1372C11.273 30.168 11.0956 30.2503 10.9495 30.375C10.8057 30.494 10.697 30.65 10.6353 30.8262C10.5736 31.0025 10.5613 31.1922 10.5995 31.375C10.8803 32.8998 10.9977 34.4502 10.9495 36C10.9105 37.4196 10.4872 38.802 9.72454 40C9.49895 40.4138 9.16097 40.7554 8.7496 40.9854C8.33823 41.2154 7.87021 41.3245 7.39954 41.3C6.94336 41.2532 6.51158 41.0711 6.15966 40.777C5.80774 40.483 5.55174 40.0905 5.42454 39.65C5.01616 38.4954 4.92127 37.2532 5.14954 36.05C5.52233 34.0039 6.02332 31.9832 6.64954 30C6.71881 29.7858 6.71184 29.5543 6.62981 29.3446C6.54779 29.135 6.39577 28.9602 6.19954 28.85C5.50944 28.5103 4.88349 28.0536 4.34954 27.5C3.80095 26.9543 3.37483 26.2981 3.09954 25.575C3.07646 25.4714 3.03235 25.3736 2.96995 25.2878C2.90755 25.202 2.82819 25.1299 2.73678 25.0759C2.64537 25.022 2.54386 24.9875 2.43854 24.9744C2.33323 24.9613 2.22635 24.97 2.12454 25C2.03021 25.0334 1.94353 25.0853 1.86959 25.1528C1.79566 25.2202 1.73597 25.3018 1.69403 25.3926C1.6521 25.4835 1.62877 25.5818 1.62542 25.6818C1.62207 25.7818 1.63877 25.8815 1.67454 25.975C1.96868 26.8886 2.43546 27.7373 3.04954 28.475C3.48697 29.0118 3.99103 29.4906 4.54954 29.9C3.74389 31.732 3.09978 33.6309 2.62454 35.575C2.22606 37.2236 2.26918 38.9482 2.74954 40.575C3.0561 41.5433 3.64213 42.3993 4.43392 43.0354C5.22572 43.6715 6.18793 44.0593 7.19954 44.15C8.20892 44.2194 9.21697 43.997 10.1035 43.5094C10.99 43.0218 11.7176 42.2896 12.1995 41.4C12.9301 40.0801 13.3411 38.6074 13.3995 37.1C13.4696 35.6161 13.352 34.1294 13.0495 32.675C13.4009 32.7984 13.76 32.8986 14.1245 32.975Z" fill="black"/>
</svg>
