<svg width="60" height="60" viewBox="0 0 60 60" fill="none" xmlns="http://www.w3.org/2000/svg">
<g clip-path="url(#clip0_169_5083)">
<path fill-rule="evenodd" clip-rule="evenodd" d="M16.6509 44.9998C16.265 44.6767 15.8034 44.4567 15.3093 44.3605C14.8152 44.2643 14.3048 44.295 13.8259 44.4498C13.7022 44.4929 13.5845 44.5517 13.4759 44.6248H13.1259C12.1608 45.074 11.3353 45.7759 10.7367 46.6562C10.1381 47.5364 9.78884 48.5622 9.72588 49.6248C9.71806 50.2386 9.86515 50.8445 10.1536 51.3863C10.442 51.9282 10.8624 52.3885 11.3759 52.7248C11.8867 53.1107 12.4858 53.363 13.1187 53.4591C13.7517 53.5551 14.3986 53.4918 15.0009 53.2748C15.9505 52.8966 16.7377 52.1979 17.2259 51.2998C17.858 50.1401 18.1033 48.8087 17.9259 47.4998C17.8212 46.5385 17.3676 45.649 16.6509 44.9998ZM15.0009 49.4248C14.7944 49.8733 14.4293 50.2294 13.9759 50.4248C13.8429 50.4873 13.6978 50.5196 13.5509 50.5196C13.404 50.5196 13.2589 50.4873 13.1259 50.4248C12.7259 50.1748 12.5009 49.9998 12.5009 49.6498C12.3236 49.0204 12.3236 48.3543 12.5009 47.7248C12.7511 47.1217 13.1565 46.5956 13.6759 46.1998C13.8236 46.2369 13.9782 46.2369 14.1259 46.1998C14.3026 46.1683 14.4844 46.1815 14.6547 46.2383C14.825 46.295 14.9784 46.3936 15.1009 46.5248C15.2147 46.6866 15.2953 46.8693 15.3382 47.0624C15.3811 47.2554 15.3854 47.4551 15.3509 47.6498C15.3788 48.2611 15.2587 48.87 15.0009 49.4248Z" fill="black"/>
<path fill-rule="evenodd" clip-rule="evenodd" d="M45.5253 45.6999C44.7439 45.3417 43.8795 45.2034 43.0253 45.2999C42.9024 45.3109 42.7831 45.3477 42.6754 45.408C42.5677 45.4684 42.4739 45.5508 42.4003 45.6499C41.6772 45.8705 41.0285 46.2857 40.5253 46.8499C39.9596 47.4525 39.5855 48.2095 39.4503 49.0249C39.3546 49.6511 39.419 50.2913 39.6376 50.8859C39.8561 51.4804 40.2218 52.0099 40.7003 52.4249C41.192 52.838 41.7749 53.1282 42.4008 53.2717C43.0268 53.4151 43.6778 53.4077 44.3003 53.2499C44.9236 53.0554 45.4993 52.7324 45.9901 52.3018C46.481 51.8712 46.8762 51.3426 47.1503 50.7499C47.4654 50.1707 47.6305 49.5218 47.6305 48.8624C47.6305 48.203 47.4654 47.5542 47.1503 46.9749C46.7528 46.3928 46.1853 45.9476 45.5253 45.6999ZM44.5253 49.4249C44.2799 49.8275 43.8986 50.129 43.4503 50.2749C43.24 50.3412 43.0159 50.3507 42.8008 50.3024C42.5857 50.2541 42.3871 50.1497 42.2253 49.9999C42.0969 49.9049 41.9887 49.7852 41.9071 49.6478C41.8256 49.5105 41.7723 49.3582 41.7503 49.1999C41.7104 48.8028 41.7886 48.4027 41.9753 48.0499C42.203 47.6617 42.5312 47.3421 42.9253 47.1249H43.0753C43.4985 47.1381 43.9114 47.2585 44.2753 47.4749C44.5499 47.6323 44.7619 47.8795 44.8753 48.1749C45.0003 48.5999 44.7753 49.0249 44.5253 49.4249Z" fill="black"/>
<path fill-rule="evenodd" clip-rule="evenodd" d="M59.2504 16.0999C59.7316 15.5543 59.9982 14.8524 60.0004 14.1249C59.9794 13.2321 59.7017 12.3641 59.2004 11.6249C58.6388 10.738 57.8874 9.98659 57.0004 9.42492C55.8531 8.73447 54.6046 8.22831 53.3004 7.92492L53.1004 7.64992C52.8991 7.20105 52.7886 6.71672 52.7754 6.22492C52.7025 5.65864 52.7712 5.08311 52.9754 4.54992C53.0403 4.17753 53.1761 3.82106 53.3754 3.49992C53.7434 2.90651 54.325 2.47697 55.0004 2.29992C55.2126 2.29992 55.4161 2.21564 55.5661 2.06561C55.7161 1.91558 55.8004 1.7121 55.8004 1.49992C55.7942 1.28974 55.7079 1.08988 55.5592 0.941192C55.4105 0.792502 55.2106 0.706202 55.0004 0.699923C54.2311 0.591644 53.4468 0.684403 52.7239 0.969169C52.0011 1.25394 51.3642 1.72101 50.8754 2.32492C50.3586 2.93459 50.0059 3.66596 49.8504 4.44992C49.6767 5.21518 49.6767 6.00966 49.8504 6.77492C49.9519 7.05612 50.0688 7.33153 50.2004 7.59992C49.5479 7.66735 48.9168 7.87136 48.3482 8.19871C47.7797 8.52606 47.2864 8.9694 46.9004 9.49992C46.4652 10.0676 46.2129 10.7543 46.1772 11.4688C46.1415 12.1832 46.324 12.8916 46.7004 13.4999C46.8909 13.8385 47.1264 14.1496 47.4004 14.4249C46.6481 14.7287 45.9978 15.2403 45.5254 15.8999C45.0794 16.4848 44.8276 17.1946 44.8052 17.9299C44.7827 18.6651 44.9909 19.3889 45.4004 19.9999C45.5718 20.2727 45.764 20.5319 45.9754 20.7749C45.1424 21.0689 44.4187 21.6096 43.9004 22.3249C43.4716 22.8955 43.2234 23.5814 43.1877 24.2943C43.1521 25.0072 43.3306 25.7144 43.7004 26.3249C43.8529 26.5601 44.0199 26.7856 44.2004 26.9999C43.3751 27.2955 42.6598 27.8364 42.1504 28.5499C41.7152 29.1176 41.4629 29.8043 41.4272 30.5188C41.3915 31.2332 41.574 31.9416 41.9504 32.5499C42.3558 33.2533 42.9105 33.8592 43.5754 34.3249C44.2577 34.789 45.0085 35.1433 45.8004 35.3749C45.4981 35.8159 45.2386 36.2847 45.0254 36.7749C44.8993 37.0827 44.7989 37.4005 44.7254 37.7249C44.6592 38.0631 44.6174 38.4057 44.6004 38.7499C44.5755 39.0578 44.5755 39.3671 44.6004 39.6749C44.13 39.5674 43.6544 39.4839 43.1754 39.4249C40.9754 39.1499 38.7254 39.1749 36.5754 39.0749C32.6754 38.8999 28.7754 38.8249 24.8754 38.8999C23.1754 38.8999 21.4754 38.8999 19.8754 39.0749L16.1754 25.1999C15.1674 20.0822 13.7118 15.0629 11.8254 10.1999C10.4355 6.92258 8.49975 3.90476 6.10043 1.27492C5.93058 1.09562 5.72033 0.959501 5.48721 0.877909C5.2541 0.796317 5.00486 0.771613 4.76026 0.805857C4.51566 0.840101 4.28279 0.9323 4.08104 1.07477C3.87929 1.21725 3.71451 1.40587 3.60043 1.62492C2.59313 3.59118 1.75672 5.64039 1.10043 7.74992C0.46659 9.8799 0.0971498 12.0797 0.000430028 14.2999C-0.028699 15.5442 0.0297789 16.7889 0.17543 18.0249C0.40043 19.7749 0.75043 21.5249 1.05043 23.2749C1.55043 25.9249 2.15043 28.5499 2.80043 31.1499C3.75043 35.0499 4.82543 38.8999 5.87543 42.7749C5.91285 42.8847 5.98256 42.9805 6.07543 43.0499C5.18369 43.8246 4.43116 44.7463 3.85043 45.7749C3.19142 46.9026 2.87371 48.1972 2.93584 49.5018C2.99796 50.8064 3.43725 52.065 4.20043 53.1249C4.50622 53.5854 4.84902 54.0201 5.22543 54.4249C5.60146 54.8091 6.00232 55.1683 6.42543 55.4999C7.00537 55.9718 7.61495 56.406 8.25043 56.7999C8.70546 57.0649 9.18218 57.2907 9.67543 57.4749C11.7751 58.2634 13.9851 58.7189 16.2254 58.8249C19.4504 59.0749 22.7504 58.8249 25.8504 58.8249C30.6004 58.8249 35.5504 59.3499 40.4254 59.2499C42.5793 59.2355 44.7283 59.0432 46.8504 58.6749C47.9204 58.5301 48.9748 58.2874 50.0004 57.9499C50.7214 57.6913 51.4162 57.3649 52.0754 56.9749C52.4706 56.7285 52.8466 56.4527 53.2004 56.1499C53.5706 55.8463 53.906 55.5025 54.2004 55.1249C55.0601 54.0985 55.6143 52.8513 55.7999 51.5254C55.9856 50.1994 55.7952 48.848 55.2504 47.6249C53.7323 44.3761 51.0585 41.8093 47.7504 40.4249L47.0254 40.1749C47.2028 39.8768 47.3615 39.5678 47.5004 39.2499C47.6254 38.9499 47.7254 38.6499 47.8254 38.3249C47.8998 38.0041 47.9499 37.6782 47.9754 37.3499C48.013 36.8506 48.013 36.3492 47.9754 35.8499C48.5504 35.9749 49.1004 36.1499 49.6754 36.2249C50.3317 36.299 50.9942 36.299 51.6504 36.2249C52.252 36.1902 52.8435 36.055 53.4004 35.8249C53.8554 35.6297 54.258 35.3299 54.5754 34.9499C55.053 34.412 55.3194 33.7192 55.3254 32.9999C55.3002 32.1078 55.0229 31.241 54.5254 30.4999C54.4004 30.2999 54.2504 30.1499 54.1004 29.9499C54.4709 29.9 54.8327 29.7991 55.1754 29.6499C55.6264 29.4478 56.0276 29.1491 56.3504 28.7749C56.8204 28.2324 57.0857 27.5425 57.1004 26.8249C57.0752 25.9328 56.7979 25.066 56.3004 24.3249C56.1391 24.1055 55.9638 23.8967 55.7754 23.6999C56.1523 23.6297 56.5209 23.5208 56.8754 23.3749C57.2688 23.1499 57.6165 22.8531 57.9004 22.4999C58.3613 21.9441 58.6173 21.2469 58.6254 20.5249C58.6063 19.6355 58.3378 18.7692 57.8504 18.0249C57.6504 17.7499 57.4254 17.5249 57.2254 17.2749L58.0754 16.9999C58.533 16.7975 58.9358 16.489 59.2504 16.0999ZM5.00043 30.6999C4.50043 28.1999 4.05043 25.4999 3.67543 22.8749C3.45043 21.1749 3.17543 19.4749 3.05043 17.7499C2.97539 16.6595 2.97539 15.5653 3.05043 14.4749C3.22579 12.4897 3.61128 10.5288 4.20043 8.62492C4.56634 7.43431 5.00039 6.26571 5.50043 5.12492C6.98731 7.09246 8.2454 9.22283 9.25043 11.4749C11.2139 16.1068 12.8023 20.8888 14.0004 25.7749L18.0004 39.0749C16.4254 39.0749 14.8754 39.2999 13.3004 39.4499C13.1481 39.462 13.0016 39.5137 12.8754 39.5999C12.7295 39.5504 12.5713 39.5504 12.4254 39.5999C10.631 40.1486 8.94103 40.9936 7.42543 42.0999C6.50043 38.2499 5.62543 34.4749 5.00043 30.6999ZM51.9254 47.4999C52.5579 48.3153 52.9012 49.318 52.9012 50.3499C52.9012 51.3819 52.5579 52.3845 51.9254 53.1999L50.6004 54.3499C49.981 54.6988 49.3276 54.9837 48.6504 55.1999C47.9207 55.4221 47.1775 55.5974 46.4254 55.7249C44.4485 56.0394 42.4519 56.2149 40.4504 56.2499C35.6004 56.2499 30.6754 55.9499 25.9254 55.9999C22.8754 55.9999 19.6254 56.3749 16.4754 56.2499C14.4701 56.2102 12.4818 55.8732 10.5754 55.2499C10.1034 55.0929 9.65054 54.8833 9.22543 54.6249C8.76034 54.3482 8.30974 54.0478 7.87543 53.7249C7.53374 53.4613 7.20816 53.1775 6.90043 52.8749C6.59207 52.5797 6.31555 52.2529 6.07543 51.8999C5.49736 51.1588 5.14709 50.2657 5.0672 49.3292C4.98731 48.3927 5.18125 47.4532 5.62543 46.6249C7.29094 43.9639 9.86799 42 12.8754 41.0999C13.0384 41.2049 13.2331 41.2492 13.4254 41.2249C15.2004 41.0999 16.9754 40.9999 18.7504 40.9499C18.8647 41.0002 18.9881 41.0262 19.1129 41.0262C19.2377 41.0262 19.3612 41.0002 19.4754 40.9499L19.7504 40.8249H24.9504C28.8004 40.8249 32.6754 41.0249 36.5004 41.2999C38.6004 41.4499 40.7754 41.4999 42.9004 41.8249C44.2135 42.0043 45.4986 42.3487 46.7254 42.8499C48.8649 43.8751 50.6685 45.4879 51.9254 47.4999ZM52.5004 33.4749C52.3953 33.63 52.2478 33.7515 52.0754 33.8249C51.8219 33.9456 51.5526 34.0298 51.2754 34.0749C50.7684 34.1267 50.2574 34.1267 49.7504 34.0749C48.9106 34.0394 48.0748 33.9391 47.2504 33.7749C47.0944 33.7368 46.9315 33.7368 46.7754 33.7749C46.1877 33.5499 45.6328 33.2472 45.1254 32.8749C44.6067 32.4681 44.202 31.9342 43.9504 31.3249C43.8483 31.0996 43.8199 30.8478 43.8693 30.6054C43.9187 30.363 44.0433 30.1423 44.2254 29.9749C44.42 29.7761 44.6539 29.62 44.9122 29.5167C45.1704 29.4134 45.4474 29.3651 45.7254 29.3749L47.4754 29.6499C48.3851 29.8492 49.2668 30.1598 50.1004 30.5749C50.8601 30.9134 51.5284 31.4275 52.0504 32.0749C52.2071 32.2764 52.3412 32.4943 52.4504 32.7249C52.5004 33.0499 52.5004 33.2749 52.5004 33.4749ZM54.2504 27.2749C54.1462 27.4148 54.0087 27.5265 53.8504 27.5999C53.5969 27.7206 53.3276 27.8048 53.0504 27.8499C52.544 27.9129 52.0318 27.9129 51.5254 27.8499H51.3004C50.3212 27.3539 49.2898 26.9682 48.2254 26.6999C47.8135 26.6007 47.3961 26.5256 46.9754 26.4749H46.7254C46.2903 26.1101 45.9476 25.6475 45.7254 25.1249C45.6336 24.8959 45.6132 24.6444 45.6667 24.4035C45.7202 24.1627 45.8453 23.9436 46.0254 23.7749C46.2233 23.5927 46.456 23.4523 46.7094 23.3621C46.9629 23.2719 47.2319 23.2337 47.5004 23.2499L49.2504 23.5249C50.1571 23.7346 51.0376 24.0448 51.8754 24.4499C52.6351 24.7884 53.3034 25.3025 53.8254 25.9499C53.9888 26.1513 54.1157 26.3798 54.2004 26.6249C54.2754 26.8249 54.3754 27.0749 54.2254 27.2749H54.2504ZM55.9504 20.9499C55.8406 21.0844 55.7045 21.1949 55.5504 21.2749C55.2986 21.3998 55.0286 21.4841 54.7504 21.5249C54.244 21.5869 53.7319 21.5869 53.2254 21.5249H52.8254C51.9129 21.1209 50.9679 20.7947 50.0004 20.5499C49.5969 20.4508 49.1878 20.3757 48.7754 20.3249H48.5254C48.0726 19.9306 47.7211 19.4333 47.5004 18.8749C47.3838 18.6558 47.338 18.4059 47.3693 18.1596C47.4007 17.9133 47.5076 17.6829 47.6754 17.4999C47.8712 17.3043 48.1059 17.1521 48.3643 17.053C48.6227 16.954 48.8991 16.9103 49.1754 16.9249L50.9254 17.1749C51.8327 17.3942 52.713 17.7128 53.5504 18.1249C54.3089 18.4538 54.9776 18.9596 55.5004 19.5999C55.6714 19.8004 55.8067 20.0287 55.9004 20.2749C55.9754 20.4999 56.0754 20.7499 55.9254 20.9499H55.9504ZM57.3254 14.5249C57.2203 14.68 57.0728 14.8015 56.9004 14.8749C56.6469 14.9956 56.3776 15.0798 56.1004 15.1249C55.5934 15.1767 55.0824 15.1767 54.5754 15.1249H54.3504C53.4896 14.7272 52.5942 14.4092 51.6754 14.1749C51.2754 14.1749 50.8504 13.9999 50.4254 13.9499H50.0004C49.4681 13.5867 49.0446 13.0855 48.7754 12.4999C48.6733 12.2746 48.6449 12.0228 48.6943 11.7804C48.7437 11.538 48.8683 11.3174 49.0504 11.1499C49.245 10.9511 49.4789 10.795 49.7372 10.6917C49.9954 10.5884 50.2724 10.5401 50.5504 10.5499L52.3004 10.8249C53.1673 11.0338 54.0064 11.3442 54.8004 11.7499C55.5601 12.0884 56.2284 12.6025 56.7504 13.2499C56.9071 13.4514 57.0412 13.6693 57.1504 13.8999C57.3254 14.0999 57.5004 14.3249 57.3004 14.5249H57.3254Z" fill="black"/>
</g>
<defs>
<clipPath id="clip0_169_5083">
<rect width="60" height="60" fill="white"/>
</clipPath>
</defs>
</svg>
