<svg width="60" height="60" viewBox="0 0 60 60" fill="none" xmlns="http://www.w3.org/2000/svg">
<path fill-rule="evenodd" clip-rule="evenodd" d="M59.9633 20.0215C59.6662 19.4723 59.2962 18.97 58.8643 18.5297C56.4481 16.2945 54.1628 13.9086 52.0208 11.385C50.6164 9.65267 49.0237 8.09805 47.2753 6.7527C44.9073 4.81227 42.4025 3.06253 39.7823 1.51848C39.6641 1.12489 39.4587 0.766186 39.1829 0.471633C38.7708 0.154729 38.2703 -0.0108542 37.7593 0.000552193C36.9224 0.0350375 36.0884 0.122434 35.2616 0.262264L27.4939 0.602488C25.9704 0.602488 24.3719 0.602488 22.7984 0.811857C21.7154 0.876932 20.6385 1.02564 19.5764 1.25677C19.4692 1.27913 19.3673 1.32361 19.2767 1.38762C17.3805 2.26841 15.5518 3.30086 13.8069 4.47582C11.3092 6.09843 9.3111 7.85189 6.31393 10.2073C5.53966 10.8354 3.51657 12.2748 2.09292 13.6095C1.32214 14.2604 0.69932 15.0829 0.269636 16.0173C-0.0898786 17.3343 -0.0898786 18.7306 0.269636 20.0476C1.02644 22.5006 1.96164 24.8892 3.067 27.1924C3.89067 29.0744 4.82491 30.9012 5.86436 32.6621C6.23443 33.3735 6.8121 33.9421 7.5128 34.2847C8.16961 34.3794 8.83777 34.2412 9.41101 33.8922C10.8801 33.0306 12.283 32.0506 13.607 30.961L15.5802 29.4431C15.78 32.793 15.8799 36.1691 15.8799 39.5451C15.8799 42.9212 15.8799 46.9777 15.5802 50.6679C15.5802 52.0549 15.1806 55.5357 15.1056 57.0275C15.0544 57.6536 15.2038 58.2798 15.5302 58.8071C16.0541 59.3109 16.6892 59.6707 17.3785 59.8539C18.612 60.0487 19.8664 60.0487 21.1 59.8539H28.443L38.034 59.6707C38.8582 59.6707 40.3818 59.9063 41.6056 59.8278C42.3531 59.8132 43.0843 59.5969 43.7286 59.1997C44.1808 58.8382 44.5595 58.3859 44.8426 57.869C45.1256 57.3522 45.3074 56.7814 45.3771 56.19C45.5907 54.181 45.5907 52.1534 45.3771 50.1444L44.7527 35.2792C44.7527 34.0754 44.6278 32.6621 44.4529 31.118C44.4529 30.7516 44.4529 30.4114 44.3031 30.0712C45.3736 31.1929 46.5261 32.2254 47.7498 33.1594C48.2627 33.5047 48.8356 33.7404 49.4358 33.8527C50.0359 33.9649 50.6513 33.9517 51.2465 33.8137C51.6909 33.6414 52.0743 33.3309 52.3455 32.9238C53.4149 31.2625 54.5915 29.6798 55.8672 28.1869C57.2615 26.7681 58.4183 25.1137 59.2889 23.2929C59.8601 22.3136 60.0978 21.1605 59.9633 20.0215ZM22.8234 2.59149C24.3719 2.59149 25.9454 2.59149 27.419 2.74852L35.2866 3.0364C35.5114 3.0364 36.4855 2.69618 37.0849 2.67001C36.9877 3.16296 36.8455 3.64499 36.6603 4.10942C35.7149 5.96731 34.5937 7.72087 33.3135 9.34365C32.4437 10.541 31.5097 11.6857 30.5161 12.7721C30.1664 13.1123 29.6169 13.2955 29.567 13.5049L29.0425 13.0599C27.2499 11.5643 25.6244 9.86111 24.1971 7.98275C22.9406 6.49692 21.9202 4.80917 21.1749 2.98406C21.126 2.87393 21.0675 2.7688 21.0001 2.67001C21.5995 2.61767 22.2239 2.59149 22.8234 2.59149ZM56.9661 21.4347C56.7258 22.0791 56.4333 22.7007 56.092 23.2929C55.5936 24.2368 54.99 25.1154 54.2936 25.91C53.6919 26.4748 53.1705 27.127 52.7451 27.8466C51.8959 29.1552 50.9718 30.804 50.4473 31.5106C49.8587 31.573 49.266 31.4451 48.7489 31.1442C46.8257 30.0974 45.1023 27.8466 43.304 27.1138C43.2011 27.0676 43.0902 27.0438 42.9781 27.0439C42.8661 27.0441 42.7553 27.0682 42.6524 27.1147C42.5496 27.1612 42.4569 27.2293 42.3799 27.3146C42.303 27.4 42.2435 27.5008 42.2051 27.6111C42.1554 27.7262 42.1297 27.8511 42.1297 27.9775C42.1297 28.1038 42.1554 28.2287 42.2051 28.3439C42.1808 28.4647 42.1808 28.5895 42.2051 28.7103C42.4216 29.5664 42.5555 30.4432 42.6047 31.3274C42.7296 32.7145 42.7296 34.2062 42.7545 35.3839L42.8794 50.4062C42.9787 51.9922 42.9787 53.5833 42.8794 55.1693C42.8794 55.9806 42.7046 56.7396 42.2051 57.0536C41.8216 57.1991 41.41 57.2441 41.0062 57.1845C39.9072 57.1845 38.6834 56.9228 37.9591 56.9228H28.2682H23.2729H20.9251C20.2043 57.0187 19.4788 57.0711 18.7522 57.0798C18.4307 57.0701 18.1118 57.0173 17.8031 56.9228C17.8031 55.3787 18.0279 52.0288 18.0279 50.6679C18.0279 46.9516 18.0279 43.1829 17.853 39.4404C17.6782 35.698 17.5034 32.0602 17.0288 28.3701C17.0436 28.31 17.0436 28.2469 17.0288 28.1869C17.0533 28.0528 17.048 27.9146 17.0134 27.783C16.9787 27.6514 16.9156 27.5299 16.829 27.4279C16.6668 27.2678 16.4524 27.1786 16.2296 27.1786C16.0067 27.1786 15.7923 27.2678 15.6301 27.4279L12.5081 29.3646C12.1334 29.6001 11.0595 30.3591 10.0104 31.0395C9.41101 31.4321 8.46191 31.5106 8.11224 31.7723C7.13654 29.9702 6.30128 28.0885 5.61459 26.1455C5.01516 24.8108 4.04108 22.4554 3.39169 20.257C2.9674 19.2185 2.82063 18.0786 2.96709 16.9594C3.38612 16.3182 3.91043 15.7599 4.51563 15.3107C5.78943 14.133 7.28801 12.9029 7.91242 12.3272C10.7098 9.71004 12.633 7.90423 14.9058 6.1246C16.3834 4.99027 17.9358 3.96703 19.5514 3.06257C19.5018 3.22424 19.5018 3.39816 19.5514 3.55983C20.713 6.56169 22.3701 9.32572 24.4468 11.7252C25.5146 13.1038 26.7203 14.3585 28.0434 15.4677C28.5947 15.9333 29.2836 16.1831 29.9916 16.1743C31.8592 15.2969 33.4773 13.9261 34.6872 12.1963C36.5001 10.0442 38.0598 7.67186 39.3328 5.13009C39.502 4.56589 39.6273 3.98823 39.7074 3.4028C41.44 4.63309 43.1075 5.96105 44.7027 7.38081C46.6264 8.99464 48.3543 10.8491 49.8478 12.9029C50.7657 14.1947 51.7671 15.4189 52.845 16.5669C54.2187 18.0325 55.7173 19.498 56.6165 20.4402C56.8163 20.6496 56.9661 20.9113 57.116 21.0683L56.9661 21.4347Z" fill="black"/>
<path d="M32.4163 21.75C32.4163 21.9 32.5963 22.2 33.1363 22.44C33.2653 22.4619 33.3972 22.4619 33.5263 22.44L34.2763 22.65L36.1063 23.19C36.8745 23.2643 37.648 23.2643 38.4163 23.19C39.5056 22.9638 40.5781 22.6631 41.6263 22.29C41.7604 22.2787 41.891 22.241 42.0105 22.179C42.1299 22.117 42.236 22.0319 42.3224 21.9287C42.4089 21.8255 42.474 21.7063 42.5142 21.5778C42.5543 21.4493 42.5686 21.3141 42.5563 21.18C42.549 21.0444 42.514 20.9117 42.4533 20.7902C42.3926 20.6687 42.3076 20.561 42.2034 20.4737C42.0993 20.3865 41.9784 20.3216 41.8481 20.2831C41.7179 20.2447 41.5811 20.2334 41.4463 20.25C40.3663 20.1 39.3463 19.86 38.2363 19.8H36.2263C35.0376 19.9955 33.8646 20.2762 32.7163 20.64C32.2963 21.03 32.4163 21.45 32.4163 21.75Z" fill="black"/>
</svg>
