<svg width="60" height="60" viewBox="0 0 60 60" fill="none" xmlns="http://www.w3.org/2000/svg">
<g clip-path="url(#clip0_161_6830)">
<path d="M49.2503 50.5251L47.9253 50.7001C46.9566 50.8544 45.9801 50.9546 45.0003 51.0001C44.0513 51.0626 43.0992 51.0626 42.1503 51.0001C39.7753 50.8501 37.3253 50.6501 34.9003 50.3251C33.3336 50.119 31.7807 49.8185 30.2503 49.4251C29.9022 49.3727 29.5483 49.3727 29.2003 49.4251C28.5503 49.4251 27.6003 49.7751 27.1503 49.8001L20.5503 50.2001C19.0503 50.2001 17.5503 50.1501 16.0503 50.0501C14.5503 50.0501 13.0503 49.8001 11.5503 49.6251C11.0503 49.6251 10.5503 49.5501 10.0503 49.4001C9.56457 49.3083 9.08777 49.1745 8.62526 49.0001C7.99459 48.7856 7.33946 48.6512 6.67526 48.6001C6.5709 48.6077 6.46956 48.6386 6.3787 48.6905C6.28785 48.7424 6.20979 48.814 6.15026 48.9001C6.07142 49.007 6.02139 49.1324 6.00497 49.2642C5.98855 49.3961 6.00629 49.5299 6.05649 49.6529C6.10669 49.7759 6.18767 49.8839 6.29165 49.9666C6.39563 50.0493 6.51912 50.1039 6.65026 50.1251H7.15026L7.97526 50.4501C8.39542 50.6492 8.82998 50.8163 9.27526 50.9501C9.92001 51.1665 10.5802 51.3336 11.2503 51.4501C12.7503 51.7751 14.2753 52.0501 15.8003 52.3001C17.3253 52.5501 18.9003 52.7001 20.4503 52.8251C21.3829 52.8751 22.3176 52.8751 23.2503 52.8251C24.6503 52.8251 26.0253 52.7001 27.4003 52.6001C27.9003 52.6001 29.6503 52.1751 29.6503 52.1751C31.2966 52.551 32.9674 52.8099 34.6503 52.9501C37.1503 53.1501 39.6503 53.1501 42.1503 53.1501C43.1779 53.1541 44.2048 53.0957 45.2253 52.9751C46.2589 52.8791 47.2858 52.7205 48.3003 52.5001C48.7482 52.4418 49.1911 52.3499 49.6253 52.2251C49.817 52.1688 49.9853 52.0519 50.1051 51.8919C50.2248 51.7319 50.2896 51.5374 50.2896 51.3376C50.2896 51.1378 50.2248 50.9433 50.1051 50.7833C49.9853 50.6233 49.817 50.5064 49.6253 50.4501L49.2503 50.5251Z" fill="black"/>
<path d="M59.5502 31.6501C58.9996 28.8572 58.1009 26.1443 56.8752 23.5751C56.2002 22.1251 55.4502 20.7501 54.8752 19.2751C54.523 18.398 54.2714 17.4838 54.1252 16.5501C53.7752 13.8001 54.2502 6.82508 54.3002 3.80008C54.3581 3.09376 54.2904 2.38277 54.1002 1.70008C53.914 1.44588 53.6741 1.23574 53.3976 1.08453C53.1211 0.933328 52.8147 0.844752 52.5002 0.825077C51.5002 0.625077 49.0752 0.350077 47.1752 0.175077L44.8252 7.67696e-05C44.5368 -0.0237857 44.2473 0.0310392 43.9875 0.158712C43.7278 0.286384 43.5075 0.482122 43.3502 0.725077C43.2266 1.0801 43.151 1.45003 43.1252 1.82508C42.9252 1.82508 41.7752 2.47508 41.2502 2.62508C40.2752 2.85008 39.1752 2.95008 38.4502 3.15008C35.9468 3.78868 33.3822 4.15745 30.8002 4.25008C29.2903 4.31253 27.7777 4.26239 26.2752 4.10008C25.2721 3.99803 24.2777 3.82256 23.3002 3.57508C22.1258 3.30043 20.9728 2.94116 19.8502 2.50008C19.0502 2.10008 18.3002 1.82508 18.1502 1.52508C18.1168 1.43075 18.0648 1.34407 17.9974 1.27013C17.93 1.1962 17.8484 1.1365 17.7576 1.09457C17.6667 1.05263 17.5684 1.02931 17.4684 1.02596C17.3684 1.02261 17.2687 1.03931 17.1752 1.07508C17.08 1.11115 16.9928 1.16563 16.9186 1.23542C16.8444 1.30521 16.7848 1.38894 16.743 1.48181C16.7012 1.57468 16.6781 1.67488 16.675 1.77668C16.672 1.87847 16.6891 1.97987 16.7252 2.07508C17.146 2.77528 17.7515 3.34614 18.4752 3.72508C19.7575 4.53345 21.1036 5.23578 22.5002 5.82508C23.826 6.37241 25.21 6.76663 26.6252 7.00008C28.0413 7.1956 29.4729 7.25421 30.9002 7.17508C33.6905 6.91425 36.4323 6.27505 39.0502 5.27508C39.8752 4.97508 41.2002 4.70008 42.2502 4.27508C42.5106 4.16214 42.7614 4.02837 43.0002 3.87508C43.0002 5.75008 43.0002 8.37508 43.1252 11.1751C38.5752 11.3251 35.7752 12.6251 34.0252 15.1501C32.8341 17.0146 32.1214 19.1442 31.9502 21.3501C31.76 24.1886 31.76 27.0366 31.9502 29.8751H30.8002C29.4172 29.8108 28.0396 29.6605 26.6752 29.4251C27.0197 26.5219 27.1201 23.595 26.9752 20.6751C26.8866 18.5471 26.2863 16.4718 25.2252 14.6251C23.5002 11.9001 20.5752 10.7751 16.0002 10.7001C15.8752 7.37508 16.0002 4.67508 16.0002 3.87508C16.0015 3.74885 15.9755 3.62384 15.9239 3.50863C15.8723 3.39341 15.7965 3.29071 15.7015 3.20759C15.6065 3.12447 15.4946 3.06288 15.3736 3.02706C15.2525 2.99124 15.1252 2.98204 15.0002 3.00008C14.7725 3.00659 14.5563 3.10164 14.3976 3.26503C14.2389 3.42843 14.1501 3.64728 14.1502 3.87508C14.0256 8.58328 14.226 13.2945 14.7502 17.9751C14.9405 21.2844 15.9639 24.492 17.7252 27.3001C19.0254 28.7422 20.6675 29.834 22.5002 30.4751C25.1295 31.4119 27.8861 31.943 30.6752 32.0501C31.9938 32.0981 33.3141 32.048 34.6252 31.9001C35.9314 31.732 37.2257 31.4815 38.5002 31.1501C39.7889 30.8232 40.959 30.1385 41.8752 29.1751C43.0392 27.7608 43.8911 26.1166 44.3752 24.3501C44.9906 22.0403 45.3264 19.6649 45.3752 17.2751C45.6002 12.8501 45.3752 7.72508 45.3752 4.47508V2.67508C46.9752 2.82508 49.7752 3.12508 51.3002 3.37508C51.3002 5.22508 51.0002 9.10008 50.9002 12.3751C50.8421 13.8845 50.8838 15.3962 51.0252 16.9001C51.1832 18.0744 51.4855 19.2248 51.9252 20.3251C52.5002 21.8251 53.2752 23.2751 53.9502 24.7501C54.8677 26.7268 55.596 28.786 56.1252 30.9001C56.6503 32.931 56.7944 35.0416 56.5502 37.1251C56.3538 38.3898 55.9749 39.6193 55.4252 40.7751C54.0502 43.7501 51.5252 46.1501 50.4252 49.2751C50.3471 50.9486 50.4561 52.6257 50.7502 54.2751C50.8114 54.7648 50.8114 55.2603 50.7502 55.7501V55.9501H50.2752L45.2752 56.6251C43.3502 56.8501 41.4002 56.9501 39.4752 57.0001C34.8502 57.0001 30.2002 56.8751 25.6002 57.0001H16.8252C14.9252 57.0001 13.0252 56.7251 11.1002 56.4501C10.2002 56.3001 8.95022 56.1751 7.82522 55.9001C7.25248 55.7813 6.69777 55.5879 6.17522 55.3251L5.97522 54.3501C5.75022 53.3001 5.82522 51.8501 5.70022 50.7501C5.64313 50.0956 5.48282 49.4544 5.22522 48.8501C5.00022 47.5001 4.00022 46.3751 3.35022 45.0001C3.11969 44.5649 2.94337 44.1031 2.82522 43.6251C2.44085 41.8935 2.25631 40.1237 2.27522 38.3501C2.29328 36.5829 2.54547 34.826 3.02522 33.1251C3.57522 31.2001 4.50022 29.4001 5.17522 27.5251C5.48044 26.7008 5.73098 25.8573 5.92522 25.0001C6.24212 23.3471 6.46747 21.6779 6.60022 20.0001C6.92522 16.0751 6.87522 12.1751 7.10022 8.20008V4.20008C7.12676 3.61348 7.26241 3.03697 7.50022 2.50008C8.17458 2.32429 8.85924 2.1907 9.55022 2.10008C10.5752 2.10008 11.6002 1.90008 12.6252 1.85008H14.3502C14.4508 1.85343 14.551 1.83651 14.6449 1.80033C14.7388 1.76414 14.8245 1.70943 14.8968 1.63945C14.9691 1.56946 15.0266 1.48565 15.0658 1.39298C15.1051 1.30032 15.1253 1.20071 15.1252 1.10008C15.1286 0.996218 15.111 0.892746 15.0736 0.795814C15.0361 0.698882 14.9796 0.61047 14.9073 0.535835C14.835 0.461201 14.7484 0.401869 14.6527 0.361368C14.557 0.320866 14.4541 0.300023 14.3502 0.300077H12.5002C11.4502 0.300077 10.3752 0.300077 9.30022 0.525077C8.57736 0.611482 7.85966 0.736662 7.15022 0.900077C6.35022 1.10008 5.77522 1.95008 5.55022 3.17508C5.38435 4.75267 5.31755 6.33912 5.35022 7.92508C5.00022 11.9001 5.12522 15.8001 4.75022 19.7001C4.57522 21.3251 4.35022 22.9501 4.02522 24.7001C3.84806 25.4937 3.60557 26.2714 3.30022 27.0251C2.57522 28.9251 1.65022 30.7751 1.05022 32.7251C0.475617 34.5979 0.164301 36.5415 0.125223 38.5001C0.0771566 40.4459 0.244846 42.3911 0.625223 44.3001C0.771208 44.9702 1.00665 45.6177 1.32522 46.2251C1.92522 47.4501 2.77522 48.4751 3.32522 49.7751C3.48648 50.1646 3.5795 50.579 3.60022 51.0001C3.72522 52.2751 3.60022 53.7001 3.85022 54.8251C3.91531 55.3439 4.03257 55.8548 4.20022 56.3501C4.35927 56.7502 4.63885 57.091 5.00022 57.3251C5.77272 57.7885 6.61794 58.1181 7.50022 58.3001C8.64609 58.5788 9.80609 58.7957 10.9752 58.9501C13.0002 59.2751 14.9752 59.4751 16.9502 59.6001C19.9002 59.8001 22.8502 59.8251 25.8752 59.8501C29.8252 59.8501 33.8002 60.0751 37.7752 60.1001C40.4801 60.126 43.1843 60.0008 45.8752 59.7251L50.8752 59.0501C51.3448 59.0181 51.8122 58.9597 52.2752 58.8751C52.6315 58.7981 52.96 58.6252 53.2252 58.3751C53.4086 58.1838 53.5455 57.9528 53.6252 57.7001C53.6252 57.3751 53.7502 56.6501 53.8002 56.4501C53.8739 55.752 53.8739 55.0481 53.8002 54.3501C53.8002 53.4251 53.6502 52.5501 53.5502 51.5501C53.5502 51.3501 53.3752 50.7001 53.3252 50.4251C54.8252 47.5501 56.9002 45.0251 58.3252 42.1001C59.0318 40.6503 59.5043 39.0977 59.7252 37.5001C59.9764 35.5531 59.9173 33.5786 59.5502 31.6501ZM23.2752 28.5501C21.7466 28.0642 20.3633 27.205 19.2502 26.0501C17.7389 23.5347 16.8796 20.6817 16.7502 17.7501C16.5002 15.9501 16.3252 14.0751 16.2252 12.3001C17.5431 12.3706 18.8256 12.7516 19.9682 13.412C21.1108 14.0724 22.0812 14.9934 22.8002 16.1001C23.5854 17.664 24.0769 19.3587 24.2502 21.1001C24.6547 23.7332 24.9051 26.3877 25.0002 29.0501C24.4002 28.9001 23.8252 28.7501 23.2752 28.5501ZM43.1252 17.1751C43.126 19.3416 42.8573 21.4999 42.3252 23.6001C41.9736 24.8294 41.4429 26.0003 40.7502 27.0751C40.0765 28.0192 39.0955 28.6997 37.9752 29.0001C36.8128 29.3292 35.6256 29.5633 34.4252 29.7001H33.6252C33.9502 26.5751 34.3752 23.9251 34.7752 21.7001C35.0512 19.9483 35.6263 18.257 36.4752 16.7001C37.2372 15.6088 38.2401 14.7074 39.4062 14.0658C40.5724 13.4242 41.8706 13.0596 43.2002 13.0001C43.2002 14.4001 43.1752 15.8251 43.1252 17.1751Z" fill="black"/>
</g>
<defs>
<clipPath id="clip0_161_6830">
<rect width="60" height="60" fill="white"/>
</clipPath>
</defs>
</svg>
