<svg width="60" height="60" viewBox="0 0 60 60" fill="none" xmlns="http://www.w3.org/2000/svg">
<g clip-path="url(#clip0_165_7457)">
<path fill-rule="evenodd" clip-rule="evenodd" d="M52.7497 17.5C52.5097 15.8373 52.5604 14.1454 52.8997 12.5C53.0942 11.4583 53.5405 10.4799 54.1997 9.65004C55.0497 8.70004 52.8747 7.90004 52.6997 7.95004C51.8003 8.17326 50.8764 8.28245 49.9497 8.27504C48.5259 8.27439 47.1045 8.15733 45.6997 7.92504C43.997 7.68136 42.3223 7.27106 40.6997 6.70004C39.0602 6.18673 37.4771 5.50825 35.9747 4.67504C33.9211 3.63498 32.081 2.21881 30.5497 0.500043C30.4914 0.408852 30.4094 0.335143 30.3126 0.286729C30.2158 0.238315 30.1077 0.217 29.9997 0.225043C29.8499 0.0769534 29.6478 -0.00610352 29.4372 -0.00610352C29.2266 -0.00610352 29.0245 0.0769534 28.8747 0.225043C27.8863 1.23354 26.7973 2.13825 25.6247 2.92504C23.8212 4.12014 21.9422 5.19738 19.9997 6.15004C18.8247 6.82504 17.6497 7.50004 16.4247 8.10004C15.6679 8.47865 14.882 8.79632 14.0747 9.05004C13.4092 9.24659 12.7332 9.40518 12.0497 9.52504C10.3247 9.85004 8.57471 10 6.89971 10.425C6.71578 10.4615 6.55314 10.5678 6.44593 10.7216C6.33871 10.8755 6.29527 11.0649 6.32471 11.25C6.84877 12.2565 7.31617 13.2914 7.72471 14.35C7.99044 15.3781 8.10829 16.4387 8.07471 17.5C8.04386 18.1557 7.96026 18.8078 7.82471 19.45C7.64971 20.425 7.49971 21.425 7.17471 22.5C6.64971 25 6.07471 27.7 5.79971 30.35C5.63708 32.1631 5.63708 33.987 5.79971 35.8C6.05348 39.2939 7.28353 42.6462 9.34971 45.475C12.4568 49.4477 16.3236 52.7621 20.7247 55.225C22.4997 56.3 24.1497 57.55 25.9247 58.55C26.7258 59.007 27.5617 59.3999 28.4247 59.725C28.6143 59.8021 28.8262 59.8036 29.0169 59.7292C29.2076 59.6548 29.3625 59.5102 29.4497 59.325C29.4254 59.4236 29.4254 59.5265 29.4497 59.625C29.4992 59.7167 29.5666 59.7975 29.648 59.8625C29.7294 59.9276 29.8231 59.9755 29.9234 60.0035C30.0238 60.0315 30.1288 60.039 30.2321 60.0255C30.3354 60.012 30.4349 59.9779 30.5247 59.925C32.2497 59.025 34.1747 58.4 35.9997 57.6C36.8589 57.2372 37.6939 56.8196 38.4997 56.35C42.6848 53.7173 46.2773 50.2439 49.0497 46.15C51.8123 41.9947 53.63 37.284 54.3747 32.35C54.5997 30.3229 54.5997 28.2772 54.3747 26.25C53.8497 23.3 53.1747 20.425 52.7497 17.5ZM51.5747 31.9C50.8267 36.4553 49.1227 40.8006 46.5747 44.65C44.1038 48.5733 40.8841 51.9713 37.0997 54.65C36.4412 55.1256 35.7379 55.5359 34.9997 55.875C33.1997 56.775 31.2747 57.475 29.5497 58.375C29.4019 58.4816 29.2888 58.6295 29.2247 58.8C29.2235 58.6559 29.1834 58.5148 29.1086 58.3915C29.0338 58.2683 28.927 58.1676 28.7997 58.1C27.7703 57.6628 26.7898 57.1181 25.8747 56.475C24.4247 55.5 23.0497 54.375 21.5997 53.4C17.5865 50.8964 14.0833 47.6561 11.2747 43.85C9.53036 41.3705 8.47763 38.4712 8.22471 35.45C8.08854 33.7862 8.08854 32.1139 8.22471 30.45C8.39971 27.95 8.74971 25.275 9.09971 22.725C9.24971 21.65 9.47471 20.625 9.59971 19.575C9.72844 18.8903 9.80367 18.1965 9.82471 17.5C9.80063 16.5657 9.68339 15.6361 9.47471 14.725C9.23497 13.7297 8.92588 12.7523 8.54971 11.8C10.0497 11.8 11.5997 11.8 13.0997 11.625C13.619 11.5928 14.1363 11.5344 14.6497 11.45C15.6338 11.2466 16.5904 10.9277 17.4997 10.5C18.7916 9.88962 20.0516 9.21374 21.2747 8.47504C23.2219 7.31617 25.0849 6.02128 26.8497 4.60004C27.9029 3.75147 28.8738 2.80563 29.7497 1.77504C31.4256 4.28886 33.6804 6.36366 36.3247 7.82504C37.9981 8.79559 39.7988 9.52766 41.6747 10C42.9241 10.2829 44.1954 10.4585 45.4747 10.525C47.0139 10.6486 48.5605 10.6486 50.0997 10.525C50.9033 10.421 51.6974 10.2538 52.4747 10.025C51.9873 10.7999 51.6167 11.6422 51.3747 12.525C50.8946 14.3333 50.7339 16.2115 50.8997 18.075C51.1497 20.95 51.6247 23.85 51.7997 26.75C51.9012 28.4865 51.8258 30.2288 51.5747 31.95V31.9Z" fill="black"/>
<path fill-rule="evenodd" clip-rule="evenodd" d="M38.9994 27.975C38.4077 27.7585 37.7966 27.5994 37.1744 27.5C36.0994 27.325 35.0244 27.3 33.9744 27.075C33.8198 26.6803 33.6093 26.3098 33.3494 25.975C33.1095 25.3393 32.8255 24.7211 32.4994 24.125C32.2301 23.7172 31.9379 23.3249 31.6244 22.95C31.3458 22.6412 31.0261 22.372 30.6744 22.15C30.3823 21.9982 30.0514 21.9372 29.7244 21.975C29.5344 21.9901 29.3496 22.0446 29.1817 22.135C29.0139 22.2254 28.8666 22.3497 28.7494 22.5C28.4819 23.0042 28.2399 23.5215 28.0244 24.05L27.2494 25.75C27.0744 26.2 26.8744 26.675 26.6994 27.15L25.8744 27.3L23.9494 27.5L22.0994 27.675C21.6607 27.7074 21.2356 27.8418 20.858 28.0675C20.4804 28.2932 20.1607 28.6039 19.9244 28.975C19.7869 29.2773 19.7158 29.6054 19.7158 29.9375C19.7158 30.2695 19.7869 30.5977 19.9244 30.9C20.5968 32.5192 21.6831 33.9331 23.0744 35L23.7994 35.5C23.6913 35.8266 23.6077 36.1609 23.5494 36.5C23.0045 37.7046 22.6503 38.9866 22.4994 40.3C22.4891 40.7632 22.596 41.2215 22.8102 41.6323C23.0243 42.0431 23.3388 42.3932 23.7244 42.65C24.1118 42.8364 24.5325 42.9435 24.9618 42.9649C25.3911 42.9864 25.8204 42.9218 26.2244 42.775C27.5626 42.2398 28.8304 41.543 29.9994 40.7C30.3518 40.5098 30.694 40.3012 31.0244 40.075L32.0494 40.775C32.8134 41.3559 33.6549 41.8271 34.5494 42.175C35.0803 42.3678 35.6494 42.4321 36.21 42.3626C36.7706 42.2931 37.3067 42.0917 37.7744 41.775C38.1219 41.5271 38.37 41.1638 38.4744 40.75C38.5627 40.1532 38.5627 39.5467 38.4744 38.95L37.7744 35C38.0419 34.7671 38.2848 34.5074 38.4994 34.225C39.4501 33.5668 40.2934 32.7657 40.9994 31.85C41.3945 31.2614 41.5794 30.5567 41.5244 29.85C41.489 29.6252 41.4088 29.4097 41.2885 29.2165C41.1683 29.0232 41.0105 28.8561 40.8244 28.725C40.2534 28.3924 39.6393 28.1401 38.9994 27.975ZM38.3994 31C37.936 31.4438 37.4341 31.8453 36.8994 32.2C36.8994 32.2 35.8744 32.925 35.5244 33.25C35.3413 33.405 35.1981 33.6017 35.1067 33.8236C35.0154 34.0454 34.9786 34.286 34.9994 34.525L35.8994 39.3C35.9173 39.4327 35.9173 39.5673 35.8994 39.7C35.5909 39.6747 35.2919 39.5808 35.0244 39.425C33.7673 38.5465 32.4175 37.8088 30.9994 37.225C30.786 37.1757 30.564 37.1771 30.3512 37.2292C30.1385 37.2813 29.9409 37.3826 29.7744 37.525C29.4494 37.775 28.7244 38.45 28.5994 38.55C27.904 39.0839 27.1777 39.5765 26.4244 40.025C26.1111 40.2161 25.7752 40.3673 25.4244 40.475C25.2744 40.475 25.1244 40.625 25.0244 40.475C24.9244 40.325 25.0244 40.275 25.0244 40.125C25.0009 39.8755 25.0009 39.6244 25.0244 39.375C25.1933 38.582 25.4275 37.8044 25.7244 37.05C25.7244 37.05 26.1994 35.95 26.3244 35.5C26.3751 35.3202 26.388 35.1318 26.3622 34.9468C26.3364 34.7617 26.2724 34.584 26.1744 34.425C25.9864 34.1799 25.7582 33.9686 25.4994 33.8C25.1494 33.525 24.6494 33.325 24.3494 33.1C23.2274 32.3928 22.313 31.4008 21.6994 30.225C21.5494 29.8 21.6994 29.525 22.5244 29.375L24.1494 29.15C27.2494 28.9 27.5244 30.275 27.7494 29.15C27.9766 28.2222 28.3123 27.3243 28.7494 26.475L29.5244 24.9C29.6973 24.6337 29.8559 24.3583 29.9994 24.075C30.3008 24.4544 30.5606 24.8651 30.7744 25.3C31.0162 25.7546 31.2332 26.2219 31.4244 26.7C31.4244 26.7 31.7744 27.8 31.9494 28.2C32.0153 28.3548 32.1144 28.4932 32.2397 28.6055C32.365 28.7178 32.5134 28.8013 32.6744 28.85C33.9494 29.25 35.1744 29.35 36.5994 29.65C37.0788 29.7457 37.5477 29.888 37.9994 30.075C38.2043 30.2489 38.4215 30.4076 38.6494 30.55C38.579 30.7068 38.4954 30.8574 38.3994 31Z" fill="black"/>
<path fill-rule="evenodd" clip-rule="evenodd" d="M45.6499 23.6249C46.9999 23.3249 46.4749 21.4999 46.5749 19.8499C46.6809 18.9788 46.7393 18.1025 46.7499 17.2249C46.7254 16.6457 46.5439 16.084 46.2249 15.5999C45.8782 15.177 45.4643 14.8139 44.9999 14.5249C44.1965 14.0217 43.3614 13.5707 42.4999 13.1749C41.6184 12.7825 40.6961 12.489 39.7499 12.2999C38.4271 12.058 37.0916 11.8911 35.7499 11.7999C33.2534 11.6136 30.7465 11.6136 28.2499 11.7999C25.7095 11.9702 23.1949 12.4145 20.7499 13.1249C19.4999 13.4749 18.2499 13.8249 16.8499 14.3249C16.5499 14.3249 13.7999 15.5999 13.7499 16.0499L13.4999 18.6999V21.9999C13.4779 22.3829 13.4779 22.7669 13.4999 23.1499C13.5469 23.3637 13.6407 23.5643 13.7748 23.7372C13.9088 23.9102 14.0797 24.0512 14.2749 24.1499C14.7022 24.3578 15.1756 24.4525 15.6499 24.4249L16.2499 24.2499C15.5861 25.4414 15.0257 26.6877 14.5749 27.9749C13.9987 29.5807 13.6863 31.2693 13.6499 32.9749C13.5971 34.6524 13.7397 36.3304 14.0749 37.9749C14.3987 39.6651 15.0255 41.2828 15.9249 42.7499C17.4546 44.9677 19.496 46.7844 21.8763 48.0464C24.2566 49.3084 26.9059 49.9784 29.5999 49.9999C32.3002 50.1281 34.9895 49.5774 37.422 48.3982C39.8546 47.2191 41.9528 45.449 43.5249 43.2499C45.5525 40.1462 46.749 36.5737 46.9999 32.8749C47.2675 29.6318 46.4401 26.3925 44.6499 23.6749C44.984 23.6812 45.3182 23.6645 45.6499 23.6249ZM44.9999 32.7999C44.6513 36.1065 43.4543 39.267 41.5249 41.9749C40.152 43.8008 38.3502 45.2601 36.279 46.2237C34.2077 47.1874 31.9309 47.6257 29.6499 47.4999C27.3605 47.5178 25.0995 46.9923 23.0526 45.9667C21.0056 44.9411 19.2312 43.4445 17.8749 41.5999C17.0257 40.3627 16.4309 38.969 16.1249 37.4999C15.744 36.029 15.5343 34.519 15.4999 32.9999C15.4616 31.4431 15.6726 29.8901 16.1249 28.3999C16.568 26.878 17.1802 25.4105 17.9499 24.0249C17.962 23.9086 17.962 23.7913 17.9499 23.6749L21.9999 22.4999C22.1089 22.4704 22.2102 22.4174 22.2966 22.3446C22.3829 22.2719 22.4524 22.1811 22.5 22.0787C22.5476 21.9763 22.5723 21.8648 22.5723 21.7518C22.5723 21.6389 22.5476 21.5273 22.4999 21.4249C22.4522 21.2201 22.3258 21.0424 22.148 20.9301C21.9702 20.8178 21.7554 20.78 21.5499 20.8249L16.9249 21.4499L15.9249 21.5999L15.4499 18.4999L15.1999 16.6749C15.87 16.2853 16.5832 15.9749 17.3249 15.7499C18.5999 15.3749 19.9999 15.1499 21.1749 14.9999C23.5067 14.5459 25.8746 14.3032 28.2499 14.2749C30.6372 14.2241 33.0253 14.3243 35.3999 14.5749C36.648 14.6535 37.8913 14.7953 39.1249 14.9999C39.8949 15.1401 40.6488 15.3579 41.3749 15.6499C42.0681 15.8976 42.7445 16.1899 43.3999 16.5249C43.7344 16.6678 44.0395 16.8712 44.2999 17.1249C44.4749 17.3249 44.4249 17.6999 44.4249 18.0999V19.8749V21.8749C44.1088 21.8997 43.7911 21.8997 43.4749 21.8749C41.7829 21.2879 40.0143 20.951 38.2249 20.8749C38.0171 20.894 37.8249 20.9936 37.6895 21.1524C37.554 21.3112 37.486 21.5167 37.4999 21.7249C37.5062 21.8291 37.5333 21.9309 37.5799 22.0242C37.6264 22.1176 37.6913 22.2007 37.7706 22.2683C37.85 22.336 37.9422 22.387 38.0418 22.4182C38.1413 22.4494 38.2461 22.4602 38.3499 22.4499C39.7774 22.527 41.1811 22.8483 42.4999 23.3999C42.4999 23.3999 42.4999 23.5499 42.4999 23.5999C43.5129 24.8871 44.2563 26.365 44.6858 27.9456C45.1153 29.5262 45.2222 31.1771 44.9999 32.7999Z" fill="black"/>
</g>
<defs>
<clipPath id="clip0_165_7457">
<rect width="60" height="60" fill="white"/>
</clipPath>
</defs>
</svg>
