<svg width="60" height="60" viewBox="0 0 60 60" fill="none" xmlns="http://www.w3.org/2000/svg">
<g clip-path="url(#clip0_168_4980)">
<path d="M59.35 22.25C58.525 21.875 57.8 21.45 56.85 21.15C55.9 20.85 55.775 20.875 55.225 20.725H53.525V20.55C53.6056 19.3939 53.5214 18.2323 53.275 17.1C52.902 15.3343 52.2343 13.644 51.3 12.1C50.838 11.3196 50.3287 10.5682 49.775 9.84998L50.75 9.37498C51.0194 9.22618 51.2784 9.05912 51.525 8.87498C51.7791 8.70052 52.0065 8.48998 52.2 8.24998C52.6882 7.67091 53.1392 7.06134 53.55 6.42498C53.7053 6.30196 53.8056 6.12249 53.829 5.92576C53.8524 5.72903 53.7971 5.53103 53.675 5.37498C53.5475 5.21803 53.3638 5.11712 53.1629 5.09376C52.9621 5.07041 52.7601 5.12647 52.6 5.24998C52 5.52498 51.275 5.69998 50.525 6.09998C50.3418 6.22223 50.1665 6.35582 50 6.49998C49.7576 6.68874 49.5318 6.89783 49.325 7.12498C49.025 7.47498 48.75 7.77498 48.525 8.07498C48.4471 7.95571 48.3547 7.84654 48.25 7.74998C47.3146 6.68713 46.1643 5.835 44.875 5.24998C43.8826 4.8909 42.8121 4.80456 41.775 4.99998C40.2666 5.28977 38.82 5.83962 37.5 6.62498C35.5974 7.70519 33.8055 8.96959 32.15 10.4C32.15 10.4 25.25 15.4 23.75 16.15C22.5883 16.8086 21.4769 17.5523 20.425 18.375C19.1817 19.3549 18.0041 20.4156 16.9 21.55C16.7544 21.6555 16.6549 21.8131 16.6224 21.99C16.5898 22.1668 16.6265 22.3495 16.725 22.5C16.725 22.5 17.875 23.3 17.875 23.325C18.2753 23.4614 18.6846 23.57 19.1 23.65C19.4056 23.7754 19.6919 23.9438 19.95 24.15C21.8155 25.5695 23.18 27.5467 23.8454 29.7945C24.5107 32.0424 24.4423 34.4437 23.65 36.65C23.2072 38.8691 22.1155 40.9067 20.5132 42.5045C18.911 44.1024 16.8703 45.1884 14.65 45.625C14.0527 45.6872 13.4494 45.5924 12.9 45.35C12.2137 45.0618 11.56 44.7014 10.95 44.275C9.68016 43.4197 8.55728 42.3644 7.62498 41.15C6.6351 39.9121 5.79588 38.561 5.12498 37.125C4.72458 36.3405 4.45439 35.4962 4.32498 34.625C4.19818 33.8676 4.31184 33.0895 4.64998 32.4C5.3139 31.2921 6.15896 30.3033 7.14998 29.475C8.70487 28.1416 10.3785 26.9533 12.15 25.925L15.675 23.575C15.8061 23.4654 15.8959 23.3144 15.9295 23.1469C15.9631 22.9794 15.9385 22.8054 15.8597 22.6538C15.781 22.5022 15.6529 22.382 15.4965 22.3131C15.3402 22.2442 15.165 22.2308 15 22.275L11.525 24.375C9.57257 25.3611 7.71478 26.5243 5.97498 27.85C4.69966 28.7828 3.59939 29.9339 2.72498 31.25C2.20977 32.112 1.93363 33.0958 1.92498 34.1C1.93099 35.4801 2.2292 36.8434 2.79998 38.1C2.90177 38.2866 2.99357 38.4786 3.07498 38.675L2.24998 39.05C2.04391 39.1514 1.85084 39.2773 1.67498 39.425C1.48436 39.5875 1.32361 39.7821 1.19998 40C-0.300017 41.9 -0.0250169 42.175 0.0999831 42.375C0.549983 43.1 2.59998 42.375 2.89998 42.125C3.12311 42.0301 3.32659 41.8945 3.49998 41.725C3.67716 41.5773 3.83657 41.4095 3.97498 41.225C4.03533 41.1289 4.10215 41.037 4.17498 40.95C4.5448 41.6234 4.95383 42.2745 5.39998 42.9C6.49344 44.3799 7.82887 45.6646 9.34998 46.7C10.3223 47.343 11.3835 47.8399 12.5 48.175L11.875 49.7C11.875 50.25 11.65 50.8 11.6 51.375C11.5917 52.2516 11.6335 53.1281 11.725 54C11.6993 54.1178 11.6998 54.2399 11.7264 54.3576C11.753 54.4752 11.8051 54.5856 11.879 54.6809C11.9529 54.7763 12.0468 54.8543 12.1541 54.9094C12.2614 54.9645 12.3794 54.9954 12.5 55C12.6118 55.0215 12.7268 55.0204 12.8381 54.9966C12.9495 54.9728 13.0549 54.927 13.1482 54.8617C13.2414 54.7964 13.3206 54.713 13.3811 54.6165C13.4415 54.52 13.4819 54.4124 13.5 54.3C13.825 53.475 14.2 52.7 14.45 51.8C14.7 50.9 14.625 50.65 14.725 50.075L14.55 48.55V48.325H15C17.7388 47.7588 20.2463 46.388 22.2015 44.3883C24.1567 42.3886 25.4706 39.8508 25.975 37.1C26.7259 33.9745 26.4632 30.6913 25.225 27.725C25.225 27.325 25.775 27 26.275 26.6L27 26.15C27.3585 25.9205 27.7347 25.7198 28.125 25.55C28.4962 25.3252 28.9092 25.1782 29.339 25.118C29.7688 25.0579 30.2063 25.0858 30.625 25.2C32.7628 27.0276 35.3537 28.2453 38.125 28.725C40.8509 29.3431 43.6998 29.125 46.2998 28.0993C48.8999 27.0735 51.1303 25.2877 52.7 22.975C52.7 22.825 52.825 22.675 52.9 22.55H53.125L54.475 23.275C55.0306 23.4576 55.5988 23.5997 56.175 23.7C57.0077 23.7455 57.8423 23.7455 58.675 23.7C58.7817 23.7886 58.909 23.8489 59.0452 23.8753C59.1814 23.9016 59.322 23.8933 59.454 23.8509C59.5861 23.8085 59.7054 23.7335 59.8008 23.6329C59.8962 23.5322 59.9647 23.4091 60 23.275C60.0257 23.1649 60.0293 23.0509 60.0105 22.9394C59.9916 22.828 59.9507 22.7214 59.8902 22.626C59.8297 22.5306 59.7507 22.4481 59.658 22.3836C59.5652 22.319 59.4605 22.2736 59.35 22.25ZM50.4 21.6C49.1716 23.5185 47.3931 25.022 45.2969 25.914C43.2007 26.806 40.8842 27.0451 38.65 26.6C36.3333 26.444 34.1234 25.5671 32.3301 24.0922C30.5368 22.6172 29.25 20.6181 28.65 18.375C28.6376 18.2601 28.6018 18.1489 28.545 18.0483C28.4882 17.9477 28.4114 17.8597 28.3194 17.7898C28.2275 17.7198 28.1222 17.6693 28.01 17.6415C27.8979 17.6136 27.7812 17.6088 27.6672 17.6276C27.5532 17.6463 27.4441 17.6881 27.3468 17.7503C27.2495 17.8126 27.1658 17.8941 27.101 17.9898C27.0363 18.0855 26.9917 18.1934 26.97 18.3069C26.9483 18.4204 26.95 18.5371 26.975 18.65C27.1981 20.1728 27.7621 21.6255 28.625 22.9H27.825C27.2564 23.0046 26.7079 23.1987 26.2 23.475C25.6881 23.7382 25.2234 24.0846 24.825 24.5C24.5281 24.8379 24.2683 25.2067 24.05 25.6C23.2013 24.4442 22.1408 23.4601 20.925 22.7L20 22.175C19.7977 22.0969 19.5884 22.0383 19.375 22L21.875 20.625C23.0049 19.9662 24.083 19.2224 25.1 18.4C26.45 17.5 32.5 12.5 33.2 11.85C34.8329 10.5865 36.5824 9.48152 38.425 8.54998C39.5627 7.99091 40.7896 7.63553 42.05 7.49998C42.8043 7.44141 43.5576 7.62535 44.2 8.02498C44.939 8.48065 45.5978 9.05502 46.15 9.72498C47.2346 10.8698 48.1826 12.1366 48.975 13.5C49.7366 14.8288 50.277 16.2727 50.575 17.775C50.7232 18.4995 50.8069 19.2357 50.825 19.975C50.8293 20.5447 50.6827 21.1054 50.4 21.6Z" fill="black"/>
<path d="M44.7252 12.5C42.4752 10.525 41.6252 10.875 38.2252 12.075C37.7752 12.25 37.3502 12.55 36.9002 12.775C35.5002 14.125 36.3252 15.275 37.6752 14.8C38.1502 14.525 38.6252 14.225 39.1002 14C41.1002 13.05 41.0502 13 42.0752 13.125C42.845 13.2835 43.5249 13.7308 43.9752 14.375C44.7752 15.275 46.4752 17.225 46.4752 17.225C46.9252 18.125 47.8502 17.675 47.6502 16.875C46.9512 15.2499 45.9598 13.767 44.7252 12.5Z" fill="black"/>
</g>
<defs>
<clipPath id="clip0_168_4980">
<rect width="60" height="60" fill="white"/>
</clipPath>
</defs>
</svg>
