<svg width="60" height="60" viewBox="0 0 60 60" fill="none" xmlns="http://www.w3.org/2000/svg">
<g clip-path="url(#clip0_165_7150)">
<path fill-rule="evenodd" clip-rule="evenodd" d="M43.3253 21.675C40.8253 24 37.5753 27.025 34.1503 30.275L31.9003 32.475L27.5003 36.9C25.0003 39.4 22.7003 41.9 20.7503 43.8L20.4503 44.05C19.8503 45.2 20.0003 45.85 21.7003 45.6C23.7503 44.025 26.3003 41.725 28.9003 39.375C30.1753 38.225 31.4003 37.025 32.7503 35.75C34.1003 34.475 35.2503 33.25 36.4253 31.975C39.5753 28.6 42.3753 25.225 44.4753 22.7C44.5472 22.6301 44.6042 22.5466 44.6432 22.4543C44.6822 22.3619 44.7023 22.2627 44.7023 22.1625C44.7023 22.0623 44.6822 21.9631 44.6432 21.8708C44.6042 21.7785 44.5472 21.6949 44.4753 21.625C44.3992 21.5477 44.3078 21.4872 44.2068 21.4474C44.1058 21.4077 43.9976 21.3896 43.8892 21.3943C43.7808 21.399 43.6746 21.4264 43.5775 21.4748C43.4803 21.5231 43.3944 21.5914 43.3253 21.675Z" fill="black"/>
<path fill-rule="evenodd" clip-rule="evenodd" d="M55 3.675C52.6077 1.42606 49.4813 0.120436 46.2 0C44.833 0.0687643 43.492 0.399775 42.25 0.975C40.5193 1.86812 38.9548 3.05201 37.625 4.475C36.9096 5.23052 36.2884 6.06997 35.775 6.975C35.6656 7.16957 35.6281 7.39649 35.6692 7.61593C35.7104 7.83537 35.8275 8.0333 36 8.175C36.0775 8.23745 36.167 8.2833 36.2629 8.30968C36.3588 8.33606 36.4592 8.34241 36.5577 8.32834C36.6561 8.31427 36.7507 8.28008 36.8354 8.22789C36.9201 8.1757 36.9932 8.10664 37.05 8.025L38.825 5.9C39.8872 4.91795 41.072 4.07763 42.35 3.4C43.551 2.79406 44.8799 2.4854 46.225 2.5C48.8205 2.785 51.2433 3.93916 53.1 5.775C54.1103 6.53565 54.9393 7.51096 55.5273 8.63063C56.1152 9.7503 56.4474 10.9864 56.5 12.25C56.429 14.1583 55.9155 16.0241 55 17.7C54.0083 19.4658 52.771 21.082 51.325 22.5H51.2C50.725 21.925 50.075 21.175 49.275 20.325C45.95 16.875 40.3 11.375 38.375 9.35C38.2157 9.19123 38 9.10208 37.775 9.10208C37.5501 9.10208 37.3344 9.19123 37.175 9.35C37.0147 9.51356 36.9249 9.73347 36.9249 9.9625C36.9249 10.1915 37.0147 10.4114 37.175 10.575C37.675 11.125 44.675 18.3 46.525 20.35C47.85 21.75 49.025 22.85 49.625 23.75L49.8 23.975C49.325 24.55 48.45 25.45 47.3 26.625C40.7 33.275 25.375 48.05 20 52.9C20 51.375 20 48.6 19.825 47.325C19.7485 46.9406 19.5718 46.5833 19.3127 46.2892C19.0537 45.9951 18.7216 45.7746 18.35 45.65H17.275C16.35 45.65 15.425 45.875 14.45 45.925C14.45 44.5 14.625 42.3 14.45 41.275C14.3819 40.8194 14.1709 40.3971 13.8474 40.0692C13.524 39.7412 13.1047 39.5244 12.65 39.45C11.35 39.45 9.52503 39.45 7.77503 39.3H6.50003C6.79673 38.8082 7.13106 38.3402 7.50003 37.9C12.775 31.95 25.75 19.15 31.65 13.35C34.7 10.375 34.15 11.025 34.75 10.3C34.812 10.2119 34.8468 10.1076 34.85 10C34.8881 9.85817 34.8822 9.70813 34.833 9.56974C34.7839 9.43135 34.694 9.31113 34.575 9.225C34.4581 9.15443 34.3241 9.11714 34.1875 9.11714C34.051 9.11714 33.917 9.15443 33.8 9.225C32.6485 10.158 31.547 11.151 30.5 12.2C24.4 17.875 11.05 30.35 5.50003 36.2C4.40144 37.2913 3.51925 38.5807 2.90003 40C2.72503 41.275 1.50003 49.4 1.05003 54.25C0.92696 55.3287 0.876846 56.4145 0.900034 57.5C0.927926 57.9239 1.07527 58.3313 1.32503 58.675C1.75337 59.1117 2.2873 59.4304 2.87503 59.6C4.3805 60.0081 5.94685 60.1436 7.50003 60C11.6433 59.6037 15.7046 58.5926 19.55 57C20.55 56.425 33.35 43.975 42.525 34.675C46.35 30.775 49.55 27.425 51 25.775C53.1434 23.633 55.0849 21.2981 56.8 18.8C58.0235 16.8983 58.8013 14.7446 59.075 12.5C59.1249 10.814 58.7828 9.13945 58.0757 7.6081C57.3686 6.07675 56.3158 4.7304 55 3.675ZM10.45 56.575C8.65677 56.9404 6.83007 57.1164 5.00003 57.1C4.63407 57.1322 4.26599 57.1322 3.90003 57.1V56.2C3.90003 54.775 4.17503 52.65 4.40003 50.4L5.17503 50.925C5.34562 51.0615 5.5045 51.212 5.65003 51.375C6.05003 51.775 6.37503 52.2 6.75003 52.6L7.92503 53.8C8.50003 54.35 9.10003 54.825 9.70003 55.35L11.1 56.55L10.45 56.575ZM18.15 54.5C16.4139 55.2347 14.6033 55.7796 12.75 56.125C12.6892 55.8518 12.6056 55.5842 12.5 55.325C12.1718 54.7583 11.8043 54.2153 11.4 53.7C11.05 53.2 10.725 52.7 10.375 52.225C9.99257 51.7522 9.58358 51.3015 9.15003 50.875C8.52026 50.3018 7.84281 49.7832 7.12503 49.325C6.80192 49.1532 6.46787 49.0029 6.12503 48.875L4.87503 48.525H4.57503C4.92503 45.425 5.30003 42.425 5.47503 41.025C6.17503 41.025 6.97503 41.175 7.82503 41.3C9.25003 41.5 10.725 41.75 11.925 41.95C11.925 43.325 11.625 45.675 11.65 46.8C11.6499 47.2725 11.7703 47.7371 12 48.15C12.1241 48.3384 12.2904 48.4952 12.4857 48.6081C12.681 48.7209 12.8999 48.7866 13.125 48.8C13.7485 48.8628 14.3766 48.8628 15 48.8C15.925 48.65 16.775 48.375 17.675 48.275C18.025 50.05 18.325 53.55 18.35 54.075C18.3212 54.1983 18.3212 54.3267 18.35 54.45L18.15 54.5Z" fill="black"/>
<path fill-rule="evenodd" clip-rule="evenodd" d="M26.825 24.8C25.225 26.425 23.625 28.075 22.125 29.675C19.4 32.575 17.125 35.3 15.225 37.175C13.875 38.6 14.85 39.8 16.475 38.725L19.475 36C21.125 34.475 23.025 32.75 24.975 30.825C26.925 28.9 28.525 27.275 30.225 25.45C33.85 21.55 37.25 17.775 39.3 15.45C40.1 14.775 38.975 13.7 37.875 14.45C35.75 16.325 32.5 19.1 29.2 22.5C28.4 23.175 27.5 23.975 26.825 24.8Z" fill="black"/>
</g>
<defs>
<clipPath id="clip0_165_7150">
<rect width="60" height="60" fill="white"/>
</clipPath>
</defs>
</svg>
