<svg width="60" height="60" viewBox="0 0 60 60" fill="none" xmlns="http://www.w3.org/2000/svg">
<path d="M48.3086 12.8184C44.6431 3.9479 38.4851 1.94415 38.0696 1.94415C37.3121 1.8954 34.3064 1.2844 31.1296 0.9179C29.5094 0.70465 27.8766 0.5984 26.2424 0.60015C23.5294 0.5829 20.8646 1.3189 18.5449 2.72615C16.3269 4.1919 14.4854 6.15915 13.1689 8.46865C10.6721 12.5202 9.18861 17.1137 8.84361 21.8599C8.21186 28.7627 8.66536 35.7219 10.1876 42.4844C10.6571 44.9994 11.3944 47.4572 12.3869 49.8154C13.4211 52.0949 14.6131 54.2997 15.9546 56.4132C16.5599 57.2514 17.4156 57.8759 18.3981 58.1972C20.2561 58.8057 22.1879 59.1589 24.1409 59.2479C28.1659 59.6047 32.2221 59.3327 36.1636 58.4414C37.4886 58.0324 38.7666 57.4837 39.9756 56.8042C41.1694 56.1249 42.2771 55.3047 43.2746 54.3604C45.7741 51.6437 47.6874 48.4412 48.8949 44.9524C52.4699 34.5032 52.2624 23.1304 48.3086 12.8184ZM19.9134 4.87665C21.8391 3.6904 24.0539 3.0564 26.3156 3.0439C27.8414 3.0134 29.3676 3.07865 30.8854 3.2394C32.4736 3.4104 33.9886 3.6059 35.2351 3.7769C34.6741 4.19515 34.1434 4.65265 33.6466 5.1454C32.6054 6.2094 31.6799 7.3809 30.8854 8.6399C30.3949 9.33765 29.9459 10.0639 29.5414 10.8146L23.2366 13.5271C22.2104 13.9669 20.5486 14.7489 20.4264 14.7489C20.3041 14.7489 19.9379 14.3091 19.7424 14.1379C18.9846 13.4539 17.9584 12.5251 17.0299 11.6944L15.3194 9.9594C16.4191 7.9199 17.9951 6.1764 19.9134 4.87665ZM14.4884 11.5234C15.2459 12.6229 16.2479 13.9669 17.1764 15.1154C17.8276 15.9666 18.6016 16.7161 19.4734 17.3391C19.7649 17.4681 20.0871 17.5106 20.4021 17.4614C21.1839 17.3056 21.9404 17.0424 22.6501 16.6794C24.3119 15.8974 26.5601 14.5289 28.3439 13.4294C27.7506 14.9231 27.2686 16.4586 26.9021 18.0234C26.3401 18.3656 25.6314 18.7566 24.8494 19.1474C23.3589 19.9051 21.6239 20.6626 20.3286 21.2001C19.8889 21.3956 19.0824 21.8599 18.9359 21.9089C18.5211 21.6037 18.1291 21.2689 17.7629 20.9069C16.8201 20.2229 15.9146 19.4886 15.0504 18.7076C14.1949 17.9869 13.3791 17.2201 12.6069 16.4106C13.0486 14.7161 13.6799 13.0766 14.4884 11.5234ZM11.5316 22.1532C11.6781 20.8582 11.8736 19.7096 12.1181 18.3899C13.1481 19.8771 14.2919 21.2824 15.5391 22.5931C16.3949 23.5444 17.4929 24.2454 18.7159 24.6212C18.9976 24.6837 19.2896 24.6837 19.5711 24.6212C20.5091 24.2639 21.4161 23.8309 22.2836 23.3261C23.6031 22.5686 25.1184 21.6157 26.4134 20.6869C26.4134 21.1269 26.2669 21.5421 26.2179 21.9576C25.9644 23.9596 25.8339 25.9754 25.8269 27.9934C24.7274 27.6514 23.1634 27.4804 21.4039 27.4804H18.9604H16.5166C14.5861 27.6024 12.7779 27.8469 11.3116 27.9692C11.2811 26.0279 11.3546 24.0864 11.5316 22.1532ZM11.2629 29.3619C12.8756 29.5574 15.0749 29.9239 17.2741 29.9239H21.2084L25.8514 29.6306V32.0744C25.8514 32.8074 25.8514 33.1741 26.0224 33.7116C24.5806 33.5406 22.8214 33.3206 20.8909 33.1496C20.0844 33.1496 19.2536 33.1496 18.4471 33.0029C17.6406 32.8561 16.8099 33.0029 16.0034 33.0029C14.3906 33.0029 12.8266 33.2474 11.4339 33.4184C11.3849 32.1476 11.3116 30.7791 11.2629 29.3619ZM12.8756 41.8979C12.3966 39.6859 12.0296 37.4512 11.7759 35.2024C13.1199 35.3489 14.6106 35.5444 16.1746 35.6909H18.6181H21.0619C23.0901 35.6909 24.9716 35.4954 26.4624 35.3976C26.7669 37.6964 27.2156 39.9734 27.8064 42.2156C26.3896 41.1194 24.9041 40.1154 23.3589 39.2099C22.3561 38.5804 21.2159 38.2029 20.0354 38.1101C19.2466 38.3209 18.5184 38.7144 17.9096 39.2586C16.2941 40.6951 14.7604 42.2207 13.3154 43.8284L12.8756 41.8979ZM15.8569 50.1574L15.6614 50.4019C15.3926 49.8154 15.1239 49.2534 14.9039 48.7157C14.4816 47.7127 14.1226 46.6844 13.8286 45.6367L14.0241 45.4902C15.0994 44.6349 17.2009 43.0464 18.9114 41.9224C19.6201 41.4336 20.5241 40.8959 20.5241 40.8959C21.2359 41.1102 21.9176 41.4139 22.5524 41.8002C24.6784 42.8264 27.4399 44.2439 28.7839 45.1724C29.1639 46.6319 29.6289 48.0679 30.1766 49.4732C28.4146 48.5087 26.6039 47.6359 24.7516 46.8587C23.7116 46.4204 22.6314 46.0846 21.5261 45.8566C21.1474 45.7184 20.7319 45.7184 20.3531 45.8566C18.6976 47.1604 17.1529 48.5989 15.7346 50.1574H15.8569ZM24.3364 56.8042C22.6726 56.6699 21.0314 56.3334 19.4491 55.8022C18.9454 55.6852 18.4921 55.4114 18.1539 55.0204C17.4209 53.7742 16.7854 52.5767 16.2724 51.6724L16.8099 51.2814C18.2424 50.1959 19.7354 49.1922 21.2819 48.2759C22.8284 47.3597 23.5056 49.1067 24.6541 49.4977C27.0976 50.3284 29.9569 51.2327 31.5696 51.9414C33.1824 52.6502 31.7161 52.2102 31.7894 52.3079C32.7311 53.8172 33.8556 55.2042 35.1374 56.4377C31.5701 57.0469 27.9366 57.1702 24.3364 56.8042ZM47.2334 44.1217C46.0944 47.3462 44.2874 50.2942 41.9306 52.7722C41.0289 53.5977 40.0369 54.3189 38.9739 54.9227C38.2964 55.2752 37.5939 55.5774 36.8721 55.8267C35.5021 54.4904 34.3259 52.9687 33.3779 51.3059C31.8114 48.3184 30.6681 45.1274 29.9811 41.8247C29.2549 38.6099 28.7971 35.3404 28.6126 32.0499C28.2831 28.4834 28.2341 24.8967 28.4661 21.3224C28.7301 15.6929 31.0014 10.3444 34.8684 6.2449C35.6586 5.39815 36.5634 4.66615 37.5564 4.07015H38.0451C38.4119 4.07015 43.2746 6.02515 46.6714 13.5516C50.7734 23.3091 50.9744 34.2689 47.2334 44.1704V44.1217Z" fill="black"/>
<path d="M35.8704 23.1308C36.1636 24.6458 36.4324 26.1365 36.6034 27.627C36.9804 30.997 36.7487 34.407 35.9192 37.695C35.1382 41.0123 33.7906 44.1703 31.9361 47.0298C31.5786 47.5375 31.9052 48.242 32.5237 48.2975C32.8109 48.3233 33.0899 48.194 33.2557 47.9583C35.4532 45.0168 37.1084 41.7065 38.1429 38.1838C39.2114 34.6308 39.6009 30.9088 39.2914 27.2118C38.8402 23.8733 38.0207 20.595 36.8479 17.437C35.8937 14.8178 34.5686 12.349 32.9136 10.106C32.0584 9.64175 31.8384 10.6925 31.9606 11.499C32.8654 13.0485 33.6104 14.686 34.1844 16.3863C34.8992 18.5935 35.4626 20.8468 35.8704 23.1308Z" fill="black"/>
</svg>
