<svg width="60" height="60" viewBox="0 0 60 60" fill="none" xmlns="http://www.w3.org/2000/svg">
<g clip-path="url(#clip0_165_7349)">
<path d="M27.1249 31.8749C26.6749 32.3249 25.9499 33.0999 25.1999 33.7499C24.8636 34.0591 24.474 34.3048 24.0499 34.4749L21.7749 33.1749C21.1043 32.9086 20.3816 32.7994 19.6622 32.8557C18.9429 32.9121 18.2459 33.1324 17.6249 33.4999C16.4271 34.212 15.5362 35.3434 15.1249 36.6749C14.6801 39.1623 15.1698 41.7264 16.4999 43.8749C16.9071 44.7218 17.5705 45.419 18.3962 45.8678C19.2218 46.3165 20.1678 46.4939 21.0999 46.3749C21.6968 46.2609 22.2488 45.9794 22.6915 45.5633C23.1342 45.1471 23.4493 44.6135 23.5999 44.0249C23.7728 43.4572 23.7539 42.8483 23.546 42.2925C23.3381 41.7367 22.9529 41.2648 22.4499 40.9499C22.3612 40.8677 22.2559 40.8054 22.1412 40.7671C22.0265 40.7289 21.9049 40.7156 21.7846 40.7281C21.6643 40.7406 21.548 40.7786 21.4436 40.8396C21.3392 40.9006 21.249 40.9832 21.179 41.0818C21.1091 41.1805 21.061 41.293 21.0379 41.4117C21.0149 41.5304 21.0175 41.6527 21.0455 41.7704C21.0735 41.888 21.1263 41.9984 21.2004 42.094C21.2744 42.1896 21.368 42.2683 21.4749 42.3249C21.6447 42.4625 21.7672 42.6497 21.8254 42.8604C21.8837 43.071 21.8748 43.2945 21.7999 43.4999C21.7296 43.7072 21.6039 43.8913 21.4365 44.0323C21.269 44.1733 21.0662 44.2659 20.8499 44.2999C19.5999 44.4249 18.8749 43.1249 18.3499 41.7999C17.7128 40.4618 17.5201 38.9552 17.7999 37.4999C18.0089 36.8262 18.4524 36.2497 19.0499 35.8749C19.3159 35.6989 19.618 35.5851 19.9339 35.5418C20.2499 35.4986 20.5715 35.5269 20.8749 35.6249C21.4499 35.7749 22.2749 36.3499 23.0499 36.5749C23.6291 36.7984 24.2708 36.7984 24.8499 36.5749C25.3906 36.3225 25.8816 35.9753 26.2999 35.5499C27.0739 34.7604 27.8002 33.9256 28.4749 33.0499L28.9499 32.3749C29.5749 31.5749 28.5249 30.7999 27.7749 31.2749L27.1249 31.8749Z" fill="black"/>
<path d="M59.5001 23.9249C58.9314 22.6968 58.209 21.5459 57.3501 20.4999C55.59 18.1072 53.6422 15.8584 51.5251 13.7749C49.4184 11.6624 47.1164 9.75385 44.6501 8.07493L40.0001 4.09993C39.2212 3.48605 38.3838 2.95015 37.5001 2.49993C36.8201 2.19105 36.0936 1.99677 35.3501 1.92493C35.2378 1.91105 35.1238 1.92043 35.0152 1.9525C34.9067 1.98457 34.8059 2.03863 34.7191 2.11132C34.6324 2.18402 34.5615 2.27379 34.5109 2.37505C34.4603 2.47631 34.4311 2.5869 34.4251 2.69993C34.404 2.92162 34.4708 3.14274 34.6111 3.31572C34.7513 3.4887 34.9539 3.59973 35.1751 3.62493C35.7179 3.68047 36.2445 3.84184 36.7251 4.09993C37.5224 4.55128 38.2685 5.08774 38.9501 5.69993L43.4751 9.74993C45.765 11.4385 47.8986 13.3295 49.8501 15.3999C51.8101 17.4818 53.6149 19.7044 55.2501 22.0499C55.8214 22.8384 56.3233 23.6748 56.7501 24.5499C57.1164 25.1942 57.2654 25.9393 57.1751 26.6749C57.0348 27.1411 56.7765 27.563 56.4251 27.8999C55.7001 28.7249 54.7751 29.4749 54.1751 30.0999C53.8048 30.4603 53.332 30.697 52.8216 30.7776C52.3112 30.8582 51.7884 30.7786 51.3251 30.5499C50.0736 30.006 48.9559 29.1955 48.0501 28.1749C46.7751 26.7749 45.5501 25.4499 44.1251 24.1499C41.0251 21.1749 37.7751 18.3749 34.8001 15.2499C33.4751 13.8499 31.6001 12.4999 30.1251 10.9499C29.548 10.3692 29.0518 9.71332 28.6501 8.99993C28.5823 8.80586 28.5605 8.59867 28.5865 8.39473C28.6125 8.1908 28.6857 7.99572 28.8001 7.82493C29.2821 6.99374 29.8704 6.22895 30.5501 5.54993C30.9388 5.11664 31.3845 4.73818 31.8751 4.42493C32.3489 4.11001 32.8615 3.8579 33.4001 3.67493C33.4973 3.65206 33.5888 3.60935 33.6687 3.54949C33.7486 3.48963 33.8153 3.41391 33.8646 3.32706C33.9139 3.24022 33.9447 3.14413 33.9551 3.04481C33.9655 2.9455 33.9553 2.84511 33.9251 2.74993C33.8995 2.65497 33.8547 2.56623 33.7937 2.4891C33.7326 2.41197 33.6565 2.34808 33.57 2.30131C33.4835 2.25453 33.3883 2.22585 33.2903 2.21702C33.1924 2.20819 33.0936 2.21938 33.0001 2.24993C32.3151 2.44491 31.6592 2.73079 31.0501 3.09993C30.4273 3.46438 29.8556 3.90995 29.3501 4.42493C28.3218 5.31401 27.4732 6.39174 26.8501 7.59993C26.7016 7.94763 26.625 8.32182 26.625 8.69993C26.625 9.07803 26.7016 9.45222 26.8501 9.79993C27.2861 10.709 27.8502 11.5509 28.5251 12.2999C29.9251 13.8999 31.7251 15.3499 33.0001 16.7999C33.6751 17.5499 34.3501 18.2999 35.0501 19.0249L31.8001 21.5249C30.887 22.2744 30.0496 23.1118 29.3001 24.0249C28.7678 24.7137 28.346 25.4812 28.0501 26.2999C27.8137 26.9499 27.7339 27.6464 27.8171 28.333C27.9003 29.0196 28.1441 29.6769 28.5289 30.2516C28.9136 30.8264 29.4285 31.3023 30.0316 31.6408C30.6347 31.9793 31.3091 32.1708 32.0001 32.1999C33.3674 32.2963 34.7395 32.1003 36.0251 31.6249C36.6251 31.3249 37.2001 31.0499 37.7501 30.7249C38.3308 30.3877 38.8827 30.003 39.4001 29.5749C40.2751 28.8749 41.1251 28.1999 41.9001 27.4249C42.1501 27.1999 42.3501 26.9249 42.6001 26.6749C43.6501 27.7499 44.7251 28.8749 45.7251 30.0249C47.1698 31.7123 49.0847 32.9308 51.2251 33.5249C52.0827 33.7165 52.9755 33.6787 53.8138 33.4154C54.6521 33.1521 55.4062 32.6725 56.0001 32.0249C56.978 31.1359 57.8966 30.1839 58.7501 29.1749C59.2123 28.5876 59.5369 27.9042 59.7001 27.1749C59.9438 26.0946 59.8744 24.9672 59.5001 23.9249ZM40.8751 25.9749C40.0751 26.6249 39.1751 27.1999 38.3751 27.7749C37.9001 28.0749 37.4001 28.3249 36.9001 28.5749L35.3001 29.2249C34.1678 29.6253 32.9324 29.6253 31.8001 29.2249C31.6041 29.1458 31.426 29.0281 31.2764 28.8786C31.1268 28.7292 31.0089 28.5512 30.9295 28.3553C30.8502 28.1593 30.8112 27.9494 30.8147 27.738C30.8182 27.5266 30.8643 27.3181 30.9501 27.1249C31.1077 26.5417 31.3521 25.9855 31.6751 25.4749C32.2204 24.5911 32.8393 23.7548 33.5251 22.9749C33.8501 22.6249 34.7251 21.6749 35.5751 20.8249L36.2501 19.9999C38.0001 21.7999 39.8001 23.5499 41.5501 25.2999C41.346 25.5449 41.1201 25.7708 40.8751 25.9749Z" fill="black"/>
<path d="M14.0505 47.3499C13.9406 47.3302 13.8278 47.3323 13.7186 47.3562C13.6095 47.3801 13.5061 47.4253 13.4144 47.4891C13.3227 47.5529 13.2445 47.6342 13.1842 47.7283C13.1239 47.8224 13.0827 47.9274 13.063 48.0374C13.0433 48.1473 13.0455 48.2601 13.0694 48.3693C13.0933 48.4784 13.1384 48.5818 13.2023 48.6735C13.2661 48.7652 13.3474 48.8434 13.4415 48.9037C13.5355 48.964 13.6406 49.0052 13.7505 49.0249C14.6005 49.1999 14.3755 50.3249 13.9755 51.0749C13.5755 51.8249 13.1005 51.8249 12.3755 51.2999C11.6505 50.7749 10.6255 50.4499 10.1505 46.9249C10.0008 46.0563 10.0008 45.1685 10.1505 44.2999C10.1999 43.9946 10.3123 43.7029 10.4807 43.4435C10.6491 43.1841 10.8697 42.9626 11.1285 42.7933C11.3872 42.6239 11.6785 42.5103 11.9836 42.4598C12.2887 42.4093 12.601 42.4229 12.9005 42.4999C13.0927 42.5451 13.2951 42.5128 13.4635 42.4098C13.632 42.3068 13.7531 42.1416 13.8005 41.9499C13.8384 41.7547 13.7998 41.5525 13.6928 41.385C13.5858 41.2175 13.4185 41.0975 13.2255 41.0499C12.7167 40.8292 12.1667 40.7195 11.6122 40.7283C11.0577 40.737 10.5114 40.8639 10.0098 41.1005C9.5082 41.3371 9.06284 41.678 8.70343 42.1003C8.34402 42.5227 8.07882 43.0169 7.92553 43.5499C7.42696 44.9858 7.28119 46.5207 7.50053 48.0249C8.30053 54.4749 14.4505 56.0249 15.9755 51.9749C16.7005 49.9999 16.1005 47.4999 14.0505 47.3499Z" fill="black"/>
<path d="M5.8751 51.2C5.0156 51.6367 4.18099 52.1208 3.3751 52.65C3.04936 52.8958 2.74035 53.1631 2.4501 53.45C2.1751 53.75 1.9251 54.05 1.6751 54.375C1.09781 55.1642 0.587694 56.0005 0.1501 56.875C0.0722449 56.9517 0.010422 57.0432 -0.0317755 57.1441C-0.0739729 57.2449 -0.0957031 57.3532 -0.0957031 57.4625C-0.0957031 57.5718 -0.0739729 57.68 -0.0317755 57.7809C0.010422 57.8818 0.0722449 57.9732 0.1501 58.05C0.236931 58.121 0.336949 58.1741 0.444392 58.2062C0.551835 58.2384 0.664577 58.2489 0.776123 58.2373C0.887669 58.2257 0.995813 58.1921 1.09432 58.1385C1.19283 58.0849 1.27976 58.0123 1.3501 57.925C1.9501 57.425 2.7251 56.925 3.5001 56.275C3.80905 56.0459 4.10144 55.7953 4.3751 55.525C4.65301 55.2601 4.91198 54.9761 5.1501 54.675C5.7751 53.875 6.2251 53.075 6.7251 52.35C6.7962 52.2823 6.8528 52.2008 6.89148 52.1106C6.93016 52.0203 6.9501 51.9232 6.9501 51.825C6.9501 51.7268 6.93016 51.6296 6.89148 51.5394C6.8528 51.4491 6.7962 51.3677 6.7251 51.3C6.60889 51.2017 6.46632 51.1398 6.31516 51.122C6.164 51.1042 6.01095 51.1313 5.8751 51.2Z" fill="black"/>
</g>
<defs>
<clipPath id="clip0_165_7349">
<rect width="60" height="60" fill="white"/>
</clipPath>
</defs>
</svg>
