<svg width="60" height="60" viewBox="0 0 60 60" fill="none" xmlns="http://www.w3.org/2000/svg">
<g clip-path="url(#clip0_166_4905)">
<path fill-rule="evenodd" clip-rule="evenodd" d="M58.1003 12.775C58.1003 10.275 45.1503 1.02504 42.3003 0.275042C41.7057 0.0434625 41.0558 -0.00651147 40.4327 0.131445C39.8097 0.269402 39.2416 0.589087 38.8003 1.05004C38.0503 1.77504 38.3003 1.45004 33.0003 9.77504C32.1753 9.42504 31.2753 9.05004 30.5003 8.82504C29.7253 8.60004 28.7753 8.25004 28.0003 8.82504C27.8003 9.02504 28.5253 8.02504 25.5003 11.925C21.4503 17.5 21.2503 17.275 22.5003 20.475C22.9087 21.6547 23.4276 22.7931 24.0503 23.875C26.7003 25.825 24.0503 19.4 23.7503 18.275C25.4278 15.6721 27.3087 13.2061 29.3753 10.9C29.7003 10.575 28.8753 10.175 33.9753 12.65C38.9188 15.3275 43.5979 18.4665 47.9503 22.025C48.9753 22.8 51.9253 24.525 52.5003 25.6C50.8638 28.2323 49.0338 30.7393 47.0253 33.1C46.7753 33.325 46.3003 33.65 45.9753 33.95C44.1003 33.65 38.7753 32.675 37.7253 33.225C36.2804 34.9897 34.9843 36.8711 33.8503 38.85C29.8701 36.4093 26.0764 33.6768 22.5003 30.675C23.3671 29.2071 24.4265 27.8618 25.6503 26.675C26.5253 26.1 25.6503 24.75 24.5753 25.625C22.9745 27.0336 21.6517 28.7295 20.6753 30.625C20.4003 31.4 21.2003 32 24.2003 34.425C23.8646 36.2756 22.8253 37.9242 21.3003 39.025C17.3253 41.85 13.8003 38.525 11.1503 37.725C9.10825 37.1107 6.90872 37.2985 5.00032 38.25C4.12097 38.7672 3.38407 39.495 2.856 40.3678C2.32794 41.2406 2.02529 42.2311 1.97532 43.25C1.60275 44.6906 1.62431 46.2049 2.03774 47.6343C2.45117 49.0638 3.24127 50.3557 4.32532 51.375C7.85032 54.45 14.6753 55 17.1253 55.575C20.0503 56.45 19.6253 57.4 19.6253 59.15C19.6253 59.3755 19.7149 59.5917 19.8743 59.7511C20.0337 59.9105 20.2499 60 20.4753 60C20.7008 60 20.917 59.9105 21.0764 59.7511C21.2358 59.5917 21.3253 59.3755 21.3253 59.15C21.3628 58.4922 21.3628 57.8328 21.3253 57.175C20.6753 52.175 10.6003 53.625 6.15032 49.475C5.47627 48.6937 5.01606 47.7511 4.81453 46.739C4.61299 45.727 4.677 44.68 5.00032 43.7C4.9655 43.0032 5.15241 42.3133 5.53421 41.7294C5.91601 41.1455 6.47305 40.6976 7.12532 40.45C10.0503 39.4 12.9003 41.35 14.7503 41.925C15.8858 42.3154 17.0923 42.4555 18.287 42.3357C19.4817 42.2159 20.6364 41.8392 21.6718 41.2312C22.7072 40.6232 23.5989 39.7985 24.2856 38.8136C24.9724 37.8286 25.4379 36.7068 25.6503 35.525C28.0527 37.4801 30.5562 39.3077 33.1503 41C35.3253 42.225 35.4253 40.275 38.9253 35.575C40.3753 35.575 44.4253 36.45 45.7753 36.7C46.3382 36.7796 46.9114 36.665 47.4003 36.375C50.0404 34.035 52.3156 31.3132 54.1503 28.3C54.8503 27.25 55.5503 26.325 55.4253 25.525C55.2141 24.7326 54.8465 23.9903 54.3442 23.342C53.8419 22.6937 53.215 22.1525 52.5003 21.75C54.0753 20 58.2003 15 58.1003 12.775ZM55.7503 13.225C54.6172 15.9833 53.0096 18.5217 51.0003 20.725L34.3753 10.3H34.5503C40.7003 2.15004 40.2753 2.20004 41.8003 2.80004C46.7427 5.86558 51.4102 9.35363 55.7503 13.225Z" fill="black"/>
<path fill-rule="evenodd" clip-rule="evenodd" d="M40.8753 7.5001C40.693 7.42054 40.4865 7.41667 40.3013 7.48934C40.1161 7.56201 39.9674 7.70527 39.8878 7.8876C39.8082 8.06994 39.8044 8.27642 39.877 8.46161C39.9497 8.6468 40.093 8.79554 40.2753 8.8751C41.4003 9.5751 43.1753 11.3751 45.8253 13.1251L49.8503 15.3251C50.0277 15.4375 50.2403 15.4803 50.4474 15.4452C50.6544 15.4101 50.8411 15.2997 50.9715 15.1351C51.1019 14.9705 51.1668 14.7635 51.1537 14.5539C51.1405 14.3444 51.0503 14.1471 50.9003 14.0001C47.6753 10.9751 45.6253 8.7001 40.8753 7.5001Z" fill="black"/>
<path fill-rule="evenodd" clip-rule="evenodd" d="M38.4499 20.3252C36.2904 20.8917 34.1762 21.6187 32.1249 22.5002C31.87 22.7208 31.6968 23.0208 31.6333 23.3519C31.5698 23.683 31.6197 24.0259 31.7749 24.3252C32.6199 26.0453 33.9961 27.4478 35.6999 28.3252C36.5249 28.8752 37.7999 29.6002 38.7749 29.1752C40.2249 28.5252 40.0999 27.0502 40.4999 25.5752C40.6258 24.9917 40.6928 24.397 40.6999 23.8002C40.3249 20.9752 37.7749 26.3002 37.7249 26.6002C36.7999 25.6002 35.9749 25.2502 34.9249 24.1002L39.0749 21.9002C40.2749 22.0002 40.4999 19.6502 38.4499 20.3252Z" fill="black"/>
</g>
<defs>
<clipPath id="clip0_166_4905">
<rect width="60" height="60" fill="white"/>
</clipPath>
</defs>
</svg>
