<svg width="60" height="60" viewBox="0 0 60 60" fill="none" xmlns="http://www.w3.org/2000/svg">
<g clip-path="url(#clip0_165_7263)">
<path fill-rule="evenodd" clip-rule="evenodd" d="M59.475 28.5C57.2292 21.6452 52.5752 15.8365 46.375 12.15C43.0683 10.1641 39.4765 8.697 35.725 7.79999C35.835 7.63854 35.8878 7.44493 35.875 7.24999C35.8932 6.1646 35.7756 5.0812 35.525 4.02499C34.7 0.999988 31.35 -1.25001 29.1 1.59999C28.1019 3.25217 27.6473 5.1758 27.8 7.09999C25.2392 7.73849 22.7317 8.57432 20.3 9.59999C13.2042 11.7216 7.15265 16.4095 3.325 22.75C1.21406 26.3657 0.0690135 30.4637 0 34.65C0 36.375 0.325 38.925 2 39.35C5.1 40.1 7 33.85 11.225 32.275C12.55 31.775 13.725 33 14.275 34.25L15.225 36.75C15.225 37 15.375 37.55 15.475 37.775C15.5672 37.9882 15.7084 38.1767 15.8873 38.325C16.0661 38.4734 16.2774 38.5773 16.504 38.6285C16.7307 38.6797 16.9662 38.6766 17.1914 38.6195C17.4166 38.5624 17.6251 38.4529 17.8 38.3C20.675 36 21.825 31.925 25.45 32.225C26.3402 32.2841 27.2005 32.5701 27.9488 33.0559C28.6971 33.5417 29.3086 34.2109 29.725 35C29.925 35.525 30.475 36.875 30.5 37.025C29.3 48.875 29.125 48.6 29.225 51.1C29.75 63.425 43.3 62.175 42 49.275C41.9834 49.0496 41.878 48.8399 41.7068 48.6923C41.5357 48.5446 41.3129 48.4709 41.0875 48.4875C40.8621 48.5041 40.6525 48.6095 40.5048 48.7806C40.3571 48.9518 40.2834 49.1746 40.3 49.4C40.8 57.05 34.9 59.1 33.025 55.025C31.45 51.85 32.15 47.525 32.15 39.375C34.225 39.25 35 35 37.85 33.5C38.7185 33.1365 39.6762 33.0423 40.5989 33.2295C41.5216 33.4168 42.3668 33.8768 43.025 34.55C44.1464 35.5579 44.9681 36.8554 45.4 38.3C45.575 40.275 46.875 40.65 47.9 39.85C49.55 38.45 50.25 36.075 52.075 35.875C54.775 35.6 55.175 38.725 56.6 39.3C59.225 40.4 60.925 33.9 59.475 28.5ZM30 5.54999C30.2497 4.7336 30.6765 3.98239 31.25 3.34999C31.55 2.92499 33.275 3.34999 34.075 7.42499C32.5084 7.07164 30.9058 6.90382 29.3 6.92499C29.525 6.42499 29.85 6.34999 30 5.54999ZM57.5 33.775C57.4364 34.6732 57.2427 35.5574 56.925 36.4C56.4522 35.4257 55.701 34.6134 54.7665 34.0661C53.832 33.5187 52.7561 33.2608 51.675 33.325C50.7992 33.4532 49.9655 33.7844 49.2406 34.2923C48.5157 34.8002 47.9196 35.4706 47.5 36.25C47.0256 34.7877 46.1612 33.4825 45 32.475C40.7 28.7 35.7 29.975 32.85 34.825L32.4 33.675C31.7756 32.4376 30.8422 31.3824 29.6903 30.6115C28.5384 29.8407 27.207 29.3803 25.825 29.275C21.325 28.9 19.7 32.15 17.575 34.625L16.9 32.975C16.2414 31.6063 15.1525 30.4911 13.8 29.8C9.25 27.8 4.925 34.475 3.325 36.25C3.13064 36.4112 2.92136 36.5535 2.7 36.675C2.59556 35.9707 2.5288 35.2614 2.5 34.55C2.46773 30.7728 3.41522 27.0518 5.25 23.75C8.67379 17.7934 14.2033 13.3341 20.75 11.25C22.725 10.525 24.925 9.52499 27.125 8.94999C32.125 7.64999 40.925 11.1 45.35 13.95C51.8 17.875 58.375 26.075 57.5 33.775Z" fill="black"/>
<path fill-rule="evenodd" clip-rule="evenodd" d="M31.7497 8.87491C30.4497 8.27491 24.5247 11.9999 22.3247 13.9999C19.4699 16.7021 17.4633 20.1767 16.5497 23.9999C14.9747 29.3999 17.1997 31.1749 19.1997 24.7999C20.7922 19.1026 24.5643 14.2616 29.6997 11.3249C29.8497 13.3749 29.9747 18.6249 30.4747 26.3249C30.2497 32.3749 33.1747 30.8249 33.1747 26.4999C33.2147 21.0622 32.5509 15.6422 31.1997 10.3749C37.4997 13.5499 41.0247 20.8999 43.8747 27.4999C45.9997 32.3499 49.2247 32.1249 46.2247 26.5749C43.4497 19.0499 39.8497 12.0249 31.7497 8.87491Z" fill="black"/>
</g>
<defs>
<clipPath id="clip0_165_7263">
<rect width="60" height="60" fill="white"/>
</clipPath>
</defs>
</svg>
