<svg width="60" height="60" viewBox="0 0 60 60" fill="none" xmlns="http://www.w3.org/2000/svg">
<g clip-path="url(#clip0_165_7262)">
<path d="M50.6754 7.67506C50.6385 7.28923 50.4709 6.92759 50.2004 6.65006C49.7026 6.35511 49.128 6.2158 48.5504 6.25006C43.8254 6.25006 41.8504 6.25006 41.0504 6.40006C40.2504 6.55006 40.3254 6.72506 40.1504 6.97506C39.6563 8.38044 39.2554 9.8169 38.9504 11.2751C38.7931 11.8664 38.6761 12.4678 38.6004 13.0751C38.4967 13.6872 38.4299 14.3049 38.4004 14.9251V19.1001H37.7754H33.0004C33.2004 18.1251 33.5504 16.1251 33.8254 13.8251V12.3751V9.45006C33.8254 4.00006 33.8254 3.45006 33.1504 2.57506C29.9008 1.30964 26.5091 0.444937 23.0504 5.60801e-05C22.8209 -0.0191712 22.5904 0.024137 22.3835 0.12538C22.1766 0.226622 22.001 0.382018 21.8754 0.575056C21.4191 1.81156 21.1494 3.10912 21.0754 4.42506C20.9408 5.48787 21.1511 6.5658 21.6754 7.50006C21.8902 7.76621 22.1763 7.96566 22.5004 8.07506C23.6645 8.45247 24.8614 8.7203 26.0754 8.87506C27.7322 9.11929 29.4016 9.26953 31.0754 9.32506C31.0754 10.2501 30.9254 11.2501 30.9004 12.2251V13.6751C30.9004 16.1751 31.1504 18.1751 31.2254 19.0251C30.5421 19.0106 29.8628 18.9183 29.2004 18.7501C28.9106 18.6818 28.6382 18.5541 28.4004 18.3751C28.1659 18.218 27.9763 18.0026 27.8504 17.7501C27.6015 17.0453 27.2832 16.367 26.9004 15.7251C26.5611 15.28 26.1012 14.9416 25.5754 14.7501C24.549 14.5156 23.4754 14.6029 22.5004 15.0001C21.4377 15.3285 20.5423 16.0537 20.0004 17.0251C19.5772 18.2123 19.3657 19.4647 19.3754 20.7251V26.3001C18.39 26.3575 17.4114 26.4997 16.4504 26.7251C15.6779 26.8547 14.9336 27.1169 14.2504 27.5001C12.6253 28.6167 11.3577 30.1795 10.6004 32.0001C9.86186 33.7476 9.4224 35.6068 9.30038 37.5001C9.04224 40.3608 9.27904 43.2447 10.0004 46.0251C10.5685 47.9212 11.6095 49.6418 13.0254 51.0251C13.724 51.6841 14.5878 52.1419 15.5254 52.3501C16.6946 52.6337 17.8992 52.7432 19.1004 52.6751H19.2504V53.2501C19.8216 55.1335 20.8426 56.8495 22.2254 58.2501C22.8304 58.7803 23.5488 59.1651 24.3254 59.3751C25.2341 59.6125 26.1632 59.7631 27.1004 59.8251C28.5403 59.9251 29.9854 59.9251 31.4254 59.8251C32.854 59.7215 34.2739 59.5211 35.6754 59.2251C37.0254 58.9251 38.4504 58.7251 39.8004 58.4001C40.7266 58.1854 41.6306 57.8841 42.5004 57.5001C42.9561 57.3218 43.3708 57.0525 43.7189 56.7087C44.0671 56.3648 44.3415 55.9536 44.5254 55.5001C44.9003 54.3272 44.9521 53.0749 44.6754 51.8751C45.6738 51.6755 46.6844 51.5419 47.7004 51.4751C47.9288 51.494 48.1586 51.4636 48.3743 51.3859C48.59 51.3083 48.7864 51.1852 48.9504 51.0251C49.5676 50.1617 49.8598 49.108 49.7754 48.0501C49.6999 45.1891 49.399 42.3387 48.8754 39.5251C48.8754 39.5251 48.8754 39.3251 48.8754 39.2251L49.0504 39.1001C49.593 38.1519 49.8451 37.0653 49.7754 35.9751C49.791 34.6621 49.5357 33.3599 49.0254 32.1501C48.8513 31.8831 48.6085 31.668 48.3226 31.5272C48.0367 31.3864 47.7181 31.3252 47.4004 31.3501L44.6004 31.5501C44.5817 30.987 44.5148 30.4266 44.4004 29.8751C44.2613 29.2737 44.0427 28.6936 43.7504 28.1501C43.479 27.7612 43.0952 27.4646 42.6504 27.3001C42.6504 26.0751 43.2504 24.1001 43.2504 22.6751C43.2728 22.0065 43.099 21.346 42.7504 20.7751C42.2465 20.0721 41.5123 19.5679 40.6754 19.3501C40.3895 19.2658 40.0967 19.2072 39.8004 19.1751C40.2766 17.8804 40.6854 16.562 41.0254 15.2251C41.1721 14.6495 41.2807 14.0649 41.3504 13.4751C41.6667 13.4951 41.984 13.4951 42.3004 13.4751L47.3004 14.0751C47.8484 14.1411 48.4024 14.1411 48.9504 14.0751C49.3657 14.0118 49.7506 13.8194 50.0504 13.5251C50.2954 13.2143 50.451 12.8427 50.5004 12.4501C50.6266 11.4552 50.685 10.4529 50.6754 9.45006C50.7754 8.85006 50.7254 8.05006 50.6754 7.67506ZM18.9754 28.8001C18.7004 30.9751 18.5754 33.1751 18.5004 35.4001C18.5004 38.6751 18.5004 41.9501 18.3504 45.2001C18.2914 47.1134 18.3917 49.0284 18.6504 50.9251C17.8914 50.8923 17.1376 50.7834 16.4004 50.6001C15.7129 50.4421 15.087 50.0857 14.6004 49.5751C13.5663 48.34 12.8459 46.8734 12.5004 45.3001C11.9883 42.8345 11.8618 40.3044 12.1254 37.8001C12.1551 36.1878 12.4161 34.5882 12.9004 33.0501C13.3613 31.5601 14.2268 30.2272 15.4004 29.2001C15.8297 28.8455 16.3215 28.5742 16.8504 28.4001C17.584 28.1552 18.3365 27.9713 19.1004 27.8501L18.9754 28.8001ZM31.2004 7.02506C30.9593 7.04912 30.7164 7.04912 30.4754 7.02506C28.5754 6.70006 25.0504 5.97506 23.5754 5.52506L24.0254 3.02506V2.82506C26.0004 3.05006 29.6754 3.60006 31.5254 3.90006H31.7754L31.5004 5.67506C31.5004 6.05006 31.3754 6.42506 31.3004 6.80006L31.2004 7.02506ZM47.1504 48.8251C46.0504 48.8251 44.2254 49.2501 42.6004 49.3001C42.1679 49.3395 41.7328 49.3395 41.3004 49.3001V48.5001C40.9061 45.9501 40.664 43.3788 40.5754 40.8001V40.4751C41.5959 40.8431 42.6665 41.0539 43.7504 41.1001C44.9771 41.1397 46.1976 40.9093 47.3254 40.4251C47.5524 43.2237 47.4938 46.0383 47.1504 48.8251ZM46.9004 33.8251C47.0071 35.0506 46.9651 36.2846 46.7754 37.5001C45.7695 37.932 44.7099 38.2263 43.6254 38.3751C42.3705 38.3304 41.1375 38.0328 40.0004 37.5001V36.9501C39.948 35.8854 40.032 34.8184 40.2504 33.7751C41.7254 33.7501 45.2004 33.8251 46.9004 33.9251V33.8251ZM42.6504 30.7501C42.7434 31.0776 42.8103 31.412 42.8504 31.7501H42.5004C41.1254 31.9251 38.5004 31.9001 38.2504 32.7501C38.2504 33.1001 38.2504 33.0751 38.0754 33.4001C37.7894 34.7556 37.6635 36.1401 37.7004 37.5251C37.721 38.1306 37.9609 38.7081 38.3754 39.1501C38.5482 39.2973 38.7321 39.431 38.9254 39.5501V39.8751C38.9254 40.5751 38.7254 42.1501 38.6504 43.9001C38.5332 45.9591 38.5833 48.0242 38.8004 50.0751C38.8368 50.4088 38.9567 50.728 39.1489 51.0033C39.3411 51.2785 39.5996 51.501 39.9004 51.6501C40.7857 51.9451 41.7184 52.0722 42.6504 52.0251H43.2254C43.4017 52.8491 43.4017 53.701 43.2254 54.5251C43.1404 54.8511 42.9743 55.1505 42.7427 55.3952C42.511 55.64 42.2213 55.8222 41.9004 55.9251C41.0883 56.2108 40.2514 56.42 39.4004 56.5501C38.0254 56.7751 36.6004 56.9001 35.2504 57.1001C33.9263 57.3138 32.5906 57.4474 31.2504 57.5001C29.9299 57.5277 28.6092 57.4524 27.3004 57.2751C26.6612 57.2163 26.0266 57.1161 25.4004 56.9751C24.9532 56.8948 24.5325 56.7059 24.1754 56.4251C23.1146 55.3213 22.3418 53.9732 21.9254 52.5001C21.9254 52.3501 20.9754 51.0751 20.7254 35.4501C20.6626 33.2989 20.7127 31.146 20.8754 29.0001C21.718 29.1488 22.5524 29.3407 23.3754 29.5751C24.0754 29.7501 24.8254 29.9001 25.6004 30.0251C26.3754 30.1501 27.1254 30.2501 27.8754 30.3001C28.6254 30.3501 34.0004 30.5751 34.9754 30.5251C34.9754 30.5251 42.0254 29.9001 42.2254 29.9501C42.3999 30.2334 42.5424 30.5353 42.6504 30.8501V30.7501ZM40.1504 21.5251C40.5294 21.5779 40.8807 21.7535 41.1504 22.0251C41.3495 22.4454 41.4274 22.9129 41.3754 23.3751C41.3754 24.6501 41.2004 26.1251 41.1504 27.2251H39.1754C38.6928 27.1873 38.208 27.1873 37.7254 27.2251C36.7754 27.2251 35.8004 27.5001 34.8504 27.5251L27.9254 27.7501H25.8504C25.1403 27.7465 24.431 27.7048 23.7254 27.6251C23.7254 27.6251 21.2254 27.3751 21.2254 27.4251C21.2254 26.9501 21.2254 22.4251 21.4254 21.6501C21.4317 20.3623 21.66 19.0852 22.1004 17.8751C22.4155 17.6319 22.8023 17.5 23.2004 17.5001C23.6698 17.3362 24.1809 17.3362 24.6504 17.5001L25.3254 19.1751C25.6472 19.8046 26.109 20.3519 26.6754 20.7751C27.223 21.2001 27.853 21.5065 28.5254 21.6751C29.8323 21.9431 31.169 22.0356 32.5004 21.9501C34.2754 21.9501 36.1004 21.6251 37.7754 21.5751C38.5576 21.4901 39.3475 21.5069 40.1254 21.6251L40.1504 21.5251ZM47.9004 11.4001C47.7504 11.4001 42.0004 11.0501 41.6254 11.0251V8.25006C43.1004 8.25006 46.2754 8.47506 48.0004 8.62506C48.0254 9.55006 47.9754 10.6751 47.8754 11.5001L47.9004 11.4001Z" fill="black"/>
<path d="M22.0508 45.15C24.4213 44.6698 26.6063 43.5253 28.3508 41.85C29.1094 41.1197 29.7503 40.2764 30.2508 39.35C30.7845 38.456 31.1806 37.4868 31.4258 36.475C31.8594 34.6502 31.9778 32.7647 31.7758 30.9C31.5758 30.3 29.9758 30.2 29.9508 31.275C29.7925 32.7806 29.4135 34.2548 28.8258 35.65C28.5337 36.4379 28.1741 37.1991 27.7508 37.925C27.366 38.6626 26.9051 39.3581 26.3758 40C25.1091 41.566 23.4542 42.7728 21.5758 43.5C21.4499 43.5326 21.3367 43.6023 21.2508 43.7C21.136 43.8882 21.0752 44.1045 21.0752 44.325C21.0752 44.5455 21.136 44.7617 21.2508 44.95C21.3549 45.0506 21.4836 45.122 21.624 45.1571C21.7644 45.1922 21.9116 45.1898 22.0508 45.15Z" fill="black"/>
</g>
<defs>
<clipPath id="clip0_165_7262">
<rect width="60" height="60" fill="white"/>
</clipPath>
</defs>
</svg>
