<svg width="60" height="60" viewBox="0 0 60 60" fill="none" xmlns="http://www.w3.org/2000/svg">
<g clip-path="url(#clip0_118_3386)">
<path fill-rule="evenodd" clip-rule="evenodd" d="M42.7502 2.69998C41.4616 4.39078 40.3633 6.21849 39.4752 8.14998C39.4345 8.24036 39.4134 8.33836 39.4134 8.43748C39.4134 8.53661 39.4345 8.6346 39.4752 8.72498C32.5002 9.99998 12.3002 23.375 8.6752 29.225C6.8002 32.275 6.7002 36.325 10.1002 37.725C12.6002 38.75 16.2252 37.875 18.6002 37.575C18.1136 39.5216 18.1829 41.5657 18.8002 43.475C16.0002 46.225 13.0502 49.45 13.2502 53.35C14.2002 61.35 22.7252 61.9 26.4252 56.275C26.5644 56.0893 26.6242 55.856 26.5914 55.6262C26.5586 55.3965 26.4358 55.1892 26.2502 55.05C26.0645 54.9107 25.8312 54.851 25.6015 54.8838C25.3717 54.9166 25.1644 55.0393 25.0252 55.225C22.1502 58.725 16.5502 58.425 16.1502 53.075C15.7502 50.425 18.2002 46.975 19.8002 44.825C20.803 45.7289 22.0546 46.3101 23.3923 46.4929C24.7299 46.6757 26.0916 46.4517 27.3002 45.85L28.8752 44.9C29.0502 48.15 28.5752 51.125 32.1252 52.2C37.1252 53.75 39.7752 48.75 41.3252 43.725C43.3252 37.9068 44.9288 31.9599 46.1252 25.925C47.0002 20.925 48.4752 17.925 47.7502 12.55C47.907 12.6565 48.0942 12.7092 48.2835 12.7002C48.4729 12.6912 48.6542 12.6209 48.8002 12.5C57.7252 4.52498 49.0752 -4.65002 42.7502 2.69998ZM44.2502 25.575C42.9649 31.5106 41.2947 37.3563 39.2502 43.075C38.6689 45.2178 37.6377 47.212 36.2252 48.925C35.9814 49.2603 35.658 49.5296 35.2842 49.7089C34.9103 49.8881 34.4978 49.9715 34.0837 49.9517C33.6696 49.9319 33.267 49.8094 32.912 49.5952C32.557 49.3811 32.2609 49.082 32.0502 48.725C31.4502 46.875 32.5752 43.85 30.8502 41.85C30.5806 41.599 30.2348 41.4454 29.8678 41.4137C29.5009 41.3819 29.1338 41.4739 28.8252 41.675C28.1688 42.3287 27.3883 42.8446 26.5297 43.1924C25.671 43.5401 24.7515 43.7127 23.8252 43.7C19.5752 43.125 22.2752 38.45 21.7252 35.725C21.1752 33 18.2002 34.725 17.3502 34.9C15.2502 35.3 10.7752 36.175 10.4252 34.05C10.2854 32.885 10.5597 31.7081 11.2002 30.725C14.0002 26 27.3502 16.5 35.7252 12.125C37.5499 11.0444 39.6078 10.4184 41.7252 10.3C49.4502 10.3 45.4752 19.15 44.2502 25.575ZM47.5002 11.15C47.3668 11.2837 47.2868 11.4615 47.2752 11.65C46.5629 10.6574 45.6189 9.85386 44.5253 9.30924C43.4317 8.76461 42.2216 8.49539 41.0002 8.52498C42.7502 6.24998 44.7252 3.32498 47.5002 2.97498C50.2752 2.62498 51.6002 6.62498 47.5002 11.15Z" fill="black"/>
<path fill-rule="evenodd" clip-rule="evenodd" d="M43.2498 12.3H43.0998C40.3893 13.5051 37.8022 14.9703 35.3748 16.675C31.2857 19.7936 27.6214 23.4327 24.4748 27.5C24.3515 27.6711 24.2941 27.8809 24.3132 28.0909C24.3322 28.3009 24.4265 28.4969 24.5786 28.6429C24.7307 28.7889 24.9304 28.8751 25.141 28.8856C25.3516 28.8961 25.5589 28.8302 25.7248 28.7001C28.3748 26.2001 31.2498 23.7 34.1248 21.375C40.6248 15.95 39.3748 15.975 36.4248 21.375C33.9248 25.8 31.6998 31.2251 29.5748 35.2751C29.4909 35.4712 29.4816 35.6912 29.5485 35.8937C29.6155 36.0963 29.7542 36.2674 29.9384 36.3749C30.1227 36.4823 30.3398 36.5188 30.5491 36.4774C30.7584 36.436 30.9453 36.3196 31.0748 36.1501C34.2088 31.5709 36.9997 26.7661 39.4248 21.775C39.5248 21.4 43.9748 12.5 43.2498 12.3Z" fill="black"/>
</g>
<defs>
<clipPath id="clip0_118_3386">
<rect width="60" height="60" fill="white"/>
</clipPath>
</defs>
</svg>
