<svg width="60" height="60" viewBox="0 0 60 60" fill="none" xmlns="http://www.w3.org/2000/svg">
<g clip-path="url(#clip0_165_7264)">
<path fill-rule="evenodd" clip-rule="evenodd" d="M7.8749 9.99983C8.3499 9.02483 8.9499 8.17483 9.4999 7.24983C10.4462 5.57397 11.241 3.817 11.8749 1.99984C11.9943 1.83739 12.0442 1.63419 12.0137 1.43493C11.9832 1.23567 11.8748 1.05668 11.7124 0.937335C11.55 0.817988 11.3468 0.768059 11.1475 0.798534C10.9482 0.829009 10.7693 0.93739 10.6499 1.09984C9.358 2.08102 8.29522 3.33172 7.53539 4.76503C6.77556 6.19835 6.33691 7.77991 6.2499 9.39983C6.21051 9.50653 6.19251 9.61995 6.19695 9.7336C6.20138 9.84725 6.22816 9.95892 6.27575 10.0622C6.32334 10.1655 6.39081 10.2585 6.47431 10.3357C6.55781 10.4129 6.65571 10.4729 6.7624 10.5123C6.8691 10.5517 6.98252 10.5697 7.09617 10.5653C7.20982 10.5609 7.32149 10.5341 7.4248 10.4865C7.5281 10.4389 7.62102 10.3714 7.69825 10.2879C7.77548 10.2044 7.83551 10.1065 7.8749 9.99983Z" fill="black"/>
<path fill-rule="evenodd" clip-rule="evenodd" d="M15.2497 9.525C15.7247 8.725 16.2497 7.975 16.7747 7.025C17.5525 5.56987 18.2372 4.06685 18.8247 2.525C18.8869 2.37487 18.8986 2.20861 18.8581 2.05124C18.8177 1.89387 18.7272 1.75389 18.6003 1.65239C18.4734 1.55088 18.317 1.49332 18.1546 1.48838C17.9921 1.48344 17.8325 1.53139 17.6997 1.625C16.503 2.43667 15.5132 3.51761 14.8098 4.78104C14.1065 6.04447 13.7091 7.4552 13.6497 8.9C13.5668 9.11217 13.5716 9.34858 13.663 9.55721C13.7545 9.76585 13.925 9.92962 14.1372 10.0125C14.3494 10.0954 14.5858 10.0906 14.7944 9.99915C15.003 9.90773 15.1668 9.73717 15.2497 9.525Z" fill="black"/>
<path fill-rule="evenodd" clip-rule="evenodd" d="M24.7747 9.57476C25.9629 8.15068 26.8858 6.52491 27.4997 4.77476C27.5921 3.98004 27.8294 3.20898 28.1997 2.49976C28.2794 2.44098 28.3463 2.36646 28.3962 2.28082C28.446 2.19517 28.4778 2.10022 28.4895 2.00182C28.5012 1.90342 28.4926 1.80367 28.4643 1.70872C28.4359 1.61377 28.3884 1.52563 28.3247 1.44976C27.5997 0.499761 25.9997 2.17476 25.3247 3.17476C24.2378 4.99744 23.5002 7.00676 23.1497 9.09976C23.1089 9.30789 23.1473 9.52376 23.2576 9.70498C23.3678 9.88619 23.5417 10.0197 23.7453 10.0792C23.9489 10.1387 24.1674 10.1199 24.3578 10.0266C24.5483 9.93326 24.697 9.7721 24.7747 9.57476Z" fill="black"/>
<path fill-rule="evenodd" clip-rule="evenodd" d="M34.5497 8.27477C35.0497 7.57477 35.5497 6.94977 36.0247 6.19977C36.815 4.87788 37.3176 3.40413 37.4997 1.87477C37.5958 1.69907 37.6182 1.49236 37.562 1.30014C37.5057 1.10792 37.3754 0.945913 37.1997 0.849772C37.024 0.753631 36.8173 0.731226 36.625 0.787487C36.4328 0.843748 36.2708 0.974066 36.1747 1.14977C35.2491 1.94331 34.4914 2.91382 33.9462 4.00428C33.401 5.09475 33.0792 6.28319 32.9997 7.49977C32.9488 7.60155 32.9184 7.71235 32.9104 7.82585C32.9023 7.93935 32.9167 8.05333 32.9527 8.16128C32.9886 8.26922 33.0455 8.36903 33.1201 8.45499C33.1946 8.54095 33.2854 8.61138 33.3872 8.66227C33.489 8.71316 33.5998 8.7435 33.7133 8.75157C33.8268 8.75963 33.9407 8.74527 34.0487 8.70928C34.1566 8.6733 34.2564 8.61641 34.3424 8.54185C34.4284 8.4673 34.4988 8.37655 34.5497 8.27477Z" fill="black"/>
<path fill-rule="evenodd" clip-rule="evenodd" d="M42.7244 8.82488C44.5667 6.62627 45.6457 3.88919 45.7994 1.02488C45.8723 0.839232 45.8685 0.632211 45.7888 0.449363C45.7091 0.266515 45.56 0.122818 45.3744 0.0498832C45.1887 -0.0230513 44.9817 -0.0192488 44.7989 0.0604541C44.616 0.140157 44.4723 0.289232 44.3994 0.474883C42.5532 2.64823 41.4187 5.33599 41.1494 8.17488C41.0632 8.38374 41.0635 8.61829 41.1502 8.82692C41.237 9.03555 41.403 9.20119 41.6119 9.28738C41.8208 9.37358 42.0553 9.37327 42.2639 9.28654C42.4726 9.1998 42.6382 9.03374 42.7244 8.82488Z" fill="black"/>
<path fill-rule="evenodd" clip-rule="evenodd" d="M49.1748 8.99981C51.4586 7.11258 52.949 4.43528 53.3498 1.49981C53.4293 1.31416 53.4319 1.1045 53.3569 0.916967C53.2819 0.729431 53.1354 0.579375 52.9498 0.49981C52.7641 0.420245 52.5545 0.417688 52.3669 0.492703C52.1794 0.567718 52.0293 0.714158 51.9498 0.89981C50.7349 2.2463 49.7088 3.75176 48.8998 5.37481C48.4748 6.29981 48.1498 7.19981 47.7498 8.12481C47.6779 8.31026 47.6734 8.51503 47.737 8.70348C47.8005 8.89193 47.9281 9.05213 48.0976 9.15619C48.2671 9.26026 48.4677 9.3016 48.6645 9.27303C48.8613 9.24446 49.0419 9.14777 49.1748 8.99981Z" fill="black"/>
<path fill-rule="evenodd" clip-rule="evenodd" d="M55.5247 32.4998C53.4006 27.4912 50.3274 22.941 46.4747 19.0998C44.4984 17.2215 42.0697 15.8866 39.4247 15.2248C37.7 14.6179 35.8771 14.3381 34.0497 14.3998C34.4747 6.52481 26.5497 6.74981 27.3247 13.5998C25.683 13.6796 24.0598 13.9824 22.4997 14.4998C19.064 15.4367 15.868 17.0968 13.1259 19.369C10.3838 21.6412 8.15871 24.473 6.59972 27.6748C5.17472 30.9248 3.49972 37.1998 4.54972 40.1748C4.87472 41.1498 5.39972 41.8498 6.39972 41.5998C7.79972 41.2498 8.54972 39.5498 9.24972 38.8248C10.0988 37.8462 11.2635 37.1955 12.542 36.9855C13.8205 36.7754 15.1322 37.0193 16.2497 37.6748C18.7497 39.3498 17.4497 42.3248 19.6997 42.1998C20.7747 42.1998 20.8747 41.4748 21.9247 39.1248C23.6247 36.3498 27.6747 35.9748 28.8497 37.8998C29.4247 39.4498 29.2997 39.0248 29.3997 39.6748C29.4997 40.3248 29.3997 40.5998 29.5497 40.7248C29.6458 40.8754 29.7545 41.0176 29.8747 41.1498C29.7686 41.279 29.6995 41.4345 29.6747 41.5998C28.7497 48.8748 26.2997 56.3248 32.9747 59.3998C38.8997 62.1498 42.9747 55.0998 42.5497 50.4998C42.5149 50.2963 42.4093 50.1115 42.2514 49.9784C42.0936 49.8452 41.8937 49.7722 41.6872 49.7722C41.4807 49.7722 41.2808 49.8452 41.123 49.9784C40.9652 50.1115 40.8595 50.2963 40.8247 50.4998C40.8247 52.6998 38.8497 56.7248 36.5247 57.1498C35.7322 57.2643 34.924 57.1149 34.2247 56.7248C29.9497 54.5498 31.0747 49.2248 31.1747 41.5748C31.1983 41.4931 31.1983 41.4065 31.1747 41.3248C32.7997 41.0248 33.3997 36.7998 36.4247 36.7498C37.0664 36.8335 37.68 37.0643 38.2177 37.4243C38.7555 37.7842 39.2028 38.2635 39.5247 38.8248L39.9997 39.9998C39.9997 40.1998 40.1247 40.5998 40.1747 40.7248C40.2629 40.8992 40.3866 41.0531 40.5378 41.1768C40.689 41.3005 40.8645 41.3911 41.0529 41.4429C41.2412 41.4948 41.4384 41.5066 41.6316 41.4776C41.8248 41.4486 42.0098 41.3796 42.1747 41.2748C43.6247 40.3998 43.9747 37.8248 46.6747 38.0998C48.2089 38.2927 49.6838 38.8127 50.9997 39.6248C51.5997 39.9748 52.6247 41.4498 53.8497 40.7998C55.9747 39.5998 56.2747 34.9998 55.5247 32.4998ZM53.0247 37.9998C52.7797 37.8133 52.5206 37.6462 52.2497 37.4998C50.6406 36.4371 48.8114 35.7533 46.8997 35.4998C45.9345 35.3783 44.9542 35.5104 44.0556 35.883C43.1569 36.2556 42.3708 36.856 41.7747 37.6248C41.3432 36.6424 40.6552 35.7942 39.7828 35.1695C38.9104 34.5448 37.8858 34.1665 36.8167 34.0744C35.7477 33.9823 34.6735 34.1799 33.7072 34.6462C32.7408 35.1126 31.9178 35.8306 31.3247 36.7248C28.8247 32.3998 22.3997 33.2998 19.6247 37.2498C18.8913 36.2971 17.952 35.5226 16.877 34.9841C15.802 34.4457 14.6192 34.1573 13.417 34.1404C12.2148 34.1236 11.0244 34.3788 9.93479 34.8869C8.84516 35.3951 7.88452 36.143 7.12472 37.0748C6.44972 37.9748 6.57472 37.8998 6.57472 37.5498C7.09972 18.7498 26.8497 13.0998 30.9497 15.9498C32.1997 16.8248 33.1247 14.3748 29.2747 13.6748C29.2628 13.525 29.2628 13.3746 29.2747 13.2248C29.3997 12.4998 30.0747 10.9998 30.6747 11.4498C31.7497 12.2498 31.6747 12.4998 32.2247 14.5498C31.8997 14.7498 31.6497 16.1748 32.6747 16.1248C34.7733 15.9221 36.8906 16.1868 38.8747 16.8998C41.2001 17.5379 43.3195 18.7699 45.0247 20.4748C48.5006 24.1041 51.28 28.3411 53.2247 32.9748C53.6819 34.6083 53.6383 36.3414 53.0997 37.9498L53.0247 37.9998Z" fill="black"/>
</g>
<defs>
<clipPath id="clip0_165_7264">
<rect width="60" height="60" fill="white"/>
</clipPath>
</defs>
</svg>
