<svg width="60" height="60" viewBox="0 0 60 60" fill="none" xmlns="http://www.w3.org/2000/svg">
<path d="M33.8882 32.6022C33.7977 30.8137 33.461 29.0462 32.8877 27.3497C32.3875 26.0992 31.8872 25.0987 28.886 24.3484H28.3857L28.886 23.8482C29.3625 23.3589 29.7067 22.7564 29.8865 22.0974C30.1047 21.4544 30.1897 20.7737 30.1365 20.0964C30.091 19.2432 29.9225 18.4007 29.6362 17.5954C29.1487 15.5852 28.3915 13.6499 27.3852 11.8427C26.3452 10.0329 24.99 8.42344 23.3835 7.09069C21.7902 5.70044 19.9122 4.67619 17.881 4.08919C16.4195 3.84594 14.9187 4.11069 13.629 4.83969C11.9565 5.65694 10.4997 6.85644 9.37696 8.34119C7.31271 10.3602 5.76821 12.8487 4.87496 15.5944C4.16921 17.6069 4.08196 19.7849 4.62496 21.8474C5.27021 23.4139 6.30296 24.7909 7.62621 25.8492L4.87496 26.5994C3.49221 27.1892 2.36546 28.2537 1.69846 29.6009C-1.05279 36.8542 2.19871 51.1107 2.44896 51.6107C2.69921 52.1107 2.94921 52.8614 3.44946 53.1114C4.47896 54.0837 5.79471 54.6977 7.20096 54.8622C8.95196 55.1124 10.9527 55.1124 12.7035 55.3624C16.2052 55.6127 19.957 55.8627 23.4585 55.8627C25.8962 55.8737 28.328 55.6219 30.7117 55.1124C32.411 54.8594 33.8435 53.7134 34.4635 52.1109C35.0965 50.1769 35.3512 48.1389 35.2137 46.1082C35.2552 43.8544 35.1717 41.5999 34.9637 39.3552C34.4827 37.1254 34.1237 34.8712 33.8882 32.6022ZM17.881 31.3517L17.1305 30.8514L13.379 28.6004L9.62721 26.3494C8.62671 25.0987 7.87646 24.0982 7.12596 23.3479C7.10196 22.0284 7.44846 20.7287 8.12646 19.5962C9.34396 17.8794 10.9797 16.5019 12.8787 15.5944C15.3797 13.8937 16.2052 13.6184 18.6312 14.8442C20.5677 15.3519 22.3635 16.2927 23.8837 17.5954C25.3075 19.2062 26.411 21.0737 27.1352 23.0979C26.635 23.5982 22.8832 27.5999 21.8827 28.3502C21.7077 28.8504 18.8815 31.3517 17.881 31.3517ZM6.70096 16.5949C7.69621 14.1897 9.23771 12.0489 11.203 10.3422C12.2715 9.19119 13.5117 8.21269 14.8795 7.44069C15.6017 6.91994 16.514 6.73744 17.3807 6.94044C18.96 7.33394 20.4195 8.10644 21.6327 9.19169C23.072 10.3349 24.336 11.6832 25.3842 13.1934C26.385 14.7364 27.144 16.4234 27.6352 18.1957C27.9202 18.9147 28.089 19.6747 28.1355 20.4467V21.1969C27.6825 19.3137 26.7322 17.5862 25.3842 16.1947C23.0565 13.6144 19.8412 12.0067 16.3802 11.6927C15.6082 11.7392 14.8482 11.9082 14.1292 12.1929C13.2137 12.5422 12.367 13.0502 11.628 13.6937C9.59671 15.0577 7.88921 16.8504 6.62571 18.9459C6.33046 19.5092 6.07946 20.0944 5.87546 20.6967C5.86921 19.2877 6.15021 17.8919 6.70096 16.5949ZM32.7127 46.1082C32.8507 47.8929 32.5945 49.6862 31.9622 51.3607C31.6112 52.1824 30.8485 52.7544 29.9615 52.8614C27.7257 53.2349 25.4715 53.4854 23.2082 53.6117C19.7067 53.6117 15.955 53.3617 12.7035 53.1114C11.0322 53.1469 9.36071 53.0634 7.70121 52.8614C6.80071 52.7287 5.94396 52.3859 5.20021 51.8609C4.53296 50.9842 4.10246 49.9507 3.94971 48.8594C3.69946 47.6089 3.69946 47.3589 3.44946 46.1082C3.19921 45.3579 3.19921 44.6077 2.94921 43.8572C2.65846 41.9524 2.49146 40.0309 2.44896 38.1047V34.3529C2.49296 33.3359 2.66096 32.3279 2.94921 31.3517C3.20671 30.4652 3.73071 29.6794 4.44971 29.1007C4.92346 28.8007 5.42621 28.5492 5.95046 28.3502C6.95096 28.1002 7.95146 27.8499 8.70171 27.5999H8.95196L12.9537 30.8514L17.706 34.3529C17.415 36.5092 17.248 38.6804 17.2057 40.8559C17.2482 42.3677 17.4157 43.8737 17.706 45.3579C18.0792 47.5934 18.3297 49.8479 18.4562 52.1109C18.4595 52.6887 19.087 53.0459 19.5855 52.7544C19.8142 52.6204 19.9552 52.3759 19.957 52.1109C20.2077 49.6162 20.2077 47.1024 19.957 44.6077C19.957 43.1069 19.7067 41.6062 19.7067 40.1054C19.416 38.2009 19.249 36.2792 19.2065 34.3529C20.4572 33.3524 27.7105 26.3494 27.7105 26.3494L29.7112 26.5994C30.563 26.8329 31.2285 27.4984 31.462 28.3502C31.834 29.9127 32.0847 31.5014 32.2125 33.1024C32.3875 35.3534 32.6377 43.8572 32.6377 46.1082H32.7127Z" fill="black"/>
<path d="M24.8835 38.1048C25.884 37.6045 26.8845 36.604 26.6345 35.6035C26.6208 34.0898 25.397 32.866 23.8833 32.8523C22.6325 32.8523 21.382 34.353 21.382 34.353C20.2318 36.0155 21.3128 38.2998 23.3275 38.4648C23.871 38.5093 24.4148 38.3833 24.8835 38.1048ZM24.1333 34.103C24.6335 34.353 24.6335 34.353 24.6335 35.1033C24.6335 35.8535 23.8833 35.8538 23.633 35.6035C23.3828 35.3533 22.8828 34.6033 24.2083 34.103H24.1333Z" fill="black"/>
<path d="M21.1321 46.3584C21.0204 47.7022 21.8496 48.9459 23.1329 49.3597C23.9609 49.6644 24.8829 49.5722 25.6341 49.1097C26.5459 48.4857 27.1036 47.4627 27.1346 46.3584C27.0919 45.8672 26.9471 45.3902 26.7096 44.9577C26.1344 42.857 21.8824 41.6062 21.1321 46.3584ZM24.6336 46.8587C24.4336 47.0502 24.1581 47.1419 23.8834 47.1087C22.6326 46.6084 23.3831 44.6077 24.6336 45.1079C25.3839 45.6082 25.1339 46.1082 24.6336 46.8587Z" fill="black"/>
<path d="M59.3993 39.6055C58.3988 34.103 57.3983 28.6005 55.8978 23.098C55.3811 20.887 54.7126 18.714 53.8968 16.595C53.3966 15.0943 52.6463 13.8438 52.1461 12.343C51.6458 10.8423 50.8956 9.09154 50.1451 7.59104C49.6716 6.47429 48.9928 5.45629 48.1443 4.58954C45.9933 2.78879 44.2176 12.218 44.2176 12.443C43.4671 14.6943 42.7168 17.1953 42.2166 19.4463L39.9656 28.4503L38.4648 34.7033L37.7146 37.9548L37.2143 40.2058L36.7141 41.9565C35.9638 44.7078 38.4648 44.7078 38.7151 44.4575C39.5051 43.9265 40.1848 43.247 40.7158 42.4568C41.2753 41.466 41.9466 40.543 42.7168 39.7055C42.9668 39.4553 43.4671 38.955 43.7173 38.955C44.4153 39.0283 45.0506 39.3913 45.4681 39.9555C46.4686 41.2063 47.2188 42.7068 48.2193 43.7073L48.4693 43.9575C49.2198 53.4618 47.9691 53.4618 47.7191 53.4618C45.7181 53.4618 45.4681 51.961 45.2178 51.2108C44.9676 50.4605 43.2171 50.4603 43.7173 51.711C43.7648 52.4023 43.9341 53.0795 44.2176 53.7118C45.1243 55.3043 46.9016 56.1928 48.7196 55.9628C49.7201 55.7128 50.2201 55.2125 50.7203 53.962C50.9706 51.4608 50.4703 44.2075 50.4703 43.9575C50.4833 43.0703 50.7431 42.204 51.2206 41.4563C51.5358 40.5755 51.9556 39.7358 52.4713 38.9553C52.6678 38.5083 53.0248 38.1513 53.4716 37.9548C54.1951 37.5333 55.1093 37.6348 55.7226 38.2048C56.7461 38.8148 57.6733 39.5735 58.4738 40.4558C58.6491 40.606 59.3993 40.606 59.3993 39.6055ZM51.8958 36.1038C51.1398 36.4848 50.5261 37.0985 50.1451 37.8548C49.6448 38.605 49.1446 39.8555 48.6446 40.606L48.3943 41.106C47.7878 40.0055 47.0301 38.9953 46.1433 38.1048C45.4233 37.3465 44.4368 36.898 43.3921 36.8543C42.4598 36.849 41.5623 37.208 40.8908 37.8548C40.3908 38.1048 40.1406 38.605 39.8906 38.855L40.6408 35.6035L41.8913 29.3508L43.8923 20.0965C44.3926 17.8455 44.8928 15.3445 45.3931 13.0935C45.9093 10.964 46.5781 8.87429 47.3938 6.84054C47.6441 7.34079 47.8941 8.09129 48.1443 8.59154C48.8946 10.092 49.1446 11.8428 49.8951 13.3435C50.6456 14.8443 50.8956 16.0948 51.3958 17.5955C52.1461 19.8465 52.6463 21.8475 53.3966 24.0985L57.1483 37.6045C56.6278 37.1058 56.0381 36.6845 55.3976 36.354C54.3576 35.6543 53.0246 35.559 51.8958 36.1038Z" fill="black"/>
</svg>
