<svg width="60" height="60" viewBox="0 0 60 60" fill="none" xmlns="http://www.w3.org/2000/svg">
<g clip-path="url(#clip0_168_4981)">
<path d="M41.4747 23.4999C41.3163 23.022 41.0297 22.5967 40.6462 22.2705C40.2626 21.9443 39.7969 21.7296 39.2997 21.6499C39.2997 21.6499 38.6497 21.5249 38.3497 21.4249C35.2747 20.6499 28.3497 18.6499 26.0497 17.9999C25.5047 17.788 24.9067 17.7537 24.341 17.9018C23.7753 18.05 23.2709 18.373 22.8997 18.8249C22.7276 19.2259 22.5357 19.618 22.3247 19.9999C21.4997 21.5749 19.9997 23.9499 18.5997 26.0499C17.7997 27.2749 17.0997 28.0499 15.8997 29.8249C15.8997 29.8249 14.4497 31.5499 15.4997 32.7249C15.6163 32.9648 15.7588 33.1911 15.9247 33.3999C16.8747 34.6499 19.0747 37.1499 21.1497 39.3249C22.6997 40.9749 24.1747 42.4249 24.9247 43.0749C25.3602 43.3572 25.8479 43.5491 26.359 43.6393C26.87 43.7295 27.394 43.7161 27.8997 43.5999L29.4247 43.1999L32.0747 42.4999C33.7747 42.0499 35.6747 41.4999 37.3247 40.9999C38.6847 40.5837 40.0202 40.0913 41.3247 39.5249C42.2739 38.9694 42.979 38.0769 43.2997 37.0249L41.4747 23.4999ZM30.3997 39.9999C29.1979 40.3875 27.9697 40.6883 26.7247 40.8999L26.0997 40.3999C24.3247 38.8249 20.8497 35.3999 18.8247 33.2499C18.3497 32.7499 18.0247 32.0999 17.7497 31.7999C17.7933 31.7438 17.8437 31.6935 17.8997 31.6499C19.0245 30.4052 20.0525 29.0763 20.9747 27.6749C22.3728 25.6386 23.6581 23.5271 24.8247 21.3499L25.1747 20.6249C26.9997 21.1749 32.6747 22.8749 36.1747 23.7749C37.2747 24.0749 38.1497 24.2749 38.6747 24.3749C38.9747 26.8749 39.7247 36.7249 39.7497 36.8749C39.7747 37.0249 33.5997 39.0499 30.3997 39.9999Z" fill="black"/>
<path d="M52.1748 8.74993C47.5284 4.10864 41.5018 1.09973 34.9998 0.174928C33.6321 0.00134335 32.2523 -0.0571953 30.8748 -7.16797e-05C29.9498 -7.16797e-05 28.9748 -7.1682e-05 27.9998 0.174928C25.6849 0.392101 23.3981 0.844434 21.1748 1.52493C13.7732 4.09516 7.61334 9.36234 3.92481 16.2749C0.176989 23.1532 -0.780841 31.2097 1.24981 38.7749C2.85093 44.1746 6.1685 48.9052 10.6998 52.2499C15.0585 55.5866 20.0784 57.9559 25.4248 59.1999C29.9519 60.2641 34.6823 60.0873 39.1174 58.6882C43.5524 57.289 47.5279 54.7193 50.6248 51.2499C58.0998 43.4249 66.1498 23.1249 52.1748 8.74993ZM50.8498 9.99993C53.3808 12.5021 55.3124 15.5448 56.4998 18.8999L56.0248 18.7499L54.2248 18.1249L48.5998 16.2499C48.1498 16.0999 47.5748 15.9999 47.2248 15.8749C46.8748 15.7499 47.0748 15.4999 46.9998 15.2249C46.5998 13.4749 45.8998 9.94993 45.4748 7.54993C45.4748 6.89993 45.2998 6.32493 45.2248 5.84993C47.2835 6.96523 49.1767 8.362 50.8498 9.99993ZM21.9998 3.89993C24.0062 3.22819 26.0749 2.75918 28.1748 2.49993C27.6248 3.39993 26.8998 4.54993 26.1248 5.74993C25.3498 6.94993 24.2498 8.24993 23.6248 9.39993C23.2748 9.89993 22.9748 10.3749 22.7498 10.7499C22.1394 10.5002 21.513 10.2914 20.8748 10.1249C18.9248 9.67493 16.0248 9.24993 13.3748 8.89993C15.9162 6.7147 18.8406 5.01941 21.9998 3.89993ZM3.82481 37.2499C2.85567 33.2288 2.81293 29.04 3.69981 24.9999C4.99981 26.5249 5.99981 27.9249 6.77481 28.8749C7.11266 29.3012 7.49854 29.6871 7.92481 30.0249C7.49981 30.6499 6.69981 31.5249 5.92481 32.6749C5.39328 33.4659 4.93313 34.3025 4.54981 35.1749C4.27481 35.8749 4.04981 36.5749 3.82481 37.2499ZM26.0248 56.8249C23.0569 56.0608 20.1939 54.9357 17.4998 53.4749C17.9748 53.4749 18.4998 53.4749 19.0998 53.3499C19.831 53.2529 20.5569 53.1194 21.2748 52.9499C21.8005 52.8329 22.3182 52.6826 22.8248 52.4999C23.5983 52.2199 24.3366 51.8507 25.0248 51.3999C25.5998 52.1999 26.4748 53.2749 27.5248 54.4249C28.5748 55.5749 29.4498 56.5499 30.3498 57.4999C28.8904 57.4093 27.4425 57.1833 26.0248 56.8249ZM49.0998 49.9999L48.7248 50.3499C48.8815 49.2228 48.9734 48.0876 48.9998 46.9499C49.079 45.6929 48.9351 44.4318 48.5748 43.2249C49.9498 42.2999 52.9748 40.2749 55.3998 38.5749L56.2498 37.9749C54.8051 42.4717 52.3606 46.5829 49.0998 49.9999ZM53.3498 37.7999C51.0998 39.1249 48.6748 40.5499 47.4248 41.2499L44.3498 38.1249C43.8748 37.6749 41.5248 38.3499 43.0498 40.3249C44.3415 41.3538 45.4929 42.5472 46.4748 43.8749C46.9908 45.1409 47.1717 46.5186 46.9998 47.8749C47.0291 49.3531 46.8865 50.8297 46.5748 52.2749C42.5853 55.5169 37.6384 57.3533 32.4998 57.4999C31.8498 56.7999 31.0998 55.9249 30.3498 54.9999C28.9143 53.3311 27.6025 51.5597 26.4248 49.6999C26.2748 49.0499 27.1498 46.1499 27.0998 45.0499C26.3498 43.6749 25.1748 43.3249 24.5998 44.8999C24.2836 46.4488 24.0913 48.0205 24.0248 49.5999H23.7998C23.0465 49.7963 22.2765 49.9218 21.4998 49.9749C20.8998 49.9749 20.2998 50.1249 19.6998 50.2499C19.0788 50.3883 18.4688 50.5721 17.8748 50.7999C16.9589 51.1244 16.1112 51.616 15.3748 52.2499C14.3796 51.6108 13.4199 50.9182 12.4998 50.1749C9.22016 47.6172 6.64025 44.2719 4.99981 40.4499C5.57132 39.2203 6.23139 38.0339 6.97481 36.8999C7.44981 36.0749 7.92481 35.2749 8.29981 34.3999C8.8536 33.2674 9.30539 32.0877 9.64981 30.8749C10.8704 31.3025 12.1141 31.6614 13.3748 31.9499C14.6748 32.3499 16.4748 30.3749 13.0498 29.4499C11.8394 29.157 10.646 28.7981 9.47481 28.3749C9.02082 28.1656 8.61292 27.8682 8.27481 27.4999C7.27481 26.4499 5.92481 24.8249 4.19981 23.0749C4.74775 21.153 5.4934 19.2931 6.42481 17.5249C7.83224 14.9392 9.60927 12.5727 11.6998 10.4999L12.7748 10.7249C15.4248 11.8499 22.1248 14.7999 22.3248 14.9999C22.5248 15.1999 22.4998 15.4999 22.4998 15.7999C23.0748 18.9249 25.6498 17.7249 24.5998 13.2999C24.6555 13.2289 24.7057 13.1537 24.7498 13.0749C25.1248 12.4999 25.5748 11.7499 26.0748 10.8749C27.2498 8.69993 28.5748 5.87493 29.5998 3.97493L30.7248 2.29993C32.0061 2.19672 33.2935 2.19672 34.5748 2.29993C37.6016 2.68347 40.5522 3.5265 43.3248 4.79993C43.3248 4.79993 43.7748 11.5249 43.9248 13.3749C43.9248 14.1999 44.0998 14.8999 44.1748 15.4999C44.2498 16.0999 44.1748 16.3499 44.1748 16.6249C43.6748 17.1749 42.5998 18.3749 41.4748 19.4999C41.2248 19.7249 40.9998 19.9749 40.7498 20.1749C39.5748 21.1999 41.0248 23.8249 43.2498 21.3499C44.4248 20.1999 45.7498 19.0249 46.3748 18.4499H46.6998L47.5998 18.7249C50.2248 19.4499 54.4748 20.0249 57.0498 20.8749C58.2551 25.6085 58.1861 30.5767 56.8498 35.2749C56.0998 36.0249 54.7498 36.8499 53.3498 37.6999V37.7999Z" fill="black"/>
</g>
<defs>
<clipPath id="clip0_168_4981">
<rect width="60" height="60" fill="white"/>
</clipPath>
</defs>
</svg>
