<svg width="60" height="60" viewBox="0 0 60 60" fill="none" xmlns="http://www.w3.org/2000/svg">
<g clip-path="url(#clip0_168_4982)">
<path fill-rule="evenodd" clip-rule="evenodd" d="M48.1746 45C48.5522 43.5049 48.8195 41.9842 48.9746 40.45C49.2903 37.7222 49.2399 34.9644 48.8246 32.25C48.8116 32.1141 48.7695 31.9827 48.7011 31.8645C48.6328 31.7464 48.5398 31.6444 48.4284 31.5655C48.3171 31.4865 48.1901 31.4325 48.056 31.407C47.9219 31.3816 47.784 31.3853 47.6514 31.418C47.5189 31.4507 47.395 31.5115 47.2882 31.5964C47.1813 31.6812 47.0939 31.7881 47.0321 31.9098C46.9702 32.0314 46.9353 32.165 46.9297 32.3013C46.9241 32.4377 46.9479 32.5737 46.9996 32.7C46.9799 35.2738 46.6866 37.8382 46.1246 40.35C45.7575 42.6057 45.2142 44.8292 44.4996 47C43.8804 49.449 42.7088 51.7237 41.0746 53.65C40.2496 55.25 42.1996 55.275 43.8246 53.875C44.9198 52.4959 45.8511 50.9941 46.5996 49.4C47.2542 47.983 47.7813 46.5105 48.1746 45Z" fill="black"/>
<path fill-rule="evenodd" clip-rule="evenodd" d="M59.1746 24.2751C56.1246 10.0001 44.7996 -2.49991 27.7496 1.25009C27.5217 1.30397 27.3227 1.44231 27.1928 1.63719C27.0628 1.83207 27.0117 2.06897 27.0496 2.30009C27.1087 2.52339 27.2493 2.71649 27.4436 2.8414C27.6379 2.96632 27.8719 3.01401 28.0996 2.97509C30.9429 2.32245 33.8875 2.24051 36.7627 2.73402C39.638 3.22753 42.3867 4.28667 44.8496 5.85009C42.8742 5.42541 40.8174 5.59259 38.9364 6.33073C37.0555 7.06887 35.434 8.34521 34.2746 10.0001C32.5746 9.42509 30.9496 8.75009 29.2746 8.22509C27.9911 7.86418 26.6773 7.62151 25.3496 7.50009C23.5723 7.29334 21.777 7.29334 19.9996 7.50009C17.3029 7.82279 14.6769 8.58275 12.2246 9.75009C11.3151 10.1776 10.4378 10.6706 9.59962 11.2251C13.9333 7.10168 19.4007 4.36798 25.2996 3.37509C25.4023 3.35721 25.5003 3.3188 25.5878 3.26217C25.6753 3.20553 25.7504 3.13183 25.8088 3.04548C25.8671 2.95912 25.9075 2.86189 25.9274 2.75959C25.9473 2.65729 25.9463 2.55202 25.9246 2.45009C25.9157 2.34007 25.8841 2.23308 25.8318 2.13586C25.7795 2.03864 25.7076 1.9533 25.6208 1.8852C25.5339 1.81711 25.4338 1.76773 25.3269 1.74017C25.22 1.71262 25.1086 1.70748 24.9996 1.72509C20.4083 2.31993 16.0217 3.98793 12.1952 6.59397C8.36868 9.2 5.20985 12.6708 2.97462 16.7251C0.908515 20.9162 -0.0925299 25.552 0.0600904 30.2221C0.212711 34.8923 1.51429 39.4529 3.84962 43.5001C5.22281 46.0681 6.90168 48.4605 8.84962 50.6251C10.1781 52.1156 11.7098 53.4116 13.3996 54.4751C17.38 56.8327 21.7914 58.3711 26.3746 59.0001C30.8993 59.6777 35.506 59.5847 39.9996 58.7251C56.6246 55.4751 62.3246 38.9751 59.1746 24.2751ZM36.2496 11.4001C37.3222 9.67859 38.9767 8.39886 40.9126 7.79334C42.8484 7.18782 44.9372 7.29666 46.7996 8.10009C46.9237 8.12894 47.053 8.12571 47.1755 8.09072C47.298 8.05573 47.4095 7.99013 47.4996 7.90009C50.8287 10.927 53.3981 14.6954 54.9996 18.9001C55.0379 19.5705 54.9875 20.2429 54.8496 20.9001C54.6949 21.6352 54.4514 22.3487 54.1246 23.0251C53.3574 24.7568 52.0607 26.2004 50.421 27.1483C48.7813 28.0962 46.8831 28.4995 44.9996 28.3001C43.1266 28.1747 41.313 27.5918 39.7177 26.6024C38.1224 25.613 36.7942 24.2473 35.8496 22.6251C34.8466 20.9082 34.3517 18.9418 34.4225 16.9546C34.4933 14.9675 35.1269 13.0412 36.2496 11.4001ZM11.7996 49.6001C11.1626 48.9852 10.5616 48.3342 9.99962 47.6501C8.55247 45.9482 7.27945 44.1057 6.19962 42.1501C6.02462 41.8251 -0.850379 30.6251 4.44962 18.5751C6.83822 15.78 9.86538 13.6018 13.2746 12.2251C15.534 11.3139 17.8914 10.6679 20.2996 10.3001C21.9037 10.0519 23.5272 9.95149 25.1496 10.0001C26.3445 10.0375 27.5332 10.1882 28.6996 10.4501C30.2496 10.7501 31.7746 11.1751 33.3246 11.5501C32.2853 13.4693 31.741 15.6175 31.741 17.8001C31.741 19.9827 32.2853 22.1308 33.3246 24.0501C34.5114 25.979 36.1395 27.5985 38.0746 28.7751C37.8745 28.8991 37.7309 29.0965 37.6746 29.3251C36.4865 33.371 34.2833 37.0457 31.2746 40.0001C29.9921 41.2564 28.6129 42.4099 27.1496 43.4501C25.679 44.5386 24.1241 45.5084 22.4996 46.3501C19.1622 48.0799 15.5353 49.1815 11.7996 49.6001ZM27.4996 56.6251C23.0821 55.8444 18.8453 54.2598 14.9996 51.9501C14.6796 51.7416 14.3708 51.5163 14.0746 51.2751C17.5272 51.0249 20.9105 50.1791 24.0746 48.7751C25.879 47.969 27.5963 46.9805 29.1996 45.8251C30.8088 44.6764 32.2846 43.3515 33.5996 41.8751C36.7169 38.4469 38.8503 34.2405 39.7746 29.7001C39.7746 29.7001 39.7746 29.5251 39.7746 29.4251C41.517 30.2736 43.4138 30.7584 45.3496 30.8501C47.6318 30.9166 49.8789 30.2777 51.7848 29.0206C53.6906 27.7634 55.1624 25.9492 55.9996 23.8251C56.1226 23.4821 56.2229 23.1313 56.2996 22.7751C56.4746 23.4251 56.6496 24.1001 56.7746 24.7751C60.4246 43.1501 48.4246 59.8251 27.4996 56.6251Z" fill="black"/>
<path fill-rule="evenodd" clip-rule="evenodd" d="M16.3999 25.5501C18.2555 24.6128 20.1874 23.835 22.1749 23.2251C24.094 22.5769 26.0691 22.1082 28.0749 21.8251C29.119 21.7716 30.1658 21.8219 31.1999 21.9751C32.2999 21.9751 31.9999 20.5251 30.9499 20.0501C29.9686 19.812 28.959 19.711 27.9499 19.7501C25.7828 19.8614 23.6314 20.1795 21.5249 20.7001C19.2781 21.2003 17.0909 21.9378 14.9999 22.9001C12.9477 23.8729 11.0107 25.072 9.22489 26.4751C7.06522 28.1514 5.13239 30.101 3.47489 32.2751C2.97489 33.1751 3.24989 35.0751 4.19989 34.4501C6.23477 32.2798 8.52668 30.3657 11.0249 28.7501C12.7422 27.5632 14.538 26.4941 16.3999 25.5501Z" fill="black"/>
</g>
<defs>
<clipPath id="clip0_168_4982">
<rect width="60" height="60" fill="white"/>
</clipPath>
</defs>
</svg>
