<svg width="60" height="60" viewBox="0 0 60 60" fill="none" xmlns="http://www.w3.org/2000/svg">
<g clip-path="url(#clip0_165_7151)">
<path fill-rule="evenodd" clip-rule="evenodd" d="M59.6997 13.7999C59.4884 12.9835 59.0456 12.2455 58.4247 11.6749C59.1685 10.4856 59.425 9.05527 59.1409 7.68161C58.8569 6.30794 58.0541 5.09669 56.8997 4.29988C54.6323 2.39878 51.8788 1.16919 48.9497 0.74988C45.1747 0.49988 41.6497 5.57488 39.3497 7.69988C34.7497 12.0749 10.6497 37.0249 8.1497 41.1249C7.1247 42.7999 12.1247 46.6749 15.3497 50.0749C15.5035 50.1955 15.6952 50.2576 15.8905 50.25C16.0858 50.2425 16.2721 50.1659 16.4162 50.0338C16.5603 49.9017 16.6528 49.7228 16.6773 49.5288C16.7017 49.3349 16.6565 49.1386 16.5497 48.9749C14.2325 46.7002 12.0457 44.2963 9.9997 41.7749C12.9997 37.8749 31.3747 19.6749 34.9997 16.1749C35.5997 16.9749 36.2247 17.8999 36.4247 18.1749C38.3046 20.3625 40.4845 22.2731 42.8997 23.8499C31.6497 34.1499 30.2247 37.0749 18.4247 47.4999C18.2457 47.669 18.1412 47.9022 18.1341 48.1484C18.1271 48.3945 18.2181 48.6334 18.3872 48.8124C18.5563 48.9914 18.7895 49.0959 19.0357 49.103C19.2818 49.11 19.5207 49.019 19.6997 48.8499C30.3747 39.8249 34.4497 34.9499 40.6247 29.3749C45.4247 24.9999 53.6747 18.2999 57.4997 13.1749C57.7212 13.6257 57.8326 14.1226 57.8247 14.6249C57.8349 15.3106 57.7075 15.9914 57.4498 16.627C57.1922 17.2625 56.8096 17.8399 56.3247 18.3249C55.128 19.7389 53.8509 21.0827 52.4997 22.3499C46.8747 27.9999 46.0747 28.5249 46.9247 29.3749C47.0109 29.4633 47.1139 29.5336 47.2277 29.5816C47.3415 29.6296 47.4637 29.6543 47.5872 29.6543C47.7107 29.6543 47.8329 29.6296 47.9467 29.5816C48.0605 29.5336 48.1635 29.4633 48.2497 29.3749C51.9747 26.1999 61.8997 21.0249 59.6997 13.7999ZM56.0997 9.54988C54.9997 12.6749 46.7247 20.2999 44.2997 22.4999C42.1755 19.464 39.5356 16.8241 36.4997 14.6999C38.6497 12.5999 40.4247 10.9249 41.4997 9.97488C43.1997 8.42488 46.8497 3.74988 48.7747 3.87488C51.2247 4.04988 57.0247 6.82488 56.0997 9.54988Z" fill="black"/>
<path fill-rule="evenodd" clip-rule="evenodd" d="M12.0498 50.2C11.1912 51.2991 10.2192 52.3047 9.14983 53.2C7.92483 54.025 5.04983 50.975 5.42483 49.775C6.10417 48.3818 7.03669 47.1272 8.17482 46.075C9.29982 44.975 7.82482 44.15 6.79982 44.625C3.52483 47.125 0.749825 49.625 3.57482 53.375C2.62482 54.025 -0.925175 58.375 0.224825 58.975C0.874825 60.2 4.27482 57.075 5.59982 55.375C9.17482 57.875 11.3748 55.375 13.5998 51.85C14.9998 50.35 13.6248 48.525 12.0498 50.2Z" fill="black"/>
</g>
<defs>
<clipPath id="clip0_165_7151">
<rect width="60" height="60" fill="white"/>
</clipPath>
</defs>
</svg>
