<svg width="60" height="60" viewBox="0 0 60 60" fill="none" xmlns="http://www.w3.org/2000/svg">
<g clip-path="url(#clip0_165_7152)">
<path fill-rule="evenodd" clip-rule="evenodd" d="M38.2498 56.7749H32.5998C31.4022 56.7158 30.2133 56.54 29.0498 56.2499C28.0813 55.8057 27.1528 55.2787 26.2748 54.6749C25.8727 54.4913 25.4408 54.3812 24.9998 54.3499C23.9248 54.3499 22.7748 55.3499 21.5998 55.8999C21.5041 55.9655 21.3908 56.0005 21.2748 56.0005C21.1588 56.0005 21.0455 55.9655 20.9498 55.8999C20.6998 55.7499 20.7998 55.4249 20.7998 55.0999C20.8849 53.9682 20.8849 52.8316 20.7998 51.6999C20.7792 51.4548 20.6945 51.2195 20.554 51.0176C20.4136 50.8157 20.2224 50.6544 19.9998 50.5499C19.7422 50.422 19.4505 50.3797 19.1672 50.4292C18.8839 50.4786 18.6238 50.6173 18.4248 50.8249C18.2748 50.9749 17.8748 51.9749 17.6748 52.3499L16.1998 54.2749C15.487 55.0396 14.6395 55.6667 13.6998 56.1249C13.3122 56.3205 12.884 56.4224 12.4498 56.4224C12.0156 56.4224 11.5875 56.3205 11.1998 56.1249C10.4679 55.7019 9.83633 55.1252 9.34864 54.4347C8.86096 53.7442 8.52872 52.9561 8.37483 52.1249C9.92863 49.7612 11.2434 47.2489 12.2998 44.6249C12.7748 43.4999 13.1998 42.3249 13.5748 41.1499C13.9498 39.9749 14.1748 38.6499 14.3998 37.5499C14.3998 37.5499 14.5748 36.1999 14.6498 35.6999C14.6587 35.6001 14.6587 35.4997 14.6498 35.3999C14.6808 35.2431 14.6808 35.0817 14.6498 34.9249C14.6094 34.7412 14.5317 34.5678 14.4215 34.4154C14.3113 34.2629 14.1711 34.1347 14.0094 34.0386C13.8477 33.9426 13.6681 33.8807 13.4815 33.8568C13.295 33.833 13.1055 33.8476 12.9248 33.8999C10.8502 34.4418 9.06135 35.7566 7.92483 37.5749C6.33787 39.9741 5.34389 42.7161 5.02483 45.5749C4.65392 47.9835 4.78156 50.4426 5.39983 52.7999C4.02364 54.7421 2.32391 56.4334 0.374829 57.7999C0.267956 57.8596 0.17481 57.9411 0.101413 58.0391C0.0280157 58.1371 -0.0239982 58.2494 -0.0512661 58.3688C-0.0785339 58.4882 -0.0804486 58.6119 -0.0568864 58.7321C-0.0333241 58.8522 0.0151905 58.9661 0.0855207 59.0663C0.155851 59.1665 0.246431 59.2509 0.351405 59.3139C0.456378 59.3769 0.573408 59.4172 0.694928 59.4321C0.816448 59.4471 0.939752 59.4364 1.05687 59.4007C1.17398 59.365 1.28231 59.3051 1.37483 59.2249C3.11202 58.0864 4.67781 56.7059 6.02483 55.1249C6.77712 56.7988 8.0599 58.1782 9.67483 59.0499C10.9826 59.6881 12.4844 59.8043 13.8748 59.3749C15.58 58.805 17.1 57.7859 18.2748 56.4249C18.4597 57.0761 18.8665 57.6421 19.4248 58.0249C19.7813 58.2825 20.1899 58.4585 20.622 58.5406C21.054 58.6227 21.4988 58.6088 21.9248 58.4999C22.655 58.2394 23.3324 57.8499 23.9248 57.3499C24.2748 57.1249 24.5248 56.7999 24.8748 56.7999C25.2248 56.7999 26.4748 57.6749 27.3748 58.0999C27.7087 58.2723 28.0609 58.4064 28.4248 58.4999C29.7523 58.7538 31.0986 58.896 32.4498 58.9249C34.3498 58.9249 36.2998 58.9249 38.1998 58.7499C38.33 58.7499 38.4589 58.7239 38.5788 58.6734C38.6988 58.6228 38.8074 58.5487 38.8982 58.4555C38.9891 58.3623 39.0604 58.2519 39.1079 58.1307C39.1554 58.0095 39.1782 57.88 39.1748 57.7499C39.1639 57.5032 39.0644 57.2688 38.8944 57.0896C38.7245 56.9105 38.4956 56.7987 38.2498 56.7749ZM8.09983 46.1499C8.35688 43.7885 9.14304 41.5155 10.3998 39.4999C10.6674 39.0623 10.9772 38.652 11.3248 38.2749C11.205 39.0408 11.0465 39.8001 10.8498 40.5499C10.6304 41.6571 10.3465 42.7507 9.99983 43.8249C9.4357 45.3814 8.79321 46.9083 8.07483 48.3999C8.03346 47.6502 8.04181 46.8985 8.09983 46.1499Z" fill="black"/>
<path fill-rule="evenodd" clip-rule="evenodd" d="M59.7747 13.425C59.686 13.332 59.5793 13.2579 59.4611 13.2073C59.343 13.1567 59.2158 13.1306 59.0872 13.1306C58.9587 13.1306 58.8314 13.1567 58.7133 13.2073C58.5951 13.2579 58.4884 13.332 58.3997 13.425C57.353 14.2442 56.3671 15.1382 55.4497 16.1C53.8247 17.725 52.3247 19.45 50.6747 21.1C50.7621 20.9082 50.7773 20.6914 50.7176 20.4893C50.6579 20.2872 50.5273 20.1135 50.3497 20C48.9497 18.75 47.6247 17.5 46.1747 16.275L44.2997 14.8C43.6585 14.3211 42.9907 13.8787 42.2997 13.475C40.8997 12.625 39.4497 11.925 38.0247 11.175C39.0997 7.925 40.2997 4.7 41.4497 1.6C41.5339 1.38403 41.5314 1.14393 41.4429 0.929699C41.3545 0.715472 41.1867 0.543642 40.9747 0.450002C40.7623 0.366916 40.5258 0.370072 40.3156 0.458799C40.1055 0.547526 39.9383 0.714808 39.8497 0.925002C38.3497 4.125 36.7997 7.4 35.3997 10.75C34.4247 13 33.5497 15.275 32.8997 17.55C32.8282 17.9276 32.8794 18.3181 33.0459 18.6645C33.2123 19.0109 33.4852 19.2949 33.8247 19.475L34.7497 20L38.1247 21.75L44.3997 25.475C44.3997 27.15 44.0747 29.575 43.7747 32.025C43.5497 33.95 43.2497 35.825 42.9747 37.225C42.9747 37.975 42.9747 38.95 42.5997 38.825C42.0049 39.2548 41.3581 39.6076 40.6747 39.875C39.4497 40.4 37.8997 40.825 36.3497 41.45C32.7557 42.8717 28.9899 43.8132 25.1497 44.25C24.6747 40.75 23.5247 32.3 23.5497 31.15C23.4848 30.2413 23.6065 29.3289 23.9075 28.469C24.2084 27.6091 24.6822 26.8199 25.2997 26.15C27.6546 23.98 30.4044 22.2825 33.3997 21.15C33.5068 21.1062 33.6042 21.0416 33.6861 20.9599C33.7681 20.8782 33.8331 20.7811 33.8772 20.6741C33.9214 20.5672 33.9439 20.4525 33.9435 20.3368C33.9431 20.2211 33.9197 20.1066 33.8747 20C33.836 19.8916 33.7757 19.7921 33.6974 19.7077C33.6192 19.6233 33.5246 19.5557 33.4194 19.5089C33.3142 19.4622 33.2006 19.4373 33.0855 19.4357C32.9703 19.4342 32.8561 19.4561 32.7497 19.5C29.257 20.2913 25.9693 21.8074 23.0997 23.95C22.1228 24.8772 21.3596 26.0061 20.8631 27.2581C20.3666 28.5101 20.1488 29.8553 20.2247 31.2C20.2247 32.45 22.0997 40.6 22.8747 43.925L23.1747 45.2C23.1747 45.575 22.2247 48.9 39.1997 43.85C41.4701 43.3421 43.5712 42.2572 45.2997 40.7C45.6291 40.2501 45.8436 39.7266 45.9247 39.175C46.1691 37.8967 46.3112 36.6009 46.3497 35.3C46.4747 32.5 46.3497 29.075 46.3497 26.6H46.5247C46.7773 26.7556 47.0636 26.8482 47.3595 26.87C47.6553 26.8917 47.9521 26.842 48.2247 26.725C49.3359 26.0141 50.3596 25.175 51.2747 24.225C53.3997 22.1 55.1497 19.625 57.1247 17.35C57.8872 16.4024 58.7231 15.5164 59.6247 14.7C59.7954 14.5389 59.9039 14.3228 59.9313 14.0898C59.9587 13.8567 59.9033 13.6213 59.7747 13.425ZM49.3247 22.275C47.2997 24.375 48.7497 24.35 43.1747 20.825C42.0747 20.125 40.9247 19.45 39.7247 18.8L36.2247 17.075C36.5497 15.775 36.9747 14.575 37.3747 13.175C38.3997 14.125 39.3747 15.125 40.4497 16.025C41.0747 16.55 41.6997 17.025 42.3497 17.475C42.9997 17.925 43.6497 18.375 44.3497 18.8C45.9497 19.775 47.5747 20.65 49.1997 21.575C49.3969 21.7104 49.6388 21.7641 49.8747 21.725L49.3247 22.275Z" fill="black"/>
<path fill-rule="evenodd" clip-rule="evenodd" d="M28.3995 42.0751C29.0437 41.6138 29.5879 41.0271 29.9995 40.3501C30.3745 39.7501 30.6495 39.5501 30.9745 38.9251C31.7245 37.4251 32.3245 35.9251 32.9745 34.4501C38.4995 35.8501 39.2745 32.2001 39.3995 31.0751C39.4871 30.1731 39.3175 29.2649 38.9105 28.4553C38.5035 27.6456 37.8756 26.9678 37.0995 26.5001C36.3866 26.0751 35.5871 25.8163 34.7605 25.7427C33.9338 25.6691 33.1012 25.7827 32.3245 26.0751C31.5788 26.4499 30.9388 27.0054 30.4628 27.691C29.9868 28.3766 29.69 29.1704 29.5995 30.0001C29.4675 30.6811 29.5395 31.386 29.8063 32.0264C30.0731 32.6668 30.523 33.2142 31.0995 33.6001C30.1745 34.8001 29.2245 35.9751 28.2995 37.2251L27.0995 38.9501C26.6782 39.634 26.382 40.3874 26.2245 41.1751C25.8995 42.9251 27.0495 42.9751 28.3995 42.0751ZM32.4995 30.7001C32.5552 30.3726 32.6828 30.0616 32.8729 29.7893C33.0631 29.517 33.3113 29.2901 33.5995 29.1251C33.934 29.0071 34.2899 28.9617 34.6433 28.9919C34.9968 29.0221 35.3398 29.1271 35.6495 29.3001C35.9773 29.4497 36.2566 29.6884 36.4555 29.9889C36.6544 30.2895 36.7649 30.6398 36.7745 31.0001C36.7745 32.4501 35.3995 33.5001 32.9995 32.0501C32.764 31.9267 32.5825 31.7205 32.4901 31.4711C32.3978 31.2218 32.4011 30.9471 32.4995 30.7001Z" fill="black"/>
</g>
<defs>
<clipPath id="clip0_165_7152">
<rect width="60" height="60" fill="white"/>
</clipPath>
</defs>
</svg>
