<svg width="60" height="60" viewBox="0 0 60 60" fill="none" xmlns="http://www.w3.org/2000/svg">
<path fill-rule="evenodd" clip-rule="evenodd" d="M59.8497 21.2752C59.8497 19.8502 59.7247 18.3502 59.5247 16.9002C59.3851 15.8932 59.1678 14.8986 58.8747 13.9252C58.1183 11.626 56.6466 9.62874 54.6747 8.22519C53.9728 7.65592 53.1033 7.33291 52.2 7.30581C51.2967 7.27871 50.4094 7.54902 49.6747 8.07519C49.5169 8.19476 49.4109 8.37015 49.3784 8.56539C49.3458 8.76063 49.3892 8.96092 49.4997 9.12519C49.6155 9.28694 49.7892 9.39793 49.9847 9.43516C50.1801 9.47239 50.3824 9.43302 50.5497 9.32519C51.0322 9.02657 51.602 8.90102 52.1654 8.96917C52.7288 9.03732 53.2522 9.29512 53.6497 9.70019C55.1435 10.9537 56.1952 12.6538 56.6497 14.5502C56.8373 15.372 56.9544 16.2084 56.9997 17.0502V21.2252V27.0752V29.9502C56.9962 30.5439 56.9545 31.1368 56.8747 31.7252L56.3997 35.6752C56.1187 38.6747 55.0681 41.5508 53.3497 44.0252C52.7167 45.1585 51.6678 46.0013 50.4247 46.3752C49.2497 46.6002 48.5497 48.5752 49.8497 48.6252C50.8784 48.4725 51.8654 48.1123 52.7507 47.5665C53.636 47.0208 54.4012 46.3007 54.9997 45.4502C57.1325 42.7411 58.5355 39.5307 59.0747 36.1252L59.7247 32.2252C59.8202 31.5288 59.8786 30.8278 59.8997 30.1252V27.1502L59.8497 21.2752Z" fill="black"/>
<path fill-rule="evenodd" clip-rule="evenodd" d="M49.3999 46.1501C49.93 43.2992 50.1313 40.3969 49.9999 37.5001C49.9999 32.9001 49.8499 27.6751 49.5749 24.8501C49.4399 23.9769 49.1611 23.1321 48.7499 22.3501C47.8671 20.6796 46.8905 19.0603 45.8249 17.5001C45.7218 17.3177 45.5513 17.183 45.3499 17.1251C45.6253 16.0388 45.834 14.9368 45.9749 13.8251C46.114 12.6246 46.0634 11.4098 45.8249 10.2251C45.5828 9.15512 45.0826 8.16063 44.368 7.32834C43.6533 6.49605 42.746 5.85122 41.7249 5.45007C38.9862 4.43904 36.0941 3.90629 33.1749 3.87507L26.4999 3.57507C25.4301 3.53084 24.3585 3.58944 23.2999 3.75007C21.7999 3.95007 20.3499 4.30007 18.7499 4.67507C17.8965 4.77931 17.0577 4.98061 16.2499 5.27507C15.7709 5.45364 15.3421 5.74523 14.9999 6.12507C14.0704 7.36692 13.3679 8.76344 12.9249 10.2501C12.4053 11.7216 12.1185 13.2651 12.0749 14.8251V17.3251C11.939 17.2736 11.791 17.2627 11.6489 17.2937C11.5069 17.3248 11.377 17.3965 11.2749 17.5001C10.0828 19.8202 9.136 22.2584 8.44992 24.7751C7.72967 27.2987 7.25249 29.8855 7.02492 32.5001C6.50081 36.3992 6.50081 40.3509 7.02492 44.2501C7.47653 46.997 8.63052 49.5806 10.3749 51.7501C11.6355 53.4263 13.381 54.6744 15.3749 55.3251C18.1973 56.2412 21.1602 56.6475 24.1249 56.5251C26.0249 56.5251 27.9249 56.5251 29.8249 56.3751C31.7424 56.2754 33.6534 56.0751 35.5499 55.7751C37.4735 55.5193 39.3719 55.1012 41.2249 54.5251C42.5983 54.0908 43.8785 53.4041 44.9999 52.5001C47.0167 50.8228 48.5379 48.6274 49.3999 46.1501ZM14.9999 10.9501C15.3709 9.70412 15.9637 8.53537 16.7499 7.50007C16.952 7.28688 17.2132 7.13889 17.4999 7.07507C18.1082 6.89263 18.7258 6.74242 19.3499 6.62507C20.8499 6.22507 22.2499 5.80007 23.6999 5.55007C24.6414 5.38808 25.5946 5.30446 26.5499 5.30007L33.1499 5.47507C35.8403 5.58362 38.4935 6.14131 40.9999 7.12507C41.7211 7.41978 42.3597 7.88561 42.8606 8.48233C43.3615 9.07904 43.7096 9.78872 43.8749 10.5501C44.0249 11.5109 44.0249 12.4892 43.8749 13.4501C43.6299 15.0123 43.2536 16.5511 42.7499 18.0501C42.23 19.7611 41.5867 21.4321 40.8249 23.0501C40.092 24.6407 39.1412 26.1216 37.9999 27.4501C36.2013 29.544 33.8285 31.0649 31.1749 31.8251C30.1742 32.1168 29.1415 32.2847 28.0999 32.3251V31.9001C28.0999 30.7751 27.8499 29.7001 27.8749 28.6001C27.893 28.5032 27.8918 28.4038 27.8715 28.3074C27.8511 28.211 27.8119 28.1195 27.7562 28.0383C27.7005 27.957 27.6293 27.8875 27.5467 27.8338C27.4641 27.78 27.3718 27.7431 27.2749 27.7251C27.178 27.703 27.0777 27.7004 26.9798 27.7175C26.8819 27.7345 26.7884 27.7708 26.7047 27.8243C26.6209 27.8778 26.5487 27.9474 26.492 28.0291C26.4354 28.1108 26.3956 28.2029 26.3749 28.3001C25.8011 29.6445 25.3979 31.0554 25.1749 32.5001C24.4462 32.3902 23.7273 32.2231 23.0249 32.0001C20.5985 31.1129 18.6096 29.3211 17.4749 27.0001C15.5847 23.1988 14.5764 19.0201 14.5249 14.7751C14.4945 13.4837 14.6546 12.1948 14.9999 10.9501ZM47.7499 37.3251C47.796 39.9546 47.5359 42.5806 46.9749 45.1501C46.5504 46.1759 46.0227 47.156 45.3999 48.0751C44.805 48.9471 44.08 49.7228 43.2499 50.3751C42.3895 51.0113 41.4252 51.4935 40.3999 51.8001C38.6914 52.3041 36.9436 52.6637 35.1749 52.8751C33.3749 53.1501 31.5499 53.3251 29.7249 53.4251C27.8999 53.5251 26.0499 53.5751 24.1999 53.5501C21.5747 53.6806 18.9462 53.3679 16.4249 52.6251C14.9194 52.0886 13.5707 51.1866 12.4999 50.0001C10.9872 48.2041 9.95495 46.0537 9.49992 43.7501C8.84713 40.0373 8.68742 36.2546 9.02492 32.5001C9.15858 30.0373 9.52692 27.5929 10.1249 25.2001C10.6697 23.047 11.406 20.947 12.3249 18.9251C12.6519 22.1444 13.5581 25.2781 14.9999 28.1751C16.4485 31.177 19.0151 33.4923 22.1499 34.6251C23.1694 34.9426 24.2153 35.1685 25.2749 35.3001C25.3999 36.3001 25.5999 37.2751 25.7249 38.2751C25.7597 38.4786 25.8654 38.6633 26.0232 38.7965C26.1811 38.9297 26.3809 39.0027 26.5874 39.0027C26.7939 39.0027 26.9938 38.9297 27.1516 38.7965C27.3095 38.6633 27.4151 38.4786 27.4499 38.2751C27.5999 37.3001 27.7499 36.3501 27.8749 35.4001C30.2094 35.309 32.4978 34.7224 34.5882 33.6794C36.6787 32.6363 38.5234 31.1605 39.9999 29.3501C40.9835 28.1078 41.8222 26.7574 42.4999 25.3251C43.4571 23.3255 44.2271 21.2416 44.7999 19.1001C45.4499 20.1251 46.2249 21.2251 46.8249 22.3251C47.2939 23.0875 47.6003 23.9387 47.7249 24.8251C47.9499 27.6751 47.9999 32.8251 47.8499 37.3251H47.7499Z" fill="black"/>
<path fill-rule="evenodd" clip-rule="evenodd" d="M5 42.875C4.14392 41.4395 3.60677 39.8365 3.425 38.175C3.25 35.675 3.175 33.175 3.125 30.675C3.075 28.175 2.975 25.675 3 23.175C3 21.325 2.85 19.425 3 17.55C3.03693 16.4376 3.18772 15.3318 3.45 14.25C3.82108 12.6683 4.58652 11.2062 5.675 10C5.97696 9.65157 6.38185 9.40809 6.8312 9.30473C7.28056 9.20138 7.75114 9.24351 8.175 9.42504C8.2669 9.46143 8.36508 9.47931 8.46391 9.47763C8.56274 9.47595 8.66026 9.45476 8.75087 9.41526C8.84147 9.37576 8.92338 9.31875 8.99188 9.24749C9.06038 9.17623 9.11411 9.09213 9.15 9.00004C9.19062 8.91013 9.21246 8.81288 9.21419 8.71424C9.21591 8.61559 9.19749 8.51764 9.16005 8.42636C9.1226 8.33509 9.06692 8.25242 8.99641 8.18341C8.92591 8.1144 8.84206 8.06051 8.75 8.02504C8.07934 7.70223 7.32691 7.58919 6.59101 7.70069C5.8551 7.81219 5.16993 8.14305 4.625 8.65004C3.16053 9.98097 2.03733 11.6443 1.35 13.5C0.851234 14.7865 0.515294 16.1302 0.35 17.5C0.13533 19.4346 0.0185141 21.3787 0 23.325C0 25.825 0 28.325 0.15 30.825C0.3 33.325 0.575 35.825 0.875 38.325C1.22148 40.3218 1.98843 42.2221 3.125 43.9C3.78729 45.241 4.90333 46.3039 6.275 46.9C7.4 47.35 7.9 45.825 6.6 44.925C5.9272 44.363 5.38177 43.6642 5 42.875Z" fill="black"/>
</svg>
