<svg width="60" height="60" viewBox="0 0 60 60" fill="none" xmlns="http://www.w3.org/2000/svg">
<g clip-path="url(#clip0_161_6827)">
<path d="M5.62474 51.3999L13.1247 51.2499C14.3497 51.2499 15.6247 51.0749 16.7497 50.9249C18.5497 50.6749 20.2997 50.3499 22.0997 50.1499C23.3247 50.1499 29.8747 49.6249 31.1747 49.5749C31.3935 49.5749 31.6034 49.488 31.7581 49.3333C31.9128 49.1786 31.9997 48.9687 31.9997 48.7499C31.9997 48.5311 31.9128 48.3213 31.7581 48.1666C31.6034 48.0119 31.3935 47.9249 31.1747 47.9249C29.3997 47.7499 22.3497 47.9249 20.5997 47.9249C19.2997 47.9249 18.0997 47.9249 16.6997 48.0499L12.8997 48.3249C11.8997 48.3249 10.8997 48.4749 9.89973 48.5999C8.37473 48.7999 6.89974 49.0499 5.39974 49.2749L4.02474 49.6249C3.09974 49.9499 2.99974 51.2249 3.82474 51.3999H5.62474Z" fill="black"/>
<path d="M54.425 8.24996C53.8612 7.15275 53.0784 6.18279 52.125 5.39996L51 3.34996C50.233 2.47212 49.2508 1.80876 48.15 1.42496C46.6355 0.926192 45.0431 0.705969 43.45 0.77496C41.9243 1.04921 40.4203 1.43355 38.95 1.92496C38.6679 1.9616 38.3822 1.9616 38.1 1.92496C37.8951 1.93684 37.6901 1.90267 37.5 1.82496C36.85 1.54996 36.225 1.14996 35.625 0.92496C34.577 0.545702 33.4626 0.384078 32.35 0.44996H25.525C24.6172 0.378121 23.7046 0.394866 22.8 0.49996C21.6491 0.639928 20.5502 1.0606 19.6 1.72496C18.9024 2.25558 18.4011 3.00315 18.175 3.84996L17.975 5.64996L15.925 7.22496C15.1934 8.04903 14.8083 9.12378 14.85 10.225C14.9 11.2838 15.2852 12.2993 15.95 13.125C16.8629 14.2335 18.041 15.0934 19.375 15.625L20 15.8C20 16.15 19.675 27.5 19.675 27.5C19.6882 28.5896 19.5961 29.678 19.4 30.75C19.312 31.3207 19.07 31.8566 18.7 32.3C18.1687 32.8013 17.5262 33.1697 16.825 33.375C15.525 33.825 14.075 34.05 12.925 34.35C9.8157 34.9607 6.8793 36.2497 4.32504 38.125C2.65378 39.5882 1.43154 41.4953 0.800043 43.625C0.339585 45.1011 0.0707166 46.6303 4.30625e-05 48.175C-0.0604036 49.6779 0.00650204 51.1833 0.200043 52.675C0.258542 53.3852 0.384102 54.0884 0.575043 54.775C0.730584 55.3669 1.02157 55.9147 1.42504 56.375C1.89918 56.8098 2.49007 57.0965 3.12504 57.2C4.77236 57.5372 6.4447 57.7379 8.12504 57.8C12.8384 58.05 17.5617 58.05 22.275 57.8C22.3834 57.7967 22.4901 57.7722 22.5889 57.7277C22.6878 57.6832 22.7769 57.6197 22.8512 57.5408C22.9255 57.4618 22.9835 57.369 23.0219 57.2676C23.0603 57.1663 23.0784 57.0583 23.075 56.95C23.0719 56.8394 23.0466 56.7306 23.0005 56.63C22.9545 56.5295 22.8887 56.4392 22.8071 56.3645C22.7254 56.2899 22.6296 56.2325 22.5253 56.1956C22.4211 56.1587 22.3104 56.1432 22.2 56.15C18.525 56.15 14.05 56.15 10.275 55.775C8.20275 55.6437 6.14051 55.3849 4.10004 55C3.35004 54.825 3.20004 55 2.95004 53.9L2.75004 48.4C2.83231 47.0835 3.0758 45.7821 3.47504 44.525C4.07113 42.4626 5.39452 40.6863 7.20004 39.525C9.22084 38.3905 11.3925 37.5487 13.65 37.025C15.2798 36.6338 16.8763 36.1156 18.425 35.475C19.1968 35.1097 19.8858 34.5908 20.45 33.95C21.0605 33.1741 21.457 32.2518 21.6 31.275C21.7121 30.5472 21.7623 29.8112 21.75 29.075L22.775 29.25C23.4553 29.2566 24.1342 29.1895 24.8 29.05C25.75 28.825 26.55 28.35 27.3 28.175C27.4973 28.1407 27.6762 28.038 27.8052 27.8847C27.9341 27.7315 28.0048 27.5377 28.0048 27.3375C28.0048 27.1372 27.9341 26.9434 27.8052 26.7902C27.6762 26.637 27.4973 26.5342 27.3 26.5C26.2879 26.3012 25.2532 26.2424 24.225 26.325C23.625 26.325 23.05 26.6 22.5 26.65L21.625 26.95L21.575 21.075C22.1604 21.2619 22.7637 21.3876 23.375 21.45C23.7401 21.4988 24.11 21.4988 24.475 21.45C24.8467 21.3905 25.2142 21.307 25.575 21.2C28.7 20.425 27.55 19.35 26.9 19.2L25.5 18.925C25.1382 18.8342 24.7707 18.7673 24.4 18.725C24.0343 18.6875 23.6658 18.6875 23.3 18.725C22.6916 18.8282 22.0904 18.9701 21.5 19.15V17.475C21.4478 17.0599 21.4478 16.64 21.5 16.225C22.1639 16.3122 22.8362 16.3122 23.5 16.225C24.425 16.225 25.325 15.825 26.225 15.675C26.4904 15.6373 26.7597 15.6373 27.025 15.675C28.95 15.95 30.25 16.825 32.025 17C32.9032 17.1105 33.7944 17.0511 34.65 16.825C36.3111 16.1838 37.9236 15.4235 39.475 14.55C39.976 14.3066 40.5193 14.1623 41.075 14.125C42.4728 14.1865 43.8502 14.4823 45.15 15C46.2396 15.3503 47.3812 15.5109 48.525 15.475C48.525 15.475 48.525 15.475 48.525 15.6C48.2562 16.117 48.0223 16.6516 47.825 17.2C47.8083 17.458 47.8083 17.7169 47.825 17.975V18.775C47.9395 19.3997 48.0898 20.0174 48.275 20.625C48.275 20.8438 48.362 21.0536 48.5167 21.2083C48.6714 21.363 48.8812 21.45 49.1 21.45C49.2105 21.4533 49.3204 21.4344 49.4234 21.3945C49.5264 21.3545 49.6204 21.2943 49.6996 21.2173C49.7789 21.1404 49.8419 21.0483 49.8849 20.9466C49.928 20.8448 49.9501 20.7354 49.95 20.625L50.575 18.125C50.5881 17.9168 50.5881 17.7081 50.575 17.5C50.427 16.8706 50.2348 16.2524 50 15.65C50.0216 15.4924 50.0216 15.3326 50 15.175C50.9392 14.8773 51.7955 14.3636 52.5 13.675C52.8769 13.3225 53.2124 12.9283 53.5 12.5C53.811 12.0913 54.0712 11.6463 54.275 11.175C54.6955 10.2546 54.7492 9.20851 54.425 8.24996ZM51.925 10.25C51.8084 10.5108 51.657 10.7546 51.475 10.975C51.2758 11.2243 51.0494 11.4507 50.8 11.65C50.3989 12.043 49.9135 12.3395 49.3808 12.5171C48.848 12.6947 48.2818 12.7487 47.725 12.675C45.5217 12.0065 43.2625 11.5379 40.975 11.275C40.0681 11.3136 39.177 11.5257 38.35 11.9C36.948 12.726 35.4855 13.4447 33.975 14.05C33.2435 14.2233 32.4816 14.2233 31.75 14.05C30.35 13.75 29.25 13.1 27.45 12.875C26.9353 12.8122 26.4148 12.8122 25.9 12.875C25 13.025 24.15 13.4 23.275 13.525C22.2613 13.6854 21.2237 13.5997 20.25 13.275C19.2906 12.9452 18.4305 12.3775 17.75 11.625C17.3425 11.1762 17.0961 10.6044 17.05 9.99996C17.037 9.49578 17.1957 9.00214 17.5 8.59996C17.9827 8.19893 18.4922 7.8314 19.025 7.49996C19.2252 7.35207 19.4022 7.17512 19.55 6.97496C19.8112 6.63545 19.9676 6.22708 20 5.79996V4.29996C20.0703 4.01055 20.1999 3.73888 20.3806 3.50219C20.5614 3.26549 20.7893 3.06893 21.05 2.92496C21.6534 2.54911 22.3243 2.29437 23.025 2.17496C23.8506 2.03483 24.688 1.97622 25.525 1.99996C26.325 1.99996 31.6 2.22496 32.5 2.19996C33.3539 2.1951 34.2014 2.34765 35 2.64996C35.575 2.87496 36.15 3.29996 36.75 3.57496C37.0974 3.7402 37.4686 3.84987 37.85 3.89996C38.3137 3.97468 38.7864 3.97468 39.25 3.89996C40.6224 3.46554 42.0267 3.13954 43.45 2.92496C44.5566 2.9062 45.6599 3.04938 46.725 3.34996C47.6975 3.58391 48.572 4.11733 49.225 4.87496C49.5134 5.37374 49.748 5.90169 49.925 6.44996C50.0457 6.68553 50.197 6.90409 50.375 7.09996C50.9632 7.63981 51.4989 8.23413 51.975 8.87496C52.0716 9.09496 52.113 9.33523 52.0956 9.57486C52.0781 9.8145 52.0024 10.0462 51.875 10.25H51.925Z" fill="black"/>
<path d="M38.9752 47.975C40.1502 47.975 41.3502 48.125 42.5502 48.125C43.7502 48.125 44.9252 48.125 46.1252 47.975C48.0123 47.807 49.8842 47.4978 51.7252 47.05C52.6752 46.825 52.4002 45.35 51.5502 45.3H46.1502H43.1752C41.7252 45.3 40.3002 45.55 38.8752 45.675L37.0002 46.05C36.3252 46.2 35.8252 47.625 36.7252 47.925L38.9752 47.975Z" fill="black"/>
<path d="M55.2997 39.275V34.625V32.925C55.3071 32.8502 55.3071 32.7748 55.2997 32.7H55.6497C56.2779 32.6167 56.8918 32.4485 57.4747 32.2C58.1443 31.9354 58.7311 31.4971 59.175 30.9302C59.6188 30.3634 59.9035 29.6885 59.9997 28.975C60.1004 28.2758 59.9871 27.5625 59.6747 26.9289C59.3624 26.2953 58.8656 25.771 58.2497 25.425C57.4064 24.9729 56.4786 24.7005 55.5247 24.625H51.9247L46.6747 24.8C44.1747 24.95 41.6747 25.525 39.1747 25.775C38.009 25.9837 36.8155 25.9837 35.6497 25.775C35.2339 25.7377 34.8156 25.7377 34.3997 25.775C33.9676 25.8013 33.5398 25.8768 33.1247 26C31.938 26.3871 30.9221 27.1733 30.2497 28.225C29.9688 28.661 29.8193 29.1688 29.8193 29.6875C29.8193 30.2062 29.9688 30.714 30.2497 31.15C30.8065 31.8633 31.6083 32.3445 32.4997 32.5C32.7536 32.5659 33.013 32.6078 33.2747 32.625V34.375V36.375C33.2747 36.6535 33.3854 36.9205 33.5823 37.1175C33.7792 37.3144 34.0463 37.425 34.3247 37.425C34.6032 37.425 34.8703 37.3144 35.0672 37.1175C35.2641 36.9205 35.3747 36.6535 35.3747 36.375L35.1247 34.3C35.1594 33.7786 35.1088 33.2551 34.9747 32.75H37.4747C40.4247 32.75 43.3497 32.975 46.2747 33C48.2497 33 50.2247 33 52.2247 32.75H53.7747L53.4247 34.425C52.7081 40.1293 52.549 45.8898 52.9497 51.625C51.8247 51.625 50.6997 51.8 49.9497 51.875C49.1997 51.95 45.9497 52.325 43.2247 52.55C41.4997 52.55 39.8497 52.8 38.7747 52.825C38.6526 52.8038 38.5274 52.8096 38.4078 52.8419C38.2881 52.8743 38.177 52.9323 38.0822 53.0121C37.9874 53.0919 37.9112 53.1915 37.8589 53.3038C37.8066 53.4162 37.7795 53.5386 37.7795 53.6625C37.7795 53.7864 37.8066 53.9088 37.8589 54.0212C37.9112 54.1335 37.9874 54.2331 38.0822 54.3129C38.177 54.3927 38.2881 54.4507 38.4078 54.4831C38.5274 54.5154 38.6526 54.5212 38.7747 54.5H43.3497C46.0997 54.5 49.0247 54.3 50.1497 54.225C51.323 54.134 52.5015 54.134 53.6747 54.225C54.1864 54.2406 54.6856 54.3869 55.1247 54.65C55.1032 54.7729 55.0609 54.8913 54.9997 55C54.6948 55.239 54.3469 55.4172 53.9747 55.525C53.1558 55.8003 52.3209 56.0257 51.4747 56.2C49.572 56.6368 47.627 56.8631 45.6747 56.875C42.5997 56.875 39.4997 56.875 36.4997 56.7H34.2247C33.7624 56.6786 33.3026 56.6201 32.8497 56.525C32.7247 56.525 32.4997 56.275 32.3497 56.325C32.3799 56.2023 32.4386 56.0885 32.5212 55.9929C32.6037 55.8974 32.7078 55.8227 32.8247 55.775C33.7497 55.325 35.1247 55.225 35.7497 54.925C35.9242 54.8342 36.056 54.6785 36.1168 54.4915C36.1776 54.3044 36.1625 54.101 36.0747 53.925C36.0496 53.8631 36.0123 53.8069 35.9651 53.7597C35.9178 53.7124 35.8616 53.6751 35.7997 53.65C35.828 53.5097 35.828 53.3653 35.7997 53.225V50.9C35.7997 50.625 35.9497 48.85 35.7997 44.95V42.2C35.7997 41.275 33.1747 40.025 32.9747 41.675C32.9747 42.8 32.9747 43.95 33.1497 45.075C33.2997 47.05 33.5497 49.025 33.7497 51L34.0247 53.3C34.0422 53.4829 34.0422 53.6671 34.0247 53.85C33.1498 53.9311 32.2998 54.1861 31.5247 54.6C31.1892 54.8248 30.9212 55.1367 30.7494 55.5022C30.5776 55.8678 30.5086 56.2732 30.5497 56.675C30.5773 57.0509 30.7366 57.4051 30.9997 57.675C31.3924 58.0196 31.8651 58.2603 32.3747 58.375C32.9122 58.5444 33.4648 58.6616 34.0247 58.725C34.7997 58.85 35.5997 58.9 36.3497 58.975C39.4247 59.225 42.5747 59.7 45.6997 59.725C47.8703 59.756 50.0364 59.5209 52.1497 59.025C53.2769 58.7779 54.3809 58.435 55.4497 58C56.0564 57.742 56.6017 57.3586 57.0497 56.875C57.5778 56.2008 57.8362 55.3542 57.7747 54.5C57.7267 53.8272 57.4331 53.1955 56.9497 52.725C56.2995 52.2148 55.5208 51.8946 54.6997 51.8C54.8747 49.3 55.0747 46.975 55.1747 44.65C55.1997 42.875 55.1997 41.175 55.2997 39.275ZM51.8747 30C50.4497 30.125 49.0247 30.175 47.5997 30.25C44.1997 30.375 40.8247 30.25 37.3997 30.425C36.0872 30.5522 34.7677 30.5939 33.4497 30.55C32.7247 30.55 32.0247 30.55 31.7247 30.025C31.4247 29.5 31.7247 29.15 31.9247 28.75C32.3252 28.1968 32.8701 27.7644 33.4997 27.5L34.4747 27.275C34.8159 27.2493 35.1585 27.2493 35.4997 27.275C35.6247 27.275 38.5497 27.625 39.1997 27.575C41.6997 27.425 44.1997 27 46.6997 26.975H51.8747C52.8497 26.975 54.0497 26.975 55.1747 27.125C55.7643 27.1941 56.3339 27.3812 56.8497 27.675C57.0011 27.7717 57.1201 27.9114 57.1913 28.0763C57.2626 28.2411 57.283 28.4235 57.2497 28.6C57.2056 28.802 57.1147 28.9909 56.9845 29.1515C56.8543 29.3121 56.6883 29.44 56.4997 29.525C55.9941 29.7121 55.4631 29.8216 54.9247 29.85C53.8997 30 52.8247 30 51.8747 30Z" fill="black"/>
<path d="M36.6 41.1249C37.2565 41.2794 37.9262 41.3715 38.6 41.3999C39.516 41.4504 40.434 41.4504 41.35 41.3999C43.2353 41.2724 45.0985 40.9199 46.9 40.3499C48.425 39.8499 49.925 39.2499 51.425 38.6499C52.925 38.0499 53.075 36.4749 51.7 36.5499C49.9 37.1249 48.125 37.7249 46.3 38.1499C44.6629 38.544 42.9839 38.7371 41.3 38.7249H38.8C38.3047 38.6763 37.8123 38.6012 37.325 38.4999C35.3224 37.7721 33.1276 37.7721 31.125 38.4999C29.775 38.9749 28.775 40.0249 27.325 40.3999C26.7246 40.6001 26.0754 40.6001 25.475 40.3999C25.2016 40.2909 24.9525 40.1287 24.7423 39.9227C24.532 39.7167 24.3647 39.471 24.25 39.1999C24.1249 38.8453 24.0492 38.4752 24.025 38.0999C24.024 37.6952 24.0744 37.292 24.175 36.8999C24.2626 36.7873 24.3302 36.6604 24.375 36.5249C24.5268 36.4911 24.6605 36.402 24.75 36.2749C24.8585 36.1983 24.9438 36.0934 24.9966 35.9716C25.0495 35.8498 25.0679 35.7158 25.0499 35.5843C25.0318 35.4527 24.978 35.3287 24.8943 35.2256C24.8105 35.1226 24.7001 35.0445 24.575 34.9999C24.4315 34.914 24.2673 34.8687 24.1 34.8687C23.9327 34.8687 23.7686 34.914 23.625 34.9999C23.175 35.1499 22.75 36.0249 22.65 36.3249C22.4573 36.8474 22.3394 37.3945 22.3 37.9499C22.2545 38.539 22.3137 39.1315 22.475 39.6999C22.6378 40.237 22.9079 40.7354 23.2688 41.1651C23.6298 41.5948 24.0741 41.9469 24.575 42.1999C25.5654 42.6915 26.6907 42.841 27.775 42.6249C28.2509 42.548 28.7137 42.4049 29.15 42.1999C31.725 40.9749 30.925 39.6499 36.6 41.1249Z" fill="black"/>
</g>
<defs>
<clipPath id="clip0_161_6827">
<rect width="60" height="60" fill="white"/>
</clipPath>
</defs>
</svg>
