<svg width="60" height="60" viewBox="0 0 60 60" fill="none" xmlns="http://www.w3.org/2000/svg">
<g clip-path="url(#clip0_161_7077)">
<path fill-rule="evenodd" clip-rule="evenodd" d="M49.5002 20.6251C52.0002 15.7501 56.6502 6.47508 51.2252 5.75008C46.8975 5.10561 42.5255 4.80467 38.1502 4.85008C38.2704 4.10617 38.3289 3.35362 38.3252 2.60008C38.1752 -0.649917 33.7752 8.2708e-05 32.5002 8.2708e-05C31.2454 -0.0595656 29.9888 0.0753648 28.7752 0.400083C20.3502 2.22508 20.9252 1.82508 18.2002 2.50008C15.9558 3.04049 13.7946 3.88141 11.7752 5.00008C11.321 5.34067 10.9737 5.80411 10.7744 6.3357C10.575 6.86728 10.532 7.44481 10.6502 8.00008C10.6502 8.60008 12.5002 16.7251 12.8752 18.1751C13.5252 20.8251 13.8002 21.2501 15.1502 26.7251C15.3252 27.4501 15.3502 28.7251 16.4252 28.8251C16.5238 28.8354 16.6235 28.8262 16.7184 28.7978C16.8134 28.7694 16.9018 28.7224 16.9785 28.6597C17.0552 28.5969 17.1188 28.5195 17.1654 28.4321C17.212 28.3446 17.2409 28.2488 17.2502 28.1501C17.2502 27.3251 15.9752 24.1751 14.4502 13.9251C17.5002 14.6501 23.2252 8.95008 22.5002 4.37508C30.0002 2.95008 29.4252 2.25008 32.5002 2.15008C33.4752 2.15008 35.8752 1.60008 36.4752 2.40008C36.7252 2.72508 36.4752 4.47508 36.6002 4.90008C35.3002 4.90008 28.5002 5.30008 27.6002 6.27508C26.7393 7.69773 26.3054 9.33783 26.3502 11.0001C26.2002 12.1501 24.7502 24.5751 24.9502 25.6751C24.9518 25.7919 24.979 25.907 25.0298 26.0123C25.0806 26.1175 25.1539 26.2103 25.2445 26.2842C25.335 26.358 25.4407 26.4112 25.554 26.4398C25.6672 26.4685 25.7854 26.472 25.9002 26.4501C26.3002 26.4501 28.0252 15.0001 28.0502 14.8001C29.0172 15.0638 30.0335 15.0902 31.0129 14.8769C31.9922 14.6636 32.9055 14.217 33.6752 13.5751C34.6392 12.9088 35.4378 12.0307 36.0098 11.008C36.5818 9.98528 36.9121 8.84518 36.9752 7.67508H43.1752C42.9377 8.64041 42.9171 9.64639 43.115 10.6206C43.3129 11.5948 43.7243 12.5131 44.3196 13.3092C44.9149 14.1054 45.6794 14.7597 46.5579 15.225C47.4364 15.6902 48.4071 15.955 49.4002 16.0001C48.9002 17.2501 48.3502 18.5001 47.7752 19.7751L47.0252 21.8501C46.7002 22.8501 48.2502 23.6751 48.6752 22.7001C48.8002 22.3501 48.5752 22.9251 49.5002 20.6251ZM14.2002 12.2251C13.9502 10.4751 13.4752 8.15008 13.4752 8.10008C13.2502 6.30008 13.8502 7.00008 15.5252 6.30008C17.1371 5.63297 18.8123 5.13042 20.5252 4.80008C20.1752 6.75008 16.1502 11.9251 14.2002 12.2251ZM32.2502 11.1251C29.1002 13.6251 29.7502 12.8751 28.3502 13.0751C28.5566 11.5268 28.8488 9.99106 29.2252 8.47508C29.4502 8.47508 31.7252 8.00008 35.2002 7.77508C34.8002 9.17508 33.0002 10.5001 32.2502 11.1251ZM47.0252 12.0501C44.5252 9.55008 44.9502 8.07508 44.9002 7.85008C46.9252 7.85008 48.9502 8.12508 50.9252 8.32508C51.9752 8.32508 50.5002 13.0501 50.1502 14.0751C48.9303 13.7261 47.8422 13.021 47.0252 12.0501Z" fill="black"/>
<path fill-rule="evenodd" clip-rule="evenodd" d="M56.35 37.0001C55.7 34.1751 53.975 32.0001 51.075 32.3251C50.725 31.7251 52.125 26.3251 47.925 24.4501C47.3979 24.1927 46.832 24.0238 46.25 23.9501C45.0456 23.7756 43.8179 24.0229 42.775 24.6501C41.45 25.2751 35.85 26.9501 35.85 27.0001C34.675 27.3001 23.35 29.3251 20.175 29.5001C16.525 29.6251 10.475 29.1251 12.825 26.2751C12.9568 26.132 13.0299 25.9446 13.0299 25.7501C13.0299 25.5556 12.9568 25.3682 12.825 25.2251C11.85 24.4001 10.675 26.5751 10.75 27.8751C10.925 31.1001 17.025 32.0251 20.25 32.1501C30.75 32.5251 43.6 26.9501 44.2 25.7501C47.95 26.3751 48.775 29.3001 49.375 33.2501C48.05 35.1251 46.525 34.1751 42.35 35.0751C39.225 35.7501 37.35 37.2751 37.525 40.4751C37.5499 41.6377 37.9164 42.7673 38.5788 43.7231C39.2412 44.6789 40.1702 45.4186 41.25 45.8501C41.9853 46.089 42.7374 46.2729 43.5 46.4001C45.5887 46.8581 47.7561 46.8153 49.825 46.2751C49.575 53.2251 48.8 53.2001 44.825 54.5501C38.4 56.6501 17.925 58.8751 12.325 55.4001C8.875 53.5001 8.325 50.0001 7.5 46.4251C6.35837 41.7568 5.72139 36.9794 5.6 32.1751C5.475 24.5001 6 24.4251 10.6 21.1001C10.7514 20.9599 10.8466 20.7695 10.8679 20.5643C10.8892 20.3591 10.8352 20.1531 10.7158 19.9848C10.5965 19.8165 10.42 19.6974 10.2193 19.6496C10.0186 19.6018 9.80737 19.6286 9.625 19.7251C4.625 23.2001 3.725 23.7501 3.575 32.2251C3.5054 37.1793 3.9833 42.1259 5 46.9751C5.925 51.4501 6.55 55.3001 10.6 57.8251C18.575 62.8251 46.75 58.4501 50.075 53.6501C51.203 51.1883 51.6436 48.4671 51.35 45.7751C53.1071 45.1695 54.5837 43.9448 55.5039 42.33C56.424 40.7151 56.7248 38.8205 56.35 37.0001ZM44.075 43.6751C43.0946 43.585 42.1466 43.2776 41.3 42.7751C39.975 41.7001 39.475 39.0001 40.95 38.0501C44.45 35.8251 49 37.7001 50.95 34.0001C51.175 34.0001 53.85 33.2251 54.475 37.3751C55.125 42.5001 48.975 44.8251 44.075 43.6751Z" fill="black"/>
<path fill-rule="evenodd" clip-rule="evenodd" d="M39.6748 23.0001C40.5722 22.6416 41.5338 22.4714 42.4998 22.5001C42.7248 23.7751 44.9998 23.2751 44.8248 22.2751C44.5998 20.4751 43.5248 19.9751 41.6748 19.7751C40.7588 19.6945 39.8376 19.8525 39.0008 20.2337C38.164 20.6148 37.4402 21.2062 36.8998 21.9501C36.4084 22.8075 36.1741 23.7882 36.2248 24.7751C35.9998 25.7501 38.2498 25.5251 38.2748 24.6251C38.7498 23.5001 38.9998 23.3001 39.6748 23.0001Z" fill="black"/>
</g>
<defs>
<clipPath id="clip0_161_7077">
<rect width="60" height="60" fill="white"/>
</clipPath>
</defs>
</svg>
