<svg width="60" height="60" viewBox="0 0 60 60" fill="none" xmlns="http://www.w3.org/2000/svg">
<g clip-path="url(#clip0_166_4906)">
<path fill-rule="evenodd" clip-rule="evenodd" d="M23.5748 50.6H17.6998C16.4248 50.6 14.1248 50.6 12.1248 50.425C11.0855 50.4438 10.0623 50.1663 9.17484 49.625C8.41529 48.6334 7.9946 47.4239 7.97484 46.175C7.77903 44.0712 7.77903 41.9538 7.97484 39.85C8.17484 36.15 8.72484 28.15 9.14984 21.075C9.47484 15.35 9.72484 10.225 9.74984 8.575C9.74443 7.73746 9.81134 6.90102 9.94984 6.075C10.0342 5.47573 10.3157 4.9216 10.7498 4.5C11.494 3.97192 12.3492 3.62129 13.2498 3.475C13.5102 5.07683 13.8607 6.66268 14.2998 8.225C14.5159 9.15959 14.8787 10.054 15.3748 10.875C16.3048 11.395 17.3212 11.7422 18.3748 11.9C20.3748 12.325 23.0498 12.7 24.3748 12.875C26.0385 13.0172 27.7112 13.0172 29.3748 12.875C30.5597 12.8194 31.7303 12.5921 32.8498 12.2C33.6382 11.6684 34.2343 10.8969 34.5498 10C35.5489 7.73778 36.3844 5.4068 37.0498 3.025C37.8628 3.33864 38.5367 3.93277 38.9498 4.7C39.2711 5.22182 39.5391 5.7746 39.7498 6.35C39.9663 6.93315 40.1254 7.53599 40.2248 8.15C40.5663 10.5021 40.7583 12.8736 40.7998 15.25C40.7998 19.125 40.7998 23.2 40.5748 26.1C40.5645 26.2117 40.5765 26.3243 40.6099 26.4314C40.6434 26.5385 40.6977 26.6379 40.7697 26.7239C40.8418 26.8099 40.9301 26.8808 41.0297 26.9324C41.1292 26.9841 41.2381 27.0156 41.3498 27.025C41.574 27.0393 41.7951 26.9667 41.9673 26.8225C42.1395 26.6782 42.2496 26.4732 42.2748 26.25C42.5498 23.3 42.7748 19.15 42.7498 15.225C42.789 12.7188 42.6553 10.2128 42.3498 7.725C42.2461 6.97646 42.0703 6.2397 41.8248 5.525C41.5832 4.80547 41.2735 4.11065 40.8998 3.45C40.347 2.37679 39.473 1.50284 38.3998 0.949999C36.8934 0.313303 35.2539 0.0557808 33.6248 0.199999L18.5998 -1.47987e-06C16.6566 -0.0786712 14.7108 0.0639117 12.7998 0.424999C11.3442 0.659784 9.9697 1.25254 8.79984 2.15C8.02575 2.80217 7.46783 3.67392 7.19984 4.65C6.90396 5.84372 6.76114 7.07023 6.77484 8.3L5.57484 39.625C5.44217 42.2626 5.62682 44.9065 6.12484 47.5C6.34679 48.7826 6.93751 49.9727 7.82484 50.925C8.75419 51.5917 9.85726 51.9738 10.9998 52.025C13.2127 52.1854 15.4325 52.2272 17.6498 52.15H23.5998C23.7988 52.15 23.9895 52.071 24.1302 51.9303C24.2708 51.7897 24.3498 51.5989 24.3498 51.4C24.3498 51.2011 24.2708 51.0103 24.1302 50.8697C23.9895 50.729 23.7988 50.65 23.5998 50.65L23.5748 50.6ZM18.5748 2.8L33.5748 2.625H35.2498C34.8498 3.7 34.1248 5.525 33.3248 7.125C32.1248 9.625 32.8498 9.9 28.9998 10C27.4723 10.0167 25.9451 9.94996 24.4248 9.8L16.7498 8.95C16.3998 8.25 15.7998 6.725 15.2998 5.3C15.0285 4.55389 14.7948 3.7946 14.5998 3.025C15.9094 2.85526 17.2295 2.78006 18.5498 2.8H18.5748Z" fill="black"/>
<path fill-rule="evenodd" clip-rule="evenodd" d="M53.9497 41.975C53.6384 40.602 53.0793 39.2973 52.2997 38.125C51.9953 37.65 51.625 37.2207 51.1997 36.85C50.6074 36.3335 49.981 35.8574 49.3247 35.425C49.1604 35.3146 48.9601 35.2712 48.7649 35.3037C48.5697 35.3363 48.3943 35.4423 48.2747 35.6C48.1566 35.7662 48.1088 35.9722 48.1415 36.1735C48.1743 36.3747 48.285 36.5549 48.4497 36.675C49.0142 37.0768 49.5413 37.5286 50.0247 38.025C50.3183 38.3386 50.578 38.6821 50.7997 39.05C51.377 40.122 51.75 41.2918 51.8997 42.5C52.1122 44.3356 52.1122 46.1895 51.8997 48.025C51.8092 48.975 51.5643 49.9039 51.1747 50.775C50.7921 51.6681 50.2963 52.5083 49.6997 53.275C49.0419 54.2672 48.1918 55.1173 47.1997 55.775C46.161 56.4041 45.0308 56.8679 43.8497 57.15C42.5469 57.5008 41.1971 57.6442 39.8497 57.575C38.5062 57.5475 37.1778 57.2852 35.9247 56.8C34.6843 56.1713 33.5326 55.3811 32.4997 54.45C31.4602 53.6618 30.6068 52.6547 29.9997 51.5C29.6381 50.5691 29.4763 49.5726 29.5247 48.575C29.5522 47.5423 29.7118 46.5173 29.9997 45.525C30.2461 44.5434 30.5895 43.5887 31.0247 42.675C31.3691 41.803 31.7961 40.9659 32.2997 40.175C32.5897 39.6649 32.9333 39.1872 33.3247 38.75C33.8365 38.1688 34.4061 37.6411 35.0247 37.175C35.6632 36.715 36.3313 36.2974 37.0247 35.925C37.1281 35.8807 37.2218 35.8165 37.3004 35.7359C37.379 35.6554 37.4409 35.5602 37.4827 35.4557C37.5245 35.3513 37.5453 35.2396 37.5439 35.1271C37.5425 35.0146 37.519 34.9035 37.4747 34.8C37.4304 34.6966 37.3661 34.6029 37.2856 34.5244C37.2051 34.4458 37.1099 34.3838 37.0054 34.342C36.9009 34.3003 36.7893 34.2795 36.6768 34.2808C36.5642 34.2822 36.4531 34.3057 36.3497 34.35C35.4914 34.667 34.6561 35.0429 33.8497 35.475C33.0484 35.9129 32.2944 36.4324 31.5997 37.025C30.9069 37.6263 30.2861 38.3058 29.7497 39.05C29.2387 39.7752 28.7792 40.5355 28.3747 41.325C27.9288 42.2603 27.5851 43.241 27.3497 44.25C27.0997 45.3145 26.9904 46.4072 27.0247 47.5C27.0572 49.1542 27.5134 50.7724 28.3497 52.2C28.8479 53.3836 29.5791 54.4548 30.4997 55.35C31.8195 56.67 33.3379 57.775 34.9997 58.625C36.4806 59.3194 38.0709 59.7508 39.6997 59.9C41.3675 60.0973 43.0563 60.0213 44.6997 59.675C46.1689 59.3463 47.5777 58.7895 48.8747 58.025C50.0998 57.2165 51.1673 56.1914 52.0247 55C52.7368 54.0132 53.3167 52.9374 53.7497 51.8C54.2076 50.6287 54.4449 49.3827 54.4497 48.125C54.5348 46.0623 54.3669 43.9969 53.9497 41.975Z" fill="black"/>
<path fill-rule="evenodd" clip-rule="evenodd" d="M41.9752 31.275C41.8002 32.325 41.5002 33.475 41.3252 34.725C41.2453 35.2127 41.2035 35.7058 41.2002 36.2V37.7C41.2002 38.95 41.4252 40.2 41.5002 41.2C41.4934 41.3117 41.5088 41.4236 41.5454 41.5293C41.5819 41.635 41.639 41.7325 41.7133 41.8161C41.7877 41.8997 41.8778 41.9678 41.9785 42.0165C42.0792 42.0653 42.1885 42.0936 42.3002 42.1C42.4126 42.1103 42.5259 42.0974 42.6331 42.0622C42.7404 42.0269 42.8392 41.97 42.9236 41.8951C43.0079 41.8201 43.076 41.7286 43.1236 41.6262C43.1712 41.5239 43.1972 41.4128 43.2002 41.3C43.4252 40.25 43.7252 39.075 43.9002 37.825C43.9002 37.325 43.9502 36.825 44.0502 36.325C44.0879 35.8174 44.0879 35.3076 44.0502 34.8C43.9253 33.6068 43.7333 32.4216 43.4752 31.25C43.4752 31.0511 43.3962 30.8603 43.2555 30.7197C43.1149 30.579 42.9241 30.5 42.7252 30.5C42.5263 30.5 42.3355 30.579 42.1949 30.7197C42.0542 30.8603 41.9752 31.0511 41.9752 31.25V31.275Z" fill="black"/>
</g>
<defs>
<clipPath id="clip0_166_4906">
<rect width="60" height="60" fill="white"/>
</clipPath>
</defs>
</svg>
