<svg width="60" height="60" viewBox="0 0 60 60" fill="none" xmlns="http://www.w3.org/2000/svg">
<g clip-path="url(#clip0_118_3413)">
<path d="M60.0002 36.525C60.2436 29.2313 59.8673 21.9301 58.8752 14.7C58.9145 14.1841 58.9145 13.666 58.8752 13.15C58.5252 11.475 53.5002 10.65 51.3752 10.45C51.18 10.4288 50.9842 10.485 50.83 10.6065C50.6757 10.7281 50.5753 10.9052 50.5502 11.1C50.4252 12.75 53.0502 11.1 57.0752 13.6C57.0254 15.3769 57.1679 17.1539 57.5002 18.9C58.1002 24.5 57.7752 28.375 57.5002 43.25C54.5296 42.6035 51.4868 42.3514 48.4502 42.5C42.7884 42.4607 37.2587 44.2106 32.6502 47.5C34.3502 40.9 38.5002 39.125 44.3502 37.025C45.0129 36.8173 45.7062 36.7243 46.4002 36.75C46.5358 37.0568 46.7751 37.3059 47.0762 37.4536C47.3773 37.6012 47.7208 37.638 48.0463 37.5573C48.3718 37.4767 48.6585 37.2839 48.8558 37.0127C49.0532 36.7416 49.1486 36.4096 49.1252 36.075C48.1752 10.8 49.1252 7.25003 48.7252 4.90003C48.3252 2.55003 46.6252 2.27503 44.2502 1.92503C41.3329 1.6191 38.3869 2.10002 35.7183 3.31782C33.0496 4.53562 30.7559 6.44586 29.0752 8.85003C28.8752 9.27503 27.7002 11.875 27.6002 12.15C25.8941 10.8466 23.9228 9.93351 21.8252 9.47503C16.4401 8.28019 10.8021 9.17368 6.05025 11.975C5.12413 12.5766 4.33125 13.3618 3.72065 14.282C3.11004 15.2022 2.69468 16.2379 2.50025 17.325C0.300246 26.225 -1.02475 28.85 1.02525 47.775C1.02525 48.55 1.02525 49.75 1.77525 50.475C1.94334 50.6153 2.14011 50.7171 2.35174 50.7733C2.56336 50.8294 2.78471 50.8385 3.00025 50.8V52.725C3.32525 57.225 9.30025 54.475 15.8752 53.925C21.3252 53.5 21.9252 54.675 26.7502 57.475C28.7364 58.2219 30.8889 58.412 32.9752 58.025C34.6852 57.7682 36.3069 57.099 37.7002 56.075C54.1752 43.95 53.6002 58.125 57.4502 47.95C57.6284 47.4851 57.7379 46.9966 57.7752 46.5C57.9692 46.6275 58.1932 46.7017 58.4249 46.7154C58.6566 46.729 58.8878 46.6816 59.0954 46.5778C59.3029 46.474 59.4796 46.3175 59.6077 46.124C59.7358 45.9304 59.8108 45.7067 59.8252 45.475C60.055 42.4975 60.1134 39.5093 60.0002 36.525ZM29.7002 13.475C37.2002 -0.624969 46.5002 5.57503 46.9002 5.97503C47.1002 6.72503 45.9752 23.675 45.9252 25.225L46.1502 33.85C43.3769 34.1476 40.6965 35.0219 38.2811 36.4168C35.8658 37.8118 33.7689 39.6966 32.1252 41.95C30.8752 44.1 31.3002 44.325 31.0752 42.9C31.0252 42.65 29.6002 13.675 29.7002 13.475ZM2.70025 24.325C3.42525 21.55 4.32525 14.5 6.72525 13.7C13.7252 11.35 20.7252 10.775 27.2252 14.325C27.9966 16.4712 28.3446 18.7465 28.2502 21.025C28.2502 26.15 28.4002 41.625 29.0002 46.275C25.0206 44.4603 20.6708 43.6041 16.3002 43.775C12.8431 44.0822 9.4625 44.9696 6.30025 46.4C6.00025 46.4 4.60025 47.825 3.60025 48.375C3.60025 48.025 3.32525 47.625 3.30025 47.425C2.50025 40.625 1.32525 31.675 2.70025 24.325ZM54.1002 48.9C46.9002 46.025 41.1752 50.1 36.0752 53.75C34.9853 54.4793 33.7575 54.9776 32.4676 55.2141C31.1777 55.4506 29.853 55.4203 28.5752 55.125C18.9002 48.275 15.1502 51.55 6.40025 52.875C5.95025 52.875 5.60025 53.1 5.37525 52.875C5.15025 52.65 4.90025 51.2 4.32525 50.375C5.40025 49.825 6.82525 48.95 7.17525 48.85C10.8502 47.7 15.0002 45 24.0002 47.5C30.6502 49.225 30.3002 52.125 32.5502 50.9C35.9002 49.1 40.7252 43.7 55.8252 45.525C55.6738 45.7072 55.5938 45.9382 55.6002 46.175C54.1252 48.825 54.2002 48.65 54.1002 48.9Z" fill="black"/>
<path d="M9.12536 22.5C11.6254 22.15 11.4254 20.925 14.7254 20.925C16.5651 21.0585 18.38 21.4282 20.1254 22.025C20.6004 21.85 20.9504 21.65 20.9504 21.175C20.9504 20.1 19.4504 19 17.1754 18.675C10.6004 17.45 9.97536 20.6 8.72536 21.175C8.61116 21.2691 8.52732 21.3948 8.4844 21.5364C8.44148 21.6779 8.4414 21.8291 8.48415 21.9707C8.52691 22.1123 8.6106 22.2382 8.72469 22.3323C8.83879 22.4265 8.97819 22.4849 9.12536 22.5Z" fill="black"/>
<path d="M9.12523 31.3251C11.6252 30.9751 11.4252 29.7501 14.7252 29.7501C16.565 29.8836 18.3799 30.2533 20.1252 30.8501C20.6002 30.7001 20.9502 30.4751 20.9502 30.0001C20.9502 28.9251 19.4502 27.8501 17.1752 27.5001C10.6002 26.2751 9.97523 29.4001 8.72523 30.0001C8.60234 29.9875 8.47824 30.0054 8.36394 30.0522C8.24964 30.0991 8.14869 30.1735 8.07004 30.2687C7.9914 30.364 7.93751 30.4772 7.91316 30.5983C7.8888 30.7194 7.89474 30.8447 7.93044 30.9629C7.96614 31.0812 8.0305 31.1888 8.1178 31.2762C8.2051 31.3636 8.31264 31.4281 8.43086 31.4639C8.54908 31.4998 8.67432 31.5058 8.79545 31.4816C8.91659 31.4574 9.02987 31.4036 9.12523 31.3251Z" fill="black"/>
<path d="M9.12529 40.2501C11.6253 39.9001 11.4253 38.6751 14.7253 38.6751C16.5631 38.8226 18.3763 39.192 20.1253 39.7751C20.6003 39.6251 20.9503 39.4001 20.9503 38.9501C20.9503 37.8501 19.4503 36.7751 17.1753 36.4501C10.6003 35.2251 9.97529 38.3751 8.72529 38.9501C8.60043 38.933 8.47325 38.9475 8.3555 38.9925C8.23776 39.0374 8.13324 39.1114 8.05161 39.2074C7.96998 39.3034 7.91386 39.4185 7.88845 39.5419C7.86304 39.6654 7.86915 39.7932 7.90621 39.9137C7.94328 40.0342 8.01011 40.1434 8.10052 40.2312C8.19094 40.319 8.30203 40.3826 8.42352 40.4161C8.54502 40.4496 8.67301 40.452 8.79566 40.423C8.91832 40.394 9.03169 40.3345 9.12529 40.2501Z" fill="black"/>
</g>
<defs>
<clipPath id="clip0_118_3413">
<rect width="60" height="60" fill="white"/>
</clipPath>
</defs>
</svg>
