<svg width="60" height="60" viewBox="0 0 60 60" fill="none" xmlns="http://www.w3.org/2000/svg">
<g clip-path="url(#clip0_165_7350)">
<path fill-rule="evenodd" clip-rule="evenodd" d="M53.2246 35.3748C52.6496 35.3748 52.0496 35.5248 51.4746 35.6248C49.4496 36.0498 47.4996 36.9248 45.4496 37.1748C42.7185 37.47 39.9693 37.5619 37.2246 37.4498C35.2232 37.3956 33.2273 37.2119 31.2496 36.8998C32.332 36.3317 33.3189 35.5979 34.1746 34.7248C34.8767 34.0445 35.3089 33.1332 35.3916 32.159C35.4743 31.1849 35.2019 30.2138 34.6246 29.4248C33.5496 27.6748 31.0246 27.3998 28.0496 28.3498C23.7032 29.9926 19.6058 32.2306 15.8746 34.9998C15.7909 35.0638 15.7206 35.1437 15.6678 35.2349C15.6149 35.3261 15.5805 35.4268 15.5666 35.5312C15.5527 35.6357 15.5595 35.7419 15.5866 35.8437C15.6137 35.9456 15.6606 36.0411 15.7246 36.1248C15.7886 36.2085 15.8685 36.2788 15.9597 36.3317C16.0509 36.3845 16.1516 36.4189 16.256 36.4328C16.3605 36.4467 16.4667 36.44 16.5685 36.4128C16.6704 36.3857 16.7659 36.3388 16.8496 36.2748C19.977 34.1171 23.3301 32.3064 26.8496 30.8748C28.1783 30.3189 29.5882 29.9812 31.0246 29.8748C31.3539 29.8136 31.6937 29.8442 32.0068 29.9633C32.3199 30.0823 32.5942 30.2852 32.7996 30.5498C33.1148 31.0281 33.2286 31.6114 33.1162 32.1731C33.0039 32.7348 32.6745 33.2295 32.1996 33.5498C30.9163 34.5128 29.5433 35.35 28.0996 36.0498C27.8648 36.1702 27.6613 36.3435 27.5051 36.5561C27.3489 36.7687 27.2443 37.0148 27.1996 37.2748C27.1996 37.7748 27.1996 38.5248 28.4246 38.8998C31.2541 39.6811 34.1659 40.1258 37.0996 40.2248C39.9927 40.3764 42.8932 40.3012 45.7746 39.9998C47.8996 39.7248 49.9496 38.8498 52.0246 38.4248C52.487 38.3255 52.9543 38.2504 53.4246 38.1998H54.0246C54.1297 38.5249 54.1297 38.8748 54.0246 39.1998C53.7746 40.9748 51.9496 42.5248 49.7996 43.8748C46.6865 45.7175 43.2498 46.948 39.6746 47.4998C35.9691 47.8594 32.2474 48.0263 28.5246 47.9998C26.0162 47.9784 23.5115 47.803 21.0246 47.4748C20.8512 47.4637 20.6798 47.5174 20.5438 47.6256C20.4078 47.7339 20.3169 47.8888 20.2889 48.0603C20.2608 48.2318 20.2975 48.4077 20.3919 48.5536C20.4863 48.6995 20.6317 48.8051 20.7996 48.8498C23.2793 49.281 25.7847 49.5482 28.2996 49.6498C32.5246 49.8248 36.7746 49.6498 39.6496 49.6498C43.6204 49.1641 47.4539 47.889 50.9246 45.8998C52.2536 45.2839 53.4387 44.3961 54.4033 43.2937C55.3679 42.1913 56.0905 40.8988 56.5246 39.4998C56.725 38.5046 56.5467 37.4705 56.0246 36.5998C55.7052 36.1693 55.2787 35.8297 54.7876 35.6148C54.2964 35.3999 53.7576 35.3172 53.2246 35.3748Z" fill="black"/>
<path fill-rule="evenodd" clip-rule="evenodd" d="M19.225 41.9499C18.775 41.5999 17.55 40.9249 17.425 40.8499L12.875 36.9499L12.15 36.6249C12.4092 36.2015 12.6349 35.7585 12.825 35.2999C13.4247 34.341 13.9511 33.3381 14.4 32.2999C14.7408 31.5081 14.9356 30.6611 14.975 29.7999C14.9321 29.5085 14.7933 29.2396 14.5805 29.0359C14.3677 28.8322 14.093 28.7052 13.8 28.6749L11.475 28.5249C10.1858 28.4123 8.88921 28.4123 7.6 28.5249C5.725 28.7249 3.85 29.0749 2 29.4499C1.81435 29.4831 1.64947 29.5886 1.54164 29.7434C1.4338 29.8981 1.39185 30.0893 1.425 30.2749C1.45815 30.4606 1.5637 30.6255 1.71841 30.7333C1.87313 30.8411 2.06435 30.8831 2.25 30.8499C4.062 30.5403 5.88982 30.3316 7.725 30.2249C8.91456 30.1248 10.1104 30.1248 11.3 30.2249L12.7 30.3999C12.6177 30.6648 12.5174 30.9237 12.4 31.1749C11.9283 32.0462 11.3936 32.8817 10.8 33.6749C10.625 33.9249 9.975 34.6249 9.65 35.1499C9.44121 35.4779 9.33663 35.8614 9.35 36.2499C9.37493 36.6561 9.5331 37.0428 9.8 37.3499C10.2515 37.8363 10.7545 38.2721 11.3 38.6499L15.775 42.5749C15.775 42.5749 16.55 42.8499 17.075 43.1249C16.9198 43.2872 16.7527 43.4376 16.575 43.5749C15.75 44.3499 14.65 44.9999 14.075 45.4749C13.6558 45.7576 13.255 46.0665 12.875 46.3999C12.6121 46.7041 12.4776 47.0985 12.5 47.4999C12.3951 47.8506 12.3951 48.2243 12.5 48.5749C12.6937 48.987 12.9107 49.3876 13.15 49.7749L15.025 53.1999H15C14.0488 53.0448 13.1123 52.8106 12.2 52.4999C9.875 52.0249 7.675 51.5499 5.425 51.2749C3.89232 51.0683 2.34636 50.9764 0.8 50.9999C0.587827 50.9999 0.384344 51.0842 0.234315 51.2343C0.0842855 51.3843 0 51.5878 0 51.7999C0.00627835 52.0101 0.0925792 52.21 0.241269 52.3587C0.389959 52.5074 0.589814 52.5937 0.8 52.5999C2.26718 52.6457 3.72923 52.7961 5.175 53.0499C7.35 53.4249 9.45 53.9749 11.7 54.5499C12.8969 54.9271 14.1277 55.1867 15.375 55.3249C16.0998 55.422 16.8373 55.3092 17.5 54.9999C17.7515 54.8286 17.9377 54.5774 18.0284 54.287C18.1192 53.9965 18.1092 53.684 18 53.3999C17.8071 52.9389 17.5901 52.4883 17.35 52.0499L15.625 48.5499L15.425 48.2999C15.5596 48.167 15.6849 48.025 15.8 47.8749C16.9097 47.1303 17.955 46.2941 18.925 45.3749C19.5093 44.8056 19.8875 44.058 20 43.2499C19.9881 42.9861 19.9112 42.7294 19.7759 42.5025C19.6407 42.2757 19.4514 42.0859 19.225 41.9499Z" fill="black"/>
<path fill-rule="evenodd" clip-rule="evenodd" d="M55.1495 15.1252C55.0491 15.146 54.9538 15.1865 54.8691 15.2444C54.7845 15.3022 54.7121 15.3763 54.6563 15.4624C54.6005 15.5484 54.5623 15.6447 54.544 15.7456C54.5257 15.8465 54.5276 15.95 54.5495 16.0502C54.6619 16.9467 54.6619 17.8537 54.5495 18.7502C54.4203 19.6337 54.2451 20.5099 54.0245 21.3752C53.8245 22.2752 53.5745 23.1752 53.3745 24.0752C52.9495 26.0252 52.5995 27.9252 52.2995 29.7252C52.2727 29.8138 52.2637 29.9069 52.2732 29.999C52.2826 30.0911 52.3102 30.1805 52.3543 30.2619C52.3985 30.3433 52.4584 30.4151 52.5305 30.4731C52.6027 30.5312 52.6856 30.5744 52.7745 30.6002C52.8648 30.6305 52.9604 30.6413 53.0551 30.632C53.1498 30.6227 53.2415 30.5935 53.3241 30.5463C53.4067 30.4991 53.4784 30.4349 53.5345 30.3581C53.5906 30.2812 53.6298 30.1933 53.6495 30.1002C54.2745 28.6002 55.1245 27.0502 55.7495 25.3252C56.1557 24.2004 56.4407 23.0355 56.5995 21.8502C56.9133 19.7975 56.7421 17.6998 56.0995 15.7252C56.079 15.6221 56.0377 15.5243 55.9782 15.4377C55.9187 15.351 55.8422 15.2774 55.7533 15.2213C55.6644 15.1652 55.5651 15.1277 55.4613 15.1112C55.3575 15.0947 55.2514 15.0994 55.1495 15.1252Z" fill="black"/>
<path fill-rule="evenodd" clip-rule="evenodd" d="M57.975 7.34998C55.6758 6.26432 53.1676 5.69273 50.625 5.67498C45.2 5.19998 39.6 4.62498 34.05 4.57498C30.3182 4.51842 26.5882 4.77768 22.9 5.34998L20.75 5.74998C18.4148 6.07671 16.1454 6.76848 14.025 7.79998C13.6491 8.02865 13.3402 8.35248 13.1295 8.73877C12.9188 9.12506 12.8138 9.56011 12.825 9.99998C12.9054 10.5536 13.0976 11.0852 13.3898 11.5622C13.6821 12.0393 14.0683 12.4519 14.525 12.775C14.6804 12.9121 14.8804 12.9877 15.0875 12.9877C15.2947 12.9877 15.4947 12.9121 15.65 12.775C15.7997 12.621 15.8834 12.4147 15.8834 12.2C15.8834 11.9852 15.7997 11.779 15.65 11.625C14.4 10.475 14.325 9.77498 15.075 9.24998C17.0089 8.3668 19.0813 7.82545 21.2 7.64998L23.225 7.29998C26.817 6.87879 30.4368 6.74503 34.05 6.89998C39.525 7.07498 45.05 7.77498 50.4 8.37498C52.2595 8.40254 54.1046 8.70584 55.875 9.27498C56.65 9.59998 57.325 10.075 57.35 11C57.375 11.925 56.875 12.1 56.25 12.25C54.5843 12.4501 52.8977 12.3911 51.25 12.075L48.925 11.85C47.8092 11.7876 46.6908 11.7876 45.575 11.85C43.075 11.85 40.575 12.175 38.075 12.2C33.55 12.2 29 12.075 24.5 12.2C21.4399 12.2934 18.3943 12.6616 15.4 13.3C15.3097 13.3179 15.2238 13.3535 15.1472 13.4047C15.0706 13.4559 15.0049 13.5217 14.9538 13.5983C14.9027 13.675 14.8672 13.7609 14.8494 13.8513C14.8316 13.9417 14.8318 14.0347 14.85 14.125C14.868 14.2153 14.9035 14.3013 14.9547 14.3778C15.0059 14.4544 15.0717 14.5201 15.1484 14.5712C15.225 14.6223 15.311 14.6578 15.4014 14.6756C15.4917 14.6934 15.5847 14.6932 15.675 14.675L17.9 14.375C17.406 15.821 17.1034 17.3254 17 18.85C16.9259 19.5898 16.9259 20.3352 17 21.075C17.1212 21.8225 17.3052 22.5584 17.55 23.275C18.1762 24.9556 19.1568 26.4818 20.425 27.75C20.5613 27.9104 20.7536 28.0126 20.9627 28.0358C21.1718 28.0591 21.3819 28.0015 21.55 27.875C21.6322 27.8094 21.7005 27.7282 21.7513 27.6361C21.802 27.544 21.8341 27.4429 21.8457 27.3384C21.8573 27.2339 21.8482 27.1282 21.8189 27.0272C21.7896 26.9262 21.7408 26.832 21.675 26.75C20.8019 25.2688 20.2325 23.6286 20 21.925C19.825 20.95 19.7 19.925 19.6 18.9C19.4217 17.3484 19.3549 15.7861 19.4 14.225C21.0667 14.0416 22.7334 13.9416 24.4 13.925C28.9 13.925 33.4 14.225 37.9 14.35H45.4C46.425 14.35 47.45 14.35 48.5 14.5L50.75 14.725C53.1058 15.2408 55.552 15.1721 57.875 14.525C58.5714 14.2289 59.154 13.7165 59.5367 13.0637C59.9194 12.4109 60.0818 11.6523 60 10.9C59.9951 10.1843 59.8062 9.48192 59.4516 8.86026C59.097 8.23859 58.5885 7.71853 57.975 7.34998Z" fill="black"/>
</g>
<defs>
<clipPath id="clip0_165_7350">
<rect width="60" height="60" fill="white"/>
</clipPath>
</defs>
</svg>
