<svg width="60" height="60" viewBox="0 0 60 60" fill="none" xmlns="http://www.w3.org/2000/svg">
<g clip-path="url(#clip0_161_6832)">
<path d="M5.49994 48.6499C5.2807 48.688 5.06371 48.7381 4.84994 48.7999L3.99994 49.0749C3.80694 49.1804 3.6459 49.3358 3.5337 49.525C3.42151 49.7141 3.3623 49.93 3.3623 50.1499C3.3623 50.3698 3.42151 50.5857 3.5337 50.7749C3.6459 50.964 3.80694 51.1195 3.99994 51.2249L4.82494 51.4499C5.09104 51.4744 5.35883 51.4744 5.62494 51.4499C5.99072 51.4859 6.35915 51.4859 6.72494 51.4499C7.06812 51.3427 7.40245 51.2089 7.72494 51.0499C8.01142 50.7255 8.16952 50.3077 8.16952 49.8749C8.16952 49.4422 8.01142 49.0243 7.72494 48.6999C7.30644 48.6076 6.8784 48.5656 6.44994 48.5749C6.13151 48.5662 5.81306 48.5914 5.49994 48.6499Z" fill="black"/>
<path d="M33.1499 49.2251C32.9191 49.2109 32.6917 49.286 32.5148 49.435C32.338 49.5839 32.2252 49.7952 32.1999 50.0251C32.1857 50.2559 32.2609 50.4833 32.4098 50.6602C32.5588 50.8371 32.7701 50.9498 32.9999 50.9751C34.3672 51.2953 35.7533 51.5291 37.1499 51.6751C37.766 51.7128 38.3839 51.7128 38.9999 51.6751C39.6178 51.6299 40.2294 51.521 40.8249 51.3501C41.5888 51.1286 42.333 50.8443 43.0499 50.5001C44.4999 49.5001 44.2749 48.4501 43.2999 48.3501L33.1499 49.2251Z" fill="black"/>
<path d="M54.5503 48.95C54.1424 48.9255 53.7333 48.9255 53.3253 48.95C52.7503 48.95 52.8003 49.075 52.2753 49.175C52.0691 49.3118 51.8999 49.4976 51.7828 49.7157C51.6657 49.9338 51.6045 50.1775 51.6045 50.425C51.6045 50.6725 51.6657 50.9162 51.7828 51.1343C51.8999 51.3524 52.0691 51.5382 52.2753 51.675C52.6215 51.7443 52.9726 51.7861 53.3253 51.8C53.7495 51.8374 54.1762 51.8374 54.6003 51.8L55.4253 51.625L56.0503 51.45C56.3319 51.1233 56.4867 50.7063 56.4867 50.275C56.4867 49.8437 56.3319 49.4267 56.0503 49.1H55.4253L54.5503 48.95Z" fill="black"/>
<path d="M57.3504 21.125C56.0338 15.8746 53.3314 11.0741 49.5254 7.225C49.5305 7.10531 49.5109 6.98587 49.4679 6.87406C49.4249 6.76225 49.3594 6.66046 49.2754 6.575C47.4566 4.7023 45.3969 3.07975 43.1504 1.75C41.6308 0.827257 39.9208 0.26297 38.1504 0.1C38.0355 0.0932432 37.9203 0.109241 37.8116 0.147076C37.7028 0.184912 37.6026 0.24384 37.5167 0.320484C37.4307 0.397127 37.3608 0.489979 37.3108 0.593714C37.2608 0.69745 37.2318 0.81003 37.2254 0.925C37.2187 1.03995 37.2347 1.1551 37.2725 1.26385C37.3103 1.37261 37.3693 1.47282 37.4459 1.55876C37.5225 1.64469 37.6154 1.71465 37.7191 1.76463C37.8229 1.81461 37.9354 1.84362 38.0504 1.85C39.5443 2.03244 40.9789 2.54481 42.2504 3.35C44.0801 4.47549 45.7601 5.82789 47.2504 7.375C45.975 10.2642 45.0436 13.2933 44.4754 16.4C43.8592 19.6973 43.5578 23.0457 43.5754 26.4C43.5754 27.125 43.5754 27.875 43.7254 28.6C43.9254 30.2 44.2504 31.8 44.3754 33.375C44.5754 36 44.7504 38.65 44.7754 41.3C44.8179 43.8977 44.6843 46.4953 44.3754 49.075C44.2052 50.7573 43.9297 52.4272 43.5504 54.075L43.4004 54.8C42.9002 54.9435 42.3907 55.0521 41.8754 55.125C38.6695 55.3027 35.4563 55.3027 32.2504 55.125C32.226 54.9174 32.226 54.7076 32.2504 54.5C32.0254 50.325 31.7254 40.275 31.6754 38.325C33.6852 34.1093 35.0584 29.6187 35.7504 25C36.9933 18.0478 37.4878 10.9825 37.2254 3.925C37.2254 3.71946 37.1438 3.52233 36.9984 3.37699C36.8531 3.23165 36.656 3.15 36.4504 3.15C36.2446 3.16241 36.051 3.25141 35.9075 3.39947C35.7641 3.54754 35.6813 3.74394 35.6754 3.95C35.733 9.71919 35.2896 15.4825 34.3504 21.175C33.6225 26.3246 32.1575 31.3426 30.0004 36.075C29.2811 34.0917 28.6965 32.0621 28.2504 30C27.8004 27.8 27.4754 25.375 27.1004 22.875C26.7254 20.375 26.4004 18.125 26.0254 15.7C25.2754 10.7 24.4004 5.7 23.7754 1.3C23.5754 0.375 23.4504 0 21.8754 0C20.1011 0.125588 18.3845 0.683482 16.8754 1.625C14.6392 2.909 12.5872 4.49004 10.7754 6.325C10.587 6.53807 10.4884 6.81583 10.5004 7.1C6.67252 10.9463 3.95953 15.7588 2.65042 21.025C0.877518 28.7446 0.0879212 36.6573 0.30042 44.575V50.8C0.408834 52.2088 0.592429 53.6108 0.85042 55C0.920122 55.9195 1.1049 56.8265 1.40042 57.7C1.59103 58.3214 1.97675 58.8649 2.50042 59.25C3.00048 59.5484 3.55141 59.7518 4.12542 59.85C4.8143 59.9379 5.51154 59.9379 6.20042 59.85C7.03887 59.7986 7.87362 59.6985 8.70042 59.55C9.08779 59.4546 9.45291 59.2848 9.77542 59.05C10.0562 58.7967 10.2562 58.4663 10.3504 58.1C10.5004 57.45 10.6504 55.85 10.6754 55.6C10.8675 49.8762 11.3766 44.1674 12.2004 38.5C12.2004 37.775 12.4504 37.075 12.6004 36.375C12.5004 38.55 12.5004 40.675 12.5004 42.825C12.5242 45.0095 12.6996 47.1898 13.0254 49.35L14.0004 54.65C14.0871 55.1506 14.2125 55.6438 14.3754 56.125C14.5178 56.4586 14.7311 56.7571 15.0004 57C15.2727 57.2097 15.5889 57.355 15.9254 57.425C17.4978 57.6537 19.0871 57.7457 20.6754 57.7C23.1754 57.7 26.2254 57.55 27.5754 57.4C27.9973 57.3604 28.4061 57.2327 28.7754 57.025C28.848 56.953 28.9056 56.8673 28.9449 56.7729C28.9842 56.6785 29.0044 56.5772 29.0044 56.475C29.0044 56.3728 28.9842 56.2715 28.9449 56.1771C28.9056 56.0827 28.848 55.997 28.7754 55.925C28.4004 55.575 28.2254 55.775 27.4004 55.925C25.1686 56.0397 22.9323 56.0397 20.7004 55.925C19.1754 55.925 16.4004 55.475 16.4254 55.5L16.2004 54.275C15.5452 50.5201 15.2522 46.7109 15.3254 42.9C15.3254 39.75 15.5754 36.55 15.8754 33.45C16.0254 31.875 16.3754 30.275 16.5754 28.675C16.5754 27.925 16.7254 27.175 16.7254 26.45C16.7446 23.0944 16.4348 19.7451 15.8004 16.45C15.2091 13.2885 14.244 10.2086 12.9254 7.275C14.4165 5.73589 16.0965 4.39186 17.9254 3.275C19.1441 2.4697 20.5282 1.94853 21.9754 1.75H22.2504C22.5004 5.75 22.5004 10.2 23.0004 14.625C23.3004 17.6 23.7254 20.55 24.2754 23.35C25.1088 28.2285 26.5535 32.9826 28.5754 37.5C28.6525 37.6857 28.7948 37.8368 28.9754 37.925C28.9754 37.925 28.9754 49.85 29.2004 54.525V56.3C29.2323 56.6822 29.3906 57.0429 29.6504 57.325C30.1595 57.6571 30.7443 57.8549 31.3504 57.9C32.8254 58.05 36.0254 58.15 38.8504 58.15C40.5996 58.174 42.3476 58.0485 44.0754 57.775C44.5062 57.7055 44.9113 57.5245 45.2504 57.25C45.5509 56.9547 45.7815 56.596 45.9254 56.2C46.0916 55.7027 46.2171 55.1927 46.3004 54.675L47.1254 49.35C47.37 47.217 47.4952 45.072 47.5004 42.925C47.5004 41.075 47.3754 39.225 47.2504 37.375C47.3754 38.025 47.5004 38.65 47.6004 39.3C48.4124 44.7526 48.9465 50.2431 49.2004 55.75C49.2737 56.5888 49.3905 57.4233 49.5504 58.25C49.6287 58.6098 49.8218 58.9344 50.1004 59.175C50.5243 59.496 51.0236 59.7027 51.5504 59.775C52.2754 59.925 53.2004 59.925 53.6754 60C54.3643 60.0879 55.0615 60.0879 55.7504 60C56.3177 59.9059 56.8611 59.7021 57.3504 59.4C57.8959 59.0423 58.3088 58.5153 58.5254 57.9C58.8095 57.0149 58.994 56.101 59.0754 55.175C59.3008 53.7757 59.451 52.3654 59.5254 50.95C59.6504 48.875 59.5254 46.8 59.5254 44.725C59.7995 36.7981 59.0687 28.8683 57.3504 21.125ZM13.1504 16.725C13.655 19.8903 13.8559 23.0965 13.7504 26.3C13.7755 26.708 13.7755 27.1171 13.7504 27.525C12.2222 30.9322 11.0979 34.5065 10.4004 38.175C9.15726 44.3994 8.38838 50.7092 8.10042 57.05H4.90042C4.67316 57.0425 4.4507 56.9827 4.25042 56.875C3.26868 52.8707 2.94779 48.7328 3.30042 44.625C2.87858 36.9288 3.42452 29.2102 4.92542 21.65C5.92442 16.9692 8.06257 12.607 11.1504 8.95C12.0781 11.4674 12.7482 14.0724 13.1504 16.725ZM56.7754 44.675C56.8374 48.0158 56.6704 51.357 56.2754 54.675L55.8504 56.925C55.6516 57.0397 55.4294 57.1081 55.2004 57.125C54.8347 57.163 54.4661 57.163 54.1004 57.125H51.9004C51.6389 51.0643 50.878 45.0356 49.6254 39.1C48.926 35.4047 47.7932 31.8049 46.2504 28.375C46.2504 27.775 46.1004 27.2 46.0754 26.625C45.983 23.4115 46.2006 20.1967 46.7254 17.025C47.1438 14.3517 47.8392 11.7293 48.8004 9.2C51.9737 12.8334 54.1754 17.2111 55.2004 21.925C56.6659 29.4138 57.1949 37.0557 56.7754 44.675Z" fill="black"/>
<path d="M18.3755 50.775C18.9936 50.8991 19.6206 50.9743 20.2505 51C20.8661 51.0501 21.4848 51.0501 22.1005 51C23.5377 50.8728 24.9655 50.6557 26.3755 50.35C26.4895 50.3437 26.601 50.3146 26.7034 50.2643C26.8059 50.214 26.8972 50.1436 26.9718 50.0573C27.0465 49.971 27.103 49.8705 27.138 49.7619C27.173 49.6532 27.1857 49.5386 27.1755 49.425C27.1691 49.31 27.1401 49.1974 27.0901 49.0937C27.0401 48.99 26.9702 48.8971 26.8843 48.8205C26.7983 48.7438 26.6981 48.6849 26.5894 48.6471C26.4806 48.6092 26.3654 48.5932 26.2505 48.6C24.8755 48.6 23.5505 48.375 22.1505 48.25C21.5755 48.25 21.0005 48.125 20.4255 48.1C19.8505 48.075 19.2755 48.1 18.7005 48.1H16.7005C16.4611 48.1481 16.2426 48.2696 16.0754 48.4476C15.9082 48.6256 15.8006 48.8512 15.7676 49.0932C15.7346 49.3352 15.7778 49.5814 15.8913 49.7977C16.0047 50.014 16.1827 50.1895 16.4005 50.3C17.0755 50.425 17.7255 50.625 18.3755 50.775Z" fill="black"/>
</g>
<defs>
<clipPath id="clip0_161_6832">
<rect width="60" height="60" fill="white"/>
</clipPath>
</defs>
</svg>
