<svg width="60" height="60" viewBox="0 0 60 60" fill="none" xmlns="http://www.w3.org/2000/svg">
<g clip-path="url(#clip0_165_7406)">
<path fill-rule="evenodd" clip-rule="evenodd" d="M45.9247 6.50008C43.802 5.82017 41.6005 5.41684 39.3747 5.30008C36.3497 5.05008 33.5247 5.30008 29.5497 5.30008C25.8949 5.08155 22.2282 5.41872 18.6747 6.30008C16.187 7.1388 14.0265 8.73947 12.4997 10.8751C11.0693 12.7663 10.0786 14.9527 9.59966 17.2751C9.02746 20.5764 8.77629 23.9253 8.84966 27.2751C8.84966 29.2251 8.67466 31.1501 8.64966 33.0751C8.59985 33.9494 8.59985 34.8258 8.64966 35.7001L9.29966 47.0501C9.39054 48.1674 9.62583 49.2682 9.99966 50.3251C10.2625 51.1901 10.755 51.9677 11.4247 52.5751C12.7006 53.6129 14.2426 54.2713 15.8747 54.4751C19.1021 54.7156 22.3406 54.774 25.5747 54.6501C27.2747 54.6501 28.3497 54.8001 29.2747 54.8001H34.7247C36.1527 54.9741 37.5966 54.9741 39.0247 54.8001C39.8086 54.6446 40.54 54.2919 41.1497 53.7751C41.6908 53.2556 42.1189 52.6299 42.4072 51.9374C42.6954 51.2448 42.8375 50.5001 42.8247 49.7501C42.6517 47.0574 42.2672 44.3825 41.6747 41.7501C41.4419 39.7831 41.3084 37.8055 41.2747 35.8251C41.2747 32.8251 41.2747 29.8501 41.3997 26.8251C41.3997 24.5001 41.3997 22.1501 41.5997 19.8001C41.6595 18.2876 41.8435 16.7825 42.1497 15.3001C42.4068 14.205 42.8554 13.164 43.4747 12.2251C44.026 11.2847 44.8093 10.5014 45.7497 9.95008C47.1747 9.02508 48.7497 7.50008 45.9247 6.50008ZM44.9997 8.25008C43.7708 8.91457 42.7367 9.88834 41.9997 11.0751C41.2274 12.1817 40.6601 13.418 40.3247 14.7251C39.9675 16.2961 39.7335 17.8926 39.6247 19.5001C39.4247 21.8501 39.3997 24.2001 39.2747 26.5501C39.0747 29.6001 38.8997 32.6501 38.8997 35.6751C38.8997 37.7251 38.8997 39.7751 39.1747 41.8501C39.3247 43.3751 40.0747 46.0501 40.1497 48.4501C40.2565 48.988 40.2423 49.543 40.1083 50.0748C39.9743 50.6066 39.7237 51.102 39.3747 51.5251C38.9735 51.8162 38.4949 51.9815 37.9997 52.0001C36.9093 52.0765 35.815 52.0765 34.7247 52.0001H29.2747C28.3997 52.0001 27.3497 52.0001 25.7497 51.8501C23.5497 51.6751 20.3997 52.0751 17.5497 51.8501C16.0262 51.834 14.5438 51.3544 13.2997 50.4751C12.8882 50.0973 12.6079 49.5981 12.4997 49.0501C12.3482 48.3255 12.2562 47.5897 12.2247 46.8501L11.4747 35.4751C11.3624 34.429 11.3123 33.3771 11.3247 32.3251V27.3251C11.2376 24.1273 11.4636 20.9288 11.9997 17.7751C12.378 15.7863 13.1794 13.9021 14.3497 12.2501C15.5894 10.4971 17.3333 9.16293 19.3497 8.42508C22.6846 7.55468 26.1317 7.19227 29.5747 7.35008C33.4747 7.35008 36.2497 6.92508 39.2247 7.10008C41.2781 7.22816 43.3135 7.56319 45.2997 8.10008L44.9997 8.25008Z" fill="black"/>
<path fill-rule="evenodd" clip-rule="evenodd" d="M52.3499 12.5002C52.2269 11.7586 51.9382 11.0543 51.5054 10.4396C51.0726 9.82502 50.5067 9.31591 49.8499 8.95018C49.6775 8.83414 49.4661 8.79135 49.2622 8.8312C49.0582 8.87105 48.8785 8.99028 48.7624 9.16268C48.6464 9.33507 48.6036 9.54649 48.6435 9.75044C48.6833 9.95438 48.8025 10.1341 48.9749 10.2502C49.9499 10.9002 50.8749 11.5252 51.0749 12.7502C51.2749 13.9752 52.4999 13.1002 52.3499 12.5002Z" fill="black"/>
<path fill-rule="evenodd" clip-rule="evenodd" d="M50.2246 30C50.1813 31.6677 50.223 33.3366 50.3496 35C50.3496 35.475 50.6996 36.65 50.8746 37.725C50.8746 38.05 51.0746 38.55 51.0746 38.8C51.0746 38.925 51.0746 38.975 50.9496 38.95C50.1377 39.4269 49.2161 39.6853 48.2746 39.7C46.4259 39.797 44.5733 39.797 42.7246 39.7C42.4925 39.7 42.27 39.7922 42.1059 39.9563C41.9418 40.1204 41.8496 40.343 41.8496 40.575C41.8496 40.8071 41.9418 41.0297 42.1059 41.1937C42.27 41.3578 42.4925 41.45 42.7246 41.45C44.9149 41.8005 47.1317 41.9595 49.3496 41.925C50.6085 41.8979 51.8293 41.488 52.8496 40.75C53.1131 40.5185 53.325 40.2342 53.4715 39.9155C53.6179 39.5967 53.6956 39.2508 53.6996 38.9C53.6409 37.4685 53.4484 36.0457 53.1246 34.65C52.7746 32.375 52.6246 30.575 52.4996 28.75C52.3746 26.925 52.2746 26.125 52.1246 23.925C52.1246 22.825 50.7496 22.85 50.5746 23.925C50.4746 26.65 50.2746 27.85 50.2246 30Z" fill="black"/>
<path fill-rule="evenodd" clip-rule="evenodd" d="M60 17.1502C59.8684 16.2826 59.4966 15.4693 58.9266 14.8021C58.3566 14.1349 57.6113 13.6406 56.775 13.3752C53.1594 13.2868 49.5436 13.5379 45.975 14.1252C45.8671 14.1273 45.761 14.1526 45.6638 14.1994C45.5667 14.2463 45.4807 14.3135 45.4119 14.3965C45.3431 14.4796 45.293 14.5765 45.2651 14.6807C45.2371 14.7849 45.232 14.8938 45.25 15.0002C45.2591 15.098 45.2881 15.1929 45.335 15.2792C45.382 15.3654 45.446 15.4413 45.5231 15.5021C45.6003 15.5628 45.689 15.6073 45.7838 15.6328C45.8787 15.6582 45.9777 15.6642 46.075 15.6502H52.225C53.4837 15.6367 54.7404 15.754 55.975 16.0002C56.2905 16.143 56.5603 16.3705 56.7545 16.6573C56.9487 16.9441 57.0596 17.2792 57.075 17.6252C57.075 18.2252 57.075 18.8752 56.525 19.1502C55.1987 19.7785 53.781 20.192 52.325 20.3752C50.05 20.7002 47.7 20.6752 45.225 20.9002C45.1123 20.9 45.0007 20.9229 44.8972 20.9674C44.7937 21.012 44.7005 21.0772 44.6232 21.1592C44.5459 21.2412 44.4862 21.3382 44.4478 21.4441C44.4094 21.55 44.3931 21.6627 44.4 21.7752C44.4129 22.0029 44.5142 22.2165 44.6823 22.3706C44.8504 22.5247 45.072 22.6071 45.3 22.6002C48.8 22.6002 53.075 23.4752 57.65 21.7252C58.5109 21.3527 59.2158 20.693 59.6444 19.8586C60.073 19.0242 60.1987 18.0669 60 17.1502Z" fill="black"/>
<path fill-rule="evenodd" clip-rule="evenodd" d="M51.0748 38.75C51.0748 38.75 50.9248 38.75 50.9248 38.875L51.0748 38.75Z" fill="black"/>
<path fill-rule="evenodd" clip-rule="evenodd" d="M7.04987 15.55C6.29335 15.2959 5.51508 15.1118 4.72487 15C4.09272 14.9841 3.46375 15.0946 2.87487 15.325C2.17779 15.6699 1.57077 16.1726 1.10206 16.7932C0.633354 17.4138 0.315876 18.1352 0.174868 18.9C-0.0431057 19.6508 -0.0820159 20.4421 0.0612613 21.2106C0.204538 21.9791 0.526011 22.7033 0.999868 23.325C1.58216 23.9566 2.33934 24.4005 3.17487 24.6C4.04987 24.775 4.94987 24.6 6.02487 24.825C6.13321 24.8553 6.24649 24.8637 6.35812 24.8499C6.46975 24.836 6.57753 24.8002 6.6752 24.7444C6.77287 24.6886 6.85849 24.6139 6.92709 24.5248C6.9957 24.4356 7.04593 24.3337 7.07487 24.225C7.12924 24.0064 7.09722 23.7753 6.98546 23.5797C6.87369 23.3841 6.69081 23.2392 6.47487 23.175C5.49987 22.8 4.62487 22.8 3.82487 22.5C3.48526 22.3093 3.20098 22.0336 2.99987 21.7C2.90382 21.4886 2.86091 21.2569 2.87487 21.025C2.78941 20.5371 2.78941 20.038 2.87487 19.55C2.9666 19.1373 3.10064 18.7352 3.27487 18.35C3.44987 18.025 3.54987 17.675 3.79987 17.525C4.14878 17.2555 4.56278 17.083 4.99987 17.025C5.58262 16.9883 6.16711 16.9883 6.74987 17.025C6.94428 17.0474 7.13997 16.9954 7.29764 16.8795C7.45531 16.7636 7.56328 16.5923 7.59987 16.4C7.62533 16.2159 7.5838 16.0288 7.48285 15.8728C7.38189 15.7168 7.22823 15.6022 7.04987 15.55Z" fill="black"/>
</g>
<defs>
<clipPath id="clip0_165_7406">
<rect width="60" height="60" fill="white"/>
</clipPath>
</defs>
</svg>
