<svg width="60" height="60" viewBox="0 0 60 60" fill="none" xmlns="http://www.w3.org/2000/svg">
<g clip-path="url(#clip0_165_7266)">
<path d="M37.825 28.0749C37.6323 27.8801 37.3738 27.7642 37.1 27.7499C36.8789 27.7498 36.6664 27.8359 36.5077 27.99C36.349 28.144 36.2566 28.3539 36.25 28.5749C36.1337 28.8741 36.0002 29.1662 35.85 29.4499L34.5 31.6749C33.898 32.4731 33.2468 33.2329 32.55 33.9499C31.475 35.0499 30.325 36.0749 29.175 37.0749C26.675 39.2749 23.975 41.4249 21.25 43.4749C18.5715 45.501 15.784 47.3788 12.9 49.0999C11.7155 49.8884 10.4286 50.5109 9.07505 50.9499C8.7843 51.0811 8.469 51.1489 8.15005 51.1489C7.8311 51.1489 7.5158 51.0811 7.22505 50.9499C7.06584 50.8161 6.95948 50.63 6.92505 50.4249C6.86344 50.0105 6.86344 49.5893 6.92505 49.1749C6.97694 48.0335 7.11061 46.8972 7.32505 45.7749C7.53766 44.6557 7.85574 43.5592 8.27505 42.4999C10.0379 38.0232 12.4194 33.8157 15.35 29.9999C18.4313 26.249 21.8543 22.7925 25.575 19.6749C25.7109 19.539 25.7872 19.3546 25.7872 19.1624C25.7872 18.9702 25.7109 18.7859 25.575 18.6499C25.4361 18.5199 25.2529 18.4475 25.0625 18.4475C24.8722 18.4475 24.689 18.5199 24.55 18.6499C20.6206 21.6823 16.98 25.0718 13.675 28.7749C10.4581 32.6252 7.79867 36.9088 5.77505 41.4999C5.25193 42.6985 4.84994 43.9464 4.57505 45.2249C4.30226 46.4838 4.13501 47.7632 4.07505 49.0499V49.9999C3.09022 50.7832 2.14725 51.6177 1.25005 52.4999C0.645596 53.1448 0.222906 53.9385 0.0250473 54.7999C-0.0527626 55.407 0.00804338 56.0239 0.202895 56.6041C0.397747 57.1843 0.721577 57.7128 1.15005 58.1499C1.56203 58.6232 2.08904 58.9822 2.68022 59.1924C3.2714 59.4026 3.90679 59.4569 4.52505 59.3499C5.11323 59.2037 5.65497 58.9113 6.10005 58.4999C6.5809 58.0292 7.00084 57.5001 7.35005 56.9249L9.02505 54.0499C10.8805 53.5712 12.6396 52.7762 14.225 51.6999C17.1941 49.7689 20.0412 47.6566 22.75 45.3749C25.425 43.2249 28 40.9499 30.525 38.6249C31.7 37.5499 32.85 36.4249 33.925 35.2499C34.6548 34.4624 35.3313 33.6273 35.95 32.7499L37.4 30.2499C37.6454 29.8662 37.8627 29.4651 38.05 29.0499C38.1015 28.882 38.1078 28.7034 38.0683 28.5323C38.0288 28.3611 37.9449 28.2034 37.825 28.0749ZM5.70005 55.4249C5.41908 55.7434 5.11849 56.044 4.80005 56.3249C4.6011 56.4913 4.35771 56.5956 4.10005 56.6249C3.75005 56.6249 3.47505 56.3749 3.22505 56.0749C3.07 55.9444 2.9483 55.7788 2.87004 55.5919C2.79178 55.4049 2.75922 55.202 2.77505 54.9999C2.9054 54.3911 3.19927 53.8293 3.62505 53.3749C3.95005 52.9499 4.35005 52.4999 4.70005 52.0749C4.94581 52.4683 5.25893 52.8152 5.62505 53.0999C6.04469 53.3955 6.5216 53.5999 7.02505 53.6999L5.70005 55.4249Z" fill="black"/>
<path d="M24.5002 28.175C23.1002 29.625 21.7002 31.15 20.3002 32.85C18.1032 35.5969 16.0664 38.4684 14.2002 41.45C14.0742 41.629 14.0245 41.8507 14.062 42.0664C14.0995 42.282 14.2212 42.474 14.4002 42.6C14.5792 42.7259 14.8009 42.7756 15.0166 42.7381C15.2323 42.7006 15.4242 42.579 15.5502 42.4C17.7002 39.7 19.7752 37.4 21.6502 35.375C23.1252 33.775 24.5002 32.275 25.8002 30.775C27.7002 28.575 28.9502 26.975 30.6252 24.725C31.3252 23.625 29.8252 22.65 28.9752 23.75L24.5002 28.175Z" fill="black"/>
<path d="M58.6254 4.77498C57.7863 3.36752 56.5447 2.24375 55.0609 1.54861C53.577 0.853466 51.9189 0.618835 50.3004 0.874978C46.0137 1.89034 42.1194 4.14175 39.1004 7.34998C38.5171 7.93331 37.9671 8.53331 37.4504 9.14998C36.9254 9.74998 36.4504 10.4 35.9754 11.05L35.6254 11.525C35.0264 10.401 34.2206 9.40018 33.2504 8.57498C32.3366 7.80086 31.196 7.34462 30.0004 7.27498C29.291 7.27548 28.5946 7.46584 27.9835 7.82632C27.3725 8.1868 26.869 8.70426 26.5254 9.32498C25.3218 11.7138 24.632 14.3283 24.5004 17C24.4971 17.0952 24.5126 17.1901 24.5459 17.2794C24.5793 17.3686 24.63 17.4504 24.695 17.5201C24.76 17.5897 24.8381 17.6459 24.9248 17.6853C25.0116 17.7248 25.1052 17.7468 25.2004 17.75C25.4083 17.7381 25.6066 17.6583 25.7647 17.5228C25.9228 17.3873 26.0319 17.2036 26.0754 17C26.2504 16.35 26.4504 14.675 26.5004 14.5C26.8074 13.0358 27.3748 11.6387 28.1754 10.375C28.3634 10.0595 28.6309 9.79875 28.9511 9.6189C29.2714 9.43904 29.6332 9.34631 30.0004 9.34998C30.871 9.52246 31.6462 10.0126 32.1754 10.725C32.8472 11.438 33.3512 12.2922 33.6504 13.225V14.4C33.7005 14.6398 33.7937 14.8685 33.9254 15.075C34.0771 15.2996 34.2886 15.4772 34.5361 15.5876C34.7835 15.6981 35.057 15.737 35.3254 15.7L36.5254 15.525C36.9147 15.4641 37.3111 15.4641 37.7004 15.525C38.0552 15.6219 38.3926 15.7737 38.7004 15.975C38.9732 16.1508 39.1765 16.4159 39.2754 16.725C39.6504 17.65 39.0504 18.825 39.1004 19.225C39.1255 19.45 39.1987 19.667 39.3152 19.8611C39.4317 20.0552 39.5887 20.222 39.7754 20.35C40.0757 20.5676 40.4306 20.6974 40.8004 20.725H42.2004C42.6641 20.7523 43.1162 20.8803 43.5254 21.1C43.8767 21.317 44.1687 21.6176 44.3754 21.975C44.505 22.1932 44.5604 22.4476 44.5334 22.6999C44.5063 22.9523 44.3983 23.1891 44.2254 23.375C43.685 23.9596 43.0057 24.3981 42.2504 24.65C41.2982 24.9734 40.3303 25.2488 39.3504 25.475C38.8746 25.5956 38.3763 25.5956 37.9004 25.475C36.8772 25.0928 35.9036 24.5892 35.0004 23.975C32.7004 22.275 30.7254 20.075 28.5254 18.425C28.4508 18.3479 28.3615 18.2865 28.2627 18.2447C28.1639 18.2028 28.0577 18.1812 27.9504 18.1812C27.8432 18.1812 27.737 18.2028 27.6382 18.2447C27.5394 18.2865 27.45 18.3479 27.3754 18.425C27.2314 18.5818 27.1514 18.787 27.1514 19C27.1514 19.2129 27.2314 19.4181 27.3754 19.575C29.2848 21.7093 31.3669 23.6827 33.6004 25.475C34.6013 26.3143 35.7011 27.028 36.8754 27.6C37.5596 27.8631 38.2992 27.9491 39.0254 27.85C40.3302 27.6993 41.6187 27.4316 42.8754 27.05C44.3708 26.6617 45.6919 25.781 46.6254 24.55C46.9412 23.9981 47.1073 23.3733 47.1073 22.7375C47.1073 22.1017 46.9412 21.4769 46.6254 20.925C46.2753 20.1095 45.7144 19.402 45.0004 18.875C44.2381 18.4271 43.3824 18.1618 42.5004 18.1C42.4974 17.3326 42.3621 16.5714 42.1004 15.85L42.3004 15.65C44.6694 13.2713 47.2279 11.0891 49.9504 9.12498C50.229 8.98237 50.5375 8.908 50.8504 8.908C51.1634 8.908 51.4719 8.98237 51.7504 9.12498C51.8348 9.18226 51.9065 9.25613 51.9613 9.34207C52.0161 9.42801 52.0528 9.52423 52.0692 9.62483C52.0856 9.72544 52.0813 9.82832 52.0566 9.92721C52.0318 10.0261 51.9872 10.1189 51.9254 10.2C51.6504 10.7 50.7004 11.775 50.2504 12.7C50.0309 13.0913 49.9027 13.5271 49.8754 13.975C49.8937 14.4964 50.0317 15.0067 50.2789 15.4662C50.526 15.9257 50.8755 16.3222 51.3004 16.625C52.0278 17.1774 52.9122 17.4839 53.8254 17.5C54.5715 17.4581 55.2907 17.2069 55.9004 16.775C56.5858 16.2265 57.1843 15.5775 57.6754 14.85C58.832 13.4933 59.6312 11.8691 60.0004 10.125C60.1347 9.18661 60.0824 8.23096 59.8464 7.31287C59.6105 6.39478 59.1955 5.53232 58.6254 4.77498ZM57.1504 9.77498C56.8588 11.0638 56.2775 12.2693 55.4504 13.3C55.1609 13.7275 54.8346 14.129 54.4754 14.5C54.2556 14.7218 53.9621 14.8552 53.6504 14.875C53.3253 14.8787 53.0083 14.7731 52.7504 14.575C51.2504 13.475 53.4254 12.475 53.9254 11.45C54.2691 10.892 54.4118 10.2334 54.33 9.58324C54.2481 8.93307 53.9466 8.33037 53.4754 7.87498C52.8479 7.31162 52.0601 6.95822 51.222 6.8641C50.3839 6.76999 49.5374 6.93985 48.8004 7.34998C46.0195 9.50059 43.4268 11.8842 41.0504 14.475C40.8177 14.2392 40.567 14.0218 40.3004 13.825C39.7104 13.4824 39.0687 13.2376 38.4004 13.1C37.7434 13.0428 37.0825 13.0428 36.4254 13.1C36.4254 13.1 37.0754 12.35 37.2004 12.2C37.6754 11.6 38.1754 11.025 38.6754 10.45C39.1754 9.87498 39.7504 9.37498 40.3004 8.84998C43.1419 6.12826 46.7105 4.28748 50.5754 3.54998C51.7218 3.41117 52.8834 3.62072 53.9089 4.15134C54.9345 4.68197 55.7765 5.50907 56.3254 6.52498C56.9775 7.43827 57.2711 8.55933 57.1504 9.67498V9.77498Z" fill="black"/>
</g>
<defs>
<clipPath id="clip0_165_7266">
<rect width="60" height="60" fill="white"/>
</clipPath>
</defs>
</svg>
