<svg width="60" height="60" viewBox="0 0 60 60" fill="none" xmlns="http://www.w3.org/2000/svg">
<g clip-path="url(#clip0_165_7459)">
<path fill-rule="evenodd" clip-rule="evenodd" d="M37.9997 39.5999C37.4349 39.2652 36.8505 38.9646 36.2497 38.6999C35.6653 38.4424 35.0639 38.2252 34.4497 38.0499C33.0997 37.6499 31.6747 37.4249 30.1497 37.0499C29.9504 36.9749 29.7299 36.9799 29.5342 37.0638C29.3385 37.1476 29.1829 37.3039 29.0997 37.4999C29.0247 37.6992 29.0297 37.9197 29.1136 38.1154C29.1974 38.3111 29.3537 38.4668 29.5497 38.5499C31.0997 39.4499 32.4747 40.3249 33.9497 41.0499C34.8247 41.4749 35.7247 41.7999 36.6247 42.1749C37.8098 42.62 38.9698 43.1291 40.0997 43.6999C41.4997 44.0499 42.2747 42.6999 40.0997 41.1999C39.4399 40.6158 38.738 40.081 37.9997 39.5999Z" fill="black"/>
<path fill-rule="evenodd" clip-rule="evenodd" d="M35.9004 48.2001C35.3504 47.7501 34.7504 47.3001 34.1504 46.9001C33.5341 46.4908 32.891 46.1233 32.2254 45.8001C30.6243 45.0439 28.9485 44.4574 27.2254 44.0501C27.1286 44.0089 27.0246 43.9873 26.9193 43.9864C26.8141 43.9854 26.7098 44.0053 26.6122 44.0448C26.5147 44.0842 26.4259 44.1426 26.3509 44.2164C26.276 44.2903 26.2163 44.3782 26.1754 44.4751C26.1349 44.5735 26.1145 44.6789 26.1153 44.7853C26.116 44.8917 26.138 44.9968 26.1799 45.0946C26.2218 45.1924 26.2828 45.2808 26.3593 45.3547C26.4358 45.4286 26.5262 45.4866 26.6254 45.5251C28.0504 46.3501 29.3004 47.3501 30.6504 48.3001C31.2004 48.7001 31.7754 49.1001 32.3504 49.4501C32.9254 49.8001 33.5504 50.2001 34.1504 50.5501L36.6504 52.0501C38.1754 52.8251 39.3254 51.4751 37.9504 50.1751C37.3166 49.4672 36.6314 48.8071 35.9004 48.2001Z" fill="black"/>
<path fill-rule="evenodd" clip-rule="evenodd" d="M58.1252 38.575C58.0451 37.8694 57.9283 37.1684 57.7752 36.475C57.6827 35.9786 57.5403 35.4928 57.3502 35.025C57.0512 34.2253 56.6477 33.4688 56.1502 32.775C55.6737 32.1108 55.1472 31.484 54.5752 30.9C54.5752 30.9 53.9752 30.5 53.6002 30.225C54.0002 29.975 54.1252 28.825 54.2752 28.425C54.6811 27.1695 54.9247 25.8673 55.0002 24.55C55.0363 23.5635 54.8835 22.5792 54.5502 21.65C54.2257 20.5746 53.5228 19.653 52.5715 19.0556C51.6202 18.4581 50.4849 18.2253 49.3752 18.4C46.7208 18.8718 44.3006 20.2183 42.5002 22.225L40.8752 24.45C40.3033 25.4185 39.8261 26.4399 39.4502 27.5C39.0252 28.575 38.6502 29.65 38.2752 30.725C37.2682 30.0976 36.1602 29.6493 35.0002 29.4C34.2602 29.2506 33.5035 29.2001 32.7502 29.25C31.8074 29.32 30.8713 29.4621 29.9502 29.675C30.4002 28.325 30.8252 26.975 31.2502 25.625C32.3262 22.5632 33.0721 19.3952 33.4752 16.175C33.7078 13.9463 33.5384 11.6939 32.9752 9.525C32.7801 8.83422 32.5379 8.15763 32.2502 7.5C31.958 6.79499 31.5891 6.12429 31.1502 5.5C30.0107 3.84318 28.4941 2.48062 26.7252 1.52444C24.9562 0.568251 22.9855 0.0457741 20.9752 0C17.5284 0.138876 14.1553 1.04055 11.0989 2.64007C8.04254 4.23958 5.37901 6.49711 3.3002 9.25C3.0252 9.725 2.7752 10.25 2.5252 10.8C2.31158 11.354 2.13617 11.922 2.0002 12.5C1.89394 13.0186 1.83536 13.5458 1.8252 14.075C1.82431 14.6263 1.90864 15.1745 2.0752 15.7C2.22794 16.5961 2.64139 17.4274 3.26388 18.0899C3.88637 18.7524 4.69029 19.2168 5.5752 19.425C7.9016 19.5657 10.2272 19.1366 12.3502 18.175C12.6179 18.0565 12.9074 17.9953 13.2002 17.9953C13.493 17.9953 13.7825 18.0565 14.0502 18.175C14.2288 18.3131 14.3639 18.4996 14.4393 18.7125C14.5147 18.9253 14.5271 19.1553 14.4752 19.375C14.3276 20.4949 14.0508 21.5939 13.6502 22.65C13.0252 24.4 12.2002 26.075 11.5252 27.65L8.3252 36.025C7.3502 38.225 6.1752 40.375 5.2252 42.625C4.53578 44.197 3.99184 45.8288 3.6002 47.5C2.98725 50.7852 3.66804 54.1801 5.5002 56.975C6.18402 57.9963 7.12915 58.8157 8.23716 59.3477C9.34518 59.8797 10.5756 60.105 11.8002 60C14.0494 59.7136 16.0963 58.5555 17.5002 56.775C19.2296 54.4294 20.7204 51.917 21.9502 49.275C23.6133 46.2804 25.083 43.1824 26.3502 40C27.4752 37.125 28.4752 34.2 29.4502 31.275C29.5961 31.3245 29.7543 31.3245 29.9002 31.275C30.7267 31.1295 31.5618 31.0376 32.4002 31C33.1646 30.9878 33.928 31.0633 34.6752 31.225C36.8086 31.829 38.6376 33.2119 39.8002 35.1C44.1002 41.7 41.8502 54.95 31.7252 56.05C30.509 56.1929 29.2764 56.0909 28.1002 55.75C26.1814 55.1571 24.3095 54.4218 22.5002 53.55C22.3941 53.4956 22.2781 53.4634 22.1591 53.4554C22.0402 53.4474 21.9209 53.4638 21.8085 53.5036C21.6962 53.5434 21.5931 53.6058 21.5057 53.6868C21.4183 53.7679 21.3484 53.866 21.3002 53.975C21.1963 54.1941 21.1826 54.4453 21.2621 54.6744C21.3416 54.9035 21.5079 55.0923 21.7252 55.2C23.5877 56.2209 25.5171 57.1146 27.5002 57.875C28.9286 58.3731 30.439 58.5938 31.9502 58.525C34.0059 58.4403 36.012 57.8679 37.8029 56.855C39.5938 55.8422 41.1182 54.418 42.2502 52.7C44.3879 49.2524 45.2709 45.173 44.7502 41.15C44.4396 38.435 43.4225 35.849 41.8002 33.65C41.1909 32.8575 40.4855 32.1437 39.7002 31.525C40.2002 30.375 40.6502 29.2 41.2002 28.075C41.6019 27.1969 42.0875 26.3597 42.6502 25.575L44.2002 23.75C45.4805 22.5445 47.0462 21.6843 48.7502 21.25C49.0432 21.1309 49.3574 21.0728 49.6736 21.0793C49.9898 21.0858 50.3013 21.1568 50.5892 21.2878C50.877 21.4189 51.1351 21.6073 51.3476 21.8415C51.5602 22.0757 51.7227 22.3508 51.8252 22.65C52.0455 23.37 52.1052 24.1295 52.0002 24.875C51.877 25.7249 51.6762 26.5618 51.4002 27.375C51.2502 27.8 50.7502 28.5 50.5502 29.075C50.4187 29.4008 50.3508 29.7487 50.3502 30.1C50.3841 30.5973 50.5769 31.0706 50.9002 31.45C51.3908 31.9849 51.917 32.486 52.4752 32.95C52.9496 33.4113 53.3922 33.9041 53.8002 34.425C54.1922 34.9007 54.5123 35.4314 54.7502 36C54.9494 36.4345 55.1084 36.8864 55.2252 37.35C55.2252 37.825 55.4252 38.35 55.5002 38.825V40.65C55.4542 41.3225 55.2216 41.9688 54.8286 42.5165C54.4356 43.0641 53.8976 43.4912 53.2752 43.75C50.9286 44.2922 48.4709 44.0823 46.2502 43.15C46.1386 43.1106 46.0203 43.0936 45.9021 43.0999C45.7839 43.1062 45.6681 43.1358 45.5613 43.1868C45.4545 43.2379 45.3588 43.3095 45.2797 43.3976C45.2006 43.4856 45.1396 43.5884 45.1002 43.7C45.0608 43.8116 45.0438 43.9299 45.0501 44.0481C45.0564 44.1663 45.086 44.2821 45.137 44.3889C45.1881 44.4957 45.2597 44.5914 45.3478 44.6705C45.4358 44.7496 45.5386 44.8106 45.6502 44.85C48.2599 46.0492 51.1779 46.4074 54.0002 45.875C55.0345 45.5314 55.9535 44.908 56.6552 44.074C57.3568 43.24 57.8137 42.2279 57.9752 41.15C58.0719 40.7058 58.1305 40.2542 58.1502 39.8C58.1638 39.3915 58.1555 38.9826 58.1252 38.575ZM14.4752 15.925C13.5568 15.6287 12.5686 15.6287 11.6502 15.925C9.8997 16.8088 7.96095 17.2549 6.0002 17.225C5.1002 17.05 4.4002 16.4 3.9752 15C3.86829 14.6427 3.80944 14.2728 3.8002 13.9C3.80597 13.5053 3.84781 13.112 3.9252 12.725C4.01215 12.2625 4.14618 11.8102 4.3252 11.375C4.51984 10.9667 4.7455 10.5738 5.0002 10.2C6.57834 8.03647 8.5675 6.20526 10.8539 4.8111C13.1403 3.41695 15.6792 2.48719 18.3252 2.075C20.4107 1.7098 22.5573 1.95703 24.5052 2.78676C26.4531 3.6165 28.1186 4.99314 29.3002 6.75C29.6386 7.23929 29.9156 7.76824 30.1252 8.325C30.3426 8.90557 30.5262 9.49822 30.6752 10.1C31.1353 12.0063 31.237 13.9815 30.9752 15.925C30.8296 17.0277 30.621 18.1212 30.3502 19.2C30.1778 19.0195 29.948 18.9046 29.7002 18.875C27.9114 18.6265 26.1013 18.5679 24.3002 18.7C23.5357 18.7592 22.7757 18.8678 22.0252 19.025C21.2786 19.1836 20.5436 19.3924 19.8252 19.65C18.6825 20.0991 17.5716 20.6254 16.5002 21.225C16.6286 20.6818 16.7205 20.1305 16.7752 19.575C16.8377 19.094 16.7987 18.6053 16.661 18.1403C16.5232 17.6753 16.2896 17.2443 15.9752 16.875C17.148 15.2175 18.4081 13.6236 19.7502 12.1C20.7252 10.975 21.6502 9.8 22.6502 8.725C23.713 7.5409 24.8941 6.46865 26.1752 5.525C26.38 5.40494 26.529 5.20884 26.5899 4.97941C26.6508 4.74997 26.6185 4.50578 26.5002 4.3C26.4429 4.19317 26.3646 4.09901 26.27 4.02319C26.1754 3.94736 26.0665 3.89143 25.9498 3.85874C25.833 3.82605 25.7109 3.81729 25.5907 3.83297C25.4705 3.84865 25.3546 3.88846 25.2502 3.95C23.3587 4.81735 21.5928 5.93575 20.0002 7.275C19.3466 7.85358 18.7288 8.47139 18.1502 9.125C17.5817 9.79131 17.0557 10.4927 16.5752 11.225C15.705 12.7099 15.0008 14.2861 14.4752 15.925ZM19.4752 47.8C18.3123 50.2519 16.9052 52.5804 15.2752 54.75C14.3727 55.9464 13.0336 56.7373 11.5502 56.95C10.6387 56.9815 9.74038 56.7257 8.98222 56.2187C8.22405 55.7118 7.6444 54.9794 7.3252 54.125C6.40394 52.2418 6.09785 50.1167 6.4502 48.05C6.4502 48.05 6.4502 48.05 6.4502 47.85C6.59606 47.9295 6.75908 47.9724 6.9252 47.975C8.31216 48.0005 9.69913 47.9253 11.0752 47.75C11.6252 47.75 12.1502 47.75 12.6752 47.55L15.0002 47.075L20.3502 45.85C20.0002 46.5 19.7252 47.15 19.3752 47.8H19.4752ZM23.6752 38.85C23.0002 40.5 22.3002 42.1 21.5252 43.7C19.6752 43.7 17.8502 43.7 16.0002 43.875C15.5002 43.875 15.0002 44 14.5002 44.075C14.0002 44.15 12.9002 44.4 12.0002 44.65C10.3652 45.3058 8.6961 45.8733 7.0002 46.35C7.25503 45.452 7.55542 44.5675 7.9002 43.7C8.8252 41.475 9.9502 39.3 10.8752 37.125L11.1752 36.3L12.5002 35.875C13.7502 35.525 15.0002 35.375 16.3002 35.15L18.8002 34.625C20.9502 34.1 23.0502 33.525 25.2002 33.1C25.3682 33.0782 25.5269 33.0108 25.6592 32.905C25.7914 32.7992 25.8921 32.6591 25.9502 32.5C25.2002 34.625 24.4252 36.775 23.5752 38.85H23.6752ZM28.6752 24.75C27.8002 27.25 26.9252 29.75 26.0252 32.425C26.0498 32.3181 26.0498 32.2069 26.0252 32.1C26.0162 31.9802 25.9826 31.8635 25.9265 31.7573C25.8704 31.651 25.7931 31.5575 25.6993 31.4824C25.6055 31.4074 25.4972 31.3524 25.3812 31.321C25.2653 31.2897 25.1441 31.2825 25.0252 31.3C23.2752 31.3 21.5252 31.3 19.7502 31.45C18.213 31.6151 16.7018 31.9677 15.2502 32.5C14.0921 32.9418 12.9717 33.4769 11.9002 34.1L13.8252 28.725C14.4752 27.05 15.3002 25.325 15.9002 23.575C17.5752 23.1 19.4252 22.825 21.3252 22.45L24.0502 21.85C25.0002 21.625 25.9002 21.35 26.8002 21.2C27.7332 21.0169 28.6767 20.8917 29.6252 20.825H29.9752C29.5752 22.025 29.1252 23.4 28.6502 24.75H28.6752Z" fill="black"/>
</g>
<defs>
<clipPath id="clip0_165_7459">
<rect width="60" height="60" fill="white"/>
</clipPath>
</defs>
</svg>
