<svg width="60" height="60" viewBox="0 0 60 60" fill="none" xmlns="http://www.w3.org/2000/svg">
<path d="M18.0746 46.3251C18.0746 48.8251 18.0746 49.3751 15.5746 50.8751C14.7996 51.7751 14.6746 52.8501 15.5746 52.8501C16.3676 52.6116 17.1374 52.3021 17.8746 51.9251C20.9246 50.3751 20.5746 48.4751 20.6496 46.3251C20.9054 43.5087 20.7454 40.6699 20.1746 37.9001C19.8898 36.0114 19.0147 34.2612 17.6746 32.9001C16.9105 32.4522 16.0568 32.179 15.1746 32.1001C14.2996 32.1001 14.1746 33.5751 15.1746 34.0001C16.7746 34.8501 17.4996 33.4751 18.0746 46.3251Z" fill="black"/>
<path d="M57.2751 31.4252C56.8964 30.9443 56.3828 30.5874 55.8001 30.4002C55.8001 23.5502 55.6751 17.6002 51.1001 11.6252C42.6501 0.700194 23.8251 -0.149806 13.2751 9.10019C9.62626 12.7833 7.2596 17.543 6.52507 22.6752C5.98008 24.8136 5.75264 27.0206 5.85007 29.2252C4.60204 29.4475 3.48504 30.1356 2.72507 31.1502C-0.57493 35.8252 -0.0499304 43.6502 0.22507 49.3752C0.42507 52.6002 1.10007 55.3002 4.20007 56.2252C6.19707 56.7994 8.2743 57.0442 10.3501 56.9502C12.8501 56.7252 14.2751 55.6252 14.5001 53.1752C14.5001 53.1752 13.9501 32.2002 13.8501 32.2752C13.8501 29.6002 13.1251 29.5502 11.5501 29.3002L11.8251 27.6752C13.7751 17.2752 29.8001 8.67519 40.7251 17.9252C47.8501 23.9502 46.1751 28.0752 46.2751 32.5252C46.3751 36.9752 45.6501 49.2252 45.6001 53.4252C45.6552 54.3491 46.0157 55.2285 46.6251 55.9252C48.4751 57.9252 53.3001 57.2002 55.9001 56.4502C59.0001 55.5252 59.6751 52.8252 59.8751 49.6002C60.0001 43.9752 60.5501 36.0752 57.2751 31.4252ZM12.0751 30.9752C12.0751 32.8502 12.0751 31.3502 11.8251 40.6752C11.8251 44.3002 12.3751 52.9252 11.4751 53.8252C10.5751 54.7252 6.30007 53.8252 4.97507 53.5002C3.65007 53.1752 3.12507 51.0002 3.02507 49.2002C2.62507 44.3502 1.85007 36.4002 4.42507 32.2752C5.67507 30.2752 9.80007 30.6752 12.0751 30.9752ZM25.9751 11.5502C23.0313 12.2256 20.259 13.5026 17.8325 15.301C15.406 17.0994 13.3777 19.3802 11.8751 22.0002C10.7714 24.1961 10.1331 26.5962 10.0001 29.0502C9.12671 28.9745 8.24843 28.9745 7.37507 29.0502C7.45044 27.0246 7.7438 25.013 8.25007 23.0502C9.15325 18.4006 11.5182 14.1612 15.0001 10.9502C24.2251 3.20019 41.8001 3.80019 49.3751 13.1002C53.4751 18.1002 54.1001 23.6502 54.2251 30.1002C52.5464 30.0838 50.8706 30.243 49.2251 30.5752C49.2132 27.7044 48.5668 24.8718 47.3322 22.2801C46.0975 19.6884 44.3052 17.4017 42.0834 15.5837C39.8617 13.7657 37.2655 12.4613 34.4807 11.764C31.6959 11.0667 28.7914 10.9937 25.9751 11.5502ZM57.0001 49.4502C56.8751 51.2502 56.7501 53.2252 55.0501 53.7502C53.1818 54.3206 51.2207 54.5244 49.2751 54.3502C46.9251 53.9002 48.7251 51.3502 47.9251 32.3002C49.4751 32.1502 54.8501 31.2752 55.6001 32.5252C58.2001 36.6752 57.5001 44.6502 57.0001 49.4502Z" fill="black"/>
<path d="M41.9 49.25C41.525 48.7 41.9 37.225 43.25 35.15C43.75 34.4 44.675 34.4 45.625 33.875C46.575 33.35 45.625 32.05 44.825 32.15C43.9273 32.3349 43.0767 32.7007 42.325 33.225C40.275 34.8 39.4 38.975 39.25 41.6C39.25 42.75 39.25 48.475 39.425 49.1C40.025 51.6 41.925 52.375 44.125 53.175C45.225 53.425 45.775 52.2 45.025 51.375C43.8088 50.9654 42.728 50.2305 41.9 49.25Z" fill="black"/>
</svg>
