<svg width="60" height="60" viewBox="0 0 60 60" fill="none" xmlns="http://www.w3.org/2000/svg">
<g clip-path="url(#clip0_166_4907)">
<path d="M41.025 25C40.3 22.5 38.825 18.675 38.525 17.5C38.5011 17.3519 38.4372 17.2131 38.3403 17.0986C38.2434 16.984 38.1171 16.8981 37.975 16.85C37.2754 15.692 36.2952 14.729 35.125 14.05C32.4459 12.5947 29.6001 11.4699 26.65 10.7C25.625 10.4 24.6 10.125 23.575 9.89999L18.975 8.89999C18.8698 8.87433 18.7605 8.87029 18.6537 8.88811C18.5469 8.90594 18.4448 8.94526 18.3537 9.00369C18.2625 9.06213 18.1841 9.13846 18.1234 9.22807C18.0626 9.31768 18.0206 9.41869 18 9.52499C17.9703 9.62854 17.9625 9.73714 17.9771 9.84387C17.9918 9.9506 18.0285 10.0531 18.0849 10.1448C18.1414 10.2366 18.2163 10.3156 18.305 10.3767C18.3937 10.4379 18.4942 10.4798 18.6 10.5L23.15 11.6C24.125 11.85 25.125 12.125 26.1 12.45C28.4876 13.0924 30.8135 13.9457 33.05 15C34.4015 15.5963 35.5239 16.6136 36.25 17.9C36.3688 18.3167 36.3688 18.7583 36.25 19.175C36 20.175 35.55 21.25 35.325 21.9C34.7497 23.3905 34.0989 24.8507 33.375 26.275C31.575 29.85 29.3 33.775 28.075 36.675C27.175 38.85 26.075 41.45 24.925 43.65C24.125 45.2 22.625 47.175 22.65 47.225C22.195 47.2444 21.7397 47.1938 21.3 47.075C18.4989 46.4515 15.7493 45.6157 13.075 44.575C10.3013 43.578 7.60267 42.3833 5 41C4.525 40.7 4.025 40.35 3.875 40.225C3.73778 38.5183 4.01213 36.8036 4.675 35.225C5.76411 32.5102 6.99924 29.8563 8.375 27.275C10 24.25 11.275 21.175 12.75 18.125C13.725 16.125 14.725 14.125 15.8 12.175C15.8498 12.0931 15.8828 12.0021 15.8971 11.9073C15.9115 11.8125 15.9069 11.7158 15.8837 11.6228C15.8604 11.5298 15.819 11.4424 15.7617 11.3655C15.7044 11.2886 15.6325 11.2239 15.55 11.175C15.4666 11.1263 15.3742 11.0947 15.2784 11.0822C15.1826 11.0696 15.0853 11.0764 14.9921 11.102C14.8989 11.1276 14.8118 11.1716 14.7359 11.2314C14.66 11.2911 14.5968 11.3655 14.55 11.45C13.675 12.9 12.85 14.4 12.05 15.9C10.2 19.375 8.5 22.925 6.675 26.425C5.14629 29.0264 3.75277 31.705 2.5 34.45C1.96015 35.7956 1.60687 37.2087 1.45 38.65C1.275 39.625 0.599999 42.5 0.224999 45C-0.00983734 45.99 -0.0857852 47.0111 -7.567e-07 48.025C0.3162 48.6968 0.831073 49.2553 1.475 49.625C5.6101 52.0634 10.0038 54.0339 14.575 55.5C17.2877 56.4909 20.1068 57.1621 22.975 57.5C23.9341 57.5981 24.9019 57.4339 25.775 57.025C28.125 55.675 31.15 51.15 33.825 45.875C36.7847 39.8704 39.2916 33.6531 41.325 27.275C41.3082 26.508 41.2076 25.7451 41.025 25ZM21.45 54.525C18.5489 53.9958 15.6911 53.2521 12.9 52.3C9.6585 51.2739 6.49945 50.0036 3.45 48.5C2.95665 48.2534 2.48787 47.9604 2.05 47.625C1.96684 47.6001 1.89007 47.5574 1.825 47.5C1.76225 46.4281 1.83787 45.3526 2.05 44.3C2.05 43.6 2.25 42.9 2.375 42.2C2.48931 42.3127 2.61498 42.4132 2.75 42.5C5.64146 44.3767 8.73618 45.9199 11.975 47.1C15.1851 48.461 18.5402 49.4507 21.975 50.05H22.5V51.5C22.5252 51.9773 22.5753 52.4529 22.65 52.925C22.65 53.55 22.925 54.175 23.075 54.775C22.5291 54.7221 21.9866 54.6386 21.45 54.525ZM31.45 44.525C29.8742 47.8868 27.8195 51.0026 25.35 53.775C25.35 53.525 24.45 49.075 24.45 49.075C25.3439 48.1692 26.0942 47.1323 26.675 46C28.1062 43.2823 29.3832 40.4862 30.5 37.625C31.65 34.725 33.8 30.825 35.5 27.25C36.2596 25.7502 36.9275 24.2057 37.5 22.625C37.5 22.225 37.825 21.7 38 21.125C38.45 22.575 38.95 24.2 39.25 25.5C39.4086 26.0632 39.5091 26.6413 39.55 27.225C37.1742 33.1745 34.4615 38.9839 31.425 44.625L31.45 44.525Z" fill="black"/>
<path d="M28.575 26.825C29.133 26.576 29.5971 26.1557 29.9 25.625C30.276 24.8845 30.5695 24.1048 30.775 23.3C30.975 22.675 31.35 21.875 31.575 21.125C31.7093 20.6955 31.785 20.2498 31.8 19.8C31.8103 19.4004 31.6773 19.0102 31.425 18.7C30.9921 18.2638 30.4726 17.9232 29.9 17.7L25.7 16.3L20 14.825C19.8671 14.7815 19.7248 14.7748 19.5884 14.8057C19.4519 14.8365 19.3264 14.9036 19.225 15C19.0582 14.9376 18.8742 14.9388 18.7082 15.0034C18.5423 15.0679 18.4058 15.1913 18.325 15.35L16.275 19.1C16.0689 19.453 15.9093 19.8311 15.8 20.225C15.6982 20.5506 15.6982 20.8995 15.8 21.225C15.9419 21.5881 16.1543 21.9195 16.425 22.2C16.9147 22.6551 17.451 23.0573 18.025 23.4C18.8771 23.9468 19.7816 24.4075 20.725 24.775C22.05 25.325 23.425 25.725 24.725 26.175C25.4213 26.4735 26.1402 26.7159 26.875 26.9C27.4373 27.0368 28.0269 27.0108 28.575 26.825ZM21.6 22.5C20.7408 22.2561 19.9044 21.9382 19.1 21.55C18.7485 21.3856 18.4063 21.202 18.075 21C17.9221 20.9292 17.7858 20.827 17.675 20.7C17.6711 20.4235 17.731 20.1497 17.85 19.9L19.375 16.45L25 18.275L28.875 20L29.1 20.225L28.175 22.5C28.0583 23.1128 27.8911 23.7149 27.675 24.3C27.55 24.725 26.05 23.725 25.6 23.575C24.3 23.175 22.925 22.85 21.6 22.5Z" fill="black"/>
<path d="M22.8754 29.325C22.4564 28.9263 21.9954 28.5742 21.5004 28.275C21.0378 27.95 20.5332 27.6893 20.0004 27.5C18.1184 26.8719 16.0708 26.9609 14.2504 27.75C12.4698 28.6067 11.0519 30.0688 10.2504 31.875C9.86163 32.7087 9.66016 33.6175 9.66016 34.5375C9.66016 35.4574 9.86163 36.3662 10.2504 37.2C10.7648 38.0843 11.4485 38.8583 12.2626 39.4779C13.0766 40.0974 14.0049 40.5502 14.9943 40.8103C15.9837 41.0704 17.0146 41.1328 18.0281 40.9937C19.0416 40.8546 20.0177 40.5169 20.9004 40C22.8759 38.9428 24.3507 37.1443 25.0004 35C25.1958 33.9257 25.0561 32.8173 24.6004 31.825C24.1734 30.8987 23.5898 30.053 22.8754 29.325ZM19.8004 38.375C19.1834 38.8635 18.4635 39.2056 17.695 39.3754C16.9265 39.5452 16.1295 39.5384 15.364 39.3555C14.5986 39.1726 13.8846 38.8183 13.276 38.3193C12.6673 37.8203 12.1799 37.1897 11.8504 36.475C11.6574 35.8882 11.5955 35.2662 11.6689 34.6528C11.7423 34.0394 11.9494 33.4497 12.2754 32.925C12.9287 31.726 13.9684 30.7832 15.2254 30.25C16.4664 29.7839 17.8344 29.7839 19.0754 30.25C19.4168 30.3505 19.7444 30.4933 20.0504 30.675C20.3707 30.8715 20.672 31.0975 20.9504 31.35C21.4316 31.8079 21.8367 32.3395 22.1504 32.925C22.4252 33.4292 22.5468 34.0026 22.5004 34.575C22.3227 35.3549 21.9927 36.0921 21.5294 36.7443C21.0661 37.3964 20.4785 37.9505 19.8004 38.375Z" fill="black"/>
<path d="M59.7497 42.5C59.2663 41.437 58.6533 40.4377 57.9247 39.525C57.8459 39.3839 57.7206 39.2745 57.5702 39.2152C57.4199 39.156 57.2536 39.1506 57.0997 39.2C56.9452 38.1275 56.4026 37.149 55.5747 36.45C54.4256 35.5103 53.1958 34.6737 51.8997 33.95C51.2326 33.5877 50.6525 33.0843 50.1997 32.475C49.7083 31.7139 49.3687 30.865 49.1997 29.975C49.0694 29.3331 49.0024 28.68 48.9997 28.025C49.0095 27.3633 49.068 26.7032 49.1747 26.05L50.2247 23.325C51.0248 21.3659 51.6847 19.3525 52.1997 17.3C52.5539 15.8527 52.7136 14.3646 52.6747 12.875C52.5538 10.9619 51.9665 9.10735 50.9643 7.47324C49.962 5.83914 48.5752 4.47507 46.9247 3.50001C45.7485 2.85145 44.4044 2.57141 43.067 2.69623C41.7296 2.82106 40.4606 3.34498 39.4247 4.20001C38.5315 4.86354 37.7971 5.7175 37.2747 6.70001C36.6298 8.08358 36.0867 9.51238 35.6497 10.975C35.6135 11.0618 35.5951 11.155 35.5957 11.2491C35.5963 11.3432 35.6159 11.4362 35.6532 11.5225C35.6905 11.6088 35.7449 11.6868 35.813 11.7516C35.8811 11.8165 35.9617 11.867 36.0497 11.9C36.1383 11.9367 36.2333 11.9554 36.3291 11.9551C36.425 11.9548 36.5198 11.9355 36.6082 11.8983C36.6965 11.8611 36.7766 11.8067 36.8438 11.7383C36.911 11.67 36.964 11.589 36.9997 11.5C37.4943 10.1217 38.0961 8.78427 38.7997 7.50001C39.2398 6.75522 39.837 6.11536 40.5497 5.62501C41.5225 4.96298 42.6975 4.66522 43.8681 4.78411C45.0388 4.903 46.13 5.43093 46.9497 6.27501C48.785 7.97465 49.8801 10.3265 49.9997 12.825C50.0276 14.0705 49.8931 15.3143 49.5997 16.525C49.1315 18.456 48.53 20.3522 47.7997 22.2L41.0747 42.65C41.0652 42.7331 41.0652 42.8169 41.0747 42.9C40.8427 42.9932 40.6172 43.1017 40.3997 43.225C40.0861 43.4155 39.8226 43.6783 39.6312 43.9915C39.4398 44.3046 39.3262 44.659 39.2997 45.025C39.282 45.1302 39.2854 45.2379 39.3099 45.3418C39.3344 45.4456 39.3794 45.5435 39.4423 45.6297C39.5052 45.7159 39.5847 45.7887 39.6762 45.8437C39.7676 45.8987 39.8691 45.9348 39.9747 45.95C40.0832 45.9677 40.1942 45.9636 40.301 45.9378C40.4079 45.912 40.5086 45.8652 40.5971 45.8C40.6856 45.7347 40.7601 45.6525 40.8164 45.5581C40.8727 45.4636 40.9095 45.3589 40.9247 45.25C40.9247 44.95 41.2497 44.85 41.5247 44.75C41.9188 44.6526 42.3307 44.6526 42.7247 44.75C43.341 44.9139 43.9132 45.2127 44.3997 45.625C44.8758 46.0306 45.2595 46.5336 45.5247 47.1C45.6747 47.4 45.8997 47.675 45.7747 47.825C45.6497 47.975 44.7497 48 44.3997 47.95L42.2247 47.5L39.1747 46.275C39.0926 46.2258 39.0017 46.1932 38.907 46.1791C38.8123 46.165 38.7158 46.1697 38.6229 46.1929C38.5301 46.2161 38.4427 46.2574 38.3658 46.3144C38.2889 46.3714 38.224 46.4429 38.1747 46.525C38.1255 46.6071 38.0929 46.6981 38.0788 46.7927C38.0647 46.8874 38.0694 46.9839 38.0926 47.0768C38.1158 47.1696 38.1571 47.257 38.2141 47.3339C38.2711 47.4108 38.3426 47.4758 38.4247 47.525L41.4247 49.4L43.6247 50.45C44.2588 50.694 44.9427 50.7806 45.6176 50.7022C46.2926 50.6238 46.9384 50.3829 47.4997 50C48.4997 49.25 49.0497 47.85 47.8997 45.8C47.3897 44.9279 46.6782 44.1907 45.8247 43.65C44.9867 43.0978 44.0245 42.7627 43.0247 42.675H42.8497L47.0497 31.75C47.2723 32.4968 47.5916 33.2112 47.9997 33.875C48.5292 34.6185 49.211 35.2406 49.9997 35.7C51.3747 36.525 53.1497 37.05 54.3997 37.975C54.7325 38.1683 55.0162 38.4358 55.2287 38.7567C55.4412 39.0775 55.5767 39.4432 55.6247 39.825C55.5955 39.9229 55.5955 40.0271 55.6247 40.125C55.0702 40.2854 54.5403 40.5209 54.0497 40.825L52.2747 42.175C51.7356 42.5565 51.3266 43.0944 51.1031 43.7159C50.8795 44.3374 50.8522 45.0125 51.0247 45.65C51.2219 46.0982 51.5294 46.4891 51.9184 46.7863C52.3075 47.0836 52.7655 47.2775 53.2497 47.35C54.6776 47.6233 56.1542 47.4756 57.4997 46.925C58.0505 46.7057 58.5465 46.3681 58.9525 45.9362C59.3586 45.5042 59.6649 44.9883 59.8497 44.425C59.9986 43.7868 59.9639 43.1194 59.7497 42.5ZM57.7497 43.8C57.6247 44.1 57.2497 44.2 56.8997 44.375C56.1874 44.6715 55.4211 44.8163 54.6497 44.8C54.2276 44.8704 53.7968 44.8704 53.3747 44.8C53.2497 44.8 53.3747 44.475 53.8997 43.9L55.1247 42.65C55.4493 42.3877 55.8014 42.1614 56.1747 41.975C56.534 41.7949 56.9243 41.6846 57.3247 41.65C57.4747 42 57.6247 42.375 57.7497 42.725C57.8536 43.0588 57.8536 43.4162 57.7497 43.75V43.8Z" fill="black"/>
</g>
<defs>
<clipPath id="clip0_166_4907">
<rect width="60" height="60" fill="white"/>
</clipPath>
</defs>
</svg>
