<svg width="60" height="60" viewBox="0 0 60 60" fill="none" xmlns="http://www.w3.org/2000/svg">
<path fill-rule="evenodd" clip-rule="evenodd" d="M45.4256 16.4253C45.2887 16.2107 45.0734 16.0582 44.8256 16.0003C44.3177 15.9699 43.8085 15.9699 43.3006 16.0003L40.2756 15.7753C39.5519 15.7129 38.8242 15.7129 38.1006 15.7753C37.3412 15.8979 36.6067 16.1428 35.9256 16.5003C35.4753 16.7675 35.1444 17.1968 35.0006 17.7003C34.9237 18.0598 34.9862 18.4351 35.1756 18.7503C35.4658 19.2463 35.8005 19.7149 36.1756 20.1503C36.5512 20.6753 36.9693 21.1686 37.4256 21.6253C37.4256 21.6253 40.0006 23.9003 40.1256 25.0003L40.6506 34.7253L40.9006 38.3003V38.4253L38.0756 38.6253L27.5006 39.1003L16.9006 39.4253C16.8219 39.4213 16.7432 39.4344 16.67 39.4635C16.5968 39.4926 16.5307 39.5371 16.4761 39.594C16.4216 39.6509 16.38 39.7189 16.354 39.7933C16.328 39.8677 16.3183 39.9468 16.3256 40.0253C16.3255 40.1029 16.3412 40.1798 16.3716 40.2512C16.4021 40.3227 16.4467 40.3872 16.5027 40.4409C16.5588 40.4947 16.6252 40.5365 16.6979 40.5639C16.7705 40.5913 16.848 40.6036 16.9256 40.6003L27.5506 40.7253H38.0506L41.0756 40.6003C41.417 40.619 41.7592 40.619 42.1006 40.6003C42.3969 40.5315 42.656 40.3528 42.8256 40.1003C42.9588 39.8715 43.0359 39.6145 43.0506 39.3503V38.3253L42.8256 34.6503L42.3256 25.0003C42.3498 24.609 42.3498 24.2165 42.3256 23.8253C42.3066 23.6823 42.2553 23.5455 42.1756 23.4253L44.1006 20.6253C44.4391 20.0972 44.7399 19.5458 45.0006 18.9753C45.1506 18.6003 45.3006 18.2253 45.4256 17.8253C45.4998 17.5623 45.5583 17.2952 45.6006 17.0253C45.6061 16.8119 45.545 16.6022 45.4256 16.4253ZM43.4756 18.5753C43.2756 18.9753 43.0756 19.3503 42.8506 19.7253L41.2006 22.2253C40.4256 21.5253 39.6256 20.8753 38.8756 20.1253C38.4627 19.7443 38.0861 19.3258 37.7506 18.8753C36.6506 17.9253 37.4756 17.7253 37.4756 17.7253C37.7876 17.6251 38.1047 17.5417 38.4256 17.4753C39.0332 17.4207 39.6447 17.429 40.2506 17.5003H43.2256H43.8256C43.7333 17.8661 43.6163 18.2252 43.4756 18.5753Z" fill="black"/>
<path fill-rule="evenodd" clip-rule="evenodd" d="M33.7 23.7002C33.5453 23.713 33.4015 23.7852 33.299 23.9018C33.1964 24.0183 33.143 24.1701 33.15 24.3252C33.15 25.6502 32.875 26.9752 32.875 28.3002V30.6502C32.875 31.8502 33.2 33.0002 33.3 34.1752C33.2932 34.2626 33.3042 34.3505 33.3322 34.4335C33.3602 34.5166 33.4048 34.5931 33.4632 34.6585C33.5216 34.7239 33.5926 34.7768 33.6719 34.8141C33.7513 34.8513 33.8374 34.8721 33.925 34.8752C34.0137 34.8785 34.1021 34.8644 34.1853 34.8335C34.2685 34.8026 34.3447 34.7557 34.4098 34.6953C34.4748 34.6349 34.5272 34.5623 34.5642 34.4817C34.6011 34.401 34.6218 34.3139 34.625 34.2252C34.813 33.0578 34.9382 31.8811 35 30.7002V29.2002C35 28.7002 35 28.2002 34.875 27.7002C34.7 26.5252 34.4 25.4002 34.175 24.2502C34.1669 24.1192 34.116 23.9944 34.0302 23.8951C33.9444 23.7958 33.8284 23.7273 33.7 23.7002Z" fill="black"/>
<path fill-rule="evenodd" clip-rule="evenodd" d="M28.7002 26.9999C28.6814 26.8431 28.6039 26.6991 28.4833 26.5971C28.3627 26.4951 28.2079 26.4425 28.0502 26.4499C27.8953 26.4688 27.7539 26.5472 27.6559 26.6685C27.5579 26.7898 27.511 26.9446 27.5252 27.0999C27.3912 27.9777 27.3077 28.8625 27.2752 29.7499C27.2377 30.1156 27.2377 30.4842 27.2752 30.8499C27.3005 31.2195 27.3507 31.587 27.4252 31.9499C27.6002 32.7999 27.8252 33.6249 28.0002 34.4499C27.9811 34.5477 27.9839 34.6484 28.0083 34.745C28.0328 34.8415 28.0783 34.9315 28.1416 35.0084C28.205 35.0852 28.2845 35.1472 28.3746 35.1897C28.4647 35.2322 28.5631 35.2542 28.6627 35.2542C28.7623 35.2542 28.8606 35.2322 28.9507 35.1897C29.0408 35.1472 29.1203 35.0852 29.1837 35.0084C29.247 34.9315 29.2925 34.8415 29.317 34.745C29.3414 34.6484 29.3442 34.5477 29.3252 34.4499C29.3252 33.5499 29.5252 32.6999 29.5502 31.7999V30.6749C29.5502 30.2999 29.5502 29.9249 29.3752 29.5499C29.2252 28.6499 28.9252 27.8749 28.7002 26.9999Z" fill="black"/>
<path fill-rule="evenodd" clip-rule="evenodd" d="M22.7754 30C22.6977 29.9999 22.6209 30.0156 22.5494 30.046C22.478 30.0765 22.4134 30.1211 22.3597 30.1771C22.306 30.2332 22.2642 30.2996 22.2368 30.3723C22.2094 30.4449 22.197 30.5224 22.2004 30.6C22.0095 31.0847 21.8671 31.5872 21.7754 32.1C21.7624 32.3081 21.7624 32.5169 21.7754 32.725C21.8048 32.9274 21.8465 33.1277 21.9004 33.325C22.0254 33.825 22.2254 34.225 22.4004 34.725C22.4035 34.8126 22.4243 34.8987 22.4615 34.978C22.4988 35.0574 22.5517 35.1284 22.6171 35.1868C22.6825 35.2452 22.759 35.2897 22.8421 35.3178C22.9251 35.3458 23.013 35.3568 23.1004 35.35C23.1891 35.3437 23.2757 35.3199 23.3552 35.2799C23.4347 35.24 23.5056 35.1848 23.5636 35.1174C23.6217 35.0501 23.6659 34.9719 23.6937 34.8874C23.7214 34.8028 23.7322 34.7137 23.7254 34.625C23.7254 34.125 23.9504 33.675 24.0004 33.175C24.0265 32.9675 24.0265 32.7575 24.0004 32.55C24.0245 32.3507 24.0245 32.1493 24.0004 31.95C23.8504 31.45 23.6254 31.075 23.4504 30.575C23.4517 30.4903 23.4343 30.4063 23.3993 30.3291C23.3644 30.2519 23.3128 30.1834 23.2483 30.1285C23.1838 30.0736 23.108 30.0335 23.0262 30.0113C22.9445 29.9891 22.8588 29.9852 22.7754 30Z" fill="black"/>
<path fill-rule="evenodd" clip-rule="evenodd" d="M17.2252 8.20013C17.2591 7.51854 17.3511 6.84109 17.5002 6.17513C17.8502 4.17513 17.8502 4.20013 19.4752 3.67513C24.1252 2.12513 30.4752 3.27513 37.3502 2.95013C39.1502 2.95013 43.2252 2.57513 44.4502 3.95013C45.0502 4.65013 44.4502 8.17513 44.6502 9.27513C44.685 9.47869 44.7906 9.66339 44.9485 9.79656C45.1063 9.92972 45.3062 10.0028 45.5127 10.0028C45.7192 10.0028 45.9191 9.92972 46.0769 9.79656C46.2348 9.66339 46.3404 9.47869 46.3752 9.27513C46.3002 5.00013 49.5252 0.225133 37.2502 0.225133C34.0752 0.275133 23.9502 -0.974867 18.1502 2.00013C17.4497 2.26056 16.8509 2.7384 16.4415 3.36369C16.0321 3.98899 15.8337 4.72891 15.8752 5.47513C15.7597 6.39564 15.7013 7.32241 15.7002 8.25013C15.738 8.42804 15.8373 8.58697 15.9805 8.6991C16.1237 8.81122 16.3018 8.86939 16.4836 8.86343C16.6654 8.85747 16.8393 8.78776 16.9749 8.66649C17.1105 8.54523 17.1991 8.38014 17.2252 8.20013Z" fill="black"/>
<path fill-rule="evenodd" clip-rule="evenodd" d="M44.1004 53.2501C44.0958 53.9204 44.0372 54.5892 43.9254 55.2501C43.4504 56.1751 40.2754 56.9001 39.2254 57.0501C37.5754 57.2751 28.8254 57.0501 25.3754 57.0501C23.3504 57.2251 19.4504 57.4751 18.1754 55.8501C17.8299 55.0293 17.6842 54.1382 17.7504 53.2501C17.8754 48.5001 15.6504 48.8501 15.8754 53.2501C16.1004 57.6501 16.8504 60.0001 25.5004 59.8501C31.0254 59.6001 38.5754 61.1251 43.9504 57.8501C45.7754 56.7251 46.0754 55.5501 46.1254 53.2501C46.1254 49.1501 43.7504 48.1751 44.1004 53.2501Z" fill="black"/>
<path fill-rule="evenodd" clip-rule="evenodd" d="M52.5004 38.775C52.5004 13.325 52.7004 17.225 51.9504 14.9C51.2004 12.575 50.0004 11.75 46.5754 11.35C42.5004 10.9 35.0004 11.225 21.4004 10.875C19.0142 11.0731 16.6179 11.1232 14.2254 11.025C3.87544 10 7.97544 24.325 7.95044 39.05C7.95044 45.725 9.47544 48.425 16.0254 48.525C41.5004 47.4 51.0254 51.675 52.6504 43.975C52.88 42.2449 52.8294 40.489 52.5004 38.775ZM50.2504 42.75C50.0504 44.55 49.2754 45.75 46.5754 45.975C45.0542 45.9642 43.5349 45.864 42.0254 45.675H15.2504C11.1754 45.675 10.8254 43.175 10.7754 39.025C10.7754 32.725 9.57544 24.525 10.0504 17.5C10.2504 14.6 11.1254 12.875 14.0254 13.125C16.5297 13.1707 19.0345 13.0622 21.5254 12.8C25.2254 12.8 44.5254 12.625 47.2754 13.2C51.5004 14.1 50.4254 17.5 50.1504 30V38.825C50.3237 40.126 50.3572 41.4418 50.2504 42.75Z" fill="black"/>
</svg>
