<svg width="60" height="60" viewBox="0 0 60 60" fill="none" xmlns="http://www.w3.org/2000/svg">
<g clip-path="url(#clip0_165_7460)">
<path fill-rule="evenodd" clip-rule="evenodd" d="M23.2748 34.4751C24.9248 32.9001 26.6248 31.2751 28.2748 29.7501C29.9789 27.9828 31.7818 26.3135 33.6748 24.7501C34.4498 23.6001 32.1248 23.6501 30.1998 24.7501C29.3317 25.2912 28.4968 25.8839 27.6998 26.5251C26.5498 27.4001 25.3998 28.3751 24.2998 29.4001C23.1998 30.4251 22.1248 31.5001 21.1498 32.5751C19.59 34.2684 18.2001 36.1106 16.9998 38.0751C16.5248 39.2251 17.8748 39.4251 19.4998 38.2751C20.6248 37.0501 21.8998 35.8001 23.2748 34.4751Z" fill="black"/>
<path fill-rule="evenodd" clip-rule="evenodd" d="M45.6252 30.5999C46.7502 29.4249 48.0002 28.2999 49.2002 27.1499C49.9688 26.548 50.5783 25.7669 50.9752 24.8749C50.2502 23.7749 49.4752 22.7999 46.1502 26.0499C45.4711 26.716 44.8364 27.4259 44.2502 28.1749C43.0409 29.5325 42.0461 31.0669 41.3002 32.7249C40.5002 34.1749 42.6002 33.7499 43.8002 32.7249C44.3678 31.9826 44.9771 31.2731 45.6252 30.5999Z" fill="black"/>
<path fill-rule="evenodd" clip-rule="evenodd" d="M59.3499 43.65L58.5749 38.65C58.5414 37.534 58.3735 36.426 58.0749 35.35C57.8567 34.8636 57.5286 34.4344 57.1165 34.096C56.7045 33.7577 56.2196 33.5195 55.6999 33.4C55.04 33.2738 54.3714 33.1986 53.6999 33.175H51.0249L46.0249 33.85C44.8499 33.85 36.9749 35.125 35.1749 35.575L23.1749 38.525C17.4999 40 15.8499 40 14.9999 41.3C14.9266 41.416 14.8877 41.5504 14.8877 41.6875C14.8877 41.8247 14.9266 41.9591 14.9999 42.075C14.9124 42.2915 14.9124 42.5336 14.9999 42.75L17.0749 54.35C17.2347 55.4726 17.4685 56.5834 17.7749 57.675C17.988 58.2999 18.3582 58.8595 18.8499 59.3C19.3871 59.7395 20.0561 59.986 20.7499 60C21.832 59.9571 22.9018 59.7549 23.9249 59.4L37.1749 56.625C38.6999 56.25 40.2249 55.95 41.7499 55.675C45.3999 55.025 49.0749 54.55 52.7249 53.9C53.4249 53.9 55.0999 53.725 56.3749 53.475C57.1604 53.3392 57.8946 52.9937 58.4999 52.475C59.2639 51.6633 59.7233 50.6121 59.7999 49.5C59.9248 47.5386 59.7733 45.5693 59.3499 43.65ZM56.4749 50.425C56.2749 50.625 55.7999 50.625 55.3249 50.725C54.1499 50.9 52.8249 50.95 52.1999 51.075C51.5749 51.2 50.3999 51.375 49.4999 51.525C49.5497 50.5757 49.5497 49.6244 49.4999 48.675C49.4826 48.1284 49.4157 47.5845 49.2999 47.05C49.2052 46.5135 49.063 45.9864 48.8749 45.475C48.3951 44.2851 47.783 43.153 47.0499 42.1C46.9676 41.9167 46.8173 41.7726 46.6308 41.698C46.4442 41.6233 46.236 41.6241 46.0499 41.7C45.957 41.7382 45.8727 41.7946 45.802 41.8659C45.7312 41.9373 45.6756 42.0221 45.6383 42.1154C45.601 42.2086 45.5828 42.3085 45.5848 42.4089C45.5868 42.5093 45.6089 42.6083 45.6499 42.7C45.9499 43.925 46.0249 45.05 46.1999 46.175C46.1999 46.675 46.3749 47.15 46.4749 47.625C46.5749 48.1 46.6999 48.6 46.8249 49.1C47.0499 50 47.3249 50.925 47.5499 51.875C45.4499 52.225 43.3249 52.55 41.2249 52.975C39.6499 53.3 38.0749 53.65 36.4999 54.1L33.8249 54.75C33.8257 54.1137 33.7756 53.4784 33.6749 52.85C33.623 52.358 33.5225 51.8723 33.3749 51.4C33.2535 50.9265 33.086 50.466 32.8749 50.025C32.3503 49.0056 31.7486 48.0278 31.0749 47.1C31.0455 46.9986 30.9949 46.9045 30.9265 46.824C30.8581 46.7434 30.7735 46.6783 30.6782 46.6327C30.5829 46.5871 30.479 46.5622 30.3734 46.5596C30.2678 46.5569 30.1628 46.5766 30.0654 46.6174C29.9679 46.6582 29.8802 46.719 29.8079 46.7961C29.7356 46.8731 29.6804 46.9645 29.6459 47.0644C29.6114 47.1643 29.5983 47.2703 29.6077 47.3755C29.617 47.4807 29.6484 47.5828 29.6999 47.675C29.9749 48.95 30.0749 50.175 30.3749 51.35C30.5386 52.0572 30.7559 52.7509 31.0249 53.425C31.2249 54.05 31.4749 54.65 31.6999 55.25L23.2999 57.3C22.6858 57.5185 22.0598 57.7021 21.4249 57.85C21.2311 57.9319 21.0228 57.974 20.8124 57.974C20.602 57.974 20.3938 57.9319 20.1999 57.85C19.8982 57.5588 19.6895 57.1847 19.5999 56.775C19.3249 55.85 19.1999 54.775 19.0249 54.075L16.6749 42.9C18.9104 41.8353 21.2471 40.9977 23.6499 40.4C27.8249 39.3 32.3249 38.475 35.5499 37.75C37.2999 37.375 39.0249 37.05 40.7749 36.825C42.5249 36.6 44.2749 36.45 46.0499 36.375L51.0499 35.825L54.8999 36.1C55.0264 36.1275 55.1455 36.1819 55.2491 36.2596C55.3526 36.3372 55.4382 36.4363 55.4999 36.55C55.6741 37.3718 55.758 38.2101 55.7499 39.05L56.4999 44.05C56.79 45.4906 56.9407 46.9557 56.9499 48.425C57.0459 49.1276 56.8766 49.8407 56.4749 50.425Z" fill="black"/>
<path fill-rule="evenodd" clip-rule="evenodd" d="M55.1501 22.5C56.1796 21.4938 56.8699 20.1918 57.1251 18.775C57.4088 16.9896 57.5343 15.1825 57.5001 13.375C57.5001 10.675 58.4001 6.925 57.3501 4.4C57.0669 3.63254 56.5996 2.94629 55.9894 2.40145C55.3792 1.85661 54.6446 1.46982 53.8501 1.275L50.6001 0.625L46.5001 0.175L40.0001 0C37.8501 0 35.7001 0 33.5501 0.225C30.3501 0.425 27.1501 0.725 23.9501 1.025L7.32509 2.2L2.22509 2.5C2.03432 2.51924 1.85515 2.60061 1.71513 2.7316C1.57511 2.86258 1.48199 3.03594 1.45009 3.225C1.36876 3.13551 1.26762 3.06629 1.15475 3.02288C1.04189 2.97947 0.920427 2.96307 0.80009 2.975C0.603397 3.00006 0.423792 3.09956 0.298231 3.25302C0.172671 3.40649 0.110707 3.60224 0.12509 3.8C0.27509 5.2 0.35009 6.625 0.40009 8.025V18.025C0.338174 19.5212 0.421901 21.02 0.65009 22.5C0.760229 23.2837 1.08954 24.0203 1.60009 24.625C2.07819 25.0687 2.6644 25.379 3.30009 25.525C4.04979 25.6705 4.81142 25.7458 5.57509 25.75H9.05009L13.0251 25.6H14.1751C16.2001 25.6 18.2001 25.325 20.2001 25.075C48.3751 21.45 52.5001 24.775 55.1501 22.5ZM8.97509 23.475H5.62509C5.09235 23.5107 4.55783 23.5107 4.02509 23.475C3.65977 23.4625 3.30858 23.3308 3.02509 23.1C2.68811 22.6247 2.50488 22.0576 2.50009 21.475C2.27509 20.2 2.32509 18.725 2.27509 18C2.15009 14.675 2.27509 11.325 2.00009 8C2.00009 6.675 1.82509 5.325 1.67509 4C1.76626 4.0905 1.87624 4.15982 1.99722 4.20302C2.1182 4.24623 2.24721 4.26227 2.37509 4.25L7.50009 4L10.6501 3.85C10.9266 4.98423 11.1188 6.13738 11.2251 7.3C11.2251 8.45 11.2251 9.575 11.3751 10.7C11.5251 11.825 11.3751 13 11.3751 14.125C11.3751 17.2 11.6501 20.25 11.9501 23.275L8.97509 23.475ZM20.0001 22.5C18.0751 22.775 16.1251 23.025 14.1751 23.15H13.8751C13.8751 21.025 14.1501 18.9 14.2251 16.75C14.3502 14.9689 14.3502 13.1811 14.2251 11.4C13.9713 8.76779 13.3223 6.18884 12.3001 3.75L23.2751 3.2V7.025C23.2751 8.35 23.2751 9.025 23.4251 10.025C23.5751 11.775 23.8501 13.5 24.1251 15.175C24.1249 15.2877 24.1478 15.3992 24.1923 15.5027C24.2369 15.6062 24.3021 15.6995 24.3841 15.7768C24.4661 15.8541 24.5631 15.9138 24.669 15.9522C24.7749 15.9905 24.8876 16.0068 25.0001 16C25.1304 16.0088 25.2611 15.9884 25.3825 15.9401C25.5039 15.8919 25.613 15.8171 25.7017 15.7212C25.7904 15.6253 25.8565 15.5107 25.8952 15.3859C25.9338 15.2611 25.9441 15.1293 25.9251 15C25.9251 13.475 26.2751 11.95 26.3251 10.375C26.4008 9.31802 26.4008 8.25698 26.3251 7.2C26.0671 5.78065 25.6215 4.4019 25.0001 3.1C27.9251 2.9 30.8251 2.675 33.7251 2.575H34.0251C34.0251 3.25 33.9001 3.9 33.8751 4.6C33.8501 5.3 33.8751 5.325 33.8751 5.675C33.8751 6.025 33.8751 6.4 34.0001 6.775C34.1501 7.65 34.3501 8.5 34.5001 9.275C34.4786 9.40056 34.4849 9.52929 34.5183 9.6522C34.5518 9.7751 34.6117 9.88923 34.6938 9.98659C34.7759 10.0839 34.8783 10.1622 34.9939 10.2159C35.1094 10.2696 35.2352 10.2974 35.3626 10.2974C35.49 10.2974 35.6158 10.2696 35.7313 10.2159C35.8468 10.1622 35.9492 10.0839 36.0314 9.98659C36.1135 9.88923 36.1734 9.7751 36.2069 9.6522C36.2403 9.52929 36.2465 9.40056 36.2251 9.275C36.4001 8.375 36.6251 7.5 36.7251 6.575C36.7625 6.17588 36.7625 5.77412 36.7251 5.375C36.7036 4.97049 36.645 4.56881 36.5501 4.175C36.4223 3.59993 36.2381 3.03887 36.0001 2.5H40.1001L44.7001 2.725C44.7001 4.25 44.5001 5.8 44.4251 7.4V10.825C44.4396 12.5527 44.3645 14.28 44.2001 16C44.1548 16.2217 44.1973 16.4524 44.3185 16.6435C44.4397 16.8346 44.6302 16.9714 44.8501 17.025C45.0718 17.0702 45.3025 17.0278 45.4936 16.9066C45.6847 16.7854 45.8215 16.5949 45.8751 16.375C46.4497 14.692 46.8681 12.9597 47.1251 11.2C47.2496 10.4474 47.3248 9.68743 47.3501 8.925V6.65C47.2127 5.36279 46.9956 4.08533 46.7001 2.825L50.3001 3.275L53.1751 3.9C53.7203 4.06121 54.2014 4.38891 54.5511 4.8372C54.9008 5.2855 55.1015 5.83195 55.1251 6.4C55.2164 8.7316 55.0908 11.0666 54.7501 13.375C54.7838 14.9732 54.6751 16.5712 54.4251 18.15C54.297 18.9801 53.9123 19.7494 53.3251 20.35H51.5001L44.6751 20.475C41.8001 20.675 38.9251 20.325 36.0501 20.475C35.3001 20.475 34.5251 20.475 33.7751 20.6C29.0251 20.85 24.4501 21.775 20.0001 22.5Z" fill="black"/>
</g>
<defs>
<clipPath id="clip0_165_7460">
<rect width="60" height="60" fill="white"/>
</clipPath>
</defs>
</svg>
