<svg width="60" height="60" viewBox="0 0 60 60" fill="none" xmlns="http://www.w3.org/2000/svg">
<g clip-path="url(#clip0_161_6934)">
<path fill-rule="evenodd" clip-rule="evenodd" d="M34.7007 25C33.8007 24.225 33.1757 25.8 32.4757 26.275C26.1257 32.825 22.1007 36.95 21.9507 38.175C21.3257 43.75 20.9257 46.325 21.7257 47.175C23.2757 48.825 29.4507 46.95 30.7507 46.15C36.4377 40.4752 41.741 34.4285 46.6257 28.05C50.3757 22.225 43.4257 17.425 39.3007 19.625C38.6257 20.0288 38.0041 20.516 37.4507 21.075C37.3683 21.1342 37.2988 21.2096 37.2463 21.2964C37.1939 21.3833 37.1596 21.4799 37.1456 21.5804C37.1316 21.6809 37.1381 21.7832 37.1648 21.8811C37.1914 21.979 37.2377 22.0705 37.3007 22.15C37.9007 22.95 38.5757 21.975 39.8007 21.5C42.0257 20.65 45.1007 23.5 45.0757 24.825C45.1343 26.2532 44.6421 27.6494 43.7007 28.725C42.1007 27.275 38.1007 24.1 37.0757 23.125C36.9072 22.9987 36.6988 22.9373 36.4887 22.9522C36.2786 22.9672 36.0809 23.0574 35.932 23.2063C35.7831 23.3552 35.6928 23.5529 35.6779 23.763C35.663 23.9731 35.7243 24.1815 35.8507 24.35C36.8257 25.35 40.5507 28.6 42.1507 30.175C41.3007 31.425 41.7507 30.8 32.0257 40.85C30.951 38.5306 28.9999 36.7324 26.6007 35.85C34.3757 26.025 35.7007 25.85 34.7007 25ZM28.7257 40.625C29.4007 41.2 30.0507 41.7 30.6507 42.25C30.1929 42.7503 29.7088 43.2259 29.2007 43.675C27.6204 44.3992 25.9307 44.8554 24.2007 45.025C24.2007 37.4 24.4007 38.7 25.0757 37.775C25.7507 36.85 24.8257 37.5 28.7257 40.6V40.625Z" fill="black"/>
<path fill-rule="evenodd" clip-rule="evenodd" d="M55.9255 14.175C55.9257 14.0754 55.9054 13.9769 55.8659 13.8855C55.8264 13.7941 55.7685 13.7118 55.6958 13.6438C55.6231 13.5758 55.5371 13.5235 55.4433 13.4901C55.3495 13.4568 55.2498 13.4431 55.1505 13.45C54.9358 13.4431 54.7269 13.5202 54.5681 13.6649C54.4094 13.8096 54.3134 14.0106 54.3005 14.225C54.3005 49.975 54.4255 45.675 53.9505 47.975C53.6255 49.65 47.7505 50.25 45.6505 50.95C38.8746 53.072 31.9793 54.7917 25.0005 56.1C19.3005 57.3 12.9755 58.025 7.15048 55.15C6.75402 54.5799 6.51278 53.9165 6.45048 53.225C5.00048 45.675 6.10048 22.5 6.72548 17.325C6.75532 17.0962 6.69306 16.865 6.55241 16.6821C6.41176 16.4993 6.20423 16.3798 5.97548 16.35C5.74673 16.3201 5.5155 16.3824 5.33265 16.523C5.1498 16.6637 5.03032 16.8712 5.00048 17.1C4.25048 22.625 2.35048 47.25 4.15048 54.575C4.22579 55.1537 4.41745 55.7112 4.7139 56.2139C5.01036 56.7165 5.40548 57.154 5.87548 57.5C9.8103 59.4767 14.2103 60.3411 18.6005 60C28.1074 58.7719 37.4751 56.6372 46.5755 53.625C48.9593 53.0539 51.3124 52.3613 53.6255 51.55C56.3005 50.275 56.6505 48.75 56.6005 45.9C56.5505 44.05 56.3505 50.15 55.9255 14.175Z" fill="black"/>
<path fill-rule="evenodd" clip-rule="evenodd" d="M44.5505 5.30005C34.8005 5.47505 14.7005 8.52505 15.8755 10.575C16.1505 11.15 16.0005 11.05 25.1255 10.125C33.6255 9.25005 42.0005 7.20005 44.6255 7.02505C44.8285 6.98242 45.0097 6.86911 45.1368 6.70531C45.264 6.54152 45.3288 6.33789 45.3198 6.13073C45.3108 5.92357 45.2285 5.72634 45.0876 5.5742C44.9467 5.42206 44.7564 5.32491 44.5505 5.30005Z" fill="black"/>
<path fill-rule="evenodd" clip-rule="evenodd" d="M17 20.4001C16.725 17.1751 15.325 18.6001 15.2 20.4001C14.8 23.9501 14.225 29.4501 14.1 30.9501C13.663 36.2298 13.5044 41.5288 13.625 46.8251C13.875 55.7001 13.9 56.0501 14.75 56.3001C15.6 56.5501 16.25 56.3001 16 46.8501C16.15 43.6001 16.575 38.8251 16.8 33.3751C16.825 32.3001 16.95 24.8251 17 20.4001Z" fill="black"/>
<path fill-rule="evenodd" clip-rule="evenodd" d="M54.4504 10.3C51.9504 9.7 45.1754 10.925 41.9504 11.175C33.6004 11.775 24.4504 13.675 16.1504 14.4C14.2004 14.6 8.90044 13 8.65044 11.55C7.95044 5 34.2754 1.3 42.6504 2.075C45.7004 2.35 46.8254 5.2 50.5254 8.775C50.596 8.84559 50.6798 8.90158 50.772 8.93978C50.8643 8.97798 50.9631 8.99764 51.0629 8.99764C51.1628 8.99764 51.2616 8.97798 51.3538 8.93978C51.4461 8.90158 51.5299 8.84559 51.6004 8.775C51.671 8.70441 51.727 8.62062 51.7652 8.52839C51.8034 8.43617 51.8231 8.33732 51.8231 8.2375C51.8231 8.13768 51.8034 8.03883 51.7652 7.94661C51.727 7.85438 51.671 7.77059 51.6004 7.7C49.1004 5.2 47.9004 3.1 46.3504 1.775C44.1754 0 42.1504 0 37.3004 0C29.5004 0 14.7004 1.475 8.65044 6.35C5.00044 9.35 4.60044 13.625 9.70044 15.85C17.6504 19.3 22.8754 15.225 42.2004 13.35C45.2004 13.05 52.0254 11.65 54.0504 12.1C54.1686 12.1263 54.2908 12.129 54.4101 12.108C54.5293 12.0871 54.6433 12.0428 54.7454 11.9778C54.8476 11.9128 54.9359 11.8283 55.0054 11.7292C55.0749 11.63 55.1242 11.5182 55.1504 11.4C55.1767 11.2818 55.1794 11.1596 55.1585 11.0404C55.1375 10.9211 55.0933 10.8072 55.0283 10.705C54.9633 10.6029 54.8788 10.5145 54.7796 10.445C54.6805 10.3756 54.5686 10.3263 54.4504 10.3Z" fill="black"/>
</g>
<defs>
<clipPath id="clip0_161_6934">
<rect width="60" height="60" fill="white"/>
</clipPath>
</defs>
</svg>
