<svg width="60" height="60" viewBox="0 0 60 60" fill="none" xmlns="http://www.w3.org/2000/svg">
<g clip-path="url(#clip0_118_3427)">
<path d="M56.4004 45.9749C55.8253 43.8603 54.9317 41.8456 53.7504 39.9999C53.1372 38.9939 52.3885 38.0769 51.5254 37.2749C51.3121 37.1155 51.0864 36.9734 50.8504 36.8499C51.0754 34.1499 51.3254 32.0499 51.4004 30.2749C51.5162 29.1028 51.5162 27.9221 51.4004 26.7499C50.8254 23.0999 50.3254 19.3749 49.4254 15.7249C48.8185 13.2441 47.9816 10.8253 46.9254 8.4999L45.0004 4.7499L43.1754 2.0749C42.7711 1.34147 42.1518 0.749452 41.401 0.378488C40.6501 0.00752264 39.8036 -0.124596 38.9754 -9.61125e-05C38.2054 0.245967 37.5169 0.697139 36.984 1.30497C36.451 1.9128 36.0937 2.65432 35.9504 3.4499C35.5795 4.92804 35.4279 6.45267 35.5004 7.9749C35.5141 8.06606 35.5141 8.15875 35.5004 8.2499C35.0595 7.74236 34.5922 7.25836 34.1004 6.7999C33.0344 5.82192 31.7734 5.08067 30.4004 4.6249C29.562 4.40676 28.682 4.4047 27.8426 4.61893C27.0032 4.83315 26.2318 5.25667 25.6004 5.8499C25.0223 6.47092 24.604 7.22339 24.3819 8.04228C24.1597 8.86117 24.1404 9.72184 24.3254 10.5499L25.7004 15.5499L24.3754 14.4499C23.1201 13.5051 21.7295 12.755 20.2504 12.2249C19.5312 11.9152 18.7493 11.7787 17.9677 11.8264C17.186 11.8742 16.4266 12.1049 15.7504 12.4999C15.0714 12.9925 14.5786 13.6999 14.3517 14.5076C14.1249 15.3152 14.1773 16.1758 14.5004 16.9499L15.6004 19.9999C16.0997 21.027 16.6504 22.0282 17.2504 22.9999C17.9504 24.1749 18.7004 25.4999 19.2504 26.2999L18.6254 25.6999C16.9554 24.2063 15.128 22.8986 13.1754 21.7999C11.7773 21.0651 10.2775 20.5427 8.72542 20.2499C7.9414 20.0622 7.12447 20.0593 6.33916 20.2415C5.55384 20.4238 4.82165 20.7861 4.20042 21.2999C3.5426 21.9384 3.12405 22.7834 3.01483 23.6936C2.9056 24.6038 3.11234 25.5239 3.60042 26.2999L5.15042 29.1249L7.50042 32.4999C9.11434 34.5304 10.9322 36.3902 12.9254 38.0499C15.8254 40.5499 19.0254 42.6249 22.1004 44.7499C23.923 45.9547 25.888 46.9288 27.9504 47.6499C29.7886 48.2918 31.6679 48.8096 33.5754 49.1999C34.509 51.4289 35.8388 53.4702 37.5004 55.2249C39.235 57.2061 41.4464 58.712 43.9254 59.5999C46.5079 60.3032 49.2592 60.0272 51.6504 58.8249C52.9002 58.2496 54.0089 57.4076 54.8986 56.3581C55.7883 55.3086 56.4374 54.077 56.8004 52.7499C57.203 50.4916 57.066 48.1701 56.4004 45.9749ZM38.7254 4.2499C38.9254 3.5499 39.1754 2.9999 39.6254 2.8999C40.0754 2.7999 40.4004 3.1749 40.8504 3.7749L42.4504 6.2749L44.3254 9.6999C45.3561 11.8373 46.1928 14.0629 46.8254 16.3499C47.8504 19.8999 48.5504 23.5249 49.3254 27.0749C49.5037 28.1068 49.5874 29.1528 49.5754 30.1999C49.5754 31.8999 49.4254 33.9249 49.3004 36.4749C48.5212 36.6212 47.7755 36.9093 47.1004 37.3249L46.8254 37.5249C46.8371 37.4504 46.8371 37.3744 46.8254 37.2999L45.2754 32.4999L41.8004 22.4999C41.1754 20.4749 40.4754 18.4749 39.8754 16.4499C39.6254 15.5999 39.4004 14.7749 39.2004 13.9499C38.7192 12.0245 38.4262 10.0569 38.3254 8.0749C38.2706 6.78719 38.4054 5.49841 38.7254 4.2499ZM27.6754 7.9749C27.9677 7.72617 28.3166 7.55282 28.6913 7.47002C29.0661 7.38722 29.4555 7.39748 29.8254 7.4999C31.1522 7.7749 32.3896 8.37637 33.4254 9.2499C34.3322 9.95126 35.1694 10.7382 35.9254 11.5999C36.1254 12.5499 36.3504 13.4999 36.6004 14.4749C36.8504 15.4499 37.1004 16.2749 37.4004 17.1749C38.0754 19.1749 38.8754 21.1499 39.5754 23.1499L43.4504 33.1499L45.1504 37.9499C44.8026 38.7806 44.2526 39.5111 43.5504 40.0749C43.3504 40.1999 42.9254 40.4249 42.9004 40.3749L40.0754 36.0749C38.9754 34.1999 37.8754 32.3249 36.7504 30.4749C35.9754 29.2499 35.2004 27.9749 34.2504 26.7999C33.3004 25.6249 32.5004 23.7499 31.4504 22.2249C30.7345 21.1773 29.9755 20.1598 29.1754 19.1749L28.2754 18.1499L27.0004 10.2249C26.92 9.82327 26.9395 9.40802 27.0572 9.01569C27.1749 8.62335 27.3872 8.26595 27.6754 7.9749ZM18.8254 22.1499C18.3336 21.224 17.8913 20.2727 17.5004 19.2999L16.6754 16.4499C16.4754 15.5749 16.6754 14.9499 17.1004 14.6499C17.4461 14.4781 17.8269 14.3887 18.2129 14.3887C18.5989 14.3887 18.9797 14.4781 19.3254 14.6499C20.8241 15.2444 22.2106 16.0899 23.4254 17.1499C24.7022 18.299 25.889 19.5443 26.9754 20.8749C27.5504 21.5499 28.0754 22.2249 28.6004 22.9499C29.8754 24.6499 31.1004 26.4249 32.3504 28.1249C33.2004 29.2749 34.0254 30.4499 34.8504 31.5999C36.0754 33.3749 37.3504 35.1499 38.4504 36.9749L41.4504 41.0499C39.7525 42.2329 37.9132 43.1987 35.9754 43.9249L32.5004 40.3999C31.0754 38.7499 29.6754 37.1249 28.2004 35.5249C27.2254 34.4499 26.2504 33.3749 25.2254 32.3499C23.7237 30.4939 22.3854 28.5115 21.2254 26.4249C20.7254 25.7749 19.7004 23.8749 18.8254 22.1499ZM32.0504 47.1499C30.8799 46.8114 29.7283 46.4109 28.6004 45.9499C26.7167 45.204 24.9357 44.2211 23.3004 43.0249C20.315 40.8453 17.4209 38.5433 14.6254 36.1249C12.8283 34.5155 11.1953 32.7318 9.75042 30.7999L7.62542 27.4999L6.22542 24.9999C5.90042 24.2999 5.82542 23.7499 6.22542 23.3999C6.52391 23.2021 6.86142 23.0707 7.2151 23.0146C7.56878 22.9585 7.93038 22.9791 8.27542 23.0749C9.87389 23.3642 11.4069 23.9401 12.8004 24.7749C14.2679 25.6436 15.6565 26.6391 16.9504 27.7499C17.872 28.4537 18.7565 29.2047 19.6004 29.9999C20.9254 31.2749 22.1004 32.4999 23.5254 33.8499C24.9504 35.1999 25.5754 35.8499 26.5754 36.8749C28.0754 38.3999 29.5254 39.9749 31.0254 41.5499L34.6504 45.0749C34.8254 45.3999 32.1504 46.9749 32.0504 47.1999V47.1499ZM53.8754 52.1499C53.6246 53.085 53.1755 53.9552 52.5586 54.7015C51.9418 55.4477 51.1716 56.0526 50.3004 56.4749C48.5257 57.4791 46.4449 57.7993 44.4504 57.3749C42.3133 56.6975 40.3854 55.4839 38.8504 53.8499C37.199 52.2263 35.8899 50.2881 35.0004 48.1499C35.8752 47.2928 36.8898 46.591 38.0004 46.0749C40.5004 44.7999 42.8004 43.2499 44.8504 41.9249L48.3254 39.7249C48.8504 39.3999 49.8754 38.9249 50.1004 39.1749C50.5867 39.893 51.0212 40.6449 51.4004 41.4249C52.2319 43.1407 52.9664 44.9018 53.6004 46.6999C54.1118 48.4624 54.206 50.3197 53.8754 52.1249V52.1499Z" fill="black"/>
<path d="M48.2007 48.2999C49.7507 47.2499 51.0757 46.2999 52.5257 45.1749C53.0757 44.6499 52.2757 43.0499 51.2757 43.5499L45.0007 46.9999L42.5007 48.3749C41.6757 48.8499 40.9257 49.3749 40.0007 49.8249C38.1257 50.8749 38.3507 50.7999 37.9757 50.9999C37.0757 51.6249 37.1757 52.5249 38.2757 52.5999C40.3672 52.1497 42.3981 51.4532 44.3257 50.5249C45.6731 49.885 46.9687 49.141 48.2007 48.2999Z" fill="black"/>
</g>
<defs>
<clipPath id="clip0_118_3427">
<rect width="60" height="60" fill="white"/>
</clipPath>
</defs>
</svg>
