<svg width="60" height="60" viewBox="0 0 60 60" fill="none" xmlns="http://www.w3.org/2000/svg">
<path fill-rule="evenodd" clip-rule="evenodd" d="M53.5495 36.85C52.5978 36.0893 51.5126 35.5128 50.3495 35.15C48.9996 34.6008 47.5488 34.3436 46.0924 34.3953C44.636 34.447 43.2071 34.8065 41.8995 35.45C41.1995 33.95 40.4745 32.475 39.7745 30.975C39.2495 30 38.4245 28.65 37.8245 27.3C37.5763 26.8061 37.3835 26.2862 37.2495 25.75C37.4743 25.7652 37.6998 25.7652 37.9245 25.75L41.7745 25C41.8687 24.9884 41.9594 24.9572 42.0407 24.9082C42.122 24.8593 42.1921 24.7938 42.2463 24.7159C42.3006 24.6381 42.3378 24.5497 42.3556 24.4564C42.3734 24.3632 42.3713 24.2673 42.3495 24.175C42.3188 23.9864 42.2149 23.8177 42.0604 23.7053C41.9059 23.593 41.7134 23.5461 41.5245 23.575L37.7995 23.85H36.1995C36.0452 23.8466 35.8918 23.8738 35.7479 23.9298C35.6041 23.9858 35.4727 24.0696 35.3613 24.1764C35.2498 24.2831 35.1605 24.4109 35.0985 24.5522C35.0364 24.6935 35.0028 24.8456 34.9995 25C34.9004 25.8399 34.977 26.6912 35.2245 27.5C35.5365 28.6046 35.9551 29.6764 36.4745 30.7C33.2532 32.1141 30.1515 33.7862 27.1995 35.7C26.8245 35.2 26.4495 34.725 26.0745 34.2C25.0745 32.775 24.1245 31.325 23.2745 29.825C22.8745 29.225 22.3745 28.55 21.9995 27.875H22.2245L26.6495 27.1C26.8371 27.0695 27.007 26.9712 27.1268 26.8237C27.2467 26.6762 27.3081 26.4898 27.2995 26.3C27.2745 26.1099 27.1777 25.9366 27.0289 25.8158C26.8801 25.6949 26.6907 25.6355 26.4995 25.65H20.8495H20.0245C19.7668 25.7097 19.527 25.8297 19.3245 26C19.1509 26.1634 19.0227 26.3691 18.9525 26.597C18.8824 26.825 18.8728 27.0672 18.9245 27.3C19.0574 27.9854 19.3023 28.6442 19.6495 29.25C20.0837 30.017 20.5595 30.7597 21.0745 31.475C21.7995 32.45 22.5245 33.4 23.2995 34.325C24.0745 35.25 24.9495 36.05 25.7995 36.825C25.0995 37.325 24.3995 37.85 23.6995 38.4C22.4147 37.1352 20.8635 36.1736 19.1593 35.5853C17.4551 34.9971 15.641 34.7971 13.8495 35C11.8205 35.1741 9.86481 35.8414 8.15248 36.9438C6.44015 38.0461 5.02309 39.5501 4.02453 41.325C2.68816 43.7648 2.26282 46.6004 2.82453 49.325C3.38562 52.0046 4.7147 54.463 6.64953 56.4C7.39384 57.178 8.23388 57.8585 9.14953 58.425C10.0647 59.0216 11.0689 59.4689 12.1245 59.75C13.8919 60.1179 15.7216 60.058 17.4611 59.5753C19.2006 59.0926 20.7995 58.201 22.1245 56.975C24.8012 54.7519 26.6217 51.6676 27.2745 48.25C27.5161 46.6416 27.3084 44.9978 26.6745 43.5C26.2352 42.5468 25.672 41.6557 24.9995 40.85L25.8745 40.2L29.0745 37.7C30.1745 36.9 31.1995 36.075 32.2995 35.2C33.8995 34.05 35.5495 32.95 37.2995 31.925C38.0245 33.375 38.7245 34.85 39.4995 36.275L38.5245 36.85C36.1169 38.3755 34.3413 40.7193 33.5245 43.45C33.0756 45.3214 33.0796 47.273 33.5361 49.1426C33.9927 51.0123 34.8886 52.746 36.1495 54.2C37.3859 55.7057 38.9759 56.8819 40.7775 57.6234C42.5792 58.365 44.5364 58.649 46.4745 58.45C48.8501 58.0878 51.0709 57.0487 52.871 55.4569C54.6711 53.8652 55.9743 51.7883 56.6245 49.475C57.3974 47.2998 57.5181 44.9462 56.9718 42.7034C56.4255 40.4606 55.2361 38.4261 53.5495 36.85ZM24.4495 43.275C25.1978 44.6934 25.4529 46.3206 25.1745 47.9C24.4754 50.7386 22.8146 53.2475 20.4745 55C19.4411 55.928 18.2009 56.596 16.8573 56.9482C15.5137 57.3004 14.1054 57.3267 12.7495 57.025C11.9666 56.8017 11.2241 56.4558 10.5495 56C9.84402 55.5286 9.19038 54.9839 8.59953 54.375C7.06064 52.8267 5.98666 50.8779 5.49953 48.75C5.01401 46.6453 5.27011 44.4376 6.22453 42.5C6.98953 41.0135 8.10319 39.7345 9.47027 38.7724C10.8373 37.8102 12.4171 37.1935 14.0745 36.975C16.5183 36.5745 19.0249 37.0528 21.1495 38.325C21.0295 38.4688 20.9638 38.6502 20.9638 38.8375C20.9638 39.0248 21.0295 39.2061 21.1495 39.35L21.7495 39.95C20.4245 41.075 19.2495 42.275 17.8495 43.5L13.3495 47.625C13.2145 47.7815 13.1432 47.9831 13.1497 48.1897C13.1562 48.3964 13.2401 48.5931 13.3847 48.7408C13.5293 48.8886 13.7241 48.9767 13.9306 48.9876C14.137 48.9986 14.3401 48.9316 14.4995 48.8L19.4995 45.125C20.8745 44 22.2745 42.95 23.6495 41.9C23.9475 42.3394 24.2148 42.7988 24.4495 43.275ZM54.4495 49C53.8979 50.8213 52.8381 52.4474 51.3944 53.6874C49.9508 54.9273 48.1833 55.7296 46.2995 56C44.8025 56.1476 43.292 55.9289 41.8983 55.3627C40.5045 54.7965 39.2695 53.8998 38.2995 52.75C37.3478 51.7887 36.6185 50.6304 36.163 49.3567C35.7075 48.0829 35.5369 46.7248 35.6632 45.378C35.7896 44.0312 36.2098 42.7285 36.8942 41.5617C37.5786 40.3949 38.5106 39.3925 39.6245 38.625C39.8908 38.4519 40.1662 38.2934 40.4495 38.15C41.9495 40.9 43.5245 43.625 44.9745 46.425C45.0717 46.6199 45.24 46.77 45.4447 46.8445C45.6494 46.9189 45.8748 46.9119 46.0745 46.825C46.2695 46.7282 46.4184 46.5582 46.4886 46.3522C46.5588 46.1462 46.5448 45.9207 46.4495 45.725C45.2495 42.775 43.9495 39.825 42.6745 36.925C43.6445 36.3806 44.728 36.0701 45.839 36.018C46.9501 35.9659 48.0579 36.1737 49.0745 36.625C50.2655 36.9564 51.373 37.5357 52.3245 38.325C53.6916 39.697 54.619 41.4451 54.9886 43.3463C55.3581 45.2475 55.1531 47.2157 54.3995 49H54.4495Z" fill="black"/>
<path fill-rule="evenodd" clip-rule="evenodd" d="M6.92427 10.575C7.42342 10.6163 7.92512 10.6163 8.42427 10.575L12.0243 10.325C12.5913 10.178 13.1676 10.0694 13.7493 9.99999V10.525V12.775C13.3581 12.8023 12.9655 12.8023 12.5743 12.775H8.74927C8.07334 12.7464 7.39737 12.8309 6.74927 13.025C6.41787 13.1772 6.14419 13.4318 5.96862 13.7515C5.79306 14.0711 5.72492 14.4387 5.77427 14.8C5.9836 16.2114 6.57369 17.5392 7.48109 18.6404C8.38849 19.7416 9.57888 20.5746 10.9243 21.05C13.4058 22.1054 16.1979 22.1681 18.7243 21.225C20.0005 20.7018 21.1078 19.8367 21.9243 18.725C22.5078 17.9085 22.9787 17.0172 23.3243 16.075C24.1743 16.2083 25.0076 16.3083 25.8243 16.375H28.9493C29.9993 16.375 31.5743 16.375 32.8493 16.15C33.4709 16.0951 34.0886 16.0033 34.6993 15.875C35.8648 17.9217 37.7563 19.4563 39.9993 20.175C42.4336 21.0542 45.1086 20.9918 47.4993 20C48.607 19.4841 49.6013 18.7533 50.4243 17.85C51.281 16.9276 51.9216 15.8259 52.2993 14.625C52.4869 14.0825 52.6127 13.5207 52.6743 12.95C52.7468 12.5579 52.6851 12.1528 52.4993 11.8C52.3571 11.5707 52.1517 11.3873 51.9077 11.272C51.6638 11.1567 51.3917 11.1143 51.1243 11.15C50.4701 11.1967 49.8191 11.2802 49.1743 11.4L46.2993 11.775C45.7082 11.8125 45.1153 11.8125 44.5243 11.775H43.9493V11.675C43.9493 11.125 43.8243 10.45 43.8243 9.77499V9.29999L44.7993 9.14999C45.5993 9.14999 46.4243 9.14999 47.2993 9.02499C48.1743 8.89999 48.9493 8.82499 49.7993 8.64999C50.3003 8.54324 50.7932 8.40122 51.2743 8.22499C51.4877 8.12478 51.674 7.97488 51.8175 7.78784C51.9611 7.60079 52.0577 7.38207 52.0993 7.14999C52.1282 6.76652 52.0684 6.38154 51.9243 6.02499C51.74 5.55576 51.5141 5.10395 51.2493 4.67499C49.9225 2.48727 47.7831 0.914192 45.2993 0.299989C44.1022 -0.0261421 42.8481 -0.0854673 41.6256 0.126203C40.4031 0.337874 39.242 0.815378 38.2243 1.52499C37.3899 2.09337 36.6621 2.80422 36.0743 3.62499C35.314 4.72385 34.7005 5.91727 34.2493 7.17499C32.7618 6.86086 31.2445 6.70997 29.7243 6.72499C28.6755 6.79515 27.6319 6.92873 26.5993 7.12499C25.4493 7.34999 24.3243 7.64999 23.2243 7.92499V7.72499C22.5931 6.75238 21.8733 5.84017 21.0743 4.99999C20.5125 4.41124 19.8832 3.89096 19.1993 3.44999C17.6373 2.49153 15.8314 2.00533 13.9993 2.04999C12.1216 2.04967 10.2923 2.64487 8.77427 3.74999C8.45653 4.01392 8.15592 4.29783 7.87427 4.59999C7.59927 4.89999 7.37427 5.22499 7.12427 5.54999L6.32427 7.02499C6.05286 7.63825 5.83537 8.27399 5.67427 8.92499C5.62098 9.16816 5.63727 9.42144 5.72128 9.65578C5.80529 9.89012 5.95362 10.0961 6.14927 10.25C6.36823 10.4351 6.63875 10.5486 6.92427 10.575ZM9.14927 6.84999L10.2493 5.49999C11.3409 4.61097 12.6924 4.10194 14.0993 4.04999C15.562 3.94931 17.0222 4.27959 18.2993 4.99999C18.9134 5.27702 19.4857 5.63888 19.9993 6.07499C20.6947 6.77725 21.3381 7.52924 21.9243 8.32499C21.7254 8.37803 21.5557 8.50792 21.4525 8.68608C21.3494 8.86424 21.3212 9.07608 21.3743 9.27499C21.4273 9.4739 21.5572 9.6436 21.7354 9.74674C21.9135 9.84989 22.1254 9.87803 22.3243 9.82499C24.0243 9.82499 25.7493 9.82499 27.5243 9.69999C28.5243 9.69999 29.5243 9.52499 30.5243 9.37499C32.003 9.0825 33.497 8.87384 34.9993 8.74999C35.1877 8.76398 35.3741 8.70387 35.5189 8.58247C35.6636 8.46106 35.7552 8.28795 35.7743 8.09999C35.7993 7.98467 35.7993 7.86531 35.7743 7.74999C36.1556 6.83206 36.6244 5.953 37.1743 5.12499C37.7538 4.27305 38.5028 3.54968 39.3743 2.99999C40.1859 2.49165 41.1002 2.16968 42.0513 2.05728C43.0023 1.94488 43.9665 2.04485 44.8743 2.34999C46.6826 2.95337 48.1933 4.22271 49.0993 5.89999C49.1141 5.95738 49.1141 6.0176 49.0993 6.07499C48.4293 6.19521 47.7533 6.27867 47.0743 6.32499H44.8493H43.0243C42.7698 6.33742 42.5218 6.40952 42.3003 6.53546C42.0788 6.6614 41.8901 6.83765 41.7493 7.04999C41.386 7.72124 41.1728 8.46331 41.1243 9.22499C41.0987 10.1268 41.1405 11.0294 41.2493 11.925C41.2799 12.3977 41.3552 12.8665 41.4743 13.325C41.565 13.611 41.7501 13.8578 41.9993 14.025C42.3145 14.2407 42.6727 14.3857 43.0493 14.45H44.4743C45.1984 14.4999 45.9251 14.4999 46.6493 14.45C47.6493 14.45 48.6243 14.125 49.6493 13.975H49.9993C49.7446 14.7711 49.337 15.51 48.7993 16.15C48.2059 16.847 47.4846 17.4241 46.6743 17.85C44.8041 18.7534 42.6633 18.9229 40.6743 18.325C38.8851 17.848 37.3357 16.726 36.3243 15.175C36.3243 15.175 36.3243 14.975 36.3243 14.85C36.2876 14.6346 36.1669 14.4426 35.9888 14.3161C35.8107 14.1895 35.5897 14.1388 35.3743 14.175C34.7665 14.2125 34.157 14.2125 33.5493 14.175C32.0493 14.175 30.6493 13.875 29.0743 13.725H25.9493C24.3743 13.85 22.8493 14.075 21.2743 14.275C21.1695 14.2553 21.0618 14.2589 20.9586 14.2856C20.8554 14.3123 20.7594 14.3614 20.6774 14.4295C20.5954 14.4975 20.5293 14.5828 20.484 14.6792C20.4387 14.7757 20.4152 14.8809 20.4152 14.9875C20.4152 15.0941 20.4387 15.1993 20.484 15.2958C20.5293 15.3922 20.5954 15.4775 20.6774 15.5455C20.7594 15.6136 20.8554 15.6627 20.9586 15.6894C21.0618 15.7161 21.1695 15.7197 21.2743 15.7H21.6993C21.4014 16.3316 21.0323 16.9271 20.5993 17.475C19.9478 18.294 19.0826 18.917 18.0993 19.275C16.0499 19.9132 13.835 19.7524 11.8993 18.825C11.1176 18.5557 10.4028 18.1218 9.80331 17.5525C9.20381 16.9831 8.73353 16.2917 8.42427 15.525H8.77427C9.74927 15.525 11.7243 15.675 13.3243 15.525C14.1836 15.5119 15.0323 15.3337 15.8243 15C16.0532 14.8797 16.2458 14.7003 16.382 14.4805C16.5183 14.2608 16.5933 14.0085 16.5993 13.75V12.8C16.6521 11.8174 16.6521 10.8326 16.5993 9.84999C16.5356 9.21302 16.312 8.60246 15.9493 8.07499C15.7765 7.88384 15.5637 7.73319 15.326 7.6338C15.0884 7.5344 14.8317 7.48871 14.5743 7.49999C13.7414 7.45994 12.9071 7.45994 12.0743 7.49999L8.79927 7.79999L9.14927 6.84999Z" fill="black"/>
</svg>
