<svg width="60" height="60" viewBox="0 0 60 60" fill="none" xmlns="http://www.w3.org/2000/svg">
<g clip-path="url(#clip0_165_7407)">
<path fill-rule="evenodd" clip-rule="evenodd" d="M39 32.075C39.9142 32.2941 40.8709 32.2588 41.7665 31.9729C42.662 31.687 43.4622 31.1614 44.0804 30.4531C44.6985 29.7448 45.111 28.8808 45.2731 27.9548C45.4352 27.0288 45.3408 26.0761 45 25.2C43.9947 23.0953 42.5845 21.2093 40.85 19.65C40.7095 19.4878 40.5128 19.3849 40.2995 19.3617C40.0862 19.3385 39.8721 19.3968 39.7 19.525H39.525C39.4259 19.5072 39.3242 19.5103 39.2264 19.534C39.1286 19.5577 39.0367 19.6016 38.9568 19.6627C38.8768 19.7239 38.8105 19.801 38.762 19.8892C38.7134 19.9774 38.6838 20.0747 38.675 20.175C38.25 22.25 36.175 24.15 35.55 26.225C35.2864 26.9265 35.1838 27.6784 35.25 28.425C35.3864 29.3612 35.8279 30.2262 36.5058 30.8861C37.1838 31.546 38.0604 31.9639 39 32.075ZM37.975 26.125C38.525 24.55 39.525 22.95 39.9 21.35C41.0969 22.6645 42.0229 24.2022 42.625 25.875C42.7469 26.375 42.7324 26.8987 42.5829 27.3912C42.4333 27.8837 42.1543 28.3271 41.775 28.675C41.4586 28.944 41.0829 29.1342 40.6787 29.2298C40.2745 29.3254 39.8534 29.3238 39.45 29.225C38.7 29.225 37.925 28.825 37.8 28.05C37.6969 27.4037 37.7571 26.742 37.975 26.125Z" fill="black"/>
<path fill-rule="evenodd" clip-rule="evenodd" d="M58.8004 46.8749C57.932 46.4386 57.1849 45.7945 56.6254 44.9999C55.4831 43.6305 54.0812 42.5004 52.5004 41.6749C50.7151 40.8047 48.7971 40.2386 46.8254 39.9999C44.8501 39.4136 42.9593 38.5732 41.2004 37.4999C40.1462 37.0718 39.0122 36.8757 37.8754 36.9249C37.1163 36.9689 36.3773 37.1853 35.7145 37.5579C35.0516 37.9305 34.4825 38.4493 34.0504 39.0749C33.5958 39.6875 33.3006 40.4035 33.1915 41.1584C33.0824 41.9134 33.1628 42.6837 33.4254 43.3999C33.8931 44.5087 34.6019 45.4994 35.5004 46.2999L36.0504 46.6999C32.4504 45.6249 28.9754 43.7749 25.5504 42.6249C24.1274 42.1179 22.6638 41.7332 21.1754 41.4749C20.0419 41.3034 18.8853 41.3629 17.7754 41.6499C16.8032 41.9214 15.9101 42.4217 15.1708 43.1088C14.4314 43.796 13.8672 44.6502 13.5254 45.5999C13.2081 46.624 13.2103 47.7205 13.5319 48.7433C13.8535 49.7661 14.4791 50.6666 15.3254 51.3249C16.1869 52.0682 17.1159 52.7294 18.1004 53.2999C19.0632 53.8929 20.0656 54.4191 21.1004 54.8749C23.2785 55.8014 25.5623 56.4563 27.9004 56.8249C36.7004 58.2749 46.0004 56.3749 54.5004 59.7999C54.605 59.8492 54.7185 59.8765 54.834 59.8804C54.9495 59.8843 55.0646 59.8646 55.1723 59.8225C55.2799 59.7803 55.3778 59.7167 55.46 59.6355C55.5422 59.5542 55.607 59.457 55.6504 59.3499C55.7351 59.1406 55.7355 58.9066 55.6516 58.6969C55.5678 58.4872 55.4061 58.3181 55.2004 58.2249C53.0713 57.2902 50.8391 56.6105 48.5504 56.1999C44.0606 55.5398 39.5364 55.1392 35.0004 54.9999C30.6416 54.8709 26.3409 53.965 22.3004 52.3249C21.3896 51.9121 20.5047 51.4446 19.6504 50.9249C18.7751 50.4226 17.9393 49.8543 17.1504 49.2249C16.744 48.9247 16.438 48.5084 16.2729 48.0309C16.1078 47.5534 16.0912 47.037 16.2254 46.5499C16.4033 46.0155 16.7075 45.5318 17.1123 45.1401C17.5171 44.7484 18.0104 44.4602 18.5504 44.2999C19.2935 44.0674 20.0783 43.9992 20.8504 44.0999C22.2079 44.2544 23.5474 44.5391 24.8504 44.9499C28.3254 45.8999 31.9254 47.5749 35.5504 48.4749C41.7754 50.0249 41.3254 48.4749 41.3254 48.4749C41.3255 48.2736 41.2473 48.0802 41.1073 47.9355C40.9673 47.7909 40.7766 47.7064 40.5754 47.6999C39.2607 46.9523 38.0432 46.0455 36.9504 44.9999C36.3381 44.3795 35.8763 43.6268 35.6004 42.7999C35.5149 42.4531 35.5181 42.0904 35.6099 41.7452C35.7017 41.4 35.879 41.0835 36.1254 40.8249C36.3441 40.543 36.6246 40.3152 36.9454 40.1592C37.2662 40.0031 37.6187 39.9229 37.9754 39.9249C38.7178 39.928 39.4509 40.0899 40.1254 40.3999C42.1528 41.5014 44.3117 42.3414 46.5504 42.8999C48.675 42.9173 50.7685 43.4128 52.6754 44.3499C55.4504 45.8249 56.3504 47.8249 58.3254 48.3749C58.521 48.4313 58.7308 48.4109 58.9119 48.318C59.0931 48.2251 59.232 48.0667 59.3004 47.8749C59.3393 47.7768 59.357 47.6716 59.3525 47.5662C59.3479 47.4608 59.3212 47.3575 59.274 47.2631C59.2268 47.1687 59.1602 47.0854 59.0786 47.0185C58.997 46.9516 58.9022 46.9027 58.8004 46.8749Z" fill="black"/>
<path fill-rule="evenodd" clip-rule="evenodd" d="M19.4754 15.775C21.5254 16.475 23.6254 17.125 25.6754 17.9H25.9254H26.1004C27.8504 18.575 29.5754 19.275 31.2504 20.075C30.9862 21.81 30.5935 23.5231 30.0754 25.2C29.8504 25.925 29.6004 26.625 29.3504 27.375C29.1004 28.125 28.6754 29.55 28.3004 30.65C27.4004 33.425 26.4754 36.2 25.4504 38.95C25.4045 39.0517 25.379 39.1616 25.3755 39.2732C25.3719 39.3848 25.3905 39.496 25.4299 39.6005C25.4694 39.7049 25.529 39.8006 25.6055 39.882C25.6819 39.9634 25.7736 40.029 25.8754 40.075C25.9772 40.1209 26.087 40.1464 26.1986 40.1499C26.3103 40.1534 26.4215 40.1349 26.5259 40.0955C26.6304 40.056 26.7261 39.9963 26.8075 39.9199C26.8889 39.8435 26.9545 39.7517 27.0004 39.65C28.2004 37.375 29.5004 35.15 30.4754 32.8C31.1873 31.2267 31.7643 29.5958 32.2004 27.925C32.7676 25.4669 33.0197 22.9467 32.9504 20.425C33.0717 20.3707 33.1819 20.2944 33.2754 20.2C33.6754 19.425 32.6754 18.55 32.1754 18.6C30.7254 17.675 29.2004 16.9 27.7004 16.1C28.0708 14.9398 28.1079 13.6989 27.8073 12.5188C27.5067 11.3386 26.8806 10.2666 26.0004 9.42495C25.4876 8.91744 24.8968 8.49542 24.2504 8.17495L24.6504 7.52495C24.6504 7.24995 24.8754 6.97495 24.9754 6.69995C25.0601 6.4227 25.1187 6.13812 25.1504 5.84995C25.1878 5.45083 25.1878 5.04908 25.1504 4.64995L28.0504 5.62495C29.0929 5.93127 30.0925 6.36806 31.0254 6.92495C31.5911 7.29541 32.0726 7.78061 32.4386 8.34911C32.8047 8.91761 33.0472 9.55671 33.1504 10.225C33.1598 10.3367 33.1913 10.4456 33.243 10.5451C33.2947 10.6447 33.3655 10.733 33.4515 10.8051C33.5375 10.8771 33.6369 10.9314 33.744 10.9649C33.8511 10.9983 33.9637 11.0102 34.0754 11C34.31 11.0068 34.538 10.9218 34.7107 10.763C34.8835 10.6043 34.9875 10.3843 35.0004 10.15C34.9716 9.18503 34.733 8.23794 34.3013 7.3745C33.8696 6.51106 33.2551 5.75196 32.5004 5.14995C31.4701 4.27642 30.305 3.57567 29.0504 3.07495C28.0504 2.49995 26.8254 2.27495 25.7004 1.84995C24.0254 1.37495 22.3504 0.824954 20.6504 0.449954C19.4761 0.18492 18.2788 0.0342169 17.0754 -4.57639e-05C16.9768 -0.0104019 16.8772 -0.00111408 16.7822 0.0272806C16.6872 0.0556753 16.5988 0.102614 16.5221 0.165382C16.4454 0.22815 16.3819 0.305503 16.3353 0.392968C16.2886 0.480433 16.2598 0.576276 16.2504 0.674954C16.2364 0.774121 16.2431 0.875111 16.2701 0.971556C16.2971 1.068 16.3438 1.15781 16.4072 1.23532C16.4706 1.31283 16.5494 1.37636 16.6386 1.42191C16.7278 1.46746 16.8254 1.49403 16.9254 1.49995C17.7239 1.66851 18.5092 1.89409 19.2754 2.17495C20.6828 2.69774 22.06 3.29868 23.4004 3.97495C23.0738 4.35425 22.7731 4.75516 22.5004 5.17495C22.3489 5.42841 22.2471 5.7084 22.2004 5.99995C22.1182 6.27783 22.0596 6.56218 22.0254 6.84995V7.52495C21.6425 7.49907 21.2583 7.49907 20.8754 7.52495C19.6299 7.55975 18.4323 8.01268 17.4754 8.81082C16.5186 9.60895 15.8581 10.7059 15.6004 11.925C13.8504 11.6 12.1004 11.325 10.3754 11.075C10.2294 11.046 10.078 11.0643 9.94314 11.1272C9.80828 11.1902 9.69698 11.2945 9.62541 11.425C7.67064 13.8135 6.01659 16.4332 4.70041 19.225C4.14811 20.41 3.67214 21.6292 3.27541 22.875C2.84135 24.1105 2.48236 25.3711 2.20041 26.65C1.50041 29.625 1.07541 32.625 0.67541 35.575C0.638818 35.8 0.691498 36.0304 0.822238 36.2172C0.952977 36.4039 1.15145 36.5323 1.37541 36.575C1.48721 36.5965 1.60219 36.5953 1.71354 36.5716C1.82488 36.5478 1.93032 36.5019 2.02359 36.4366C2.11686 36.3713 2.19606 36.288 2.2565 36.1915C2.31694 36.095 2.35737 35.9874 2.37541 35.875C3.17541 32.525 4.22541 29.1 5.37541 25.7C5.79208 24.3833 6.24208 23.0583 6.72541 21.725C7.05041 20.85 7.32541 19.975 7.65041 19.225C8.45391 16.9811 9.44057 14.8071 10.6004 12.725C13.5504 13.625 16.4754 14.725 19.4754 15.775ZM20.9004 10.175C21.6177 10.2487 22.3139 10.461 22.9504 10.8C23.8273 11.1706 24.5802 11.784 25.1205 12.5678C25.6608 13.3517 25.9661 14.2735 26.0004 15.225C25.8641 15.1403 25.7221 15.0651 25.5754 15C24.4754 14.5 23.3504 14.025 22.2004 13.625C21.0504 13.225 20.0004 12.875 18.7004 12.5L17.1754 12.25C17.5093 11.5644 18.0455 10.9978 18.7116 10.6268C19.3778 10.2557 20.1418 10.098 20.9004 10.175Z" fill="black"/>
<path fill-rule="evenodd" clip-rule="evenodd" d="M18.8502 36.775C19.0488 36.5344 19.2091 36.2646 19.3252 35.975C19.4857 35.5335 19.6193 35.0827 19.7252 34.625L20.2002 32.125L21.1252 32.6L22.2002 33.175L23.0502 33.525C23.3592 33.6292 23.6773 33.7045 24.0002 33.75C24.2885 33.813 24.5869 33.813 24.8752 33.75C25.0761 33.6937 25.2615 33.5924 25.4174 33.4538C25.5734 33.3152 25.6957 33.1429 25.7752 32.95C25.8705 32.7381 25.954 32.5211 26.0252 32.3L26.7252 30.5C27.0442 29.87 27.2956 29.208 27.4752 28.525C27.5607 28.1549 27.5607 27.7701 27.4752 27.4C27.4248 27.1791 27.3175 26.9753 27.164 26.8087C27.0105 26.642 26.8162 26.5184 26.6002 26.45C26.1801 26.3494 25.7543 26.2743 25.3252 26.225L22.5002 25.7L23.7002 22.95C23.8864 22.5188 24.0451 22.0763 24.1752 21.625C24.1952 21.4332 24.1768 21.2393 24.121 21.0548C24.0652 20.8702 23.9731 20.6986 23.8502 20.55C23.715 20.4155 23.5638 20.298 23.4002 20.2C23.111 20.0916 22.8081 20.0242 22.5002 20L21.0002 19.375L18.5002 18.55C18.124 18.4519 17.7386 18.3933 17.3502 18.375C17.1453 18.3746 16.9429 18.4192 16.7572 18.5056C16.5714 18.592 16.4069 18.7181 16.2752 18.875C16.0399 19.188 15.8699 19.5451 15.7752 19.925C15.6252 20.525 15.5502 21.25 15.4502 21.675L15.2252 22.675L14.7752 22.5C14.2002 22.225 13.6002 22 13.0252 21.75L12.1002 21.325C11.7642 21.2371 11.4112 21.2371 11.0752 21.325C10.5979 21.4695 10.1669 21.7368 9.8252 22.1C9.30057 22.7034 8.90876 23.4103 8.6752 24.175L8.2002 26.4V27.7C8.29032 28.0421 8.4718 28.3532 8.7252 28.6C9.0498 28.8483 9.40217 29.058 9.7752 29.225C10.2417 29.4584 10.738 29.6266 11.2502 29.725H12.0002L11.3252 31.1C11.028 31.7788 10.8666 32.5092 10.8502 33.25C10.8589 33.7315 11.0064 34.2003 11.2752 34.6C11.4101 34.7659 11.5704 34.9093 11.7502 35.025C12.0458 35.1729 12.3557 35.2902 12.6752 35.375C13.4002 35.625 15.9252 36.65 17.0252 36.95C17.3213 37.0685 17.6415 37.1144 17.9589 37.0839C18.2764 37.0535 18.582 36.9476 18.8502 36.775ZM13.2252 32.75V31.975L13.8752 29.725C13.9799 29.6405 14.058 29.5277 14.1002 29.4C14.3752 28.025 12.8002 28.275 11.6002 27.8C11.2914 27.6553 10.9982 27.4794 10.7252 27.275C10.7103 27.1839 10.7103 27.0911 10.7252 27L11.2252 25.225C11.8252 23.675 10.8002 23.625 14.0252 24.275L15.0002 24.4C15.0924 24.5663 15.2443 24.6914 15.4252 24.75C15.6175 24.8054 15.8237 24.7843 16.0008 24.6911C16.1779 24.5979 16.312 24.4399 16.3752 24.25L17.2752 22.5L17.7502 21.25L20.2502 22.15L21.2502 22.5L20.5002 25.9C20.5002 25.9 20.3502 26.05 20.3502 26.15C20.3209 26.3484 20.3697 26.5504 20.4863 26.7135C20.6028 26.8767 20.7781 26.9883 20.9752 27.025L24.6002 28.5C24.4002 28.825 24.1252 29.175 24.0252 29.35L23.4752 31.1H23.0002C19.5002 30 20.0002 30 19.5252 30C19.4043 30.0257 19.2913 30.08 19.1956 30.1582C19.0999 30.2365 19.0243 30.3366 18.9752 30.45L17.5002 33.925V34.25C16.3002 33.8 14.2252 33.075 13.6002 32.875L13.2252 32.75Z" fill="black"/>
</g>
<defs>
<clipPath id="clip0_165_7407">
<rect width="60" height="60" fill="white"/>
</clipPath>
</defs>
</svg>
