<svg width="60" height="60" viewBox="0 0 60 60" fill="none" xmlns="http://www.w3.org/2000/svg">
<g clip-path="url(#clip0_165_7153)">
<path fill-rule="evenodd" clip-rule="evenodd" d="M50.3 49.3C50.0458 49.313 49.8068 49.4248 49.6339 49.6117C49.4611 49.7985 49.3682 50.0456 49.375 50.3C49.375 51.525 49.9 53.175 50.025 54.7C50.0952 55.2439 50.0175 55.7966 49.8 56.3C49.575 55.975 48.65 56.3 48.325 56.175L41.725 55.825C38.3917 55.6727 35.0523 55.7228 31.725 55.975C26.795 56.4452 21.9011 57.2386 17.075 58.35C16.9662 58.3652 16.8614 58.402 16.767 58.4583C16.6725 58.5146 16.5903 58.5892 16.5251 58.6777C16.4599 58.7662 16.413 58.8668 16.3872 58.9737C16.3615 59.0805 16.3573 59.1915 16.375 59.3C16.3856 59.4283 16.426 59.5524 16.4931 59.6624C16.5602 59.7723 16.6521 59.865 16.7614 59.933C16.8708 60.0011 16.9945 60.0426 17.1228 60.0542C17.251 60.0658 17.3802 60.0473 17.5 60C20.725 59.625 23.975 59.375 27.2 59.2C29.7 59.075 32.05 59.05 34.475 59C36.9 58.95 39.275 58.875 41.7 59H48.35C49.0876 59.1106 49.8375 59.1106 50.575 59C50.9919 58.9015 51.3624 58.6633 51.625 58.325C52.2061 57.5031 52.4803 56.5033 52.4 55.5C52.4 53.775 51.45 51.875 51.375 50.5C51.4131 50.3458 51.4129 50.1847 51.3745 50.0306C51.336 49.8766 51.2606 49.7342 51.1546 49.6159C51.0487 49.4977 50.9154 49.4071 50.7665 49.352C50.6176 49.2969 50.4574 49.2791 50.3 49.3Z" fill="black"/>
<path fill-rule="evenodd" clip-rule="evenodd" d="M57.1242 12.9249C57.2992 12.5499 57.5242 12.1999 57.6742 11.8249C58.4425 10.0527 58.8014 8.13 58.7242 6.19991C58.6595 5.14807 58.3638 4.1234 57.8583 3.19875C57.3528 2.27409 56.6497 1.47214 55.7992 0.849912C54.812 0.213031 53.6319 -0.0558529 52.4662 0.0904342C51.3005 0.236721 50.2235 0.788836 49.4242 1.64991C48.5011 2.51044 47.7019 3.49481 47.0492 4.57491C45.0429 8.08128 43.5128 11.8393 42.4992 15.7499C41.5492 18.9499 40.7992 22.1999 40.1242 25.4749L36.1742 27.2749C35.7783 27.4593 35.3943 27.668 35.0242 27.8999C34.7621 28.0966 34.5413 28.343 34.3742 28.6249C34.0996 29.1408 33.9538 29.7155 33.9492 30.2999C33.9967 31.2772 34.1733 32.2439 34.4742 33.1749L35.3242 35.6749L36.2492 38.1749C36.2492 38.3499 36.5242 38.9249 36.6742 39.1499C36.8266 39.3858 37.0321 39.5827 37.2742 39.7249C37.5626 39.8898 37.8925 39.968 38.2242 39.9499C38.6393 39.869 39.0486 39.7604 39.4492 39.6249L42.1992 38.3499C42.9742 37.8999 44.2242 37.4499 45.1992 36.8749C45.7543 36.5703 46.2532 36.1729 46.6742 35.6999C46.8843 35.4373 47.0299 35.129 47.0992 34.7999C47.1256 34.222 47.0836 33.643 46.9742 33.0749L46.5742 29.7749C47.8492 27.9999 49.0742 26.1749 50.3492 24.3499C51.6242 22.5249 52.8492 20.6499 53.9242 18.7749C54.6242 17.6499 55.3742 16.2749 56.1242 15.0749C56.5084 16.0262 56.6041 17.0696 56.3992 18.0749C56.169 19.0694 55.8251 20.0341 55.3742 20.9499C54.6742 22.4749 53.8492 24.0999 53.0242 25.7749C52.9336 25.8772 52.8661 25.9977 52.8263 26.1284C52.7866 26.2591 52.7754 26.3969 52.7937 26.5323C52.812 26.6676 52.8593 26.7975 52.9324 26.9129C53.0054 27.0284 53.1025 27.1267 53.217 27.2012C53.3315 27.2758 53.4607 27.3247 53.5959 27.3447C53.731 27.3648 53.8689 27.3554 54.0001 27.3173C54.1313 27.2792 54.2527 27.2133 54.3561 27.124C54.4595 27.0347 54.5424 26.9242 54.5992 26.7999C55.822 25.3609 56.9574 23.8499 57.9992 22.2749C58.7773 21.1043 59.2736 19.7694 59.4492 18.3749C59.5297 17.3464 59.3602 16.3136 58.9554 15.3646C58.5506 14.4157 57.9223 13.5787 57.1242 12.9249ZM44.4242 34.1499L43.8492 34.4499C42.7992 34.8999 41.5242 35.2249 40.6992 35.5999L38.8742 36.3249L38.1242 34.4249L37.1492 32.1999C36.9217 31.7144 36.7296 31.2131 36.5742 30.6999C36.5742 30.3749 36.3492 30.0499 36.4492 29.7999L37.2492 29.1749L41.1742 26.6749C41.4287 27.0172 41.732 27.3204 42.0742 27.5749C42.4271 27.8101 42.8153 27.9874 43.2242 28.0999C43.6656 28.2355 44.117 28.3358 44.5742 28.3999C44.537 28.5561 44.537 28.7188 44.5742 28.8749V33.0749C44.5242 33.3749 44.2992 33.9249 44.4242 34.1499ZM51.6492 17.3499C50.6242 19.2749 49.5242 21.1749 48.4242 23.0499L45.9242 26.9499C45.524 26.4536 45.0896 25.9858 44.6242 25.5499C44.4091 25.3856 44.1836 25.2353 43.9492 25.0999C43.7189 24.9745 43.4758 24.8739 43.2242 24.7999C42.7742 24.7999 42.3492 24.6749 41.9492 24.6249C42.5492 22.4249 43.1742 20.1999 43.9242 18.0499C44.4492 16.5499 45.1492 15.0999 45.7992 13.6249V13.7999C46.0928 14.063 46.4109 14.2974 46.7492 14.4999C47.1422 14.7206 47.5625 14.8887 47.9992 14.9999C48.8793 15.3607 49.7918 15.6369 50.7242 15.8249C50.8393 15.8906 50.9668 15.9316 51.0986 15.9451C51.2304 15.9586 51.3636 15.9444 51.4896 15.9034C51.6156 15.8624 51.7316 15.7955 51.8302 15.7069C51.9288 15.6184 52.0078 15.5102 52.0621 15.3894C52.1164 15.2685 52.1448 15.1376 52.1455 15.0051C52.1462 14.8726 52.1192 14.7414 52.0662 14.62C52.0132 14.4986 51.9353 14.3896 51.8377 14.3C51.7401 14.2104 51.6248 14.1423 51.4992 14.0999C50.7742 13.5749 50.1992 12.9499 49.4992 12.3999C49.038 12.0357 48.5536 11.7016 48.0492 11.3999C47.6998 11.2367 47.3408 11.0948 46.9742 10.9749C47.0386 10.7955 47.1137 10.6202 47.1992 10.4499C47.9361 8.98667 48.7713 7.57509 49.6992 6.22491C50.2606 5.39489 50.9148 4.63162 51.6492 3.94991C51.9434 3.58858 52.3573 3.34455 52.8159 3.262C53.2745 3.17946 53.7475 3.26385 54.1492 3.49991C54.6036 3.85028 54.9756 4.296 55.2391 4.80568C55.5026 5.31537 55.6511 5.87662 55.6742 6.44991C55.7677 7.91542 55.5372 9.38353 54.9992 10.7499C54.05 13.031 52.9302 15.2372 51.6492 17.3499Z" fill="black"/>
<path fill-rule="evenodd" clip-rule="evenodd" d="M21.2496 39.65C21.0351 39.0332 20.6683 38.4807 20.1832 38.0436C19.698 37.6065 19.1103 37.2991 18.4746 37.15C17.6475 37.0057 16.8017 37.0057 15.9746 37.15L15.8246 36.2C15.8246 35.45 15.5496 34.75 15.3996 34C16.1039 34.0002 16.8039 34.1099 17.4746 34.325C17.5791 34.3887 17.6961 34.4291 17.8177 34.4435C17.9392 34.4578 18.0625 34.4457 18.1789 34.408C18.2954 34.3703 18.4023 34.3079 18.4924 34.2251C18.5825 34.1422 18.6537 34.0409 18.701 33.928C18.7483 33.8151 18.7707 33.6934 18.7667 33.571C18.7626 33.4487 18.7322 33.3287 18.6774 33.2192C18.6227 33.1097 18.545 33.0134 18.4495 32.9367C18.3541 32.86 18.2433 32.8049 18.1246 32.775C17.1319 32.3675 16.0724 32.1471 14.9996 32.125C14.9996 31.525 14.7246 30.925 14.6246 30.325C14.6246 30.1062 14.5377 29.8964 14.3829 29.7416C14.2282 29.5869 14.0184 29.5 13.7996 29.5C13.5808 29.5 13.3709 29.5869 13.2162 29.7416C13.0615 29.8964 12.9746 30.1062 12.9746 30.325V32.05C12.1841 32.1289 11.4092 32.3226 10.6746 32.625C10.1651 32.8129 9.6987 33.1014 9.30298 33.4733C8.90727 33.8451 8.59038 34.2927 8.37114 34.7895C8.1519 35.2863 8.0348 35.8221 8.02681 36.365C8.01881 36.908 8.12008 37.447 8.32458 37.95C8.49956 38.5422 8.81999 39.0813 9.25666 39.5179C9.69333 39.9546 10.2323 40.275 10.8246 40.45C11.6363 40.6837 12.4882 40.7433 13.3246 40.625C13.3246 40.975 13.4496 41.3 13.5246 41.65C13.7496 42.75 14.0996 43.8 14.3996 44.875C12.9023 45.1891 11.3421 44.9586 9.99958 44.225C9.90289 44.1338 9.78813 44.0639 9.66273 44.0198C9.53732 43.9758 9.40407 43.9585 9.27157 43.9691C9.13908 43.9798 9.01029 44.0181 8.89355 44.0817C8.7768 44.1452 8.67469 44.2326 8.59382 44.3381C8.51294 44.4436 8.45511 44.5649 8.42405 44.6941C8.39298 44.8233 8.38939 44.9577 8.4135 45.0884C8.4376 45.2191 8.48887 45.3433 8.56399 45.453C8.63911 45.5626 8.7364 45.6553 8.84958 45.725C10.6269 47.0082 12.8242 47.5709 14.9996 47.3C14.9996 47.475 14.9996 47.625 15.1246 47.8C15.1443 47.9248 15.1884 48.0444 15.2543 48.1521C15.3202 48.2599 15.4068 48.3535 15.5089 48.4278C15.611 48.5021 15.7268 48.5555 15.8496 48.5851C15.9724 48.6146 16.0998 48.6197 16.2246 48.6C16.3493 48.5803 16.469 48.5362 16.5767 48.4703C16.6844 48.4043 16.7781 48.3178 16.8524 48.2157C16.9267 48.1135 16.9801 47.9978 17.0097 47.875C17.0392 47.7522 17.0443 47.6248 17.0246 47.5V47.05C17.5717 46.9203 18.107 46.7447 18.6246 46.525C19.2671 46.2691 19.8496 45.8826 20.3351 45.3901C20.8207 44.8975 21.1988 44.3096 21.4455 43.6634C21.6922 43.0173 21.8022 42.327 21.7684 41.6362C21.7347 40.9454 21.558 40.269 21.2496 39.65ZM11.0496 37.15C10.4746 35.725 11.3746 34.875 12.5746 34.475C12.6826 34.463 12.7916 34.463 12.8996 34.475V36.675V37.8C12.1246 37.875 11.3746 38 11.0496 37.125V37.15ZM16.7746 44.4C16.7746 43.4 16.6246 42.425 16.5246 41.425V40.375C17.3246 40.25 18.1246 40.1 18.4746 40.9C19.1496 42.5 18.1996 43.7 16.7746 44.375V44.4Z" fill="black"/>
<path fill-rule="evenodd" clip-rule="evenodd" d="M51.2496 40.35C51.1869 39.8946 51.0951 39.4436 50.9746 39C50.6996 37.925 50.2746 36.975 49.9996 35.925C50.0207 35.8029 50.0149 35.6777 49.9826 35.558C49.9503 35.4384 49.8922 35.3273 49.8124 35.2325C49.7326 35.1377 49.6331 35.0614 49.5207 35.0091C49.4084 34.9569 49.286 34.9298 49.1621 34.9298C49.0381 34.9298 48.9157 34.9569 48.8034 35.0091C48.691 35.0614 48.5915 35.1377 48.5117 35.2325C48.4319 35.3273 48.3738 35.4384 48.3415 35.558C48.3092 35.6777 48.3034 35.8029 48.3246 35.925C48.1092 37.0381 47.9838 38.1668 47.9496 39.3C47.9539 39.7692 47.9957 40.2374 48.0746 40.7C48.1472 41.1742 48.2558 41.6423 48.3996 42.1C48.6496 42.975 48.9996 43.825 49.3246 44.6H49.0496C44.0496 46.225 38.9246 47.625 33.7996 48.875C28.6746 50.125 23.4746 51.15 18.2746 52.025C15.9996 52.45 13.2746 53.325 10.6246 53.825C9.36218 54.1104 8.06769 54.228 6.77455 54.175C6.34955 52.675 5.82455 49.9 5.77455 49.65C4.97455 46.375 4.24955 43.05 3.64955 39.65C3.04955 36.25 2.67455 33.8 2.32455 30.75C4.56671 29.9012 6.85343 29.1751 9.17456 28.575C11.5246 27.95 13.8996 27.45 16.2996 26.95L23.4746 25.425C28.3496 24.35 33.1496 23.1 37.8496 21.725C37.9628 21.702 38.0704 21.6569 38.1663 21.5924C38.2621 21.5278 38.3443 21.445 38.4082 21.3486C38.472 21.2523 38.5163 21.1443 38.5384 21.0309C38.5605 20.9174 38.56 20.8008 38.5371 20.6875C38.5141 20.5742 38.469 20.4666 38.4044 20.3708C38.3399 20.2749 38.257 20.1927 38.1607 20.1289C38.0643 20.065 37.9564 20.0208 37.8429 19.9987C37.7295 19.9766 37.6128 19.977 37.4996 20C33.1746 20.775 28.7496 21.25 24.3496 21.975C21.4246 22.5 18.4996 23.075 15.5996 23.825C10.7443 25.0164 6.02072 26.6915 1.49955 28.825C1.34334 28.776 1.17608 28.7746 1.01907 28.821C0.862056 28.8674 0.722391 28.9594 0.617847 29.0854C0.513302 29.2114 0.448607 29.3656 0.431994 29.5285C0.41538 29.6914 0.447601 29.8555 0.524555 30C0.699555 33.4 1.02455 36.825 1.44955 40.225C1.87455 43.625 2.39955 47.025 2.99955 50.375C2.99955 50.675 3.54955 54.375 3.97455 55.75C4.06589 56.1176 4.25271 56.4545 4.51612 56.7267C4.77952 56.9989 5.11015 57.1967 5.47456 57.3C6.92416 57.5256 8.39995 57.5256 9.84956 57.3C12.9246 56.9 16.1996 55.775 18.8496 55.3C24.0996 54.2 29.2996 52.95 34.4496 51.5C39.5996 50.05 44.6746 48.375 49.6746 46.5C49.7999 46.4457 49.9132 46.3668 50.0076 46.268C50.1021 46.1693 50.1758 46.0527 50.2246 45.925C50.3641 45.9599 50.51 45.9599 50.6496 45.925C50.8958 45.8708 51.1114 45.7234 51.2512 45.5136C51.3911 45.3039 51.4442 45.0481 51.3996 44.8V41.525C51.3246 41.25 51.2996 40.775 51.2496 40.35Z" fill="black"/>
<path fill-rule="evenodd" clip-rule="evenodd" d="M24.1748 45C23.994 45.1305 23.8717 45.3268 23.8343 45.5466C23.7969 45.7664 23.8474 45.9921 23.9748 46.175C24.0348 46.2665 24.113 46.3446 24.2044 46.4047C24.2959 46.4647 24.3987 46.5054 24.5064 46.5241C24.6142 46.5429 24.7247 46.5393 24.8311 46.5137C24.9374 46.488 25.0374 46.4408 25.1248 46.375C26.1768 45.7553 27.1223 44.9703 27.9248 44.05L28.3748 43.475C28.7647 43.887 29.2319 44.2183 29.7498 44.45C30.7472 44.8718 31.8444 44.9995 32.912 44.8178C33.9796 44.6362 34.973 44.1529 35.7748 43.425C35.9459 43.2636 36.051 43.0445 36.0699 42.8101C36.0887 42.5757 36.02 42.3426 35.8769 42.1559C35.7338 41.9693 35.5265 41.8423 35.2952 41.7997C35.0639 41.757 34.825 41.8017 34.6248 41.925C34.0974 42.2981 33.4765 42.5167 32.8318 42.5565C32.187 42.5962 31.544 42.4555 30.9748 42.15C30.7003 41.9806 30.4721 41.7458 30.3107 41.4666C30.1493 41.1873 30.0596 40.8724 30.0498 40.55C30.1998 40.175 30.3498 39.775 30.4748 39.35C30.5738 38.9802 30.6489 38.6044 30.6998 38.225V37C30.6696 36.6723 30.6195 36.3467 30.5498 36.025C30.4581 35.8215 30.3235 35.6401 30.1552 35.4934C29.9869 35.3467 29.7889 35.2381 29.5748 35.175C29.2159 35.0312 28.8153 35.0315 28.4566 35.1759C28.098 35.3203 27.8089 35.5976 27.6498 35.95C27.4509 36.3299 27.2997 36.733 27.1998 37.15C27.0842 37.6357 27.0006 38.1284 26.9498 38.625C26.8719 39.2978 26.8719 39.9773 26.9498 40.65C26.7236 41.3754 26.4131 42.0719 26.0248 42.725C25.5306 43.5752 24.9064 44.3428 24.1748 45Z" fill="black"/>
</g>
<defs>
<clipPath id="clip0_165_7153">
<rect width="60" height="60" fill="white"/>
</clipPath>
</defs>
</svg>
