<svg width="60" height="60" viewBox="0 0 60 60" fill="none" xmlns="http://www.w3.org/2000/svg">
<path d="M44.5792 11.5141C43.3547 11.6479 42.1159 11.5316 40.9377 11.1721C40.3512 11.0499 39.5692 10.6099 38.4939 10.2921C37.5394 9.97089 36.5432 9.78989 35.5367 9.75464H35.0479C32.6039 9.75464 32.7507 11.6851 35.0479 11.8564H35.2924C36.0702 12.0709 36.8239 12.3656 37.5407 12.7361C38.3974 13.1744 39.2884 13.5421 40.2047 13.8359C41.6879 14.1429 43.2182 14.1429 44.7014 13.8359C47.7564 12.3939 47.5854 11.0009 45.7769 11.3919C45.3857 11.3919 44.9947 11.4654 44.5792 11.5141Z" fill="black"/>
<path d="M50.6643 5.35529C50.269 5.36854 49.9553 5.69304 49.9555 6.08854C49.8868 6.86029 49.7058 7.61779 49.4178 8.33704C49.149 9.07029 45.1898 17.844 44.6765 18.846C43.963 20.3505 43.1465 21.804 42.2328 23.196C41.7005 24.179 40.9373 25.0178 40.0088 25.64C39.1168 26.087 38.0965 26.208 37.1248 25.9823C36.2665 25.8698 35.4375 25.596 34.681 25.1758C34.0903 24.816 33.668 24.2353 33.5078 23.5628C32.9415 20.5178 32.7123 17.4198 32.8235 14.3245C32.9348 11.2293 33.1413 5.35528 33.239 4.54878C33.3368 3.74228 33.5078 3.47354 33.6055 3.00929C34.0745 2.83929 34.5748 2.77279 35.072 2.81379C36.9375 2.77079 38.8028 2.90179 40.644 3.20479C43.3263 3.59504 45.9683 4.22479 48.538 5.08654C48.9308 5.16104 49.321 4.94554 49.4668 4.57329C49.63 4.14779 49.4085 3.67179 48.978 3.52229C45.2905 2.14454 41.4503 1.21729 37.5403 0.760785C36.1145 0.546535 34.6648 0.546535 33.239 0.760785C32.6968 0.843035 32.1933 1.09054 31.797 1.46954C31.3078 2.11054 30.996 2.86929 30.8928 3.66904C30.4895 6.02129 30.2365 8.39653 30.1353 10.781C29.8145 15.2618 30.0195 19.7648 30.7463 24.198C31.0155 25.286 31.6335 26.256 32.5058 26.9598C33.3785 27.6485 34.399 28.1255 35.4873 28.3528C35.243 29.0128 34.9985 29.8435 34.7543 30.7968C34.51 31.75 34.5098 31.872 34.4365 32.4343C34.3433 32.992 34.286 33.5553 34.2655 34.1205V35.2935C34.0065 34.528 33.6535 33.7973 33.2145 33.1185C32.2928 31.5873 30.7488 30.534 28.9865 30.2348C27.5975 30.1353 26.2025 30.3095 24.8808 30.748C23.91 31.0873 22.9893 31.556 22.1435 32.141C21.3125 32.7275 20.6528 33.363 20.0173 33.7295C19.1685 34.2593 18.4298 34.948 17.8423 35.758C17.4653 36.3105 17.1303 36.8905 16.8403 37.4933C16.7483 37.3233 16.633 37.167 16.498 37.0288C16.059 36.6373 15.5303 36.36 14.9583 36.2223C13.9435 36.1038 12.9183 36.1038 11.9035 36.2223L9.31278 36.4423C8.92103 36.5763 8.73678 37.0248 8.92178 37.3955C9.14178 37.9575 9.31278 37.7375 11.8545 37.9085C12.6035 37.9343 13.3483 38.0325 14.0785 38.202C14.3988 38.2458 14.693 38.4015 14.9095 38.6418V48.0755L14.7628 53.3543C14.7423 53.688 14.7423 54.0225 14.7628 54.3563C14.5185 54.3563 14.2495 54.6008 14.1275 54.6253C13.1743 54.7963 12.221 55.0163 11.2925 55.1383C10.687 55.2438 10.074 55.301 9.45953 55.3095C9.00553 55.3088 8.63003 55.6628 8.60403 56.116C8.57603 56.5803 8.94528 56.9723 9.41053 56.9713C10.0945 57.008 10.7798 57.008 11.4635 56.9713L14.4208 56.7025C15.006 56.6818 15.5875 56.5998 16.1558 56.458L16.4493 56.287C18.7863 57.6585 21.3993 58.4933 24.0988 58.731C28.1278 59.4995 32.2548 59.6068 36.3183 59.0488C37.304 58.787 38.2495 58.3923 39.1288 57.8755C39.8045 57.4478 40.373 56.871 40.7908 56.1893C41.1593 55.5655 41.4545 54.9013 41.6705 54.2095C41.9883 53.3053 42.2328 52.3768 42.3793 51.7658C42.925 51.311 43.3883 50.7653 43.748 50.1528C44.2063 49.3315 44.442 48.4048 44.4323 47.4643C44.4625 46.4095 44.1728 45.37 43.6013 44.4828C43.6013 44.3363 43.3813 44.214 43.2835 44.0918C43.5288 43.74 43.7183 43.3525 43.8458 42.943C44.1183 41.8265 43.8858 40.6468 43.2103 39.717C42.9588 39.2065 42.61 38.75 42.1838 38.373C41.793 38.0205 41.3673 37.7095 40.913 37.4443C39.6795 36.8198 38.3113 36.5093 36.9293 36.54H36.3673C36.5383 35.929 36.7338 35.1958 36.905 34.3893C37.0763 33.5828 37.1248 33.3385 37.1983 32.8008L37.3448 31.5055C37.3448 30.3813 37.3448 29.3793 37.4915 28.6215C38.7958 28.7238 40.1003 28.4253 41.2308 27.7663C42.4525 26.9208 43.4573 25.7988 44.1633 24.4913C45.0768 22.9638 45.893 21.3803 46.6073 19.75C47.6093 17.3063 48.4158 15.18 49.5155 12.4183C49.8333 11.6118 50.4443 10.1455 50.8843 8.75253C51.1873 7.86128 51.3603 6.93129 51.3975 5.99079C51.359 5.61879 51.038 5.34054 50.6643 5.35529ZM39.691 39.3995C39.9898 39.5808 40.2685 39.794 40.522 40.0348C40.7263 40.258 40.8915 40.5143 41.0108 40.7925C41.2155 41.1928 41.259 41.6563 41.133 42.0878C40.9448 42.5353 40.6195 42.9118 40.2043 43.163C40.0865 43.2563 39.9798 43.363 39.8865 43.4808C39.52 43.4808 39.08 43.334 38.5913 43.3098C38.1025 43.2855 37.4425 43.163 36.856 43.163C35.8713 43.2208 34.8838 43.2208 33.8988 43.163C33.5213 43.0273 33.1033 43.2095 32.9458 43.5785C32.8258 43.962 33.0158 44.3743 33.3855 44.5318C34.2478 45.0765 35.187 45.4883 36.1718 45.7535C36.5813 45.848 36.9983 45.9053 37.418 45.9248C37.8485 45.974 38.283 45.974 38.7135 45.9248C39.3305 45.8445 39.937 45.697 40.522 45.4848H40.7175C40.9613 45.6748 41.1335 45.942 41.2063 46.2425C41.3055 46.5918 41.3468 46.955 41.3285 47.3178C41.3445 47.7773 41.2163 48.2303 40.9618 48.613C40.7273 49.0443 40.402 49.4193 40.0088 49.7128H39.3H38.078H36.8805H34.1188C33.7415 49.5995 33.3423 49.8045 33.2145 50.1773C33.07 50.5628 33.2838 50.99 33.679 51.1058C34.438 51.622 35.2593 52.0408 36.1228 52.3523C36.5198 52.4748 36.93 52.5485 37.3448 52.5723C37.7715 52.5788 38.1978 52.5378 38.6158 52.45L38.9823 52.3278L38.689 53.232C38.527 53.7293 38.3225 54.2118 38.078 54.674C37.8135 55.1113 37.4328 55.4665 36.9783 55.7005C36.41 56.005 35.8123 56.2505 35.1943 56.4335C32.1635 57.0483 29.0578 57.2048 25.9805 56.898C22.9105 56.6158 19.884 55.976 16.9623 54.9918L17.6955 48.0265V44.3118C17.6955 43.0408 17.5 40.4258 17.5 40.328C17.608 40.2355 17.6918 40.118 17.7445 39.986C18.1393 39.1185 18.6313 38.2985 19.2108 37.542C19.7333 36.839 20.4218 36.2765 21.2148 35.9045C22.6943 34.9515 24.2565 34.1335 25.8828 33.4608C26.88 33.1148 27.931 32.9493 28.9865 32.9718C30.0548 33.0605 31.0338 33.6033 31.6748 34.4628C32.2643 35.0995 32.736 35.836 33.0678 36.6378C33.1153 36.7643 33.1725 36.8868 33.239 37.0043C31.6993 37.2733 30.0863 37.6398 28.5223 37.933C28.0668 38.0198 27.7635 38.4533 27.8378 38.9108C27.9243 39.3525 28.347 39.645 28.791 39.5705C34.461 38.6418 37.6135 38.0553 39.691 39.3995Z" fill="black"/>
</svg>
