<svg width="60" height="60" viewBox="0 0 60 60" fill="none" xmlns="http://www.w3.org/2000/svg">
<g clip-path="url(#clip0_118_3369)">
<path fill-rule="evenodd" clip-rule="evenodd" d="M26.9462 23.4329C26.3708 17.7899 24.945 12.197 20.167 9.11217C12.012 3.74503 1.2304 9.71409 0.0796897 14.7301C-0.107664 16.8379 0.0358333 18.962 0.504951 21.0252C0.930212 24.8123 0.630028 27.1197 3.93206 29.5524C5.77304 30.727 7.8603 31.4582 10.0303 31.6888C12.2003 31.9195 14.3941 31.6432 16.4397 30.8817C17.4938 30.4238 18.5809 30.0465 19.6917 29.7531C20.8675 29.1261 20.142 27.4708 17.4654 28.7499C15.4942 29.7175 13.3074 30.159 11.1163 30.0315C8.92527 29.9041 6.80404 29.2122 4.95769 28.0225C2.45615 25.991 2.78135 24.1853 2.45615 20.7995C2.43113 16.5359 1.25541 15.2568 4.25726 12.7488C13.9382 6.98036 20.7424 10.5417 22.8937 17.7648C24.1195 21.7525 24.2445 25.0129 26.1957 45.8795C24.3072 45.6039 22.3797 45.8109 20.5923 46.4815C20.2921 43.3966 20.5923 45.0017 18.8662 33.0636C18.8662 32.8379 19.0664 31.609 18.7412 31.5087C19.1164 30.3299 17.1402 29.8534 16.9901 31.3582C16.9583 31.9764 16.9583 32.5959 16.9901 33.2141C19.4916 54.0556 18.3409 53.8801 19.6417 56.7643C21.1176 60.0498 27.5215 59.4228 29.1726 56.4132C30.3483 54.4318 29.948 53.3032 26.9462 23.4329ZM27.1213 55.2595C26.3959 56.664 22.4935 57.2408 21.818 55.8112C21.1178 53.4949 20.7802 51.0836 20.8174 48.6634C22.76 49.0501 24.7758 48.7765 26.5459 47.8859L27.0212 50.5193C26.8962 52.1245 27.6967 54.1058 27.1213 55.2595Z" fill="black"/>
<path fill-rule="evenodd" clip-rule="evenodd" d="M59.9667 7.6323C58.5409 1.98928 46.9588 -2.90133 39.5792 2.03944C30.6738 7.98342 33.1253 21.8025 30.4736 47.1835C30.8489 49.6916 31.8245 49.6916 35.3016 50.5443C35.509 50.5631 35.7163 50.5071 35.8863 50.3864C36.0562 50.2658 36.1777 50.0883 36.229 49.8859C36.2802 49.6835 36.2578 49.4695 36.1657 49.2822C36.0737 49.0948 35.9181 48.9466 35.7269 48.8639C32.4498 48.0112 32.4498 48.1115 32.4498 47.1083C36.0521 23.9845 32.4498 0.760358 48.6348 2.99248C51.1878 3.14821 53.6205 4.13439 55.564 5.80145C58.4908 8.30946 57.4902 9.41298 57.14 13.7518C57.1903 15.4429 56.9965 17.1324 56.5647 18.7678C54.9637 22.5048 48.4597 23.834 43.7818 22.3041C42.3559 21.8527 40.1296 20.5736 39.6543 21.7273C39.576 21.9042 39.5687 22.1045 39.6339 22.2867C39.6991 22.4689 39.8318 22.6188 40.0045 22.7054C40.5486 22.6577 41.0933 22.7898 41.5554 23.0816C43.7858 24.237 46.2774 24.7913 48.7859 24.6902C51.2944 24.589 53.7336 23.836 55.8642 22.5048C59.2163 19.9968 58.9411 17.6894 59.3914 13.9274C59.8909 11.8688 60.0847 9.74761 59.9667 7.6323Z" fill="black"/>
<path fill-rule="evenodd" clip-rule="evenodd" d="M41.2795 34.2423C42.7208 31.1093 43.2497 27.6317 42.8054 24.2103C42.4302 22.8058 41.1544 23.1569 41.0043 23.9595C40.8542 24.7621 40.554 25.3389 40.2038 27.2199C40.0287 28.0726 39.7285 33.3144 39.7785 33.9414C39.7387 34.1409 39.7796 34.3481 39.8922 34.5175C40.0048 34.6868 40.1799 34.8043 40.3789 34.8442C40.5779 34.8842 40.7846 34.8432 40.9535 34.7303C41.1224 34.6174 41.2397 34.4419 41.2795 34.2423Z" fill="black"/>
<path fill-rule="evenodd" clip-rule="evenodd" d="M6.83419 14.4038C6.61517 15.0925 6.44793 15.7968 6.33388 16.5105C5.66345 18.9598 5.51009 21.5224 5.88361 24.0346C5.99831 24.6787 6.29808 25.2753 6.74613 25.751C7.19418 26.2268 7.77101 26.5611 8.40585 26.7129C9.04069 26.8647 9.70592 26.8274 10.3199 26.6056C10.9339 26.3837 11.47 25.987 11.8623 25.4641C13.0158 23.1276 13.2481 20.4408 12.5127 17.9401C10.9367 11.7955 7.43456 13.3254 6.83419 14.4038ZM9.93609 23.3825C9.81102 23.6333 9.76099 23.9593 9.4608 23.9593C8.71034 23.9593 8.46019 22.3291 8.38514 21.5767C7.80979 16.5607 9.41077 10.9177 10.5114 18.3163C10.7734 20.0263 10.5748 21.7753 9.93609 23.3825Z" fill="black"/>
<path fill-rule="evenodd" clip-rule="evenodd" d="M50.4107 19.796C54.9635 19.796 54.5132 13.9022 53.4375 9.46302C53.3356 8.74687 53.1681 8.04165 52.9372 7.35629C52.3369 6.02705 49.7353 6.40325 49.5351 6.60389C45.983 10.1402 45.6077 19.7208 50.4107 19.796ZM49.4101 11.2688C50.3857 4.62257 51.4613 9.31254 51.5113 9.81414C52.1617 16.2346 50.3857 18.9934 49.5601 15.106C49.269 13.8479 49.2181 12.5459 49.4101 11.2688Z" fill="black"/>
<path fill-rule="evenodd" clip-rule="evenodd" d="M58.14 40.9137C57.1644 36.3993 53.3371 37.7787 52.8868 37.578C52.8868 36.951 53.1369 35.8726 53.0619 35.5465C52.3364 33.0385 48.8593 32.8881 46.4328 33.5652C43.556 34.3678 44.4316 37.6282 44.3315 38.1047C44.1315 38.0947 43.9312 38.0947 43.7312 38.1047C39.4535 38.1047 39.9538 41.6661 39.9538 44.5754C39.9538 49.1149 39.4285 57.943 43.6061 59.6234C45.8575 60.5764 52.9618 59.498 55.0881 58.8459C57.2144 58.1938 57.2645 55.6608 57.5897 53.4788C58.4161 49.3437 58.6017 45.1055 58.14 40.9137ZM45.107 40.9137C45.6711 40.7699 46.1746 40.4489 46.5437 39.9976C46.9128 39.5463 47.1281 38.9885 47.1583 38.4057V36.7002C47.1583 36.5498 47.0082 36.3491 47.1583 36.2739C48.0955 36.0481 49.0728 36.0481 50.01 36.2739C50.01 36.2739 50.2351 36.2739 50.2602 36.2739C50.3852 36.7253 50.2602 38.0796 50.3852 38.7819C50.9106 40.5375 52.8868 40.3368 54.2376 40.2616C55.5884 40.1864 55.8136 42.7696 55.9387 44.5252C51.5347 43.8289 47.0366 44.0165 42.7055 45.077C43.0057 39.1832 42.3053 41.6912 45.107 40.9889V40.9137ZM54.6128 57.0903C51.9112 58.0434 46.1827 58.6954 44.4816 57.8678C41.9801 56.689 42.4554 49.466 42.6055 46.7573C47.1137 47.0863 51.6446 46.9096 56.1138 46.2307C56.1638 48.1367 55.9136 56.7141 54.6128 57.1656V57.0903Z" fill="black"/>
</g>
<defs>
<clipPath id="clip0_118_3369">
<rect width="60" height="60" fill="white"/>
</clipPath>
</defs>
</svg>
