<svg width="60" height="60" viewBox="0 0 60 60" fill="none" xmlns="http://www.w3.org/2000/svg">
<g clip-path="url(#clip0_161_6936)">
<path d="M58.0755 28.0999C57.2755 22.5499 56.3255 16.9749 55.4255 12.8999C55.0624 10.5362 54.3372 8.24264 53.2755 6.09988C52.772 5.4804 52.0441 5.08501 51.2505 4.99988C50.0951 4.95878 48.9402 5.09366 47.8254 5.39988C45.029 5.65706 42.2653 6.19305 39.5755 6.99988C38.2478 7.48003 37.0971 8.35178 36.2755 9.49988C36.0987 9.09641 35.8339 8.73764 35.5005 8.44988C35.0488 8.13532 34.5388 7.91431 34.0005 7.79988C33.1072 7.64637 32.2056 7.54619 31.3005 7.49988C29.0979 7.27316 26.878 7.27316 24.6755 7.49988C22.7898 7.62539 20.9172 7.90127 19.0755 8.32488C18.6634 7.94014 18.1667 7.65755 17.6255 7.49988C16.4305 7.34383 15.2204 7.34383 14.0255 7.49988C11.0156 7.32153 7.99586 7.40518 5.00045 7.74988C3.48412 8.00678 2.0762 8.70205 0.950453 9.74988C0.36819 10.5521 0.0375214 11.5093 0.000453383 12.4999C-0.149547 15.1749 0.250453 19.6499 0.250453 20.4999C0.250453 26.8749 0.525453 33.1999 0.900453 39.4999C1.15045 43.7249 1.50045 47.9499 2.05045 52.1999C2.09582 52.3686 2.20058 52.5152 2.34545 52.6128C2.49032 52.7105 2.66556 52.7525 2.83895 52.7312C3.01233 52.7099 3.1722 52.6267 3.28915 52.4969C3.40609 52.3672 3.47225 52.1995 3.47545 52.0249C3.07545 47.8249 2.85045 43.6249 2.72545 39.5249C2.55045 33.2249 2.72545 27.0249 2.72545 20.5999C2.72545 19.9499 2.57545 17.1499 2.60045 14.6749C2.57493 13.6566 2.68421 12.6395 2.92545 11.6499C3.98681 10.7992 5.29157 10.3089 6.65045 10.2499C9.15045 9.94988 12.1755 10.2499 14.1505 10.2499H16.3505C16.7755 10.2499 17.2005 10.2499 17.3755 10.4499C18.0445 11.7613 18.3386 13.232 18.2255 14.6999C18.2255 17.4249 17.7255 20.3499 17.7005 22.3749C17.7005 29.2749 18.0005 36.2249 18.0005 43.1499C18.0005 46.0749 17.7505 52.2999 17.8505 52.4499C16.2755 52.2749 14.6755 52.0999 13.0255 52.0499C12.326 52.0124 11.625 52.0124 10.9255 52.0499C10.2214 52.0947 9.52035 52.1782 8.82545 52.2999C7.18727 52.6352 5.58126 53.112 4.02545 53.7249C3.93474 53.7454 3.84903 53.7839 3.77334 53.8379C3.69765 53.892 3.63348 53.9606 3.58461 54.0397C3.53573 54.1189 3.50311 54.2069 3.48866 54.2988C3.47421 54.3907 3.47822 54.4846 3.50045 54.5749C3.54795 54.7613 3.66525 54.9223 3.8281 55.0247C3.99095 55.127 4.1869 55.1629 4.37545 55.1249C5.90045 54.9249 7.47545 54.9499 9.10045 54.8999L11.1005 54.7749L13.1255 54.5999C14.7505 54.4249 16.3505 54.1999 17.9005 54.0749C18.1127 54.07 18.3163 53.9903 18.4755 53.8499C20.4521 54.0501 22.4394 54.1252 24.4255 54.0749C25.6755 54.0749 26.9255 53.8999 28.1255 53.7749C29.9505 53.5999 33.7005 53.3749 33.7505 53.3749C33.8017 53.5573 33.9142 53.7165 34.0689 53.8258C34.2237 53.935 34.4114 53.9877 34.6005 53.9749C34.707 53.9689 34.8111 53.941 34.9063 53.893C35.0015 53.8449 35.0858 53.7777 35.1539 53.6956C35.2219 53.6134 35.2723 53.5181 35.3018 53.4156C35.3313 53.3131 35.3394 53.2056 35.3255 53.0999C35.1505 49.8999 35.1505 46.7249 35.3255 43.5249C35.4755 39.0249 35.9005 34.5499 36.2255 30.0749C36.6005 24.7499 36.6505 21.7999 36.8005 19.2999C38.2005 27.6999 38.7755 36.1499 40.2755 43.1499C41.4755 48.9249 42.5505 51.9499 44.6755 53.1499C46.3505 54.0249 48.6755 53.6249 52.1755 53.1499C54.1749 52.9025 56.1436 52.4502 58.0505 51.7999C58.6738 51.5936 59.2393 51.2423 59.7004 50.7749C60.0583 49.8525 60.1619 48.851 60.0005 47.8749C59.7627 41.2501 59.1199 34.6461 58.0755 28.0999ZM27.3005 51.0749C26.0373 51.0993 24.7767 51.1994 23.5255 51.3749C22.0755 51.5749 20.6755 51.8499 19.2505 52.0749C19.5505 49.1249 19.7005 46.1249 19.7755 43.1499C19.9755 36.2499 19.7755 29.3249 20.0505 22.3999C20.0505 20.0499 20.9005 16.3999 20.7505 13.2999C20.7472 12.0453 20.4922 10.8041 20.0005 9.64988C21.5727 9.4036 23.1595 9.26163 24.7505 9.22488C26.8278 9.17434 28.905 9.33348 30.9505 9.69988C31.5505 9.69988 32.4005 9.87488 33.1505 10.0249C33.4472 10.0666 33.7299 10.178 33.9755 10.3499C34.1467 10.5631 34.2433 10.8265 34.2505 11.0999V12.5749L33.8005 20.8249C33.8005 24.0499 33.5255 27.2499 33.3755 30.4499C33.2255 33.6499 33.1505 36.9249 33.1005 40.1499C33.1005 43.9999 33.1005 47.8249 33.4755 51.6499C31.4402 51.2618 29.3724 51.0693 27.3005 51.0749ZM57.1005 49.8499C55.3439 50.4925 53.526 50.9533 51.6755 51.2249C48.3755 51.7499 46.3755 52.0499 45.0005 51.2249C43.6255 50.3999 42.7255 47.8749 41.8005 42.7749C40.5255 35.8249 40.1005 26.5249 39.3005 19.8499C39.3005 19.1999 38.8005 16.5249 38.6005 14.1249C38.5437 13.2925 38.5437 12.4573 38.6005 11.6249V11.0999C39.3871 10.1584 40.4722 9.51445 41.6755 9.27488C43.9058 8.80241 46.1587 8.44361 48.4255 8.19988C48.8005 8.19988 49.4255 7.97488 50.0755 7.87488C50.3332 7.84996 50.5927 7.84996 50.8505 7.87488H51.2255C52.0113 9.69852 52.5657 11.6134 52.8755 13.5749C53.8005 17.6249 54.8255 23.0749 55.7255 28.5749C56.9075 34.9878 57.7006 41.4663 58.1005 47.9749C58.0164 48.7039 57.659 49.3739 57.1005 49.8499Z" fill="black"/>
<path d="M12.3505 32.6249C12.5561 32.6883 12.7783 32.6689 12.9698 32.5708C13.1612 32.4728 13.3068 32.3038 13.3755 32.0999C13.6191 31.2825 13.7947 30.4463 13.9005 29.5999C14.1255 27.8249 14.0755 25.9749 14.2005 24.1999L14.4505 18.9249C14.4514 17.8704 14.317 16.8202 14.0505 15.7999C13.8387 15.009 13.4545 14.2748 12.9255 13.6499C12.5282 13.1784 12.0402 12.7916 11.4905 12.5125C10.9408 12.2333 10.3406 12.0675 9.7255 12.0249C9.04306 11.9407 8.35077 12.0537 7.73052 12.3505C7.11028 12.6473 6.58801 13.1156 6.2255 13.6999C5.7576 14.4652 5.44341 15.3144 5.3005 16.1999C5.22666 17.3654 5.22666 18.5344 5.3005 19.6999C5.3005 21.7499 5.3005 23.8749 5.5005 25.9499C5.60636 27.3902 5.86618 28.815 6.2755 30.1999C6.58895 31.4845 7.29714 32.6386 8.3005 33.4999C8.84447 33.9277 9.49306 34.202 10.1789 34.2943C10.8647 34.3866 11.5628 34.2936 12.2005 34.0249C12.3148 33.9456 12.4039 33.8351 12.4571 33.7065C12.5102 33.5779 12.5253 33.4368 12.5005 33.2999C12.4377 33.1221 12.3102 32.9744 12.1434 32.8864C11.9766 32.7984 11.7828 32.7764 11.6005 32.8249C11.1838 32.9834 10.7322 33.0276 10.2926 32.9529C9.85304 32.8782 9.44145 32.6873 9.1005 32.3999C8.45036 31.7085 8.0235 30.8374 7.8755 29.8999C7.61217 28.6085 7.48646 27.2928 7.5005 25.9749C7.5005 23.9499 7.5005 21.8749 7.7005 19.8749C7.74004 18.8449 7.84022 17.8181 8.0005 16.7999C8.08039 16.2558 8.25826 15.7306 8.5255 15.2499C8.63453 15.09 8.78562 14.9634 8.96209 14.884C9.13856 14.8046 9.33354 14.7755 9.5255 14.7999C10.0559 14.8381 10.554 15.0694 10.9255 15.4499C11.3169 15.892 11.5919 16.4248 11.7255 16.9999C11.9068 17.6951 12.0157 18.4073 12.0505 19.1249V24.1249V28.7499C12.0466 29.7021 11.9291 30.6505 11.7005 31.5749C11.6625 31.6867 11.6498 31.8055 11.6632 31.9227C11.6765 32.04 11.7157 32.1529 11.7778 32.2532C11.8399 32.3536 11.9235 32.439 12.0225 32.5032C12.1215 32.5675 12.2335 32.609 12.3505 32.6249Z" fill="black"/>
<path d="M30.7757 19.05C30.7532 18.4802 30.6948 17.9124 30.6007 17.35C30.2295 15.6506 29.3589 14.1009 28.1007 12.9C27.7026 12.5448 27.2196 12.2984 26.6985 12.1845C26.1773 12.0706 25.6356 12.0932 25.1257 12.25C24.693 12.3973 24.296 12.6336 23.9602 12.9436C23.6243 13.2536 23.3571 13.6305 23.1757 14.05C22.7307 15.397 22.5028 16.8063 22.5007 18.225C22.35 20.4724 22.35 22.7275 22.5007 24.975C22.5896 26.512 22.8325 28.0363 23.2257 29.525C23.4075 30.6085 23.8541 31.6304 24.5257 32.5C25.5757 33.525 26.7757 34.475 28.0257 33.7C29.2101 32.8555 30.0175 31.5815 30.2757 30.15C30.7327 27.2572 30.8835 24.3243 30.7257 21.4C30.7507 20.625 30.7757 19.825 30.7757 19.05ZM28.6257 28.625C28.2007 33.9 25.9007 31.85 25.4257 31.125C25.0637 30.5105 24.8259 29.831 24.7257 29.125C24.4959 27.7622 24.3871 26.3818 24.4007 25C24.455 22.8306 24.6554 20.6674 25.0007 18.525C25.0737 17.6847 25.199 16.8497 25.3757 16.025C25.5257 15.525 25.5757 14.975 25.9757 14.85C26.3757 14.725 26.6757 15.225 26.9757 15.65C27.4659 16.3203 27.8302 17.0743 28.0507 17.875C28.1539 18.3103 28.2208 18.7535 28.2507 19.2V21.375C28.5299 23.7812 28.6551 26.2028 28.6257 28.625Z" fill="black"/>
<path d="M51.6751 32.5C52.4243 29.6475 52.4928 26.6588 51.8751 23.775L51.5251 20.775C51.4193 20.1259 51.2774 19.4833 51.1001 18.85C50.9241 18.1979 50.6724 17.5686 50.3501 16.975C49.7263 15.7889 48.8771 14.7359 47.8501 13.875C47.4335 13.4945 46.9438 13.203 46.4108 13.0181C45.8778 12.8333 45.3127 12.7591 44.7501 12.8C44.0965 12.8724 43.4762 13.1262 42.9594 13.5326C42.4425 13.9391 42.0496 14.482 41.8251 15.1C41.3739 16.4599 41.2038 17.8973 41.3251 19.325C41.4127 21.6094 41.6213 23.8876 41.9501 26.15C42.1986 27.6971 42.6092 29.2138 43.1751 30.675C43.5642 31.8939 44.3139 32.9661 45.3251 33.75C50.0001 36.7 51.4751 33.075 51.6751 32.5ZM44.9501 30C44.5398 28.6312 44.2717 27.2238 44.1501 25.8C43.9501 23.575 44.0001 21.3 44.0001 19.175C43.9637 18.2748 44.0563 17.374 44.2751 16.5C44.4001 16 44.6001 15.525 45.1501 15.425C45.4253 15.4462 45.6928 15.5264 45.9344 15.6601C46.176 15.7939 46.3859 15.978 46.5501 16.2C47.1291 16.779 47.6254 17.4352 48.0251 18.15C48.2689 18.6 48.4779 19.068 48.6501 19.55C48.8269 20.0734 48.9689 20.6079 49.0751 21.15L49.6001 24C50.145 26.2147 50.364 28.4971 50.2501 30.775C49.6251 34.775 46.0501 32.175 46.0001 32.125C45.5427 31.5465 45.2029 30.884 45.0001 30.175L44.9501 30Z" fill="black"/>
<path d="M6.77581 47.7749C7.50371 48.1928 8.3086 48.4591 9.14207 48.5579C9.97554 48.6567 10.8204 48.586 11.6258 48.3499C12.4522 47.9795 13.1396 47.3562 13.5889 46.5699C14.0382 45.7836 14.2262 44.8749 14.1258 43.9749C14.1407 43.1297 13.884 42.3019 13.3935 41.6134C12.903 40.9249 12.2045 40.4119 11.4008 40.1499C11.2549 40.1004 11.0967 40.1004 10.9508 40.1499C10.8782 39.9699 10.7387 39.8251 10.5615 39.7458C10.3844 39.6666 10.1834 39.6591 10.0008 39.7249C8.97008 40.0653 8.00591 40.5812 7.15081 41.2499C6.23672 42.0269 5.5824 43.0651 5.27581 44.2249C5.08383 44.899 5.12788 45.6184 5.40068 46.264C5.67348 46.9097 6.15865 47.4427 6.77581 47.7749ZM8.42581 42.4999C8.97131 41.9045 9.61373 41.4057 10.3258 41.0249C10.3615 41.1634 10.4337 41.2898 10.5348 41.3909C10.6359 41.492 10.7623 41.5642 10.9008 41.5999C11.7258 41.8999 11.9508 42.9249 11.9008 43.8749C11.9313 44.2624 11.8422 44.65 11.6455 44.9853C11.4488 45.3205 11.154 45.5874 10.8008 45.7499C10.0454 45.9049 9.26061 45.8265 8.55081 45.5249C8.05081 45.3499 7.47581 45.1499 7.57581 44.6249C7.64323 43.8482 7.93898 43.1088 8.42581 42.4999Z" fill="black"/>
<path d="M29.3505 40.7248C29.1776 40.5935 28.96 40.5356 28.7447 40.5636C28.5294 40.5917 28.3339 40.7035 28.2005 40.8748C28.1348 40.9569 28.0859 41.0511 28.0566 41.152C28.0273 41.253 28.0182 41.3587 28.0298 41.4632C28.0415 41.5677 28.0735 41.6689 28.1243 41.7609C28.175 41.853 28.2434 41.9342 28.3255 41.9998C28.6505 42.2998 28.5005 42.8748 28.3255 43.4498C28.1904 43.9117 27.97 44.3442 27.6755 44.7248C27.5005 44.9998 27.5005 44.9998 27.3005 44.9998C26.9366 45.0309 26.5706 44.9718 26.2349 44.8279C25.8991 44.6841 25.604 44.4598 25.3755 44.1748C25.0564 43.8568 24.8766 43.4252 24.8755 42.9748C24.9446 42.5346 25.1643 42.1319 25.4971 41.8356C25.8299 41.5393 26.2552 41.3676 26.7005 41.3498C26.8928 41.3498 27.0772 41.2734 27.2132 41.1374C27.3491 41.0015 27.4255 40.8171 27.4255 40.6248C27.4255 40.4325 27.3491 40.2481 27.2132 40.1121C27.0772 39.9762 26.8928 39.8998 26.7005 39.8998C26.1376 39.7982 25.5585 39.8322 25.0114 39.9989C24.4642 40.1657 23.9646 40.4605 23.5541 40.8588C23.1435 41.2571 22.8338 41.7475 22.6506 42.2894C22.4674 42.8313 22.4159 43.4091 22.5005 43.9748C22.5852 44.9258 23.0115 45.8139 23.7005 46.4748C24.1908 46.9159 24.7635 47.2556 25.3856 47.4744C26.0078 47.6933 26.667 47.7868 27.3255 47.7498C27.9611 47.6261 28.549 47.326 29.022 46.8839C29.4951 46.4418 29.8341 45.8755 30.0005 45.2498C30.6005 43.5498 30.4505 41.4748 29.3505 40.7248Z" fill="black"/>
<path d="M52.0504 38.8248C51.8512 38.7407 51.627 38.7381 51.426 38.8175C51.2249 38.897 51.0631 39.0522 50.9754 39.2498C50.9349 39.3482 50.9144 39.4536 50.9152 39.56C50.916 39.6664 50.938 39.7715 50.9799 39.8693C51.0218 39.9671 51.0828 40.0555 51.1593 40.1294C51.2357 40.2033 51.3262 40.2613 51.4254 40.2998C51.6553 40.4353 51.831 40.6467 51.9222 40.8975C52.0134 41.1484 52.0146 41.4232 51.9254 41.6748C51.8586 41.9097 51.7271 42.121 51.5458 42.2846C51.3645 42.4482 51.1408 42.5574 50.9004 42.5998C50.3891 42.7695 49.8366 42.7695 49.3254 42.5998C49.0317 42.535 48.7628 42.3875 48.5504 42.1748C48.3254 41.8998 48.3504 41.5248 48.7504 41.0748L49.8504 40.1748C49.9393 40.1391 50.0203 40.0861 50.0887 40.0189C50.157 39.9517 50.2114 39.8716 50.2486 39.7833C50.2858 39.6949 50.3051 39.6001 50.3054 39.5042C50.3057 39.4084 50.287 39.3134 50.2504 39.2248C50.1687 39.0539 50.0253 38.9202 49.849 38.8506C49.6728 38.781 49.4768 38.7808 49.3004 38.8498C48.9923 38.9446 48.6915 39.0616 48.4004 39.1998C48.0949 39.3507 47.8022 39.5262 47.5254 39.7248C47.2002 39.902 46.9138 40.1424 46.6831 40.4319C46.4523 40.7215 46.2818 41.0543 46.1816 41.4107C46.0814 41.7672 46.0536 42.1401 46.0998 42.5074C46.1459 42.8748 46.2651 43.2292 46.4504 43.5498C46.8785 44.2724 47.5397 44.8278 48.3254 45.1248C49.4163 45.516 50.6094 45.516 51.7004 45.1248C52.3467 44.871 52.9093 44.4415 53.3246 43.8849C53.7398 43.3283 53.9912 42.6667 54.0504 41.9748C54.1311 41.2997 53.9761 40.6174 53.6116 40.0434C53.2472 39.4694 52.6957 39.039 52.0504 38.8248Z" fill="black"/>
</g>
<defs>
<clipPath id="clip0_161_6936">
<rect width="60" height="60" fill="white"/>
</clipPath>
</defs>
</svg>
