<svg width="60" height="60" viewBox="0 0 60 60" fill="none" xmlns="http://www.w3.org/2000/svg">
<g clip-path="url(#clip0_165_7351)">
<path fill-rule="evenodd" clip-rule="evenodd" d="M37.7755 35.6003C37.5769 32.5395 37.1507 29.4978 36.5005 26.5003C36.4635 26.2749 36.3421 26.072 36.1611 25.9327C35.98 25.7935 35.7528 25.7282 35.5255 25.7503C35.4133 25.7656 35.3054 25.803 35.2079 25.8606C35.1105 25.9181 35.0255 25.9945 34.9579 26.0853C34.8904 26.1762 34.8417 26.2795 34.8147 26.3894C34.7876 26.4993 34.7828 26.6135 34.8005 26.7253C34.8005 28.2253 34.9505 29.7003 34.9755 31.2003C35.0005 32.7003 34.9755 34.7003 34.9755 36.4503V41.7003L35.2505 45.0003C35.2609 45.2426 35.3591 45.4728 35.5266 45.6481C35.6942 45.8234 35.9197 45.9319 36.1613 45.9533C36.4028 45.9747 36.644 45.9076 36.8397 45.7645C37.0355 45.6214 37.1726 45.412 37.2255 45.1753L37.7255 41.7003C37.7755 39.7003 37.9005 37.6503 37.7755 35.6003Z" fill="black"/>
<path fill-rule="evenodd" clip-rule="evenodd" d="M55.7751 12.2751C54.8228 10.169 53.1461 8.47455 51.0501 7.50015C49.0296 6.47511 46.7285 6.14137 44.5001 6.55015C43.6285 6.73091 42.7869 7.0339 42.0001 7.45015L41.4251 7.80015C41.4334 7.70867 41.4334 7.61663 41.4251 7.52515C40.4673 5.92588 39.3625 4.41936 38.1251 3.02515C37.1853 2.04583 36.0533 1.2713 34.8001 0.750146C32.8786 0.0272459 30.8013 -0.179622 28.7751 0.150146C26.8023 0.505357 24.9376 1.3094 23.3251 2.50015C22.5258 3.09863 21.84 3.83523 21.3001 4.67515C20.9157 5.29246 20.6605 5.98136 20.5501 6.70015C17.7816 5.29487 14.6545 4.7548 11.5751 5.15015C9.92245 5.35321 8.35465 5.99623 7.03538 7.01207C5.71611 8.0279 4.69376 9.3793 4.07508 10.9251C3.37943 12.7097 3.3264 14.6807 3.92508 16.5001C4.75057 19.0835 6.33635 21.3576 8.47508 23.0251L11.7501 25.3251L12.1751 25.5751L11.4751 27.7751C10.9702 29.4069 10.6105 31.0801 10.4001 32.7751C10.1273 34.8975 9.99367 37.0354 10.0001 39.1751C10.0001 42.3251 10.0001 45.4751 10.1501 48.5751C10.0092 51.0546 10.3314 53.5386 11.1001 55.9001C11.3657 56.5433 11.7667 57.1218 12.2757 57.5963C12.7847 58.0708 13.3899 58.4302 14.0501 58.6501C15.2931 59.008 16.5644 59.2589 17.8501 59.4001C20.6001 59.7001 23.3751 59.5751 26.2251 59.8501C27.8901 59.9544 29.56 59.9544 31.2251 59.8501C32.9251 59.8501 34.6001 59.6501 36.2251 59.4501C38.1751 59.2251 40.0001 59.4501 41.8751 59.2001C42.7706 59.1335 43.6578 58.9829 44.5251 58.7501C45.0501 58.6001 45.8001 58.4751 46.4251 58.2751C46.8172 58.1478 47.188 57.9624 47.5251 57.7251C48.2642 57.1212 48.7757 56.2836 48.9751 55.3501C49.2413 53.8397 49.3751 52.3089 49.3751 50.7751C49.571 47.9045 49.6211 45.0258 49.5251 42.1501C49.408 39.2695 49.1242 36.398 48.6751 33.5501C48.4251 31.8501 47.6751 27.5751 47.3751 25.7251V25.5501L47.5001 25.5001L51.4251 23.9251C53.4836 22.8908 55.0608 21.0985 55.8251 18.9251C56.6406 16.7802 56.6228 14.4076 55.7751 12.2751ZM46.4501 50.7001C46.4191 51.8957 46.3273 53.0889 46.1751 54.2751C46.1751 54.8001 46.0001 55.3251 45.6501 55.5751L43.5751 56.1251C42.8718 56.3127 42.1516 56.4299 41.4251 56.4751C39.5251 56.6251 37.6751 56.4751 35.6751 56.7251C34.2501 56.9001 32.6501 57.0251 31.0251 57.0751C29.5022 57.1893 27.9729 57.1893 26.4501 57.0751C23.6251 56.8001 20.8501 56.9251 18.1001 56.6251C17.0003 56.5137 15.9127 56.3045 14.8501 56.0001C14.4658 55.8275 14.1313 55.5604 13.8778 55.2239C13.6243 54.8874 13.46 54.4922 13.4001 54.0751C13.0139 52.438 12.8541 50.7557 12.9251 49.0751C13.2874 49.2292 13.6643 49.3465 14.0501 49.4251C15.2251 49.6501 16.5501 49.7251 17.5751 49.8751C19.4587 50.0955 21.3537 50.204 23.2501 50.2001C26.0251 50.2001 28.7751 49.9001 31.5751 49.8001H36.9501L43.5501 49.1001L46.5501 48.8751C46.5001 49.4251 46.5001 50.0001 46.4501 50.7001ZM53.9501 18.2001C53.3759 19.8235 52.1924 21.1595 50.6501 21.9251L46.8251 23.3751C46.3199 23.5412 45.8403 23.7768 45.4001 24.0751C45.1668 24.2687 44.9862 24.5181 44.8751 24.8001C44.8096 25.2813 44.8096 25.769 44.8751 26.2501C45.1501 28.1001 45.8251 32.3751 46.0251 34.0751C46.4257 36.8335 46.6595 39.6136 46.7251 42.4001V46.9501H43.6251C43.3751 46.9501 39.1001 47.1751 31.6251 46.9501L26.6251 47.2751C23.7026 47.6918 20.7517 47.8757 17.8001 47.8251H14.3751C13.8641 47.776 13.3606 47.6669 12.8751 47.5001C12.8751 44.8001 12.6251 42.0501 12.6251 39.3251C12.6073 37.2954 12.7159 35.2664 12.9501 33.2501C12.9501 32.4501 13.1501 31.6751 13.3001 30.9001C13.4501 30.1251 13.6251 29.3751 13.8501 28.6001C14.0751 27.8251 14.3251 27.3251 14.5001 26.6751C14.603 26.3075 14.67 25.9307 14.7001 25.5501C14.715 25.3124 14.6804 25.0742 14.5987 24.8504C14.5169 24.6267 14.3897 24.4223 14.2251 24.2501C13.8675 23.9181 13.4632 23.6401 13.0251 23.4251L10.0001 21.2251C8.4684 20.0886 7.22643 18.6069 6.37508 16.9001C5.969 16.11 5.73254 15.2437 5.68088 14.3568C5.62922 13.47 5.76349 12.5821 6.07508 11.7501C6.70436 10.2098 7.80536 8.90837 9.22014 8.03256C10.6349 7.15674 12.2907 6.75156 13.9501 6.87515C17.4476 6.89137 20.8115 8.22085 23.3751 10.6001C23.9609 11.1792 24.428 11.8671 24.7501 12.6251C25.2612 13.8517 25.6547 15.1241 25.9251 16.4251C25.9454 16.5218 25.9853 16.6133 26.0423 16.6939C26.0993 16.7746 26.1722 16.8428 26.2564 16.8943C26.3407 16.9458 26.4346 16.9795 26.5324 16.9934C26.6302 17.0073 26.7298 17.0011 26.8251 16.9751C26.9311 16.9667 27.0342 16.9358 27.1274 16.8845C27.2206 16.8332 27.3019 16.7626 27.3657 16.6775C27.4296 16.5924 27.4746 16.4946 27.4977 16.3908C27.5209 16.2869 27.5217 16.1793 27.5001 16.0751C27.2498 14.6719 26.856 13.298 26.3251 11.9751C25.9251 11.052 25.3667 10.2059 24.6751 9.47515C23.9183 8.72527 23.0797 8.06279 22.1751 7.50015C22.2765 6.88179 22.5444 6.30274 22.9501 5.82515C23.4627 5.27298 24.0623 4.80849 24.7251 4.45015C26.1574 3.67416 27.7294 3.18983 29.3501 3.02515C30.913 2.78077 32.511 2.89185 34.0251 3.35015C35.0102 3.64905 35.9215 4.15157 36.7001 4.82515C37.9297 5.96403 39.0358 7.22936 40.0001 8.60015H40.1751L39.0251 9.45015C38.0859 10.1705 37.2454 11.011 36.5251 11.9501C35.9879 12.6334 35.5889 13.4145 35.3501 14.2501C35.3205 14.3585 35.3126 14.4716 35.3268 14.583C35.3409 14.6944 35.3769 14.8019 35.4326 14.8994C35.4883 14.9969 35.5627 15.0825 35.6515 15.1512C35.7403 15.22 35.8417 15.2706 35.9501 15.3001C36.0584 15.3297 36.1715 15.3376 36.2829 15.3235C36.3943 15.3093 36.5018 15.2733 36.5993 15.2176C36.6968 15.1619 36.7824 15.0875 36.8512 14.9987C36.9199 14.9099 36.9705 14.8085 37.0001 14.7001C37.1835 14.0866 37.4897 13.5167 37.9001 13.0251C38.5839 12.2304 39.3651 11.5249 40.2251 10.9251C41.1037 10.2367 42.0405 9.62604 43.0251 9.10015C43.6459 8.78278 44.3121 8.56351 45.0001 8.45015C46.8122 8.15899 48.6699 8.45692 50.3001 9.30015C51.9377 10.0899 53.2406 11.437 53.9751 13.1001C54.5733 14.7388 54.5286 16.5431 53.8501 18.1501L53.9501 18.2001Z" fill="black"/>
<path fill-rule="evenodd" clip-rule="evenodd" d="M23.7246 40.3001V33.8251C23.7246 32.4001 23.5746 30.8001 23.7246 29.2751C23.7234 28.3502 23.8668 27.4308 24.1496 26.5501C24.1956 26.4484 24.2211 26.3385 24.2247 26.2269C24.2282 26.1153 24.2097 26.004 24.1702 25.8996C24.1308 25.7951 24.0711 25.6994 23.9946 25.618C23.9182 25.5366 23.8264 25.4711 23.7246 25.4251C23.5153 25.3405 23.2813 25.34 23.0716 25.4239C22.8619 25.5078 22.6928 25.6695 22.5996 25.8751C22.1119 26.8834 21.791 27.9641 21.6496 29.0751C21.3996 30.6001 21.3496 32.2251 21.1746 33.6501C21.1746 34.5501 20.9996 35.4251 20.9746 36.3251V40.2251C20.9746 42.0751 21.1996 43.8751 21.1746 45.7001C21.1746 46.6251 22.6746 47.2751 23.0246 45.7001C23.368 43.9161 23.6018 42.1128 23.7246 40.3001Z" fill="black"/>
</g>
<defs>
<clipPath id="clip0_165_7351">
<rect width="60" height="60" fill="white"/>
</clipPath>
</defs>
</svg>
