<svg width="60" height="60" viewBox="0 0 60 60" fill="none" xmlns="http://www.w3.org/2000/svg">
<path fill-rule="evenodd" clip-rule="evenodd" d="M17.7493 50.4115C17.7493 48.7015 18.2135 46.283 18.238 43.4493C18.2625 40.6155 18.238 37.0978 18.238 33.9465C18.238 31.7968 18.0425 29.6715 17.896 27.5708C17.7493 25.079 17.7493 24.3218 17.4073 21.7323C17.4073 21.1705 17.2363 19.5093 17.212 18.9475C16.87 17.8238 15.5508 18.0193 15.624 18.9475V27.644V32.0655V38.7103C15.624 40.298 15.624 41.886 15.8195 43.4738C15.9905 46.2585 15.8195 48.506 15.8195 50.8023V53.2453C15.935 53.9505 16.7705 54.266 17.3235 53.8135C17.4985 53.6703 17.615 53.4683 17.6515 53.2453C17.7493 52.7565 17.7493 51.0223 17.7493 50.4115Z" fill="black"/>
<path fill-rule="evenodd" clip-rule="evenodd" d="M59.0088 25.5432C59.108 23.9159 59.108 22.2844 59.0088 20.6574C58.8653 19.3984 58.3558 18.2094 57.543 17.2374C56.394 16.1907 54.9545 15.5177 53.4145 15.3074C50.4218 14.7212 47.3768 14.4427 44.3271 14.4769C42.8613 14.4769 41.3958 14.4769 39.9055 14.5992L40.101 7.2704C40.1005 6.23365 39.9775 5.2004 39.7345 4.1924C39.573 3.59665 39.252 3.05615 38.8063 2.62915C38.455 2.29615 38.013 2.07515 37.536 1.9939C36.886 1.93465 36.2318 1.93465 35.5818 1.9939C34.1893 1.9939 32.8213 1.8474 31.4533 1.8719C30.4988 1.8719 29.5448 1.9209 28.595 2.0184L24.8575 2.3849L21.975 2.75115C21.2563 2.85515 20.546 3.01015 19.8498 3.2154C19.246 3.4044 18.6943 3.7304 18.2375 4.16815C17.945 4.50115 17.773 4.92265 17.7488 5.36515C17.7093 5.8529 17.7093 6.34315 17.7488 6.8309L18.042 11.9852C18.042 12.8647 18.1885 13.8419 18.335 14.7457C18.415 15.1752 18.521 15.5994 18.6528 16.0159H17.529H16.3808C15.99 16.0159 15.5503 16.0159 15.5503 16.4802C15.5503 16.9444 15.5503 17.4329 16.2343 17.5794C16.9183 17.7259 18.384 17.5794 24.9308 17.5794C31.4775 17.5794 43.6188 15.7717 51.8023 17.2374C53.2418 17.3414 54.6185 17.8684 55.7598 18.7519C56.2795 19.4029 56.594 20.1937 56.6635 21.0239C56.7613 22.5367 56.7613 24.0544 56.6635 25.5674C56.6635 29.6472 56.7858 34.2152 56.6635 38.6857C56.6635 41.6904 56.6635 44.6462 56.4193 47.3822C56.4565 49.1254 56.2678 50.8664 55.8575 52.5612C55.7133 53.3817 55.1608 54.0724 54.3918 54.3932C52.8723 54.8747 51.2943 55.1459 49.7015 55.1994H36.8275C26.5188 55.1994 39.0505 55.0527 10.6645 54.8574H7.09805C6.3908 54.8179 5.68805 54.7199 4.99705 54.5642C4.4388 54.4579 3.92205 54.1952 3.50705 53.8069C3.2613 53.5092 3.11605 53.1417 3.0918 52.7564C3.01305 51.9442 3.01305 51.1259 3.0918 50.3137V45.5502C3.0918 43.9622 3.0918 42.3989 2.96955 40.8109C2.96955 38.1237 2.77405 35.4122 2.77405 32.7007V24.5904C2.73205 23.3122 2.83855 22.0332 3.0918 20.7794C3.21655 20.0952 3.5593 19.4697 4.0688 18.9962C4.37255 18.7414 4.7483 18.5877 5.1438 18.5564H7.58655L14.5975 17.7504C15.0453 17.7417 15.3808 17.3369 15.306 16.8954C15.28 16.4829 14.9375 16.1617 14.5243 16.1624L7.4888 16.8464C6.48405 16.7944 5.47655 16.8517 4.48405 17.0174C3.97005 17.1519 3.49355 17.4027 3.0918 17.7504C2.30905 18.4399 1.75505 19.3517 1.5038 20.3642C1.22805 21.6984 1.08905 23.0572 1.08855 24.4194C1.08855 27.1309 0.893047 29.8669 0.844297 32.6029C0.795547 35.3389 0.844297 38.0749 0.844297 40.7864V45.4524C0.844297 47.0159 0.844297 48.5549 0.673297 50.0939C0.575047 51.0929 0.575047 52.0994 0.673297 53.0984C0.721547 54.0027 1.07455 54.8637 1.6748 55.5414C2.2403 56.1599 2.9553 56.6227 3.7513 56.8849C4.7633 57.2134 5.8153 57.4024 6.87805 57.4469C8.09955 57.5689 9.32105 57.6179 10.5913 57.6422H16.0633C21.8773 57.6422 28.3998 57.9842 34.1405 58.1309H41.982H49.799C51.6578 58.0442 53.4973 57.7157 55.271 57.1537C56.5533 56.6684 57.5728 55.6667 58.0803 54.3932C58.9033 52.2079 59.3093 49.8879 59.2773 47.5532C59.2773 44.7439 59.3995 41.7392 59.3995 38.7102C59.2773 34.2152 59.1308 29.6472 59.0088 25.5432ZM24.8088 15.7717L20.1918 15.9672C20.0728 15.4937 19.991 15.0119 19.9475 14.5259V11.8874L20.094 6.8309C20.1473 6.4829 20.18 6.13215 20.1918 5.7804C20.391 5.66965 20.6048 5.5874 20.8268 5.53615C21.3643 5.53615 21.9018 5.53615 22.3658 5.36515L25.0773 5.16965L28.8883 4.80315L30.818 4.65665H35.5328H37.2183C37.4393 4.95915 37.582 5.31165 37.6335 5.68265C37.7335 6.3049 37.7908 6.9334 37.8045 7.56365L38.0978 14.8922C33.7005 15.0144 29.2545 15.5274 24.833 15.7962L24.8088 15.7717Z" fill="black"/>
<path fill-rule="evenodd" clip-rule="evenodd" d="M41.396 32.4074C41.2005 35.0947 41.054 37.7817 40.9807 40.4689C40.8097 45.3547 40.6875 48.7502 40.9807 53.5627C41.2005 54.4664 42.6662 54.4664 42.7882 53.5627C42.935 48.9212 43.4722 45.5744 43.8142 40.9332C43.961 38.6857 44.1075 36.4382 44.2052 34.1664C44.3517 30.9417 44.4007 27.6927 44.4495 24.3949L44.0342 17.7504C44.0377 17.1299 43.368 16.7382 42.8287 17.0454C42.5757 17.1897 42.4202 17.4592 42.422 17.7504L42.1775 24.4439C41.8845 27.1309 41.5912 29.8182 41.396 32.4074Z" fill="black"/>
</svg>
