<svg width="60" height="60" viewBox="0 0 60 60" fill="none" xmlns="http://www.w3.org/2000/svg">
<g clip-path="url(#clip0_161_7070)">
<path fill-rule="evenodd" clip-rule="evenodd" d="M14.6256 46.85C14.7506 46.2 16.1256 45.525 16.6506 45.225C18.1141 44.4995 19.699 44.0503 21.3256 43.9C28.6256 42.825 29.5506 47.1251 31.0756 48.0001C34.3756 50.5001 30.6256 39.075 20.8256 41.05C17.9756 41.625 13.3256 44.3 13.1006 46.65C13.0994 46.839 13.1673 47.0218 13.2915 47.1642C13.4156 47.3066 13.5875 47.3987 13.7748 47.4233C13.9621 47.4478 14.152 47.4031 14.3086 47.2976C14.4653 47.192 14.578 47.0329 14.6256 46.85Z" fill="black"/>
<path fill-rule="evenodd" clip-rule="evenodd" d="M16.7003 29.3999C15.3253 27.7999 13.9753 34.0499 15.5753 34.9249C15.7417 35.0796 15.9606 35.1655 16.1878 35.1655C16.415 35.1655 16.6338 35.0796 16.8003 34.9249C17.3103 34.0897 17.5717 33.1264 17.554 32.1479C17.5363 31.1694 17.2402 30.2162 16.7003 29.3999Z" fill="black"/>
<path fill-rule="evenodd" clip-rule="evenodd" d="M30.2 34.9998C30.1999 35.2276 30.2886 35.4465 30.4474 35.6099C30.6061 35.7733 30.8223 35.8683 31.05 35.8748C32.15 35.8748 33.8 30.7498 32.95 29.6748C32.6 29.1998 32.375 28.9248 32.05 29.0248C31.725 29.1248 31.225 29.0248 31.15 29.6248C30.1832 31.2387 29.8449 33.1523 30.2 34.9998Z" fill="black"/>
<path fill-rule="evenodd" clip-rule="evenodd" d="M52.5001 25.4998C51.6251 22.6748 50.0001 17.9998 47.5001 16.2498C45.4501 15.3998 45.6751 17.4498 47.0001 18.3748C49.8751 21.6248 52.2001 31.2498 55.3001 42.2998C56.2841 46.5521 56.8617 50.8883 57.0251 55.2498C57.0251 55.7248 57.0251 56.2998 55.5751 55.5248C53.5001 54.4748 50.9501 51.7748 50.0251 51.4998C50.0251 51.2748 51.3501 38.0248 48.9251 33.6498C48.8707 33.4701 48.7599 33.3126 48.609 33.2006C48.4582 33.0887 48.2754 33.0282 48.0876 33.0282C47.8997 33.0282 47.7169 33.0887 47.5661 33.2006C47.4153 33.3126 47.3045 33.4701 47.2501 33.6498C47.9501 40.9998 47.0001 36.5748 48.2501 52.4998C48.0751 52.7498 48.5501 52.4998 44.7751 53.8748C42.9251 55.2498 43.0251 55.8748 44.7751 55.8748L46.0501 55.3748C47.3538 55.1637 48.6029 54.6964 49.7251 53.9998C50.0983 54.2701 50.4911 54.5124 50.9001 54.7248C52.4483 56.3669 54.3945 57.5811 56.5501 58.2498C57.8751 58.2498 59.0501 57.7748 59.5751 55.7498C59.8501 41.5998 55.5751 35.2248 52.5001 25.4998Z" fill="black"/>
<path fill-rule="evenodd" clip-rule="evenodd" d="M44.6752 17.1748C44.729 16.9382 44.7205 16.6917 44.6504 16.4594C44.5802 16.2271 44.4509 16.0171 44.2752 15.8498C43.7484 15.5082 43.1271 15.3419 42.5002 15.3748L37.7752 14.9998C37.4924 12.453 36.6837 9.99268 35.4002 7.77482C34.3471 5.90407 32.7521 4.39619 30.8252 3.44982C32.3699 2.92444 34.0183 2.77824 35.6313 3.02354C37.2444 3.26885 38.7748 3.89846 40.0934 4.85929C41.4121 5.82011 42.4804 7.08397 43.2082 8.54426C43.936 10.0045 44.3019 11.6184 44.2752 13.2498C44.2537 13.3754 44.2599 13.5041 44.2934 13.627C44.3268 13.7499 44.3867 13.864 44.4689 13.9614C44.551 14.0588 44.6534 14.137 44.7689 14.1907C44.8844 14.2444 45.0103 14.2722 45.1377 14.2722C45.265 14.2722 45.3909 14.2444 45.5064 14.1907C45.6219 14.137 45.7243 14.0588 45.8065 13.9614C45.8886 13.864 45.9485 13.7499 45.9819 13.627C46.0154 13.5041 46.0216 13.3754 46.0002 13.2498C46.2502 10.0748 43.9502 0.749817 35.4002 -0.0501834C32.3577 -0.348581 29.3185 0.547942 26.9252 2.44982C25.1875 2.3762 23.4533 2.66241 21.8315 3.29051C20.2096 3.9186 18.735 4.87503 17.5002 6.09982C14.0252 9.84982 14.3252 15.8998 14.7502 21.0998C14.7502 21.2987 14.8292 21.4895 14.9698 21.6301C15.1105 21.7708 15.3013 21.8498 15.5002 21.8498C15.6991 21.8498 15.8898 21.7708 16.0305 21.6301C16.1711 21.4895 16.2502 21.2987 16.2502 21.0998C16.1852 19.884 16.1852 18.6656 16.2502 17.4498C17.3002 17.4498 22.5502 17.1748 24.6502 17.0998C26.7502 17.0248 31.0002 17.4998 36.1502 17.4998C36.3116 18.5258 36.4034 19.5615 36.4252 20.5998C36.4599 20.8034 36.5656 20.9881 36.7235 21.1212C36.8813 21.2544 37.0812 21.3274 37.2877 21.3274C37.4942 21.3274 37.694 21.2544 37.8519 21.1212C38.0097 20.9881 38.1154 20.8034 38.1502 20.5998C38.2154 19.5425 38.2154 18.4821 38.1502 17.4248L43.1502 17.2498C43.1502 17.4748 40.6502 37.4998 40.1002 45.9498C39.8663 49.0857 39.7995 52.2318 39.9002 55.3748C39.9081 55.4329 39.9081 55.4917 39.9002 55.5498C32.6581 57.0313 25.2413 57.4691 17.8752 56.8498H12.1252C7.12516 56.6498 3.30016 54.3498 3.47516 53.3748V50.4748C3.67516 47.8498 5.35016 38.4498 5.72516 36.5748C7.42516 28.2998 7.32516 32.1998 11.1752 17.1748C11.8002 16.8248 11.6752 15.2998 10.6752 15.2998C9.67516 15.2998 9.90016 16.8498 7.35016 24.4998C5.82023 28.2632 4.53423 32.1212 3.50016 36.0498C2.92516 38.5498 1.00016 47.6748 0.750164 50.1998C0.000163637 56.8248 0.800164 56.5248 3.47516 57.4998C4.57516 57.8998 5.62516 58.3748 6.72516 58.7498C10.2403 59.6571 13.8781 59.9947 17.5002 59.7498C23.0593 60.2477 28.6583 60.0714 34.1752 59.2248C40.8002 58.1498 41.3002 58.2998 41.9502 57.1498C42.9252 56.3998 44.7002 17.4998 44.6752 17.1748ZM16.5002 15.6998C17.1002 10.3248 18.5252 6.84982 24.3252 5.69982C23.6147 6.86402 23.06 8.11636 22.6752 9.42482C22.3252 10.6498 21.9002 12.2498 23.1502 12.6498C23.2437 12.6811 23.3425 12.6937 23.441 12.6868C23.5394 12.6799 23.6355 12.6536 23.7237 12.6095C23.812 12.5653 23.8907 12.5042 23.9553 12.4296C24.0198 12.3551 24.0691 12.2685 24.1002 12.1748C24.094 10.8683 24.3992 9.57904 24.9904 8.41391C25.5817 7.24878 26.442 6.24127 27.5002 5.47482C32.2002 5.84982 34.5502 10.2248 35.6752 14.8248C29.2821 13.9787 22.7896 14.275 16.5002 15.6998Z" fill="black"/>
</g>
<defs>
<clipPath id="clip0_161_7070">
<rect width="60" height="60" fill="white"/>
</clipPath>
</defs>
</svg>
