<svg width="60" height="60" viewBox="0 0 60 60" fill="none" xmlns="http://www.w3.org/2000/svg">
<g clip-path="url(#clip0_118_3353)">
<g clip-path="url(#clip1_118_3353)">
<path fill-rule="evenodd" clip-rule="evenodd" d="M13.4498 34.5C11.1916 33.6487 8.85545 33.0207 6.4748 32.625C5.4498 32.475 4.8998 33.7 6.1498 34.15C7.57586 34.6086 8.97049 35.1598 10.3248 35.7999C13.4748 37.0749 15.4498 37.875 18.3748 39.175C20.2248 40.275 20.0248 37.175 18.3748 36.675C16.7942 35.8189 15.1472 35.0915 13.4498 34.5Z" fill="black"/>
<path fill-rule="evenodd" clip-rule="evenodd" d="M21.8248 34.7501C21.8465 34.552 21.7911 34.3532 21.6701 34.1949C21.549 34.0366 21.3717 33.931 21.1748 33.9001C21.0762 33.886 20.9758 33.8918 20.8794 33.917C20.783 33.9422 20.6926 33.9863 20.6135 34.0468C20.5344 34.1073 20.4681 34.183 20.4185 34.2694C20.369 34.3558 20.3371 34.4512 20.3248 34.5501C19.8344 38.0202 19.885 41.5454 20.4748 45.0001C20.4811 45.1108 20.5096 45.219 20.5586 45.3185C20.6076 45.4179 20.6762 45.5064 20.7602 45.5788C20.8442 45.6511 20.9419 45.7058 21.0475 45.7395C21.1531 45.7732 21.2644 45.7853 21.3748 45.7751C21.5791 45.7638 21.7725 45.6792 21.9195 45.5369C22.0664 45.3945 22.1571 45.2039 22.1748 45.0001C22.0498 39.0251 22.0748 40.6501 21.8248 34.7501Z" fill="black"/>
<path fill-rule="evenodd" clip-rule="evenodd" d="M36.7999 43.9001L31.7999 42.1501C30.1999 41.5751 28.6249 40.95 27.0499 40.25C25.4749 39.55 25.1249 39.5 23.5749 38.8C22.2499 38.8 21.9499 40.725 22.8499 41.5C23.7499 42.275 24.9999 42.4 26.0499 42.8C27.0999 43.2 28.7249 43.7 30.0749 44.1C32.0749 44.7 34.1249 45.075 36.1249 45.75C37.7249 46.25 38.2749 44.4001 36.7999 43.9001Z" fill="black"/>
<path fill-rule="evenodd" clip-rule="evenodd" d="M57.775 35.775C57.5836 32.5471 56.8395 29.3761 55.575 26.4C54.8029 24.4193 53.4078 22.7434 51.6 21.625C51.2758 21.4554 50.9419 21.3051 50.6 21.175C51.8263 19.1176 52.6731 16.8567 53.1 14.5C53.3893 12.822 53.3158 11.1014 52.8846 9.45416C52.4534 7.80688 51.6744 6.27105 50.6 4.95C49.4992 3.75557 48.0885 2.89012 46.525 2.45C43.2975 1.64324 39.9981 1.15754 36.675 0.999999L31.425 0.424999C28.725 0.174999 26.45 -1.01561e-06 24.5 -1.01561e-06C22.9307 -0.0290135 21.3611 0.0377773 19.8 0.199999C17.8118 0.27245 15.8316 0.489692 13.875 0.849999C12.793 1.07802 11.8171 1.65828 11.1 2.5C10.4619 3.42885 9.98828 4.46057 9.69998 5.55C9.2794 7.08106 9.06914 8.66223 9.07498 10.25C9.09118 11.0887 9.17478 11.9247 9.32498 12.75C9.32498 13.225 9.54998 13.725 9.69998 14.225C8.23378 14.9401 6.92951 15.9478 5.86752 17.1861C4.80553 18.4244 4.00832 19.8669 3.52498 21.425C2.18435 26.3045 1.73549 31.386 2.19998 36.425C2.17515 38.2298 2.27539 40.0341 2.49998 41.825C2.7014 43.1755 3.2339 44.4552 4.04998 45.55C4.66409 46.2932 5.39946 46.9271 6.22498 47.425C7.92493 48.3981 9.68707 49.2583 11.5 50C15.8822 52.1532 20.3904 54.04 25 55.65C29.5538 57.2337 34.2159 58.487 38.95 59.4C39.0549 59.4208 39.163 59.4181 39.2668 59.3922C39.3705 59.3663 39.4672 59.3177 39.55 59.25C40.1235 59.6127 40.7744 59.8354 41.45 59.9C44.3681 60.0029 47.2897 59.9361 50.2 59.7C51.2404 59.7724 52.2846 59.7724 53.325 59.7C53.9685 59.6344 54.5736 59.3625 55.05 58.925C55.7575 58.126 56.2557 57.1639 56.5 56.125C56.9951 54.0389 57.3129 51.9147 57.45 49.775C57.9817 45.1278 58.0905 40.4419 57.775 35.775ZM52.95 27.65C53.41 28.665 53.7782 29.7192 54.05 30.8H49.55C48.4416 30.8661 47.339 31.0081 46.25 31.225C44.4296 31.6755 42.6553 32.2949 40.95 33.075V32.225C40.8865 31.3428 40.8865 30.4572 40.95 29.575C41.0242 28.7279 41.1833 27.8903 41.425 27.075C41.7803 26.116 42.3638 25.258 43.125 24.575C43.8141 23.926 44.6876 23.5067 45.625 23.375H47C46.425 24.25 45.825 25.125 45.15 25.875C45.0279 26.031 44.9725 26.229 44.996 26.4258C45.0194 26.6225 45.1197 26.802 45.275 26.925C45.3427 26.9961 45.4241 27.0527 45.5144 27.0914C45.6046 27.1301 45.7018 27.15 45.8 27.15C45.8982 27.15 45.9953 27.1301 46.0856 27.0914C46.1758 27.0527 46.2573 26.9961 46.325 26.925C47.25 25.825 48.1 24.725 48.825 23.6C49.2499 23.7002 49.6612 23.8513 50.05 24.05C51.4032 24.8793 52.4278 26.1512 52.95 27.65ZM11.475 6.7C11.7201 5.63524 12.1794 4.63153 12.825 3.75C13.472 3.21527 14.2856 2.92345 15.125 2.925C16.875 2.7 18.875 2.925 20.125 2.7C21.5903 2.61133 23.0597 2.61133 24.525 2.7C26.425 2.7 28.6 2.975 31.225 3.3L36.45 3.9C39.1389 4.04578 41.8178 4.33788 44.475 4.775C46.017 4.95363 47.462 5.61918 48.6 6.675C49.5378 7.66762 50.2474 8.85312 50.6792 10.1486C51.111 11.4441 51.2546 12.8182 51.1 14.175C50.7465 16.4973 49.9486 18.7297 48.75 20.75C47.7693 20.6483 46.7807 20.6483 45.8 20.75C42.05 19.25 37.95 17.55 33.825 16.15C30.8703 15.0531 27.8254 14.2165 24.725 13.65C22.0225 13.1116 19.2795 12.8022 16.525 12.725C14.7681 12.6964 13.0164 12.9238 11.325 13.4C11.2259 13.0218 11.1508 12.6377 11.1 12.25C10.9973 11.5296 10.9472 10.8027 10.95 10.075C11.0015 8.93423 11.1776 7.80252 11.475 6.7ZM38.975 26.475C38.6955 27.4539 38.5196 28.4594 38.45 29.475C38.4 30.466 38.4 31.459 38.45 32.45V35.975C38.45 41.4 38.075 41.475 38.225 54.125C38.2101 55.3448 38.2769 56.5642 38.425 57.775C34.0104 56.7517 29.6744 55.415 25.45 53.775C21.0232 52.0789 16.7065 50.1084 12.525 47.875C11.4 47.275 9.74998 46.525 8.29998 45.625C7.50473 45.1769 6.79401 44.5931 6.19998 43.9C5.68694 43.1552 5.36106 42.2976 5.24998 41.4C5.03998 39.7418 4.93976 38.0715 4.94998 36.4C4.52498 27.025 5.67498 23.675 6.12498 22.325C6.50017 20.9284 7.20103 19.6406 8.17011 18.5673C9.13918 17.4939 10.3489 16.6655 11.7 16.15C13.2637 15.6234 14.9002 15.3451 16.55 15.325C19.1719 15.3458 21.7882 15.5715 24.375 16C27.3667 16.4583 30.3175 17.1522 33.2 18.075C36.525 19.125 39.85 20.375 43 21.55C42.4017 21.869 41.8471 22.2639 41.35 22.725C40.25 23.7508 39.4322 25.0421 38.975 26.475ZM55 49.5C54.9502 51.2406 54.8 52.9768 54.55 54.7C54.437 55.7184 54.048 56.6865 53.425 57.5C53.25 57.7 52.875 57.725 52.5 57.775H50C47.725 57.95 44.725 58.35 42.5 58.35C41.9131 58.3587 41.3268 58.3084 40.75 58.2C40.5 58.2 40.275 58.2 40.225 57.975C40.0153 56.7197 39.9649 55.4429 40.075 54.175C40.075 51.875 40.775 38 40.85 36.05V34.675C40.9892 34.7121 41.1357 34.7121 41.275 34.675C42.8 34.425 44.35 34.4 45.975 34.25C46.625 34.25 47.3 34.1 47.975 34L49.975 33.65C51.475 33.325 52.925 32.95 54.375 32.6C54.575 33.7 54.75 34.85 54.875 36.05C55.3025 40.5214 55.3443 45.0214 55 49.5Z" fill="black"/>
</g>
</g>
<defs>
<clipPath id="clip0_118_3353">
<rect width="60" height="60" fill="white"/>
</clipPath>
<clipPath id="clip1_118_3353">
<rect width="60" height="60" fill="white"/>
</clipPath>
</defs>
</svg>
