<svg width="60" height="60" viewBox="0 0 60 60" fill="none" xmlns="http://www.w3.org/2000/svg">
<g clip-path="url(#clip0_161_7079)">
<path fill-rule="evenodd" clip-rule="evenodd" d="M59.5753 48.65C59.2214 47.9286 58.9368 47.1752 58.7253 46.4C58.5003 45.65 58.3253 44.85 58.1253 44.05C57.9253 43.25 57.7503 42.5 57.5003 41.6C56.9753 40 56.4253 38.5 55.9753 37.075C56.1663 37.003 56.3225 36.8608 56.412 36.6774C56.5016 36.494 56.5176 36.2833 56.457 36.0885C56.3963 35.8936 56.2634 35.7294 56.0856 35.6293C55.9077 35.5292 55.6984 35.5008 55.5003 35.55C52.6253 35.875 49.7753 36.3 46.9503 36.575C45.0503 36.75 43.1753 36.875 41.3003 36.9C39.0003 36.9 36.7503 36.9 34.5003 36.725C32.2503 36.55 29.9253 36.475 27.6253 36.4H24.1753C21.0003 36.4 17.8003 36.65 14.6003 36.675C12.504 36.692 10.4086 36.5835 8.3253 36.35H8.0253C8.16042 36.2874 8.27206 36.1834 8.344 36.053C8.41593 35.9226 8.44441 35.7727 8.4253 35.625C8.2253 34.1 8.1003 32.575 7.9753 31.025C7.7503 27.975 7.7753 24.875 7.7253 21.8C7.7253 19.925 7.7253 18.075 7.5503 16.225C7.5003 15 7.5003 13.775 7.3253 12.5C7.1503 11.225 7.3253 10.425 7.3253 9.39999V6.29999V4.74999C7.47497 4.596 7.5587 4.38972 7.5587 4.17499C7.5587 3.96025 7.47497 3.75397 7.3253 3.59999C7.25071 3.52287 7.16136 3.46155 7.06258 3.41966C6.96379 3.37778 6.8576 3.3562 6.7503 3.3562C6.64301 3.3562 6.53681 3.37778 6.43803 3.41966C6.33925 3.46155 6.2499 3.52287 6.1753 3.59999C5.94722 3.86381 5.79209 4.18269 5.7253 4.52499C5.7253 5.02499 5.7253 5.64999 5.5503 6.02499C5.4003 7.09999 5.2753 8.17499 5.2003 9.24999C5.1253 10.325 5.0003 11.525 5.0003 12.5V18.325C5.0003 20.275 5.0003 22.25 5.2503 24.2C5.55991 28.1276 6.18696 32.0236 7.1253 35.85C7.15992 35.9952 7.23849 36.1261 7.3503 36.225C7.22627 36.2298 7.10621 36.27 7.00431 36.3409C6.90242 36.4118 6.82295 36.5104 6.7753 36.625C6.2003 37.975 5.5753 39.3 4.9503 40.625C4.3253 41.95 3.6003 43.125 2.8753 44.45C2.32196 45.1481 1.80462 45.8741 1.3253 46.625C1.09977 46.9836 0.986587 47.4015 1.0003 47.825C1.0003 47.825 1.0003 48 1.0003 48.075C0.663838 48.7059 0.387616 49.3672 0.175303 50.05C0.0541497 50.4811 -0.00477926 50.9272 0.000302713 51.375C-0.00462175 51.8474 0.054243 52.3183 0.175303 52.775C0.464274 53.8451 1.04405 54.8143 1.8503 55.575C1.91225 55.6609 1.99064 55.7336 2.08092 55.789C2.1712 55.8444 2.27158 55.8813 2.37623 55.8976C2.48089 55.9139 2.58773 55.9092 2.69057 55.8839C2.79341 55.8585 2.89019 55.813 2.9753 55.75C3.1474 55.6245 3.26432 55.4374 3.30159 55.2277C3.33887 55.018 3.29362 54.8021 3.1753 54.625C2.89862 54.0109 2.7457 53.3482 2.7253 52.675V51.8V50.4V49.55C3.29686 49.7828 3.88113 49.9831 4.4753 50.15C5.86245 50.5285 7.28844 50.7466 8.7253 50.8H14.8503C18.5503 50.8 25.2003 50.8 32.3503 50.6C42.5003 50.525 53.4503 50.15 57.5003 50C57.4868 50.1831 57.4868 50.3669 57.5003 50.55C57.5003 51.125 57.3003 51.7 57.2253 52.275C57.1503 52.85 57.2253 53.025 57.0503 53.4C56.9242 54.0881 56.6967 54.7536 56.3753 55.375C56.2937 55.2025 56.1531 55.0648 55.9789 54.9869C55.8046 54.909 55.6083 54.8959 55.4253 54.95C53.4172 55.575 51.3464 55.9774 49.2503 56.15C46.0572 56.4081 42.8525 56.4916 39.6503 56.4H27.9253C25.4253 56.4 22.7753 56.4 20.1753 56.125C17.5753 55.85 14.1503 56.125 11.1503 55.85C9.21178 55.7232 7.29682 55.3536 5.4503 54.75C5.36069 54.7103 5.26397 54.6893 5.16598 54.6881C5.068 54.6868 4.97078 54.7055 4.88021 54.7429C4.78964 54.7803 4.70759 54.8357 4.63902 54.9057C4.57046 54.9757 4.51679 55.0589 4.48128 55.1502C4.44576 55.2416 4.42913 55.3391 4.43238 55.4371C4.43563 55.535 4.45871 55.6313 4.50021 55.72C4.54171 55.8088 4.60078 55.8883 4.67384 55.9536C4.7469 56.0189 4.83245 56.0687 4.9253 56.1C6.82737 56.806 8.80882 57.2762 10.8253 57.5C13.8003 57.95 16.8753 58.075 19.8503 58.425C22.8253 58.775 25.1003 58.925 27.7503 58.975C31.6753 58.975 35.6003 58.975 39.5753 58.8C42.8003 58.65 46.1253 58.5 49.3753 58.025C51.574 57.6993 53.7347 57.1549 55.8253 56.4C55.8588 56.5748 55.9362 56.7383 56.0503 56.875C56.1249 56.9521 56.2142 57.0134 56.313 57.0553C56.4118 57.0972 56.518 57.1188 56.6253 57.1188C56.7326 57.1188 56.8388 57.0972 56.9376 57.0553C57.0364 57.0134 57.1257 56.9521 57.2003 56.875C58.1544 56.0429 58.8994 54.9981 59.3753 53.825C59.5777 53.3269 59.7204 52.8066 59.8003 52.275C59.8752 51.7527 59.8752 51.2223 59.8003 50.7C59.8143 50.0098 59.7387 49.3207 59.5753 48.65ZM27.8753 48.025C22.5253 48.025 17.8753 48.025 14.8253 48.2C12.8503 48.2 10.8253 48.5 8.8253 48.5C7.54081 48.5067 6.25904 48.381 5.0003 48.125C4.23964 47.9353 3.49555 47.6845 2.7753 47.375C3.24134 46.7088 3.75077 46.0741 4.3003 45.475C5.0253 44.15 5.6503 42.775 6.2503 41.4C6.8503 40.025 7.3003 38.9 7.8003 37.625H8.0253C10.1583 38.0093 12.312 38.268 14.4753 38.4C17.6753 38.625 20.8753 38.675 24.0753 38.825C27.2753 38.975 30.9253 39.225 34.3503 39.325H41.3503C43.2753 39.2 45.2253 38.95 47.1503 38.65C49.6503 38.275 52.0003 37.8 54.4253 37.375C54.4253 38.675 54.4253 40.1 54.6753 41.575C54.6753 42.2 54.9253 42.85 55.0753 43.475C55.2253 44.1 55.5003 44.75 55.7503 45.35C56.2493 46.373 56.8348 47.3516 57.5003 48.275C52.9503 48.325 39.1503 48.025 27.8753 48.025Z" fill="black"/>
<path fill-rule="evenodd" clip-rule="evenodd" d="M6.97564 3.3499L14.4756 3.5249L25.3506 3.7499L39.5256 3.5499L54.5256 3.3749C54.7756 6.1749 54.8756 8.9749 54.9256 11.7499V15.8999C54.9256 17.2749 55.0006 18.6499 55.0006 19.9999C55.0006 23.2249 55.0006 26.4499 54.8256 29.6999C54.8153 29.8083 54.8266 29.9177 54.8588 30.0218C54.891 30.1258 54.9434 30.2225 55.0132 30.3061C55.0829 30.3898 55.1685 30.4588 55.265 30.5093C55.3616 30.5597 55.4671 30.5905 55.5756 30.5999C55.7907 30.621 56.0055 30.5569 56.1738 30.4213C56.3421 30.2857 56.4505 30.0895 56.4756 29.8749C56.9756 26.5999 57.4006 23.3249 57.6006 20.0499C57.6006 18.6249 57.7256 17.2249 57.6006 15.7999C57.4756 14.3749 57.6006 12.9749 57.3756 11.5499C57.044 8.61344 56.5347 5.69977 55.8506 2.8249C55.8506 2.8249 56.0006 2.6249 56.0006 2.4999C56.0006 2.2811 55.9137 2.07126 55.759 1.91654C55.6043 1.76182 55.3944 1.6749 55.1756 1.6749L39.4006 1.0249H33.7006H25.1756L14.3006 1.5749L10.0006 1.8499L7.05064 1.9249C6.86245 1.91797 6.67893 1.98454 6.53895 2.11052C6.39897 2.23651 6.3135 2.41202 6.30064 2.5999C6.29386 2.69388 6.30612 2.78825 6.33669 2.87737C6.36725 2.9665 6.41549 3.04853 6.47852 3.11856C6.54155 3.18859 6.61807 3.24518 6.70349 3.28493C6.78891 3.32468 6.88148 3.34678 6.97564 3.3499Z" fill="black"/>
<path fill-rule="evenodd" clip-rule="evenodd" d="M38.0501 13.4H37.3501C37.3641 13.1419 37.3641 12.8831 37.3501 12.625C37.122 11.2946 36.5536 10.0458 35.7001 9C35.0706 8.12607 34.1758 7.47878 33.1487 7.15445C32.1217 6.83012 31.0174 6.84609 30.0001 7.2C28.8826 7.57712 27.8888 8.2512 27.1251 9.15C26.036 10.3808 25.3015 11.8843 25.0001 13.5C25.0001 13.5 25.0001 13.75 25.0001 13.875H22.6751C22.4957 13.8981 22.33 13.9832 22.2067 14.1156C22.0834 14.248 22.0103 14.4194 22.0001 14.6C21.8864 14.6266 21.7791 14.6757 21.6847 14.7444C21.5902 14.8131 21.5105 14.9 21.4501 15C20.048 17.473 18.9564 20.1096 18.2001 22.85C17.4898 24.768 17.1587 26.8057 17.2251 28.85C17.4109 29.2468 17.675 29.6019 18.0015 29.8941C18.328 30.1862 18.7102 30.4093 19.1251 30.55C20.4758 31.0206 21.8771 31.3311 23.3001 31.475C25.0997 31.6983 26.9117 31.8069 28.7251 31.8C31.4251 31.8 34.1751 31.625 36.7251 31.475C38.046 31.4837 39.3659 31.4002 40.6751 31.225C41.4964 31.0919 42.2562 30.7076 42.8501 30.125C43.2809 29.5906 43.5343 28.9352 43.5751 28.25C43.6617 26.5327 43.5357 24.8114 43.2001 23.125C42.7344 19.9754 41.6466 16.95 40.0001 14.225C39.4492 13.758 38.7689 13.4702 38.0501 13.4ZM30.0001 10.175C30.5636 9.78922 31.2515 9.6291 31.9274 9.72633C32.6034 9.82355 33.2182 10.171 33.6501 10.7C34.3276 11.3964 34.8103 12.2585 35.0501 13.2C35.0501 13.2 35.0501 13.2 35.0501 13.4H34.3501L27.2501 13.75C27.7316 12.2792 28.7021 11.0176 30.0001 10.175ZM40.8251 27.125C40.8217 27.5624 40.7714 27.9983 40.6751 28.425C40.3475 28.5838 39.9892 28.6691 39.6251 28.675C38.5251 28.825 37.2751 28.675 36.4501 28.675C33.9501 28.875 31.2751 29.075 28.6251 29.15C26.9158 29.2095 25.2045 29.1678 23.5001 29.025C22.6033 28.9645 21.7104 28.856 20.8251 28.7C20.3671 28.6033 19.9223 28.4522 19.5001 28.25C19.5001 28.25 19.2251 28.25 19.2001 28.05C19.2359 25.9907 19.6249 23.9527 20.3501 22.025C20.9359 19.8749 21.7751 17.802 22.8501 15.85C22.9112 15.6803 22.9112 15.4947 22.8501 15.325H25.0001V16.15C24.9466 17.0742 24.9466 18.0008 25.0001 18.925C24.9804 19.0297 24.9841 19.1375 25.0108 19.2407C25.0374 19.3438 25.0866 19.4399 25.1546 19.5219C25.2226 19.6039 25.3079 19.6699 25.4044 19.7152C25.5008 19.7606 25.6061 19.784 25.7126 19.784C25.8192 19.784 25.9245 19.7606 26.0209 19.7152C26.1174 19.6699 26.2026 19.6039 26.2707 19.5219C26.3387 19.4399 26.3878 19.3438 26.4145 19.2407C26.4412 19.1375 26.4448 19.0297 26.4251 18.925C26.4251 18.1 26.4251 17.25 26.6001 16.425C26.6001 16.1 26.7501 15.775 26.8251 15.475H34.5751C34.9247 15.4494 35.2756 15.4494 35.6251 15.475C35.7751 16.375 35.8501 17.275 35.9001 17.975C35.9034 18.0834 35.9279 18.19 35.9724 18.2889C36.0169 18.3877 36.0804 18.4769 36.1593 18.5512C36.2383 18.6254 36.3311 18.6835 36.4325 18.7219C36.5338 18.7603 36.6418 18.7783 36.7501 18.775C36.8553 18.7686 36.9581 18.7416 37.0527 18.6954C37.1474 18.6492 37.232 18.5847 37.3017 18.5058C37.3713 18.4268 37.4247 18.3348 37.4588 18.2352C37.4929 18.1355 37.5069 18.0301 37.5001 17.925V15.425C37.7824 15.4246 38.0562 15.5218 38.2751 15.7C39.3232 17.7108 39.9926 19.8971 40.2501 22.15C40.6179 23.7851 40.8355 25.4503 40.9001 27.125H40.8251Z" fill="black"/>
</g>
<defs>
<clipPath id="clip0_161_7079">
<rect width="60" height="60" fill="white"/>
</clipPath>
</defs>
</svg>
