<svg width="60" height="60" viewBox="0 0 60 60" fill="none" xmlns="http://www.w3.org/2000/svg">
<g clip-path="url(#clip0_161_7074)">
<path fill-rule="evenodd" clip-rule="evenodd" d="M58.425 42.35C60.65 41.525 60.15 37.35 59.225 35.425C58.7875 34.4002 57.9713 33.5839 56.9467 33.1461C55.922 32.7083 54.768 32.6828 53.725 33.075C53.7846 32.3262 53.7846 31.5738 53.725 30.825C54.8509 29.0128 55.3023 26.8619 55 24.75C55 23.275 55.625 20.725 54.375 19.175C53.2193 17.9719 51.6629 17.2337 50 17.1C46.6872 16.6194 43.347 16.3522 40 16.3C39.875 15.675 39.775 15.05 39.6 14.425C38.9193 12.2714 37.6766 10.3384 36 8.82501C34.4507 7.40572 32.5219 6.46797 30.4488 6.12615C28.3757 5.78433 26.2479 6.05322 24.325 6.90001C21.4942 7.85079 19.1392 9.85663 17.75 12.5C17.1728 13.8901 16.966 15.4061 17.15 16.9C13.3709 16.9909 9.60685 17.4091 5.9 18.15C5.73431 18.1552 5.57376 18.2087 5.43811 18.304C5.30246 18.3993 5.19763 18.5322 5.13652 18.6863C5.07541 18.8404 5.0607 19.009 5.09419 19.1713C5.12768 19.3337 5.20791 19.4827 5.325 19.6C4.53836 22.0258 4.10065 24.551 4.025 27.1C3.86655 28.2002 3.9428 29.3214 4.24873 30.39C4.55466 31.4586 5.08334 32.4504 5.8 33.3C5.2212 33.1971 4.6288 33.1971 4.05 33.3C1.525 33.3 0 36.1 0 38.875C0 40.575 0.175 42.2 1.825 42.625C1.49481 43.9181 1.23608 45.2284 1.05 46.55C1.00574 47.3064 1.19796 48.0578 1.6 48.7C2.975 50.65 5.075 50.675 7.425 50.325C7.59171 50.7501 7.81001 51.1531 8.075 51.525C9.5 53.425 13.275 53.725 15.575 53.775C21.55 53.775 26.325 54.2 33.075 53.775C37.1 53.5 40.175 53.775 44.5 53.25C47.2 52.975 51.7 53.25 52.8 50.125C55.05 50.35 56.975 50.4 58.35 48.475C58.6717 47.7673 58.8486 47.0023 58.87 46.2251C58.8915 45.448 58.7572 44.6744 58.475 43.95C58.125 42.125 58.1 42.5 58.425 42.35ZM25.225 9.50001C26.5091 9.00649 27.8839 8.79324 29.2572 8.87456C30.6305 8.95587 31.9705 9.32986 33.1874 9.97147C34.4044 10.6131 35.47 11.5074 36.313 12.5946C37.1559 13.6818 37.7567 14.9366 38.075 16.275C35 16.275 33.075 16.45 28.85 16.7C25.475 16.925 22.05 16.7 18.65 16.7C19.05 14.775 18.25 11.65 25.225 9.50001ZM2.725 40.55C2.525 39.275 3 35.55 4.35 35.175C4.8619 34.988 5.40546 34.9031 5.95 34.925C5.95 36.225 6.2 36.475 6.175 38.075V40.925H6.025H5.375C4.53927 40.7171 3.6852 40.5915 2.825 40.55H2.725ZM4.725 47.875C3.4 47.3 3.55 46.075 3.3 42.875C4.31818 42.8883 5.33633 42.8466 6.35 42.75C6.35 44.2 6.65 47.05 6.825 48.375C6.12596 48.3871 5.43609 48.2147 4.825 47.875H4.725ZM50.425 48.875C49.6 53.45 10.15 51.825 9.75 50.425C8.83792 46.3551 8.19486 42.2295 7.825 38.075C7.77133 37.045 7.66285 36.0185 7.5 35C7.9 34.55 12.925 39.8 17.7 41.8C22.875 44 38.575 43.25 41.6 41.8C45.775 39.825 48.675 35.95 51.9 32.775C51.8039 38.1665 51.3445 43.5453 50.525 48.875H50.425ZM52.125 24.75C52.303 25.667 52.2789 26.6118 52.0543 27.5185C51.8298 28.4252 51.4103 29.272 50.825 30C49.925 31.05 48.825 31.95 47.875 33.025C40.525 41.375 39.1 40.325 26.125 40.525C19.35 40.525 18.625 40.525 11.275 35.25C6.725 31.8 5.625 31.5 5.75 27.025C5.95 20 6.325 20.3 7.35 19.3C24.7 18.1 20.4 19.3 28.975 18.9C31.475 18.9 33.825 18.7 36.275 18.675C41.3155 18.6096 46.3473 19.1127 51.275 20.175C53.075 20.925 52.25 21.625 52.225 24.75H52.125ZM55.875 46.975C55.5149 47.3591 55.076 47.6607 54.5884 47.8592C54.1008 48.0577 53.576 48.1484 53.05 48.125C53.05 46.4 53.3 45.825 53.5 42.5C54.4988 42.5691 55.5012 42.5691 56.5 42.5C56.4752 44.0055 56.2993 45.5047 55.975 46.975H55.875ZM53.6 40.725L53.85 34.725C54.3849 34.691 54.921 34.7676 55.425 34.95C56.55 35.275 56.975 37.65 57.05 38.8C57.35 41.775 53.7 40.725 53.7 40.725H53.6Z" fill="black"/>
<path fill-rule="evenodd" clip-rule="evenodd" d="M25.9501 43.8249C25.6251 43.1249 23.4501 43.2749 23.8001 44.1999C23.6501 45.9249 23.8001 48.8749 23.8001 50.1999C23.8001 50.5116 23.9239 50.8104 24.1442 51.0308C24.3646 51.2511 24.6634 51.3749 24.9751 51.3749C25.2867 51.3749 25.5856 51.2511 25.8059 51.0308C26.0263 50.8104 26.1501 50.5116 26.1501 50.1999C26.2823 48.0734 26.2153 45.9391 25.9501 43.8249Z" fill="black"/>
<path fill-rule="evenodd" clip-rule="evenodd" d="M34.1001 43.75C33.8751 43.075 32.9751 43.4 32.5251 44.2C32.006 46.3519 31.8957 48.5823 32.2001 50.775C32.5501 51.55 33.3251 51.55 33.9751 50.775C34.5962 48.4795 34.6391 46.066 34.1001 43.75Z" fill="black"/>
<path fill-rule="evenodd" clip-rule="evenodd" d="M37.2002 27.675C36.7002 29.25 36.6252 32.825 38.1252 32.925C38.7002 32.925 40.3752 30.125 39.4252 27.575C43.0002 27.375 45.1502 27.575 44.6002 26.55C44.8502 26.075 44.4752 25.625 42.8752 25.7C42.8752 25.7 29.7502 24.975 28.5752 24.95C4.2252 24.475 17.5002 28.45 37.2002 27.675Z" fill="black"/>
</g>
<defs>
<clipPath id="clip0_161_7074">
<rect width="60" height="60" fill="white"/>
</clipPath>
</defs>
</svg>
