<svg width="60" height="60" viewBox="0 0 60 60" fill="none" xmlns="http://www.w3.org/2000/svg">
<g clip-path="url(#clip0_161_7068)">
<path fill-rule="evenodd" clip-rule="evenodd" d="M24.4498 20.4248C26.8867 20.7507 29.3532 20.7926 31.7998 20.5498C32.9845 20.4433 34.1516 20.1914 35.2748 19.7998C37.4748 18.9748 39.8748 16.8498 39.7748 15.2998C39.7748 14.2998 38.8748 13.2748 37.2748 12.7998C35.5025 12.1516 33.6363 11.797 31.7498 11.7498C29.8038 11.4962 27.8302 11.5468 25.8998 11.8998C25.6897 11.9309 25.4997 12.0418 25.3693 12.2094C25.2389 12.377 25.1782 12.5885 25.1998 12.7998C25.2121 12.9052 25.2453 13.0071 25.2974 13.0995C25.3495 13.1919 25.4195 13.2731 25.5032 13.3382C25.587 13.4034 25.6829 13.4512 25.7853 13.479C25.8877 13.5067 25.9946 13.5138 26.0998 13.4998C28.1415 13.2385 30.2081 13.2385 32.2498 13.4998C33.8495 13.6607 35.4119 14.083 36.8748 14.7498C37.2248 14.9248 37.4998 15.0748 37.5748 15.2998C37.6498 15.5248 37.5748 15.4248 37.4248 15.5248C37.2333 15.8108 36.997 16.0641 36.7248 16.2748C36.0768 16.821 35.3039 17.1988 34.4748 17.3748C33.5374 17.6494 32.5738 17.8254 31.5998 17.8998C29.3653 18.1531 27.1093 18.1531 24.8748 17.8998C23.4481 17.8174 22.0492 17.4698 20.7498 16.8748L19.7748 16.2498C18.9748 15.5748 18.7748 15.0498 19.1498 14.5498C20.2818 13.5198 21.7241 12.8954 23.2498 12.7748C23.344 12.7717 23.4365 12.7496 23.522 12.7098C23.6074 12.6701 23.6839 12.6135 23.7469 12.5434C23.81 12.4734 23.8582 12.3914 23.8888 12.3023C23.9193 12.2131 23.9316 12.1188 23.9248 12.0248C23.9059 11.8414 23.8178 11.6721 23.6785 11.5513C23.5391 11.4306 23.359 11.3675 23.1748 11.3748C22.1881 11.3459 21.2053 11.5122 20.2829 11.864C19.3606 12.2157 18.5167 12.7462 17.7998 13.4248C16.7998 14.5248 16.5998 15.9248 18.4248 17.7748C20.0913 19.2902 22.2066 20.2206 24.4498 20.4248Z" fill="black"/>
<path fill-rule="evenodd" clip-rule="evenodd" d="M53.0503 52.2252C52.7503 50.8752 51.8503 51.0002 51.9003 50.0502C52.3744 45.6431 52.324 41.1954 51.7503 36.8002C51.342 33.8106 50.4998 30.8966 49.2503 28.1502C47.334 23.6875 43.8721 20.0658 39.5003 17.9502C38.3503 17.9502 37.9003 18.8002 38.7503 19.3752C42.5631 21.5404 45.4395 25.0402 46.8253 29.2002C47.8657 31.7911 48.6446 34.4794 49.1503 37.2252C50.0003 41.7252 50.6503 48.9002 49.8753 50.3002C49.7774 50.4862 49.7566 50.7032 49.8174 50.9043C49.8783 51.1055 50.0158 51.2746 50.2003 51.3752C50.7212 51.6158 51.132 52.0445 51.3503 52.5752C51.3503 52.9502 51.1253 53.2502 50.5503 53.5752C49.8907 53.9378 49.184 54.2071 48.4503 54.3752C47.2253 54.7002 45.9503 54.8752 44.7753 55.1752L43.0503 55.5502C41.1888 55.8766 39.3111 56.1019 37.4253 56.2252C34.5503 56.4002 31.6753 56.4502 28.8253 56.5752L18.7503 57.2502C16.7839 57.4095 14.8061 57.3592 12.8503 57.1002C11.7614 56.9604 10.7231 56.557 9.82529 55.9252C9.93816 55.7201 10.0722 55.5274 10.2253 55.3502C10.6469 54.9987 11.0398 54.6142 11.4003 54.2002C11.6098 53.9246 11.7628 53.6102 11.8503 53.2752C11.9408 52.6786 11.9408 52.0718 11.8503 51.4752C11.8503 50.4502 11.5503 49.3002 11.6003 48.3752C11.6574 43.3396 12.1678 38.3193 13.1253 33.3752C13.8641 30.1901 15.1589 27.1604 16.9503 24.4252C17.4867 23.5742 18.1064 22.7786 18.8003 22.0502C19.3517 21.4279 19.9359 20.8354 20.5503 20.2752C21.1253 19.6002 19.8753 18.9252 19.1253 19.5502C18.3753 20.1752 18.2253 20.3752 17.6503 20.9752C16.8888 21.7549 16.1869 22.5906 15.5503 23.4752C13.5708 26.3592 12.1073 29.5652 11.2253 32.9502C10.077 37.9617 9.37421 43.0649 9.12529 48.2002C9.13248 49.3362 9.19924 50.4711 9.32529 51.6002C9.364 51.9157 9.364 52.2347 9.32529 52.5502L9.07529 52.8252C8.85029 53.0502 8.57529 53.2752 8.30029 53.5002C7.75589 53.945 7.33421 54.5216 7.07529 55.1752C6.90416 55.6764 6.90734 56.2207 7.08431 56.7198C7.26128 57.219 7.60167 57.6437 8.05029 57.9252C9.34372 58.9205 10.8804 59.5508 12.5003 59.7502C14.6019 60.0604 16.7308 60.1442 18.8503 60.0002L29.0503 59.0752C31.9003 58.8752 34.8003 58.7252 37.7003 58.4502C39.6506 58.2475 41.5873 57.9303 43.5003 57.5002L45.3753 57.0252C46.7003 56.6252 48.2253 56.4002 49.6253 55.9252C50.2837 55.6897 50.9128 55.3793 51.5003 55.0002C52.9253 54.2002 53.2753 53.1502 53.0503 52.2252Z" fill="black"/>
<path fill-rule="evenodd" clip-rule="evenodd" d="M19.3004 7.72497C19.1637 7.31415 19.1153 6.87909 19.1584 6.44827C19.2015 6.01746 19.3351 5.60059 19.5504 5.22497C19.7224 4.93677 19.9145 4.66108 20.1254 4.39997C20.278 4.2409 20.4667 4.12086 20.6754 4.04997H21.2754C22.8254 4.57497 22.6004 5.17497 22.9504 5.34997C23.1729 5.48453 23.4279 5.55566 23.6879 5.55566C23.9479 5.55566 24.2029 5.48453 24.4254 5.34997C25.6754 4.67497 26.2754 3.62497 27.2504 3.02497C27.6792 2.77122 28.1858 2.68235 28.6754 2.77497C28.9267 2.80001 29.1718 2.86765 29.4004 2.97497L29.8254 3.32497C30.2754 3.19997 30.0254 4.37497 30.2004 4.64997C30.3521 4.91501 30.5837 5.12538 30.862 5.25108C31.1403 5.37678 31.4512 5.41139 31.7504 5.34997C32.8255 4.99148 33.8569 4.51349 34.8254 3.92497C34.9948 3.8682 35.1747 3.84996 35.352 3.87158C35.5294 3.89321 35.6996 3.95415 35.8504 4.04997C36.9004 4.69997 36.8754 5.97497 36.5004 7.19997C36.0985 8.60094 35.3305 9.86947 34.2754 10.875C34.2648 10.916 34.2648 10.959 34.2754 11C33.8004 11.7 35.4254 12.1 36.2004 11.3C37.4305 10.0279 38.2943 8.44728 38.7004 6.72497C38.9717 5.8761 38.9572 4.96171 38.6592 4.12186C38.3611 3.28201 37.796 2.563 37.0504 2.07497C36.4226 1.59386 35.6389 1.3623 34.8504 1.42497C34.194 1.48867 33.561 1.70252 33.0004 2.04997L32.2254 2.49997C32.2591 2.335 32.2591 2.16494 32.2254 1.99997C31.8566 1.41886 31.3499 0.937929 30.7504 0.59997C30.2036 0.26609 29.5881 0.0609172 28.9504 -2.96868e-05C28.1097 -0.142594 27.2462 -0.0562393 26.4504 0.24997C25.7625 0.54795 25.1418 0.981595 24.6254 1.52497C24.3182 1.89118 23.9839 2.23381 23.6254 2.54997C23.602 2.53096 23.5769 2.51422 23.5504 2.49997C22.9499 2.09218 22.2809 1.79579 21.5754 1.62497C21.037 1.51682 20.4794 1.55484 19.9606 1.73509C19.4418 1.91535 18.9808 2.23125 18.6254 2.64997C18.2188 3.11986 17.8897 3.65152 17.6504 4.22497C17.3258 4.8689 17.1443 5.57541 17.1185 6.29605C17.0926 7.0167 17.2229 7.73441 17.5004 8.39997C17.995 9.4672 18.6718 10.4401 19.5004 11.275C20.0254 11.975 21.5504 11.45 21.1254 10.725C20.3478 9.83829 19.7303 8.82318 19.3004 7.72497Z" fill="black"/>
<path fill-rule="evenodd" clip-rule="evenodd" d="M41.6248 36.9499C41.2379 36.496 40.8112 36.0777 40.3498 35.6999C39.4587 35.0113 38.5045 34.4087 37.4998 33.8999C36.4701 33.3747 35.3654 33.0121 34.2248 32.8249C32.1636 32.5524 30.0674 32.8642 28.1748 33.7249C26.289 34.5804 24.5101 35.6544 22.8748 36.9249C21.9998 36.2249 21.0998 35.5249 20.2498 34.7749C19.3668 33.9928 18.5319 33.1579 17.7498 32.2749C17.7498 32.0999 17.4748 32.0499 16.7498 32.0249C16.5642 32.0249 16.3861 32.0987 16.2548 32.2299C16.1236 32.3612 16.0498 32.5393 16.0498 32.7249V41.0499V43.1999V44.7249C16.0767 44.9932 16.2013 45.2424 16.3998 45.4249C16.564 45.6041 16.7818 45.7253 17.0207 45.7704C17.2596 45.8155 17.5066 45.782 17.7248 45.6749C18.0334 45.5257 18.3128 45.3225 18.5498 45.0749C18.9248 44.7249 19.2748 44.2499 19.5248 43.9749C20.1998 43.1749 20.8498 42.3999 21.5498 41.6749C21.9777 41.2183 22.4372 40.7922 22.9248 40.3999L23.4248 40.0249C24.1248 40.7499 24.7498 41.5249 25.4498 42.2249C26.1498 42.9249 26.1998 42.9499 26.6248 43.2999C28.6997 44.9277 31.2627 45.8084 33.8998 45.7999C36.4942 45.6819 38.9825 44.7356 40.9998 43.0999C41.6248 42.5999 42.2998 42.0999 42.8998 41.5499C43.4998 40.9999 43.9498 40.8999 44.0748 40.2749C44.0498 39.2499 42.1748 37.4999 41.6248 36.9499ZM19.3248 39.9999C18.8748 40.5249 18.4498 41.0999 18.0248 41.6499V41.1749L17.4998 34.2749C17.9998 34.8749 18.4748 35.4999 19.0248 36.0749C19.5748 36.6499 20.4498 37.4999 21.1748 38.1999L20.9498 38.3499C20.371 38.862 19.828 39.4133 19.3248 39.9999ZM39.5998 41.7249C37.8356 42.9091 35.7491 43.5203 33.6248 43.4749C31.5498 43.3876 29.5625 42.6138 27.9748 41.2749L25.0998 38.7749C26.4107 37.8135 27.8084 36.9765 29.2748 36.2749C30.6999 35.4389 32.3225 34.9987 33.9748 34.9999C34.8985 35.1024 35.8008 35.3469 36.6498 35.7249C37.5292 36.104 38.367 36.5732 39.1498 37.1249C39.6656 37.5113 40.1428 37.9467 40.5748 38.4249L41.8498 39.9499L41.4748 40.2749C40.8998 40.8499 40.2498 41.2499 39.5998 41.6749V41.7249Z" fill="black"/>
</g>
<defs>
<clipPath id="clip0_161_7068">
<rect width="60" height="60" fill="white"/>
</clipPath>
</defs>
</svg>
