<svg width="60" height="60" viewBox="0 0 60 60" fill="none" xmlns="http://www.w3.org/2000/svg">
<g clip-path="url(#clip0_161_7072)">
<path fill-rule="evenodd" clip-rule="evenodd" d="M45.0004 38.1748C45.414 35.9774 45.414 33.7222 45.0004 31.5248C44.0504 28.4748 43.9504 27.7248 43.3754 27.6748C42.3254 27.6748 42.4254 27.6748 42.2754 31.7498C42.2754 32.6248 43.0004 36.9748 43.2754 38.2748C43.3202 38.478 43.4359 38.6585 43.6018 38.7841C43.7676 38.9096 43.9728 38.972 44.1805 38.9599C44.3882 38.9479 44.5848 38.8623 44.7351 38.7184C44.8853 38.5745 44.9794 38.3818 45.0004 38.1748Z" fill="black"/>
<path fill-rule="evenodd" clip-rule="evenodd" d="M51.9503 34.5996C51.7003 32.5496 50.6003 27.6996 50.5503 27.4746C50.5054 27.385 50.443 27.3053 50.3668 27.2402C50.2905 27.1751 50.202 27.1259 50.1065 27.0956C50.0109 27.0653 49.9102 27.0545 49.8104 27.0638C49.7106 27.073 49.6137 27.1022 49.5253 27.1496C48.9003 27.4746 49.0253 34.2746 49.0503 34.8746C49.3963 38.0287 49.9306 41.1593 50.6503 44.2496C52.5003 47.8246 52.5003 38.5996 51.9503 34.5996Z" fill="black"/>
<path fill-rule="evenodd" clip-rule="evenodd" d="M39.8506 35.4251C39.6006 33.3751 38.5006 28.5001 38.4506 28.2751C38.3506 28.0966 38.1841 27.9649 37.9874 27.9087C37.7907 27.8525 37.5798 27.8764 37.4006 27.9751C36.8006 28.3001 36.9256 35.1001 36.9506 35.7001C37.2871 38.8307 37.8215 41.937 38.5506 45.0001C40.3506 48.6501 40.3506 39.4001 39.8506 35.4251Z" fill="black"/>
<path fill-rule="evenodd" clip-rule="evenodd" d="M28.2501 36.4996C28.0001 34.4246 26.9001 29.5746 26.8501 29.3496C26.8052 29.26 26.7428 29.1803 26.6666 29.1152C26.5903 29.0501 26.5018 29.0009 26.4063 28.9706C26.3107 28.9403 26.21 28.9295 26.1102 28.9388C26.0104 28.948 25.9135 28.9772 25.8251 29.0246C25.2001 29.3496 25.3251 36.1496 25.3501 36.7496C25.7089 39.9019 26.243 43.0317 26.9501 46.1246C28.7751 49.6996 28.7501 40.4746 28.2501 36.4996Z" fill="black"/>
<path fill-rule="evenodd" clip-rule="evenodd" d="M47.8752 43.5247C48.1039 43.5247 48.3233 43.4338 48.4851 43.2721C48.6468 43.1103 48.7377 42.8909 48.7377 42.6622C48.7377 42.4334 48.6468 42.2141 48.4851 42.0523C48.3233 41.8906 48.1039 41.7997 47.8752 41.7997C46.8611 41.3294 45.7335 41.1596 44.6258 41.3102C43.5182 41.4608 42.4769 41.9257 41.6252 42.6497C40.7502 42.9747 40.0002 45.3997 47.8752 43.5247Z" fill="black"/>
<path fill-rule="evenodd" clip-rule="evenodd" d="M33.7006 39.7998C34.1012 37.6012 34.1012 35.3484 33.7006 33.1498C32.7256 30.0748 32.6256 29.3498 32.0756 29.2998C31.0256 29.2998 31.1256 29.2998 30.9756 33.3748C30.9756 34.2498 31.7006 38.5998 31.9756 39.8998C32.0204 40.103 32.1361 40.2835 32.302 40.4091C32.4678 40.5346 32.673 40.597 32.8807 40.5849C33.0884 40.5729 33.285 40.4873 33.4352 40.3434C33.5855 40.1995 33.6796 40.0068 33.7006 39.7998Z" fill="black"/>
<path fill-rule="evenodd" clip-rule="evenodd" d="M36.4499 45.1751C36.6819 45.1751 36.9045 45.0829 37.0686 44.9188C37.2327 44.7547 37.3249 44.5321 37.3249 44.3001C37.3249 44.068 37.2327 43.8454 37.0686 43.6813C36.9045 43.5173 36.6819 43.4251 36.4499 43.4251C35.4402 42.9539 34.3163 42.7835 33.2123 42.9342C32.1084 43.0849 31.0712 43.5504 30.2249 44.2751C29.3249 44.6001 28.6499 47.0251 36.4499 45.1751Z" fill="black"/>
<path fill-rule="evenodd" clip-rule="evenodd" d="M12.0003 48.5748C10.2253 46.9998 9.50031 46.6998 6.65031 48.7498C5.40031 49.6748 4.00031 50.9498 2.87531 51.8248C4.12531 42.4998 4.50031 45.6998 7.50031 19.9998C7.50031 19.4998 8.40031 16.9748 7.82531 16.6248C8.40031 15.6498 6.67531 14.5748 6.22531 16.2248C5.77531 17.8748 6.90031 13.7248 4.05031 29.0998C3.65031 32.0748 -0.599695 50.8498 0.000305153 53.9998C0.0376501 54.2429 0.128868 54.4745 0.267285 54.6778C0.405701 54.8811 0.587816 55.0509 0.800305 55.1748C2.65031 56.2248 4.80031 53.4498 7.35031 51.2248C7.98324 50.5523 8.7275 49.9941 9.55031 49.5748C9.66133 49.5987 9.76452 49.6503 9.85031 49.7248C15.4503 53.8248 16.2253 56.5748 17.3503 56.6998C17.5784 56.7136 17.8029 56.6377 17.9758 56.4882C18.1486 56.3387 18.2561 56.1275 18.2753 55.8998C18.5503 54.8498 12.8753 49.3748 12.0003 48.5748Z" fill="black"/>
<path fill-rule="evenodd" clip-rule="evenodd" d="M14.3752 15.4748C15.6502 15.6998 15.9752 11.1498 16.1252 10.7498C16.7131 9.24033 17.559 7.84454 18.6252 6.62483C22.9752 1.39983 26.1252 5.39983 26.5752 5.09983C27.2752 6.22483 29.7752 4.82483 26.5752 2.87483C25.1263 1.84006 23.3426 1.3852 21.5752 1.59983C17.0752 2.49983 15.0002 5.82483 13.9252 9.99983C13.5752 11.6998 12.7002 15.3248 14.3752 15.4748Z" fill="black"/>
<path fill-rule="evenodd" clip-rule="evenodd" d="M56.7761 17.4997C56.6924 17.195 56.541 16.9131 56.3333 16.675C56.1255 16.4369 55.8667 16.2488 55.5761 16.1247C52.5164 15.2404 49.333 14.8604 46.1511 14.9997C45.8738 12.1856 44.8938 9.48623 43.3011 7.14968C39.3261 1.64968 31.9511 2.14968 29.2761 6.84968C28.0961 9.51022 27.3694 12.3494 27.1261 15.2497C24.6261 15.2497 18.8511 15.3997 18.3011 16.0497C17.7511 16.6997 18.3011 22.7497 18.3011 24.3247C18.1011 31.1247 20.0011 55.9247 20.0011 56.1247C20.3011 57.6747 21.0261 57.7997 22.5011 57.9497C24.6511 58.1747 34.2761 58.6497 37.6761 58.4497C39.3011 58.4497 40.9261 58.1747 42.5511 57.9997C45.0511 57.7247 50.0511 58.2997 53.8511 57.9997C55.7511 57.7997 59.2761 57.0497 59.7261 55.1997C60.5011 52.6497 58.5011 22.3247 56.7761 17.4997ZM31.7761 8.22468C32.4217 7.36069 33.3166 6.71535 34.3402 6.37563C35.3638 6.03591 36.467 6.01813 37.5011 6.32468C41.0761 7.02468 43.3261 11.4747 44.0011 15.0747C39.158 15.5568 34.2839 15.6488 29.4261 15.3497C29.8019 12.8963 30.5612 10.5172 31.6761 8.29968L31.7761 8.22468ZM57.0511 54.0997C54.3261 55.8497 45.6011 54.7997 42.3761 55.1997C39.7861 55.5951 37.171 55.8039 34.5511 55.8247C22.3261 55.6497 22.4511 56.1997 22.2511 53.3247C20.3761 31.4497 20.0011 28.3247 20.0011 24.3747V17.2247C22.5011 17.2247 25.0011 17.0497 26.6511 17.2247C25.7761 22.3997 25.7511 22.7997 25.9011 23.0997C25.9672 23.2724 26.0788 23.424 26.224 23.5384C26.3692 23.6528 26.5427 23.7258 26.7261 23.7497C27.8261 23.8997 27.4261 23.1747 28.6761 17.3497C33.8179 17.7597 38.9842 17.7597 44.1261 17.3497C45.0761 22.7997 44.9761 23.3497 45.4261 23.6747C45.5733 23.8082 45.7649 23.8822 45.9636 23.8822C46.1623 23.8822 46.3539 23.8082 46.5011 23.6747C46.7492 21.6214 46.7156 19.5439 46.4011 17.4997C49.0373 17.5097 51.6604 17.8712 54.2011 18.5747C54.2011 18.8247 54.5261 19.3247 54.6261 19.7997C56.0478 31.1814 56.8573 42.6312 57.0511 54.0997Z" fill="black"/>
<path fill-rule="evenodd" clip-rule="evenodd" d="M16.0506 15.7246L11.0506 15.9996C8.12562 16.4496 9.12562 17.2996 9.57562 17.3996C11.7285 17.5938 13.8928 17.6272 16.0506 17.4996C18.0006 16.8746 17.8506 16.2996 16.0506 15.7246Z" fill="black"/>
</g>
<defs>
<clipPath id="clip0_161_7072">
<rect width="60" height="60" fill="white"/>
</clipPath>
</defs>
</svg>
