<svg width="60" height="60" viewBox="0 0 60 60" fill="none" xmlns="http://www.w3.org/2000/svg">
<g clip-path="url(#clip0_161_7069)">
<path fill-rule="evenodd" clip-rule="evenodd" d="M12.8501 20.0002C12.358 20.4859 11.8987 21.0037 11.4751 21.5502C11.2399 21.8538 11.0229 22.171 10.8251 22.5002C10.6426 22.8845 10.5002 23.2866 10.4001 23.7002C10.1613 24.6833 10.0273 25.6889 10.0001 26.7002C9.94731 26.919 9.98349 27.1497 10.1007 27.3419C10.2178 27.534 10.4064 27.6719 10.6251 27.7252C10.7351 27.755 10.85 27.7625 10.9629 27.747C11.0759 27.7316 11.1846 27.6936 11.2826 27.6353C11.3805 27.577 11.4658 27.4995 11.5332 27.4076C11.6006 27.3157 11.6489 27.2111 11.6751 27.1002C12.0737 26.2853 12.516 25.4925 13.0001 24.7252C13.2751 24.1752 13.5751 23.6752 13.8001 23.1252C14.1107 22.309 14.3695 21.474 14.5751 20.6252C16.5751 21.6002 18.6251 22.5252 20.5501 23.6252C22.4751 24.7252 24.2501 25.5502 25.9501 26.4502C27.6501 27.3502 29.5501 28.3002 31.3001 29.3252C33.0228 30.2469 34.6921 31.2652 36.3001 32.3752C37.1501 33.1252 38.6 31.8252 37.675 31.0502C35.5308 29.2563 33.2855 27.5869 30.9501 26.0502C29.5001 25.1252 28.0501 24.2502 26.5001 23.3752C24.9501 22.5002 23.3751 22.0002 21.7501 21.2002C18.9501 20.0002 15.9751 19.0252 13.1001 17.9002C12.496 17.6805 11.9036 17.4302 11.3251 17.1502C9.70005 16.7752 9.65005 17.8252 10.2001 18.4502C10.7501 19.0752 11.4001 19.1502 12.3001 19.6252L12.8501 20.0002Z" fill="black"/>
<path fill-rule="evenodd" clip-rule="evenodd" d="M58.9999 27.6752C59.6184 26.5618 59.9656 25.3183 60.0134 24.0456C60.0612 22.7728 59.8082 21.5068 59.2749 20.3502C58.9868 19.5487 58.6357 18.7713 58.2249 18.0252C57.7999 17.3002 57.3499 16.6252 56.8749 15.9502C52.722 10.3056 47.0397 5.96801 40.4999 3.45018C34.0923 1.12475 27.3158 -0.0187686 20.4999 0.0751763C18.3975 0.0607038 16.3136 0.469348 14.3723 1.27679C12.431 2.08423 10.672 3.27396 9.19992 4.77518C7.70759 6.2203 6.5871 8.00508 5.9341 9.97714C5.2811 11.9492 5.11498 14.05 5.44992 16.1002C5.47436 16.2547 5.54098 16.3995 5.64243 16.5186C5.74388 16.6377 5.87624 16.7265 6.02492 16.7752C3.4315 19.9429 1.57808 23.6498 0.599921 27.6252C0.134745 29.4198 -0.0673639 31.2725 -7.89266e-05 33.1252C0.0856132 34.4524 0.425079 35.7508 0.999921 36.9502C1.97986 38.7236 3.34711 40.2532 4.99992 41.4252C7.24244 43.024 9.58008 44.4851 11.9999 45.8002C16.5249 48.4502 20.7749 50.8002 25.1749 52.8502C28.2499 54.3502 31.4499 55.7752 34.8499 57.1752C35.6167 57.7922 36.4563 58.3128 37.3499 58.7252C39.6329 59.6945 42.1394 60.0138 44.5925 59.6476C47.0456 59.2814 49.3496 58.244 51.2499 56.6502C53.163 55.2084 54.7539 53.3829 55.9206 51.2907C57.0873 49.1984 57.804 46.8855 58.0249 44.5002C58.1235 41.6044 57.367 38.7437 55.8499 36.2752C55.0571 34.9806 54.0214 33.8515 52.7999 32.9502C55.2039 31.632 57.3137 29.837 58.9999 27.6752ZM30.9249 49.8502C31.1018 51.4051 31.5862 52.9093 32.3499 54.2752C30.1499 53.2252 28.0499 52.2002 25.9749 51.1002C21.6999 48.8752 17.5749 46.4752 13.1999 43.6002C10.9097 42.2828 8.70524 40.8215 6.59992 39.2252C5.33633 38.3021 4.28734 37.1167 3.52492 35.7502C3.03793 34.632 2.80729 33.419 2.84992 32.2002C2.89104 30.8841 3.07547 29.5763 3.39992 28.3002C4.99992 21.5752 10.3749 13.8002 17.0499 13.8752C19.0048 13.9454 20.9224 14.4312 22.6749 15.3002C25.4906 16.7642 28.2277 18.3748 30.8749 20.1252C34.2249 22.1252 38.5999 24.5502 42.6499 27.1252C44.4249 28.2502 46.0999 29.4002 47.6499 30.5252C45.4749 29.9752 38.1499 29.3252 33.0499 39.4752C31.3526 42.655 30.6144 46.2591 30.9249 49.8502ZM54.0249 37.3502C55.2497 39.4886 55.815 41.9414 55.6499 44.4002C55.3715 46.4215 54.6795 48.3638 53.617 50.1059C52.5546 51.8479 51.1446 53.3523 49.4749 54.5252C47.9587 55.7823 46.1262 56.5988 44.1775 56.8854C42.2288 57.1719 40.2389 56.9176 38.4249 56.1502C37.1228 55.558 35.9988 54.6345 35.1652 53.472C34.3317 52.3094 33.8178 50.9485 33.6749 49.5252C33.3096 46.4568 33.812 43.3474 35.1249 40.5502C40.5499 28.5502 48.5749 33.0502 49.1499 33.2002C47.7705 34.3688 46.6107 35.7742 45.7249 37.3502C44.6501 39.2491 44.1628 41.4242 44.3249 43.6002C44.3249 43.7991 44.4039 43.9899 44.5446 44.1305C44.6852 44.2712 44.876 44.3502 45.0749 44.3502C45.2738 44.3502 45.4646 44.2712 45.6053 44.1305C45.7459 43.9899 45.8249 43.7991 45.8249 43.6002C45.75 41.7331 46.2378 39.8867 47.2249 38.3002C48.2099 36.6743 49.5207 35.2698 51.0749 34.1752C52.2881 34.973 53.2983 36.043 54.0249 37.3002V37.3502ZM56.9749 26.5502C55.4746 28.6051 53.5471 30.3109 51.3249 31.5502C51.2827 31.4225 51.2046 31.3096 51.0999 31.2252C48.7462 29.1702 46.2389 27.2981 43.5999 25.6252C39.5999 22.9252 35.2749 20.3752 31.9499 18.2752C29.3177 16.3847 26.589 14.6324 23.7749 13.0252C21.6983 11.9398 19.4143 11.3091 17.0749 11.1752C13.5857 11.1801 10.2376 12.5534 7.74992 15.0002L7.12492 15.6502C6.92954 13.9223 7.14468 12.1728 7.75284 10.5438C8.36101 8.91475 9.34504 7.45224 10.6249 6.27518C11.9123 5.03649 13.4323 4.06512 15.0972 3.41719C16.7621 2.76925 18.5389 2.45758 20.3249 2.50018C26.8638 2.59436 33.336 3.82958 39.4499 6.15018C45.4926 8.43664 50.7751 12.3682 54.6999 17.5002C55.1424 18.0676 55.5514 18.6602 55.9249 19.2752C56.3007 19.8684 56.6188 20.4963 56.8749 21.1502C57.324 21.967 57.5678 22.8808 57.5852 23.8128C57.6026 24.7448 57.3932 25.6671 56.9749 26.5002V26.5502Z" fill="black"/>
</g>
<defs>
<clipPath id="clip0_161_7069">
<rect width="60" height="60" fill="white"/>
</clipPath>
</defs>
</svg>
