<svg width="60" height="60" viewBox="0 0 60 60" fill="none" xmlns="http://www.w3.org/2000/svg">
<g clip-path="url(#clip0_161_7071)">
<path fill-rule="evenodd" clip-rule="evenodd" d="M26.6502 40.1499C25.3252 40.1499 24.1502 40.3749 22.9502 40.4999L16.0252 41.5249C14.5752 41.9499 14.8502 42.8749 15.8252 43.3999L23.1252 43.0749H26.7752H28.0252C29.0502 42.7999 28.9752 40.7499 28.0252 40.2749C27.6752 40.2249 27.1002 40.1249 26.6502 40.1499Z" fill="black"/>
<path fill-rule="evenodd" clip-rule="evenodd" d="M30.5754 38.3751C30.5957 38.2634 30.5913 38.1486 30.5623 38.0388C30.5334 37.9291 30.4807 37.827 30.4079 37.7398C30.3352 37.6527 30.2442 37.5826 30.1414 37.5345C30.0386 37.4864 29.9265 37.4614 29.8129 37.4614C29.6994 37.4614 29.5873 37.4864 29.4845 37.5345C29.3817 37.5826 29.2907 37.6527 29.2179 37.7398C29.1452 37.827 29.0925 37.9291 29.0635 38.0388C29.0346 38.1486 29.0301 38.2634 29.0504 38.3751C28.8754 38.9751 29.0504 44.0001 29.0504 44.5251C29.0138 44.7501 29.0665 44.9805 29.1973 45.1673C29.328 45.354 29.5265 45.4824 29.7504 45.5251C29.9746 45.5554 30.2019 45.5002 30.3872 45.3705C30.5725 45.2408 30.7022 45.0461 30.7504 44.8251C31.1528 42.6872 31.0931 40.488 30.5754 38.3751Z" fill="black"/>
<path fill-rule="evenodd" clip-rule="evenodd" d="M42.8004 40.2249C36.8504 39.9749 32.9754 40.2249 32.4254 40.2249C32.1537 40.3025 31.9147 40.4665 31.7446 40.692C31.5745 40.9175 31.4824 41.1924 31.4824 41.4749C31.4824 41.7574 31.5745 42.0322 31.7446 42.2578C31.9147 42.4833 32.1537 42.6473 32.4254 42.7249C35.2754 42.7249 41.0003 42.3749 43.4753 42.2249C44.5003 41.8999 44.2504 40.4499 42.8004 40.2249Z" fill="black"/>
<path fill-rule="evenodd" clip-rule="evenodd" d="M60 6.2999C59.9169 5.22529 59.536 4.1951 58.9 3.3249C58.4754 2.84296 57.9193 2.49541 57.3 2.3249C56.5496 2.13153 55.7737 2.05563 55 2.0999C54.3596 2.1335 53.7236 2.22554 53.1 2.3749C51.975 2.6249 51.1 2.9999 50.15 3.2999C49.8531 2.69623 49.4326 2.16171 48.9157 1.73103C48.3989 1.30034 47.7973 0.983108 47.15 0.799902C46.7401 0.673526 46.3226 0.573324 45.9 0.499902C45.325 0.499902 44.725 0.349902 44.15 0.299902H40.275L30 0.799902L14.6 1.7249L14.2 1.9499L8.55 0.274902C6.88445 -0.0686346 5.15706 0.0436456 3.55 0.599902C2.38393 1.10904 1.41763 1.98749 0.8 3.0999C0.293289 4.00187 0.0184022 5.01551 0 6.0499C0.0316229 7.28385 0.165414 8.51305 0.4 9.7249C0.552241 11.2212 0.896747 12.6917 1.425 14.0999C1.78301 14.8564 2.34599 15.4973 3.05 15.9499C4.05746 16.4152 5.17028 16.605 6.275 16.4999C8.2 16.4999 10.65 16.0749 12.5 15.8499C12.6583 15.8453 12.8094 15.783 12.925 15.6749C13.0788 16.2237 13.297 16.7524 13.575 17.2499C13.0671 19.5072 12.708 21.7955 12.5 24.0999V26.9999V29.9999C12.5 32.2749 12.85 34.2999 13.025 35.7249C12.8203 36.5475 12.67 37.3826 12.575 38.2249C12.2078 37.7206 11.7264 37.3104 11.1702 37.028C10.614 36.7455 9.99881 36.5988 9.375 36.5999C8.30551 36.5879 7.24581 36.8047 6.26702 37.2359C5.28822 37.6671 4.41297 38.3026 3.7 39.0999C2.85394 40.0965 2.21636 41.2526 1.825 42.4999C1.41946 44.3219 1.21822 46.1834 1.225 48.0499C1.01429 50.9726 1.50277 53.9035 2.65 56.5999C3.17072 57.584 3.95816 58.4014 4.92208 58.9585C5.88599 59.5157 6.98738 59.7899 8.1 59.7499C8.66487 59.7362 9.22654 59.6607 9.775 59.5249C10.95 59.2499 12.275 58.7999 13.1 58.5749C13.2119 58.5459 13.317 58.4949 13.4091 58.425C13.5012 58.3552 13.5786 58.2677 13.6367 58.1677C13.6948 58.0678 13.7325 57.9573 13.7477 57.8427C13.7628 57.728 13.7551 57.6115 13.725 57.4999C13.6717 57.2813 13.5339 57.0927 13.3417 56.9755C13.1496 56.8583 12.9188 56.8222 12.7 56.8749L9.85 57.4999C9.30615 57.6032 8.75356 57.6534 8.2 57.6499C7.51392 57.6079 6.85258 57.3782 6.28823 56.9858C5.72389 56.5934 5.27824 56.0534 5 55.4249C3.575 52.4749 4.375 44.2249 4.6 43.1749C4.75303 42.1791 5.11053 41.2258 5.65 40.3749C6.38818 39.3859 7.44976 38.687 8.65 38.3999C9.18595 38.193 9.77681 38.1769 10.3232 38.3545C10.8696 38.5321 11.3381 38.8924 11.65 39.3749C11.7086 39.5147 11.8109 39.6317 11.9416 39.7083C12.0724 39.7849 12.2244 39.8171 12.375 39.7999C12.375 41.4249 12.375 51.5499 12.725 53.3749C12.9559 55.0589 13.5532 56.6718 14.475 58.0999C14.7625 58.5165 15.133 58.8692 15.5632 59.1359C15.9934 59.4027 16.474 59.5776 16.975 59.6499C18.8678 59.9491 20.7849 60.0663 22.7 59.9999C27.05 59.7999 31.5 58.9749 35.675 58.6999C37.025 58.6999 39 58.6999 40.675 58.4999C41.5628 58.381 42.4151 58.0742 43.175 57.5999C44.0077 57.0199 44.6442 56.2003 45 55.2499C45.5006 56.5771 46.4344 57.6965 47.6504 58.427C48.8663 59.1575 50.2932 59.4562 51.7 59.2749C53.2108 59.2359 54.662 58.6777 55.8094 57.6942C56.9568 56.7107 57.7304 55.3619 58 53.8749C58.1587 52.9246 58.2423 51.9633 58.25 50.9999V46.9749C58.3034 45.1795 58.2199 43.3826 58 41.5999C57.8074 40.2911 57.3571 39.0335 56.675 37.8999C56.0478 36.9552 55.2216 36.1591 54.2542 35.5674C53.2868 34.9758 52.2017 34.6029 51.075 34.4749C50.0839 34.4034 49.0977 34.6676 48.275 35.2249V29.3499V26.8499C48.275 26.0249 48.275 25.1499 48.075 24.3499C47.825 22.0999 47.45 20.0749 47.275 18.6749C47.4619 18.5212 47.6373 18.3541 47.8 18.1749C48.875 18.3999 49.775 18.6249 50.725 18.7749C51.7745 18.9468 52.8365 19.0305 53.9 19.0249C54.7361 19.0482 55.5727 18.998 56.4 18.8749C57.0878 18.7479 57.7376 18.4658 58.3 18.0499C58.9553 17.5374 59.3928 16.7963 59.525 15.9749C59.6768 14.7645 59.7353 13.5443 59.7 12.3249C59.9768 10.3293 60.0771 8.31315 60 6.2999ZM13.525 7.4999C13.0857 9.69309 12.81 11.9159 12.7 14.1499L12.5 14.1249C10.95 14.1249 8.975 14.3249 7.275 14.2749C6.34971 14.3722 5.41462 14.2435 4.55 13.8999C4.1175 13.5419 3.81809 13.0488 3.7 12.4999C3.46959 11.4132 3.32745 10.3096 3.275 9.1999C3.07069 8.15308 2.95362 7.0911 2.925 6.0249C2.90663 5.47348 3.01795 4.92545 3.25 4.4249C3.41941 4.01338 3.6741 3.64242 3.99729 3.33647C4.32047 3.03052 4.70482 2.79653 5.125 2.6499C6.17104 2.38737 7.25898 2.33637 8.325 2.4999L13.825 3.5249L13.525 7.4999ZM42.925 53.0249C42.7813 53.4699 42.5884 53.8976 42.35 54.2999C42.1541 54.6126 41.8994 54.8843 41.6 55.0999C40.9894 55.4146 40.3119 55.5775 39.625 55.5749C38.175 55.6999 36.625 55.5749 35.475 55.5749C31.325 55.8749 26.875 56.6749 22.55 56.9249C20.7788 57.0882 18.9962 57.0882 17.225 56.9249C16.65 56.9249 16.3 56.2499 15.975 55.4749C15.3869 54.0088 15.0001 52.4698 14.825 50.8999C14.2927 46.7549 14.1921 42.5657 14.525 38.3999C14.525 38.0249 14.525 37.5999 14.65 37.1999C14.7263 37.1112 14.7834 37.0076 14.8178 36.8958C14.8523 36.7839 14.8632 36.6662 14.85 36.5499V36.1249C14.8622 36.0588 14.8622 35.991 14.85 35.9249C14.977 35.4974 15.1992 35.1042 15.5 34.7749C16.4756 33.8814 17.7293 33.3517 19.05 33.2749C20.75 33.0499 16.2 33.5249 35.275 32.2999C36.7 32.2999 38.05 32.1499 39.25 32.2999C39.961 32.3001 40.6711 32.3502 41.375 32.4499C42.0601 32.545 42.7315 32.7212 43.375 32.9749C43.775 33.1249 43.925 33.6999 44.1 34.3999C45.4 39.0499 43.575 51.1499 42.925 53.0249ZM44.175 30.7999C43.3657 30.5158 42.5271 30.3229 41.675 30.2249C40.8451 30.1307 40.0101 30.0889 39.175 30.0999C37.95 30.0999 36.675 30.2249 35.075 30.3499C13.5 32.3249 19.775 31.3249 17.575 31.7499C16.6552 31.9381 15.7806 32.3032 15 32.8249C15 31.9249 15 30.9499 15.175 29.9249C15.35 28.8999 15.175 28.0249 15.175 27.0499V24.1749C15.225 22.1249 15 20.1999 15 18.6999C15.295 18.8829 15.6044 19.0417 15.925 19.1749C17.1703 19.6295 18.4612 19.948 19.775 20.1249C22.5072 20.5243 25.2638 20.7332 28.025 20.7499H28.875C29 21.3499 29.125 21.9999 29.275 22.7749C29.2535 22.9005 29.2598 23.0292 29.2932 23.1521C29.3267 23.275 29.3866 23.3891 29.4687 23.4865C29.5508 23.5838 29.6532 23.6621 29.7688 23.7158C29.8843 23.7695 30.0101 23.7973 30.1375 23.7973C30.2649 23.7973 30.3907 23.7695 30.5062 23.7158C30.6218 23.6621 30.7242 23.5838 30.8063 23.4865C30.8884 23.3891 30.9483 23.275 30.9818 23.1521C31.0152 23.0292 31.0215 22.9005 31 22.7749C31.15 22.0249 31.275 21.3749 31.375 20.7749C34.875 20.7749 38.25 20.7749 40.275 20.5749C41.4548 20.5432 42.6318 20.443 43.8 20.2749C44.3855 20.168 44.9562 19.9917 45.5 19.7499C45.375 21.0499 45.25 22.6749 45.2 24.3999V26.8999C45.2 27.7166 45.275 28.5499 45.425 29.3999C45.575 30.6249 45.75 31.7749 45.9 32.7499C45.5994 31.9009 44.981 31.2018 44.175 30.7999ZM48.225 37.4999C48.602 36.9965 49.1402 36.6376 49.7498 36.4829C50.3594 36.3282 51.0036 36.3872 51.575 36.6499C52.8215 37.0999 53.8614 37.9887 54.5 39.1499C54.916 40.0557 55.1617 41.0302 55.225 42.0249C55.225 42.1999 55.375 51.4749 55.375 51.7249C55.412 52.3327 55.412 52.9421 55.375 53.5499C55.2463 54.484 54.8014 55.3457 54.1145 55.9917C53.4276 56.6376 52.5402 57.0287 51.6 57.0999C50.6055 57.3422 49.5573 57.224 48.6418 56.7663C47.7263 56.3085 47.0028 55.5409 46.6 54.5999C46.5361 54.3905 46.3938 54.2138 46.2029 54.1067C46.0119 53.9996 45.787 53.9703 45.575 54.0249C46.666 48.7567 47.1193 43.3764 46.925 37.9999C46.9374 37.7667 46.9374 37.5331 46.925 37.2999C46.9694 37.4535 47.0668 37.5864 47.2 37.6749C47.2783 37.7321 47.3673 37.7729 47.4617 37.7951C47.556 37.8173 47.6539 37.8203 47.7495 37.804C47.845 37.7877 47.9364 37.7523 48.018 37.7001C48.0997 37.6479 48.1701 37.5798 48.225 37.4999ZM47.225 12.0749C47.07 13.0717 46.7929 14.0457 46.4 14.9749C46.0845 15.7756 45.5574 16.4755 44.875 16.9999C44.4208 17.3124 43.8974 17.5097 43.35 17.5749C42.2899 17.7279 41.221 17.8114 40.15 17.8249C38.175 17.9999 34.925 18.1499 31.525 18.2249V17.8249C31.2852 16.8622 30.976 15.918 30.6 14.9999C30.5906 14.9012 30.5618 14.8054 30.5152 14.7179C30.4685 14.6305 30.405 14.5531 30.3283 14.4903C30.2516 14.4276 30.1632 14.3806 30.0682 14.3522C29.9732 14.3238 29.8736 14.3145 29.775 14.3249C29.675 14.3308 29.5774 14.3574 29.4882 14.4029C29.399 14.4485 29.3202 14.512 29.2568 14.5895C29.1934 14.667 29.1467 14.7569 29.1197 14.8533C29.0927 14.9497 29.086 15.0507 29.1 15.1499C28.95 16.2249 28.775 17.0249 28.7 17.8499V18.1249H28.125C25.4885 18.1962 22.8501 18.1044 20.225 17.8499C19.0638 17.7388 17.9165 17.5127 16.8 17.1749C16.2048 16.9997 15.6854 16.63 15.325 16.1249C14.7768 15.2064 14.5238 14.1418 14.6 13.0749C14.6 11.1749 15.1 9.1499 15.2 7.5249L15.35 3.3999L30 2.9999L40.2 2.8249L43.875 2.9499L46.25 3.3999C46.7307 3.56186 47.1508 3.86623 47.4544 4.27257C47.758 4.67891 47.9309 5.168 47.95 5.6749C48.0344 7.79148 47.7898 9.90833 47.225 11.9499V12.0749ZM57.225 7.3999C57.225 9.1249 56.925 11.0499 56.825 12.2249V14.7249C56.8645 15.032 56.8645 15.3428 56.825 15.6499V15.9999C56.5747 16.1998 56.2851 16.3447 55.975 16.4249C55.3129 16.5979 54.6339 16.6985 53.95 16.7249C53.0097 16.7977 52.0653 16.7977 51.125 16.7249L49.075 16.4749C49.5539 15.1955 49.8648 13.8593 50 12.4999C50.603 10.1501 50.8475 7.72272 50.725 5.2999V4.8499C51.425 4.6999 52.125 4.4999 52.925 4.3749C53.6228 4.29562 54.3272 4.29562 55.025 4.3749C55.4392 4.3985 55.8498 4.46553 56.25 4.5749C56.4754 4.63845 56.676 4.76928 56.825 4.9499C57.1391 5.68232 57.2679 6.48086 57.2 7.2749L57.225 7.3999Z" fill="black"/>
<path fill-rule="evenodd" clip-rule="evenodd" d="M9.12486 45.6497C8.70068 45.6122 8.27403 45.6122 7.84986 45.6497C7.34986 45.6497 6.87486 45.8497 6.37486 45.8747L5.22486 46.0997C4.49986 46.3747 4.29986 48.1747 4.74986 48.5997L6.59986 48.7497C7.03952 48.7341 7.47584 48.6669 7.89986 48.5497C8.38228 48.3569 8.87465 48.19 9.37486 48.0497L11.1249 47.7247C11.7999 47.1247 11.8499 46.5497 11.2999 45.9497L9.12486 45.6497Z" fill="black"/>
<path fill-rule="evenodd" clip-rule="evenodd" d="M50.775 44.7749C49.7632 44.7919 48.7532 44.867 47.75 44.9999C46.825 45.3999 46.975 46.1999 47.6 46.8749C48.5442 47.1988 49.5144 47.4414 50.5 47.5999C51.425 47.5999 52.35 47.7749 53.3 47.7749C53.7079 47.7999 54.117 47.7999 54.525 47.7749C54.72 47.6471 54.8762 47.4683 54.9766 47.2579C55.0771 47.0475 55.1179 46.8137 55.0947 46.5817C55.0715 46.3497 54.9852 46.1285 54.8451 45.9422C54.7049 45.7559 54.5164 45.6116 54.3 45.5249C53.525 45.3249 53.325 45.2249 52.525 45.0499C51.9481 44.9213 51.3636 44.8295 50.775 44.7749Z" fill="black"/>
</g>
<defs>
<clipPath id="clip0_161_7071">
<rect width="60" height="60" fill="white"/>
</clipPath>
</defs>
</svg>
