<svg width="60" height="60" viewBox="0 0 60 60" fill="none" xmlns="http://www.w3.org/2000/svg">
<g clip-path="url(#clip0_161_7080)">
<path d="M58.8243 37.6751C58.7857 37.5353 58.7129 37.4072 58.6126 37.3025C58.5122 37.1978 58.3873 37.1196 58.2493 37.0751C58.075 34.1178 56.8414 31.3222 54.7743 29.2001C52.6453 26.9196 49.9015 25.3045 46.8743 24.5501C45.2362 24.1731 43.5503 24.0466 41.8743 24.1751C40.1634 24.3157 38.4805 24.6943 36.8743 25.3001C32.4897 26.9203 28.8399 30.0728 26.5993 34.1751C24.3645 38.2986 23.6226 43.0676 24.4993 47.6751C24.6074 48.6262 24.7744 49.5697 24.9993 50.5001C25.2443 51.1826 25.5628 51.8365 25.9493 52.4501C28.1787 55.6565 31.4315 58.0102 35.1743 59.1251C38.8453 60.3258 42.8033 60.3258 46.4743 59.1251C50.8285 57.6673 54.5346 54.7307 56.9493 50.8251C58.1674 48.8877 58.964 46.7154 59.287 44.4498C59.6101 42.1841 59.4524 39.8758 58.8243 37.6751ZM37.4993 48.1501C38.2378 50.1774 38.6185 52.3175 38.6243 54.4751C38.6032 54.9988 38.4181 55.5026 38.0951 55.9153C37.7721 56.328 37.3275 56.6288 36.8243 56.7751C36.5743 56.7751 36.2993 56.6501 36.0493 56.5501C32.9321 55.5756 30.236 53.5756 28.3993 50.8751C28.1312 50.4642 27.9209 50.0183 27.7743 49.5501C27.5171 48.7332 27.3249 47.8973 27.1993 47.0501C26.4411 43.0889 27.0585 38.9876 28.9493 35.4251C29.8691 33.6557 31.0966 32.0642 32.5743 30.7251C34.1854 30.9698 35.7368 31.5124 37.1493 32.3251C38.7456 33.2596 39.9924 34.6908 40.6993 36.4001C40.9562 36.9905 41.1328 37.6127 41.2243 38.2501C41.2959 38.8029 41.2533 39.3644 41.0993 39.9001C40.8392 40.442 40.4429 40.9071 39.9493 41.2501C39.2013 41.848 38.5222 42.5272 37.9243 43.2751C37.5567 43.7887 37.309 44.3781 37.1993 45.0001C37.1365 45.4647 37.1365 45.9356 37.1993 46.4001C37.2602 46.9895 37.3604 47.5741 37.4993 48.1501ZM45.7493 56.7751C43.7782 57.3894 41.7005 57.5853 39.6493 57.3501C40.2589 56.6407 40.6573 55.7746 40.7993 54.8501C41.0408 52.3839 40.8376 49.8944 40.1993 47.5001C40.0942 47.0651 40.0273 46.6217 39.9993 46.1751C39.9618 45.9685 39.9618 45.7568 39.9993 45.5501C40.1688 45.033 40.5023 44.5854 40.9493 44.2751C41.6513 43.6889 42.319 43.0629 42.9493 42.4001C43.3339 41.9324 43.6304 41.3988 43.8243 40.8251C44.0839 40.0189 44.1691 39.1667 44.0743 38.3251C43.9354 37.223 43.5966 36.1555 43.0743 35.1751C41.9657 33.0983 40.2104 31.4395 38.0743 30.4501C36.8594 29.8791 35.5727 29.4754 34.2493 29.2501C35.3271 28.5495 36.475 27.963 37.6743 27.5001C39.0517 26.9113 40.5095 26.532 41.9993 26.3751C44.0892 26.1033 46.2137 26.3208 48.2051 27.0107C50.1965 27.7005 52.0003 28.8437 53.4743 30.3501C55.4531 32.2176 56.6277 34.7819 56.7493 37.5001C56.7488 37.651 56.7939 37.7986 56.8787 37.9235C56.9634 38.0484 57.0839 38.1448 57.2243 38.2001C57.4307 39.0624 57.5645 39.9405 57.6243 40.8251C56.4738 40.4786 55.2754 40.3183 54.0743 40.3501C52.9523 40.3772 51.8539 40.6775 50.8743 41.2251C49.9304 41.8056 49.1153 42.573 48.479 43.4802C47.8427 44.3873 47.3987 45.415 47.1743 46.5001C46.9489 47.621 47.0219 48.7813 47.386 49.8651C47.7502 50.9488 48.3927 51.9178 49.2493 52.6751C49.711 53.0737 50.2345 53.3946 50.7993 53.6251L51.3993 53.8001C49.7205 55.111 47.8252 56.1178 45.7993 56.7751H45.7493ZM55.2493 49.7001C54.6057 50.7142 53.8511 51.6533 52.9993 52.5001C52.5335 52.3581 52.0817 52.174 51.6493 51.9501C51.3149 51.7757 51.0243 51.5278 50.7993 51.2251C50.3369 50.6713 50.0213 50.0101 49.8815 49.3024C49.7417 48.5946 49.7822 47.8631 49.9993 47.1751C50.2985 45.7141 51.1376 44.4196 52.3493 43.5501C53.112 42.9504 54.0328 42.5856 54.9993 42.5001C55.8957 42.3869 56.8028 42.3869 57.6993 42.5001C57.548 45.0697 56.72 47.5536 55.2993 49.7001H55.2493Z" fill="black"/>
<path d="M18.2996 40H6.59961H4.52461C3.72461 40 2.99961 40 3.19961 39.7C2.99598 39.3412 2.88432 38.9375 2.87461 38.525C2.83655 37.9423 2.83655 37.3577 2.87461 36.775C2.99961 34.75 2.87461 32.8 2.99961 30.8C2.99961 30 2.99961 29.2 3.17461 28.3C3.34961 26.8 3.47461 25.275 3.54961 23.775C3.54961 21.55 3.67461 19.325 3.74961 17.1V14.9C3.73563 14.4651 3.87749 14.0395 4.14961 13.7C4.57999 13.3647 5.08677 13.1414 5.62461 13.05C6.34227 12.9159 7.06969 12.8406 7.79961 12.825L19.0496 12.5C23.0496 12.35 26.9996 12 30.9746 11.85H35.9746C36.7246 11.85 38.1996 11.675 39.4746 11.85C40.0996 11.85 40.6996 11.85 40.9746 12.225C41.493 12.8633 41.8221 13.6341 41.9246 14.45C42.0138 15.8819 42.0138 17.3181 41.9246 18.75C41.9209 18.8615 41.9405 18.9725 41.9823 19.076C42.024 19.1794 42.0869 19.273 42.167 19.3507C42.247 19.4283 42.3424 19.4884 42.4471 19.5271C42.5517 19.5657 42.6633 19.582 42.7746 19.575C43 19.575 43.2162 19.4854 43.3756 19.326C43.5351 19.1666 43.6246 18.9504 43.6246 18.725C43.7118 17.2096 43.7118 15.6904 43.6246 14.175C43.5869 12.9721 43.1956 11.8069 42.4996 10.825C41.9312 10.2078 41.1586 9.81705 40.3246 9.725C38.9012 9.63038 37.473 9.63038 36.0496 9.725H31.0496C31.2367 9.67862 31.4016 9.56823 31.5157 9.41297C31.6299 9.2577 31.6861 9.06737 31.6746 8.875C31.8447 7.21412 31.9032 5.5437 31.8496 3.875C31.7192 2.9321 31.2898 2.05587 30.6246 1.375C30.3192 1.09756 29.9499 0.900021 29.5496 0.8C29.0076 0.570255 28.4473 0.38628 27.8746 0.25C26.8746 0.25 25.8746 0.05 24.8496 0.025C23.8246 0 22.7996 0 21.7746 0C20.3336 0.0440653 18.901 0.236753 17.4996 0.575C16.68 0.802569 15.9536 1.28393 15.4246 1.95C15.1489 2.26954 14.998 2.67796 14.9996 3.1C14.9996 3.675 15.2746 4.575 15.3246 4.85L15.7996 9.65V9.775H11.1496H7.69961C6.65566 9.82382 5.61818 9.96605 4.59961 10.2C3.76479 10.4017 2.99221 10.8052 2.34961 11.375C1.80239 11.879 1.41184 12.53 1.22461 13.25C0.976094 14.4583 0.875356 15.6924 0.924609 16.925V23.575C0.924609 25.025 0.924609 26.475 0.724609 27.925V30.575C0.724609 32.525 0.874609 34.475 0.849609 36.475C0.755466 37.3057 0.755466 38.1443 0.849609 38.975C0.973265 39.6562 1.25592 40.2986 1.67461 40.85C2.17274 41.3226 2.81575 41.6133 3.49961 41.675C4.55586 41.7689 5.61836 41.7689 6.67461 41.675L18.3996 41.325C18.5002 41.3251 18.5999 41.3049 18.6925 41.2656C18.7852 41.2264 18.869 41.1689 18.939 41.0966C19.009 41.0243 19.0637 40.9386 19.0999 40.8447C19.136 40.7508 19.153 40.6506 19.1496 40.55C19.1077 40.3656 18.9953 40.2048 18.8365 40.1021C18.6777 39.9993 18.485 39.9627 18.2996 40ZM17.2746 9.675L17.4246 4.675C17.5265 4.20719 17.5519 3.72593 17.4996 3.25C17.8487 3.1406 18.2096 3.07345 18.5746 3.05C19.6876 2.93918 20.8064 2.89743 21.9246 2.925H27.6996C28.2246 2.925 29.3996 2.05 29.7496 4.625C29.9496 6.025 29.7496 7.625 29.9496 8.8C29.9552 8.97962 30.0192 9.15252 30.132 9.29241C30.2448 9.43229 30.4002 9.53152 30.5746 9.575C26.6996 9.575 22.8746 9.8 18.9996 9.825H17.2496C17.2751 9.77942 17.2839 9.72639 17.2746 9.675Z" fill="black"/>
<path fill-rule="evenodd" clip-rule="evenodd" d="M11.7746 36.2V29.075V24.3C11.6589 21.5921 11.3666 18.8947 10.8996 16.225C10.8933 16.1264 10.8675 16.0301 10.8238 15.9415C10.7801 15.8529 10.7194 15.7738 10.645 15.7088C10.5707 15.6437 10.4843 15.594 10.3907 15.5625C10.2971 15.5309 10.1981 15.5182 10.0996 15.525C9.89839 15.544 9.71259 15.641 9.58182 15.7951C9.45105 15.9492 9.38567 16.1483 9.39961 16.35C9.39961 18.85 9.09961 21.1 8.97461 23.5V28.3C9.11512 31.0216 9.45773 33.7291 9.99961 36.4C10.012 36.5119 10.0465 36.6203 10.1011 36.7187C10.1557 36.8172 10.2294 36.9039 10.3178 36.9736C10.4061 37.0434 10.5075 37.0949 10.616 37.1252C10.7245 37.1555 10.8379 37.1639 10.9496 37.15C11.0668 37.1437 11.1816 37.1139 11.2871 37.0624C11.3926 37.0108 11.4866 36.9386 11.5636 36.8499C11.6406 36.7613 11.6989 36.6581 11.7352 36.5464C11.7714 36.4347 11.7848 36.3169 11.7746 36.2Z" fill="black"/>
<path fill-rule="evenodd" clip-rule="evenodd" d="M35.55 24.3C35.4219 21.5932 35.1297 18.8965 34.675 16.225C34.6559 16.0238 34.559 15.838 34.4049 15.7072C34.2507 15.5765 34.0516 15.5111 33.85 15.525C33.6512 15.5499 33.469 15.6485 33.3394 15.8013C33.2098 15.954 33.1422 16.1499 33.15 16.35C33.15 18.85 32.85 21.1 32.75 23.5C33.175 25.275 34.25 25.15 35.55 24.3Z" fill="black"/>
</g>
<defs>
<clipPath id="clip0_161_7080">
<rect width="60" height="60" fill="white"/>
</clipPath>
</defs>
</svg>
