<svg width="60" height="60" viewBox="0 0 60 60" fill="none" xmlns="http://www.w3.org/2000/svg">
<path fill-rule="evenodd" clip-rule="evenodd" d="M55.7345 48.6339C55.588 46.3364 55.2702 44.0631 55.099 41.7901C54.9277 39.5171 54.7325 37.5374 54.488 35.4109C54.2435 33.2844 53.9747 31.1824 53.657 29.0561C53.5765 27.7989 53.3635 26.5536 53.0215 25.3409C52.7332 24.6749 52.2685 24.1001 51.6772 23.6789C50.299 22.7584 48.7095 22.2031 47.0577 22.0659C45.3817 21.9439 43.699 21.9439 42.0227 22.0659C42.0227 20.8926 42.2185 19.6216 42.2917 18.5216C42.4922 16.0771 42.4185 13.6176 42.0717 11.1894C41.7925 9.47213 41.2132 7.81738 40.3607 6.30088C39.6722 4.98838 38.7815 3.79238 37.7212 2.75688C37.0012 2.08788 36.1752 1.54288 35.277 1.14388C32.6167 0.193631 29.6692 0.499131 27.2602 1.97488C24.8905 3.32138 23.0275 5.40763 21.9562 7.91413C21.3685 9.44338 20.9982 11.0479 20.8565 12.6801C20.734 14.9924 20.734 17.3094 20.8565 19.6216V22.2614H20.4897C18.9012 22.5056 16.4325 22.6034 14.306 22.8479C13.3655 22.9471 12.434 23.1189 11.5197 23.3611C10.6877 23.5639 9.87097 23.8254 9.07547 24.1434C8.53722 24.3481 8.10522 24.7626 7.87797 25.2921C7.53522 26.3044 7.27372 27.3424 7.09572 28.3961C6.65597 30.5714 6.24047 33.2844 5.82497 35.4354C5.58047 36.7061 5.40947 37.8794 5.28722 39.2236C4.96947 42.0589 4.82272 44.8696 4.40722 47.9494C4.11947 50.1234 4.11947 52.3259 4.40722 54.4996C4.54322 55.6189 5.02122 56.6689 5.77597 57.5061C6.27647 57.9599 6.86822 58.3016 7.51122 58.5081C8.31272 58.7164 9.13047 58.8554 9.95547 58.9236C11.251 59.0459 12.5707 59.0949 13.915 59.1191C15.2592 59.1434 16.5302 59.1191 17.8257 59.1191H25.5492L34.837 59.2414L44.6137 59.1191C47.2447 59.6181 49.9587 59.4501 52.5082 58.6304C54.4792 57.7129 55.7245 55.7201 55.6857 53.5466C55.8305 51.9126 55.8467 50.2701 55.7345 48.6339ZM22.8117 19.5971C22.8335 17.3664 22.9802 15.1389 23.2517 12.9246C23.4367 11.5346 23.8152 10.1771 24.376 8.89188C25.2635 7.00588 26.7157 5.44263 28.5312 4.41888C30.2145 3.37388 32.2785 3.14063 34.1527 3.78338C34.9502 4.10713 35.6737 4.58938 36.2792 5.20113C36.9555 5.87588 37.5465 6.63113 38.039 7.44963C38.829 8.68688 39.3995 10.0514 39.7252 11.4826C40.1562 13.7531 40.3202 16.0664 40.2142 18.3751V22.0169L32.393 21.7236L27.5045 21.6259L23.4472 21.8214L22.6162 21.9436L22.8117 19.5971ZM52.9482 53.2044C53.0095 54.3449 52.3977 55.4156 51.384 55.9419C49.2955 56.5604 47.0852 56.6444 44.956 56.1861L34.837 56.3329L25.3782 56.5284H17.5325C16.286 56.5284 15.0882 56.6751 13.744 56.6994C12.3997 56.7236 11.2997 56.6994 10.0045 56.6994C9.42872 56.6949 8.85522 56.6294 8.29347 56.5039C7.86372 56.4401 7.45872 56.2629 7.12022 55.9906C6.52522 55.2481 6.19797 54.3269 6.19147 53.3754C6.01147 51.6774 6.01147 49.9651 6.19147 48.2671C6.53372 45.1386 6.60697 42.3279 6.85147 39.4681C6.94914 38.2623 7.0958 37.0402 7.29147 35.8019C7.65797 33.6511 8.02472 30.9136 8.39122 28.7384C8.54472 27.7769 8.77372 26.8289 9.07572 25.9031C9.07572 25.7076 9.41772 25.6586 9.68672 25.5609C10.3467 25.3164 11.1532 25.1944 11.7152 25.0231C12.5175 24.8184 13.3347 24.6794 14.1595 24.6076C16.3102 24.3876 18.8035 24.3634 20.4165 24.1434V29.2026C20.4165 29.7671 21.0275 30.1199 21.5165 29.8376C21.7432 29.7066 21.883 29.4646 21.883 29.2026L22.6162 23.9234L23.7895 23.7766L27.5045 23.6544L32.124 23.8256L39.9697 24.2656C39.9817 24.3874 39.9817 24.5101 39.9697 24.6321C39.9697 26.0009 39.823 27.3696 39.652 28.7629C39.5947 29.2226 39.9247 29.6406 40.3852 29.6916C40.8502 29.7494 41.2752 29.4224 41.3385 28.9584C41.534 27.5651 41.705 26.1719 41.8272 24.7544C41.8395 24.5999 41.8395 24.4444 41.8272 24.2899C43.4582 24.2186 45.092 24.2676 46.7157 24.4366C47.9682 24.5456 49.172 24.9749 50.2107 25.6831C50.5097 25.9201 50.7102 26.2599 50.773 26.6364C50.9377 27.5656 51.0437 28.5044 51.0907 29.4471C51.384 31.5246 51.6285 33.6266 51.824 35.7041C52.0195 37.7816 52.1905 39.8836 52.3127 41.9856C52.435 44.0876 52.7527 46.5319 52.8992 48.8294C53.0255 50.2844 53.042 51.7469 52.9482 53.2044Z" fill="black"/>
<path fill-rule="evenodd" clip-rule="evenodd" d="M45.1266 36.1929C41.7029 35.8724 38.2719 35.6361 34.8366 35.4841H30.4126H26.0134C22.5914 35.6064 19.1941 35.8754 15.7721 36.0219C15.1984 36.1264 14.9526 36.8129 15.3301 37.2576C15.4436 37.3911 15.5999 37.4814 15.7721 37.5129C19.6829 37.7816 23.5936 38.1239 27.5041 38.2216H34.5434C36.8899 38.2216 39.4316 38.0749 41.9981 38.0016C41.8399 38.9149 41.7421 39.8374 41.7046 40.7636C41.7446 41.5101 41.8344 42.2531 41.9736 42.9876C41.9736 43.4601 42.3566 43.8431 42.8291 43.8431C43.2919 43.8299 43.6604 43.4509 43.6601 42.9876C43.7954 42.2519 43.8934 41.5094 43.9534 40.7636C43.9079 39.8289 43.8019 38.8981 43.6356 37.9771H45.0776C45.5411 37.9911 45.9314 37.6336 45.9576 37.1706C46.0499 36.6559 45.6494 36.1846 45.1266 36.1929Z" fill="black"/>
</svg>
