<svg width="60" height="60" viewBox="0 0 60 60" fill="none" xmlns="http://www.w3.org/2000/svg">
<g clip-path="url(#clip0_161_7076)">
<path fill-rule="evenodd" clip-rule="evenodd" d="M15.7751 38.3501C15.7751 38.2516 15.7557 38.1541 15.718 38.0631C15.6803 37.9721 15.6251 37.8894 15.5555 37.8198C15.4858 37.7501 15.4031 37.6949 15.3121 37.6572C15.2211 37.6195 15.1236 37.6001 15.0251 37.6001C14.9266 37.6001 14.8291 37.6195 14.7381 37.6572C14.6471 37.6949 14.5644 37.7501 14.4948 37.8198C14.4252 37.8894 14.3699 37.9721 14.3322 38.0631C14.2945 38.1541 14.2751 38.2516 14.2751 38.3501C13.4371 40.6782 13.1881 43.1774 13.5501 45.6251C13.571 46.074 13.6996 46.5114 13.9251 46.9001C13.9538 47.0116 14.0049 47.1161 14.0751 47.2073C14.1454 47.2984 14.2335 47.3744 14.334 47.4305C14.4346 47.4866 14.5454 47.5217 14.6599 47.5337C14.7744 47.5456 14.8902 47.5342 15.0001 47.5001C15.2135 47.421 15.3876 47.2619 15.4857 47.0565C15.5837 46.8512 15.5978 46.6157 15.5251 46.4001C15.4773 46.1692 15.4773 45.931 15.5251 45.7001C15.7513 43.257 15.8348 40.8029 15.7751 38.3501Z" fill="black"/>
<path fill-rule="evenodd" clip-rule="evenodd" d="M17.4995 40.6751C17.27 40.7774 17.075 40.944 16.9382 41.1547C16.8013 41.3655 16.7285 41.6114 16.7285 41.8626C16.7285 42.1139 16.8013 42.3598 16.9382 42.5705C17.075 42.7813 17.27 42.9479 17.4995 43.0501C23.6995 42.6751 28.9995 42.1751 35.2245 41.8751C36.9245 41.8751 38.6495 41.8751 40.3495 41.7501C41.4245 41.5501 41.2995 38.9251 39.7245 38.9501C36.9745 38.9501 35.0495 38.9501 32.2245 39.2501C27.1495 39.6501 22.7245 40.2501 17.4995 40.6751Z" fill="black"/>
<path fill-rule="evenodd" clip-rule="evenodd" d="M43.0004 36.9C42.9821 36.7054 42.8932 36.5241 42.7504 36.3905C42.6076 36.257 42.4208 36.1803 42.2254 36.175C42.1247 36.1782 42.0256 36.2016 41.9341 36.2438C41.8426 36.2861 41.7606 36.3464 41.6929 36.421C41.6253 36.4957 41.5733 36.5833 41.5403 36.6784C41.5072 36.7736 41.4936 36.8745 41.5004 36.975C41.3754 37.625 41.2504 44.475 41.3254 45.375C41.3115 45.6032 41.3874 45.8277 41.5369 46.0005C41.6864 46.1734 41.8976 46.2809 42.1254 46.3C42.2358 46.3103 42.3471 46.2982 42.4527 46.2645C42.5583 46.2307 42.656 46.1761 42.74 46.1037C42.824 46.0314 42.8926 45.9429 42.9416 45.8434C42.9906 45.744 43.0191 45.6357 43.0254 45.525C43.8415 42.7067 43.8329 39.7136 43.0004 36.9Z" fill="black"/>
<path fill-rule="evenodd" clip-rule="evenodd" d="M58.3499 7.50004C57.5077 6.24906 56.4082 5.19219 55.1249 4.40004C53.8639 3.61174 52.4772 3.04522 51.0249 2.72504C49.4498 2.36063 47.8413 2.15957 46.2249 2.12504C43.8782 2.12245 41.5331 2.24763 39.1999 2.50004L30.4999 3.35004L24.5249 3.75004L19.5249 3.90004C17.4679 4.05836 15.4224 4.34222 13.3999 4.75004C11.3508 5.16302 9.3489 5.78286 7.42493 6.60004C5.10146 7.43997 3.07004 8.93315 1.57493 10.9C0.250497 12.9972 -0.306093 15.4886 -7.02813e-05 17.95C-7.02813e-05 18.55 0.14993 19.125 0.24993 19.7C0.37327 20.2841 0.531894 20.8602 0.72493 21.425C1.04793 22.289 1.4409 23.1251 1.89993 23.925C2.37297 24.7181 2.89917 25.4781 3.47493 26.2C3.54696 26.2954 3.64222 26.3708 3.75162 26.4189C3.86103 26.4671 3.98094 26.4864 4.09993 26.475L4.44993 33.975V36.325C4.47545 36.8331 4.47545 37.342 4.44993 37.85C4.34933 38.5716 4.34933 39.3035 4.44993 40.025C4.544 40.4749 4.76026 40.8901 5.07493 41.225C5.30674 41.4814 5.57655 41.7006 5.87493 41.875C5.7644 41.9411 5.67507 42.0374 5.61749 42.1526C5.5599 42.2677 5.53646 42.397 5.54993 42.525C5.54993 45.025 4.82493 48.375 5.17493 51.2C5.32703 52.6487 5.93045 54.0129 6.89993 55.1C7.69598 55.8887 8.68869 56.4498 9.77493 56.725C11.2216 57.0234 12.6986 57.1493 14.1749 57.1L18.1749 57.25C19.4749 57.25 20.7999 57.425 22.1249 57.575C23.4499 57.725 24.7749 57.775 26.0999 57.8H31.8999H37.8499C39.1999 57.8 40.5499 57.8 41.8999 57.6C43.9153 57.6076 45.926 57.4066 47.8999 57C48.9204 56.7506 49.8431 56.2022 50.5499 55.425C51.047 54.8714 51.4143 54.2137 51.6249 53.5C51.8741 52.5759 52.0332 51.6298 52.0999 50.675C52.2728 49.2394 52.3729 47.7958 52.3999 46.35C52.4096 44.875 52.284 43.4022 52.0249 41.95C52.614 41.731 53.1538 41.3973 53.613 40.9681C54.0722 40.539 54.4416 40.023 54.6999 39.45C55.6085 37.248 56.0511 34.8816 55.9999 32.5C56.1249 29.3 55.6499 25.975 55.5749 22.95C55.5392 22.2422 55.5392 21.5329 55.5749 20.825C55.7331 20.9763 55.9435 21.0608 56.1624 21.0608C56.3813 21.0608 56.5917 20.9763 56.7499 20.825C58.5945 19.1933 59.7552 16.9255 59.9999 14.475C60.2539 12.0304 59.6723 9.57178 58.3499 7.50004ZM53.1499 32.5C53.1407 34.4163 52.7498 36.3115 51.9999 38.075C51.7849 38.4903 51.4578 38.837 51.0556 39.0756C50.6535 39.3142 50.1924 39.4353 49.7249 39.425C48.4298 39.4879 47.1317 39.4209 45.8499 39.225C44.3249 39.05 43.3499 41.575 45.1499 41.925C46.8424 42.2106 48.5599 42.3195 50.2749 42.25C50.4649 43.5827 50.5318 44.9301 50.4749 46.275C50.3873 47.6407 50.2287 49.0008 49.9999 50.35C49.9066 51.1964 49.7393 52.0329 49.4999 52.85C49.3525 53.2664 49.123 53.649 48.8249 53.975C48.1749 54.5378 47.3581 54.8716 46.4999 54.925C44.8955 55.0624 43.2843 55.1041 41.6749 55.05H31.8249H26.0749C24.8807 55.0417 23.6876 54.9749 22.4999 54.85C21.3749 54.85 20.2749 54.675 19.1749 54.65H14.1749C12.9127 54.8 11.6372 54.8 10.3749 54.65C9.66974 54.5188 9.0132 54.1992 8.47493 53.725C7.50219 52.7243 6.94017 51.3951 6.89993 50C6.72493 47.5 7.19993 44.75 6.89993 42.65C7.50709 42.818 8.12527 42.9434 8.74993 43.025C10.1499 43.175 10.5499 43.2 11.9499 43.275C12.2134 43.2684 12.4673 43.1752 12.6725 43.0099C12.8777 42.8446 13.0228 42.6163 13.0854 42.3604C13.1479 42.1044 13.1245 41.8349 13.0187 41.5936C12.9129 41.3523 12.7306 41.1525 12.4999 41.025C10.9999 40.85 10.3499 41.025 8.97493 40.775C8.46715 40.6968 7.97147 40.554 7.49993 40.35C7.13336 40.2813 6.79463 40.1076 6.52493 39.85C6.42372 39.7032 6.37125 39.5283 6.37493 39.35V38.15V36.425C6.37493 35.85 6.37493 34.775 6.22493 33.925C6.09993 32.025 5.89993 30.125 5.74993 28.225C5.74993 26.975 5.59993 25.725 5.57493 24.45C5.51934 23.5315 5.56124 22.6097 5.69993 21.7C5.78532 21.1998 5.99125 20.7279 6.29993 20.325C6.68156 19.9547 7.15694 19.6954 7.67493 19.575C8.57936 19.3349 9.51507 19.2337 10.4499 19.275C10.5873 19.272 10.7216 19.2335 10.8398 19.1635C10.9581 19.0934 11.0562 18.9941 11.1249 18.875C12.7999 18.875 14.5749 18.875 16.1249 18.6C19.4499 18.125 22.7499 17.8 26.1249 17.575C31.1249 17.25 36.1249 17.125 41.1249 17.075C43.2749 17.075 45.9499 16.55 48.4249 16.7C49.8955 16.6583 51.3352 17.1264 52.4999 18.025C52.8736 18.3886 53.0967 18.8795 53.1249 19.4C53.1249 20.6 52.9249 21.9 52.9499 23.1C52.8749 26.05 53.2749 29.325 53.1499 32.5ZM55.6499 19.7C55.6508 19.2293 55.6005 18.7599 55.4999 18.3C55.2766 17.4104 54.7779 16.6142 54.0749 16.025C52.9044 15.085 51.4915 14.4956 49.9999 14.325C47.0447 14.1818 44.0825 14.3073 41.1499 14.7C36.9249 14.7 32.7249 15 28.6499 15.325C24.5749 15.65 20.2749 16.075 16.1499 16.775C14.4499 17.025 12.4249 16.95 10.5749 17.175C9.71923 17.2807 8.87967 17.4906 8.07493 17.8C7.96861 17.7946 7.86234 17.8118 7.7632 17.8506C7.66406 17.8894 7.57431 17.9489 7.49993 18.025C6.69769 18.2013 5.96127 18.5998 5.37493 19.175C4.85457 19.7856 4.49379 20.5158 4.32493 21.3C4.14288 22.2723 4.06743 23.2614 4.09993 24.25C3.84993 23.875 3.57493 23.525 3.37493 23.15C3.02465 22.4242 2.73207 21.6718 2.49993 20.9C2.3334 20.4045 2.21617 19.8936 2.14993 19.375C2.07399 18.8612 2.02393 18.3439 1.99993 17.825C1.79747 15.8171 2.30138 13.8014 3.42493 12.125C4.73341 10.5438 6.46907 9.37221 8.42493 8.75004C9.80612 8.22108 11.2273 7.80309 12.6749 7.50004C14.9584 7.04142 17.2734 6.75727 19.5999 6.65004H24.5999H27.0999C28.3249 6.65004 29.5999 6.45004 30.8249 6.30004L39.4749 5.37504C41.7144 5.08446 43.9674 4.90922 46.2249 4.85004C47.6681 4.76325 49.1162 4.81347 50.5499 5.00004C51.7457 5.20831 52.8961 5.62281 53.9499 6.22504C54.9885 6.86775 55.8823 7.71904 56.5749 8.72504C57.694 10.3948 58.2058 12.3981 58.0249 14.4C57.9233 16.3891 57.0857 18.2692 55.6749 19.675L55.6499 19.7Z" fill="black"/>
</g>
<defs>
<clipPath id="clip0_161_7076">
<rect width="60" height="60" fill="white"/>
</clipPath>
</defs>
</svg>
