<svg width="60" height="60" viewBox="0 0 60 60" fill="none" xmlns="http://www.w3.org/2000/svg">
<g clip-path="url(#clip0_166_4910)">
<path fill-rule="evenodd" clip-rule="evenodd" d="M18.2497 17.6448C16.486 12.3581 15.0779 6.95939 14.0347 1.48478C13.9945 1.23673 14.0476 0.982569 14.184 0.771473C14.3203 0.560378 14.5301 0.407359 14.7728 0.34203C15.0154 0.276701 15.2737 0.303707 15.4975 0.417821C15.7214 0.531935 15.895 0.725043 15.9847 0.959775C19.1682 8.82256 21.6333 16.9574 23.3497 25.2648C23.3885 25.5228 23.3317 25.7861 23.19 26.0051C23.0482 26.2241 22.8313 26.3839 22.5801 26.4542C22.3288 26.5245 22.0606 26.5006 21.8257 26.387C21.5908 26.2734 21.4056 26.0779 21.3047 25.8373C20.5353 23.9759 19.8109 22.0962 19.1322 20.1998C17.2451 22.8317 15.9146 25.821 15.2222 28.9848C22.1347 28.9823 29.0422 29.3848 35.9122 30.1873C36.1964 30.1707 36.4754 30.2677 36.688 30.4568C36.9007 30.646 37.0294 30.9119 37.046 31.196C37.0626 31.4801 36.9656 31.7592 36.7764 31.9718C36.5872 32.1844 36.3214 32.3132 36.0372 32.3298C32.244 32.1154 28.4463 31.9904 24.6472 31.9548C27.5003 40.2836 29.0748 48.9967 29.3172 57.7973C29.3173 57.9747 29.2733 58.1494 29.1891 58.3056C29.1049 58.4617 28.9832 58.5945 28.8349 58.692C28.6866 58.7894 28.5164 58.8485 28.3397 58.8638C28.1629 58.8791 27.9851 58.8502 27.8222 58.7798C27.5472 59.3698 26.0122 59.3773 16.8972 59.4198C13.5772 59.4348 9.25224 59.4548 3.61724 59.5098C3.19816 59.5025 2.79888 59.3301 2.50627 59.03C2.21366 58.7299 2.05138 58.3264 2.05474 57.9073C2.07474 53.7548 2.15724 49.0498 2.34974 44.3498L2.39224 43.2898C2.90224 30.7673 2.95724 29.4398 4.73474 29.2998C7.35306 29.1432 9.97455 29.0449 12.5972 29.0048C12.406 26.7748 12.8323 24.5353 13.8293 22.5315C14.8263 20.5278 16.3557 18.8371 18.2497 17.6448ZM6.37974 32.4698C5.81224 39.3523 5.38224 49.5798 5.24724 56.3998C8.60224 56.5098 11.4597 56.5998 13.8972 56.6748C22.5097 56.9448 25.8347 57.0473 27.1072 57.3698C26.5897 54.3598 23.2747 36.8998 22.2997 31.9448C16.9897 31.9448 11.6797 32.1198 6.37974 32.4698Z" fill="black"/>
<path fill-rule="evenodd" clip-rule="evenodd" d="M51.6099 0.114872C38.2849 -1.46763 36.3224 13.6999 46.7474 16.9049C48.7102 17.4554 50.8032 17.3088 52.6702 16.49C54.5371 15.6711 56.0627 14.2307 56.9872 12.4138C57.9117 10.5968 58.1781 8.5157 57.741 6.52448C57.3039 4.53327 56.1904 2.75503 54.5899 1.49237C54.3664 1.316 54.0821 1.23562 53.7994 1.26891C53.5166 1.3022 53.2587 1.44643 53.0824 1.66987C52.906 1.89332 52.8256 2.17767 52.8589 2.46038C52.8922 2.74309 53.0364 3.001 53.2599 3.17737C54.2588 4.10069 54.925 5.32804 55.1548 6.66881C55.3847 8.00958 55.1653 9.38873 54.5309 10.592C53.8965 11.7954 52.8824 12.7555 51.6463 13.3234C50.4102 13.8912 49.0211 14.035 47.6949 13.7324C41.1499 11.7824 41.4074 2.05737 51.4799 2.13987C51.7439 2.14924 52.0011 2.05532 52.197 1.87806C52.3928 1.7008 52.5119 1.45416 52.5288 1.19054C52.5457 0.926915 52.4592 0.667081 52.2876 0.466229C52.116 0.265377 51.8729 0.139333 51.6099 0.114872Z" fill="black"/>
<path fill-rule="evenodd" clip-rule="evenodd" d="M55.0049 22.625C51.4574 17.43 46.2299 21.07 43.5624 21.5075C40.6462 21.4223 37.7443 21.0641 34.8949 20.4375C26.2699 20.2325 25.9549 31.3475 36.5649 32.5475C48.0024 33.815 43.5549 24.535 45.0399 51.2725C45.2799 55.8425 45.7249 60.39 51.0699 59.9725C56.2449 59.585 57.1399 54.6625 57.5399 49.4975C57.8349 45.7625 58.1149 27.2075 55.0049 22.625ZM53.1624 23.92C50.5924 20.4225 47.2299 23.4925 44.0524 24.14C40.9749 24.19 37.8974 23.94 34.8674 23.395C29.7874 23.4375 30.7774 28.6875 36.9124 29.32C50.5524 30.7275 46.6574 18.7725 48.3274 51.1025C48.4849 54.41 48.1849 56.96 50.8649 56.795C55.5849 56.495 54.9574 43.505 54.9574 38.815C55.6272 33.7781 55.0096 28.6536 53.1624 23.92Z" fill="black"/>
</g>
<defs>
<clipPath id="clip0_166_4910">
<rect width="60" height="60" fill="white"/>
</clipPath>
</defs>
</svg>
