<svg width="60" height="60" viewBox="0 0 60 60" fill="none" xmlns="http://www.w3.org/2000/svg">
<g clip-path="url(#clip0_161_7067)">
<path fill-rule="evenodd" clip-rule="evenodd" d="M58.5659 29.132C58.2484 29.132 58.9811 28.839 53.4114 32.6498C52.1771 33.4918 51.0529 34.4848 50.0646 35.6058C50.0646 30.1338 49.5516 26.1763 49.7716 25.077C49.9916 23.9778 53.7046 21.7058 59.0301 16.9178C59.6896 16.185 58.7856 15.1835 57.8574 15.7208C54.6009 17.291 51.7756 19.6303 49.6251 22.5365C49.0631 15.2078 50.0891 11.4703 46.3761 10.4933C44.8859 10.1023 42.4919 10.029 41.4904 9.78479C36.0184 8.36779 16.2801 9.24729 10.5394 9.54054C11.0911 7.59329 11.7684 5.68379 12.5669 3.82429C13.1531 3.60429 37.6306 3.26229 39.7559 4.09279C41.2649 5.22604 42.4521 6.73329 43.2004 8.46554C43.3096 9.09554 44.0599 9.37104 44.5506 8.96154C44.7019 8.83529 44.8034 8.65954 44.8371 8.46554C44.1886 5.96379 42.7066 3.75779 40.6354 2.21179C36.6779 0.330786 12.0539 0.159786 10.8814 3.14004C10.8814 3.33554 8.80487 9.34504 8.75612 9.54054C6.79537 8.99954 4.69462 9.51779 3.21062 10.9085C2.13587 12.1055 2.01362 15.7943 1.84262 17.3333C1.01212 25.9565 1.15862 26.6893 0.767867 35.337C0.388367 39.9113 0.651617 44.5158 1.54962 49.017C1.75687 49.5118 2.21412 49.857 2.74662 49.9208C4.93837 50.136 7.14012 50.2338 9.34237 50.214C10.1299 50.898 11.0544 51.406 12.0539 51.7043C11.7261 53.016 11.5379 54.359 11.4921 55.7105C11.8341 57.0053 17.6969 59.2525 21.7031 58.1533C22.5581 57.9335 25.0011 58.2755 25.6361 55.7105C26.7354 51.4355 22.6559 53.8538 34.2839 53.2675C34.0751 54.6898 34.1249 56.138 34.4306 57.5425C34.5444 57.8158 34.7409 58.0463 34.9924 58.2023C37.3131 59.6435 41.3439 59.1793 44.0066 58.593C47.4266 57.6403 47.1089 54.7333 46.4494 51.2645C51.4571 50.0918 50.0891 43.9358 50.0649 38.5373C50.3091 38.5373 50.6021 37.8288 50.6511 37.7555C50.7001 37.6823 59.5919 32.039 59.3964 30.0115C59.4246 29.534 59.0444 29.1313 58.5659 29.132ZM8.09637 48.5285C6.45962 48.5285 4.11462 48.2598 3.21062 48.1133C2.73237 43.9005 2.73237 39.6473 3.21062 35.4348C3.21062 34.3355 3.67487 12.8383 4.28562 12.0323C4.89637 11.2263 7.99862 10.2 8.07212 11.3483C8.34062 14.9393 8.24312 9.78478 7.68112 41.8105C7.36462 44.055 7.50587 46.3403 8.09637 48.5285ZM23.4131 55.6373H21.1901C18.7034 55.7408 16.2191 55.3848 13.8616 54.5868C13.7836 53.7253 13.7836 52.8588 13.8616 51.9973C15.7671 52.3638 22.3629 52.8768 24.2926 53.0233C24.1704 53.7805 24.0729 55.2953 23.5109 55.6373H23.4131ZM43.4691 56.0525C41.0991 56.4735 38.6834 56.572 36.2871 56.3455C36.0181 55.44 35.8621 54.5045 35.8229 53.5608C35.8324 53.4305 35.8324 53.3 35.8229 53.1698C41.1239 52.6813 41.4414 51.8995 44.6661 51.6308C44.9104 54.4403 45.1546 55.8083 43.5669 56.0525H43.4691ZM46.7914 48.0888C46.1316 49.1635 43.2246 48.846 41.7101 49.31C38.6851 50.1483 35.5659 50.5998 32.4274 50.6538C28.4944 50.8003 12.5914 49.9453 10.7104 47.5758C8.82937 45.2063 9.97737 11.3238 9.97737 11.226C11.7119 11.226 17.3061 11.0795 17.3061 11.006C21.0191 11.006 37.7771 10.835 39.6094 11.348C40.3176 11.5435 43.2736 12.2275 44.6661 12.4718C46.0586 12.716 46.7181 12.4718 46.8646 15.159V20.0448C47.0601 22.4875 47.3776 39.5875 47.4021 39.5875C47.3531 42.7145 47.9639 46.3543 46.8891 48.0888H46.7914Z" fill="black"/>
<path fill-rule="evenodd" clip-rule="evenodd" d="M15.4247 18.7747C15.9624 19.301 16.6272 19.6797 17.3544 19.874C23.9989 21.9747 31.1809 19.2387 32.2069 17.7487C32.7444 16.918 32.2069 15.9897 32.2069 15.1837C32.1027 14.1492 31.9394 13.1215 31.7184 12.1057C31.4009 11.1775 29.8862 11.666 30.0817 12.5455C30.2294 13.8522 30.2294 15.1715 30.0817 16.4785C26.2299 18.1385 21.9422 18.4987 17.8674 17.5045C17.5567 17.4702 17.2569 17.3702 16.9879 17.2112V16.4785C17.1347 12.9117 17.0857 12.9117 17.1102 12.35C17.1347 11.7882 15.7909 11.3482 15.6199 12.35C14.4474 18.848 14.3987 17.7975 15.4247 18.7747Z" fill="black"/>
<path fill-rule="evenodd" clip-rule="evenodd" d="M21.1905 39.3432C20.6288 40.1004 20.9218 39.8317 21.1905 42.6167C21.4593 45.4017 26.7358 45.3282 28.8368 45.3769C30.9378 45.4257 34.7485 46.6717 37.1425 45.2059C38.5348 44.3509 37.9243 42.4457 37.802 40.3204C39.4875 40.3204 43.2008 40.3204 44.8863 40.1249C46.5718 39.9294 46.9383 38.3417 45.106 38.3659C41.222 38.3659 22.534 36.9004 21.7035 36.8514C18.4535 36.5779 15.188 36.5369 11.932 36.7294C10.6618 36.7294 10.442 38.1949 11.3948 38.3172C13.52 38.6592 15.9385 38.7569 21.1905 39.3432ZM23.1938 39.6364C27.4668 40.3067 31.793 40.5767 36.1165 40.4424C36.1165 42.0059 35.4813 42.8854 35.8478 43.4227C34.3575 43.8379 30.5955 42.6654 28.8368 42.6167C27.0135 42.8352 25.1675 42.7692 23.3648 42.4212C23.045 41.5279 22.9858 40.5622 23.1938 39.6364Z" fill="black"/>
<path fill-rule="evenodd" clip-rule="evenodd" d="M20.8481 25.3946C20.3961 26.9254 20.3961 28.5541 20.8481 30.0849C21.3894 30.8581 22.2151 31.3851 23.1444 31.5506C24.0239 31.7706 34.5526 32.0391 35.7741 31.2819C36.9956 30.5246 36.4336 29.6941 36.2136 26.3961C37.3131 26.3961 44.6171 25.9076 44.6171 25.9076C46.3761 25.9076 46.3271 24.3686 45.0081 24.1731C43.6891 23.9776 41.0261 24.1731 34.8456 23.9044C32.6226 23.9044 30.4241 23.6359 28.2256 23.4649C17.8679 22.6831 14.7166 22.6831 11.7364 22.6831C10.2461 22.6831 10.7591 24.5396 12.3471 24.7596C16.7199 25.2969 16.3779 24.9794 20.8481 25.3946ZM22.3384 25.6146C26.3046 26.2469 30.3164 26.5491 34.3326 26.5184C34.5036 28.5459 34.0641 28.1796 34.1129 29.3521C25.9294 28.5949 23.2666 29.7919 22.5581 28.9124C22.1544 27.8604 22.0779 26.7109 22.3384 25.6146Z" fill="black"/>
<path fill-rule="evenodd" clip-rule="evenodd" d="M21.092 15.1592C22.995 15.9687 25.1798 15.7474 26.8818 14.5729C27.192 14.2437 27.192 13.7297 26.8818 13.4004C25.6848 12.2767 21.2388 13.6689 21.0433 13.7179C20.8478 13.7669 19.9928 14.5974 21.092 15.1592Z" fill="black"/>
</g>
<defs>
<clipPath id="clip0_161_7067">
<rect width="60" height="60" fill="white"/>
</clipPath>
</defs>
</svg>
