<svg width="60" height="60" viewBox="0 0 60 60" fill="none" xmlns="http://www.w3.org/2000/svg">
<path fill-rule="evenodd" clip-rule="evenodd" d="M18.015 29.2392C17.9185 28.7402 17.44 28.4104 16.9393 28.4979C15.9808 28.4624 15.0208 28.5104 14.0705 28.6414C13.6698 28.6889 13.2763 28.7852 12.899 28.9284C12.506 29.0507 12.1288 29.2192 11.7753 29.4304C10.9775 29.9449 10.2328 30.5377 9.55203 31.1994C8.99053 31.4847 8.94853 32.2707 9.47628 32.6142C9.72128 32.7737 10.0325 32.7902 10.293 32.6579C11.1775 32.4667 12.0383 32.4187 12.9228 32.2274C13.2803 32.1387 13.6318 32.0269 13.9748 31.8929C14.3118 31.7739 14.6395 31.6302 14.955 31.4624C15.7678 31.1039 16.485 30.6734 17.3458 30.3389C17.8268 30.2099 18.1215 29.7257 18.015 29.2392Z" fill="black"/>
<path fill-rule="evenodd" clip-rule="evenodd" d="M37.6912 24.864C38.5542 24.8558 39.4162 24.8 40.2732 24.6965C40.6242 24.6458 40.9687 24.5575 41.3012 24.4335C41.6322 24.3193 41.9522 24.1753 42.2574 24.0033C43.0224 23.6208 43.6919 23.1905 44.4569 22.808C44.9324 22.6483 45.1964 22.1413 45.0547 21.6603C44.9372 21.1593 44.4274 20.8555 43.9309 20.991C43.0224 20.991 42.1857 20.991 41.3249 21.1823C40.9602 21.242 40.6004 21.33 40.2492 21.4453C39.9074 21.541 39.5784 21.6775 39.2689 21.8515C38.4802 22.282 37.8584 22.784 37.1174 23.286C36.6924 23.4435 36.4624 23.9035 36.5914 24.338C36.7379 24.7975 37.2414 25.0383 37.6912 24.864Z" fill="black"/>
<path fill-rule="evenodd" clip-rule="evenodd" d="M46.4645 49.106C46.8385 49.1305 47.214 49.1305 47.588 49.106C47.9617 49.1415 48.3379 49.1415 48.7117 49.106C49.6017 48.9502 50.4805 48.7347 51.3415 48.4605C51.8507 48.4225 52.2402 47.991 52.226 47.4802C52.2002 46.965 51.7609 46.5687 51.2459 46.5957C50.3374 46.5957 49.5724 46.261 48.6877 46.1415C48.3294 46.118 47.9702 46.118 47.612 46.1415C47.2462 46.1042 46.878 46.1042 46.5122 46.1415C45.6335 46.3032 44.7637 46.5107 43.9064 46.7632C43.4522 46.7355 43.0687 47.097 43.0697 47.552C43.0562 48.0142 43.4202 48.3997 43.8824 48.4127C44.7669 48.5082 45.532 48.843 46.4645 49.106Z" fill="black"/>
<path fill-rule="evenodd" clip-rule="evenodd" d="M24.2072 45.4721C23.5184 45.3609 22.8162 45.3609 22.1272 45.4721C21.2667 45.5916 20.5254 45.8784 19.7367 46.0459C19.2777 45.9436 18.8282 46.2506 18.7564 46.7151C18.7149 47.1646 19.0477 47.5619 19.4974 47.5999C20.3182 47.9344 21.1659 48.1984 22.0317 48.3889C22.3894 48.4244 22.7497 48.4244 23.1074 48.3889C23.4737 48.4134 23.8412 48.4134 24.2072 48.3889C25.0439 48.2454 25.8329 48.0061 26.5979 47.8149C27.3157 47.8151 27.7642 47.0381 27.4054 46.4164C27.2389 46.1279 26.9312 45.9501 26.5979 45.9501C25.9287 45.8069 25.0679 45.5916 24.2072 45.4721Z" fill="black"/>
<path fill-rule="evenodd" clip-rule="evenodd" d="M59.1593 27.0396C58.9888 26.7558 58.7143 26.5498 58.3941 26.4658C57.9723 26.4388 57.5491 26.4388 57.1271 26.4658H52.6326C52.1796 26.4656 51.8088 26.8258 51.7958 27.2786C51.7956 27.7316 52.1558 28.1023 52.6086 28.1153C53.4693 28.1153 54.3061 28.2348 55.1428 28.3543C55.6663 28.4051 56.1858 28.4931 56.6968 28.6173V29.6453L56.0273 33.9726C54.9103 33.6638 53.7768 33.4163 52.6326 33.2316L51.0786 33.0881C50.5613 33.0518 50.0421 33.0518 49.5246 33.0881C48.3091 33.2706 47.1038 33.5178 45.9146 33.8291C45.4656 33.8421 45.1123 34.2168 45.1256 34.6658C45.1386 35.1186 45.5096 35.4791 45.9623 35.4788C47.1578 35.6701 48.3531 35.9568 49.5008 36.1003H51.0068H52.5368C53.6606 36.1003 54.7363 35.8613 55.8601 35.7896V38.1803C54.0671 37.9173 52.2738 37.6303 50.4808 37.4871C48.2098 37.2958 45.9386 37.2001 43.7151 37.0328H38.3361C36.5431 37.0328 34.6783 37.1523 32.8373 37.3436C32.3846 37.3693 32.0348 37.7508 32.0483 38.2041C32.0741 38.6568 32.4558 39.0068 32.9091 38.9931C33.9611 38.9931 35.0128 39.1366 36.0888 39.2561C37.8101 39.4713 39.5313 39.7821 41.2766 39.9973C42.0178 39.9973 42.7828 40.1406 43.6673 40.1886C45.0061 40.1886 46.3688 40.3318 47.7553 40.3318H55.8601C55.8601 44.5396 56.2426 48.7233 56.2903 52.9071C49.7876 52.6203 43.3088 52.6441 36.8058 52.5723H32.0246C29.9923 52.5723 27.9603 52.5723 25.9043 52.3573C24.3741 52.3573 22.8681 52.2378 21.3618 52.1181C20.3816 52.1181 19.4016 51.9508 18.4213 51.8073C17.7648 51.5466 17.0706 51.3931 16.3653 51.3531C16.1188 50.5166 15.9428 49.6611 15.8393 48.7951C15.6003 46.7391 15.6241 44.5873 15.5046 42.9856C15.4788 42.5328 15.0973 42.1831 14.6441 42.1966C14.1873 42.2221 13.8303 42.6001 13.8311 43.0573C13.8311 44.9461 13.6398 47.6236 13.8311 49.9666C13.9261 51.0493 14.1508 52.1168 14.5006 53.1461C14.7168 53.5623 15.1146 53.8541 15.5763 53.9351C16.1023 54.0546 17.4411 54.1981 17.5846 54.2458C18.8993 54.5328 20.1903 54.7481 21.4813 54.9393C22.7723 55.1306 24.0633 55.2261 25.3543 55.3456C28.4863 55.5608 31.6181 55.6803 34.7498 55.6326C41.9221 55.6326 49.0943 54.8676 56.3858 54.7718C56.9008 54.7718 57.3183 54.3543 57.3183 53.8396C57.3183 53.3248 57.3183 53.8396 57.3183 53.6961C57.6873 53.6096 57.9521 53.2858 57.9638 52.9071L59.0396 34.8811L59.3266 29.8128C59.3831 29.2328 59.4071 28.6501 59.3983 28.0676C59.4051 27.7103 59.3233 27.3571 59.1593 27.0396Z" fill="black"/>
<path fill-rule="evenodd" clip-rule="evenodd" d="M24.6614 37.8217C27.2434 37.1284 29.8494 36.4352 32.4074 35.6702C52.7047 29.5022 51.1744 30.6974 51.0789 29.6934C50.9834 28.6894 50.9354 28.0677 50.8159 27.3027C50.5529 25.4857 50.1704 23.6927 49.9314 21.8757C49.5009 19.4849 49.1664 17.2617 48.6164 14.9904C47.7559 11.5957 46.5604 8.32041 45.4129 4.97316C45.2854 4.54266 44.8482 4.28216 44.4087 4.37566C44.1219 4.47516 43.9114 4.72216 43.8589 5.02116C43.6979 4.64966 43.2997 4.44066 42.9027 4.51916C38.0017 5.35591 33.1007 6.04916 28.2474 6.90966C24.9482 7.53141 21.7209 8.22466 18.4934 9.10916C13.1497 10.6117 7.92368 12.5057 2.85818 14.7752C-2.20733 17.0447 2.85817 14.7752 2.69067 14.9187C2.25242 15.0144 1.96117 15.4304 2.02142 15.8749C2.28442 18.8394 2.49942 21.7802 3.00142 24.7207C3.21667 25.9877 3.47968 27.1114 3.79043 28.4742C4.10118 29.8369 4.43592 30.8649 4.84242 32.1559C5.77267 34.9912 6.84992 37.7762 8.06992 40.4994C8.23342 40.8944 8.65618 41.1157 9.07393 41.0254C9.26718 41.3287 9.65017 41.4497 9.98242 41.3122C11.3867 40.8177 12.8149 40.3949 14.2619 40.0452C17.7044 39.1844 21.1472 38.6104 24.6614 37.8217ZM17.7044 12.5279L24.0637 11.0219L43.1897 6.24041C43.4562 6.19066 43.6802 6.01141 43.7872 5.76216C44.0103 6.87782 44.2016 8.00149 44.3609 9.13316C39.9622 10.0417 35.5392 10.8544 31.1404 11.7629C29.1559 12.1694 27.1717 12.5997 25.1874 13.0779C23.2032 13.5562 21.6969 13.9384 19.9279 14.4404C17.3459 15.2057 14.7639 16.0902 12.2059 16.9747L6.44418 19.3654C5.85943 19.6354 5.78617 20.4374 6.31267 20.8087C6.50342 20.9434 6.74167 20.9922 6.97017 20.9434L12.8034 19.1502C15.6484 18.5047 18.3977 18.0267 21.1472 17.3572C23.8967 16.6877 26.6219 16.0902 29.3234 15.3969C34.5352 14.0819 39.6514 12.5997 44.7914 11.0934C44.9827 12.1932 45.1499 13.2929 45.3652 14.3689C40.1294 15.2294 33.4114 16.4967 27.0044 18.0267C24.9244 18.5287 22.8684 19.0784 20.9319 19.6284C18.9954 20.1784 16.7482 20.9194 14.9312 21.5172C12.7079 22.2582 10.4844 22.9514 8.30893 23.7164C7.54393 23.9794 6.82667 24.3142 6.08567 24.6249C5.32042 21.8039 4.41217 19.0307 3.83817 16.2097C6.22892 15.3969 8.78717 14.6557 11.2974 14.0102C13.4252 13.4604 15.5529 13.0062 17.7044 12.5279ZM9.79118 39.5432C8.95443 36.7459 8.30892 33.9009 7.63942 31.0562C7.28092 29.4782 6.89842 27.9004 6.51592 26.2747C7.30492 26.0354 8.06993 25.7727 8.90667 25.5574C11.2974 24.9837 13.4489 24.5294 15.6962 24.0034C18.3262 23.4297 21.4579 22.8082 24.7572 21.8757L31.0687 20.1544C36.3042 18.6959 41.4682 17.2377 45.6759 16.2337C46.1302 18.2897 46.6562 20.3217 47.1342 22.4017C47.6122 24.4817 48.2339 25.9159 48.6882 27.6852C48.6882 27.9959 48.8317 28.3307 48.9034 28.6414C43.9547 29.5737 39.0297 30.6257 34.1287 31.9407C30.6622 32.8492 27.2912 33.9249 23.8487 34.8812C20.9559 35.8374 18.0392 36.6264 15.1464 37.5827C13.3294 38.1804 11.5842 38.8497 9.79118 39.5432Z" fill="black"/>
</svg>
