<svg width="60" height="60" viewBox="0 0 60 60" fill="none" xmlns="http://www.w3.org/2000/svg">
<g clip-path="url(#clip0_161_7065)">
<path d="M23.9001 23.3249C30.2501 27.2999 38.9001 23.1499 38.4501 16.1749C38.3319 14.6646 37.8226 13.2111 36.9722 11.9574C36.1218 10.7038 34.9596 9.69309 33.6001 9.0249C32.2273 8.47264 30.7559 8.20768 29.2767 8.24638C27.7976 8.28508 26.3421 8.62662 25.0001 9.2499C23.6989 9.98573 22.6087 11.0435 21.8338 12.3218C21.059 13.6001 20.6255 15.056 20.5751 16.5499C20.4114 17.8801 20.6387 19.2291 21.2292 20.4323C21.8197 21.6354 22.7477 22.6405 23.9001 23.3249ZM23.3251 16.8999C23.3842 15.8802 23.6934 14.8908 24.2253 14.0188C24.7572 13.1468 25.4955 12.4191 26.3751 11.8999C27.316 11.4251 28.3415 11.141 29.3927 11.0637C30.4438 10.9865 31.4998 11.1177 32.5001 11.4499C33.5126 11.8824 34.3952 12.5707 35.0614 13.4472C35.7276 14.3238 36.1545 15.3586 36.3001 16.4499C36.7501 20.4499 32.5001 24.9999 26.4001 22.1749C25.3579 21.7851 24.4824 21.047 23.922 20.0857C23.3617 19.1243 23.1508 17.9989 23.3251 16.8999Z" fill="black"/>
<path d="M39.0999 41.3749C38.6165 40.1249 38.1165 38.8999 37.5999 37.6999C36.3999 34.8999 35.2749 32.6999 34.3999 30.6499C33.8749 29.8999 32.7249 30.6499 32.9999 31.4249C33.6801 34.3092 34.5146 37.155 35.4999 39.9499C36.2249 41.9499 37.0499 43.9499 37.9999 45.8749L40.4999 52.0499C40.8749 53.0749 42.9999 53.3999 42.7749 51.7749C42.1499 49.6499 41.5499 48.0499 40.5499 45.1249C39.9999 43.8749 39.5999 42.6249 39.0999 41.3749Z" fill="black"/>
<path d="M59.7003 20.6501C59.314 19.7 58.6686 18.8776 57.8376 18.2765C57.0067 17.6754 56.0236 17.3197 55.0003 17.2501C51.4776 16.8628 47.9231 16.8628 44.4003 17.2501C44.4253 16.7754 44.4253 16.2998 44.4003 15.8251C44.1956 13.2909 43.3371 10.853 41.9086 8.74978C40.4801 6.64652 38.5306 4.94971 36.2503 3.82509C33.9569 2.9056 31.4979 2.4709 29.0283 2.54835C26.5586 2.62579 24.1317 3.21371 21.9003 4.27509C19.7491 5.52931 17.9511 7.3086 16.6745 9.44657C15.3978 11.5845 14.6842 14.0114 14.6003 16.5001V17.2501C12.0003 17.5001 7.50034 16.8001 4.27534 17.3251C1.97534 17.7251 0.375343 18.8251 0.175343 20.8501C-0.0469781 23.0594 -0.105471 25.2821 0.000343489 27.5001C0.0964337 29.7302 0.33862 31.9516 0.725343 34.1501C1.60034 39.0251 2.12534 44.3501 4.32534 48.4501C5.16648 50.0437 6.32618 51.4475 7.73247 52.5742C9.13876 53.701 10.7616 54.5267 12.5003 55.0001C18.7111 56.7181 25.1316 57.5596 31.5753 57.5001C38.0911 57.6357 44.5657 56.4361 50.6003 53.9751C51.5812 53.3601 52.383 52.4979 52.9253 51.4751C54.6514 48.1931 56.0097 44.7304 56.9753 41.1501C59.1753 33.2251 60.6753 23.9501 59.7003 20.6501ZM17.3503 16.8501C17.4308 14.8196 18.0172 12.8414 19.0563 11.095C20.0954 9.34866 21.5542 7.88952 23.3003 6.85009C25.1105 5.97024 27.0793 5.46369 29.0893 5.36061C31.0994 5.25753 33.1096 5.56003 35.0003 6.25009C36.935 7.11244 38.613 8.46171 39.8706 10.1662C41.1281 11.8707 41.9222 13.8721 42.1753 15.9751C43.0253 23.7251 35.0003 32.5001 23.5503 27.2501C22.2225 26.6657 21.0178 25.8343 20.0003 24.8001C18.9487 23.788 18.1582 22.5359 17.6967 21.1513C17.2351 19.7667 17.1163 18.2907 17.3503 16.8501ZM50.8753 49.4751C50.5421 50.2517 50.0174 50.9312 49.3503 51.4501C49.1753 51.4501 43.5253 54.4751 31.4753 54.5501C25.3367 54.669 19.2092 53.9797 13.2503 52.5001C11.8646 52.1271 10.5692 51.4759 9.44311 50.5862C8.31704 49.6966 7.38385 48.587 6.70034 47.3251C5.60034 45.3751 5.30034 44.9501 3.00034 33.8751C2.58084 31.7705 2.29692 29.6411 2.15034 27.5001C1.98951 25.3781 1.98951 23.247 2.15034 21.1251C2.15034 19.9001 3.32534 19.4501 4.65034 19.1751C7.97542 18.8877 11.3145 18.7959 14.6503 18.9001C14.7889 20.8572 15.4164 22.7483 16.4753 24.4001C17.9927 26.692 20.1987 28.4428 22.7753 29.4001C24.8734 30.2594 27.1091 30.7336 29.3753 30.8001C32.798 30.7871 36.1171 29.625 38.8003 27.5001C41.6305 25.4133 43.5823 22.3475 44.2753 18.9001C47.2219 18.6979 50.1788 18.6979 53.1253 18.9001C55.3503 19.1501 57.2753 19.6001 57.7253 21.2001C59.0253 25.9001 54.3253 43.3501 50.8753 49.4751Z" fill="black"/>
<path d="M13.3002 32.325C14.8502 30.825 15.8002 29.625 17.6252 27.625C18.3502 26.7 17.0002 25.95 16.2002 26.575C14.3752 27.925 13.7002 28.375 12.2002 29.525C11.3502 30.225 10.5169 30.925 9.70022 31.625C8.90022 32.375 8.15022 33.125 7.42522 33.9C6.70022 34.675 5.95022 35.75 5.00022 36.925C4.05022 38.1 4.57522 40.1 5.85022 38.95C7.12522 37.8 8.72522 36.45 10.2002 35.15C11.6752 33.85 12.0502 33.55 13.3002 32.325Z" fill="black"/>
<path d="M23.4999 40.0002C24.4738 37.2186 25.3081 34.3901 25.9999 31.5252C26.1249 30.2752 25.0749 30.4252 24.3999 31.5252C23.4749 33.5502 22.5499 35.0002 21.3249 37.6502C20.7749 38.8502 20.2499 40.1502 19.7499 41.3002C19.2499 42.4502 18.7499 43.8002 18.2999 45.0252C17.2249 47.9252 16.9749 49.0502 16.2999 51.1502C15.8749 52.7252 17.2249 53.4002 17.8999 52.0002C18.8249 50.0002 19.7249 48.5002 20.9249 45.8252C21.8749 43.9252 22.7499 41.9252 23.4999 40.0002Z" fill="black"/>
<path d="M49.1005 31.5498C48.3083 30.8023 47.4736 30.1011 46.6005 29.4498C45.1505 28.2748 43.7005 27.4248 41.8255 26.0748C41.0005 25.5998 40.4255 26.5748 40.9505 27.5248C42.9005 29.5498 43.9255 30.7248 45.5005 32.2498C47.0755 33.7748 48.0005 34.5248 49.2255 35.6498C50.4505 36.7748 51.5255 37.5248 53.3255 39.0998C54.2005 39.7748 54.9755 38.3498 54.4005 37.3498C53.2005 35.9248 52.4255 34.9998 51.2755 33.7998C50.6505 33.0248 50.0005 32.2748 49.1005 31.5498Z" fill="black"/>
</g>
<defs>
<clipPath id="clip0_161_7065">
<rect width="60" height="60" fill="white"/>
</clipPath>
</defs>
</svg>
