<svg width="60" height="60" viewBox="0 0 60 60" fill="none" xmlns="http://www.w3.org/2000/svg">
<g clip-path="url(#clip0_161_7066)">
<path fill-rule="evenodd" clip-rule="evenodd" d="M58.975 17.9999C58.6865 17.1303 58.3095 16.2925 57.85 15.4999C57.3964 14.7272 56.8599 14.0062 56.25 13.3499C54.9071 11.9927 53.3537 10.8615 51.65 9.99987C51.3992 9.78261 51.122 9.59782 50.825 9.44987C50.2431 9.15903 49.6311 8.93268 49 8.77487C48.5113 8.64491 48.0048 8.59427 47.5 8.62487C47.2723 8.63779 47.0587 8.7391 46.9046 8.9072C46.7505 9.0753 46.6681 9.29693 46.675 9.52487C46.6879 9.75254 46.7892 9.96618 46.9573 10.1203C47.1254 10.2744 47.3471 10.3567 47.575 10.3499C47.9755 10.3452 48.3736 10.413 48.75 10.5499C49.1714 10.6826 49.5811 10.8499 49.975 11.0499C50.3145 11.2611 50.5984 11.5507 50.8029 11.8944C51.0073 12.238 51.1264 12.6257 51.15 13.0249C51.2621 14.5979 51.2621 16.1769 51.15 17.7499V20.9499C51.025 21.5999 50.875 22.2249 50.7 22.8499C50.3181 24.1643 49.6903 25.3944 48.85 26.4749C48.2376 27.296 47.514 28.028 46.7 28.6499C45.8767 29.3266 44.9892 29.9211 44.05 30.4249C42.9649 31.0379 41.8054 31.5084 40.6 31.8249C40.3446 31.8106 40.0925 31.888 39.889 32.0429C39.6855 32.1979 39.5439 32.4204 39.4897 32.6704C39.4355 32.9204 39.4722 33.1815 39.5932 33.4068C39.7142 33.6322 39.9117 33.807 40.15 33.8999C42.3765 33.7841 44.5514 33.1871 46.525 32.1499C48.3752 31.178 49.9688 29.7815 51.175 28.0749V27.9499V29.2249V36.8749C51.2769 38.6401 51.2769 40.4097 51.175 42.1749C51.1506 43.0917 50.8156 43.9731 50.225 44.6749C48.3275 45.7988 46.1984 46.4743 44 46.6499C40.457 47.1964 36.8834 47.522 33.3 47.6249C29.925 47.6249 26.6 47.4749 23.3 47.4999C21.825 47.4999 20.375 47.4999 18.9 47.6749C17.425 47.8499 13.9 48.1249 10.55 48.3249C8.75169 48.4352 6.94831 48.4352 5.15 48.3249C4.2 48.3249 3.725 47.4249 3.4 46.5499C3.01615 45.3639 2.83857 44.1209 2.875 42.8749L2.55 33.2499V29.4999C2.725 29.6499 2.85 29.7999 3.025 29.9249C3.98762 30.5906 5.00844 31.1679 6.075 31.6499C7.77756 32.4224 9.56473 32.993 11.4 33.3499C12.5542 33.621 13.7457 33.6971 14.925 33.5749C16.075 33.3249 15.8 31.7749 14.475 31.6999C13.6163 31.5962 12.7754 31.3776 11.975 31.0499C10.3783 30.5502 8.83695 29.8884 7.375 29.0749C6.55775 28.6715 5.76473 28.2207 5 27.7249C4.53702 27.4639 4.13614 27.1057 3.825 26.6749C3.41334 26.0666 3.09325 25.4012 2.875 24.6999V20.5749C2.62525 18.7689 2.49995 16.948 2.5 15.1249C2.49628 14.2027 2.83479 13.3119 3.45 12.6249C3.85573 12.4028 4.31254 12.2907 4.775 12.2999C5.525 12.2999 6.3 12.2999 6.75 12.1749C8.65 12.1749 10.2 12.1749 11.9 12.0249C12.6631 11.9781 13.4227 11.8863 14.175 11.7499C19.4193 11.0249 24.7059 10.6491 30 10.6249L45.825 10.1749C46.0217 10.1559 46.2037 10.0625 46.3338 9.91379C46.4639 9.7651 46.5323 9.57232 46.525 9.37487C46.5218 9.27636 46.4992 9.17945 46.4585 9.08969C46.4177 8.99993 46.3597 8.91907 46.2878 8.85173C46.2158 8.7844 46.1313 8.73191 46.039 8.69728C45.9467 8.66264 45.8485 8.64653 45.75 8.64987L30 8.79987C26.775 8.79987 23.575 8.79987 20.35 8.94987C18.1828 9.03932 16.0217 9.23959 13.875 9.54987C13.1969 9.66243 12.512 9.72925 11.825 9.74987H6.825C5.76197 9.75523 4.70077 9.83879 3.65 9.99987C3.04385 10.0963 2.46955 10.3364 1.975 10.6999C1.05597 11.5107 0.446377 12.6151 0.25 13.8249C0.0036438 16.0848 0.0036438 18.3649 0.25 20.6249L0 33.2999L0.275 42.8999C0.20452 44.8613 0.589596 46.8123 1.4 48.5999C1.73553 49.3426 2.26139 49.9835 2.92431 50.4577C3.58722 50.9318 4.36367 51.2224 5.175 51.2999C7.11472 51.4229 9.06028 51.4229 11 51.2999C14.325 51.0999 17.825 50.7249 19.4 50.5999C20.975 50.4749 22.2 50.4499 23.6 50.4249H33.6C37.9444 50.2573 42.2675 49.7305 46.525 48.8499C48.5411 48.527 50.4519 47.7302 52.1 46.5249C52.9061 45.6928 53.4232 44.6234 53.575 43.4749C53.7736 41.3044 53.7736 39.1203 53.575 36.9499V29.2749C53.575 25.4249 53.325 21.5999 53.2 17.7749V13.9249C53.55 14.3749 53.875 14.7999 54.175 15.2499C54.475 15.6999 55.05 16.4999 55.45 17.1249C55.85 17.7499 56.225 18.4499 56.575 19.1249C57.3935 20.7572 57.9985 22.4881 58.375 24.2749C58.4002 24.4981 58.5103 24.7031 58.6825 24.8473C58.8547 24.9916 59.0758 25.0641 59.3 25.0499C59.4134 25.0289 59.5216 24.9856 59.6182 24.9227C59.7149 24.8597 59.7981 24.7782 59.8632 24.683C59.9283 24.5877 59.9738 24.4805 59.9973 24.3676C60.0208 24.2546 60.0217 24.1382 60 24.0249C59.987 21.9743 59.6408 19.9394 58.975 17.9999Z" fill="black"/>
<path fill-rule="evenodd" clip-rule="evenodd" d="M35.5501 13.65C35.9001 15.1 36.1251 16.6 36.3751 18.05C37.1829 21.6665 37.519 25.3723 37.3751 29.075C37.1565 31.3947 36.338 33.6176 35.0001 35.525C33.3735 37.8383 30.9219 39.4398 28.1501 40C26.8506 40.2971 25.4913 40.1906 24.2539 39.6948C23.0165 39.1989 21.9598 38.3373 21.2251 37.225C19.9599 35.4244 19.1064 33.3674 18.7251 31.2C18.3293 28.955 18.2619 26.6644 18.5251 24.4L19.5501 15.9C19.5501 14.625 19.5501 14.05 19.8001 12.75C19.7882 12.5752 19.7882 12.3998 19.8001 12.225C19.8001 11.125 18.1501 11 18.1501 12.4C17.9251 13.7 17.9251 14.275 17.7251 15.55L16.2501 24.2C15.1279 29.2222 16.0259 34.4842 18.7501 38.85C19.7772 40.4413 21.2669 41.6799 23.0188 42.3995C24.7708 43.119 26.701 43.285 28.5501 42.875C30.3395 42.6147 32.0469 41.9533 33.5448 40.9403C35.0426 39.9273 36.2922 38.5888 37.2001 37.025C38.635 34.6668 39.4916 32.0026 39.7001 29.25C39.866 25.3343 39.3587 21.4191 38.2001 17.675C37.9001 16.2 37.6001 14.65 37.1751 13.15C36.9397 12.3991 36.6558 11.6642 36.3251 10.95C36.2238 10.7752 36.0651 10.6408 35.8759 10.5697C35.6868 10.4985 35.4789 10.4951 35.2874 10.5599C35.096 10.6246 34.9329 10.7537 34.8259 10.9251C34.7188 11.0964 34.6744 11.2996 34.7001 11.5C35.0403 12.1929 35.3245 12.9119 35.5501 13.65Z" fill="black"/>
<path fill-rule="evenodd" clip-rule="evenodd" d="M24.1246 32.2499C25.1149 32.755 26.2129 33.0123 27.3246 32.9999C28.4323 32.9729 29.5188 32.6906 30.4996 32.1749C30.7052 32.0817 30.8669 31.9126 30.9508 31.7029C31.0346 31.4933 31.0342 31.2593 30.9496 31.0499C30.8563 30.8443 30.6872 30.6826 30.4775 30.5987C30.2679 30.5148 30.0339 30.5153 29.8246 30.5999C29.1187 30.7625 28.3985 30.8546 27.6746 30.8749H26.1996C25.6882 30.8872 25.1771 30.8453 24.6746 30.7499C24.5831 30.7099 24.4843 30.6892 24.3844 30.6892C24.2846 30.6891 24.1858 30.7097 24.0943 30.7496C24.0027 30.7895 23.9204 30.8478 23.8525 30.921C23.7846 30.9942 23.7325 31.0807 23.6996 31.1749C23.6506 31.2725 23.6228 31.3792 23.618 31.4883C23.6131 31.5973 23.6313 31.7061 23.6715 31.8076C23.7116 31.909 23.7727 32.0009 23.8508 32.0771C23.9288 32.1534 24.0221 32.2123 24.1246 32.2499Z" fill="black"/>
</g>
<defs>
<clipPath id="clip0_161_7066">
<rect width="60" height="60" fill="white"/>
</clipPath>
</defs>
</svg>
