<svg width="60" height="60" viewBox="0 0 60 60" fill="none" xmlns="http://www.w3.org/2000/svg">
<g clip-path="url(#clip0_169_5084)">
<path fill-rule="evenodd" clip-rule="evenodd" d="M59.5004 6.85002C59.332 5.95983 58.9924 5.11079 58.5004 4.35002C57.4413 2.68962 55.8573 1.43119 54.0004 0.775022C51.4669 0.0123056 48.8093 -0.250905 46.1754 2.20742e-05C44.8765 -0.00615057 43.585 0.196432 42.3504 0.600022C41.629 0.86047 41.0079 1.34157 40.5754 1.97502C40.3518 2.31728 40.2303 2.71621 40.2254 3.12502C40.2251 3.57793 40.2669 4.02987 40.3504 4.47502L40.6754 8.20002C40.6754 9.50002 40.6754 10.7 40.5004 12.075C40.2754 15.175 39.8004 18.275 39.6254 21.375L38.3004 38.875H35.6754H34.5504V36.025C34.6887 34.5877 34.7472 33.1438 34.7254 31.7C34.708 31.3602 34.6215 31.0275 34.471 30.7223C34.3205 30.417 34.1094 30.1458 33.8504 29.925C33.4713 29.6945 33.0429 29.5574 32.6004 29.525C31.6504 29.4 30.1004 29.525 29.7004 29.525H25.7254H24.2254C22.3877 29.3538 20.5381 29.3538 18.7004 29.525L17.2504 29.675C17.1029 28.8637 16.7891 28.0918 16.3288 27.4077C15.8684 26.7236 15.2714 26.1421 14.5754 25.7C13.0829 24.7774 11.2959 24.4558 9.57539 24.8C8.39552 25.0485 7.2695 25.5056 6.25039 26.15C4.71144 27.0184 3.42045 28.2664 2.50039 29.775C1.72589 31.1547 1.4309 32.7523 1.66162 34.3176C1.89234 35.8829 2.63575 37.3275 3.77539 38.425C3.03151 38.5134 2.31533 38.7606 1.67539 39.15C1.24265 39.4746 0.92685 39.9307 0.775391 40.45C0.613268 41.166 0.504635 41.893 0.450391 42.625C0.284456 43.7767 0.184294 44.9369 0.150391 46.1V51.1L0.450391 58.75C0.453619 58.8485 0.476233 58.9454 0.516939 59.0352C0.557644 59.125 0.615644 59.2058 0.68762 59.2732C0.759597 59.3405 0.844139 59.393 0.936414 59.4276C1.02869 59.4622 1.12689 59.4784 1.22539 59.475C1.41991 59.4622 1.60177 59.374 1.73244 59.2294C1.86311 59.0847 1.93231 58.8948 1.92539 58.7V51.2C1.92539 49.3 1.92539 47.775 2.12539 46.2C2.17983 45.1236 2.32197 44.0534 2.55039 43L2.90039 41.125C3.59802 40.814 4.36795 40.7015 5.12539 40.8C6.72539 40.8 8.47539 41.225 9.62539 41.3L14.9754 41.75C16.1872 41.885 17.4063 41.9434 18.6254 41.925C20.3754 41.925 22.1504 41.8 23.8254 41.8L35.4504 41.55C37.5004 41.55 38.4754 40.05 39.0004 42.8C39.1639 43.7911 39.2226 44.7967 39.1754 45.8C39.0254 49.2 39.3504 52.9 39.4004 56.425V58.925C39.3936 59.0367 39.409 59.1486 39.4456 59.2543C39.4821 59.36 39.5392 59.4575 39.6135 59.5411C39.6879 59.6247 39.778 59.6928 39.8787 59.7416C39.9794 59.7903 40.0887 59.8186 40.2004 59.825C40.3121 59.8318 40.424 59.8164 40.5297 59.7799C40.6354 59.7433 40.7329 59.6862 40.8165 59.6119C40.9001 59.5376 40.9682 59.4475 41.0169 59.3468C41.0657 59.246 41.094 59.1367 41.1004 59.025L41.4004 45.825C41.5352 44.6622 41.5352 43.4878 41.4004 42.325C41.3065 41.6517 41.0949 41.0001 40.7754 40.4C42.9504 40.575 45.1254 41.075 47.2754 41.3C47.9495 41.3499 48.6263 41.3499 49.3004 41.3C50.9006 41.2964 52.4891 41.026 54.0004 40.5C55.0993 40.1106 56.0863 39.4583 56.8754 38.6C57.5447 37.811 58.0237 36.8787 58.2754 35.875C58.5885 34.5374 58.7727 33.1728 58.8254 31.8C58.8254 30.525 58.9754 29.3 59.0254 27.975C59.0254 25.025 59.0254 22.1 59.2504 19.175L59.6004 10.2C59.6608 9.08252 59.6274 7.96192 59.5004 6.85002ZM14.8004 29.85C14.5362 29.9632 14.3081 30.1465 14.1406 30.38C13.9731 30.6136 13.8728 30.8885 13.8504 31.175C13.8649 31.9587 13.9655 32.7383 14.1504 33.5L14.6754 38.95L10.0004 38.65C9.25039 38.65 8.20039 38.525 7.10039 38.425C6.84265 38.3067 6.59221 38.1732 6.35039 38.025C5.97577 37.7549 5.63939 37.4353 5.35039 37.075C4.65534 36.2501 4.2457 35.2225 4.18262 34.1457C4.11954 33.0688 4.4064 32.0004 5.00039 31.1C5.69444 29.9511 6.63342 28.9694 7.75039 28.225C8.51673 27.6983 9.36007 27.2935 10.2504 27.025C11.3706 26.6445 12.5928 26.698 13.6754 27.175C14.1845 27.4283 14.6386 27.7795 15.0118 28.2085C15.385 28.6374 15.67 29.1358 15.8504 29.675C15.496 29.7029 15.1447 29.7615 14.8004 29.85ZM32.3004 31.725C31.2004 32.175 32.4754 35.6 32.5504 36.2L32.8004 39.05H24.0504C22.1004 39.05 20.0254 39.2 18.0004 39.175H16.2754V33.4C16.3594 32.9292 16.4095 32.453 16.4254 31.975H20.5004C21.5867 31.944 22.6737 32.0025 23.7504 32.15C24.3787 32.2506 25.0141 32.3008 25.6504 32.3C27.8957 32.2914 30.1365 32.099 32.3504 31.725H32.3004ZM56.6504 19.35V31.85C56.6468 33.0761 56.5212 34.2988 56.2754 35.5C56.1293 36.1908 55.8303 36.84 55.4004 37.4C54.7278 38.1504 53.8635 38.7035 52.9004 39C51.795 39.3308 50.6531 39.5239 49.5004 39.575H47.7004C45.2004 39.375 42.7004 38.75 40.0254 38.775L41.9004 21.575C42.1754 18.525 42.7504 15.45 43.1004 12.375C43.2749 11.0148 43.3751 9.64613 43.4004 8.27502L43.2004 4.27502C43.2004 4.05002 43.3504 3.52502 43.2004 3.37502C43.5273 3.1778 43.895 3.05807 44.2754 3.02502C45.0117 2.91152 45.7554 2.85302 46.5004 2.85002C48.7598 2.61791 51.0428 2.8216 53.2254 3.45002C54.5132 3.90612 55.6068 4.78806 56.3254 5.95002C56.619 6.41383 56.8147 6.9328 56.9004 7.47502C57.0648 8.47451 57.1318 9.48759 57.1004 10.5L56.6504 19.35Z" fill="black"/>
<path fill-rule="evenodd" clip-rule="evenodd" d="M19.0002 26.6001C21.4373 27.9978 24.3114 28.4262 27.0502 27.8001C28.4566 27.553 29.7824 26.9691 30.9143 26.0984C32.0462 25.2278 32.9505 24.0961 33.5502 22.8001C33.9339 21.6447 34.2101 20.4563 34.3752 19.2501C34.5778 18.0277 34.6282 16.7849 34.5252 15.5501C33.9513 13.0296 32.9629 10.6218 31.6002 8.42513C30.4029 6.16456 28.8687 4.09927 27.0502 2.30013C26.9071 2.16836 26.7197 2.09521 26.5252 2.09521C26.3307 2.09521 26.1433 2.16836 26.0002 2.30013C25.8684 2.44321 25.7953 2.63061 25.7953 2.82513C25.7953 3.01964 25.8684 3.20704 26.0002 3.35013C27.6288 5.10884 28.9779 7.10711 30.0002 9.27513C31.1057 11.3019 31.8661 13.4986 32.2502 15.7751C32.258 16.7843 32.1489 17.791 31.9252 18.7751C31.7415 19.7845 31.4567 20.7728 31.0752 21.7251C30.6262 22.609 29.9677 23.3696 29.1571 23.9404C28.3466 24.5113 27.4087 24.8751 26.4252 25.0001C24.4229 25.4937 22.3082 25.2171 20.5002 24.2251C19.3974 23.5392 18.5263 22.5375 18.0002 21.3501C17.5268 20.1256 17.3553 18.805 17.5002 17.5001C17.7603 15.5656 18.7102 13.79 20.1752 12.5001C21.909 10.9789 23.4384 9.23942 24.7252 7.32513C25.3447 6.23126 25.696 5.00607 25.7502 3.75013C25.7641 3.53525 25.6934 3.32345 25.5533 3.15996C25.4132 2.99647 25.2147 2.89425 25.0002 2.87513C24.8898 2.86487 24.7785 2.87697 24.6729 2.9107C24.5673 2.94443 24.4696 2.99909 24.3856 3.07143C24.3015 3.14377 24.233 3.2323 24.184 3.33173C24.1349 3.43115 24.1064 3.53944 24.1002 3.65013C23.8095 5.62668 22.7715 7.41635 21.2002 8.65013C19.4128 10.1423 17.7872 11.8181 16.3502 13.6501C15.6305 14.7033 15.1681 15.9107 15.0002 17.1751C14.736 18.9742 14.9516 20.8111 15.6252 22.5001C16.3095 24.1768 17.4863 25.6064 19.0002 26.6001Z" fill="black"/>
<path fill-rule="evenodd" clip-rule="evenodd" d="M24.8001 18.175C24.5125 18.6727 24.1776 19.1415 23.8001 19.575C23.7079 19.6374 23.6292 19.7179 23.5689 19.8115C23.5086 19.9052 23.4679 20.01 23.4492 20.1198C23.4305 20.2296 23.4342 20.342 23.4602 20.4504C23.4861 20.5587 23.5337 20.6606 23.6001 20.75C23.7268 20.9348 23.9213 21.0621 24.1413 21.1042C24.3613 21.1464 24.5891 21.0999 24.7751 20.975C25.5636 20.6384 26.2523 20.1046 26.7751 19.425C27.2016 18.6654 27.3766 17.7902 27.2751 16.925C27.2891 16.8278 27.2831 16.7288 27.2577 16.6339C27.2322 16.539 27.1877 16.4503 27.1269 16.3732C27.0662 16.296 26.9903 16.232 26.9041 16.1851C26.8178 16.1381 26.7229 16.1092 26.6251 16.1C26.5265 16.086 26.426 16.0917 26.3297 16.1169C26.2333 16.1421 26.1429 16.1863 26.0638 16.2468C25.9846 16.3073 25.9184 16.3829 25.8688 16.4693C25.8192 16.5558 25.7874 16.6512 25.7751 16.75C25.6968 16.9726 25.5874 17.1831 25.4501 17.375C25.252 17.6563 25.0348 17.9236 24.8001 18.175Z" fill="black"/>
</g>
<defs>
<clipPath id="clip0_169_5084">
<rect width="60" height="60" fill="white"/>
</clipPath>
</defs>
</svg>
