<svg width="60" height="60" viewBox="0 0 60 60" fill="none" xmlns="http://www.w3.org/2000/svg">
<g clip-path="url(#clip0_118_3396)">
<path fill-rule="evenodd" clip-rule="evenodd" d="M23.8745 58.4499C23.4474 58.2039 23.038 57.9282 22.6495 57.6249C22.3549 57.4401 22.1136 57.1816 21.9495 56.8749C21.9154 56.7523 21.9154 56.6226 21.9495 56.4999V55.9749C22.0211 55.5985 22.2143 55.256 22.4995 54.9999C22.5884 54.9741 22.6713 54.931 22.7435 54.8729C22.8156 54.8148 22.8755 54.743 22.9197 54.6616C22.9639 54.5802 22.9914 54.4909 23.0009 54.3988C23.0103 54.3067 23.0013 54.2136 22.9745 54.1249C22.9119 53.948 22.7831 53.8023 22.6153 53.7184C22.4474 53.6345 22.2536 53.6189 22.0745 53.6749C21.5009 53.77 20.9643 54.0208 20.5235 54.4C20.0826 54.7791 19.7544 55.272 19.5745 55.8249C19.4089 56.278 19.3611 56.7657 19.4354 57.2423C19.5097 57.7189 19.7038 58.1688 19.9995 58.5499C20.3257 58.8614 20.6964 59.1226 21.0995 59.3249C21.8456 59.6027 22.6154 59.8119 23.3995 59.9499C23.5984 60.0295 23.8208 60.0268 24.0177 59.9424C24.2146 59.858 24.3699 59.6989 24.4495 59.4999C24.529 59.301 24.5263 59.0787 24.4419 58.8817C24.3576 58.6848 24.1984 58.5295 23.9995 58.4499H23.8745Z" fill="black"/>
<path fill-rule="evenodd" clip-rule="evenodd" d="M59.8246 9.59988C59.8695 9.39445 59.8317 9.1796 59.7195 9.00181C59.6072 8.82402 59.4294 8.69759 59.2246 8.64987C58.549 8.45247 57.8526 8.335 57.1496 8.29988H52.7246H49.4246C47.7246 8.29988 46.0496 8.59988 44.4246 8.79988C43.8496 8.79988 43.4246 9.82487 43.3996 9.82487C43.0996 10.8499 42.7746 11.8499 42.3996 12.8249C42.0408 13.7676 41.5885 14.6721 41.0496 15.5249C40.4129 16.6022 39.6305 17.5865 38.7246 18.4499C38.1423 19.0619 37.5156 19.6301 36.8496 20.1499C36.3627 20.5148 35.8534 20.8488 35.3246 21.1499C35.3356 19.828 35.4358 18.5083 35.6246 17.1999C35.6246 17.1999 35.6246 17.1999 35.6246 17.0249C36.1483 16.6012 36.6259 16.1236 37.0496 15.5999C37.9495 14.4783 38.5724 13.1604 38.8678 11.7531C39.1631 10.3458 39.1227 8.88863 38.7496 7.49988C38.2002 5.39596 36.9475 3.54336 35.1996 2.24988C33.6496 1.09988 29.0246 -0.925125 26.1246 0.474875C24.1055 1.64966 22.4724 3.38708 21.4246 5.47487C20.6322 6.86739 20.199 8.43529 20.1641 10.0371C20.1292 11.6389 20.4937 13.2242 21.2246 14.6499C22.3124 16.6218 24.0945 18.1188 26.2246 18.8499V22.0749C24.6739 21.6796 23.2195 20.9737 21.9496 19.9999C21.3201 19.4913 20.7423 18.9219 20.2246 18.2999C19.6851 17.6816 19.2078 17.0117 18.7996 16.2999C17.7148 14.5783 17.0154 12.6423 16.7496 10.6249C16.7496 9.67488 15.5996 10.0249 15.1996 10.0249C14.2357 9.92918 13.265 9.92081 12.2996 9.99988C11.1996 9.99988 10.1246 9.99987 9.0496 10.1999C8.0461 10.3339 7.03649 10.4173 6.0246 10.4499C5.28378 10.4999 4.54043 10.4999 3.7996 10.4499C-0.000396013 10.2999 -0.400396 9.99988 0.674604 13.8499C1.10604 15.2507 1.63226 16.6205 2.2496 17.9499C3.14485 20.0446 4.31333 22.0117 5.7246 23.7999C7.23815 25.6176 9.12163 27.092 11.2496 28.1249C12.6931 28.7568 14.2024 29.2263 15.7496 29.5249C19.1246 30.1999 22.5996 30.1999 25.9746 30.6249V32.3749C25.9746 34.4249 26.1246 36.4499 26.1246 38.4749C26.1246 40.0249 28.7996 40.9749 28.8246 38.4749C28.8246 37.0999 28.8246 35.7249 28.6746 34.3499C28.3746 29.3499 27.7496 24.3499 27.5996 19.3499C28.1203 19.4527 28.646 19.5278 29.1746 19.5749C30.8246 19.626 32.4576 19.2286 33.8996 18.4249C33.3038 22.6313 33.0281 26.8768 33.0746 31.1249V36.3499C33.0746 38.0999 33.0746 39.8249 33.2246 40.1499C33.4496 41.3749 35.0246 41.8499 35.5246 40.7999C35.7679 39.716 35.9019 38.6105 35.9246 37.4999C35.9246 35.3249 35.7246 33.1499 35.6496 30.9749V30.1749C39.5045 30.6461 43.4115 29.931 46.8496 28.1249C48.8343 27.1019 50.6545 25.7873 52.2496 24.2249C53.8225 22.6738 55.1994 20.9358 56.3496 19.0499C56.9148 18.0605 57.3917 17.0231 57.7746 15.9499C58.3247 14.4093 58.7921 12.8404 59.1746 11.2499C59.2297 11.051 59.2059 10.8386 59.1081 10.6569C59.0102 10.4752 58.846 10.3383 58.6496 10.2749H58.9246C59.0284 10.2926 59.1347 10.2889 59.237 10.2641C59.3393 10.2394 59.4355 10.194 59.5197 10.1309C59.6039 10.0677 59.6744 9.98806 59.7268 9.89676C59.7792 9.80547 59.8125 9.70445 59.8246 9.59988ZM25.9496 28.9999C23.2246 28.4499 20.4246 28.1499 17.6746 27.5499C15.8792 27.1635 14.1402 26.5502 12.4996 25.7249C10.685 24.8314 9.06288 23.5914 7.7246 22.0749C6.31759 20.5617 5.10028 18.8826 4.0996 17.0749C3.39647 15.8694 2.7783 14.6164 2.2496 13.3249C2.1246 12.9499 1.9746 12.4999 1.8746 12.1499C2.59706 12.3878 3.33138 12.5881 4.0746 12.7499C4.72425 12.9005 5.38454 13.0008 6.0496 13.0499C7.02065 13.0505 7.99027 12.9753 8.9496 12.8249C10.9964 12.2904 13.0758 11.8895 15.1746 11.6249H15.3496C15.3111 13.6452 15.7121 15.6498 16.5246 17.4999C16.955 18.4063 17.5104 19.2478 18.1746 19.9999C18.844 20.7707 19.6183 21.444 20.4746 21.9999C22.1256 23.0534 24.001 23.7042 25.9496 23.8999V28.3249V28.9999ZM29.3246 16.7249C28.1396 16.7082 26.9789 16.3867 25.9542 15.7912C24.9296 15.1957 24.0756 14.3463 23.4746 13.3249C22.8704 12.2645 22.5341 11.0726 22.4948 9.85275C22.4556 8.6329 22.7147 7.42191 23.2496 6.32487C24.0996 4.47487 27.2246 -1.80012 34.0746 3.82488C35.3538 4.95818 36.231 6.47574 36.5746 8.14987C36.7985 9.19957 36.7727 10.2872 36.4991 11.3251C36.2255 12.3629 35.7119 13.322 34.9996 14.1249C34.3193 14.9678 33.4527 15.6413 32.468 16.0925C31.4832 16.5436 30.4072 16.7601 29.3246 16.7249ZM57.4996 10.7249C57.035 12.2222 56.4841 13.6913 55.8496 15.1249C55.4137 16.0003 54.9035 16.8367 54.3246 17.6249C53.1529 19.2611 51.803 20.762 50.2996 22.0999C48.8228 23.4451 47.2051 24.627 45.4746 25.6249C42.4677 27.4698 39.0023 28.4314 35.4746 28.3999C35.4746 26.6749 35.2496 24.8999 35.2246 23.1499C36.5904 22.8275 37.8864 22.26 39.0496 21.4749C39.9743 20.9013 40.8155 20.203 41.5496 19.3999C42.2378 18.5905 42.8255 17.7007 43.2996 16.7499C43.6654 15.9389 43.9745 15.1036 44.2246 14.2499C44.5479 12.9889 44.8065 11.7122 44.9996 10.4249C46.5246 10.5999 47.9996 10.8749 49.5246 10.9749C50.6738 11.0374 51.8255 11.0374 52.9746 10.9749C54.2996 10.7999 55.8496 10.3749 57.3246 10.1999H58.3246C58.1477 10.1793 57.9691 10.2202 57.8188 10.3158C57.6686 10.4114 57.5559 10.5559 57.4996 10.7249Z" fill="black"/>
<path fill-rule="evenodd" clip-rule="evenodd" d="M41.5746 45C40.2496 43.375 38.5496 42.275 30.8246 40.65C30.1496 40.5 25.5996 39.775 25.2996 39.725C23.9496 39.575 22.6246 39.525 21.3496 39.325C20.5475 39.2486 19.758 39.0722 18.9996 38.8C18.4494 38.6145 17.9809 38.2433 17.6746 37.75C17.5467 37.5574 17.4784 37.3313 17.4784 37.1C17.4784 36.8688 17.5467 36.6427 17.6746 36.45C18.2842 35.6604 19.0501 35.0051 19.9246 34.525C20.8412 34.0389 21.8427 33.7333 22.8746 33.625C23.0601 33.6002 23.2296 33.507 23.3499 33.3636C23.4702 33.2202 23.5325 33.037 23.5246 32.85C23.5057 32.6666 23.4176 32.4973 23.2782 32.3766C23.1389 32.2558 22.9588 32.1927 22.7746 32.2C21.5433 32.2599 20.3326 32.5393 19.1996 33.025C18.0293 33.5177 16.9863 34.27 16.1496 35.225C15.8073 35.6051 15.5697 36.0677 15.4601 36.5674C15.3505 37.067 15.3727 37.5866 15.5246 38.075C15.7123 38.7171 16.0315 39.3132 16.4619 39.8253C16.8922 40.3375 17.4244 40.7546 18.0246 41.05C18.9261 41.4583 19.8751 41.7522 20.8496 41.925C22.9246 42.3 24.8246 42.25 29.1996 43.025C38.4246 44.65 38.9246 45.225 39.5246 45.7C40.054 46.0754 40.4835 46.5747 40.7754 47.1543C41.0674 47.7339 41.213 48.3762 41.1996 49.025C41.1928 49.1289 41.207 49.233 41.2414 49.3312C41.2757 49.4294 41.3295 49.5197 41.3995 49.5967C41.4695 49.6737 41.5543 49.7358 41.6488 49.7793C41.7433 49.8229 41.8456 49.8469 41.9496 49.85C42.1577 49.8569 42.3602 49.7825 42.5143 49.6424C42.6683 49.5024 42.7617 49.3078 42.7746 49.1C42.8596 48.3711 42.7971 47.6325 42.591 46.9282C42.3848 46.2238 42.0392 45.5681 41.5746 45Z" fill="black"/>
<path fill-rule="evenodd" clip-rule="evenodd" d="M35.5992 45.8751C35.3242 43.7751 33.5992 44.0001 33.7742 45.8751C33.9492 47.7501 33.7742 47.2251 33.9492 49.3001C33.9492 50.5751 35.4492 50.7501 35.7992 49.9501C35.8742 47.9251 35.5992 48.0001 35.5992 45.8751Z" fill="black"/>
<path fill-rule="evenodd" clip-rule="evenodd" d="M28.2496 44.5751C28.1246 42.2501 26.3496 43.4251 26.3496 44.4251C26.3496 46.5251 26.3496 46.2251 26.5246 48.3501C26.6996 49.4751 28.0246 50.0751 28.4996 48.8001C28.5246 46.7751 28.1996 46.5751 28.2496 44.5751Z" fill="black"/>
<path fill-rule="evenodd" clip-rule="evenodd" d="M27.2242 57.5C27.2494 57.7146 27.3578 57.9108 27.5261 58.0464C27.6944 58.182 27.9091 58.2461 28.1242 58.225C28.3322 58.1998 28.5221 58.0941 28.653 57.9305C28.7839 57.7669 28.8454 57.5584 28.8242 57.35C28.8242 55.95 28.5992 55.25 28.5742 53.85C28.5492 52.45 26.5992 52.425 26.8742 54.025C27.1492 55.625 27.0242 56.025 27.2242 57.5Z" fill="black"/>
<path fill-rule="evenodd" clip-rule="evenodd" d="M34.1244 57.05C34.1211 57.1551 34.1385 57.2598 34.1756 57.3581C34.2128 57.4565 34.269 57.5465 34.3409 57.6232C34.4129 57.6998 34.4993 57.7615 34.5951 57.8047C34.6909 57.8479 34.7944 57.8718 34.8994 57.875C35.1098 57.8754 35.3124 57.7954 35.4658 57.6513C35.6192 57.5073 35.7117 57.3101 35.7244 57.1V54.95C35.7244 53.925 34.2494 53.125 34.1994 54.3C34.1494 55.475 34.1244 55.9 34.1244 57.05Z" fill="black"/>
<path fill-rule="evenodd" clip-rule="evenodd" d="M38.3741 52.5C35.739 50.845 32.6858 49.9776 29.5741 50L26.0241 49.8L22.1991 49.175C21.7537 49.0626 21.3188 48.912 20.8991 48.725C20.5531 48.6173 20.2423 48.4187 19.9991 48.15C19.6741 47.625 19.9991 47.1 20.4991 46.675C21.1207 46.098 21.9077 45.7307 22.7491 45.625C22.9324 45.6336 23.1125 45.5748 23.2553 45.4596C23.3981 45.3444 23.4938 45.1809 23.5241 45C23.5113 44.8121 23.4258 44.6366 23.2858 44.5106C23.1459 44.3846 22.9623 44.318 22.7741 44.325C21.3314 44.3597 19.9555 44.9404 18.9241 45.95C18.4569 46.3506 18.1421 46.9 18.0328 47.5057C17.9235 48.1114 18.0264 48.7363 18.3241 49.275C18.5965 49.8028 19.0014 50.2508 19.4991 50.575C20.1032 51.0061 20.7691 51.3432 21.4741 51.575C22.1741 51.825 22.8741 52.05 23.5741 52.225C24.2844 52.3781 25.002 52.4949 25.7241 52.575L29.4991 52.8C32.1733 52.7641 34.8215 53.3279 37.2491 54.45C37.9761 54.7638 38.5877 55.2954 38.9997 55.9716C39.4117 56.6477 39.6036 57.4351 39.5491 58.225C39.5205 58.4336 39.5754 58.6451 39.7017 58.8136C39.8281 58.9821 40.0158 59.094 40.2241 59.125C40.3279 59.1426 40.4342 59.139 40.5365 59.1142C40.6389 59.0895 40.7351 59.0441 40.8193 58.981C40.9035 58.9178 40.974 58.8381 41.0264 58.7468C41.0788 58.6555 41.1121 58.5545 41.1241 58.45C41.3732 57.2941 41.2397 56.0886 40.7436 55.0153C40.2476 53.942 39.4159 53.0592 38.3741 52.5Z" fill="black"/>
<path fill-rule="evenodd" clip-rule="evenodd" d="M45.3244 32.1251C44.8468 31.8858 44.3304 31.7334 43.7994 31.6751H41.0994C40.9237 31.6263 40.7361 31.6455 40.5739 31.7289C40.4117 31.8124 40.287 31.9538 40.2244 32.1251C40.1759 32.3074 40.1979 32.5012 40.2859 32.668C40.374 32.8348 40.5216 32.9623 40.6994 33.0251C41.458 33.3099 42.2347 33.5437 43.0244 33.7251C43.3635 33.8394 43.6775 34.0176 43.9494 34.2501L44.1244 35.1251C44.1646 35.4875 44.125 35.8543 44.0084 36.1998C43.8918 36.5453 43.701 36.8611 43.4494 37.1251C42.7719 37.8311 41.9975 38.4371 41.1494 38.9251C41.0525 38.966 40.9646 39.0257 40.8907 39.1006C40.8169 39.1756 40.7586 39.2644 40.7191 39.3619C40.6796 39.4595 40.6598 39.5638 40.6607 39.6691C40.6616 39.7743 40.6833 39.8783 40.7244 39.9751C40.8167 40.1682 40.9805 40.3179 41.181 40.3925C41.3816 40.4671 41.6034 40.4609 41.7994 40.3751C43.2306 39.9942 44.5449 39.264 45.6244 38.2501C46.4307 37.3649 46.8532 36.1962 46.7994 35.0001C46.7926 34.3731 46.6384 33.7565 46.3494 33.2001C46.0999 32.764 45.7482 32.3951 45.3244 32.1251Z" fill="black"/>
</g>
<defs>
<clipPath id="clip0_118_3396">
<rect width="60" height="60" fill="white"/>
</clipPath>
</defs>
</svg>
