<svg width="60" height="60" viewBox="0 0 60 60" fill="none" xmlns="http://www.w3.org/2000/svg">
<g clip-path="url(#clip0_161_6935)">
<path fill-rule="evenodd" clip-rule="evenodd" d="M57.3496 4.55007C55.5885 2.47634 53.2459 0.978479 50.6246 0.250066C48.7388 -0.203764 46.7546 -0.000934601 44.9996 0.825066C43.2896 1.55739 41.8178 2.75216 40.7496 4.27507C40.337 4.79302 39.969 5.34499 39.6496 5.92507C39.4978 6.21067 39.4123 6.52685 39.3996 6.85007C39.4776 7.12157 39.6175 7.37128 39.8084 7.57951C39.9993 7.78774 40.2359 7.94882 40.4996 8.05007C42.0011 8.713 43.462 9.46431 44.8746 10.3001C45.0769 10.4294 45.3222 10.473 45.5566 10.4214C45.791 10.3699 45.9953 10.2273 46.1246 10.0251C46.2539 9.82284 46.2976 9.57753 46.246 9.34311C46.1944 9.10869 46.0519 8.90436 45.8496 8.77507C44.6475 7.96146 43.4042 7.21046 42.1246 6.52507C42.3246 6.17507 42.4996 5.75007 42.5996 5.60007C43.4703 4.45848 44.6504 3.59079 45.9996 3.10007C47.2123 2.59392 48.561 2.51459 49.8246 2.87507C51.8672 3.53781 53.6679 4.79045 54.9996 6.47507C56.2949 8.05947 56.9226 10.0859 56.7496 12.1251C56.7867 12.4991 56.7867 12.876 56.7496 13.2501C56.7096 13.4983 56.6425 13.7414 56.5496 13.9751C56.2606 13.9235 55.9763 13.8483 55.6996 13.7501C53.9741 13.2624 52.2997 12.6094 50.6996 11.8001L49.9246 11.4501C49.7269 11.3405 49.4998 11.296 49.2754 11.3229C49.051 11.3499 48.8408 11.4468 48.6746 11.6001C48.1496 12.1501 46.4496 14.3751 45.3996 15.5751C38.7746 10.0001 29.4246 9.00007 22.6246 10.0001C19.5101 10.5063 16.5904 11.8452 14.1746 13.8751C13.3246 13.0251 12.0746 11.5501 11.4996 11.1251C11.3173 10.9948 11.0987 10.9247 10.8746 10.9247C10.6505 10.9247 10.432 10.9948 10.2496 11.1251L9.57462 11.6751C8.14509 12.8647 6.61426 13.9271 4.99962 14.8501C4.74962 14.8501 4.42462 15.1751 4.17462 15.2751C4.05967 15.0656 3.95942 14.8484 3.87462 14.6251C3.75458 14.2642 3.65443 13.8969 3.57462 13.5251C3.07183 11.5259 3.36776 9.40959 4.39962 7.62507C5.449 5.79044 7.01363 4.30405 8.89962 3.35007C10.0813 2.78101 11.4214 2.63112 12.6996 2.92507C14.0844 3.16012 15.38 3.76474 16.4496 4.67507C16.5996 4.82507 16.8996 5.35007 17.1996 5.65007C16.3109 6.74196 15.2255 7.65775 13.9996 8.35007C13.7625 8.39289 13.5514 8.52659 13.4113 8.7227C13.2712 8.9188 13.2132 9.16184 13.2496 9.40007C13.2981 9.63431 13.4331 9.84165 13.6278 9.98068C13.8224 10.1197 14.0623 10.1802 14.2996 10.1501C15.7382 9.51665 17.0443 8.6176 18.1496 7.50007L19.3746 6.37507C19.5195 6.23962 19.6293 6.07103 19.6946 5.88378C19.7599 5.69653 19.7788 5.49622 19.7496 5.30007C19.6833 4.9822 19.5466 4.68322 19.3496 4.42507C18.9362 3.90896 18.4849 3.4243 17.9996 2.97507C16.6662 1.68236 15.0074 0.775203 13.1996 0.350066C11.309 -0.164124 9.29993 -0.0231392 7.49962 0.750066C5.04452 1.92084 2.99774 3.80214 1.62462 6.15007C0.268806 8.61613 -0.0634101 11.5163 0.699622 14.2251C0.865395 14.8295 1.09153 15.4158 1.37462 15.9751C1.5819 16.4116 1.85136 16.8158 2.17462 17.1751C2.6062 17.5865 3.16287 17.8419 3.75623 17.9008C4.34958 17.9597 4.9456 17.8186 5.44962 17.5001C7.45599 16.2919 9.3108 14.8483 10.9746 13.2001C11.5496 13.7001 12.2746 14.4001 12.8996 14.9751C10.3775 17.4977 8.52193 20.6076 7.49962 24.0251C5.36918 30.8806 6.02484 38.2994 9.32462 44.6751C9.92915 45.7648 10.6591 46.78 11.4996 47.7001L9.24962 54.5251C9.04994 55.1977 8.96542 55.8993 8.99962 56.6001C9.06667 57.1474 9.31277 57.6572 9.69962 58.0501C9.98316 58.3363 10.3127 58.5729 10.6746 58.7501C11.0496 58.9501 11.4996 59.1001 11.8496 59.2501C12.509 59.5484 13.1955 59.7828 13.8996 59.9501C14.3226 60.0842 14.7767 60.0842 15.1996 59.9501C15.9659 59.5809 16.6735 59.1007 17.2996 58.5251C18.1014 57.7398 18.8529 56.9048 19.5496 56.0251L21.1496 53.9751C23.9531 54.9279 26.8889 55.4341 29.8496 55.4751C33.6058 55.5494 37.3333 54.8074 40.7746 53.3001C40.7746 53.4501 41.1246 53.6751 41.1996 53.7251L43.1496 55.5001C43.9926 56.234 44.8774 56.9185 45.7996 57.5501C46.5266 58.0086 47.319 58.3542 48.1496 58.5751C48.5945 58.6539 49.0524 58.6107 49.4746 58.4501C50.1296 58.137 50.7568 57.769 51.3496 57.3501C51.793 57.0985 52.2115 56.8055 52.5996 56.4751C52.841 56.2735 53.0515 56.0376 53.2246 55.7751C53.5242 55.3162 53.6648 54.7716 53.6246 54.2251C53.5253 53.5382 53.2962 52.8764 52.9496 52.2751L49.9996 47.0001C49.8946 46.8202 49.7254 46.6867 49.526 46.6264C49.3266 46.5661 49.1117 46.5835 48.9246 46.6751C48.7358 46.7713 48.5928 46.9386 48.5272 47.1402C48.4616 47.3417 48.4786 47.5611 48.5746 47.7501C48.9496 48.6501 49.3246 49.5501 49.6746 50.4751C50.0246 51.4001 50.2746 52.3251 50.5746 53.2251C50.8746 54.1251 51.1996 54.2501 49.8246 55.1501C48.9246 55.7001 48.4996 55.6251 47.3246 55.1501C46.4094 54.7086 45.5242 54.2076 44.6746 53.6501L42.4996 52.2751C45.7143 50.5403 48.3288 47.8735 49.9996 44.6251C50.109 44.4096 50.1283 44.1595 50.0533 43.9297C49.9783 43.7 49.8151 43.5095 49.5996 43.4001C49.3841 43.2907 49.134 43.2713 48.9043 43.3464C48.6745 43.4214 48.484 43.5846 48.3746 43.8001C44.8746 50.5001 37.3996 53.3251 29.9996 53.0501C22.5996 52.7751 14.9996 49.3251 11.8746 43.3501C9.01569 37.6589 8.47791 31.08 10.3746 25.0001C11.143 21.9931 12.7451 19.2644 14.9964 17.1281C17.2477 14.9918 20.0566 13.5349 23.0996 12.9251C29.3496 11.7751 38.0996 12.4751 43.9496 17.5001C48.4746 21.3751 51.2996 27.8251 50.1746 37.8501C50.153 38.0613 50.2137 38.2728 50.3441 38.4404C50.4745 38.6081 50.6645 38.719 50.8746 38.7501C50.9798 38.7641 51.0867 38.757 51.1891 38.7292C51.2916 38.7015 51.3874 38.6537 51.4712 38.5885C51.555 38.5234 51.6249 38.4422 51.677 38.3498C51.7291 38.2573 51.7623 38.1555 51.7746 38.0501C53.1996 27.9001 50.5996 21.1251 46.3246 16.7251C47.2246 15.8501 48.4996 14.4501 49.2996 13.6251C51.274 14.8251 53.3903 15.7741 55.5996 16.4501C56.146 16.6383 56.7373 16.6529 57.2924 16.4918C57.8474 16.3306 58.339 16.0017 58.6996 15.5501C58.9631 15.14 59.1653 14.6936 59.2996 14.2251C59.4742 13.6123 59.5913 12.9846 59.6496 12.3501C59.9231 9.55021 59.0985 6.75358 57.3496 4.55007ZM19.1746 53.1251L17.9246 54.3501C17.1746 55.0251 16.2996 55.6001 15.5996 56.3251C14.8996 57.0501 13.8746 56.7751 12.9246 56.3251C11.5246 55.7001 11.5996 55.9501 12.7496 49.8251V49.1251C14.6526 50.8082 16.8244 52.1602 19.1746 53.1251Z" fill="black"/>
<path fill-rule="evenodd" clip-rule="evenodd" d="M25.7251 35.35C25.7916 35.8529 26.0096 36.3238 26.3501 36.7C26.7455 37.0616 27.2643 37.2583 27.8001 37.2499C28.364 37.1727 28.9232 37.0642 29.4751 36.925C30.4014 36.7525 31.336 36.6274 32.2751 36.5499L35.2001 36.3249H37.5001C37.991 36.3357 38.4804 36.2682 38.9501 36.1249H39.2251C39.3943 36.0303 39.5305 35.8862 39.6154 35.7119C39.7003 35.5376 39.7298 35.3415 39.7001 35.15C39.68 35.0011 39.6209 34.8602 39.5286 34.7416C39.4364 34.6231 39.3144 34.531 39.1751 34.475C38.6251 34.275 38.0001 34.475 37.8751 34.475L35.3751 34.1499C34.1501 34.1499 32.8751 34 31.7751 34C30.9425 33.949 30.1076 33.949 29.2751 34C29.0713 34.0548 28.871 34.1216 28.6751 34.2C28.8501 31.7 29.1001 35.375 28.2001 25.825L28.0751 23.025V21.7C28.0886 21.6172 28.0886 21.5327 28.0751 21.45C28.0852 21.3056 28.0406 21.1628 27.9501 21.05C27.9501 20.9 26.6251 20.45 26.4501 21.5C26.4501 21.85 26.3001 22.85 26.2751 23.025L25.9751 25.825C25.9751 27.25 25.7501 28.65 25.7501 30.075C25.7002 31.041 25.7002 32.0089 25.7501 32.9749C25.7001 33.3999 25.6251 34.6 25.7251 35.35Z" fill="black"/>
</g>
<defs>
<clipPath id="clip0_161_6935">
<rect width="60" height="60" fill="white"/>
</clipPath>
</defs>
</svg>
