<svg width="60" height="60" viewBox="0 0 60 60" fill="none" xmlns="http://www.w3.org/2000/svg">
<g clip-path="url(#clip0_165_7229)">
<path fill-rule="evenodd" clip-rule="evenodd" d="M26.925 40.525C24.8605 41.0868 22.7653 41.5292 20.65 41.85C17.65 42.35 20.15 37.8 18.75 25.2C21.375 25.875 23.325 24.65 25.65 24.35C27.1 24.125 28.475 23.925 29.825 23.625C30.1375 24.082 30.4213 24.5579 30.675 25.05C33.325 30.05 32.5 32.7 33.9 32.55C33.9955 32.5377 34.0877 32.5066 34.1711 32.4583C34.2545 32.4099 34.3274 32.3455 34.3856 32.2687C34.4438 32.1919 34.4861 32.1042 34.51 32.0109C34.534 31.9175 34.539 31.8203 34.525 31.725C34.4622 28.6435 33.7732 25.6069 32.5 22.8C34.675 21.975 38.025 20.425 40.25 19.725C39.8917 22.3415 40.1573 25.0057 41.025 27.5C41.0592 27.6973 41.1619 27.8762 41.3152 28.0051C41.4684 28.1341 41.6622 28.2048 41.8625 28.2048C42.0627 28.2048 42.2565 28.1341 42.4097 28.0051C42.563 27.8762 42.6657 27.6973 42.7 27.5C43.2411 24.5743 43.0084 21.558 42.025 18.75C43.45 16.8 39.725 14.65 38.725 13.75C38.5791 13.6207 38.3878 13.5547 38.1933 13.5664C37.9987 13.5781 37.8167 13.6666 37.6875 13.8125C37.5582 13.9584 37.4921 14.1496 37.5038 14.3442C37.5155 14.5388 37.6041 14.7207 37.75 14.85C38.7702 15.6191 39.6936 16.5089 40.5 17.5C40.35 17.5 40.15 17.7 39.925 17.75C39.7 17.8 39.025 17.925 38.75 18L30.975 20.5C28.8223 18.4615 26.3996 16.7286 23.775 15.35C24.7973 15.2739 25.7972 15.0112 26.725 14.575C30.925 13.45 35 12.3 37.5 8.70001C41.875 2.50001 31.9 -4.99999 25.225 7.50001C23.2739 4.33485 20.3416 1.89424 16.875 0.550006C15.66 0.00475834 14.3106 -0.167516 12.9976 0.0550167C11.6847 0.27755 10.4674 0.884871 9.49995 1.80001C5.47495 5.82501 11.0999 10.825 16.0249 13.625C17.1008 14.1584 18.2117 14.6177 19.3499 15C18.7249 15.225 18 15.6 17.875 15.625C15.4654 15.9089 13.1457 16.7105 11.075 17.975C8.57495 16.275 6.07495 14.325 4.72495 13.325C5.79142 12.8246 6.94773 12.544 8.12495 12.5C8.34375 12.5 8.5536 12.4131 8.70831 12.2584C8.86303 12.1037 8.94995 11.8938 8.94995 11.675C8.94995 11.4562 8.86303 11.2464 8.70831 11.0916C8.5536 10.9369 8.34375 10.85 8.12495 10.85C6.12495 10.85 2.37495 11.55 2.09995 13.55C1.66434 17.2749 1.48891 21.0257 1.57495 24.775C1.57495 26.175 1.82495 32.025 2.69995 33C3.48509 33.8175 4.32002 34.5856 5.19995 35.3C19.625 46.675 18.2 45.125 27.3 41.925C27.4805 41.8708 27.6329 41.7484 27.7247 41.5837C27.8166 41.4191 27.8406 41.2251 27.7918 41.043C27.7431 40.8609 27.6253 40.705 27.4634 40.6083C27.3016 40.5115 27.1084 40.4817 26.925 40.525ZM26.5 12.3L27.5 9.15001C32.725 -2.19999 41.2 5.35 32.65 10.5C32.5 10.6 25.275 15 26.5 12.3ZM11.125 3.50001C15.875 -0.924994 28.05 11 21.65 14.025C20.0488 13.4633 18.487 12.7951 16.975 12.025C13.9749 10.175 8.52495 5.90001 11.125 3.50001ZM18.4249 17.5C23.4249 15.6 20.625 15.275 22.925 17.225C24.63 18.4756 26.258 19.8281 27.8 21.275C26.975 21.425 26.15 21.55 25.3 21.65C20 22.35 21.25 24.5 13.4 19.525C15.013 18.7055 16.6944 18.0279 18.4249 17.5ZM4.99995 31.425C5.19995 31.25 4.79995 30.5 4.69995 29.725C4.19084 24.8338 3.96546 19.9173 4.02495 15C5.37495 16.125 7.67495 18 9.99995 19.7C8.82495 23.3 8.69995 32.7 8.34995 34.4C7.18062 33.4693 6.06233 32.4762 4.99995 31.425ZM9.67495 35.675C9.97495 35.125 9.92495 34.675 12.1749 21.525C13.7695 22.6554 15.4401 23.6745 17.1749 24.575C16.7749 25.35 17.6 21.925 16.325 37.95C16.2887 39.0465 16.3641 40.1438 16.5499 41.225C14.8249 39.85 12.15 37.725 9.69995 35.675H9.67495Z" fill="black"/>
<path fill-rule="evenodd" clip-rule="evenodd" d="M58.25 48.6502C54.2855 44.0377 49.8534 39.8486 45.025 36.1502H41.275C41.2926 34.8891 40.9458 33.6497 40.2761 32.5809C39.6065 31.5121 38.6425 30.6594 37.5 30.1252C37.4294 30.0595 37.3466 30.0084 37.2562 29.9748C37.1659 29.9411 37.0698 29.9256 36.9735 29.9291C36.8771 29.9326 36.7824 29.955 36.6947 29.9951C36.6071 30.0352 36.5281 30.0921 36.4625 30.1627C36.3968 30.2333 36.3457 30.3161 36.312 30.4065C36.2784 30.4968 36.2629 30.5929 36.2663 30.6892C36.2698 30.7856 36.2923 30.8803 36.3323 30.9679C36.3724 31.0556 36.4294 31.1345 36.5 31.2002C37.3683 33.0385 38.5245 34.7264 39.925 36.2002C36.15 36.3252 35.275 36.6502 34.725 36.2002C34.725 36.2002 33.6 36.0252 33.575 36.8752V37.4502C32.5836 36.7651 31.7512 35.8746 31.1343 34.8394C30.5175 33.8041 30.1306 32.6482 30 31.4502C30.0122 30.8795 30.1669 30.3209 30.45 29.8252C31.275 28.7502 28.95 26.9502 27.95 31.2002C26.95 35.4502 30.05 38.9002 33.575 41.2002C33.825 48.5252 33.775 47.1502 35 48.7002C38.0148 52.8415 41.5907 56.5436 45.625 59.7002C45.9342 59.885 46.2797 60.0008 46.6379 60.0396C46.996 60.0784 47.3583 60.0394 47.7 59.9252C48.9167 59.4651 50.0616 58.8337 51.1 58.0502C51.7 57.5502 52.2 56.9752 52.8 56.5002C54.964 54.7389 56.7859 52.595 58.175 50.1752C58.3309 49.9543 58.4207 49.6936 58.434 49.4236C58.4472 49.1536 58.3834 48.8853 58.25 48.6502ZM53.725 51.7252C52.1921 53.3751 50.5192 54.8891 48.725 56.2502C47.075 57.1502 48.025 58.6252 43.725 54.7502C40.475 51.8002 37.275 47.9502 35.825 46.7002C35.5576 45.2551 35.3905 43.7933 35.325 42.3252C36.3803 42.942 37.494 43.4528 38.65 43.8502C39.0421 44.0612 39.4633 44.2129 39.9 44.3002C43.875 44.4502 38.05 41.8002 35.05 39.0752V38.5252C35.25 38.5252 42.925 36.6752 45.375 39.0252C47.825 41.3752 52.875 46.5252 55 49.0252C55.45 49.4252 55.925 49.1502 53.725 51.7252Z" fill="black"/>
</g>
<defs>
<clipPath id="clip0_165_7229">
<rect width="60" height="60" fill="white"/>
</clipPath>
</defs>
</svg>
