<svg width="60" height="60" viewBox="0 0 60 60" fill="none" xmlns="http://www.w3.org/2000/svg">
<g clip-path="url(#clip0_165_7154)">
<path d="M58.7251 34.0501C57.3076 30.4882 54.6415 27.5644 51.2251 25.8251C49.6477 25.1395 48.1406 24.3022 46.7251 23.3251C45.8996 22.7872 45.2687 21.9985 44.9251 21.0751C44.8688 20.8857 44.8622 20.685 44.906 20.4923C44.9498 20.2997 45.0424 20.1215 45.1751 19.9751C45.7916 19.2583 46.538 18.6645 47.3751 18.2251C51.1251 15.9501 57.0501 13.8751 58.3001 11.6251C58.5925 11.1371 58.7098 10.564 58.6325 10.0004C58.5553 9.43675 58.2881 8.91634 57.8751 8.52508C56.4459 7.20856 54.7362 6.23403 52.8751 5.67508C52.6696 5.59552 52.4408 5.60086 52.2392 5.68994C52.0376 5.77902 51.8797 5.94454 51.8001 6.15008C51.7205 6.35562 51.7259 6.58436 51.815 6.78596C51.904 6.98756 52.0696 7.14552 52.2751 7.22508C53.852 7.74983 55.3003 8.60176 56.5251 9.72508C56.6776 9.85902 56.7803 10.0406 56.8166 10.2403C56.8529 10.4399 56.8207 10.646 56.7251 10.8251C56.0564 11.6623 55.2 12.3303 54.2251 12.7751C51.8751 14.0501 48.7001 15.2751 46.3751 16.6251C44.0501 17.9751 42.5001 20.0001 43.0001 21.7751C43.4703 23.1014 44.3446 24.2469 45.5001 25.0501C47.0156 26.1068 48.6318 27.0112 50.3251 27.7501C53.2334 29.3175 55.466 31.897 56.6001 35.0001C57.8251 38.0369 57.949 41.4066 56.9501 44.5251C55.8279 47.5073 53.696 50.0019 50.9251 51.5751C48.1104 53.2469 45.0065 54.3748 41.7751 54.9001C35.1074 56.0881 28.2529 55.6769 21.7751 53.7001C15.3817 51.8285 9.83388 47.8001 6.0751 42.3001C-1.5249 30.6001 3.9001 18.4001 14.3001 10.9251C19.3281 7.26454 25.1705 4.8809 31.3241 3.9794C37.4778 3.07791 43.7584 3.68558 49.6251 5.75008C49.7137 5.78672 49.8087 5.80544 49.9045 5.80513C50.0004 5.80483 50.0952 5.78552 50.1836 5.74832C50.2719 5.71112 50.352 5.65677 50.4192 5.58842C50.4864 5.52006 50.5394 5.43905 50.5751 5.35008C50.6409 5.16751 50.6334 4.96653 50.5542 4.78937C50.4749 4.61221 50.3301 4.47267 50.1501 4.40008C44.0487 2.11666 37.4818 1.35806 31.0205 2.19024C24.5591 3.02242 18.3988 5.42018 13.0751 9.17508C1.4251 17.2751 -4.4249 30.7501 3.9251 43.7001C8.01017 49.7382 14.0763 54.1596 21.0751 56.2001C27.9287 58.2772 35.1775 58.6971 42.2251 57.4251C46.5235 56.7223 50.5936 55.0086 54.1001 52.4251C56.4918 50.5931 58.2916 48.0978 59.2751 45.2501C60.4091 41.5676 60.2145 37.6038 58.7251 34.0501Z" fill="black"/>
<path d="M34.5006 19.7251C35.7087 19.55 36.8621 19.1058 37.8756 18.4251C38.7202 17.9771 39.3777 17.243 39.7304 16.3543C40.0832 15.4657 40.108 14.4805 39.8006 13.5751C38.1006 9.07513 31.7506 10.1751 30.6756 10.4251C29.5829 10.6582 28.5676 11.1658 27.7256 11.9001C27.1568 12.3807 26.7523 13.0269 26.5686 13.7485C26.3848 14.4701 26.431 15.231 26.7006 15.9251C27.0964 16.809 27.6827 17.5945 28.4174 18.2254C29.1521 18.8564 30.0171 19.3173 30.9506 19.5751C32.1155 19.8366 33.3178 19.8875 34.5006 19.7251ZM29.5006 15.3501C29.2687 15.0929 29.1403 14.7589 29.1403 14.4126C29.1403 14.0663 29.2687 13.7323 29.5006 13.4751C30.188 12.7857 31.0535 12.301 32.0006 12.0751C32.8256 11.8501 37.0006 10.5751 38.0256 14.2251C38.2506 14.9751 37.8006 15.7251 36.7006 16.3751C35.9736 16.7595 35.1717 16.9813 34.3506 17.0251C33.5134 17.1139 32.6672 17.0547 31.8506 16.8501C30.8755 16.673 30.0017 16.1381 29.4006 15.3501H29.5006Z" fill="black"/>
<path d="M23.3752 29.0001C24.0164 28.3787 24.5228 27.6317 24.8626 26.8058C25.2024 25.98 25.3683 25.093 25.3502 24.2001C25.0002 20.9001 19.6502 19.8501 17.0252 20.0001C15.2292 20.1502 13.5046 20.771 12.0252 21.8001C11.2512 22.3133 10.6355 23.0318 10.2469 23.8751C9.85833 24.7185 9.71229 25.6534 9.82516 26.5751C9.99541 27.4887 10.3975 28.3432 10.9928 29.0568C11.5882 29.7703 12.3569 30.319 13.2252 30.6501C14.9178 31.3439 16.7682 31.5601 18.5752 31.2751C20.3722 31.0325 22.0496 30.2375 23.3752 29.0001ZM14.2752 28.1501C13.8434 27.9861 13.4571 27.7213 13.1483 27.3777C12.8396 27.0342 12.6174 26.6219 12.5002 26.1751C12.4135 25.704 12.4641 25.2179 12.6458 24.7747C12.8275 24.3315 13.1328 23.9499 13.5252 23.6751C14.6126 22.7531 15.9229 22.1324 17.3252 21.8751C20.3502 21.3251 23.9252 22.3751 23.4752 24.7751C23.2513 25.7578 22.7058 26.6377 21.9252 27.2751C20.8633 28.0948 19.587 28.5897 18.2502 28.7001C16.8999 28.8586 15.5316 28.6693 14.2752 28.1501Z" fill="black"/>
<path d="M19.9997 44.1752C21.3922 45.1081 23.0239 45.6202 24.6997 45.6502C26.3199 45.712 27.929 45.3592 29.3747 44.6252C30.0436 44.2748 30.6193 43.7699 31.0541 43.1525C31.4889 42.5352 31.7702 41.823 31.8747 41.0752C32.0747 39.5502 32.0747 36.4002 25.9747 35.5502C24.4384 35.3116 22.8663 35.5839 21.4997 36.3252C20.6672 36.7254 19.9292 37.2979 19.3344 38.0047C18.7397 38.7115 18.3018 39.5365 18.0497 40.4252C17.9703 41.1727 18.1129 41.927 18.4597 42.594C18.8065 43.2609 19.3422 43.8109 19.9997 44.1752ZM20.9247 40.4502C21.3344 39.5633 21.995 38.8158 22.8247 38.3002C23.7285 37.7115 24.7984 37.4309 25.8747 37.5002C29.0747 37.5002 30.4747 38.7252 29.9997 40.8002C29.8933 41.2116 29.6904 41.5917 29.4078 41.9091C29.1252 42.2264 28.7711 42.4719 28.3747 42.6252C27.2457 43.062 26.025 43.2082 24.8247 43.0502C23.672 42.9916 22.5571 42.6199 21.5997 41.9752C20.8997 41.4252 20.6747 40.9502 20.8997 40.4502H20.9247Z" fill="black"/>
<path d="M38.0504 46C39.3782 46.7636 40.8949 47.1362 42.4254 47.075C43.9613 47.0088 45.4347 46.4475 46.6254 45.475C47.8183 44.4937 48.5808 43.0853 48.7504 41.55C48.9754 37.625 43.7504 36.85 42.1504 36.85C41.0284 36.8423 39.9214 37.1083 38.9254 37.625C37.9851 38.0594 37.1823 38.7438 36.6047 39.6036C36.0271 40.4633 35.697 41.4653 35.6504 42.5C35.7062 43.2433 35.9576 43.9585 36.3791 44.5732C36.8006 45.1879 37.3772 45.6802 38.0504 46ZM38.4004 41.875C38.6517 40.9255 39.261 40.1101 40.1004 39.6C40.9254 39.0578 41.8882 38.7629 42.8754 38.75C47.8754 38.625 46.8754 41.425 46.7504 41.8C46.4727 42.5671 45.9556 43.2246 45.2754 43.675C44.4138 44.2331 43.4013 44.5124 42.3754 44.475C41.3397 44.4498 40.3297 44.1477 39.4504 43.6C38.6254 43.125 38.2754 42.5 38.4004 41.875Z" fill="black"/>
</g>
<defs>
<clipPath id="clip0_165_7154">
<rect width="60" height="60" fill="white"/>
</clipPath>
</defs>
</svg>
