<svg width="60" height="60" viewBox="0 0 60 60" fill="none" xmlns="http://www.w3.org/2000/svg">
<g clip-path="url(#clip0_168_5010)">
<path fill-rule="evenodd" clip-rule="evenodd" d="M2.92457 15.3251C3.54957 15.5001 4.17457 15.6751 4.82457 15.8001C5.47457 15.9251 5.94957 15.6251 7.62457 15.8001C10.7746 15.1251 11.4746 13.0501 8.52457 13.1501H4.99957L3.09957 13.3501L3.39957 9.37509H5.89957H7.34957L8.79957 9.25009C9.94957 9.25009 11.0996 8.97509 12.2996 8.90009C12.5108 8.92169 12.7223 8.86097 12.8899 8.73058C13.0576 8.6002 13.1685 8.41018 13.1996 8.20009C14.8036 9.29093 16.3475 10.4676 17.8246 11.7251C19.6746 12.9001 21.2496 12.5501 19.9996 11.2001C18.2475 9.3461 16.3679 7.61689 14.3746 6.02509C12.5319 4.55387 10.5568 3.25665 8.47457 2.15009C7.26675 1.34714 5.97598 0.676612 4.62457 0.150093C4.11632 -0.0255767 3.57043 -0.0625867 3.04312 0.0428748C2.51582 0.148336 2.02615 0.392457 1.62457 0.750093C1.25496 1.14508 1.01129 1.64114 0.924566 2.17509C0.852193 3.18213 0.852193 4.19306 0.924566 5.20009C0.924566 6.85009 0.724566 8.50009 0.674566 10.2001C0.624566 11.9001 0.674566 13.5501 0.674566 15.2001C0.578837 17.7199 0.814179 20.2415 1.37457 22.7001C1.67457 23.9501 3.29957 22.7001 3.02457 21.4501C2.97457 21.2501 2.84957 17.2751 2.92457 15.3251ZM4.72457 3.22509C5.72457 3.67509 6.69957 4.35009 7.22457 4.62509C8.59376 5.25685 9.92144 5.97496 11.1996 6.77509C10.3749 6.59219 9.54011 6.45862 8.69957 6.37509C8.15853 6.33799 7.6156 6.33799 7.07457 6.37509C6.52706 6.39918 5.98302 6.47451 5.44957 6.60009C4.78094 6.75626 4.12817 6.97385 3.49957 7.25009L3.64957 5.45009C3.84957 3.52509 2.49957 2.17509 4.72457 3.22509Z" fill="black"/>
<path fill-rule="evenodd" clip-rule="evenodd" d="M58.9242 10C58.5451 9.07167 57.9937 8.22342 57.2992 7.50003C56.6366 6.81225 55.8789 6.22293 55.0492 5.75003C54.2551 5.3001 53.4175 4.93156 52.5492 4.65003C50.7228 4.05466 48.7672 3.97679 46.8992 4.42503C45.0032 4.82632 43.3263 5.92343 42.1992 7.50003C41.649 8.36669 41.3162 9.3534 41.2292 10.3763C41.1421 11.3991 41.3034 12.4279 41.6992 13.375C41.9913 14.0618 42.4843 14.6442 43.1133 15.0458C43.7424 15.4473 44.4783 15.6493 45.2242 15.625C45.3498 15.6465 45.4785 15.6403 45.6014 15.6068C45.7243 15.5734 45.8384 15.5135 45.9358 15.4313C46.0332 15.3492 46.1114 15.2468 46.1651 15.1313C46.2188 15.0158 46.2466 14.8899 46.2466 14.7625C46.2466 14.6352 46.2188 14.5093 46.1651 14.3938C46.1114 14.2783 46.0332 14.1759 45.9358 14.0937C45.8384 14.0116 45.7243 13.9517 45.6014 13.9183C45.4785 13.8848 45.3498 13.8786 45.2242 13.9C44.6996 13.8907 44.1964 13.6898 43.8096 13.3353C43.4228 12.9807 43.179 12.4969 43.1242 11.975C42.91 10.8098 43.1613 9.607 43.8242 8.62503C44.7192 7.4403 46.0346 6.64395 47.4992 6.40003C48.9675 6.15003 50.4756 6.28791 51.8742 6.80003C52.5807 7.04474 53.2594 7.36317 53.8992 7.75003C54.5071 8.12379 55.055 8.58737 55.5242 9.12503C55.9735 9.60545 56.3145 10.1766 56.5242 10.8C56.7487 11.3979 56.8259 12.041 56.7492 12.675C56.5584 14.2638 55.9164 15.7647 54.8992 17C53.2348 19.0395 51.2507 20.7957 49.0242 22.2C44.4563 25.3488 39.4871 27.8713 34.2492 29.7H34.0742C34.0033 25.968 32.829 22.3405 30.6992 19.275C28.0742 15.75 18.4492 7.50003 6.39921 17.75C3.2356 21.0779 1.3496 25.4166 1.07421 30C0.830578 32.3471 1.1736 34.7179 2.07248 36.8996C2.97136 39.0814 4.39796 41.0058 6.22421 42.5C7.61819 43.5957 9.19146 44.4415 10.8742 45C9.17245 45.9519 7.72364 47.2979 6.64921 48.925C5.88476 50.1249 5.27968 51.4191 4.84921 52.775C4.26905 54.7687 3.86747 56.8101 3.64921 58.875C3.62744 58.985 3.62766 59.0983 3.64985 59.2082C3.67205 59.3181 3.71578 59.4226 3.77852 59.5156C3.84127 59.6085 3.92179 59.6881 4.01544 59.7498C4.1091 59.8115 4.21403 59.8541 4.32421 59.875C4.4327 59.9006 4.54525 59.9039 4.65506 59.8848C4.76487 59.8657 4.86967 59.8245 4.96313 59.7638C5.05659 59.703 5.13677 59.624 5.19883 59.5314C5.26089 59.4388 5.30354 59.3346 5.32421 59.225C5.94779 57.394 6.67394 55.5995 7.49921 53.85C7.99921 52.7 8.57421 51.575 9.17421 50.475C10.0335 48.6184 11.3495 47.0099 12.9992 45.8C15.108 46.2803 17.2897 46.3482 19.4242 46C21.6701 45.5895 23.8379 44.8304 25.8492 43.75C25.8492 43.75 25.8492 43.95 25.9992 44C26.8742 44.925 27.7242 45.875 28.4992 46.825C29.3262 47.7116 30.0787 48.6649 30.7492 49.675C31.5133 50.665 32.1908 51.7189 32.7742 52.825C33.4059 53.9761 33.9734 55.1613 34.4742 56.375C34.5484 56.5873 34.7015 56.7628 34.9016 56.8652C35.1018 56.9676 35.3337 56.989 35.5492 56.925C35.6562 56.891 35.7554 56.8361 35.841 56.7635C35.9267 56.691 35.9971 56.6021 36.0483 56.5022C36.0994 56.4022 36.1302 56.2931 36.139 56.1812C36.1477 56.0693 36.1342 55.9567 36.0992 55.85C35.7786 54.2029 35.31 52.588 34.6992 51.025C34.2575 49.9582 33.7132 48.9367 33.0742 47.975C32.392 47.1057 31.6212 46.3098 30.7742 45.6C29.5992 44.625 28.2742 43.825 27.0742 42.975C29.3783 41.6176 31.2573 39.6434 32.4992 37.275C33.2504 35.6541 33.7398 33.9243 33.9492 32.15C35.3992 31.725 36.8242 31.25 38.2492 30.725C42.558 29.1588 46.6691 27.0948 50.4992 24.575C52.9855 22.9934 55.1978 21.0176 57.0492 18.725C58.3661 17.0438 59.1808 15.0244 59.3992 12.9C59.4405 11.9111 59.2788 10.9241 58.9242 10ZM18.1992 35.625C22.5181 34.948 26.7989 34.0468 31.0242 32.925C30.8019 34.0102 30.4581 35.0669 29.9992 36.075C28.9213 38.0111 27.3294 39.6116 25.3992 40.7C23.4145 41.8646 21.2392 42.6687 18.9742 43.075C17.0566 43.4159 15.0884 43.3447 13.2005 42.8663C11.3125 42.3878 9.54801 41.513 8.02421 40.3C6.48528 39.1082 5.26148 37.5578 4.45965 35.7842C3.65781 34.0106 3.30232 32.0677 3.42421 30.125C3.59224 26.0486 5.09417 22.14 7.69921 19C8.94921 17.65 21.1992 9.15004 28.7492 20.55C30.6899 23.5094 31.6197 27.0179 31.3992 30.55C26.9899 31.998 22.4987 33.1834 17.9492 34.1C17.8523 34.1181 17.76 34.155 17.6774 34.2087C17.5948 34.2625 17.5236 34.332 17.4679 34.4132C17.4122 34.4945 17.373 34.5859 17.3527 34.6823C17.3323 34.7787 17.3311 34.8782 17.3492 34.975C17.358 35.0753 17.3877 35.1726 17.4362 35.2608C17.4847 35.349 17.551 35.4262 17.631 35.4873C17.711 35.5484 17.8028 35.5923 17.9006 35.616C17.9984 35.6397 18.1001 35.6428 18.1992 35.625Z" fill="black"/>
<path fill-rule="evenodd" clip-rule="evenodd" d="M12.6244 22.85C12.1353 22.634 11.6088 22.5151 11.0744 22.5C10.5169 22.5049 9.96856 22.642 9.47437 22.9C8.95266 23.2151 8.50577 23.6399 8.16472 24.145C7.82367 24.6501 7.59663 25.2234 7.49937 25.825C7.43881 25.913 7.39775 26.0129 7.37893 26.118C7.3601 26.2231 7.36395 26.3311 7.39021 26.4346C7.41647 26.5381 7.46454 26.6349 7.5312 26.7183C7.59786 26.8018 7.68158 26.87 7.77674 26.9185C7.87191 26.967 7.97633 26.9946 8.08303 26.9994C8.18972 27.0043 8.29622 26.9863 8.3954 26.9467C8.49459 26.9071 8.58417 26.8467 8.65814 26.7697C8.73212 26.6927 8.78879 26.6007 8.82437 26.5C9.2745 25.9832 9.89578 25.646 10.5744 25.55C10.8075 25.5364 11.0412 25.5364 11.2744 25.55C12.3099 25.424 13.3588 25.6251 14.2744 26.125C14.3613 26.198 14.4624 26.2522 14.5712 26.2844C14.6801 26.3165 14.7944 26.3258 14.9071 26.3117C15.0197 26.2976 15.1282 26.2605 15.2258 26.2025C15.3235 26.1446 15.4081 26.0671 15.4744 25.975C15.5433 25.8887 15.5942 25.7894 15.624 25.683C15.6539 25.5766 15.662 25.4653 15.648 25.3558C15.634 25.2462 15.5982 25.1405 15.5426 25.045C15.487 24.9496 15.4128 24.8662 15.3244 24.8C14.6074 23.9282 13.6773 23.2565 12.6244 22.85Z" fill="black"/>
<path fill-rule="evenodd" clip-rule="evenodd" d="M18.8994 25.9001C19.0884 25.9546 19.2912 25.9328 19.4642 25.8393C19.6372 25.7458 19.7666 25.588 19.8244 25.4001C20.3051 24.6635 20.9149 24.0198 21.6244 23.5001C21.9406 23.2265 22.3052 23.0145 22.6994 22.8751C23.0843 22.7353 23.4939 22.6764 23.9026 22.7022C24.3113 22.7281 24.7102 22.838 25.0744 23.0251C25.2583 23.1566 25.486 23.2118 25.7097 23.1792C25.9334 23.1465 26.1358 23.0286 26.2744 22.8501C26.3414 22.7586 26.3895 22.6547 26.4157 22.5444C26.4419 22.4342 26.4459 22.3197 26.4272 22.2079C26.4086 22.0961 26.3678 21.9892 26.3072 21.8934C26.2466 21.7975 26.1675 21.7148 26.0744 21.6501C25.5749 21.0931 24.9477 20.6657 24.2466 20.4044C23.5456 20.1432 22.7916 20.0559 22.0494 20.1501C21.6447 20.2115 21.2549 20.3471 20.8994 20.5501C20.3921 20.8295 19.9425 21.2028 19.5744 21.6501C18.9024 22.6477 18.4978 23.8012 18.3994 25.0001C18.3581 25.1853 18.3862 25.3792 18.4784 25.5451C18.5705 25.711 18.7204 25.8373 18.8994 25.9001Z" fill="black"/>
</g>
<defs>
<clipPath id="clip0_168_5010">
<rect width="60" height="60" fill="white"/>
</clipPath>
</defs>
</svg>
