<svg width="60" height="60" viewBox="0 0 60 60" fill="none" xmlns="http://www.w3.org/2000/svg">
<g clip-path="url(#clip0_169_5085)">
<path fill-rule="evenodd" clip-rule="evenodd" d="M58.7002 11.25C58.5603 10.9839 58.3614 10.7532 58.1188 10.5756C57.8762 10.3979 57.5962 10.278 57.3002 10.225C56.467 10.1778 55.6439 10.4257 54.9752 10.925C53.5252 11.875 51.6002 13.875 50.2252 14.775C49.8663 15.0215 49.4694 15.2073 49.0502 15.325C48.8167 15.4084 48.5727 15.4589 48.3252 15.475H48.0502C47.6252 14.95 47.1502 14.375 46.7002 13.775C46.2577 13.1903 45.8487 12.581 45.4752 11.95C45.3435 11.7245 45.2266 11.4907 45.1252 11.25C45.4058 10.774 45.8124 10.3847 46.3002 10.125C47.5732 9.39697 48.8082 8.60427 50.0002 7.75003C50.8524 7.05236 51.4357 6.08026 51.6502 5.00003C51.6821 4.46102 51.5385 3.9262 51.2411 3.47555C50.9437 3.02491 50.5083 2.68267 50.0002 2.50003C49.1206 2.04286 48.1764 1.72251 47.2002 1.55003C45.816 1.29284 44.4052 1.20886 43.0002 1.30003C40.3002 1.50208 37.7306 2.54215 35.6502 4.27503C33.656 6.07143 32.3187 8.48221 31.8502 11.125C31.6642 12.063 31.6137 13.0227 31.7002 13.975C31.7729 14.9335 31.9834 15.8766 32.3252 16.775C32.4502 17.125 32.6002 18.7 33.1252 18.75C32.8925 19.0936 32.6151 19.4047 32.3002 19.675C31.9082 20.0153 31.4903 20.3246 31.0502 20.6C30.8778 20.6995 30.752 20.8633 30.7004 21.0556C30.6489 21.2478 30.6758 21.4526 30.7752 21.625C30.8747 21.7974 31.0385 21.9232 31.2308 21.9748C31.423 22.0264 31.6278 21.9995 31.8002 21.9C32.4384 21.5438 33.0339 21.116 33.5752 20.625C33.9865 20.2854 34.3484 19.8899 34.6502 19.45C34.8135 19.0987 34.8574 18.7036 34.7752 18.325C34.5444 17.5922 34.2689 16.8742 33.9502 16.175C33.6806 15.4367 33.5288 14.6605 33.5002 13.875C33.4707 13.092 33.5549 12.3089 33.7502 11.55C34.2196 9.37936 35.3983 7.42671 37.1002 6.00003C38.8707 4.6855 40.9968 3.93614 43.2002 3.85003C44.1729 3.83468 45.1446 3.91844 46.1002 4.10003C46.965 4.20159 47.8085 4.43778 48.6002 4.80003C48.417 5.10287 48.2167 5.39502 48.0002 5.67503C47.1752 6.42503 45.3252 7.22503 44.0502 8.17503C43.2546 8.76963 42.654 9.58774 42.3252 10.525C42.1879 11.0241 42.1879 11.551 42.3252 12.05C42.4994 12.5237 42.7258 12.9765 43.0002 13.4C43.4238 14.1061 43.8827 14.7903 44.3752 15.45C44.9002 16.125 45.4252 16.775 45.9252 17.35C46.2077 17.6621 46.5563 17.9071 46.9456 18.0671C47.3348 18.2272 47.755 18.2982 48.1752 18.275C49.4663 18.173 50.7119 17.7521 51.8002 17.05C52.9502 16.225 54.5252 14.55 55.9002 13.45C56.138 13.2506 56.3886 13.0669 56.6502 12.9L56.8252 13.2C57.4949 15.1078 57.7588 17.1344 57.6002 19.15C57.5472 20.7311 56.9258 22.24 55.8502 23.4C54.5167 24.7781 52.7528 25.66 50.8502 25.9C48.8571 26.0494 46.8563 25.7415 45.0002 25C44.7878 24.9169 44.5513 24.9201 44.3412 25.0088C44.131 25.0976 43.9638 25.2648 43.8752 25.475C43.7921 25.6875 43.7953 25.9239 43.884 26.1341C43.9727 26.3442 44.14 26.5114 44.3502 26.6C46.4345 27.5205 48.6977 27.9646 50.9752 27.9C53.3353 27.6732 55.5481 26.6506 57.2502 25C58.1604 24.0763 58.8735 22.9774 59.3462 21.7698C59.819 20.5622 60.0415 19.2712 60.0002 17.975C60.1262 15.6606 59.6797 13.3508 58.7002 11.25Z" fill="black"/>
<path fill-rule="evenodd" clip-rule="evenodd" d="M26.1754 40.9249C25.9768 41.0315 25.827 41.2105 25.7572 41.4247C25.6873 41.6389 25.7028 41.8718 25.8004 42.0749C26.5978 43.8199 26.95 45.7354 26.8254 47.6499C26.7772 49.5164 26.1382 51.3196 25.0004 52.7999C24.0733 53.9242 22.9019 54.8219 21.5754 55.4249C20.2842 56.0558 18.8623 56.3727 17.4254 56.3499C16.0155 56.2796 14.6207 56.0275 13.2754 55.5999C12.6771 55.4033 12.1123 55.1167 11.6004 54.7499C11.3883 54.6099 11.2229 54.4097 11.1254 54.1749C12.3254 52.8499 15.6254 50.4249 16.7504 49.4749C17.4446 48.9049 18.0147 48.1988 18.4254 47.3999C18.6749 46.8611 18.745 46.2565 18.6254 45.6749C18.1555 44.7358 17.5203 43.889 16.7504 43.1749C15.7627 42.1357 14.6452 41.2283 13.4254 40.4749C12.43 40.3119 11.4087 40.488 10.5254 40.9749C9.07121 41.6846 7.68249 42.5211 6.3754 43.4749C6.0004 43.7499 5.2504 44.4249 4.5004 44.8999C4.3254 44.8999 4.1004 44.8999 3.9504 45.0999C3.91953 44.9958 3.87763 44.8952 3.8254 44.7999C3.09764 43.3816 2.64789 41.8372 2.5004 40.2499C2.37354 39.0047 2.5361 37.747 2.9754 36.5749C3.71317 34.9571 4.94811 33.6171 6.5004 32.7499C7.9943 31.7929 9.72636 31.2732 11.5004 31.2499C13.0786 31.4126 14.6085 31.8886 16.0004 32.6499C16.5337 32.8544 17.1114 32.9148 17.6754 32.8249C18.1118 32.6494 18.517 32.4045 18.8754 32.0999C19.7254 31.3499 21.0254 30.0749 21.7504 29.4499C21.9062 29.324 22.0056 29.1412 22.0267 28.942C22.0478 28.7427 21.9889 28.5433 21.8629 28.3874C21.7369 28.2316 21.5542 28.1322 21.3549 28.1111C21.1557 28.09 20.9562 28.149 20.8004 28.2749L17.5004 31.1749C17.0776 31.1828 16.6614 31.0701 16.3004 30.8499C15.4934 30.4189 14.6582 30.043 13.8004 29.7249C13.1201 29.5035 12.4145 29.3691 11.7004 29.3249C9.50592 29.2541 7.33448 29.7905 5.4254 30.8749C3.45778 31.9546 1.86943 33.6127 0.875396 35.6249C0.0578541 37.5034 -0.244181 39.5659 0.000395603 41.5999C0.289578 43.7552 1.15307 45.793 2.5004 47.4999C2.79386 47.6984 3.12616 47.8323 3.47527 47.8926C3.82438 47.953 4.18233 47.9384 4.5254 47.8499C5.78367 47.3305 6.95545 46.6224 8.0004 45.7499C8.80507 45.1345 9.6394 44.5588 10.5004 44.0249C10.9879 43.7187 11.5077 43.4672 12.0504 43.2749H12.4754L15.7504 46.1999L14.8004 47.2749C13.8504 48.1249 11.2004 50.1999 9.8004 51.6249C9.10947 52.1888 8.61856 52.9602 8.4004 53.8249C8.39952 54.5212 8.59644 55.2033 8.96822 55.792C9.34 56.3806 9.87135 56.8516 10.5004 57.1499C12.624 58.1958 14.9583 58.743 17.3254 58.7499C19.125 58.7485 20.8986 58.3201 22.5004 57.4999C24.112 56.7221 25.5169 55.5742 26.6004 54.1499C27.9718 52.3224 28.7328 50.1094 28.7754 47.8249C28.8661 45.5963 28.4023 43.3801 27.4254 41.3749C27.3806 41.257 27.3107 41.1501 27.2207 41.0617C27.1307 40.9732 27.0226 40.9053 26.9039 40.8625C26.7851 40.8198 26.6585 40.8032 26.5328 40.814C26.4071 40.8248 26.2851 40.8626 26.1754 40.9249Z" fill="black"/>
<path fill-rule="evenodd" clip-rule="evenodd" d="M53.5004 38.3501C49.7504 35.3751 43.3504 31.5751 40.5004 29.5251C38.5504 28.1001 38.3004 27.3751 36.7254 28.0251C35.5277 28.6963 34.4809 29.6068 33.6504 30.7001C32.6754 29.8251 31.7004 28.9501 30.7754 28.0501C29.8504 27.1501 28.7754 25.9751 27.8254 24.9251C26.8754 23.8751 26.5004 23.5501 25.8754 22.8251C24.8004 21.7501 23.7254 20.6501 22.5004 19.6251C20.9004 18.2001 19.2004 16.9001 17.5004 15.6001V15.4501C18.4875 14.5131 19.3301 13.4347 20.0004 12.2501C20.8754 10.4501 20.5254 9.10015 17.9254 7.05015C15.7767 5.37303 13.4651 3.91573 11.0254 2.70015C10.1584 2.38066 9.22199 2.29795 8.31243 2.46053C7.40287 2.6231 6.55305 3.0251 5.85043 3.62515C5.11627 4.1447 4.49744 4.81042 4.03281 5.58051C3.56817 6.3506 3.26776 7.20843 3.15043 8.10015C3.14787 8.62868 3.26766 9.15063 3.50043 9.62515C3.83512 10.3587 4.21934 11.0687 4.65043 11.7501C5.47543 13.1251 6.27543 14.4751 7.15043 15.7251C7.81418 16.6099 8.54107 17.4454 9.32543 18.2251C9.87943 18.7732 10.5112 19.2365 11.2004 19.6001C11.8021 19.933 12.4916 20.0727 13.1754 20.0001C13.5681 19.9442 13.9344 19.7697 14.2254 19.5001C14.5073 19.1681 14.7662 18.8173 15.0004 18.4501L16.4504 16.7751L23.7254 24.7501C24.8654 25.9778 26.0757 27.1381 27.3504 28.2251C28.9504 29.6001 30.6504 30.8501 32.3504 32.1001C31.9754 32.5251 31.6004 32.9251 31.2754 33.2251C30.7028 33.7381 30.1835 34.3077 29.7254 34.9251C29.4696 35.2847 29.2908 35.6932 29.2004 36.1251C29.2192 36.8291 29.4358 37.5136 29.8254 38.1001C30.6754 39.5751 32.3254 41.8251 32.9504 42.7501C35.0619 46.4843 37.417 50.0754 40.0004 53.5001C40.9898 54.7379 42.2154 55.7666 43.606 56.5262C44.9966 57.2859 46.5243 57.7614 48.1004 57.9251C50.8108 58.0305 53.4528 57.06 55.4504 55.2251C56.49 54.3635 57.3367 53.2927 57.9354 52.0824C58.534 50.8721 58.8714 49.5493 58.9254 48.2001C58.8716 46.1763 58.2666 44.2055 57.1754 42.5001C56.2223 40.8981 54.9755 39.4901 53.5004 38.3501ZM13.5004 16.9251C13.3504 17.0751 12.8004 17.3001 12.7754 17.5501C12.5934 17.4784 12.4244 17.377 12.2754 17.2501C11.9122 17.0042 11.5841 16.7098 11.3004 16.3751C10.6682 15.6557 10.0836 14.8958 9.55043 14.1001C8.72543 12.8751 7.97543 11.6001 7.20043 10.2751L6.10043 8.20015C6.23032 7.23235 6.73258 6.35339 7.50043 5.75015C7.82111 5.42594 8.21802 5.18739 8.65479 5.05636C9.09157 4.92532 9.55425 4.906 10.0004 5.00015C12.073 5.82025 14.0719 6.81552 15.9754 7.97515C19.2254 9.97515 19.4004 10.4751 18.4754 11.9001C17.8466 12.7214 17.1344 13.4754 16.3504 14.1501L13.5004 16.9251ZM53.5004 53.0751C52.0616 54.3847 50.1701 55.0839 48.2254 55.0251C45.7836 54.756 43.5466 53.5342 42.0004 51.6251C39.4643 48.3689 37.1267 44.9627 35.0004 41.4251L31.3004 36.4251C31.3405 36.1806 31.4538 35.954 31.6254 35.7751C31.9605 35.3317 32.3282 34.9139 32.7254 34.5251C33.7004 33.5251 35.0504 31.5501 36.2004 30.3751C36.5322 29.9908 36.9302 29.6691 37.3754 29.4251C38.0254 29.1251 37.5254 29.4251 39.4754 30.9251C42.2254 33.0501 48.4254 37.0501 51.9754 40.1001C53.2029 41.1466 54.2282 42.4091 55.0004 43.8251C55.7655 45.1373 56.1628 46.6313 56.1504 48.1501C56.071 49.1091 55.7946 50.0414 55.3387 50.8888C54.8827 51.7362 54.2569 52.4805 53.5004 53.0751Z" fill="black"/>
</g>
<defs>
<clipPath id="clip0_169_5085">
<rect width="60" height="60" fill="white"/>
</clipPath>
</defs>
</svg>
