<svg width="60" height="60" viewBox="0 0 60 60" fill="none" xmlns="http://www.w3.org/2000/svg">
<g clip-path="url(#clip0_165_7408)">
<path fill-rule="evenodd" clip-rule="evenodd" d="M23.9252 58.1001C23.2713 58.0506 22.6204 57.9671 21.9752 57.8501C21.6443 57.8052 21.328 57.6855 21.0502 57.5001C20.4316 56.9961 19.9068 56.3867 19.5002 55.7001C19.0728 55.0099 18.7288 54.2714 18.4752 53.5001L16.2002 46.7501L15.3502 43.2501C14.3836 40.415 14.0258 37.4079 14.3002 34.4251C14.4166 33.5713 14.7302 32.7562 15.2162 32.0446C15.7022 31.3329 16.3472 30.7442 17.1002 30.3251C17.6415 30.0314 18.2009 29.7726 18.7752 29.5501C20.2002 29.0001 21.6752 28.6001 23.1752 28.0751C23.9884 27.799 24.8253 27.5982 25.6752 27.4751C27.0502 27.2501 28.4502 27.1501 29.8002 27.0501C32.2708 26.8567 34.7562 27.0849 37.1502 27.7251C39.4887 28.3277 41.6434 29.4952 43.4252 31.1251C43.9323 31.6128 44.4004 32.1394 44.8252 32.7001C45.1705 33.1985 45.4166 33.7587 45.5502 34.3501C45.6109 34.6386 45.6109 34.9366 45.5502 35.2251C45.3752 35.9251 45.1002 36.6501 44.9002 37.2251C44.2752 39.1751 43.3002 44.0001 42.2752 48.0251C41.8873 49.5403 41.42 51.034 40.8752 52.5001C40.4502 53.5751 40.2252 54.7001 39.8502 55.6001C39.7588 55.9086 39.5961 56.1912 39.3752 56.4251C38.8384 56.892 38.1942 57.2184 37.5002 57.3751C36.7336 57.5848 35.9447 57.7023 35.1502 57.7251H35.0002C33.6752 57.9501 32.2752 58.1251 30.8502 58.2251C29.4512 58.2998 28.0492 58.2998 26.6502 58.2251C26.4223 58.2182 26.2006 58.3006 26.0325 58.4547C25.8644 58.6088 25.7631 58.8224 25.7502 59.0501C25.7433 59.2781 25.8257 59.4997 25.9798 59.6678C26.1339 59.8359 26.3475 59.9372 26.5752 59.9501C28.0326 60.0252 29.4928 60.0252 30.9502 59.9501C32.4252 59.9501 33.8502 59.7501 35.2252 59.5751C36.3601 59.5701 37.4883 59.4017 38.5752 59.0751C39.4002 58.8409 40.1611 58.422 40.8002 57.8501C41.242 57.4316 41.5838 56.9189 41.8002 56.3501C42.2002 55.4501 42.4752 54.3251 42.9252 53.2501C43.5118 51.7354 44.0208 50.1917 44.4502 48.6251C45.5502 44.7001 46.6502 39.9751 47.3252 38.0501C47.6715 37.1968 47.9556 36.3195 48.1752 35.4251C48.2741 34.8964 48.2741 34.3539 48.1752 33.8251C48.0155 33.0572 47.746 32.3163 47.3752 31.6251C46.8212 30.7075 46.1488 29.867 45.3752 29.1251C43.2689 27.1211 40.6883 25.6846 37.8752 24.9501C35.1508 24.2013 32.3157 23.939 29.5002 24.1751C28.0432 24.2606 26.5913 24.4191 25.1502 24.6501C24.1293 24.8192 23.1253 25.0786 22.1502 25.4251C20.8752 25.9001 19.6502 26.2751 18.3502 26.7501C17.4429 27.0952 16.565 27.5133 15.7252 28.0001C14.6377 28.6246 13.7146 29.4991 13.0321 30.5511C12.3496 31.6031 11.9273 32.8025 11.8002 34.0501C11.5714 37.381 12.0572 40.7223 13.2252 43.8501L14.2502 47.2501L16.7502 54.0251C17.0689 54.9085 17.4973 55.7484 18.0252 56.5251C18.5652 57.3499 19.2415 58.0769 20.0252 58.6751C20.3841 58.9374 20.7922 59.1245 21.2252 59.2251C22.048 59.3988 22.8846 59.4992 23.7252 59.5251C23.8224 59.5391 23.9215 59.5332 24.0163 59.5077C24.1112 59.4822 24.1999 59.4378 24.277 59.377C24.3542 59.3162 24.4182 59.2404 24.4651 59.1541C24.5121 59.0678 24.541 58.9729 24.5502 58.8751C24.5588 58.6919 24.5 58.5118 24.3848 58.369C24.2697 58.2261 24.1061 58.1305 23.9252 58.1001Z" fill="black"/>
<path fill-rule="evenodd" clip-rule="evenodd" d="M22.0005 36.375C22.1128 36.4685 22.2543 36.5197 22.4005 36.5197C22.5467 36.5197 22.6882 36.4685 22.8005 36.375C22.6798 36.4477 22.5415 36.4862 22.4005 36.4862C22.2595 36.4862 22.1212 36.4477 22.0005 36.375ZM34.5005 36.625C34.201 36.6004 33.9 36.6004 33.6005 36.625H31.1005L27.5005 36.375H24.8505H23.2505L23.4005 38.175L24.0005 43.425L24.3005 45.925C24.3308 46.2341 24.4547 46.5267 24.6557 46.7634C24.8568 47.0002 25.1253 47.17 25.4255 47.25C26.8247 47.5833 28.2638 47.7179 29.7005 47.65C30.2255 47.65 30.9755 47.825 31.7255 47.875C32.4755 47.925 32.6005 47.875 32.8505 47.875L33.4255 46.6C33.8099 45.7549 34.0467 44.8501 34.1255 43.925C34.3255 42.3 34.2755 40.575 34.4505 38.925L34.5005 36.625ZM23.3505 34.725C23.0433 34.7111 22.7414 34.8088 22.5005 35H22.3255C22.1593 35.0228 22.0062 35.1026 21.8922 35.2257C21.7783 35.3487 21.7105 35.5075 21.7005 35.675C21.6754 35.9578 21.6754 36.2422 21.7005 36.525V38.4L21.9005 43.65V46.3C21.9263 47.0556 22.1784 47.786 22.6242 48.3967C23.0699 49.0073 23.6887 49.4701 24.4005 49.725C26.0158 50.2581 27.7002 50.5529 29.4005 50.6C30.4337 50.7739 31.478 50.8742 32.5255 50.9C33.207 50.908 33.8761 50.7168 34.4505 50.35C34.8024 50.115 35.1006 49.8083 35.3255 49.45C35.5766 48.9707 35.8019 48.4783 36.0005 47.975C36.4217 47.098 36.7083 46.1625 36.8505 45.2C37.1505 43.275 36.8505 41.2 37.0755 39.3V36.55C37.0449 36.1277 36.9435 35.7136 36.7755 35.325C36.6866 35.1282 36.5589 34.9515 36.3999 34.8054C36.2409 34.6593 36.054 34.5469 35.8505 34.475C35.1674 34.2824 34.4601 34.1898 33.7505 34.2C32.8221 34.2242 31.8957 34.2994 30.9755 34.425H27.5005L24.8505 34.675L23.3505 34.725Z" fill="black"/>
<path fill-rule="evenodd" clip-rule="evenodd" d="M14.7004 43.3252C14.771 43.3609 14.8339 43.4102 14.8853 43.4702C14.9368 43.5303 14.9759 43.6 15.0004 43.6752C14.9926 43.593 14.9596 43.5153 14.9059 43.4526C14.8522 43.39 14.7804 43.3455 14.7004 43.3252ZM15.0004 44.0752C15.0004 44.0752 15.3254 43.7002 15.3754 43.6252L16.4504 43.1502C16.7698 42.9565 17.1286 42.8369 17.5004 42.8002C18.1153 42.7454 18.7253 42.6451 19.3254 42.5002C19.451 42.5216 19.5797 42.5154 19.7026 42.482C19.8255 42.4485 19.9396 42.3886 20.037 42.3065C20.1343 42.2244 20.2126 42.1219 20.2663 42.0064C20.32 41.8909 20.3478 41.7651 20.3478 41.6377C20.3478 41.5103 20.32 41.3845 20.2663 41.269C20.2126 41.1534 20.1343 41.051 20.037 40.9689C19.9396 40.8868 19.8255 40.8269 19.7026 40.7934C19.5797 40.76 19.451 40.7537 19.3254 40.7752C18.5151 40.4663 17.6783 40.232 16.8254 40.0752C16.3205 40.1119 15.8277 40.2478 15.3754 40.4752C15.0162 40.6767 14.7016 40.9488 14.4504 41.2752C14.1097 41.7052 13.8781 42.2113 13.7754 42.7502C13.7179 43.031 13.6762 43.3147 13.6504 43.6002C13.6504 44.4002 14.1004 44.6502 14.3004 44.6252C14.4616 44.6244 14.618 44.5699 14.7447 44.4703C14.8715 44.3707 14.9615 44.2316 15.0004 44.0752Z" fill="black"/>
<path fill-rule="evenodd" clip-rule="evenodd" d="M40.4755 40.6751C40.5552 40.6924 40.6282 40.7323 40.6858 40.7899C40.7434 40.8475 40.7832 40.9205 40.8005 41.0001V40.8251L40.4755 40.6751ZM44.4255 39.5001C44.2505 39.3501 44.0255 39.8001 43.9005 39.9001C43.7755 40.0001 43.6255 39.9001 43.5255 40.0501C43.4255 40.2001 43.1755 40.0501 42.9755 40.0501C42.651 40.075 42.3251 40.075 42.0005 40.0501C41.7678 40.027 41.5333 40.027 41.3005 40.0501C40.9858 40.084 40.6804 40.1773 40.4005 40.3251C40.4005 40.3251 39.9005 40.4751 39.9755 40.6001C39.8645 40.6241 39.7613 40.6757 39.6755 40.7501C39.3505 40.9251 39.4255 41.2251 39.3755 41.3001C39.3255 41.3751 39.3755 41.7251 39.6505 41.9251C39.9255 42.1251 39.9255 42.0751 40.2755 42.1251H40.8755L41.3505 42.4251C41.6612 42.6092 41.9986 42.7442 42.3505 42.8251C42.7697 42.925 43.2064 42.925 43.6255 42.8251C44.0757 42.7286 44.4964 42.5264 44.8528 42.2352C45.2093 41.9439 45.4913 41.572 45.6755 41.1501C45.856 40.8346 45.9987 40.499 46.1005 40.1501C46.1462 39.9611 46.1462 39.7641 46.1005 39.5751C46.1005 39.3497 46.011 39.1335 45.8516 38.9741C45.6922 38.8147 45.476 38.7251 45.2505 38.7251C45.0419 38.7304 44.8424 38.8124 44.6903 38.9553C44.5381 39.0982 44.4439 39.2922 44.4255 39.5001Z" fill="black"/>
<path fill-rule="evenodd" clip-rule="evenodd" d="M36.775 25.1751C36.525 24.9501 36.775 24.7501 36.775 25.6001C36.7491 25.4596 36.7491 25.3156 36.775 25.1751ZM22.7 26.2751C22.7 26.4501 22.7 26.5501 22.9 26.5501C22.8651 26.4509 22.8144 26.3581 22.75 26.2751H22.7ZM22.9 26.5501C23.2 26.5501 23.025 26.4001 22.75 26.2751C22.8256 25.7418 22.9426 25.2152 23.1 24.7001C23.1309 23.7949 23.2228 22.8929 23.375 22.0001C23.6 20.5751 23.925 19.1751 24.175 17.8001L24.575 14.1501L25 11.6501C25.1769 9.45628 25.6133 7.29118 26.3 5.2001C26.4431 4.69191 26.7246 4.23348 27.1131 3.87592C27.5015 3.51836 27.9817 3.27574 28.5 3.1751L30 2.9001C30.7 3.1251 31.75 3.2001 32.675 3.4251C32.9799 3.448 33.2732 3.55153 33.525 3.7251C33.6863 3.95786 33.797 4.22188 33.85 4.5001C34.05 5.3501 34.175 6.2751 34.3 6.8501C34.5941 7.83492 34.8279 8.83679 35 9.8501C35.325 12.3501 35.425 14.8501 35.725 17.3501C35.9 18.6501 36.2 20.0001 36.375 21.3251C36.4538 21.8549 36.4956 22.3895 36.5 22.9251L36.675 24.8751C36.6953 25.1859 36.7371 25.495 36.8 25.8001V26.0251C36.8357 26.1295 36.8927 26.2255 36.9673 26.3068C37.0419 26.3882 37.1326 26.4532 37.2335 26.4978C37.3345 26.5424 37.4436 26.5657 37.554 26.5661C37.6644 26.5664 37.7737 26.544 37.875 26.5001C38.0553 26.4539 38.214 26.3462 38.3235 26.1956C38.433 26.045 38.4866 25.861 38.475 25.6751C38.475 25.6751 38.475 25.5251 38.475 25.4751V24.8751V22.9251C38.5124 22.3257 38.5124 21.7245 38.475 21.1251C38.475 19.7751 38.15 18.4251 38.075 17.1501C37.875 14.6501 37.925 12.1501 37.725 9.6501C37.6381 8.53413 37.4879 7.42401 37.275 6.3251C37.1605 5.35015 36.9936 4.38207 36.775 3.4251C36.6149 2.80958 36.3058 2.24291 35.875 1.7751C35.3114 1.24741 34.6089 0.891781 33.85 0.7501C32.9 0.4501 31.7 0.4001 30.95 0.1501C30.5633 0.023679 30.1559 -0.0272445 29.75 9.9625e-05C29.15 9.9625e-05 28.5 0.2001 28.05 0.2501C27.268 0.349856 26.5191 0.626944 25.8606 1.06021C25.202 1.49348 24.6511 2.07148 24.25 2.7501C23.0976 5.45342 22.5024 8.36142 22.5 11.3001L22.25 13.8001L22.05 17.5001C21.9 18.9001 21.675 20.3251 21.55 21.7501C21.4389 22.7294 21.3888 23.7146 21.4 24.7001V26.6751C21.3991 26.7989 21.4246 26.9215 21.4747 27.0348C21.5248 27.148 21.5984 27.2493 21.6905 27.332C21.7827 27.4148 21.8913 27.477 22.0093 27.5145C22.1273 27.5521 22.2519 27.5643 22.375 27.5501C22.566 27.508 22.733 27.393 22.8404 27.2295C22.9478 27.0661 22.9871 26.8671 22.95 26.6751C22.95 26.6751 22.925 26.5751 22.9 26.5501Z" fill="black"/>
</g>
<defs>
<clipPath id="clip0_165_7408">
<rect width="60" height="60" fill="white"/>
</clipPath>
</defs>
</svg>
