<svg width="60" height="60" viewBox="0 0 60 60" fill="none" xmlns="http://www.w3.org/2000/svg">
<g clip-path="url(#clip0_165_7155)">
<path d="M53.9498 21.4251C53.9126 20.9705 53.777 20.5293 53.5526 20.1322C53.3281 19.7351 53.0201 19.3915 52.6498 19.1251C51.6266 18.6492 50.5014 18.4345 49.3748 18.5001C47.1498 18.5001 44.3748 19.0001 42.9748 18.9501H41.3748C41.6748 17.1001 42.3498 13.9501 42.5998 11.8001C42.834 10.8763 42.7993 9.90482 42.4998 9.00009C42.8251 7.61074 42.7303 6.15605 42.2273 4.8207C41.7243 3.48535 40.8359 2.32957 39.6748 1.50009C38.4024 0.478154 36.8059 -0.0540092 35.1748 9.17862e-05C33.6396 0.123413 32.201 0.798332 31.1248 1.90009C30.3527 2.69981 29.8313 3.70784 29.6248 4.80009C29.4501 6.21137 29.4501 7.63881 29.6248 9.05009C29.6023 9.14883 29.6023 9.25136 29.6248 9.35009C29.5836 9.34131 29.541 9.34131 29.4998 9.35009C29.3314 10.1749 29.3314 11.0253 29.4998 11.8501C29.8724 13.9658 30.3564 16.0604 30.9498 18.1251C29.0248 18.1251 27.0748 17.9501 25.1498 17.9251H24.9998C25.1498 16.5501 25.3748 15.0751 25.4998 13.5501C25.5122 13.4421 25.5122 13.3331 25.4998 13.2251V11.1251C25.5706 9.37431 25.2725 7.62822 24.6248 6.00009C24.2332 5.05917 23.5986 4.23922 22.7859 3.62422C21.9733 3.00922 21.0117 2.62127 19.9998 2.50009C19.2626 2.48064 18.5335 2.658 17.8875 3.01392C17.2416 3.36984 16.7022 3.89146 16.3248 4.52509C15.7665 5.4374 15.3849 6.44663 15.1998 7.50009C15.1998 7.50009 15.1998 7.77509 15.1998 7.92509H14.9998C14.584 7.88782 14.1656 7.88782 13.7498 7.92509C12.5188 8.01318 11.3501 8.50014 10.4208 9.31217C9.49147 10.1242 8.85218 11.2171 8.59981 12.4251C8.18766 14.0599 8.11955 15.7626 8.3998 17.4251C8.3998 18.1501 8.6498 18.8251 8.7998 19.5001C8.36503 19.4764 7.92897 19.5016 7.4998 19.5751C7.06258 19.716 6.69016 20.0086 6.4498 20.4001C6.12367 21.0978 5.94495 21.8552 5.9248 22.6251C5.9248 24.1751 6.07481 26.0251 6.09981 27.0501C6.09981 29.7751 6.2748 32.4501 6.4498 35.1501C6.4498 35.1501 6.9498 41.7251 7.0998 43.7501C7.11688 44.1359 7.27736 44.5014 7.5498 44.7751C8.4498 45.7501 9.39981 46.6501 10.3748 47.5501C12.0248 49.1001 13.7748 50.5501 15.3748 52.0001C17.7808 54.1563 20.365 56.105 23.0998 57.8251C25.0734 59.01 27.2844 59.7441 29.5748 59.9751C31.0204 60.0667 32.4674 59.8184 33.7998 59.2501C35.5872 58.4255 37.2664 57.3843 38.7998 56.1501C40.8458 54.5991 42.7991 52.9295 44.6498 51.1501C44.8998 50.9251 52.7998 44.0001 52.8748 43.0751C52.8748 41.3251 52.8748 39.6001 53.0748 37.8501C53.2998 33.7751 53.6498 29.7001 53.8748 25.6251C54.0386 24.231 54.0637 22.8241 53.9498 21.4251ZM36.6998 18.6751C36.7253 18.5683 36.7253 18.4569 36.6998 18.3501C36.6998 17.3751 36.9998 16.4251 37.1248 15.4501C37.1497 15.0255 37.1497 14.5997 37.1248 14.1751C37.1617 13.7592 37.1617 13.3409 37.1248 12.9251C37.1248 12.1251 36.8498 11.3751 36.6748 10.6001H38.7748H40.4248C40.4248 11.2501 40.1498 12.4751 40.0748 13.4251C39.9248 15.3001 39.6998 17.4001 39.6248 18.7501C38.6998 18.7751 37.6998 18.7501 36.6998 18.6751ZM31.6998 5.35009C31.9421 4.70119 32.3677 4.13665 32.9248 3.72509C33.6277 3.12961 34.5051 2.77866 35.4248 2.72509C36.3883 2.65275 37.3522 2.86116 38.1998 3.32509C39.0229 3.82467 39.692 4.54198 40.1332 5.39783C40.5743 6.25369 40.7704 7.21481 40.6998 8.17509H38.9498C37.6748 8.17509 36.4498 7.97509 35.1248 7.97509C34.2492 7.92967 33.3714 7.95475 32.4998 8.05009C32.0428 8.11532 31.5914 8.21562 31.1498 8.35009C31.1622 7.336 31.3051 6.32773 31.5748 5.35009H31.6998ZM32.1998 14.6751C32.0498 13.4751 31.9748 12.1751 31.9498 11.4251V10.8001C32.6998 10.8001 34.4498 10.5501 35.1748 10.5501C35.0248 11.3501 34.8248 12.1001 34.7248 12.9001C34.6999 13.3247 34.6999 13.7505 34.7248 14.1751V15.4501C34.8498 16.4501 35.0498 17.4001 35.2498 18.4001V18.6001L32.7498 18.4501C32.4998 17.5001 32.2248 16.0251 32.0748 14.6751H32.1998ZM17.4998 18.5001H17.2998C17.2998 17.1751 17.1498 16.0001 17.0998 14.5501V14.1001C17.8998 14.1001 18.6748 14.2501 19.5998 14.2751C20.5248 14.3001 20.8998 14.2751 21.5748 14.2751H23.5498C23.5498 15.6501 23.5498 17.0001 23.3998 18.2251C21.3248 18.2501 19.3998 18.3251 17.4998 18.5001ZM17.4998 8.50009C17.6751 7.6037 18.0324 6.75281 18.5498 6.00009C18.7132 5.68709 18.977 5.43805 19.2989 5.29297C19.6208 5.1479 19.9821 5.11518 20.3248 5.20009C21.1939 5.51764 21.9032 6.16414 22.2998 7.00009C22.9545 8.33376 23.3207 9.7904 23.3748 11.2751V12.0501C22.8194 11.8539 22.2515 11.6952 21.6748 11.5751C20.7307 11.425 19.7689 11.425 18.8248 11.5751C18.2239 11.7069 17.6312 11.8738 17.0498 12.0751V11.4251C17.1079 10.4628 17.2586 9.50842 17.4998 8.57509V8.50009ZM11.2498 12.9501C11.3362 12.1705 11.6649 11.4377 12.1896 10.8547C12.7143 10.2717 13.4086 9.86787 14.1748 9.70009L14.9998 9.55009V11.5001C14.9998 12.3251 14.9998 13.1251 15.2248 14.0001C15.3998 15.5751 15.6748 17.1501 15.8748 18.7251L11.2998 19.1001V17.0251C11.1119 15.6743 11.0951 14.3051 11.2498 12.9501ZM43.2748 49.6001C41.4309 51.2014 39.5032 52.7035 37.4998 54.1001C36.1036 55.1489 34.5942 56.0378 32.9998 56.7501C32.0618 57.1519 31.0437 57.3315 30.0248 57.2751C28.1058 57.0791 26.2492 56.4829 24.5748 55.5251C21.8952 53.9871 19.3302 52.2576 16.8998 50.3501C15.1248 49.0501 13.3248 47.7251 11.5748 46.3001C10.4998 45.4251 9.47481 44.5001 8.49981 43.5501C8.49981 42.4251 8.4998 40.2001 8.2498 35.0751V27.0501V23.3751C8.33074 22.7421 8.45605 22.1155 8.62481 21.5001C8.957 21.4612 9.29261 21.4612 9.6248 21.5001L10.3748 24.6751C10.3879 24.767 10.419 24.8555 10.4664 24.9354C10.5137 25.0153 10.5763 25.0851 10.6505 25.1408C10.7248 25.1965 10.8094 25.237 10.8993 25.2601C10.9893 25.2831 11.0829 25.2882 11.1748 25.2751C11.2667 25.262 11.3552 25.2308 11.4351 25.1835C11.515 25.1362 11.5848 25.0736 11.6405 24.9994C11.6962 24.9251 11.7367 24.8405 11.7598 24.7506C11.7828 24.6606 11.7879 24.567 11.7748 24.4751L11.3998 21.4251L17.7248 21.1001C20.2194 20.899 22.7226 20.8239 25.2248 20.8751C31.1248 20.8751 37.0748 21.4251 42.9498 21.5001C44.4248 21.5001 47.1748 20.9501 49.4248 20.8751C50.1429 20.7992 50.8689 20.8846 51.5498 21.1251C51.6748 21.1251 51.6748 21.4001 51.7248 21.6001C51.804 21.9959 51.8541 22.397 51.8748 22.8001V25.5751C51.7498 29.6751 51.5498 33.7501 51.4248 37.8251V42.1501C48.6748 44.7001 46.0498 47.2251 43.2748 49.6001Z" fill="black"/>
<path d="M12.5 35.0001C12.6065 34.9941 12.7106 34.9662 12.8058 34.9182C12.901 34.8701 12.9853 34.8029 13.0534 34.7208C13.1214 34.6386 13.1718 34.5433 13.2013 34.4408C13.2308 34.3383 13.2389 34.2308 13.225 34.1251C13.225 33.5501 13.525 33.0501 13.625 32.4501C13.6492 32.2174 13.6492 31.9828 13.625 31.7501C13.6374 31.5086 13.6374 31.2666 13.625 31.0251C13.625 30.4001 13.3 29.9001 13.175 29.2751C13.1618 29.1039 13.0883 28.9429 12.9675 28.8208C12.8467 28.6987 12.6865 28.6235 12.5155 28.6085C12.3444 28.5935 12.1736 28.6397 12.0334 28.7389C11.8932 28.838 11.7928 28.9838 11.75 29.1501C11.4654 29.7116 11.2311 30.2972 11.05 30.9001C11.012 31.157 11.012 31.4181 11.05 31.6751C11.0241 31.9328 11.0241 32.1924 11.05 32.4501C11.1837 33.0723 11.3676 33.6826 11.6 34.2751C11.6056 34.384 11.6341 34.4906 11.6837 34.5877C11.7333 34.6849 11.8028 34.7705 11.8878 34.8389C11.9727 34.9074 12.0712 34.9571 12.1767 34.9849C12.2822 35.0126 12.3923 35.0178 12.5 35.0001Z" fill="black"/>
<path d="M14.075 40.7C14.0995 40.3504 14.0995 39.9996 14.075 39.65C14.075 38.925 13.675 38.3 13.55 37.6C13.5697 37.4953 13.5661 37.3875 13.5394 37.2843C13.5127 37.1812 13.4636 37.0852 13.3955 37.0031C13.3275 36.9211 13.2422 36.8551 13.1458 36.8098C13.0493 36.7645 12.9441 36.741 12.8375 36.741C12.7309 36.741 12.6257 36.7645 12.5292 36.8098C12.4328 36.8551 12.3475 36.9211 12.2795 37.0031C12.2114 37.0852 12.1623 37.1812 12.1356 37.2843C12.1089 37.3875 12.1053 37.4953 12.125 37.6C11.8368 38.2437 11.6108 38.9134 11.45 39.6C11.4125 39.9156 11.4125 40.2345 11.45 40.55C11.4917 40.8871 11.5844 41.2158 11.725 41.525C12.0424 42.2837 12.5719 42.9347 13.25 43.4C13.3224 43.4764 13.4096 43.5373 13.5064 43.5789C13.6031 43.6204 13.7072 43.6419 13.8125 43.6419C13.9178 43.6419 14.0219 43.6204 14.1187 43.5789C14.2154 43.5373 14.3026 43.4764 14.375 43.4C14.5247 43.246 14.6084 43.0398 14.6084 42.825C14.6084 42.6103 14.5247 42.404 14.375 42.25C14.1802 41.7563 14.0785 41.2308 14.075 40.7Z" fill="black"/>
<path d="M22.7499 48.9501C22.2999 48.5001 21.9499 48.0251 21.4999 47.6001L20.9249 47.1001C20.7112 46.9485 20.4855 46.8147 20.2499 46.7001C19.6446 46.4873 19.0267 46.312 18.3999 46.1751C18.2441 46.0724 18.0538 46.0357 17.871 46.0732C17.6881 46.1107 17.5277 46.2193 17.4249 46.3751C17.3221 46.5309 17.2854 46.7212 17.323 46.904C17.3605 47.0869 17.4691 47.2474 17.6249 47.3501C17.9887 47.8633 18.381 48.3557 18.7999 48.8251C18.9764 49.0181 19.1783 49.1863 19.3999 49.3251C19.6163 49.4794 19.8516 49.6054 20.0999 49.7001C20.6999 49.9501 21.2749 50.1251 21.8999 50.3251C22.0822 50.4378 22.3019 50.4735 22.5105 50.4243C22.7191 50.3751 22.8997 50.245 23.0124 50.0626C23.1251 49.8803 23.1608 49.6606 23.1115 49.452C23.0623 49.2434 22.9322 49.0628 22.7499 48.9501Z" fill="black"/>
<path d="M34.1997 51.0251C33.2421 51.4529 32.1974 51.6498 31.1497 51.6001C30.5624 51.5927 29.9769 51.5341 29.3997 51.4251C28.3785 51.2818 27.3737 51.039 26.3997 50.7001C26.3197 50.651 26.2306 50.6184 26.1378 50.6043C26.0449 50.5903 25.9502 50.595 25.8592 50.6184C25.7682 50.6417 25.6829 50.6831 25.6082 50.7401C25.5336 50.7971 25.4712 50.8685 25.4247 50.9501C25.3333 51.1096 25.3083 51.2986 25.3551 51.4764C25.4019 51.6541 25.5167 51.8063 25.6747 51.9001C26.5301 52.7203 27.5193 53.3883 28.5997 53.8751C29.1008 54.0849 29.6328 54.2115 30.1747 54.2501C30.736 54.3094 31.3034 54.267 31.8497 54.1251C33.0287 53.7992 34.1102 53.1898 34.9997 52.3501C35.1013 52.2998 35.191 52.2284 35.2629 52.1408C35.3348 52.0531 35.3872 51.9512 35.4167 51.8417C35.4463 51.7323 35.4522 51.6178 35.4341 51.5059C35.416 51.394 35.3744 51.2872 35.3119 51.1926C35.2494 51.098 35.1676 51.0177 35.0717 50.9571C34.9759 50.8966 34.8683 50.8571 34.756 50.8412C34.6438 50.8254 34.5294 50.8336 34.4206 50.8653C34.3118 50.897 34.2109 50.9515 34.1247 51.0251H34.1997Z" fill="black"/>
<path d="M41.8494 45.1502C41.3277 45.2838 40.8177 45.4594 40.3244 45.6752C40.119 45.7676 39.9258 45.8852 39.7494 46.0252C39.5732 46.1552 39.4137 46.3063 39.2744 46.4752C38.9839 46.9107 38.7168 47.3613 38.4744 47.8252C38.3279 47.9431 38.233 48.1134 38.2097 48.2999C38.1864 48.4865 38.2365 48.6748 38.3494 48.8252C38.4124 48.891 38.488 48.9433 38.5718 48.9791C38.6556 49.0149 38.7458 49.0333 38.8369 49.0333C38.928 49.0333 39.0181 49.0149 39.1019 48.9791C39.1857 48.9433 39.2614 48.891 39.3244 48.8252C39.8523 48.7172 40.3707 48.5667 40.8744 48.3752C41.0667 48.2733 41.2506 48.1563 41.4244 48.0252L41.8744 47.5752C42.1994 47.1502 42.4244 46.7502 42.7494 46.3252C42.8372 46.2652 42.9122 46.1882 42.97 46.0988C43.0277 46.0095 43.067 45.9095 43.0857 45.8047C43.1043 45.6999 43.1018 45.5925 43.0784 45.4887C43.055 45.3849 43.0111 45.2868 42.9494 45.2002C42.8807 45.1243 42.7976 45.0627 42.705 45.019C42.6124 44.9754 42.5121 44.9505 42.4098 44.9459C42.3075 44.9412 42.2053 44.9569 42.1091 44.9919C42.0129 45.027 41.9246 45.0808 41.8494 45.1502Z" fill="black"/>
<path d="M48.9751 36.6752C48.9438 36.5091 48.8555 36.3591 48.7254 36.2512C48.5953 36.1433 48.4316 36.0842 48.2626 36.0842C48.0936 36.0842 47.9299 36.1433 47.7998 36.2512C47.6697 36.3591 47.5813 36.5091 47.5501 36.6752C47.3714 37.3946 47.1544 38.1039 46.9001 38.8002C46.9001 39.1002 46.7501 39.4252 46.6751 39.7502C46.66 40.0714 46.6097 40.3899 46.5251 40.7002C46.4437 41.0244 46.3174 41.3358 46.1501 41.6252C46.002 41.7749 45.9189 41.9771 45.9189 42.1877C45.9189 42.3983 46.002 42.6004 46.1501 42.7502C46.3028 42.8925 46.5038 42.9717 46.7126 42.9717C46.9214 42.9717 47.1224 42.8925 47.2751 42.7502C47.9854 42.2752 48.5759 41.6419 49.0001 40.9002C49.174 40.5757 49.3083 40.2316 49.4001 39.8752C49.4508 39.5354 49.4508 39.19 49.4001 38.8502C49.363 38.1086 49.2199 37.3762 48.9751 36.6752Z" fill="black"/>
<path d="M47.8753 27.6751C47.7833 27.6814 47.6934 27.7059 47.6109 27.7471C47.5284 27.7882 47.4548 27.8453 47.3944 27.915C47.334 27.9847 47.288 28.0656 47.2589 28.1532C47.2299 28.2407 47.2185 28.3331 47.2253 28.4251C47.0097 28.9591 46.8424 29.5113 46.7253 30.0751C46.6879 30.3069 46.6879 30.5433 46.7253 30.7751C46.7426 31.0039 46.7845 31.2302 46.8503 31.4501C46.9753 32.0251 47.2003 32.4751 47.3753 33.0251C47.3753 33.2373 47.4596 33.4408 47.6096 33.5908C47.7596 33.7408 47.9631 33.8251 48.1753 33.8251C48.3897 33.8186 48.5932 33.7288 48.7425 33.5748C48.8919 33.4208 48.9754 33.2146 48.9753 33.0001C49.1253 32.4251 49.2753 31.9251 49.3753 31.3251C49.3886 31.0919 49.3886 30.8582 49.3753 30.6251C49.3995 30.3924 49.3995 30.1578 49.3753 29.9251C49.2003 29.3501 48.9253 28.9001 48.7003 28.3501C48.6983 28.2487 48.6743 28.149 48.63 28.0579C48.5857 27.9667 48.5221 27.8862 48.4437 27.822C48.3652 27.7579 48.2738 27.7115 48.1756 27.6861C48.0775 27.6607 47.975 27.657 47.8753 27.6751Z" fill="black"/>
<path d="M47.4994 26.2251C47.6669 26.292 47.8537 26.2916 48.021 26.2241C48.1882 26.1566 48.3229 26.0272 48.3971 25.8628C48.4712 25.6984 48.4791 25.5117 48.4189 25.3417C48.3588 25.1716 48.2354 25.0314 48.0744 24.9501C47.4626 24.4007 46.7607 23.9609 45.9994 23.6501C45.6779 23.5297 45.3415 23.454 44.9994 23.4251C44.6504 23.3882 44.2984 23.3882 43.9494 23.4251C43.1812 23.5491 42.4274 23.7501 41.6994 24.0251C41.5943 24.0382 41.4929 24.0719 41.4009 24.1243C41.3088 24.1766 41.228 24.2466 41.163 24.3301C41.098 24.4137 41.0501 24.5093 41.022 24.6113C40.9939 24.7134 40.9863 24.82 40.9994 24.9251C41.0125 25.0302 41.0462 25.1316 41.0986 25.2236C41.1509 25.3157 41.2208 25.3965 41.3044 25.4615C41.388 25.5265 41.4835 25.5744 41.5856 25.6025C41.6877 25.6305 41.7943 25.6382 41.8994 25.6251C42.8495 25.7165 43.7929 25.8668 44.7244 26.0751H45.5244C46.1854 26.0785 46.8454 26.1286 47.4994 26.2251Z" fill="black"/>
<path d="M21.1746 26.05C21.2893 26.031 21.3986 25.9871 21.4946 25.9214C21.5907 25.8558 21.6712 25.77 21.7307 25.6701C21.7902 25.5701 21.8272 25.4584 21.8391 25.3427C21.851 25.2269 21.8375 25.11 21.7996 25C21.7817 24.8974 21.7433 24.7994 21.6867 24.7119C21.63 24.6244 21.5563 24.5492 21.47 24.4909C21.3836 24.4325 21.2864 24.3922 21.1841 24.3723C21.0818 24.3524 20.9765 24.3533 20.8746 24.375C20.0246 24.375 19.3246 24.15 18.5496 24.125C17.9595 24.1034 17.3696 24.1708 16.7996 24.325C15.7942 24.6536 14.9189 25.2926 14.2996 26.15C14.2147 26.2008 14.1415 26.269 14.0849 26.3502C14.0283 26.4313 13.9896 26.5235 13.9712 26.6207C13.9528 26.7179 13.9552 26.8179 13.9783 26.9141C14.0014 27.0103 14.0446 27.1005 14.1051 27.1788C14.1656 27.257 14.242 27.3216 14.3292 27.3682C14.4165 27.4148 14.5126 27.4424 14.6113 27.4491C14.71 27.4559 14.809 27.4416 14.9018 27.4073C14.9946 27.373 15.079 27.3194 15.1496 27.25C15.805 27.0457 16.4881 26.9445 17.1746 26.95L18.5246 26.75C19.4285 26.6032 20.316 26.3687 21.1746 26.05Z" fill="black"/>
<path d="M35.3503 23.9501C34.3503 23.8251 33.4253 23.6251 32.4503 23.5251H31.2003H29.9253C28.9322 23.6984 27.9542 23.9491 27.0003 24.2751C26.8148 24.2999 26.6452 24.3932 26.525 24.5366C26.4047 24.68 26.3424 24.8632 26.3503 25.0501C26.3693 25.2381 26.4609 25.4112 26.6057 25.5326C26.7504 25.654 26.9369 25.7141 27.1253 25.7001C28.1003 25.7001 29.0253 26.0001 30.0003 26.1001C30.4082 26.1252 30.8173 26.1252 31.2253 26.1001H32.4503C33.4503 25.9751 34.4003 25.7751 35.3753 25.6001C35.4792 25.6002 35.5821 25.5794 35.6777 25.5389C35.7734 25.4984 35.86 25.439 35.9323 25.3644C36.0046 25.2898 36.0612 25.2013 36.0986 25.1044C36.1361 25.0075 36.1536 24.904 36.1503 24.8001C36.1571 24.691 36.1415 24.5815 36.1044 24.4786C36.0672 24.3757 36.0094 24.2815 35.9344 24.2019C35.8594 24.1222 35.7689 24.0587 35.6684 24.0155C35.568 23.9722 35.4597 23.9499 35.3503 23.9501Z" fill="black"/>
</g>
<defs>
<clipPath id="clip0_165_7155">
<rect width="60" height="60" fill="white"/>
</clipPath>
</defs>
</svg>
