<svg width="60" height="60" viewBox="0 0 60 60" fill="none" xmlns="http://www.w3.org/2000/svg">
<g clip-path="url(#clip0_166_4911)">
<path fill-rule="evenodd" clip-rule="evenodd" d="M46.7245 23.8501C41.0958 19.8177 35.0124 16.4613 28.5995 13.8501L27.7245 13.4751L23.9995 11.7751C23.901 11.7226 23.7932 11.69 23.6821 11.6791C23.571 11.6683 23.4588 11.6794 23.352 11.7119C23.2453 11.7444 23.1459 11.7976 23.0597 11.8685C22.9735 11.9394 22.9021 12.0266 22.8495 12.1251C22.7434 12.324 22.7207 12.5569 22.7864 12.7726C22.852 12.9883 23.0006 13.169 23.1995 13.2751C26.1995 15.0001 29.7245 17.5001 33.4995 19.5251C35.5745 20.7001 37.7245 21.8251 39.8245 22.9251C43.2495 24.7251 46.5495 26.4001 49.1995 28.1001C49.3863 28.1612 49.5877 28.1612 49.7745 28.1001C47.3252 34.825 44.1036 41.243 40.1745 47.2251C37.5151 50.9993 33.888 53.9873 29.6745 55.8751C27.4752 56.6148 25.1424 56.8726 22.8346 56.631C20.5268 56.3894 18.298 55.6542 16.2995 54.4751C14.209 53.5296 12.3911 52.0714 11.0144 50.2358C9.63772 48.4003 8.74689 46.2468 8.42453 43.9751C8.12796 39.2486 9.12172 34.5304 11.2995 30.3251C14.4745 23.5751 19.4245 17.1501 22.4995 11.2001C22.6023 11.0045 22.6232 10.7761 22.5575 10.5651C22.4919 10.3541 22.3451 10.1779 22.1495 10.0751C21.9539 9.97233 21.7255 9.95146 21.5145 10.0171C21.3036 10.0827 21.1273 10.2295 21.0245 10.4251C17.6745 16.2751 12.4995 22.5001 8.99953 29.3251C6.44357 33.9019 5.17369 39.0851 5.32453 44.3251C5.64413 47.1452 6.68037 49.8365 8.33454 52.1427C9.98872 54.4489 12.2058 56.2933 14.7745 57.5001C17.2108 58.876 19.9174 59.7049 22.7063 59.9294C25.4952 60.1539 28.2996 59.7685 30.9245 58.8001C35.548 56.5527 39.4782 53.0975 42.2995 48.8001C46.1529 42.5138 49.2653 35.8025 51.5745 28.8001C51.627 28.6842 51.655 28.5586 51.6567 28.4314C51.6584 28.3042 51.6339 28.1779 51.5846 28.0606C51.5353 27.9433 51.4624 27.8374 51.3703 27.7496C51.2782 27.6617 51.169 27.5938 51.0495 27.5501C50.9036 27.5006 50.7454 27.5006 50.5995 27.5501C50.6841 27.3585 50.703 27.1443 50.6533 26.9408C50.6035 26.7374 50.488 26.5561 50.3245 26.4251C49.6245 25.8751 48.7745 25.2751 47.9995 24.7001L46.7245 23.8501Z" fill="black"/>
<path fill-rule="evenodd" clip-rule="evenodd" d="M36.5493 8.02489C36.3771 8.15635 36.2397 8.32803 36.1493 8.52489C36.0489 8.71441 35.9732 8.91607 35.9243 9.12489C35.3743 11.4749 35.9243 11.7999 36.2493 11.9749C36.5743 12.1499 37.0743 11.9749 38.5743 10.5999C38.7131 10.471 38.8387 10.3287 38.9493 10.1749C39.0494 10.0207 39.1253 9.85207 39.1743 9.67489C39.8243 7.17489 39.1743 7.02489 39.1743 6.99989C38.4993 6.57489 36.8743 7.74989 36.5493 8.02489Z" fill="black"/>
<path fill-rule="evenodd" clip-rule="evenodd" d="M47.4992 14.0499C48.0992 11.5499 47.4992 11.5499 47.4992 11.5499C46.7742 10.9999 44.9992 12.4999 44.9992 12.4999C44.8416 12.6194 44.7133 12.7734 44.6242 12.9499C44.5208 13.1178 44.4528 13.3049 44.4242 13.4999C43.8992 15.7249 44.2742 15.9999 44.6492 16.2249C45.4992 16.6999 47.3742 14.6499 47.3992 14.6249C47.4675 14.441 47.5014 14.2461 47.4992 14.0499Z" fill="black"/>
<path fill-rule="evenodd" clip-rule="evenodd" d="M30.7244 10.6L32.0245 8.57502C33.131 6.55554 34.4286 4.64681 35.8994 2.87502C37.193 3.01817 38.4347 3.46348 39.5245 4.17502C41.7995 5.40002 44.0744 7.07502 45.5994 8.02502C46.1994 8.40002 50.2495 10.25 51.7495 11.3C51.8964 12.8208 51.5921 14.3512 50.8745 15.7C50.0536 17.4224 49.1269 19.0923 48.0994 20.7C46.9744 22.8 48.0995 24.05 49.8245 21.9C51.3667 19.8384 52.6983 17.6273 53.7995 15.3C54.5148 13.737 54.7498 11.9968 54.4745 10.3C54.0738 9.49737 53.4484 8.82855 52.6744 8.37502C50.9244 7.22502 47.6744 5.60002 47.2244 5.27502C44.8501 3.5822 42.3418 2.08558 39.7245 0.800024C38.3987 0.176758 36.9361 -0.0985631 35.4744 2.43634e-05C34.5708 0.235533 33.7976 0.819963 33.3244 1.62502C32.1619 3.51665 31.1183 5.47877 30.1994 7.50002L29.0244 9.70002C27.7244 12.05 28.9994 12.75 30.7244 10.6Z" fill="black"/>
</g>
<defs>
<clipPath id="clip0_166_4911">
<rect width="60" height="60" fill="white"/>
</clipPath>
</defs>
</svg>
