<svg width="19" height="18" viewBox="0 0 19 18" fill="none" xmlns="http://www.w3.org/2000/svg">
<g clip-path="url(#clip0_57_61)">
<path d="M6.66738 0.86466C6.39668 0.210754 5.68301 -0.137293 5.00098 0.0490349L1.90723 0.892785C1.29551 1.06153 0.870117 1.617 0.870117 2.24982C0.870117 10.9475 7.92246 17.9998 16.6201 17.9998C17.2529 17.9998 17.8084 17.5744 17.9771 16.9627L18.8209 13.869C19.0072 13.1869 18.6592 12.4733 18.0053 12.2026L14.6303 10.7963C14.0572 10.5572 13.3928 10.7225 13.0025 11.2041L11.5822 12.9373C9.10723 11.7666 7.10332 9.76271 5.93262 7.28771L7.66582 5.87091C8.14746 5.47716 8.3127 4.81622 8.07363 4.24318L6.66738 0.868176V0.86466Z" fill="black"/>
</g>
<defs>
<clipPath id="clip0_57_61">
<rect width="18" height="18" fill="white" transform="translate(0.870117)"/>
</clipPath>
</defs>
</svg>
