<svg width="24" height="24" viewBox="0 0 24 24" fill="none" xmlns="http://www.w3.org/2000/svg">
<path d="M22.9042 7.17079C22.6417 6.18329 21.8709 5.40829 20.8917 5.14579C19.1167 4.66663 12 4.66663 12 4.66663C12 4.66663 4.88335 4.66663 3.10835 5.14579C2.12918 5.40829 1.35835 6.18329 1.09585 7.17079C0.62085 8.95829 0.62085 12.6833 0.62085 12.6833C0.62085 12.6833 0.62085 16.4083 1.09585 18.1958C1.35835 19.1833 2.12918 19.925 3.10835 20.1875C4.88335 20.6666 12 20.6666 12 20.6666C12 20.6666 19.1167 20.6666 20.8917 20.1875C21.8709 19.925 22.6417 19.1791 22.9042 18.1958C23.3792 16.4083 23.3792 12.6833 23.3792 12.6833C23.3792 12.6833 23.3792 8.95829 22.9042 7.17079ZM9.67502 16.0666V9.29996L15.6209 12.6833L9.67502 16.0666Z" fill="black"/>
</svg>
